<svg width="391" height="112" viewBox="0 0 391 112" fill="none" xmlns="http://www.w3.org/2000/svg">
<path d="M390.973 70.4707C390.941 72.5297 390.824 74.5907 390.622 76.6498C390.24 80.7124 389.528 84.769 388.509 88.8316C387.946 91.1126 387.287 93.3956 386.512 95.6766C385.153 99.6758 381.202 105.772 355.937 109.222C327.347 113.124 268.597 111.774 205.014 111.774C126.51 111.774 148.59 111.99 70.3725 110.635C52.7538 110.332 37.1528 108.514 25.8955 105.774C13.831 103.217 5.82347 99.6758 4.48534 95.6766C3.98619 94.1685 3.51891 92.6584 3.0941 91.1503C1.85155 86.7032 0.9807 82.2601 0.492175 77.819C0.216052 75.2962 0.0567517 72.7715 0.0248913 70.2487C-0.0282092 68.4513 0.00364924 66.6518 0.12047 64.8564V64.787C0.269152 62.1929 0.524035 47.5398 0.927599 44.9496C1.23558 42.8807 1.61791 40.8098 2.10643 38.7408C2.75426 35.9465 3.54015 33.1483 4.47472 30.354C5.18626 28.2474 7.73509 26.2696 11.7707 24.494C15.371 22.8967 20.1712 21.4659 25.8849 20.257C37.1422 17.5182 52.7431 15.7009 70.3619 15.3938C148.579 14.0383 242.408 14.0383 320.604 15.3938C338.222 15.7009 353.823 17.5182 365.081 20.257C372.355 21.7948 378.143 23.6934 381.892 25.8356C384.377 27.2447 385.97 28.7666 386.501 30.356C387.489 33.2969 388.328 36.2418 388.965 39.1827C389.464 41.3904 389.889 43.604 390.187 45.8117C390.505 48.0491 390.718 62.3494 390.845 64.5868V64.6047C390.962 66.5607 390.994 68.5167 390.962 70.4727L390.973 70.4707Z" fill="url(#paint0_radial_668_23038)"/>
<path d="M390.644 73.0172C390.453 75.1674 390.155 77.3176 389.773 79.4678C389.125 83.134 388.244 86.8042 387.076 90.4745V90.4784C386.895 91.0571 386.704 91.6358 386.513 92.2144C385.153 96.2096 377.156 99.753 365.092 102.309C353.835 105.048 338.234 106.866 320.615 107.173C242.419 108.528 148.59 108.528 70.3732 107.173C52.7544 106.866 37.1535 105.048 25.8961 102.309C14.437 99.8818 6.65248 96.5664 4.74086 92.8149C4.62404 92.6167 4.5497 92.4166 4.48598 92.2144C3.19033 88.3936 2.19204 84.5748 1.46987 80.7579C0.981343 78.2312 0.609638 75.7044 0.386616 73.1757V73.1718C0.0467721 69.8781 -0.0488086 54.5254 0.0467724 51.2318V51.1882C0.0786328 50.3757 0.110494 49.5651 0.163594 48.7526C0.291036 46.4637 0.535298 44.1747 0.875142 41.8858C1.49111 37.6805 2.4363 33.4733 3.73195 29.264C3.97622 28.4733 4.22048 27.6786 4.48598 26.8879C5.82411 22.8887 13.8317 19.3454 25.8961 16.7889C37.1535 14.0521 52.7544 12.2328 70.3732 11.9277C148.59 10.5721 242.419 10.5721 320.615 11.9277C338.234 12.2309 353.835 14.0521 365.092 16.7889C377.156 19.3454 385.164 22.8867 386.513 26.8879C386.863 27.9323 387.192 28.9787 387.5 30.023C388.69 33.9965 389.561 37.9719 390.166 41.9453C390.517 44.4145 390.761 46.8818 390.888 49.3511C390.909 49.7514 390.941 50.1458 390.952 50.5461V50.6848C391.069 54.1093 390.973 69.5967 390.644 73.0211V73.0172Z" fill="url(#paint1_radial_668_23038)"/>
<g style="mix-blend-mode:hard-light" opacity="0.2">
<path d="M386.512 24.9696C385.163 20.9506 377.166 17.3894 365.102 14.821C353.845 12.0684 338.244 10.2412 320.625 9.93402C242.418 8.57058 148.579 8.57058 70.3831 9.93402C52.7643 10.2412 37.1634 12.0664 25.9061 14.821C13.8416 17.3914 5.83404 20.9506 4.49591 24.9696C-1.47259 42.8153 -1.47259 72.7219 4.49591 90.5676C5.84466 94.5866 13.8416 98.1478 25.9061 100.716C37.1634 103.469 52.7643 105.296 70.3831 105.603C148.59 106.967 242.429 106.967 320.625 105.603C338.244 105.296 353.845 103.471 365.102 100.716C377.166 98.1458 385.174 94.5866 386.512 90.5676C392.48 72.7219 392.48 42.8153 386.512 24.9696Z" fill="white"/>
</g>
<path d="M389.295 78.5404C388.584 82.0481 387.671 85.5558 386.513 89.0635C385.175 93.1657 377.167 96.7963 365.103 99.4182C353.845 102.228 338.245 104.091 320.626 104.402C242.419 105.795 148.58 105.795 70.384 104.402C52.7652 104.089 37.1643 102.226 25.9069 99.4182C13.8425 96.7963 5.83494 93.1657 4.4968 89.0635C3.43479 85.8174 2.56394 82.5693 1.87363 79.3232C-1.28054 64.3629 -0.399071 37.3437 4.4968 22.3834C5.83494 18.2852 13.8425 14.6526 25.9069 12.0288C37.1643 9.2226 52.7652 7.35975 70.384 7.04465C148.59 5.65544 242.43 5.65544 320.626 7.04465C338.245 7.35975 353.845 9.2226 365.103 12.0288C377.167 14.6546 385.175 18.2852 386.513 22.3834C391.324 37.0821 392.269 63.8417 389.295 78.5404Z" fill="url(#paint2_radial_668_23038)"/>
<g style="mix-blend-mode:overlay" opacity="0.4" filter="url(#filter0_f_668_23038)">
<path d="M34.6886 19.3137C45.3406 17.0466 60.0919 15.5424 76.7442 15.2868C150.692 14.1651 240.273 14.1651 314.231 15.2868C330.894 15.5424 345.646 17.0466 356.287 19.3137C364.04 20.7544 370.019 22.5717 373.449 24.6268C373.173 23.7825 372.907 22.9403 372.599 22.0961C371.357 18.7865 363.965 15.8516 352.814 13.7311C342.406 11.464 327.995 9.95982 311.714 9.70417C239.444 8.5825 151.542 8.5825 79.2718 9.70417C62.9912 9.95982 48.5691 11.464 38.172 13.7311C27.0209 15.8516 19.6293 18.7846 18.3867 22.0961C18.0681 22.9383 17.8132 23.7825 17.5371 24.6248C20.9674 22.5697 26.9465 20.7524 34.6992 19.3117L34.6886 19.3137Z" fill="url(#paint3_linear_668_23038)"/>
</g>
<g style="mix-blend-mode:soft-light" opacity="0.75" filter="url(#filter1_f_668_23038)">
<path d="M362.404 79.666C351.327 82.3592 335.992 84.1468 318.67 84.446C241.77 85.7797 149.237 85.7797 72.3262 84.446C55.0048 84.1448 39.6587 82.3592 28.5925 79.666C26.7871 79.2835 25.0879 78.8753 23.4736 78.4492C24.0896 81.3148 24.8649 84.1785 25.8313 87.0441C27.0208 90.5776 34.0937 93.7067 44.7457 95.9659C54.6968 98.3857 68.4817 99.9909 84.0401 100.26C153.135 101.457 237.862 101.457 306.946 100.26C322.504 99.9909 336.289 98.3857 346.24 95.9659C356.903 93.7067 363.965 90.5776 365.155 87.0441C366.121 84.1785 366.896 81.3148 367.512 78.4492C365.898 78.8753 364.199 79.2835 362.393 79.666H362.404Z" fill="url(#paint4_linear_668_23038)"/>
</g>
<path style="mix-blend-mode:overlay" opacity="0.6" d="M390.899 45.0884C390.559 37.3833 389.105 29.6802 386.513 21.9752C385.175 17.978 377.168 14.4366 365.103 11.8761C353.846 9.13935 338.245 7.32208 320.626 7.01491C242.42 5.66137 148.58 5.66137 70.3736 7.01689C52.7549 7.32406 37.1539 9.14133 25.8966 11.8781C13.8322 14.4386 5.82458 17.9799 4.48645 21.9771C1.85266 29.815 0.387085 37.6508 0.0791016 45.4887C1.49158 45.558 2.89343 45.6294 4.31653 45.6968C17.0607 46.3131 29.7942 46.86 42.5171 47.3376C47.0306 47.5081 51.5442 47.6706 56.0683 47.8212C141.061 50.7027 246.466 50.5917 331.257 47.6389C336.238 47.4645 341.229 47.2822 346.21 47.0899C360.313 46.541 374.438 45.9167 388.563 45.2112C389.349 45.1716 390.124 45.132 390.91 45.0923L390.899 45.0884Z" fill="url(#paint5_radial_668_23038)"/>
<g style="mix-blend-mode:soft-light" opacity="0.3">
<path d="M279.952 19.7318C280.058 24.9518 347.294 21.6462 189.384 21.6462C31.4732 21.6462 108.894 25.1064 108.788 19.8864C108.681 14.6665 15.2138 10.3582 195.458 10.3582C351.447 10.3582 279.846 14.5119 279.941 19.7318H279.952Z" fill="white"/>
</g>
<g style="mix-blend-mode:overlay">
<path d="M318.722 10.1752C320.101 9.31424 316.422 8.34876 310.504 8.01873C304.587 7.68871 298.672 8.1191 297.293 8.98005C295.914 9.841 299.593 10.8065 305.511 11.1365C311.428 11.4665 317.343 11.0361 318.722 10.1752Z" fill="url(#paint6_radial_668_23038)"/>
<path d="M334.455 10.7813C335.196 10.3188 333.218 9.80014 330.037 9.62275C326.857 9.44535 323.678 9.67644 322.937 10.1389C322.196 10.6014 324.174 11.1201 327.355 11.2975C330.536 11.4748 333.715 11.2438 334.455 10.7813Z" fill="url(#paint7_radial_668_23038)"/>
<path d="M383.094 76.7072C383.094 79.3667 377.72 81.5229 374.587 81.5229C371.454 81.5229 375.532 79.9454 375.532 77.2839C375.532 74.6224 371.454 71.8896 374.587 71.8896C377.72 71.8896 383.094 74.0457 383.094 76.7052V76.7072Z" fill="url(#paint8_radial_668_23038)"/>
<path d="M372.842 23.9132C377.279 23.8128 380.07 22.4904 379.076 20.9595C378.082 19.4286 373.679 18.2688 369.242 18.3692C364.805 18.4695 362.014 19.7919 363.008 21.3229C364.003 22.8538 368.405 24.0135 372.842 23.9132Z" fill="url(#paint9_radial_668_23038)"/>
<path d="M375.632 27.8934C378.019 27.8394 379.521 27.128 378.986 26.3044C378.451 25.4808 376.082 24.8569 373.695 24.9109C371.307 24.9648 369.806 25.6763 370.341 26.4999C370.875 27.3235 373.244 27.9474 375.632 27.8934Z" fill="url(#paint10_radial_668_23038)"/>
<path d="M149.791 9.99944C149.919 10.6772 94.3967 10.2491 74.4415 10.9626C33.9257 12.4093 34.9028 17.9819 29.1255 17.9027C23.2207 17.8234 26.959 10.5246 73.7724 9.47427C115.244 8.54483 149.664 9.32168 149.791 9.99944Z" fill="url(#paint11_radial_668_23038)"/>
<path d="M28.6517 23.301C28.9544 21.7073 26.8762 20.4 24.0098 20.381C21.1435 20.3621 18.5745 21.6386 18.2717 23.2323C17.969 24.826 20.0473 26.1333 22.9136 26.1522C25.78 26.1712 28.349 24.8946 28.6517 23.301Z" fill="url(#paint12_radial_668_23038)"/>
</g>
<path d="M23.6862 79.012C24.3553 82.2423 25.2155 85.4706 26.3094 88.7008C27.5732 92.478 35.1029 95.8213 46.4664 98.235C57.0653 100.821 71.7529 102.537 88.3415 102.825C161.96 104.107 229.026 104.107 302.645 102.825C319.233 102.537 333.921 100.823 344.52 98.235C355.883 95.8213 363.413 92.478 364.677 88.7008C365.686 85.7123 366.493 82.7219 367.151 79.7334C370.125 65.9602 369.297 39.6187 364.677 25.8455C363.413 22.0723 355.883 18.7291 344.52 16.3113C333.921 13.7271 319.233 12.0129 302.645 11.7216C229.026 10.4414 161.96 10.4414 88.3415 11.7216C71.7529 12.0129 57.0653 13.7271 46.4664 16.3113C35.1029 18.7271 27.5732 22.0723 26.3094 25.8455C21.7746 39.3789 20.8932 65.4806 23.6862 79.014V79.012Z" fill="url(#paint13_radial_668_23038)"/>
<path style="mix-blend-mode:overlay" d="M34.8153 53.6931C35.1339 49.6048 36.472 25.572 38.8616 21.4837C40.0935 19.3632 47.4745 17.4825 58.6044 16.125C68.9908 14.6724 83.3705 13.7093 99.6086 13.5448C171.709 12.8254 232.859 12.8254 304.959 13.5448C321.208 13.7073 335.588 14.6724 345.963 16.125C357.093 17.4825 364.464 19.3632 365.706 21.4837C368.138 25.6434 369.476 49.7455 369.763 53.9052C368.467 53.9428 367.161 53.9805 365.855 54.0162C354.109 54.3431 342.363 54.6345 330.639 54.8861C326.475 54.9773 322.312 55.0625 318.149 55.1438C239.794 56.6737 167.981 56.6142 89.8063 55.0467C85.2184 54.9555 80.6092 54.8584 76.0213 54.7553C63.0117 54.464 49.9915 54.1331 36.9712 53.7585C36.249 53.7387 35.5269 53.7169 34.8047 53.6951L34.8153 53.6931Z" fill="url(#paint14_radial_668_23038)"/>
<g style="mix-blend-mode:overlay" opacity="0.15" filter="url(#filter2_f_668_23038)">
<path d="M339.848 80.3497C329.685 82.5693 315.592 84.0437 299.683 84.2934C229.07 85.3933 161.961 85.3933 91.348 84.2934C75.4391 84.0437 61.3568 82.5693 51.1827 80.3497C43.7805 78.9387 38.0775 77.1591 34.7959 75.1456C35.0614 75.972 35.3057 76.7984 35.6136 77.6248C36.7925 80.867 43.8549 83.7405 54.5068 85.8174C64.4473 88.0369 78.2109 89.5114 93.7588 89.7611C162.768 90.8609 228.273 90.8609 297.272 89.7611C312.82 89.5114 326.584 88.0369 336.524 85.8174C347.176 83.7405 354.238 80.867 355.417 77.6248C355.714 76.7984 355.959 75.974 356.235 75.1476C352.953 77.1611 347.25 78.9407 339.848 80.3517V80.3497Z" fill="url(#paint15_linear_668_23038)"/>
</g>
<g style="mix-blend-mode:overlay" opacity="0.38" filter="url(#filter3_f_668_23038)">
<path d="M339.848 23.8043C329.685 21.5847 315.592 20.1103 299.683 19.8606C229.07 18.7607 161.961 18.7607 91.348 19.8606C75.4391 20.1103 61.3568 21.5847 51.1827 23.8043C43.7805 25.2153 38.0775 26.9949 34.7959 29.0084C35.0614 28.182 35.3057 27.3556 35.6136 26.5292C36.7925 23.2871 43.8549 20.4135 54.5068 18.3366C64.4473 16.1171 78.2109 14.6427 93.7588 14.393C162.768 13.2931 228.273 13.2931 297.272 14.393C312.82 14.6427 326.584 16.1171 336.524 18.3366C347.176 20.4135 354.238 23.2871 355.417 26.5292C355.714 27.3556 355.959 28.18 356.235 29.0064C352.953 26.9929 347.25 25.2133 339.848 23.8023V23.8043Z" fill="url(#paint16_linear_668_23038)"/>
</g>
<g style="mix-blend-mode:multiply" opacity="0.25" filter="url(#filter4_f_668_23038)">
<path d="M364.559 84.9276C353.291 87.2482 337.68 88.786 320.05 89.0456C241.801 90.1951 152.847 90.1951 74.5878 89.0456C56.9584 88.786 41.3468 87.2482 30.0789 84.9276C28.2416 84.5986 26.5105 84.2458 24.875 83.8792C25.5016 86.3465 26.2981 88.8158 27.2751 91.283C28.4858 94.327 35.6757 97.0222 46.5294 98.9683C56.6504 101.053 70.6796 102.436 86.5141 102.668C156.819 103.701 237.83 103.701 308.135 102.668C323.969 102.436 337.998 101.053 348.119 98.9683C358.963 97.0222 366.163 94.327 367.374 91.283C368.351 88.8158 369.147 86.3465 369.774 83.8792C368.138 84.2458 366.407 84.5966 364.57 84.9276H364.559Z" fill="url(#paint17_linear_668_23038)"/>
</g>
<path d="M68.1234 41.6V30.46C68.1234 29.6 68.8034 28.92 69.6634 28.92H69.9834C70.7234 28.92 71.1634 29.28 71.5834 29.82L77.5234 37.62V30.4C77.5234 29.56 78.2034 28.88 79.0434 28.88C79.8834 28.88 80.5634 29.56 80.5634 30.4V41.54C80.5634 42.4 79.8834 43.08 79.0234 43.08H78.9234C78.1834 43.08 77.7434 42.72 77.3234 42.18L71.1634 34.1V41.6C71.1634 42.44 70.4834 43.12 69.6434 43.12C68.8034 43.12 68.1234 42.44 68.1234 41.6ZM88.8641 43.24C85.5441 43.24 83.0841 40.78 83.0841 37.7V37.66C83.0841 34.58 85.5641 32.08 88.9041 32.08C92.2241 32.08 94.6841 34.54 94.6841 37.62V37.66C94.6841 40.74 92.2041 43.24 88.8641 43.24ZM88.9041 40.62C90.6441 40.62 91.6841 39.28 91.6841 37.7V37.66C91.6841 36.08 90.5441 34.7 88.8641 34.7C87.1241 34.7 86.0841 36.04 86.0841 37.62V37.66C86.0841 39.24 87.2241 40.62 88.9041 40.62ZM100.505 43.18C98.6454 43.18 97.3854 42.44 97.3854 39.96V34.88H97.2854C96.5654 34.88 95.9854 34.3 95.9854 33.58C95.9854 32.86 96.5654 32.28 97.2854 32.28H97.3854V30.94C97.3854 30.1 98.0654 29.42 98.9054 29.42C99.7454 29.42 100.425 30.1 100.425 30.94V32.28H101.765C102.485 32.28 103.065 32.86 103.065 33.58C103.065 34.3 102.485 34.88 101.765 34.88H100.425V39.46C100.425 40.16 100.725 40.5 101.405 40.5C101.505 40.5 101.705 40.48 101.765 40.48C102.445 40.48 103.025 41.04 103.025 41.74C103.025 42.28 102.665 42.72 102.245 42.88C101.685 43.1 101.165 43.18 100.505 43.18ZM114.222 43.2C112.202 43.2 110.542 42.04 110.542 39.92V39.88C110.542 37.54 112.322 36.46 114.862 36.46C115.942 36.46 116.722 36.64 117.482 36.9V36.72C117.482 35.46 116.702 34.76 115.182 34.76C114.342 34.76 113.662 34.88 113.082 35.06C112.902 35.12 112.782 35.14 112.642 35.14C111.942 35.14 111.382 34.6 111.382 33.9C111.382 33.36 111.722 32.9 112.202 32.72C113.162 32.36 114.202 32.16 115.622 32.16C117.282 32.16 118.482 32.6 119.242 33.36C120.042 34.16 120.402 35.34 120.402 36.78V41.66C120.402 42.48 119.742 43.12 118.922 43.12C118.042 43.12 117.462 42.5 117.462 41.86V41.84C116.722 42.66 115.702 43.2 114.222 43.2ZM115.142 41.1C116.562 41.1 117.522 40.32 117.522 39.22V38.68C117.002 38.44 116.322 38.28 115.582 38.28C114.282 38.28 113.482 38.8 113.482 39.76V39.8C113.482 40.62 114.162 41.1 115.142 41.1ZM129.045 41.9C128.705 42.68 128.145 43.22 127.325 43.22H127.165C126.345 43.22 125.785 42.7 125.445 41.9L122.165 34.32C122.085 34.12 122.005 33.86 122.005 33.58C122.005 32.86 122.665 32.16 123.485 32.16C124.305 32.16 124.745 32.62 124.965 33.24L127.265 39.46L129.605 33.2C129.805 32.68 130.225 32.16 131.025 32.16C131.825 32.16 132.485 32.78 132.485 33.6C132.485 33.86 132.385 34.18 132.325 34.32L129.045 41.9ZM137.328 43.2C135.308 43.2 133.648 42.04 133.648 39.92V39.88C133.648 37.54 135.428 36.46 137.968 36.46C139.048 36.46 139.828 36.64 140.588 36.9V36.72C140.588 35.46 139.808 34.76 138.288 34.76C137.448 34.76 136.768 34.88 136.188 35.06C136.008 35.12 135.888 35.14 135.748 35.14C135.048 35.14 134.488 34.6 134.488 33.9C134.488 33.36 134.828 32.9 135.308 32.72C136.268 32.36 137.308 32.16 138.728 32.16C140.388 32.16 141.588 32.6 142.348 33.36C143.148 34.16 143.508 35.34 143.508 36.78V41.66C143.508 42.48 142.848 43.12 142.028 43.12C141.148 43.12 140.568 42.5 140.568 41.86V41.84C139.828 42.66 138.808 43.2 137.328 43.2ZM138.248 41.1C139.668 41.1 140.628 40.32 140.628 39.22V38.68C140.108 38.44 139.428 38.28 138.688 38.28C137.388 38.28 136.588 38.8 136.588 39.76V39.8C136.588 40.62 137.268 41.1 138.248 41.1ZM146.084 29.76V29.72C146.084 28.84 146.824 28.3 147.784 28.3C148.744 28.3 149.484 28.84 149.484 29.72V29.76C149.484 30.64 148.744 31.2 147.784 31.2C146.824 31.2 146.084 30.64 146.084 29.76ZM146.264 41.6V33.68C146.264 32.84 146.944 32.16 147.784 32.16C148.624 32.16 149.304 32.84 149.304 33.68V41.6C149.304 42.44 148.624 43.12 147.784 43.12C146.944 43.12 146.264 42.44 146.264 41.6ZM152.299 41.6V29.8C152.299 28.96 152.979 28.28 153.819 28.28C154.659 28.28 155.339 28.96 155.339 29.8V41.6C155.339 42.44 154.659 43.12 153.819 43.12C152.979 43.12 152.299 42.44 152.299 41.6ZM161.234 43.2C159.214 43.2 157.554 42.04 157.554 39.92V39.88C157.554 37.54 159.334 36.46 161.874 36.46C162.954 36.46 163.734 36.64 164.494 36.9V36.72C164.494 35.46 163.714 34.76 162.194 34.76C161.354 34.76 160.674 34.88 160.094 35.06C159.914 35.12 159.794 35.14 159.654 35.14C158.954 35.14 158.394 34.6 158.394 33.9C158.394 33.36 158.734 32.9 159.214 32.72C160.174 32.36 161.214 32.16 162.634 32.16C164.294 32.16 165.494 32.6 166.254 33.36C167.054 34.16 167.414 35.34 167.414 36.78V41.66C167.414 42.48 166.754 43.12 165.934 43.12C165.054 43.12 164.474 42.5 164.474 41.86V41.84C163.734 42.66 162.714 43.2 161.234 43.2ZM162.154 41.1C163.574 41.1 164.534 40.32 164.534 39.22V38.68C164.014 38.44 163.334 38.28 162.594 38.28C161.294 38.28 160.494 38.8 160.494 39.76V39.8C160.494 40.62 161.174 41.1 162.154 41.1ZM170.03 41.6V29.8C170.03 28.96 170.71 28.28 171.55 28.28C172.39 28.28 173.07 28.96 173.07 29.8V33.82C173.81 32.82 174.83 32.08 176.41 32.08C178.91 32.08 181.29 34.04 181.29 37.62V37.66C181.29 41.24 178.95 43.2 176.41 43.2C174.79 43.2 173.79 42.46 173.07 41.6V41.62C173.07 42.44 172.39 43.12 171.55 43.12C170.71 43.12 170.03 42.44 170.03 41.6ZM175.63 40.62C177.05 40.62 178.25 39.46 178.25 37.66V37.62C178.25 35.84 177.05 34.66 175.63 34.66C174.21 34.66 173.03 35.84 173.03 37.62V37.66C173.03 39.44 174.21 40.62 175.63 40.62ZM183.666 41.6V29.8C183.666 28.96 184.346 28.28 185.186 28.28C186.026 28.28 186.706 28.96 186.706 29.8V41.6C186.706 42.44 186.026 43.12 185.186 43.12C184.346 43.12 183.666 42.44 183.666 41.6ZM192.021 36.8H196.601C196.421 35.44 195.621 34.52 194.341 34.52C193.081 34.52 192.261 35.42 192.021 36.8ZM198.361 41.94C197.421 42.74 196.201 43.24 194.641 43.24C191.421 43.24 189.041 40.98 189.041 37.7V37.66C189.041 34.6 191.221 32.08 194.341 32.08C197.921 32.08 199.501 35.02 199.501 37.24C199.501 38.12 198.881 38.7 198.081 38.7H192.061C192.361 40.08 193.321 40.8 194.681 40.8C195.521 40.8 196.221 40.54 196.841 40.08C197.061 39.92 197.261 39.84 197.581 39.84C198.261 39.84 198.761 40.36 198.761 41.04C198.761 41.44 198.581 41.74 198.361 41.94ZM211.483 43.2C210.743 43.2 210.123 42.78 209.803 41.84L207.183 34.28C207.123 34.1 207.043 33.8 207.043 33.54C207.043 32.84 207.603 32.16 208.503 32.16C209.263 32.16 209.763 32.64 209.983 33.34L211.623 38.78L213.303 33.36C213.523 32.64 214.083 32.14 214.863 32.14H215.043C215.823 32.14 216.383 32.64 216.603 33.36L218.303 38.8L219.983 33.32C220.183 32.68 220.643 32.16 221.443 32.16C222.283 32.16 222.863 32.8 222.863 33.56C222.863 33.76 222.803 34.04 222.763 34.18L220.063 41.84C219.743 42.78 219.123 43.2 218.383 43.2H218.283C217.543 43.2 216.923 42.78 216.643 41.9L214.943 36.5L213.223 41.9C212.943 42.78 212.323 43.2 211.583 43.2H211.483ZM224.796 41.6V29.8C224.796 28.96 225.476 28.28 226.316 28.28C227.156 28.28 227.836 28.96 227.836 29.8V33.8C228.536 32.9 229.436 32.08 230.976 32.08C233.276 32.08 234.616 33.6 234.616 36.06V41.6C234.616 42.44 233.936 43.12 233.096 43.12C232.256 43.12 231.576 42.44 231.576 41.6V37.02C231.576 35.58 230.896 34.84 229.736 34.84C228.576 34.84 227.836 35.58 227.836 37.02V41.6C227.836 42.44 227.156 43.12 226.316 43.12C225.476 43.12 224.796 42.44 224.796 41.6ZM237.216 29.76V29.72C237.216 28.84 237.956 28.3 238.916 28.3C239.876 28.3 240.616 28.84 240.616 29.72V29.76C240.616 30.64 239.876 31.2 238.916 31.2C237.956 31.2 237.216 30.64 237.216 29.76ZM237.396 41.6V33.68C237.396 32.84 238.076 32.16 238.916 32.16C239.756 32.16 240.436 32.84 240.436 33.68V41.6C240.436 42.44 239.756 43.12 238.916 43.12C238.076 43.12 237.396 42.44 237.396 41.6ZM243.432 41.6V29.8C243.432 28.96 244.112 28.28 244.952 28.28C245.792 28.28 246.472 28.96 246.472 29.8V41.6C246.472 42.44 245.792 43.12 244.952 43.12C244.112 43.12 243.432 42.44 243.432 41.6ZM251.787 36.8H256.367C256.187 35.44 255.387 34.52 254.107 34.52C252.847 34.52 252.027 35.42 251.787 36.8ZM258.127 41.94C257.187 42.74 255.967 43.24 254.407 43.24C251.187 43.24 248.807 40.98 248.807 37.7V37.66C248.807 34.6 250.987 32.08 254.107 32.08C257.687 32.08 259.267 35.02 259.267 37.24C259.267 38.12 258.647 38.7 257.847 38.7H251.827C252.127 40.08 253.087 40.8 254.447 40.8C255.287 40.8 255.987 40.54 256.607 40.08C256.827 39.92 257.027 39.84 257.347 39.84C258.027 39.84 258.527 40.36 258.527 41.04C258.527 41.44 258.347 41.74 258.127 41.94ZM267.549 29.76V29.72C267.549 28.84 268.289 28.3 269.249 28.3C270.209 28.3 270.949 28.84 270.949 29.72V29.76C270.949 30.64 270.209 31.2 269.249 31.2C268.289 31.2 267.549 30.64 267.549 29.76ZM267.729 41.6V33.68C267.729 32.84 268.409 32.16 269.249 32.16C270.089 32.16 270.769 32.84 270.769 33.68V41.6C270.769 42.44 270.089 43.12 269.249 43.12C268.409 43.12 267.729 42.44 267.729 41.6ZM273.624 41.6V33.68C273.624 32.84 274.304 32.16 275.144 32.16C275.984 32.16 276.664 32.84 276.664 33.68V33.8C277.364 32.9 278.264 32.08 279.804 32.08C282.104 32.08 283.444 33.6 283.444 36.06V41.6C283.444 42.44 282.764 43.12 281.924 43.12C281.084 43.12 280.404 42.44 280.404 41.6V37.02C280.404 35.58 279.724 34.84 278.564 34.84C277.404 34.84 276.664 35.58 276.664 37.02V41.6C276.664 42.44 275.984 43.12 275.144 43.12C274.304 43.12 273.624 42.44 273.624 41.6ZM292.401 41.46V30.54C292.401 29.68 293.081 29 293.941 29H298.901C300.501 29 301.761 29.44 302.561 30.24C303.201 30.88 303.521 31.66 303.521 32.62V32.66C303.521 34.24 302.681 35.12 301.681 35.68C303.301 36.3 304.301 37.24 304.301 39.12V39.16C304.301 41.72 302.221 43 299.061 43H293.941C293.081 43 292.401 42.32 292.401 41.46ZM295.401 34.66H298.241C299.601 34.66 300.461 34.22 300.461 33.18V33.14C300.461 32.22 299.741 31.7 298.441 31.7H295.401V34.66ZM295.401 40.3H299.061C300.421 40.3 301.241 39.82 301.241 38.78V38.74C301.241 37.8 300.541 37.22 298.961 37.22H295.401V40.3ZM308.974 36.8H313.554C313.374 35.44 312.574 34.52 311.294 34.52C310.034 34.52 309.214 35.42 308.974 36.8ZM315.314 41.94C314.374 42.74 313.154 43.24 311.594 43.24C308.374 43.24 305.994 40.98 305.994 37.7V37.66C305.994 34.6 308.174 32.08 311.294 32.08C314.874 32.08 316.454 35.02 316.454 37.24C316.454 38.12 315.834 38.7 315.034 38.7H309.014C309.314 40.08 310.274 40.8 311.634 40.8C312.474 40.8 313.174 40.54 313.794 40.08C314.014 39.92 314.214 39.84 314.534 39.84C315.214 39.84 315.714 40.36 315.714 41.04C315.714 41.44 315.534 41.74 315.314 41.94ZM322.4 43.18C320.54 43.18 319.28 42.44 319.28 39.96V34.88H319.18C318.46 34.88 317.88 34.3 317.88 33.58C317.88 32.86 318.46 32.28 319.18 32.28H319.28V30.94C319.28 30.1 319.96 29.42 320.8 29.42C321.64 29.42 322.32 30.1 322.32 30.94V32.28H323.66C324.38 32.28 324.96 32.86 324.96 33.58C324.96 34.3 324.38 34.88 323.66 34.88H322.32V39.46C322.32 40.16 322.62 40.5 323.3 40.5C323.4 40.5 323.6 40.48 323.66 40.48C324.34 40.48 324.92 41.04 324.92 41.74C324.92 42.28 324.56 42.72 324.14 42.88C323.58 43.1 323.06 43.18 322.4 43.18ZM330.121 43.2C328.101 43.2 326.441 42.04 326.441 39.92V39.88C326.441 37.54 328.221 36.46 330.761 36.46C331.841 36.46 332.621 36.64 333.381 36.9V36.72C333.381 35.46 332.601 34.76 331.081 34.76C330.241 34.76 329.561 34.88 328.981 35.06C328.801 35.12 328.681 35.14 328.541 35.14C327.841 35.14 327.281 34.6 327.281 33.9C327.281 33.36 327.621 32.9 328.101 32.72C329.061 32.36 330.101 32.16 331.521 32.16C333.181 32.16 334.381 32.6 335.141 33.36C335.941 34.16 336.301 35.34 336.301 36.78V41.66C336.301 42.48 335.641 43.12 334.821 43.12C333.941 43.12 333.361 42.5 333.361 41.86V41.84C332.621 42.66 331.601 43.2 330.121 43.2ZM331.041 41.1C332.461 41.1 333.421 40.32 333.421 39.22V38.68C332.901 38.44 332.221 38.28 331.481 38.28C330.181 38.28 329.381 38.8 329.381 39.76V39.8C329.381 40.62 330.061 41.1 331.041 41.1ZM99.6873 67.22C98.8473 67.22 98.2673 66.76 97.9473 66L93.4073 55.14C93.3073 54.9 93.2273 54.66 93.2273 54.4C93.2273 53.54 93.9073 52.88 94.7673 52.88C95.5673 52.88 96.0873 53.34 96.3273 53.96L99.8273 63.02L103.367 53.86C103.567 53.36 104.107 52.88 104.847 52.88C105.687 52.88 106.367 53.52 106.367 54.36C106.367 54.6 106.287 54.86 106.207 55.04L101.627 66C101.307 66.76 100.727 67.22 99.8873 67.22H99.6873ZM109.863 60.8H114.443C114.263 59.44 113.463 58.52 112.183 58.52C110.923 58.52 110.103 59.42 109.863 60.8ZM116.203 65.94C115.263 66.74 114.043 67.24 112.483 67.24C109.263 67.24 106.883 64.98 106.883 61.7V61.66C106.883 58.6 109.063 56.08 112.183 56.08C115.763 56.08 117.343 59.02 117.343 61.24C117.343 62.12 116.723 62.7 115.923 62.7H109.903C110.203 64.08 111.163 64.8 112.523 64.8C113.363 64.8 114.063 64.54 114.683 64.08C114.903 63.92 115.103 63.84 115.423 63.84C116.103 63.84 116.603 64.36 116.603 65.04C116.603 65.44 116.423 65.74 116.203 65.94ZM119.669 65.6V57.68C119.669 56.84 120.349 56.16 121.189 56.16C122.029 56.16 122.709 56.84 122.709 57.68V58.16C123.149 57.12 123.869 56.16 124.769 56.16C125.709 56.16 126.249 56.78 126.249 57.64C126.249 58.44 125.729 58.92 125.109 59.06C123.569 59.42 122.709 60.6 122.709 62.76V65.6C122.709 66.44 122.029 67.12 121.189 67.12C120.349 67.12 119.669 66.44 119.669 65.6ZM131.788 67.2C130.468 67.2 129.048 66.82 127.748 65.98C127.428 65.78 127.168 65.42 127.168 64.94C127.168 64.26 127.688 63.74 128.368 63.74C128.588 63.74 128.808 63.8 128.968 63.9C129.988 64.54 131.008 64.86 131.868 64.86C132.748 64.86 133.148 64.54 133.148 64.06V64.02C133.148 63.36 132.108 63.14 130.928 62.78C129.428 62.34 127.728 61.64 127.728 59.56V59.52C127.728 57.34 129.488 56.12 131.648 56.12C132.768 56.12 133.928 56.42 134.968 56.94C135.408 57.16 135.688 57.56 135.688 58.08C135.688 58.76 135.148 59.28 134.468 59.28C134.248 59.28 134.108 59.24 133.908 59.14C133.048 58.72 132.228 58.46 131.588 58.46C130.848 58.46 130.468 58.78 130.468 59.2V59.24C130.468 59.84 131.488 60.12 132.648 60.52C134.148 61.02 135.888 61.74 135.888 63.7V63.74C135.888 66.12 134.108 67.2 131.788 67.2ZM138.027 53.76V53.72C138.027 52.84 138.767 52.3 139.727 52.3C140.687 52.3 141.427 52.84 141.427 53.72V53.76C141.427 54.64 140.687 55.2 139.727 55.2C138.767 55.2 138.027 54.64 138.027 53.76ZM138.207 65.6V57.68C138.207 56.84 138.887 56.16 139.727 56.16C140.567 56.16 141.247 56.84 141.247 57.68V65.6C141.247 66.44 140.567 67.12 139.727 67.12C138.887 67.12 138.207 66.44 138.207 65.6ZM149.362 67.24C146.042 67.24 143.582 64.78 143.582 61.7V61.66C143.582 58.58 146.062 56.08 149.402 56.08C152.722 56.08 155.182 58.54 155.182 61.62V61.66C155.182 64.74 152.702 67.24 149.362 67.24ZM149.402 64.62C151.142 64.62 152.182 63.28 152.182 61.7V61.66C152.182 60.08 151.042 58.7 149.362 58.7C147.622 58.7 146.582 60.04 146.582 61.62V61.66C146.582 63.24 147.722 64.62 149.402 64.62ZM157.383 65.6V57.68C157.383 56.84 158.063 56.16 158.903 56.16C159.743 56.16 160.423 56.84 160.423 57.68V57.8C161.123 56.9 162.023 56.08 163.563 56.08C165.863 56.08 167.203 57.6 167.203 60.06V65.6C167.203 66.44 166.523 67.12 165.683 67.12C164.843 67.12 164.163 66.44 164.163 65.6V61.02C164.163 59.58 163.483 58.84 162.323 58.84C161.163 58.84 160.423 59.58 160.423 61.02V65.6C160.423 66.44 159.743 67.12 158.903 67.12C158.063 67.12 157.383 66.44 157.383 65.6ZM168.864 69.56C168.864 69.2 169.124 68.98 169.464 68.9C170.484 68.66 171.044 67.96 171.004 67C170.304 66.82 169.604 66.22 169.604 65.36V65.32C169.604 64.38 170.264 63.68 171.264 63.68C172.384 63.68 173.044 64.54 173.044 65.92V66C173.044 67.46 172.604 68.54 171.864 69.28C171.264 69.88 170.364 70.24 169.624 70.24C169.084 70.24 168.864 69.92 168.864 69.56ZM181.563 68.8V57.68C181.563 56.84 182.243 56.16 183.083 56.16C183.923 56.16 184.603 56.84 184.603 57.68V57.82C185.343 56.82 186.363 56.08 187.943 56.08C190.443 56.08 192.823 58.04 192.823 61.62V61.66C192.823 65.24 190.483 67.2 187.943 67.2C186.323 67.2 185.323 66.46 184.603 65.6V68.8C184.603 69.64 183.923 70.32 183.083 70.32C182.243 70.32 181.563 69.64 181.563 68.8ZM187.163 64.62C188.583 64.62 189.783 63.46 189.783 61.66V61.62C189.783 59.84 188.583 58.66 187.163 58.66C185.743 58.66 184.563 59.84 184.563 61.62V61.66C184.563 63.44 185.743 64.62 187.163 64.62ZM195.199 65.6V53.8C195.199 52.96 195.879 52.28 196.719 52.28C197.559 52.28 198.239 52.96 198.239 53.8V65.6C198.239 66.44 197.559 67.12 196.719 67.12C195.879 67.12 195.199 66.44 195.199 65.6ZM203.554 60.8H208.134C207.954 59.44 207.154 58.52 205.874 58.52C204.614 58.52 203.794 59.42 203.554 60.8ZM209.894 65.94C208.954 66.74 207.734 67.24 206.174 67.24C202.954 67.24 200.574 64.98 200.574 61.7V61.66C200.574 58.6 202.754 56.08 205.874 56.08C209.454 56.08 211.034 59.02 211.034 61.24C211.034 62.12 210.414 62.7 209.614 62.7H203.594C203.894 64.08 204.854 64.8 206.214 64.8C207.054 64.8 207.754 64.54 208.374 64.08C208.594 63.92 208.794 63.84 209.114 63.84C209.794 63.84 210.294 64.36 210.294 65.04C210.294 65.44 210.114 65.74 209.894 65.94ZM216.4 67.2C214.38 67.2 212.72 66.04 212.72 63.92V63.88C212.72 61.54 214.5 60.46 217.04 60.46C218.12 60.46 218.9 60.64 219.66 60.9V60.72C219.66 59.46 218.88 58.76 217.36 58.76C216.52 58.76 215.84 58.88 215.26 59.06C215.08 59.12 214.96 59.14 214.82 59.14C214.12 59.14 213.56 58.6 213.56 57.9C213.56 57.36 213.9 56.9 214.38 56.72C215.34 56.36 216.38 56.16 217.8 56.16C219.46 56.16 220.66 56.6 221.42 57.36C222.22 58.16 222.58 59.34 222.58 60.78V65.66C222.58 66.48 221.92 67.12 221.1 67.12C220.22 67.12 219.64 66.5 219.64 65.86V65.84C218.9 66.66 217.88 67.2 216.4 67.2ZM217.32 65.1C218.74 65.1 219.7 64.32 219.7 63.22V62.68C219.18 62.44 218.5 62.28 217.76 62.28C216.46 62.28 215.66 62.8 215.66 63.76V63.8C215.66 64.62 216.34 65.1 217.32 65.1ZM228.956 67.2C227.636 67.2 226.216 66.82 224.916 65.98C224.596 65.78 224.336 65.42 224.336 64.94C224.336 64.26 224.856 63.74 225.536 63.74C225.756 63.74 225.976 63.8 226.136 63.9C227.156 64.54 228.176 64.86 229.036 64.86C229.916 64.86 230.316 64.54 230.316 64.06V64.02C230.316 63.36 229.276 63.14 228.096 62.78C226.596 62.34 224.896 61.64 224.896 59.56V59.52C224.896 57.34 226.656 56.12 228.816 56.12C229.936 56.12 231.096 56.42 232.136 56.94C232.576 57.16 232.856 57.56 232.856 58.08C232.856 58.76 232.316 59.28 231.636 59.28C231.416 59.28 231.276 59.24 231.076 59.14C230.216 58.72 229.396 58.46 228.756 58.46C228.016 58.46 227.636 58.78 227.636 59.2V59.24C227.636 59.84 228.656 60.12 229.816 60.52C231.316 61.02 233.056 61.74 233.056 63.7V63.74C233.056 66.12 231.276 67.2 228.956 67.2ZM237.695 60.8H242.275C242.095 59.44 241.295 58.52 240.015 58.52C238.755 58.52 237.935 59.42 237.695 60.8ZM244.035 65.94C243.095 66.74 241.875 67.24 240.315 67.24C237.095 67.24 234.715 64.98 234.715 61.7V61.66C234.715 58.6 236.895 56.08 240.015 56.08C243.595 56.08 245.175 59.02 245.175 61.24C245.175 62.12 244.555 62.7 243.755 62.7H237.735C238.035 64.08 238.995 64.8 240.355 64.8C241.195 64.8 241.895 64.54 242.515 64.08C242.735 63.92 242.935 63.84 243.255 63.84C243.935 63.84 244.435 64.36 244.435 65.04C244.435 65.44 244.255 65.74 244.035 65.94ZM258.557 67.24C255.337 67.24 252.977 64.76 252.977 61.7V61.66C252.977 58.6 255.317 56.08 258.597 56.08C260.217 56.08 261.357 56.52 262.257 57.28C262.457 57.44 262.737 57.8 262.737 58.32C262.737 59.08 262.117 59.68 261.357 59.68C260.957 59.68 260.657 59.52 260.477 59.38C259.937 58.96 259.377 58.7 258.577 58.7C257.057 58.7 255.977 60.04 255.977 61.62V61.66C255.977 63.3 257.037 64.62 258.697 64.62C259.497 64.62 260.117 64.34 260.697 63.88C260.857 63.76 261.157 63.6 261.517 63.6C262.237 63.6 262.797 64.18 262.797 64.9C262.797 65.3 262.617 65.62 262.357 65.86C261.457 66.68 260.317 67.24 258.557 67.24ZM264.923 65.6V53.8C264.923 52.96 265.603 52.28 266.443 52.28C267.283 52.28 267.963 52.96 267.963 53.8V57.8C268.663 56.9 269.563 56.08 271.103 56.08C273.403 56.08 274.743 57.6 274.743 60.06V65.6C274.743 66.44 274.063 67.12 273.223 67.12C272.383 67.12 271.703 66.44 271.703 65.6V61.02C271.703 59.58 271.023 58.84 269.863 58.84C268.702 58.84 267.963 59.58 267.963 61.02V65.6C267.963 66.44 267.283 67.12 266.443 67.12C265.603 67.12 264.923 66.44 264.923 65.6ZM279.843 60.8H284.423C284.243 59.44 283.443 58.52 282.163 58.52C280.903 58.52 280.083 59.42 279.843 60.8ZM286.183 65.94C285.243 66.74 284.023 67.24 282.463 67.24C279.243 67.24 276.863 64.98 276.863 61.7V61.66C276.863 58.6 279.043 56.08 282.163 56.08C285.743 56.08 287.323 59.02 287.323 61.24C287.323 62.12 286.703 62.7 285.903 62.7H279.883C280.183 64.08 281.143 64.8 282.503 64.8C283.343 64.8 284.043 64.54 284.663 64.08C284.883 63.92 285.083 63.84 285.403 63.84C286.083 63.84 286.583 64.36 286.583 65.04C286.583 65.44 286.403 65.74 286.183 65.94ZM294.709 67.24C291.489 67.24 289.129 64.76 289.129 61.7V61.66C289.129 58.6 291.469 56.08 294.749 56.08C296.369 56.08 297.509 56.52 298.409 57.28C298.609 57.44 298.889 57.8 298.889 58.32C298.889 59.08 298.269 59.68 297.509 59.68C297.109 59.68 296.809 59.52 296.629 59.38C296.089 58.96 295.529 58.7 294.729 58.7C293.209 58.7 292.129 60.04 292.129 61.62V61.66C292.129 63.3 293.189 64.62 294.849 64.62C295.649 64.62 296.269 64.34 296.849 63.88C297.009 63.76 297.309 63.6 297.669 63.6C298.389 63.6 298.949 64.18 298.949 64.9C298.949 65.3 298.769 65.62 298.509 65.86C297.609 66.68 296.469 67.24 294.709 67.24ZM301.075 65.6V53.8C301.075 52.96 301.755 52.28 302.595 52.28C303.435 52.28 304.115 52.96 304.115 53.8V60.44L307.915 56.84C308.355 56.42 308.715 56.16 309.255 56.16C310.075 56.16 310.595 56.82 310.595 57.52C310.595 58.04 310.315 58.44 309.895 58.84L307.495 60.9L310.355 64.76C310.615 65.12 310.735 65.4 310.735 65.74C310.735 66.56 310.075 67.12 309.315 67.12C308.715 67.12 308.355 66.92 307.995 66.42L305.335 62.76L304.115 63.86V65.6C304.115 66.44 303.435 67.12 302.595 67.12C301.755 67.12 301.075 66.44 301.075 65.6ZM150.404 91.2C148.384 91.2 146.724 90.04 146.724 87.92V87.88C146.724 85.54 148.504 84.46 151.044 84.46C152.124 84.46 152.904 84.64 153.664 84.9V84.72C153.664 83.46 152.884 82.76 151.364 82.76C150.524 82.76 149.844 82.88 149.264 83.06C149.084 83.12 148.964 83.14 148.824 83.14C148.124 83.14 147.564 82.6 147.564 81.9C147.564 81.36 147.904 80.9 148.384 80.72C149.344 80.36 150.384 80.16 151.804 80.16C153.464 80.16 154.664 80.6 155.424 81.36C156.224 82.16 156.584 83.34 156.584 84.78V89.66C156.584 90.48 155.924 91.12 155.104 91.12C154.224 91.12 153.644 90.5 153.644 89.86V89.84C152.904 90.66 151.884 91.2 150.404 91.2ZM151.324 89.1C152.744 89.1 153.704 88.32 153.704 87.22V86.68C153.184 86.44 152.504 86.28 151.764 86.28C150.464 86.28 149.664 86.8 149.664 87.76V87.8C149.664 88.62 150.344 89.1 151.324 89.1ZM164 94.24C162.58 94.24 161.34 94 160.08 93.5C159.56 93.3 159.22 92.88 159.22 92.32C159.22 91.64 159.78 91.08 160.46 91.08C160.66 91.08 160.82 91.12 160.96 91.18C161.84 91.58 162.78 91.82 163.92 91.82C166 91.82 166.98 90.82 166.98 88.9V88.38C166.08 89.46 165.1 90.12 163.48 90.12C160.98 90.12 158.72 88.3 158.72 85.12V85.08C158.72 81.88 161.02 80.08 163.48 80.08C165.14 80.08 166.12 80.78 166.94 81.68V81.66C166.94 80.84 167.62 80.16 168.46 80.16C169.3 80.16 169.98 80.84 169.98 81.68V88.58C169.98 90.5 169.52 91.9 168.62 92.8C167.62 93.8 166.08 94.24 164 94.24ZM164.36 87.6C165.84 87.6 166.98 86.58 166.98 85.12V85.08C166.98 83.62 165.84 82.6 164.36 82.6C162.88 82.6 161.76 83.62 161.76 85.08V85.12C161.76 86.6 162.88 87.6 164.36 87.6ZM175.736 91.2C173.716 91.2 172.056 90.04 172.056 87.92V87.88C172.056 85.54 173.836 84.46 176.376 84.46C177.456 84.46 178.236 84.64 178.996 84.9V84.72C178.996 83.46 178.216 82.76 176.696 82.76C175.856 82.76 175.176 82.88 174.596 83.06C174.416 83.12 174.296 83.14 174.156 83.14C173.456 83.14 172.896 82.6 172.896 81.9C172.896 81.36 173.236 80.9 173.716 80.72C174.676 80.36 175.716 80.16 177.136 80.16C178.796 80.16 179.996 80.6 180.756 81.36C181.556 82.16 181.916 83.34 181.916 84.78V89.66C181.916 90.48 181.256 91.12 180.436 91.12C179.556 91.12 178.976 90.5 178.976 89.86V89.84C178.236 90.66 177.216 91.2 175.736 91.2ZM176.656 89.1C178.076 89.1 179.036 88.32 179.036 87.22V86.68C178.516 86.44 177.836 86.28 177.096 86.28C175.796 86.28 174.996 86.8 174.996 87.76V87.8C174.996 88.62 175.676 89.1 176.656 89.1ZM184.492 77.76V77.72C184.492 76.84 185.232 76.3 186.192 76.3C187.152 76.3 187.892 76.84 187.892 77.72V77.76C187.892 78.64 187.152 79.2 186.192 79.2C185.232 79.2 184.492 78.64 184.492 77.76ZM184.672 89.6V81.68C184.672 80.84 185.352 80.16 186.192 80.16C187.032 80.16 187.712 80.84 187.712 81.68V89.6C187.712 90.44 187.032 91.12 186.192 91.12C185.352 91.12 184.672 90.44 184.672 89.6ZM190.567 89.6V81.68C190.567 80.84 191.247 80.16 192.087 80.16C192.927 80.16 193.607 80.84 193.607 81.68V81.8C194.307 80.9 195.207 80.08 196.747 80.08C199.047 80.08 200.387 81.6 200.387 84.06V89.6C200.387 90.44 199.707 91.12 198.867 91.12C198.027 91.12 197.347 90.44 197.347 89.6V85.02C197.347 83.58 196.667 82.84 195.507 82.84C194.347 82.84 193.607 83.58 193.607 85.02V89.6C193.607 90.44 192.927 91.12 192.087 91.12C191.247 91.12 190.567 90.44 190.567 89.6ZM209.164 89.6V77.8C209.164 76.96 209.844 76.28 210.684 76.28C211.524 76.28 212.204 76.96 212.204 77.8V89.6C212.204 90.44 211.524 91.12 210.684 91.12C209.844 91.12 209.164 90.44 209.164 89.6ZM218.099 91.2C216.079 91.2 214.419 90.04 214.419 87.92V87.88C214.419 85.54 216.199 84.46 218.739 84.46C219.819 84.46 220.599 84.64 221.359 84.9V84.72C221.359 83.46 220.579 82.76 219.059 82.76C218.219 82.76 217.539 82.88 216.959 83.06C216.779 83.12 216.659 83.14 216.519 83.14C215.819 83.14 215.259 82.6 215.259 81.9C215.259 81.36 215.599 80.9 216.079 80.72C217.039 80.36 218.079 80.16 219.499 80.16C221.159 80.16 222.359 80.6 223.119 81.36C223.919 82.16 224.279 83.34 224.279 84.78V89.66C224.279 90.48 223.619 91.12 222.799 91.12C221.919 91.12 221.339 90.5 221.339 89.86V89.84C220.599 90.66 219.579 91.2 218.099 91.2ZM219.019 89.1C220.439 89.1 221.399 88.32 221.399 87.22V86.68C220.879 86.44 220.199 86.28 219.459 86.28C218.159 86.28 217.359 86.8 217.359 87.76V87.8C217.359 88.62 218.039 89.1 219.019 89.1ZM230.418 91.18C228.558 91.18 227.298 90.44 227.298 87.96V82.88H227.198C226.478 82.88 225.898 82.3 225.898 81.58C225.898 80.86 226.478 80.28 227.198 80.28H227.298V78.94C227.298 78.1 227.978 77.42 228.818 77.42C229.658 77.42 230.338 78.1 230.338 78.94V80.28H231.678C232.398 80.28 232.978 80.86 232.978 81.58C232.978 82.3 232.398 82.88 231.678 82.88H230.338V87.46C230.338 88.16 230.638 88.5 231.317 88.5C231.418 88.5 231.618 88.48 231.678 88.48C232.358 88.48 232.938 89.04 232.938 89.74C232.938 90.28 232.578 90.72 232.158 90.88C231.598 91.1 231.078 91.18 230.418 91.18ZM237.265 84.8H241.845C241.665 83.44 240.865 82.52 239.585 82.52C238.325 82.52 237.505 83.42 237.265 84.8ZM243.605 89.94C242.665 90.74 241.445 91.24 239.885 91.24C236.665 91.24 234.285 88.98 234.285 85.7V85.66C234.285 82.6 236.465 80.08 239.585 80.08C243.165 80.08 244.745 83.02 244.745 85.24C244.745 86.12 244.125 86.7 243.325 86.7H237.305C237.605 88.08 238.565 88.8 239.925 88.8C240.765 88.8 241.465 88.54 242.085 88.08C242.305 87.92 242.505 87.84 242.825 87.84C243.505 87.84 244.005 88.36 244.005 89.04C244.005 89.44 243.825 89.74 243.605 89.94ZM247.071 89.6V81.68C247.071 80.84 247.751 80.16 248.591 80.16C249.431 80.16 250.111 80.84 250.111 81.68V82.16C250.551 81.12 251.271 80.16 252.171 80.16C253.111 80.16 253.651 80.78 253.651 81.64C253.651 82.44 253.131 82.92 252.511 83.06C250.971 83.42 250.111 84.6 250.111 86.76V89.6C250.111 90.44 249.431 91.12 248.591 91.12C247.751 91.12 247.071 90.44 247.071 89.6ZM253.393 89.38C253.393 88.42 254.133 87.68 255.133 87.68C256.133 87.68 256.873 88.42 256.873 89.38V89.42C256.873 90.38 256.133 91.12 255.133 91.12C254.133 91.12 253.393 90.38 253.393 89.42V89.38Z" fill="white"/>
<defs>
<filter id="filter0_f_668_23038" x="9.53711" y="0.862915" width="371.912" height="31.7639" filterUnits="userSpaceOnUse" color-interpolation-filters="sRGB">
<feFlood flood-opacity="0" result="BackgroundImageFix"/>
<feBlend mode="normal" in="SourceGraphic" in2="BackgroundImageFix" result="shape"/>
<feGaussianBlur stdDeviation="4" result="effect1_foregroundBlur_668_23038"/>
</filter>
<filter id="filter1_f_668_23038" x="15.4736" y="70.4492" width="360.039" height="38.7089" filterUnits="userSpaceOnUse" color-interpolation-filters="sRGB">
<feFlood flood-opacity="0" result="BackgroundImageFix"/>
<feBlend mode="normal" in="SourceGraphic" in2="BackgroundImageFix" result="shape"/>
<feGaussianBlur stdDeviation="4" result="effect1_foregroundBlur_668_23038"/>
</filter>
<filter id="filter2_f_668_23038" x="26.7959" y="67.1456" width="337.439" height="31.4404" filterUnits="userSpaceOnUse" color-interpolation-filters="sRGB">
<feFlood flood-opacity="0" result="BackgroundImageFix"/>
<feBlend mode="normal" in="SourceGraphic" in2="BackgroundImageFix" result="shape"/>
<feGaussianBlur stdDeviation="4" result="effect1_foregroundBlur_668_23038"/>
</filter>
<filter id="filter3_f_668_23038" x="26.7959" y="5.56805" width="337.439" height="31.4404" filterUnits="userSpaceOnUse" color-interpolation-filters="sRGB">
<feFlood flood-opacity="0" result="BackgroundImageFix"/>
<feBlend mode="normal" in="SourceGraphic" in2="BackgroundImageFix" result="shape"/>
<feGaussianBlur stdDeviation="4" result="effect1_foregroundBlur_668_23038"/>
</filter>
<filter id="filter4_f_668_23038" x="16.875" y="75.8792" width="360.899" height="35.5634" filterUnits="userSpaceOnUse" color-interpolation-filters="sRGB">
<feFlood flood-opacity="0" result="BackgroundImageFix"/>
<feBlend mode="normal" in="SourceGraphic" in2="BackgroundImageFix" result="shape"/>
<feGaussianBlur stdDeviation="4" result="effect1_foregroundBlur_668_23038"/>
</filter>
<radialGradient id="paint0_radial_668_23038" cx="0" cy="0" r="1" gradientUnits="userSpaceOnUse" gradientTransform="translate(196.503 63.1966) scale(236.074 53.492)">
<stop/>
<stop offset="0.84" stop-opacity="0.2"/>
</radialGradient>
<radialGradient id="paint1_radial_668_23038" cx="0" cy="0" r="1" gradientUnits="userSpaceOnUse" gradientTransform="translate(196.522 59.5581) scale(235.619 53.3889)">
<stop stop-color="#F99F03"/>
<stop offset="0.02" stop-color="#F89D02"/>
<stop offset="0.98" stop-color="#D66100"/>
</radialGradient>
<radialGradient id="paint2_radial_668_23038" cx="0" cy="0" r="1" gradientUnits="userSpaceOnUse" gradientTransform="translate(196.19 47.2829) rotate(-94.5991) scale(59.1528 261.024)">
<stop stop-color="#F99F03"/>
<stop offset="0.02" stop-color="#F89D02"/>
<stop offset="0.98" stop-color="#D66100"/>
</radialGradient>
<linearGradient id="paint3_linear_668_23038" x1="195.498" y1="24.6268" x2="195.498" y2="8.86391" gradientUnits="userSpaceOnUse">
<stop stop-color="white" stop-opacity="0"/>
<stop offset="1" stop-color="white"/>
</linearGradient>
<linearGradient id="paint4_linear_668_23038" x1="195.498" y1="100.918" x2="195.498" y2="74.8801" gradientUnits="userSpaceOnUse">
<stop/>
<stop offset="0.09" stop-color="#0C0C0C"/>
<stop offset="0.24" stop-color="#2C2C2C"/>
<stop offset="0.46" stop-color="#616161"/>
<stop offset="0.71" stop-color="#AAAAAA"/>
<stop offset="0.98" stop-color="white"/>
</linearGradient>
<radialGradient id="paint5_radial_668_23038" cx="0" cy="0" r="1" gradientUnits="userSpaceOnUse" gradientTransform="translate(196.056 24.2334) rotate(-94.7056) scale(40.9653 186.031)">
<stop stop-color="white"/>
<stop offset="1" stop-color="white" stop-opacity="0"/>
</radialGradient>
<radialGradient id="paint6_radial_668_23038" cx="0" cy="0" r="1" gradientUnits="userSpaceOnUse" gradientTransform="translate(-447.87 -27.968) rotate(-177.393) scale(5.35414 3.16913)">
<stop offset="0.51" stop-color="white"/>
<stop offset="1" stop-color="white" stop-opacity="0"/>
</radialGradient>
<radialGradient id="paint7_radial_668_23038" cx="0" cy="0" r="1" gradientUnits="userSpaceOnUse" gradientTransform="translate(-420.635 -26.8299) rotate(-177.393) scale(2.8795 1.70439)">
<stop offset="0.51" stop-color="white"/>
<stop offset="1" stop-color="white" stop-opacity="0"/>
</radialGradient>
<radialGradient id="paint8_radial_668_23038" cx="0" cy="0" r="1" gradientUnits="userSpaceOnUse" gradientTransform="translate(376.772 77.6201) rotate(-95.5033) scale(4.82669 8.1818)">
<stop stop-color="white"/>
<stop offset="1" stop-color="white" stop-opacity="0"/>
</radialGradient>
<radialGradient id="paint9_radial_668_23038" cx="0" cy="0" r="1" gradientUnits="userSpaceOnUse" gradientTransform="translate(328.209 -51.6074) rotate(-122.386) scale(1.61644 13.0496)">
<stop offset="0.51" stop-color="white"/>
<stop offset="1" stop-color="white" stop-opacity="0"/>
</radialGradient>
<radialGradient id="paint10_radial_668_23038" cx="0" cy="0" r="1" gradientUnits="userSpaceOnUse" gradientTransform="translate(332.794 -45.2901) rotate(-122.386) scale(0.869184 7.01696)">
<stop offset="0.51" stop-color="white"/>
<stop offset="1" stop-color="white" stop-opacity="0"/>
</radialGradient>
<radialGradient id="paint11_radial_668_23038" cx="0" cy="0" r="1" gradientUnits="userSpaceOnUse" gradientTransform="translate(65.8069 7.54976) rotate(-109.401) scale(7.21787 113.359)">
<stop offset="0.51" stop-color="white"/>
<stop offset="1" stop-color="white" stop-opacity="0"/>
</radialGradient>
<radialGradient id="paint12_radial_668_23038" cx="0" cy="0" r="1" gradientUnits="userSpaceOnUse" gradientTransform="translate(25.1807 23.3937) rotate(-96.087) scale(2.88635 4.68133)">
<stop offset="0.51" stop-color="white"/>
<stop offset="1" stop-color="white" stop-opacity="0"/>
</radialGradient>
<radialGradient id="paint13_radial_668_23038" cx="0" cy="0" r="1" gradientUnits="userSpaceOnUse" gradientTransform="translate(194.521 52.4238) rotate(-85.2944) scale(53.8689 243.785)">
<stop stop-color="#D56D18"/>
<stop offset="0.98" stop-color="#B33A12"/>
</radialGradient>
<radialGradient id="paint14_radial_668_23038" cx="0" cy="0" r="1" gradientUnits="userSpaceOnUse" gradientTransform="translate(200.627 30.596) rotate(-81.8016) scale(26.8922 209.405)">
<stop stop-color="white"/>
<stop offset="1" stop-color="white" stop-opacity="0"/>
</radialGradient>
<linearGradient id="paint15_linear_668_23038" x1="195.531" y1="75.1456" x2="195.531" y2="90.5835" gradientUnits="userSpaceOnUse">
<stop stop-color="white" stop-opacity="0"/>
<stop offset="1" stop-color="white"/>
</linearGradient>
<linearGradient id="paint16_linear_668_23038" x1="195.531" y1="29.0104" x2="195.531" y2="13.5705" gradientUnits="userSpaceOnUse">
<stop stop-color="white" stop-opacity="0"/>
<stop offset="1" stop-color="white"/>
</linearGradient>
<linearGradient id="paint17_linear_668_23038" x1="197.314" y1="103.233" x2="197.314" y2="80.8035" gradientUnits="userSpaceOnUse">
<stop/>
<stop offset="0.09" stop-color="#0C0C0C"/>
<stop offset="0.24" stop-color="#2C2C2C"/>
<stop offset="0.46" stop-color="#616161"/>
<stop offset="0.71" stop-color="#AAAAAA"/>
<stop offset="0.98" stop-color="white"/>
</linearGradient>
</defs>
</svg>
