<svg width="216" height="56" viewBox="0 0 216 56" fill="none" xmlns="http://www.w3.org/2000/svg">
<path d="M214.122 31.4374C214.122 32.6374 214.072 33.8374 214.012 35.0474C213.892 37.4174 213.672 39.7874 213.352 42.1574C213.172 43.4874 212.972 44.8174 212.732 46.1474C212.312 48.4774 209.832 50.5474 206.082 52.0374C202.582 53.6374 197.742 54.6974 192.272 54.8774C168.002 55.6674 46.2319 55.6674 21.9519 54.8774C16.4819 54.6974 11.6419 53.6374 8.14189 52.0374C4.39189 50.5474 1.91189 48.4774 1.49189 46.1474C1.33189 45.2674 1.19189 44.3874 1.06189 43.5074C0.671893 40.9174 0.401892 38.3174 0.251892 35.7274C0.161892 34.2574 0.111892 32.7774 0.101892 31.3074C0.081892 30.2574 0.101893 29.2074 0.131893 28.1574V28.1174C0.181893 26.6074 0.261893 25.0874 0.381893 23.5774C0.481893 22.3674 0.601892 21.1574 0.751892 19.9574C0.951892 18.3274 1.20189 16.6974 1.49189 15.0674C1.71189 13.8374 2.50189 12.6874 3.75189 11.6474C4.87189 10.7174 6.36189 9.87743 8.13189 9.17743C11.6319 7.57743 16.4719 6.51743 21.9419 6.33743C46.2219 5.54743 167.992 5.54743 192.262 6.33743C197.732 6.51743 202.572 7.57743 206.072 9.17743C208.332 10.0774 210.132 11.1774 211.292 12.4374C212.062 13.2574 212.562 14.1474 212.722 15.0774C213.032 16.7974 213.292 18.5074 213.492 20.2274C213.652 21.5174 213.782 22.8074 213.872 24.0974C213.972 25.4074 214.042 26.7074 214.082 28.0174C214.122 29.1674 214.132 30.3074 214.122 31.4474V31.4374Z" fill="url(#paint0_radial_2012_21335)"/>
<path d="M214.022 32.8174C213.962 34.0674 213.872 35.3274 213.752 36.5774C213.552 38.7174 213.272 40.8574 212.912 42.9974C212.852 43.3374 212.792 43.6774 212.732 44.0174C212.312 46.3474 209.832 48.4174 206.082 49.9074C202.582 51.5074 197.742 52.5674 192.272 52.7474C168.002 53.5374 46.2319 53.5374 21.9519 52.7474C16.4819 52.5674 11.6419 51.5074 8.1419 49.9074C4.5819 48.4874 2.1719 46.5574 1.5719 44.3674C1.5319 44.2474 1.5119 44.1374 1.4919 44.0174C1.0919 41.7874 0.781897 39.5574 0.551897 37.3274C0.401897 35.8574 0.281897 34.3774 0.211897 32.9074C0.101897 30.9874 0.0718981 29.0674 0.101898 27.1374V27.1074C0.111898 26.6374 0.121897 26.1574 0.141897 25.6874C0.181897 24.3474 0.261898 23.0174 0.361898 21.6774C0.551898 19.2274 0.851898 16.7674 1.2519 14.3174C1.3319 13.8574 1.4019 13.3874 1.4919 12.9274C1.9119 10.5974 4.3919 8.52742 8.1419 7.03742C11.6419 5.43742 16.4819 4.37742 21.9519 4.19742C46.2319 3.40742 168.002 3.40742 192.272 4.19742C197.742 4.37742 202.582 5.43742 206.082 7.03742C209.832 8.52742 212.312 10.5974 212.732 12.9274C212.842 13.5374 212.942 14.1474 213.042 14.7574C213.412 17.0774 213.682 19.3974 213.872 21.7174C213.982 23.1574 214.062 24.5974 214.102 26.0374C214.102 26.2674 214.122 26.4974 214.122 26.7374V26.8174C214.162 28.8174 214.122 30.8174 214.022 32.8074V32.8174Z" fill="url(#paint1_radial_2012_21335)"/>
<g style="mix-blend-mode:hard-light" opacity="0.2">
<path d="M212.732 11.0074C212.312 8.63743 209.832 6.52743 206.082 5.00743C202.582 3.37743 197.742 2.29743 192.272 2.11743C168.002 1.30743 46.2219 1.30743 21.9519 2.11743C16.4819 2.29743 11.6419 3.37743 8.1419 5.00743C4.4019 6.52743 1.9119 8.62743 1.4919 11.0074C-0.358099 21.5474 -0.358099 32.0974 1.4919 42.6374C1.9119 45.0074 4.3919 47.1174 8.1419 48.6374C11.6419 50.2674 16.4819 51.3474 21.9519 51.5274C46.2219 52.3374 168.002 52.3374 192.272 51.5274C197.742 51.3474 202.582 50.2674 206.082 48.6374C209.822 47.1174 212.312 45.0174 212.732 42.6374C214.582 32.0974 214.582 21.5474 212.732 11.0074Z" fill="white"/>
</g>
<path d="M213.602 35.4974C213.382 37.5174 213.092 39.5274 212.742 41.5474C212.322 43.9074 209.842 45.9874 206.092 47.4974C202.592 49.1074 197.752 50.1774 192.282 50.3574C168.012 51.1574 46.2319 51.1574 21.9619 50.3574C16.4919 50.1774 11.6519 49.1074 8.1519 47.4974C4.4019 45.9874 1.9219 43.9074 1.5019 41.5474C1.1719 39.6874 0.901901 37.8174 0.691901 35.9474C-0.288099 27.3574 -0.0180974 18.7574 1.5019 10.1674C1.9219 7.81743 4.4019 5.72743 8.1519 4.21743C11.6519 2.60743 16.4919 1.53743 21.9619 1.35743C46.2319 0.557431 168.012 0.557431 192.282 1.35743C197.752 1.53743 202.592 2.60743 206.092 4.21743C209.842 5.72743 212.322 7.80743 212.742 10.1674C214.232 18.6074 214.532 27.0574 213.602 35.4974Z" fill="url(#paint2_radial_2012_21335)"/>
<g style="mix-blend-mode:soft-light" opacity="0.75">
<path d="M213.602 35.4974C213.382 37.5174 213.092 39.5274 212.742 41.5474C212.322 43.9074 209.842 45.9874 206.092 47.4974C202.592 49.1074 197.752 50.1774 192.282 50.3574C168.012 51.1574 46.2319 51.1574 21.9619 50.3574C16.4919 50.1774 11.6519 49.1074 8.1519 47.4974C4.4019 45.9874 1.9219 43.9074 1.5019 41.5474C1.1719 39.6874 0.901901 37.8174 0.691901 35.9474C-0.288099 27.3574 -0.0180974 18.7574 1.5019 10.1674C1.9219 7.81739 4.4019 5.72739 8.1519 4.21739C11.6519 2.60739 16.4919 1.53739 21.9619 1.35739C46.2319 0.557385 168.012 0.557385 192.282 1.35739C197.752 1.53739 202.592 2.60739 206.092 4.21739C209.842 5.72739 212.322 7.80739 212.742 10.1674C214.232 18.6074 214.532 27.0574 213.602 35.4974Z" fill="url(#paint3_linear_2012_21335)"/>
</g>
<path style="mix-blend-mode:overlay" opacity="0.6" d="M214.122 26.0574C214.122 26.2874 214.122 26.5174 214.122 26.7474V26.8274C214.122 27.2174 214.102 27.6074 214.092 28.0074C214.062 29.1274 214.012 30.2374 213.932 31.3474C213.902 31.8074 213.862 32.2574 213.832 32.7174C213.772 33.4274 213.702 34.1474 213.622 34.8674C213.612 34.9674 213.602 35.0674 213.592 35.1674C212.772 35.2874 211.962 35.4174 211.152 35.5274C206.862 36.1574 202.572 36.7074 198.282 37.1974C196.772 37.3674 195.252 37.5274 193.742 37.6874C167.982 40.3074 44.6819 40.4074 18.8619 37.8474C17.4919 37.7174 16.1219 37.5674 14.7419 37.4174C10.8719 36.9974 7.00189 36.5074 3.13189 35.9574C2.31189 35.8474 1.50189 35.7274 0.691887 35.6074C0.691887 35.5674 0.69189 35.5174 0.67189 35.4774C0.57189 34.5774 0.481888 33.6874 0.411888 32.7874C0.361888 32.2574 0.331889 31.7274 0.291889 31.2074C0.221889 30.1874 0.171888 29.1774 0.141888 28.1574V28.1174C0.141888 27.7974 0.121889 27.4674 0.111889 27.1474V27.1174C0.111889 26.6474 0.0918884 26.1874 0.0918884 25.7174C0.0918884 25.0374 0.0918891 24.3574 0.121889 23.6774C0.141889 23.0474 0.161887 22.4174 0.191887 21.7874C0.211887 21.2474 0.241887 20.7174 0.281887 20.1774C0.401887 18.2774 0.58189 16.3774 0.83189 14.4774C0.92189 13.7974 1.01189 13.1274 1.11189 12.4474C1.23189 11.6574 1.36189 10.8574 1.50189 10.0574C1.92189 7.72742 4.40189 5.65742 8.15189 4.16742C11.6519 2.56742 16.4919 1.50742 21.9619 1.32742C46.2419 0.537424 168.012 0.537424 192.282 1.32742C197.752 1.50742 202.602 2.56742 206.092 4.16742C209.842 5.65742 212.322 7.72742 212.742 10.0574C212.922 11.0374 213.082 12.0174 213.222 12.9874C213.312 13.6274 213.402 14.2574 213.472 14.8974C213.702 16.7274 213.872 18.5574 213.982 20.3874C214.012 20.8574 214.032 21.3174 214.052 21.7874C214.092 22.5774 214.112 23.3574 214.132 24.1474C214.132 24.7774 214.132 25.4074 214.132 26.0374L214.122 26.0574Z" fill="url(#paint4_radial_2012_21335)"/>
<g style="mix-blend-mode:soft-light" opacity="0.6">
<path d="M179.662 8.76742C179.692 11.8174 162.802 9.88742 102.312 9.88742C52.7019 9.88742 33.9219 11.9074 33.8919 8.85742C33.8619 5.80742 51.9819 3.29742 103.272 3.29742C162.092 3.29742 179.632 5.71742 179.662 8.76742Z" fill="white"/>
</g>
<path d="M47.024 32.4599V21.5399C47.024 20.6799 47.704 19.9999 48.564 19.9999H53.524C55.124 19.9999 56.384 20.4399 57.184 21.2399C57.824 21.8799 58.144 22.6599 58.144 23.6199V23.6599C58.144 25.2399 57.304 26.1199 56.304 26.6799C57.924 27.2999 58.924 28.2399 58.924 30.1199V30.1599C58.924 32.7199 56.844 33.9999 53.684 33.9999H48.564C47.704 33.9999 47.024 33.3199 47.024 32.4599ZM50.024 25.6599H52.864C54.224 25.6599 55.084 25.2199 55.084 24.1799V24.1399C55.084 23.2199 54.364 22.6999 53.064 22.6999H50.024V25.6599ZM50.024 31.2999H53.684C55.044 31.2999 55.864 30.8199 55.864 29.7799V29.7399C55.864 28.7999 55.164 28.2199 53.584 28.2199H50.024V31.2999ZM67.2976 34.2199C63.5376 34.2199 61.2376 32.1199 61.2376 27.9999V21.4199C61.2376 20.5599 61.9176 19.8799 62.7776 19.8799C63.6376 19.8799 64.3176 20.5599 64.3176 21.4199V27.9199C64.3176 30.1999 65.4576 31.3799 67.3376 31.3799C69.2176 31.3799 70.3576 30.2399 70.3576 28.0199V21.4199C70.3576 20.5599 71.0376 19.8799 71.8976 19.8799C72.7576 19.8799 73.4376 20.5599 73.4376 21.4199V27.8999C73.4376 32.1399 71.0576 34.2199 67.2976 34.2199ZM80.2348 32.5799V28.5999L75.7148 22.4599C75.4948 22.1599 75.3348 21.7999 75.3348 21.3599C75.3348 20.5399 76.0148 19.8799 76.8748 19.8799C77.5748 19.8799 78.0148 20.2599 78.3948 20.8199L81.7948 25.7199L85.2548 20.7799C85.6348 20.2199 86.0948 19.8599 86.7348 19.8599C87.6748 19.8599 88.2348 20.5199 88.2348 21.3599C88.2348 21.7799 88.0348 22.1599 87.8348 22.4399L83.3148 28.5399V32.5799C83.3148 33.4399 82.6348 34.1199 81.7748 34.1199C80.9148 34.1199 80.2348 33.4399 80.2348 32.5799ZM101.32 34.1999C99.4804 34.1999 97.6204 33.6399 96.0604 32.5199C95.7204 32.2799 95.4804 31.8399 95.4804 31.3599C95.4804 30.5599 96.1204 29.9399 96.9204 29.9399C97.3204 29.9399 97.6004 30.0799 97.8004 30.2199C98.8604 30.9999 100.02 31.4799 101.38 31.4799C102.64 31.4799 103.4 30.9799 103.4 30.1599V30.1199C103.4 29.3399 102.92 28.9399 100.58 28.3399C97.7604 27.6199 95.9404 26.8399 95.9404 24.0599V24.0199C95.9404 21.4799 97.9804 19.7999 100.84 19.7999C102.54 19.7999 104.02 20.2399 105.28 21.0399C105.62 21.2399 105.96 21.6599 105.96 22.2599C105.96 23.0599 105.32 23.6799 104.52 23.6799C104.22 23.6799 103.98 23.5999 103.74 23.4599C102.72 22.8599 101.76 22.5199 100.8 22.5199C99.6204 22.5199 99.0004 23.0599 99.0004 23.7399V23.7799C99.0004 24.6999 99.6004 24.9999 102.02 25.6199C104.86 26.3599 106.46 27.3799 106.46 29.8199V29.8599C106.46 32.6399 104.34 34.1999 101.32 34.1999ZM114.973 34.2199C111.213 34.2199 108.913 32.1199 108.913 27.9999V21.4199C108.913 20.5599 109.593 19.8799 110.453 19.8799C111.313 19.8799 111.993 20.5599 111.993 21.4199V27.9199C111.993 30.1999 113.133 31.3799 115.013 31.3799C116.893 31.3799 118.033 30.2399 118.033 28.0199V21.4199C118.033 20.5599 118.713 19.8799 119.573 19.8799C120.433 19.8799 121.113 20.5599 121.113 21.4199V27.8999C121.113 32.1399 118.733 34.2199 114.973 34.2199ZM130.991 34.2399C126.631 34.2399 123.631 31.1799 123.631 27.0399V26.9999C123.631 23.0199 126.731 19.7599 130.971 19.7599C133.091 19.7599 134.491 20.2399 135.751 21.1199C136.051 21.3399 136.391 21.7599 136.391 22.3599C136.391 23.1999 135.711 23.8799 134.871 23.8799C134.431 23.8799 134.151 23.7199 133.931 23.5599C133.091 22.9599 132.191 22.5999 130.871 22.5999C128.631 22.5999 126.851 24.5799 126.851 26.9599V26.9999C126.851 29.5599 128.611 31.4399 131.091 31.4399C132.211 31.4399 133.211 31.1599 133.991 30.5999V28.5999H131.911C131.171 28.5999 130.571 28.0199 130.571 27.2799C130.571 26.5399 131.171 25.9399 131.911 25.9399H135.431C136.291 25.9399 136.971 26.6199 136.971 27.4799V30.8799C136.971 31.7799 136.631 32.3999 135.891 32.8399C134.751 33.5399 133.091 34.2399 130.991 34.2399ZM138.974 32.6799C138.974 32.4599 139.054 32.2399 139.154 32.0199L144.034 20.9999C144.374 20.2399 144.994 19.7799 145.834 19.7799H146.014C146.854 19.7799 147.454 20.2399 147.794 20.9999L152.674 32.0199C152.774 32.2399 152.834 32.4399 152.834 32.6399C152.834 33.4599 152.194 34.1199 151.374 34.1199C150.654 34.1199 150.174 33.6999 149.894 33.0599L148.954 30.8599H142.794L141.814 33.1599C141.554 33.7599 141.034 34.1199 140.394 34.1199C139.594 34.1199 138.974 33.4799 138.974 32.6799ZM143.934 28.1399H147.814L145.874 23.5199L143.934 28.1399ZM155.247 32.5799V21.5399C155.247 20.6799 155.927 19.9999 156.787 19.9999H161.647C163.427 19.9999 164.807 20.4999 165.727 21.4199C166.507 22.1999 166.927 23.2999 166.927 24.6199V24.6599C166.927 26.8599 165.827 28.2199 164.127 28.9199L166.267 31.5199C166.567 31.8999 166.767 32.2199 166.767 32.6999C166.767 33.5599 166.047 34.1199 165.307 34.1199C164.607 34.1199 164.147 33.7799 163.787 33.3199L160.787 29.5199H158.327V32.5799C158.327 33.4399 157.647 34.1199 156.787 34.1199C155.927 34.1199 155.247 33.4399 155.247 32.5799ZM158.327 26.7999H161.447C162.947 26.7999 163.807 25.9999 163.807 24.8199V24.7799C163.807 23.4599 162.887 22.7799 161.387 22.7799H158.327V26.7999Z" fill="white"/>
<path d="M21.6819 46.0737C29.69 46.0737 36.1819 38.1932 36.1819 28.4722C36.1819 18.7512 29.69 10.8707 21.6819 10.8707C13.6738 10.8707 7.18188 18.7512 7.18188 28.4722C7.18188 38.1932 13.6738 46.0737 21.6819 46.0737Z" fill="url(#paint5_radial_2012_21335)"/>
<path d="M36.1819 26.7124C36.1819 27.0787 36.1727 27.4435 36.1529 27.8037C36.1407 28.0632 36.1224 28.3226 36.0995 28.5791C36.0506 29.1682 35.9758 29.7482 35.8766 30.3175C35.811 30.6991 35.7362 31.0746 35.6507 31.4455C35.408 32.5032 35.086 33.5213 34.6922 34.4874C34.596 34.7255 34.4938 34.9606 34.3885 35.1926C31.9235 40.6293 27.1568 44.3139 21.6819 44.3139C16.207 44.3139 11.4357 40.6263 8.97073 35.185C8.86388 34.9499 8.76162 34.7118 8.66394 34.4706C8.26862 33.4953 7.94504 32.4696 7.70236 31.4028C7.61688 31.0258 7.5421 30.6426 7.47646 30.255C7.36962 29.6246 7.29178 28.9805 7.24294 28.3272C7.22157 28.0555 7.20631 27.7823 7.19715 27.5076C7.18646 27.2435 7.18188 26.9795 7.18188 26.7124C7.18188 26.3568 7.19104 26.0042 7.20783 25.6546V25.6485C7.23683 25.0426 7.29178 24.4458 7.37267 23.8582C7.43067 23.414 7.50546 22.976 7.59246 22.544C7.7451 21.7717 7.94199 21.0192 8.17857 20.2912C8.27625 19.9813 8.3831 19.6776 8.49757 19.3769C9.04246 17.9345 9.74457 16.5975 10.5764 15.3978C10.8969 14.9353 11.2358 14.4927 11.5929 14.073C14.2014 11.002 17.7608 9.11243 21.6819 9.11243C25.603 9.11243 29.3409 11.0982 31.9677 14.3065C32.3218 14.7384 32.6561 15.1918 32.972 15.6664C33.784 16.8875 34.4648 18.2429 34.9853 19.702C35.0906 19.9935 35.1883 20.2896 35.2798 20.5903C35.5118 21.3474 35.7011 22.1289 35.8461 22.9317C35.9224 23.353 35.9865 23.7819 36.0369 24.2138C36.0934 24.687 36.133 25.1662 36.1559 25.6516V25.6562C36.1727 26.0057 36.1819 26.3583 36.1819 26.7124Z" fill="url(#paint6_radial_2012_21335)"/>
<g style="mix-blend-mode:hard-light" opacity="0.2">
<path d="M21.6819 42.7295C29.69 42.7295 36.1819 34.8491 36.1819 25.1281C36.1819 15.407 29.69 7.52658 21.6819 7.52658C13.6738 7.52658 7.18188 15.407 7.18188 25.1281C7.18188 34.8491 13.6738 42.7295 21.6819 42.7295Z" fill="white"/>
</g>
<path d="M36.1819 24.5999C36.1819 27.097 35.753 29.4719 34.9791 31.6225C32.7477 37.8484 27.633 42.1999 21.6819 42.1999C15.7308 42.1999 10.7275 37.9399 8.45636 31.824C7.63825 29.62 7.18188 27.1733 7.18188 24.5984C7.18188 14.8788 13.6733 7 21.6819 7C29.6905 7 36.1819 14.8804 36.1819 24.6015V24.5999Z" fill="url(#paint7_radial_2012_21335)"/>
<g style="mix-blend-mode:overlay" opacity="0.8" filter="url(#filter0_f_2012_21335)">
<path d="M21.6819 10.5258C28.7609 10.5258 34.5533 17.2126 35.0081 25.6668C35.0264 25.3143 35.0371 24.9586 35.0371 24.5999C35.0371 15.6466 29.057 8.38895 21.6819 8.38895C14.3067 8.38895 8.3266 15.6466 8.3266 24.5999C8.3266 24.9586 8.33728 25.3143 8.3556 25.6668C8.80891 17.2126 14.6013 10.5258 21.6819 10.5258Z" fill="url(#paint8_linear_2012_21335)"/>
</g>
<g style="mix-blend-mode:soft-light" opacity="0.75" filter="url(#filter1_f_2012_21335)">
<path d="M21.6819 34.2234C16.8419 34.2234 12.3347 32.4956 8.55557 29.5208C10.5489 35.9679 15.6743 40.5576 21.6819 40.5576C27.6895 40.5576 32.8148 35.9679 34.8082 29.5208C31.029 32.494 26.5218 34.2234 21.6819 34.2234Z" fill="url(#paint9_radial_2012_21335)"/>
</g>
<path style="mix-blend-mode:overlay" opacity="0.6" d="M36.1819 24.5999C36.1819 24.9541 36.1727 25.3036 36.1559 25.6516V25.6562C36.1224 26.3522 36.0552 27.0344 35.956 27.7045C35.9194 27.9517 35.8797 28.1975 35.8339 28.4417C35.7301 29.0125 35.6019 29.5727 35.4523 30.1206C35.3516 30.4931 35.2401 30.8609 35.118 31.2211C35.0738 31.3569 35.0265 31.4897 34.9791 31.6225C32.7217 32.2621 30.4628 32.7459 28.2023 33.071C23.631 33.7288 19.0551 33.7395 14.4777 33.0802H14.4761C12.469 32.7917 10.4635 32.3735 8.45636 31.8255C8.37546 31.6057 8.29762 31.3829 8.22436 31.1585C8.10225 30.7937 7.99083 30.4213 7.8901 30.0443C7.72831 29.4429 7.59246 28.8263 7.48562 28.1975C7.44136 27.9411 7.4032 27.6831 7.3681 27.4221C7.29025 26.8421 7.23683 26.2529 7.20783 25.6546V25.6485C7.19104 25.3021 7.18188 24.9525 7.18188 24.5999C7.18188 24.3786 7.18494 24.1573 7.1941 23.9375C7.20478 23.5117 7.23073 23.0904 7.26888 22.6722C7.33299 21.9503 7.43373 21.2421 7.56804 20.5491H7.56957C7.62604 20.2454 7.69167 19.9462 7.76341 19.6486C8.10073 18.252 8.57541 16.9272 9.1722 15.6985C9.39504 15.2345 9.6362 14.7842 9.89415 14.3492C12.5255 9.89847 16.8251 7 21.6819 7C26.5386 7 31.0367 10.0343 33.6482 14.6591C33.897 15.0986 34.129 15.5519 34.3442 16.019C34.915 17.2538 35.3638 18.5817 35.6767 19.9783C35.7408 20.2622 35.7973 20.5506 35.8491 20.8406C35.9789 21.5626 36.072 22.2998 36.1254 23.0507C36.1559 23.4552 36.1743 23.8658 36.1788 24.2779C36.1804 24.3847 36.1819 24.4931 36.1819 24.5999Z" fill="url(#paint10_radial_2012_21335)"/>
<g style="mix-blend-mode:soft-light" opacity="0.6">
<path d="M27.6895 11.5561C27.6971 13.0946 24.7513 12.1086 21.4392 12.1208C18.1271 12.133 15.7003 13.1419 15.6926 11.6034C15.685 10.0649 18.3652 8.8087 21.6773 8.79496C24.991 8.78122 27.6819 10.0175 27.6895 11.5561Z" fill="white"/>
</g>
<path d="M34.0633 31.6836C33.5658 33.0405 32.4805 33.9334 32.0822 33.8128C31.6838 33.6922 32.4973 33.0435 32.9934 31.6866C33.491 30.3297 33.4818 28.7775 33.8802 28.8981C34.2785 29.0186 34.5594 30.3267 34.0618 31.6836H34.0633Z" fill="url(#paint11_radial_2012_21335)"/>
<path d="M16.6049 12.5084C18.3645 11.4582 19.4247 9.99303 18.9728 9.23589C18.5209 8.47875 16.7281 8.71634 14.9685 9.76655C13.2088 10.8168 12.1486 12.2819 12.6005 13.0391C13.0524 13.7962 14.8452 13.5586 16.6049 12.5084Z" fill="url(#paint12_radial_2012_21335)"/>
<path d="M12.7088 15.2771C13.1163 14.6312 13.0878 13.8811 12.6451 13.6018C12.2024 13.3224 11.5131 13.6196 11.1056 14.2655C10.698 14.9114 10.7266 15.6615 11.1693 15.9408C11.612 16.2201 12.3013 15.923 12.7088 15.2771Z" fill="url(#paint13_radial_2012_21335)"/>
<path d="M10.9073 17.2946C11.1007 16.9344 11.0551 16.5338 10.8056 16.3998C10.556 16.2659 10.197 16.4493 10.0036 16.8095C9.81021 17.1697 9.85574 17.5703 10.1053 17.7043C10.3548 17.8382 10.7139 17.6548 10.9073 17.2946Z" fill="url(#paint14_radial_2012_21335)"/>
<path d="M27.5471 10.4537C27.8005 10.0209 27.4475 9.34301 26.7587 8.93965C26.0698 8.5363 25.3059 8.56019 25.0524 8.99301C24.799 9.42584 25.152 10.1037 25.8409 10.5071C26.5298 10.9104 27.2937 10.8865 27.5471 10.4537Z" fill="url(#paint15_radial_2012_21335)"/>
<path d="M29.2008 11.6885C29.3371 11.4557 29.1474 11.0912 28.7772 10.8744C28.4069 10.6576 27.9962 10.6706 27.8599 10.9034C27.7237 11.1361 27.9133 11.5006 28.2836 11.7174C28.6538 11.9342 29.0645 11.9212 29.2008 11.6885Z" fill="url(#paint16_radial_2012_21335)"/>
<path d="M33.0687 17.8178C33.3185 17.6844 33.3649 17.2839 33.1724 16.9232C32.9798 16.5626 32.6212 16.3784 32.3713 16.5118C32.1215 16.6452 32.075 17.0457 32.2676 17.4064C32.4602 17.767 32.8188 17.9512 33.0687 17.8178Z" fill="url(#paint17_radial_2012_21335)"/>
<path d="M193.682 46.0737C201.69 46.0737 208.182 38.1932 208.182 28.4722C208.182 18.7512 201.69 10.8707 193.682 10.8707C185.674 10.8707 179.182 18.7512 179.182 28.4722C179.182 38.1932 185.674 46.0737 193.682 46.0737Z" fill="url(#paint18_radial_2012_21335)"/>
<path d="M208.182 26.7124C208.182 27.0787 208.173 27.4435 208.153 27.8037C208.141 28.0632 208.122 28.3226 208.099 28.5791C208.051 29.1682 207.976 29.7482 207.877 30.3175C207.811 30.6991 207.736 31.0746 207.651 31.4455C207.408 32.5032 207.086 33.5213 206.692 34.4874C206.596 34.7255 206.494 34.9606 206.388 35.1926C203.923 40.6293 199.157 44.3139 193.682 44.3139C188.207 44.3139 183.436 40.6263 180.971 35.185C180.864 34.9499 180.762 34.7118 180.664 34.4706C180.269 33.4953 179.945 32.4696 179.702 31.4028C179.617 31.0258 179.542 30.6426 179.476 30.255C179.37 29.6246 179.292 28.9805 179.243 28.3272C179.222 28.0555 179.206 27.7823 179.197 27.5076C179.186 27.2435 179.182 26.9795 179.182 26.7124C179.182 26.3568 179.191 26.0042 179.208 25.6546V25.6485C179.237 25.0426 179.292 24.4458 179.373 23.8582C179.431 23.414 179.505 22.976 179.592 22.544C179.745 21.7717 179.942 21.0192 180.179 20.2912C180.276 19.9813 180.383 19.6776 180.498 19.3769C181.042 17.9345 181.745 16.5975 182.576 15.3978C182.897 14.9353 183.236 14.4927 183.593 14.073C186.201 11.002 189.761 9.11243 193.682 9.11243C197.603 9.11243 201.341 11.0982 203.968 14.3065C204.322 14.7384 204.656 15.1918 204.972 15.6664C205.784 16.8875 206.465 18.2429 206.985 19.702C207.091 19.9935 207.188 20.2896 207.28 20.5903C207.512 21.3474 207.701 22.1289 207.846 22.9317C207.922 23.353 207.987 23.7819 208.037 24.2138C208.093 24.687 208.133 25.1662 208.156 25.6516V25.6562C208.173 26.0057 208.182 26.3583 208.182 26.7124Z" fill="url(#paint19_radial_2012_21335)"/>
<g style="mix-blend-mode:hard-light" opacity="0.2">
<path d="M193.682 42.7295C201.69 42.7295 208.182 34.8491 208.182 25.1281C208.182 15.407 201.69 7.52658 193.682 7.52658C185.674 7.52658 179.182 15.407 179.182 25.1281C179.182 34.8491 185.674 42.7295 193.682 42.7295Z" fill="white"/>
</g>
<path d="M208.182 24.5999C208.182 27.097 207.753 29.4719 206.979 31.6225C204.748 37.8484 199.633 42.1999 193.682 42.1999C187.731 42.1999 182.728 37.9399 180.456 31.824C179.638 29.62 179.182 27.1733 179.182 24.5984C179.182 14.8788 185.673 7 193.682 7C201.69 7 208.182 14.8804 208.182 24.6015V24.5999Z" fill="url(#paint20_radial_2012_21335)"/>
<g style="mix-blend-mode:overlay" opacity="0.8" filter="url(#filter2_f_2012_21335)">
<path d="M193.682 10.5258C200.761 10.5258 206.553 17.2126 207.008 25.6668C207.026 25.3143 207.037 24.9586 207.037 24.5999C207.037 15.6466 201.057 8.38895 193.682 8.38895C186.307 8.38895 180.327 15.6466 180.327 24.5999C180.327 24.9586 180.337 25.3143 180.356 25.6668C180.809 17.2126 186.601 10.5258 193.682 10.5258Z" fill="url(#paint21_linear_2012_21335)"/>
</g>
<g style="mix-blend-mode:soft-light" opacity="0.75" filter="url(#filter3_f_2012_21335)">
<path d="M193.682 34.2234C188.842 34.2234 184.335 32.4956 180.556 29.5208C182.549 35.9679 187.674 40.5576 193.682 40.5576C199.689 40.5576 204.815 35.9679 206.808 29.5208C203.029 32.494 198.522 34.2234 193.682 34.2234Z" fill="url(#paint22_radial_2012_21335)"/>
</g>
<path style="mix-blend-mode:overlay" opacity="0.6" d="M208.182 24.5999C208.182 24.9541 208.173 25.3036 208.156 25.6516V25.6562C208.122 26.3522 208.055 27.0344 207.956 27.7045C207.919 27.9517 207.88 28.1975 207.834 28.4417C207.73 29.0125 207.602 29.5727 207.452 30.1206C207.352 30.4931 207.24 30.8609 207.118 31.2211C207.074 31.3569 207.026 31.4897 206.979 31.6225C204.722 32.2621 202.463 32.7459 200.202 33.071C195.631 33.7288 191.055 33.7395 186.478 33.0802H186.476C184.469 32.7917 182.463 32.3735 180.456 31.8255C180.375 31.6057 180.298 31.3829 180.224 31.1585C180.102 30.7937 179.991 30.4213 179.89 30.0443C179.728 29.4429 179.592 28.8263 179.486 28.1975C179.441 27.9411 179.403 27.6831 179.368 27.4221C179.29 26.8421 179.237 26.2529 179.208 25.6546V25.6485C179.191 25.3021 179.182 24.9525 179.182 24.5999C179.182 24.3786 179.185 24.1573 179.194 23.9375C179.205 23.5117 179.231 23.0904 179.269 22.6722C179.333 21.9503 179.434 21.2421 179.568 20.5491H179.57C179.626 20.2454 179.692 19.9462 179.763 19.6486C180.101 18.252 180.575 16.9272 181.172 15.6985C181.395 15.2345 181.636 14.7842 181.894 14.3492C184.526 9.89847 188.825 7 193.682 7C198.539 7 203.037 10.0343 205.648 14.6591C205.897 15.0986 206.129 15.5519 206.344 16.019C206.915 17.2538 207.364 18.5817 207.677 19.9783C207.741 20.2622 207.797 20.5506 207.849 20.8406C207.979 21.5626 208.072 22.2998 208.125 23.0507C208.156 23.4552 208.174 23.8658 208.179 24.2779C208.18 24.3847 208.182 24.4931 208.182 24.5999Z" fill="url(#paint23_radial_2012_21335)"/>
<g style="mix-blend-mode:soft-light" opacity="0.6">
<path d="M199.689 11.5561C199.697 13.0946 196.751 12.1086 193.439 12.1208C190.127 12.133 187.7 13.1419 187.693 11.6034C187.685 10.0649 190.365 8.8087 193.677 8.79496C196.991 8.78122 199.682 10.0175 199.689 11.5561Z" fill="white"/>
</g>
<path d="M206.063 31.6836C205.566 33.0405 204.481 33.9334 204.082 33.8128C203.684 33.6922 204.497 33.0435 204.993 31.6866C205.491 30.3297 205.482 28.7775 205.88 28.8981C206.279 29.0186 206.559 30.3267 206.062 31.6836H206.063Z" fill="url(#paint24_radial_2012_21335)"/>
<path d="M188.605 12.5084C190.365 11.4582 191.425 9.99303 190.973 9.23589C190.521 8.47875 188.728 8.71634 186.968 9.76655C185.209 10.8168 184.149 12.2819 184.601 13.0391C185.052 13.7962 186.845 13.5586 188.605 12.5084Z" fill="url(#paint25_radial_2012_21335)"/>
<path d="M184.709 15.2771C185.116 14.6312 185.088 13.8811 184.645 13.6018C184.202 13.3224 183.513 13.6196 183.106 14.2655C182.698 14.9114 182.727 15.6615 183.169 15.9408C183.612 16.2201 184.301 15.923 184.709 15.2771Z" fill="url(#paint26_radial_2012_21335)"/>
<path d="M182.907 17.2946C183.101 16.9344 183.055 16.5338 182.806 16.3998C182.556 16.2659 182.197 16.4493 182.004 16.8095C181.81 17.1697 181.856 17.5703 182.105 17.7043C182.355 17.8382 182.714 17.6548 182.907 17.2946Z" fill="url(#paint27_radial_2012_21335)"/>
<path d="M199.547 10.4537C199.801 10.0209 199.448 9.34301 198.759 8.93965C198.07 8.5363 197.306 8.56019 197.052 8.99301C196.799 9.42584 197.152 10.1037 197.841 10.5071C198.53 10.9104 199.294 10.8865 199.547 10.4537Z" fill="url(#paint28_radial_2012_21335)"/>
<path d="M201.201 11.6885C201.337 11.4557 201.147 11.0912 200.777 10.8744C200.407 10.6576 199.996 10.6706 199.86 10.9034C199.724 11.1361 199.913 11.5006 200.284 11.7174C200.654 11.9342 201.065 11.9212 201.201 11.6885Z" fill="url(#paint29_radial_2012_21335)"/>
<path d="M205.069 17.8178C205.318 17.6844 205.365 17.2839 205.172 16.9232C204.98 16.5626 204.621 16.3784 204.371 16.5118C204.121 16.6452 204.075 17.0457 204.268 17.4064C204.46 17.767 204.819 17.9512 205.069 17.8178Z" fill="url(#paint30_radial_2012_21335)"/>
<defs>
<filter id="filter0_f_2012_21335" x="0.326599" y="0.388947" width="42.7105" height="33.2779" filterUnits="userSpaceOnUse" color-interpolation-filters="sRGB">
<feFlood flood-opacity="0" result="BackgroundImageFix"/>
<feBlend mode="normal" in="SourceGraphic" in2="BackgroundImageFix" result="shape"/>
<feGaussianBlur stdDeviation="4" result="effect1_foregroundBlur_2012_21335"/>
</filter>
<filter id="filter1_f_2012_21335" x="0.555573" y="21.5208" width="42.2526" height="27.0368" filterUnits="userSpaceOnUse" color-interpolation-filters="sRGB">
<feFlood flood-opacity="0" result="BackgroundImageFix"/>
<feBlend mode="normal" in="SourceGraphic" in2="BackgroundImageFix" result="shape"/>
<feGaussianBlur stdDeviation="4" result="effect1_foregroundBlur_2012_21335"/>
</filter>
<filter id="filter2_f_2012_21335" x="172.327" y="0.388947" width="42.7105" height="33.2779" filterUnits="userSpaceOnUse" color-interpolation-filters="sRGB">
<feFlood flood-opacity="0" result="BackgroundImageFix"/>
<feBlend mode="normal" in="SourceGraphic" in2="BackgroundImageFix" result="shape"/>
<feGaussianBlur stdDeviation="4" result="effect1_foregroundBlur_2012_21335"/>
</filter>
<filter id="filter3_f_2012_21335" x="172.556" y="21.5208" width="42.2526" height="27.0368" filterUnits="userSpaceOnUse" color-interpolation-filters="sRGB">
<feFlood flood-opacity="0" result="BackgroundImageFix"/>
<feBlend mode="normal" in="SourceGraphic" in2="BackgroundImageFix" result="shape"/>
<feGaussianBlur stdDeviation="4" result="effect1_foregroundBlur_2012_21335"/>
</filter>
<radialGradient id="paint0_radial_2012_21335" cx="0" cy="0" r="1" gradientUnits="userSpaceOnUse" gradientTransform="translate(105.938 30.6508) scale(98.3808 42.1632)">
<stop/>
<stop offset="0.84" stop-opacity="0.2"/>
</radialGradient>
<radialGradient id="paint1_radial_2012_21335" cx="0" cy="0" r="1" gradientUnits="userSpaceOnUse" gradientTransform="translate(105.938 28.5286) scale(98.3808 42.1632)">
<stop stop-color="#F76F06"/>
<stop offset="0.98" stop-color="#D33501"/>
</radialGradient>
<radialGradient id="paint2_radial_2012_21335" cx="0" cy="0" r="1" gradientUnits="userSpaceOnUse" gradientTransform="translate(105.948 25.9142) scale(98.3668 42.5574)">
<stop stop-color="#F76F06"/>
<stop offset="0.98" stop-color="#D33501"/>
</radialGradient>
<linearGradient id="paint3_linear_2012_21335" x1="108.411" y1="50.7425" x2="108.411" y2="38.8475" gradientUnits="userSpaceOnUse">
<stop/>
<stop offset="1" stop-opacity="0"/>
</linearGradient>
<radialGradient id="paint4_radial_2012_21335" cx="0" cy="0" r="1" gradientUnits="userSpaceOnUse" gradientTransform="translate(106.77 11.254) scale(101.795 43.6266)">
<stop stop-color="white"/>
<stop offset="1" stop-color="white" stop-opacity="0"/>
</radialGradient>
<radialGradient id="paint5_radial_2012_21335" cx="0" cy="0" r="1" gradientUnits="userSpaceOnUse" gradientTransform="translate(21.6529 28.4722) scale(17.1135 15.5577)">
<stop/>
<stop offset="0.84" stop-opacity="0.2"/>
</radialGradient>
<radialGradient id="paint6_radial_2012_21335" cx="0" cy="0" r="1" gradientUnits="userSpaceOnUse" gradientTransform="translate(21.6819 26.7124) scale(16.1255)">
<stop stop-color="#2BFEE7"/>
<stop offset="1" stop-color="#009EAA"/>
</radialGradient>
<radialGradient id="paint7_radial_2012_21335" cx="0" cy="0" r="1" gradientUnits="userSpaceOnUse" gradientTransform="translate(21.7069 20.1079) rotate(-90.11) scale(18.6775 16.623)">
<stop stop-color="#2BFEE7"/>
<stop offset="1" stop-color="#009EAA"/>
</radialGradient>
<linearGradient id="paint8_linear_2012_21335" x1="21.6819" y1="25.6668" x2="21.6819" y2="8.38895" gradientUnits="userSpaceOnUse">
<stop stop-color="white" stop-opacity="0"/>
<stop offset="1" stop-color="white"/>
</linearGradient>
<radialGradient id="paint9_radial_2012_21335" cx="0" cy="0" r="1" gradientUnits="userSpaceOnUse" gradientTransform="translate(21.9098 29.7589) scale(18.4567 16.7788)">
<stop stop-color="white"/>
<stop offset="0.62" stop-color="#5D5D5D"/>
<stop offset="1"/>
</radialGradient>
<radialGradient id="paint10_radial_2012_21335" cx="0" cy="0" r="1" gradientUnits="userSpaceOnUse" gradientTransform="translate(21.3812 16.9409) scale(17.4595)">
<stop stop-color="white"/>
<stop offset="1" stop-color="white" stop-opacity="0"/>
</radialGradient>
<radialGradient id="paint11_radial_2012_21335" cx="0" cy="0" r="1" gradientUnits="userSpaceOnUse" gradientTransform="translate(31.6919 33.0688) rotate(-71.24) scale(2.57743 1.06459)">
<stop stop-color="white"/>
<stop offset="1" stop-color="white" stop-opacity="0"/>
</radialGradient>
<radialGradient id="paint12_radial_2012_21335" cx="0" cy="0" r="1" gradientUnits="userSpaceOnUse" gradientTransform="translate(9.48536 14.9601) rotate(-30.53) scale(2.72035 1.98795)">
<stop offset="0.51" stop-color="white"/>
<stop offset="1" stop-color="white" stop-opacity="0"/>
</radialGradient>
<radialGradient id="paint13_radial_2012_21335" cx="0" cy="0" r="1" gradientUnits="userSpaceOnUse" gradientTransform="translate(-10.7445 53.8435) rotate(-59.25) scale(0.690307 1.80325)">
<stop offset="0.51" stop-color="white"/>
<stop offset="1" stop-color="white" stop-opacity="0"/>
</radialGradient>
<radialGradient id="paint14_radial_2012_21335" cx="0" cy="0" r="1" gradientUnits="userSpaceOnUse" gradientTransform="translate(-12.9436 59.0767) rotate(-62.99) scale(0.363385 0.969027)">
<stop offset="0.51" stop-color="white"/>
<stop offset="1" stop-color="white" stop-opacity="0"/>
</radialGradient>
<radialGradient id="paint15_radial_2012_21335" cx="0" cy="0" r="1" gradientUnits="userSpaceOnUse" gradientTransform="translate(59.5306 32.4956) rotate(-144.13) scale(0.704395 1.73281)">
<stop offset="0.51" stop-color="white"/>
<stop offset="1" stop-color="white" stop-opacity="0"/>
</radialGradient>
<radialGradient id="paint16_radial_2012_21335" cx="0" cy="0" r="1" gradientUnits="userSpaceOnUse" gradientTransform="translate(61.4675 33.8215) rotate(-144.13) scale(0.378526 0.931176)">
<stop offset="0.51" stop-color="white"/>
<stop offset="1" stop-color="white" stop-opacity="0"/>
</radialGradient>
<radialGradient id="paint17_radial_2012_21335" cx="0" cy="0" r="1" gradientUnits="userSpaceOnUse" gradientTransform="translate(43.8896 41.8861) rotate(-112.2) scale(0.363385 0.976596)">
<stop offset="0.51" stop-color="white"/>
<stop offset="1" stop-color="white" stop-opacity="0"/>
</radialGradient>
<radialGradient id="paint18_radial_2012_21335" cx="0" cy="0" r="1" gradientUnits="userSpaceOnUse" gradientTransform="translate(193.653 28.4722) scale(17.1135 15.5577)">
<stop/>
<stop offset="0.84" stop-opacity="0.2"/>
</radialGradient>
<radialGradient id="paint19_radial_2012_21335" cx="0" cy="0" r="1" gradientUnits="userSpaceOnUse" gradientTransform="translate(193.682 26.7124) scale(16.1255)">
<stop stop-color="#2BFEE7"/>
<stop offset="1" stop-color="#009EAA"/>
</radialGradient>
<radialGradient id="paint20_radial_2012_21335" cx="0" cy="0" r="1" gradientUnits="userSpaceOnUse" gradientTransform="translate(193.707 20.1079) rotate(-90.11) scale(18.6775 16.623)">
<stop stop-color="#2BFEE7"/>
<stop offset="1" stop-color="#009EAA"/>
</radialGradient>
<linearGradient id="paint21_linear_2012_21335" x1="193.682" y1="25.6668" x2="193.682" y2="8.38895" gradientUnits="userSpaceOnUse">
<stop stop-color="white" stop-opacity="0"/>
<stop offset="1" stop-color="white"/>
</linearGradient>
<radialGradient id="paint22_radial_2012_21335" cx="0" cy="0" r="1" gradientUnits="userSpaceOnUse" gradientTransform="translate(193.91 29.7589) scale(18.4567 16.7788)">
<stop stop-color="white"/>
<stop offset="0.62" stop-color="#5D5D5D"/>
<stop offset="1"/>
</radialGradient>
<radialGradient id="paint23_radial_2012_21335" cx="0" cy="0" r="1" gradientUnits="userSpaceOnUse" gradientTransform="translate(193.381 16.9409) scale(17.4595)">
<stop stop-color="white"/>
<stop offset="1" stop-color="white" stop-opacity="0"/>
</radialGradient>
<radialGradient id="paint24_radial_2012_21335" cx="0" cy="0" r="1" gradientUnits="userSpaceOnUse" gradientTransform="translate(203.692 33.0688) rotate(-71.24) scale(2.57743 1.06459)">
<stop stop-color="white"/>
<stop offset="1" stop-color="white" stop-opacity="0"/>
</radialGradient>
<radialGradient id="paint25_radial_2012_21335" cx="0" cy="0" r="1" gradientUnits="userSpaceOnUse" gradientTransform="translate(181.485 14.9601) rotate(-30.53) scale(2.72035 1.98795)">
<stop offset="0.51" stop-color="white"/>
<stop offset="1" stop-color="white" stop-opacity="0"/>
</radialGradient>
<radialGradient id="paint26_radial_2012_21335" cx="0" cy="0" r="1" gradientUnits="userSpaceOnUse" gradientTransform="translate(161.256 53.8435) rotate(-59.25) scale(0.690307 1.80325)">
<stop offset="0.51" stop-color="white"/>
<stop offset="1" stop-color="white" stop-opacity="0"/>
</radialGradient>
<radialGradient id="paint27_radial_2012_21335" cx="0" cy="0" r="1" gradientUnits="userSpaceOnUse" gradientTransform="translate(159.056 59.0767) rotate(-62.99) scale(0.363385 0.969027)">
<stop offset="0.51" stop-color="white"/>
<stop offset="1" stop-color="white" stop-opacity="0"/>
</radialGradient>
<radialGradient id="paint28_radial_2012_21335" cx="0" cy="0" r="1" gradientUnits="userSpaceOnUse" gradientTransform="translate(231.531 32.4956) rotate(-144.13) scale(0.704395 1.73281)">
<stop offset="0.51" stop-color="white"/>
<stop offset="1" stop-color="white" stop-opacity="0"/>
</radialGradient>
<radialGradient id="paint29_radial_2012_21335" cx="0" cy="0" r="1" gradientUnits="userSpaceOnUse" gradientTransform="translate(233.468 33.8215) rotate(-144.13) scale(0.378526 0.931176)">
<stop offset="0.51" stop-color="white"/>
<stop offset="1" stop-color="white" stop-opacity="0"/>
</radialGradient>
<radialGradient id="paint30_radial_2012_21335" cx="0" cy="0" r="1" gradientUnits="userSpaceOnUse" gradientTransform="translate(215.89 41.8861) rotate(-112.2) scale(0.363385 0.976596)">
<stop offset="0.51" stop-color="white"/>
<stop offset="1" stop-color="white" stop-opacity="0"/>
</radialGradient>
</defs>
</svg>
