<svg width="215" height="56" viewBox="0 0 215 56" fill="none" xmlns="http://www.w3.org/2000/svg">
<path d="M214.031 31.4374C214.031 32.6374 213.981 33.8374 213.921 35.0474C213.801 37.4174 213.581 39.7874 213.261 42.1574C213.081 43.4874 212.881 44.8174 212.641 46.1474C212.221 48.4774 209.741 50.5474 205.991 52.0374C202.491 53.6374 197.651 54.6974 192.181 54.8774C167.911 55.6674 46.141 55.6674 21.861 54.8774C16.391 54.6974 11.551 53.6374 8.05098 52.0374C4.30098 50.5474 1.82098 48.4774 1.40098 46.1474C1.24098 45.2674 1.10098 44.3874 0.970981 43.5074C0.580981 40.9174 0.31098 38.3174 0.16098 35.7274C0.0709798 34.2574 0.0209802 32.7774 0.0109802 31.3074C-0.00901983 30.2574 0.0109809 29.2074 0.0409809 28.1574V28.1174C0.0909809 26.6074 0.170981 25.0874 0.290981 23.5774C0.390981 22.3674 0.51098 21.1574 0.66098 19.9574C0.86098 18.3274 1.11098 16.6974 1.40098 15.0674C1.62098 13.8374 2.41098 12.6874 3.66098 11.6474C4.78098 10.7174 6.27098 9.87743 8.04098 9.17743C11.541 7.57743 16.381 6.51743 21.851 6.33743C46.131 5.54743 167.901 5.54743 192.171 6.33743C197.641 6.51743 202.481 7.57743 205.981 9.17743C208.241 10.0774 210.041 11.1774 211.201 12.4374C211.971 13.2574 212.471 14.1474 212.631 15.0774C212.941 16.7974 213.201 18.5074 213.401 20.2274C213.561 21.5174 213.691 22.8074 213.781 24.0974C213.881 25.4074 213.951 26.7074 213.991 28.0174C214.031 29.1674 214.041 30.3074 214.031 31.4474V31.4374Z" fill="url(#paint0_radial_2012_20744)"/>
<path d="M213.931 32.8174C213.871 34.0674 213.781 35.3274 213.661 36.5774C213.461 38.7174 213.181 40.8574 212.821 42.9974C212.761 43.3374 212.701 43.6774 212.641 44.0174C212.221 46.3474 209.741 48.4174 205.991 49.9074C202.491 51.5074 197.651 52.5674 192.181 52.7474C167.911 53.5374 46.141 53.5374 21.861 52.7474C16.391 52.5674 11.551 51.5074 8.05095 49.9074C4.49095 48.4874 2.08096 46.5574 1.48096 44.3674C1.44096 44.2474 1.42096 44.1374 1.40096 44.0174C1.00096 41.7874 0.690955 39.5574 0.460955 37.3274C0.310955 35.8574 0.190954 34.3774 0.120954 32.9074C0.0109544 30.9874 -0.0190443 29.0674 0.0109557 27.1374V27.1074C0.0209557 26.6374 0.0309547 26.1574 0.0509547 25.6874C0.0909547 24.3474 0.170956 23.0174 0.270956 21.6774C0.460956 19.2274 0.760955 16.7674 1.16096 14.3174C1.24096 13.8574 1.31096 13.3874 1.40096 12.9274C1.82096 10.5974 4.30095 8.52742 8.05095 7.03742C11.551 5.43742 16.391 4.37742 21.861 4.19742C46.141 3.40742 167.911 3.40742 192.181 4.19742C197.651 4.37742 202.491 5.43742 205.991 7.03742C209.741 8.52742 212.221 10.5974 212.641 12.9274C212.751 13.5374 212.851 14.1474 212.951 14.7574C213.321 17.0774 213.591 19.3974 213.781 21.7174C213.891 23.1574 213.971 24.5974 214.011 26.0374C214.011 26.2674 214.031 26.4974 214.031 26.7374V26.8174C214.071 28.8174 214.031 30.8174 213.931 32.8074V32.8174Z" fill="url(#paint1_radial_2012_20744)"/>
<g style="mix-blend-mode:hard-light" opacity="0.2">
<path d="M212.641 11.0074C212.221 8.63743 209.741 6.52743 205.991 5.00743C202.491 3.37743 197.651 2.29743 192.181 2.11743C167.911 1.30743 46.1309 1.30743 21.8609 2.11743C16.3909 2.29743 11.5509 3.37743 8.05093 5.00743C4.31093 6.52743 1.82093 8.62743 1.40093 11.0074C-0.449072 21.5474 -0.449072 32.0974 1.40093 42.6374C1.82093 45.0074 4.30093 47.1174 8.05093 48.6374C11.5509 50.2674 16.3909 51.3474 21.8609 51.5274C46.1309 52.3374 167.911 52.3374 192.181 51.5274C197.651 51.3474 202.491 50.2674 205.991 48.6374C209.731 47.1174 212.221 45.0174 212.641 42.6374C214.491 32.0974 214.491 21.5474 212.641 11.0074Z" fill="white"/>
</g>
<path d="M213.511 35.4974C213.291 37.5174 213.001 39.5274 212.651 41.5474C212.231 43.9074 209.751 45.9874 206.001 47.4974C202.501 49.1074 197.661 50.1774 192.191 50.3574C167.921 51.1574 46.141 51.1574 21.871 50.3574C16.401 50.1774 11.561 49.1074 8.06096 47.4974C4.31096 45.9874 1.83096 43.9074 1.41096 41.5474C1.08096 39.6874 0.810959 37.8174 0.600959 35.9474C-0.379041 27.3574 -0.10904 18.7574 1.41096 10.1674C1.83096 7.81743 4.31096 5.72743 8.06096 4.21743C11.561 2.60743 16.401 1.53743 21.871 1.35743C46.141 0.557431 167.921 0.557431 192.191 1.35743C197.661 1.53743 202.501 2.60743 206.001 4.21743C209.751 5.72743 212.231 7.80743 212.651 10.1674C214.141 18.6074 214.441 27.0574 213.511 35.4974Z" fill="url(#paint2_radial_2012_20744)"/>
<g style="mix-blend-mode:soft-light" opacity="0.75">
<path d="M213.511 35.4974C213.291 37.5174 213.001 39.5274 212.651 41.5474C212.231 43.9074 209.751 45.9874 206.001 47.4974C202.501 49.1074 197.661 50.1774 192.191 50.3574C167.921 51.1574 46.141 51.1574 21.871 50.3574C16.401 50.1774 11.561 49.1074 8.06096 47.4974C4.31096 45.9874 1.83096 43.9074 1.41096 41.5474C1.08096 39.6874 0.810959 37.8174 0.600959 35.9474C-0.379041 27.3574 -0.10904 18.7574 1.41096 10.1674C1.83096 7.81739 4.31096 5.72739 8.06096 4.21739C11.561 2.60739 16.401 1.53739 21.871 1.35739C46.141 0.557385 167.921 0.557385 192.191 1.35739C197.661 1.53739 202.501 2.60739 206.001 4.21739C209.751 5.72739 212.231 7.80739 212.651 10.1674C214.141 18.6074 214.441 27.0574 213.511 35.4974Z" fill="url(#paint3_linear_2012_20744)"/>
</g>
<path style="mix-blend-mode:overlay" opacity="0.6" d="M214.031 26.0574C214.031 26.2874 214.031 26.5174 214.031 26.7474V26.8274C214.031 27.2174 214.011 27.6074 214.001 28.0074C213.971 29.1274 213.921 30.2374 213.841 31.3474C213.811 31.8074 213.771 32.2574 213.741 32.7174C213.681 33.4274 213.611 34.1474 213.531 34.8674C213.521 34.9674 213.511 35.0674 213.501 35.1674C212.681 35.2874 211.871 35.4174 211.061 35.5274C206.771 36.1574 202.481 36.7074 198.191 37.1974C196.681 37.3674 195.161 37.5274 193.651 37.6874C167.891 40.3074 44.591 40.4074 18.771 37.8474C17.401 37.7174 16.031 37.5674 14.651 37.4174C10.781 36.9974 6.91098 36.5074 3.04098 35.9574C2.22098 35.8474 1.41097 35.7274 0.600975 35.6074C0.600975 35.5674 0.600978 35.5174 0.580978 35.4774C0.480978 34.5774 0.390976 33.6874 0.320976 32.7874C0.270976 32.2574 0.240977 31.7274 0.200977 31.2074C0.130977 30.1874 0.0809758 29.1774 0.0509758 28.1574V28.1174C0.0509758 27.7974 0.030977 27.4674 0.020977 27.1474V27.1174C0.020977 26.6474 0.000976562 26.1874 0.000976562 25.7174C0.000976562 25.0374 0.00097725 24.3574 0.0309772 23.6774C0.0509772 23.0474 0.070975 22.4174 0.100975 21.7874C0.120975 21.2474 0.150975 20.7174 0.190975 20.1774C0.310975 18.2774 0.490978 16.3774 0.740978 14.4774C0.830978 13.7974 0.920977 13.1274 1.02098 12.4474C1.14098 11.6574 1.27098 10.8574 1.41098 10.0574C1.83098 7.72742 4.31098 5.65742 8.06098 4.16742C11.561 2.56742 16.401 1.50742 21.871 1.32742C46.151 0.537424 167.921 0.537424 192.191 1.32742C197.661 1.50742 202.511 2.56742 206.001 4.16742C209.751 5.65742 212.231 7.72742 212.651 10.0574C212.831 11.0374 212.991 12.0174 213.131 12.9874C213.221 13.6274 213.311 14.2574 213.381 14.8974C213.611 16.7274 213.781 18.5574 213.891 20.3874C213.921 20.8574 213.941 21.3174 213.961 21.7874C214.001 22.5774 214.021 23.3574 214.041 24.1474C214.041 24.7774 214.041 25.4074 214.041 26.0374L214.031 26.0574Z" fill="url(#paint4_radial_2012_20744)"/>
<g style="mix-blend-mode:soft-light" opacity="0.6">
<path d="M179.571 8.76742C179.601 11.8174 162.711 9.88742 102.221 9.88742C52.6109 9.88742 33.8309 11.9074 33.8009 8.85742C33.7709 5.80742 51.8909 3.29742 103.181 3.29742C162.001 3.29742 179.541 5.71742 179.571 8.76742Z" fill="white"/>
</g>
<path d="M46.9331 32.4599V21.5399C46.9331 20.6799 47.6131 19.9999 48.4731 19.9999H53.4331C55.0331 19.9999 56.2931 20.4399 57.0931 21.2399C57.7331 21.8799 58.0531 22.6599 58.0531 23.6199V23.6599C58.0531 25.2399 57.2131 26.1199 56.2131 26.6799C57.8331 27.2999 58.8331 28.2399 58.8331 30.1199V30.1599C58.8331 32.7199 56.7531 33.9999 53.5931 33.9999H48.4731C47.6131 33.9999 46.9331 33.3199 46.9331 32.4599ZM49.9331 25.6599H52.7731C54.1331 25.6599 54.9931 25.2199 54.9931 24.1799V24.1399C54.9931 23.2199 54.2731 22.6999 52.9731 22.6999H49.9331V25.6599ZM49.9331 31.2999H53.5931C54.9531 31.2999 55.7731 30.8199 55.7731 29.7799V29.7399C55.7731 28.7999 55.0731 28.2199 53.4931 28.2199H49.9331V31.2999ZM67.2066 34.2199C63.4466 34.2199 61.1466 32.1199 61.1466 27.9999V21.4199C61.1466 20.5599 61.8266 19.8799 62.6866 19.8799C63.5466 19.8799 64.2266 20.5599 64.2266 21.4199V27.9199C64.2266 30.1999 65.3666 31.3799 67.2466 31.3799C69.1266 31.3799 70.2666 30.2399 70.2666 28.0199V21.4199C70.2666 20.5599 70.9466 19.8799 71.8066 19.8799C72.6666 19.8799 73.3466 20.5599 73.3466 21.4199V27.8999C73.3466 32.1399 70.9666 34.2199 67.2066 34.2199ZM80.1438 32.5799V28.5999L75.6238 22.4599C75.4038 22.1599 75.2438 21.7999 75.2438 21.3599C75.2438 20.5399 75.9238 19.8799 76.7838 19.8799C77.4838 19.8799 77.9238 20.2599 78.3038 20.8199L81.7038 25.7199L85.1638 20.7799C85.5438 20.2199 86.0038 19.8599 86.6438 19.8599C87.5838 19.8599 88.1438 20.5199 88.1438 21.3599C88.1438 21.7799 87.9438 22.1599 87.7438 22.4399L83.2238 28.5399V32.5799C83.2238 33.4399 82.5438 34.1199 81.6838 34.1199C80.8238 34.1199 80.1438 33.4399 80.1438 32.5799ZM101.229 34.1999C99.3895 34.1999 97.5295 33.6399 95.9695 32.5199C95.6295 32.2799 95.3895 31.8399 95.3895 31.3599C95.3895 30.5599 96.0295 29.9399 96.8295 29.9399C97.2295 29.9399 97.5095 30.0799 97.7095 30.2199C98.7695 30.9999 99.9295 31.4799 101.289 31.4799C102.549 31.4799 103.309 30.9799 103.309 30.1599V30.1199C103.309 29.3399 102.829 28.9399 100.489 28.3399C97.6695 27.6199 95.8495 26.8399 95.8495 24.0599V24.0199C95.8495 21.4799 97.8895 19.7999 100.749 19.7999C102.449 19.7999 103.929 20.2399 105.189 21.0399C105.529 21.2399 105.869 21.6599 105.869 22.2599C105.869 23.0599 105.229 23.6799 104.429 23.6799C104.129 23.6799 103.889 23.5999 103.649 23.4599C102.629 22.8599 101.669 22.5199 100.709 22.5199C99.5295 22.5199 98.9095 23.0599 98.9095 23.7399V23.7799C98.9095 24.6999 99.5095 24.9999 101.929 25.6199C104.769 26.3599 106.369 27.3799 106.369 29.8199V29.8599C106.369 32.6399 104.249 34.1999 101.229 34.1999ZM114.882 34.2199C111.122 34.2199 108.822 32.1199 108.822 27.9999V21.4199C108.822 20.5599 109.502 19.8799 110.362 19.8799C111.222 19.8799 111.902 20.5599 111.902 21.4199V27.9199C111.902 30.1999 113.042 31.3799 114.922 31.3799C116.802 31.3799 117.942 30.2399 117.942 28.0199V21.4199C117.942 20.5599 118.622 19.8799 119.482 19.8799C120.342 19.8799 121.022 20.5599 121.022 21.4199V27.8999C121.022 32.1399 118.642 34.2199 114.882 34.2199ZM130.9 34.2399C126.54 34.2399 123.54 31.1799 123.54 27.0399V26.9999C123.54 23.0199 126.64 19.7599 130.88 19.7599C133 19.7599 134.4 20.2399 135.66 21.1199C135.96 21.3399 136.3 21.7599 136.3 22.3599C136.3 23.1999 135.62 23.8799 134.78 23.8799C134.34 23.8799 134.06 23.7199 133.84 23.5599C133 22.9599 132.1 22.5999 130.78 22.5999C128.54 22.5999 126.76 24.5799 126.76 26.9599V26.9999C126.76 29.5599 128.52 31.4399 131 31.4399C132.12 31.4399 133.12 31.1599 133.9 30.5999V28.5999H131.82C131.08 28.5999 130.48 28.0199 130.48 27.2799C130.48 26.5399 131.08 25.9399 131.82 25.9399H135.34C136.2 25.9399 136.88 26.6199 136.88 27.4799V30.8799C136.88 31.7799 136.54 32.3999 135.8 32.8399C134.66 33.5399 133 34.2399 130.9 34.2399ZM138.883 32.6799C138.883 32.4599 138.963 32.2399 139.063 32.0199L143.943 20.9999C144.283 20.2399 144.903 19.7799 145.743 19.7799H145.923C146.763 19.7799 147.363 20.2399 147.703 20.9999L152.583 32.0199C152.683 32.2399 152.743 32.4399 152.743 32.6399C152.743 33.4599 152.103 34.1199 151.283 34.1199C150.563 34.1199 150.083 33.6999 149.803 33.0599L148.863 30.8599H142.703L141.723 33.1599C141.463 33.7599 140.943 34.1199 140.303 34.1199C139.503 34.1199 138.883 33.4799 138.883 32.6799ZM143.843 28.1399H147.723L145.783 23.5199L143.843 28.1399ZM155.156 32.5799V21.5399C155.156 20.6799 155.836 19.9999 156.696 19.9999H161.556C163.336 19.9999 164.716 20.4999 165.636 21.4199C166.416 22.1999 166.836 23.2999 166.836 24.6199V24.6599C166.836 26.8599 165.736 28.2199 164.036 28.9199L166.176 31.5199C166.476 31.8999 166.676 32.2199 166.676 32.6999C166.676 33.5599 165.956 34.1199 165.216 34.1199C164.516 34.1199 164.056 33.7799 163.696 33.3199L160.696 29.5199H158.236V32.5799C158.236 33.4399 157.556 34.1199 156.696 34.1199C155.836 34.1199 155.156 33.4399 155.156 32.5799ZM158.236 26.7999H161.356C162.856 26.7999 163.716 25.9999 163.716 24.8199V24.7799C163.716 23.4599 162.796 22.7799 161.296 22.7799H158.236V26.7999Z" fill="white"/>
<path d="M21.5909 46.0737C29.5991 46.0737 36.0909 38.1932 36.0909 28.4722C36.0909 18.7512 29.5991 10.8707 21.5909 10.8707C13.5828 10.8707 7.09094 18.7512 7.09094 28.4722C7.09094 38.1932 13.5828 46.0737 21.5909 46.0737Z" fill="url(#paint5_radial_2012_20744)"/>
<path d="M36.0909 26.7124C36.0909 27.0787 36.0818 27.4435 36.0619 27.8037C36.0497 28.0632 36.0314 28.3226 36.0085 28.5791C35.9597 29.1682 35.8849 29.7482 35.7857 30.3175C35.72 30.6991 35.6453 31.0746 35.5598 31.4455C35.3171 32.5032 34.995 33.5213 34.6013 34.4874C34.5051 34.7255 34.4028 34.9606 34.2975 35.1926C31.8325 40.6293 27.0658 44.3139 21.5909 44.3139C16.116 44.3139 11.3448 40.6263 8.87978 35.185C8.77294 34.9499 8.67068 34.7118 8.57299 34.4706C8.17768 33.4953 7.8541 32.4696 7.61142 31.4028C7.52594 31.0258 7.45115 30.6426 7.38552 30.255C7.27868 29.6246 7.20084 28.9805 7.15199 28.3272C7.13063 28.0555 7.11536 27.7823 7.10621 27.5076C7.09552 27.2435 7.09094 26.9795 7.09094 26.7124C7.09094 26.3568 7.1001 26.0042 7.11689 25.6546V25.6485C7.14589 25.0426 7.20084 24.4458 7.28173 23.8582C7.33973 23.414 7.41452 22.976 7.50152 22.544C7.65415 21.7717 7.85105 21.0192 8.08763 20.2912C8.18531 19.9813 8.29215 19.6776 8.40663 19.3769C8.95152 17.9345 9.65363 16.5975 10.4855 15.3978C10.806 14.9353 11.1448 14.4927 11.502 14.073C14.1105 11.002 17.6698 9.11243 21.5909 9.11243C25.512 9.11243 29.25 11.0982 31.8768 14.3065C32.2309 14.7384 32.5652 15.1918 32.8811 15.6664C33.6931 16.8875 34.3738 18.2429 34.8943 19.702C34.9996 19.9935 35.0973 20.2896 35.1889 20.5903C35.4209 21.3474 35.6102 22.1289 35.7552 22.9317C35.8315 23.353 35.8956 23.7819 35.9459 24.2138C36.0024 24.687 36.0421 25.1662 36.065 25.6516V25.6562C36.0818 26.0057 36.0909 26.3583 36.0909 26.7124Z" fill="url(#paint6_radial_2012_20744)"/>
<g style="mix-blend-mode:hard-light" opacity="0.2">
<path d="M21.5909 42.7295C29.5991 42.7295 36.0909 34.8491 36.0909 25.1281C36.0909 15.407 29.5991 7.52658 21.5909 7.52658C13.5828 7.52658 7.09094 15.407 7.09094 25.1281C7.09094 34.8491 13.5828 42.7295 21.5909 42.7295Z" fill="white"/>
</g>
<path d="M36.0909 24.5999C36.0909 27.097 35.662 29.4719 34.8882 31.6225C32.6567 37.8484 27.542 42.1999 21.5909 42.1999C15.6398 42.1999 10.6366 37.9399 8.36542 31.824C7.54731 29.62 7.09094 27.1733 7.09094 24.5984C7.09094 14.8788 13.5824 7 21.5909 7C29.5995 7 36.0909 14.8804 36.0909 24.6015V24.5999Z" fill="url(#paint7_radial_2012_20744)"/>
<g style="mix-blend-mode:overlay" opacity="0.8" filter="url(#filter0_f_2012_20744)">
<path d="M21.5909 10.5258C28.67 10.5258 34.4623 17.2126 34.9172 25.6668C34.9355 25.3143 34.9462 24.9586 34.9462 24.5999C34.9462 15.6466 28.9661 8.38895 21.5909 8.38895C14.2158 8.38895 8.23566 15.6466 8.23566 24.5999C8.23566 24.9586 8.24634 25.3143 8.26466 25.6668C8.71797 17.2126 14.5103 10.5258 21.5909 10.5258Z" fill="url(#paint8_linear_2012_20744)"/>
</g>
<g style="mix-blend-mode:soft-light" opacity="0.75" filter="url(#filter1_f_2012_20744)">
<path d="M21.5909 34.2234C16.751 34.2234 12.2438 32.4956 8.4646 29.5208C10.458 35.9679 15.5833 40.5576 21.5909 40.5576C27.5985 40.5576 32.7239 35.9679 34.7172 29.5208C30.9381 32.494 26.4309 34.2234 21.5909 34.2234Z" fill="url(#paint9_radial_2012_20744)"/>
</g>
<path style="mix-blend-mode:overlay" opacity="0.6" d="M36.0909 24.5999C36.0909 24.9541 36.0818 25.3036 36.065 25.6516V25.6562C36.0314 26.3522 35.9643 27.0344 35.865 27.7045C35.8284 27.9517 35.7887 28.1975 35.7429 28.4417C35.6392 29.0125 35.5109 29.5727 35.3614 30.1206C35.2606 30.4931 35.1492 30.8609 35.0271 31.2211C34.9828 31.3569 34.9355 31.4897 34.8882 31.6225C32.6308 32.2621 30.3718 32.7459 28.1114 33.071C23.54 33.7288 18.9642 33.7395 14.3867 33.0802H14.3852C12.3781 32.7917 10.3725 32.3735 8.36542 31.8255C8.28452 31.6057 8.20668 31.3829 8.13342 31.1585C8.01131 30.7937 7.89989 30.4213 7.79915 30.0443C7.63736 29.4429 7.50152 28.8263 7.39468 28.1975C7.35042 27.9411 7.31226 27.6831 7.27715 27.4221C7.19931 26.8421 7.14589 26.2529 7.11689 25.6546V25.6485C7.1001 25.3021 7.09094 24.9525 7.09094 24.5999C7.09094 24.3786 7.094 24.1573 7.10315 23.9375C7.11384 23.5117 7.13978 23.0904 7.17794 22.6722C7.24205 21.9503 7.34278 21.2421 7.4771 20.5491H7.47863C7.5351 20.2454 7.60073 19.9462 7.67247 19.6486C8.00978 18.252 8.48447 16.9272 9.08126 15.6985C9.3041 15.2345 9.54526 14.7842 9.80321 14.3492C12.4346 9.89847 16.7342 7 21.5909 7C26.4477 7 30.9457 10.0343 33.5573 14.6591C33.806 15.0986 34.038 15.5519 34.2533 16.019C34.8241 17.2538 35.2728 18.5817 35.5857 19.9783C35.6498 20.2622 35.7063 20.5506 35.7582 20.8406C35.8879 21.5626 35.981 22.2998 36.0345 23.0507C36.065 23.4552 36.0833 23.8658 36.0879 24.2779C36.0894 24.3847 36.0909 24.4931 36.0909 24.5999Z" fill="url(#paint10_radial_2012_20744)"/>
<g style="mix-blend-mode:soft-light" opacity="0.6">
<path d="M27.5985 11.5561C27.6062 13.0946 24.6604 12.1086 21.3483 12.1208C18.0362 12.133 15.6093 13.1419 15.6017 11.6034C15.5941 10.0649 18.2743 8.8087 21.5864 8.79496C24.9 8.78122 27.5909 10.0175 27.5985 11.5561Z" fill="white"/>
</g>
<path d="M33.9724 31.6836C33.4748 33.0405 32.3896 33.9334 31.9912 33.8128C31.5929 33.6922 32.4064 33.0435 32.9024 31.6866C33.4 30.3297 33.3909 28.7775 33.7892 28.8981C34.1876 29.0186 34.4684 30.3267 33.9709 31.6836H33.9724Z" fill="url(#paint11_radial_2012_20744)"/>
<path d="M16.5139 12.5084C18.2736 11.4582 19.3337 9.99303 18.8819 9.23589C18.43 8.47875 16.6372 8.71634 14.8775 9.76655C13.1178 10.8168 12.0577 12.2819 12.5096 13.0391C12.9614 13.7962 14.7542 13.5586 16.5139 12.5084Z" fill="url(#paint12_radial_2012_20744)"/>
<path d="M12.6179 15.2771C13.0254 14.6312 12.9969 13.8811 12.5542 13.6018C12.1114 13.3224 11.4222 13.6196 11.0146 14.2655C10.6071 14.9114 10.6356 15.6615 11.0783 15.9408C11.5211 16.2201 12.2103 15.923 12.6179 15.2771Z" fill="url(#paint13_radial_2012_20744)"/>
<path d="M10.8163 17.2946C11.0097 16.9344 10.9642 16.5338 10.7146 16.3998C10.4651 16.2659 10.106 16.4493 9.91265 16.8095C9.71927 17.1697 9.7648 17.5703 10.0143 17.7043C10.2639 17.8382 10.623 17.6548 10.8163 17.2946Z" fill="url(#paint14_radial_2012_20744)"/>
<path d="M27.4562 10.4537C27.7096 10.0209 27.3566 9.34301 26.6677 8.93965C25.9788 8.5363 25.2149 8.56019 24.9615 8.99301C24.7081 9.42584 25.0611 10.1037 25.75 10.5071C26.4388 10.9104 27.2027 10.8865 27.4562 10.4537Z" fill="url(#paint15_radial_2012_20744)"/>
<path d="M29.1099 11.6885C29.2462 11.4557 29.0565 11.0912 28.6862 10.8744C28.316 10.6576 27.9053 10.6706 27.769 10.9034C27.6327 11.1361 27.8224 11.5006 28.1926 11.7174C28.5629 11.9342 28.9736 11.9212 29.1099 11.6885Z" fill="url(#paint16_radial_2012_20744)"/>
<path d="M32.9777 17.8178C33.2275 17.6844 33.274 17.2839 33.0814 16.9232C32.8888 16.5626 32.5302 16.3784 32.2803 16.5118C32.0305 16.6452 31.984 17.0457 32.1766 17.4064C32.3692 17.767 32.7278 17.9512 32.9777 17.8178Z" fill="url(#paint17_radial_2012_20744)"/>
<path d="M193.591 46.0737C201.599 46.0737 208.091 38.1932 208.091 28.4722C208.091 18.7512 201.599 10.8707 193.591 10.8707C185.583 10.8707 179.091 18.7512 179.091 28.4722C179.091 38.1932 185.583 46.0737 193.591 46.0737Z" fill="url(#paint18_radial_2012_20744)"/>
<path d="M208.091 26.7124C208.091 27.0787 208.082 27.4435 208.062 27.8037C208.05 28.0632 208.031 28.3226 208.009 28.5791C207.96 29.1682 207.885 29.7482 207.786 30.3175C207.72 30.6991 207.645 31.0746 207.56 31.4455C207.317 32.5032 206.995 33.5213 206.601 34.4874C206.505 34.7255 206.403 34.9606 206.298 35.1926C203.833 40.6293 199.066 44.3139 193.591 44.3139C188.116 44.3139 183.345 40.6263 180.88 35.185C180.773 34.9499 180.671 34.7118 180.573 34.4706C180.178 33.4953 179.854 32.4696 179.611 31.4028C179.526 31.0258 179.451 30.6426 179.386 30.255C179.279 29.6246 179.201 28.9805 179.152 28.3272C179.131 28.0555 179.115 27.7823 179.106 27.5076C179.096 27.2435 179.091 26.9795 179.091 26.7124C179.091 26.3568 179.1 26.0042 179.117 25.6546V25.6485C179.146 25.0426 179.201 24.4458 179.282 23.8582C179.34 23.414 179.415 22.976 179.502 22.544C179.654 21.7717 179.851 21.0192 180.088 20.2912C180.185 19.9813 180.292 19.6776 180.407 19.3769C180.952 17.9345 181.654 16.5975 182.485 15.3978C182.806 14.9353 183.145 14.4927 183.502 14.073C186.11 11.002 189.67 9.11243 193.591 9.11243C197.512 9.11243 201.25 11.0982 203.877 14.3065C204.231 14.7384 204.565 15.1918 204.881 15.6664C205.693 16.8875 206.374 18.2429 206.894 19.702C207 19.9935 207.097 20.2896 207.189 20.5903C207.421 21.3474 207.61 22.1289 207.755 22.9317C207.831 23.353 207.896 23.7819 207.946 24.2138C208.002 24.687 208.042 25.1662 208.065 25.6516V25.6562C208.082 26.0057 208.091 26.3583 208.091 26.7124Z" fill="url(#paint19_radial_2012_20744)"/>
<g style="mix-blend-mode:hard-light" opacity="0.2">
<path d="M193.591 42.7295C201.599 42.7295 208.091 34.8491 208.091 25.1281C208.091 15.407 201.599 7.52658 193.591 7.52658C185.583 7.52658 179.091 15.407 179.091 25.1281C179.091 34.8491 185.583 42.7295 193.591 42.7295Z" fill="white"/>
</g>
<path d="M208.091 24.5999C208.091 27.097 207.662 29.4719 206.888 31.6225C204.657 37.8484 199.542 42.1999 193.591 42.1999C187.64 42.1999 182.637 37.9399 180.365 31.824C179.547 29.62 179.091 27.1733 179.091 24.5984C179.091 14.8788 185.582 7 193.591 7C201.6 7 208.091 14.8804 208.091 24.6015V24.5999Z" fill="url(#paint20_radial_2012_20744)"/>
<g style="mix-blend-mode:overlay" opacity="0.8" filter="url(#filter2_f_2012_20744)">
<path d="M193.591 10.5258C200.67 10.5258 206.462 17.2126 206.917 25.6668C206.935 25.3143 206.946 24.9586 206.946 24.5999C206.946 15.6466 200.966 8.38895 193.591 8.38895C186.216 8.38895 180.236 15.6466 180.236 24.5999C180.236 24.9586 180.246 25.3143 180.265 25.6668C180.718 17.2126 186.51 10.5258 193.591 10.5258Z" fill="url(#paint21_linear_2012_20744)"/>
</g>
<g style="mix-blend-mode:soft-light" opacity="0.75" filter="url(#filter3_f_2012_20744)">
<path d="M193.591 34.2234C188.751 34.2234 184.244 32.4956 180.465 29.5208C182.458 35.9679 187.583 40.5576 193.591 40.5576C199.599 40.5576 204.724 35.9679 206.717 29.5208C202.938 32.494 198.431 34.2234 193.591 34.2234Z" fill="url(#paint22_radial_2012_20744)"/>
</g>
<path style="mix-blend-mode:overlay" opacity="0.6" d="M208.091 24.5999C208.091 24.9541 208.082 25.3036 208.065 25.6516V25.6562C208.031 26.3522 207.964 27.0344 207.865 27.7045C207.828 27.9517 207.789 28.1975 207.743 28.4417C207.639 29.0125 207.511 29.5727 207.361 30.1206C207.261 30.4931 207.149 30.8609 207.027 31.2211C206.983 31.3569 206.936 31.4897 206.888 31.6225C204.631 32.2621 202.372 32.7459 200.111 33.071C195.54 33.7288 190.964 33.7395 186.387 33.0802H186.385C184.378 32.7917 182.373 32.3735 180.365 31.8255C180.285 31.6057 180.207 31.3829 180.133 31.1585C180.011 30.7937 179.9 30.4213 179.799 30.0443C179.637 29.4429 179.502 28.8263 179.395 28.1975C179.35 27.9411 179.312 27.6831 179.277 27.4221C179.199 26.8421 179.146 26.2529 179.117 25.6546V25.6485C179.1 25.3021 179.091 24.9525 179.091 24.5999C179.091 24.3786 179.094 24.1573 179.103 23.9375C179.114 23.5117 179.14 23.0904 179.178 22.6722C179.242 21.9503 179.343 21.2421 179.477 20.5491H179.479C179.535 20.2454 179.601 19.9462 179.672 19.6486C180.01 18.252 180.484 16.9272 181.081 15.6985C181.304 15.2345 181.545 14.7842 181.803 14.3492C184.435 9.89847 188.734 7 193.591 7C198.448 7 202.946 10.0343 205.557 14.6591C205.806 15.0986 206.038 15.5519 206.253 16.019C206.824 17.2538 207.273 18.5817 207.586 19.9783C207.65 20.2622 207.706 20.5506 207.758 20.8406C207.888 21.5626 207.981 22.2998 208.034 23.0507C208.065 23.4552 208.083 23.8658 208.088 24.2779C208.089 24.3847 208.091 24.4931 208.091 24.5999Z" fill="url(#paint23_radial_2012_20744)"/>
<g style="mix-blend-mode:soft-light" opacity="0.6">
<path d="M199.599 11.5561C199.606 13.0946 196.66 12.1086 193.348 12.1208C190.036 12.133 187.609 13.1419 187.602 11.6034C187.594 10.0649 190.274 8.8087 193.586 8.79496C196.9 8.78122 199.591 10.0175 199.599 11.5561Z" fill="white"/>
</g>
<path d="M205.972 31.6836C205.475 33.0405 204.39 33.9334 203.991 33.8128C203.593 33.6922 204.406 33.0435 204.902 31.6866C205.4 30.3297 205.391 28.7775 205.789 28.8981C206.188 29.0186 206.468 30.3267 205.971 31.6836H205.972Z" fill="url(#paint24_radial_2012_20744)"/>
<path d="M188.514 12.5084C190.274 11.4582 191.334 9.99303 190.882 9.23589C190.43 8.47875 188.637 8.71634 186.878 9.76655C185.118 10.8168 184.058 12.2819 184.51 13.0391C184.961 13.7962 186.754 13.5586 188.514 12.5084Z" fill="url(#paint25_radial_2012_20744)"/>
<path d="M184.618 15.2771C185.025 14.6312 184.997 13.8811 184.554 13.6018C184.111 13.3224 183.422 13.6196 183.015 14.2655C182.607 14.9114 182.636 15.6615 183.078 15.9408C183.521 16.2201 184.21 15.923 184.618 15.2771Z" fill="url(#paint26_radial_2012_20744)"/>
<path d="M182.816 17.2946C183.01 16.9344 182.964 16.5338 182.715 16.3998C182.465 16.2659 182.106 16.4493 181.913 16.8095C181.719 17.1697 181.765 17.5703 182.014 17.7043C182.264 17.8382 182.623 17.6548 182.816 17.2946Z" fill="url(#paint27_radial_2012_20744)"/>
<path d="M199.456 10.4537C199.71 10.0209 199.357 9.34301 198.668 8.93965C197.979 8.5363 197.215 8.56019 196.961 8.99301C196.708 9.42584 197.061 10.1037 197.75 10.5071C198.439 10.9104 199.203 10.8865 199.456 10.4537Z" fill="url(#paint28_radial_2012_20744)"/>
<path d="M201.11 11.6885C201.246 11.4557 201.056 11.0912 200.686 10.8744C200.316 10.6576 199.905 10.6706 199.769 10.9034C199.633 11.1361 199.822 11.5006 200.193 11.7174C200.563 11.9342 200.974 11.9212 201.11 11.6885Z" fill="url(#paint29_radial_2012_20744)"/>
<path d="M204.978 17.8178C205.228 17.6844 205.274 17.2839 205.081 16.9232C204.889 16.5626 204.53 16.3784 204.28 16.5118C204.031 16.6452 203.984 17.0457 204.177 17.4064C204.369 17.767 204.728 17.9512 204.978 17.8178Z" fill="url(#paint30_radial_2012_20744)"/>
<defs>
<filter id="filter0_f_2012_20744" x="0.235657" y="0.388947" width="42.7105" height="33.2779" filterUnits="userSpaceOnUse" color-interpolation-filters="sRGB">
<feFlood flood-opacity="0" result="BackgroundImageFix"/>
<feBlend mode="normal" in="SourceGraphic" in2="BackgroundImageFix" result="shape"/>
<feGaussianBlur stdDeviation="4" result="effect1_foregroundBlur_2012_20744"/>
</filter>
<filter id="filter1_f_2012_20744" x="0.4646" y="21.5208" width="42.2526" height="27.0368" filterUnits="userSpaceOnUse" color-interpolation-filters="sRGB">
<feFlood flood-opacity="0" result="BackgroundImageFix"/>
<feBlend mode="normal" in="SourceGraphic" in2="BackgroundImageFix" result="shape"/>
<feGaussianBlur stdDeviation="4" result="effect1_foregroundBlur_2012_20744"/>
</filter>
<filter id="filter2_f_2012_20744" x="172.236" y="0.388947" width="42.7105" height="33.2779" filterUnits="userSpaceOnUse" color-interpolation-filters="sRGB">
<feFlood flood-opacity="0" result="BackgroundImageFix"/>
<feBlend mode="normal" in="SourceGraphic" in2="BackgroundImageFix" result="shape"/>
<feGaussianBlur stdDeviation="4" result="effect1_foregroundBlur_2012_20744"/>
</filter>
<filter id="filter3_f_2012_20744" x="172.465" y="21.5208" width="42.2526" height="27.0368" filterUnits="userSpaceOnUse" color-interpolation-filters="sRGB">
<feFlood flood-opacity="0" result="BackgroundImageFix"/>
<feBlend mode="normal" in="SourceGraphic" in2="BackgroundImageFix" result="shape"/>
<feGaussianBlur stdDeviation="4" result="effect1_foregroundBlur_2012_20744"/>
</filter>
<radialGradient id="paint0_radial_2012_20744" cx="0" cy="0" r="1" gradientUnits="userSpaceOnUse" gradientTransform="translate(105.847 30.6508) scale(98.3808 42.1632)">
<stop/>
<stop offset="0.84" stop-opacity="0.2"/>
</radialGradient>
<radialGradient id="paint1_radial_2012_20744" cx="0" cy="0" r="1" gradientUnits="userSpaceOnUse" gradientTransform="translate(105.847 28.5286) scale(98.3808 42.1632)">
<stop stop-color="#F79D06"/>
<stop offset="0.98" stop-color="#D36101"/>
</radialGradient>
<radialGradient id="paint2_radial_2012_20744" cx="0" cy="0" r="1" gradientUnits="userSpaceOnUse" gradientTransform="translate(106.412 6.86648) rotate(-92.49) scale(43.9175 229.169)">
<stop stop-color="#F79D06"/>
<stop offset="0.98" stop-color="#D36101"/>
</radialGradient>
<linearGradient id="paint3_linear_2012_20744" x1="108.32" y1="50.7425" x2="108.32" y2="38.8475" gradientUnits="userSpaceOnUse">
<stop/>
<stop offset="1" stop-opacity="0"/>
</linearGradient>
<radialGradient id="paint4_radial_2012_20744" cx="0" cy="0" r="1" gradientUnits="userSpaceOnUse" gradientTransform="translate(106.679 11.254) scale(101.795 43.6266)">
<stop stop-color="white"/>
<stop offset="1" stop-color="white" stop-opacity="0"/>
</radialGradient>
<radialGradient id="paint5_radial_2012_20744" cx="0" cy="0" r="1" gradientUnits="userSpaceOnUse" gradientTransform="translate(21.5619 28.4722) scale(17.1135 15.5577)">
<stop/>
<stop offset="0.84" stop-opacity="0.2"/>
</radialGradient>
<radialGradient id="paint6_radial_2012_20744" cx="0" cy="0" r="1" gradientUnits="userSpaceOnUse" gradientTransform="translate(21.5909 26.7124) scale(16.1255)">
<stop stop-color="#2BFEE7"/>
<stop offset="1" stop-color="#009EAA"/>
</radialGradient>
<radialGradient id="paint7_radial_2012_20744" cx="0" cy="0" r="1" gradientUnits="userSpaceOnUse" gradientTransform="translate(21.6159 20.1079) rotate(-90.11) scale(18.6775 16.623)">
<stop stop-color="#2BFEE7"/>
<stop offset="1" stop-color="#009EAA"/>
</radialGradient>
<linearGradient id="paint8_linear_2012_20744" x1="21.5909" y1="25.6668" x2="21.5909" y2="8.38895" gradientUnits="userSpaceOnUse">
<stop stop-color="white" stop-opacity="0"/>
<stop offset="1" stop-color="white"/>
</linearGradient>
<radialGradient id="paint9_radial_2012_20744" cx="0" cy="0" r="1" gradientUnits="userSpaceOnUse" gradientTransform="translate(21.8188 29.7589) scale(18.4567 16.7788)">
<stop stop-color="white"/>
<stop offset="0.62" stop-color="#5D5D5D"/>
<stop offset="1"/>
</radialGradient>
<radialGradient id="paint10_radial_2012_20744" cx="0" cy="0" r="1" gradientUnits="userSpaceOnUse" gradientTransform="translate(21.2903 16.9409) scale(17.4595)">
<stop stop-color="white"/>
<stop offset="1" stop-color="white" stop-opacity="0"/>
</radialGradient>
<radialGradient id="paint11_radial_2012_20744" cx="0" cy="0" r="1" gradientUnits="userSpaceOnUse" gradientTransform="translate(31.601 33.0688) rotate(-71.24) scale(2.57743 1.06459)">
<stop stop-color="white"/>
<stop offset="1" stop-color="white" stop-opacity="0"/>
</radialGradient>
<radialGradient id="paint12_radial_2012_20744" cx="0" cy="0" r="1" gradientUnits="userSpaceOnUse" gradientTransform="translate(9.39439 14.9601) rotate(-30.53) scale(2.72035 1.98795)">
<stop offset="0.51" stop-color="white"/>
<stop offset="1" stop-color="white" stop-opacity="0"/>
</radialGradient>
<radialGradient id="paint13_radial_2012_20744" cx="0" cy="0" r="1" gradientUnits="userSpaceOnUse" gradientTransform="translate(-10.8354 53.8435) rotate(-59.25) scale(0.690307 1.80325)">
<stop offset="0.51" stop-color="white"/>
<stop offset="1" stop-color="white" stop-opacity="0"/>
</radialGradient>
<radialGradient id="paint14_radial_2012_20744" cx="0" cy="0" r="1" gradientUnits="userSpaceOnUse" gradientTransform="translate(-13.0345 59.0767) rotate(-62.99) scale(0.363385 0.969027)">
<stop offset="0.51" stop-color="white"/>
<stop offset="1" stop-color="white" stop-opacity="0"/>
</radialGradient>
<radialGradient id="paint15_radial_2012_20744" cx="0" cy="0" r="1" gradientUnits="userSpaceOnUse" gradientTransform="translate(59.4397 32.4956) rotate(-144.13) scale(0.704395 1.73281)">
<stop offset="0.51" stop-color="white"/>
<stop offset="1" stop-color="white" stop-opacity="0"/>
</radialGradient>
<radialGradient id="paint16_radial_2012_20744" cx="0" cy="0" r="1" gradientUnits="userSpaceOnUse" gradientTransform="translate(61.3766 33.8215) rotate(-144.13) scale(0.378526 0.931176)">
<stop offset="0.51" stop-color="white"/>
<stop offset="1" stop-color="white" stop-opacity="0"/>
</radialGradient>
<radialGradient id="paint17_radial_2012_20744" cx="0" cy="0" r="1" gradientUnits="userSpaceOnUse" gradientTransform="translate(43.7987 41.8861) rotate(-112.2) scale(0.363385 0.976596)">
<stop offset="0.51" stop-color="white"/>
<stop offset="1" stop-color="white" stop-opacity="0"/>
</radialGradient>
<radialGradient id="paint18_radial_2012_20744" cx="0" cy="0" r="1" gradientUnits="userSpaceOnUse" gradientTransform="translate(193.562 28.4722) scale(17.1135 15.5577)">
<stop/>
<stop offset="0.84" stop-opacity="0.2"/>
</radialGradient>
<radialGradient id="paint19_radial_2012_20744" cx="0" cy="0" r="1" gradientUnits="userSpaceOnUse" gradientTransform="translate(193.591 26.7124) scale(16.1255)">
<stop stop-color="#2BFEE7"/>
<stop offset="1" stop-color="#009EAA"/>
</radialGradient>
<radialGradient id="paint20_radial_2012_20744" cx="0" cy="0" r="1" gradientUnits="userSpaceOnUse" gradientTransform="translate(193.616 20.1079) rotate(-90.11) scale(18.6775 16.623)">
<stop stop-color="#2BFEE7"/>
<stop offset="1" stop-color="#009EAA"/>
</radialGradient>
<linearGradient id="paint21_linear_2012_20744" x1="193.591" y1="25.6668" x2="193.591" y2="8.38895" gradientUnits="userSpaceOnUse">
<stop stop-color="white" stop-opacity="0"/>
<stop offset="1" stop-color="white"/>
</linearGradient>
<radialGradient id="paint22_radial_2012_20744" cx="0" cy="0" r="1" gradientUnits="userSpaceOnUse" gradientTransform="translate(193.819 29.7589) scale(18.4567 16.7788)">
<stop stop-color="white"/>
<stop offset="0.62" stop-color="#5D5D5D"/>
<stop offset="1"/>
</radialGradient>
<radialGradient id="paint23_radial_2012_20744" cx="0" cy="0" r="1" gradientUnits="userSpaceOnUse" gradientTransform="translate(193.29 16.9409) scale(17.4595)">
<stop stop-color="white"/>
<stop offset="1" stop-color="white" stop-opacity="0"/>
</radialGradient>
<radialGradient id="paint24_radial_2012_20744" cx="0" cy="0" r="1" gradientUnits="userSpaceOnUse" gradientTransform="translate(203.601 33.0688) rotate(-71.24) scale(2.57743 1.06459)">
<stop stop-color="white"/>
<stop offset="1" stop-color="white" stop-opacity="0"/>
</radialGradient>
<radialGradient id="paint25_radial_2012_20744" cx="0" cy="0" r="1" gradientUnits="userSpaceOnUse" gradientTransform="translate(181.394 14.9601) rotate(-30.53) scale(2.72035 1.98795)">
<stop offset="0.51" stop-color="white"/>
<stop offset="1" stop-color="white" stop-opacity="0"/>
</radialGradient>
<radialGradient id="paint26_radial_2012_20744" cx="0" cy="0" r="1" gradientUnits="userSpaceOnUse" gradientTransform="translate(161.165 53.8435) rotate(-59.25) scale(0.690307 1.80325)">
<stop offset="0.51" stop-color="white"/>
<stop offset="1" stop-color="white" stop-opacity="0"/>
</radialGradient>
<radialGradient id="paint27_radial_2012_20744" cx="0" cy="0" r="1" gradientUnits="userSpaceOnUse" gradientTransform="translate(158.965 59.0767) rotate(-62.99) scale(0.363385 0.969027)">
<stop offset="0.51" stop-color="white"/>
<stop offset="1" stop-color="white" stop-opacity="0"/>
</radialGradient>
<radialGradient id="paint28_radial_2012_20744" cx="0" cy="0" r="1" gradientUnits="userSpaceOnUse" gradientTransform="translate(231.44 32.4956) rotate(-144.13) scale(0.704395 1.73281)">
<stop offset="0.51" stop-color="white"/>
<stop offset="1" stop-color="white" stop-opacity="0"/>
</radialGradient>
<radialGradient id="paint29_radial_2012_20744" cx="0" cy="0" r="1" gradientUnits="userSpaceOnUse" gradientTransform="translate(233.377 33.8215) rotate(-144.13) scale(0.378526 0.931176)">
<stop offset="0.51" stop-color="white"/>
<stop offset="1" stop-color="white" stop-opacity="0"/>
</radialGradient>
<radialGradient id="paint30_radial_2012_20744" cx="0" cy="0" r="1" gradientUnits="userSpaceOnUse" gradientTransform="translate(215.799 41.8861) rotate(-112.2) scale(0.363385 0.976596)">
<stop offset="0.51" stop-color="white"/>
<stop offset="1" stop-color="white" stop-opacity="0"/>
</radialGradient>
</defs>
</svg>
