<svg width="215" height="56" viewBox="0 0 215 56" fill="none" xmlns="http://www.w3.org/2000/svg">
<path d="M214.122 31.1725C214.122 32.3725 214.072 33.5725 214.012 34.7825C213.892 37.1525 213.672 39.5225 213.352 41.8925C213.172 43.2225 212.972 44.5525 212.732 45.8825C212.312 48.2125 209.832 50.2825 206.082 51.7725C202.582 53.3725 197.742 54.4325 192.272 54.6125C168.002 55.4025 46.2319 55.4025 21.9519 54.6125C16.4819 54.4325 11.6419 53.3725 8.14189 51.7725C4.39189 50.2825 1.91189 48.2125 1.49189 45.8825C1.33189 45.0025 1.19189 44.1225 1.06189 43.2425C0.671893 40.6525 0.401892 38.0525 0.251892 35.4625C0.161892 33.9925 0.111892 32.5125 0.101892 31.0425C0.081892 29.9925 0.101893 28.9425 0.131893 27.8925V27.8525C0.181893 26.3425 0.261893 24.8225 0.381893 23.3125C0.481893 22.1025 0.601892 20.8925 0.751892 19.6925C0.951892 18.0625 1.20189 16.4325 1.49189 14.8025C1.71189 13.5725 2.50189 12.4225 3.75189 11.3825C4.87189 10.4525 6.36189 9.61248 8.13189 8.91248C11.6319 7.31248 16.4719 6.25248 21.9419 6.07248C46.2219 5.28248 167.992 5.28248 192.262 6.07248C197.732 6.25248 202.572 7.31248 206.072 8.91248C208.332 9.81248 210.132 10.9125 211.292 12.1725C212.062 12.9925 212.562 13.8825 212.722 14.8125C213.032 16.5325 213.292 18.2425 213.492 19.9625C213.652 21.2525 213.782 22.5425 213.872 23.8325C213.972 25.1425 214.042 26.4425 214.082 27.7525C214.122 28.9025 214.132 30.0425 214.122 31.1825V31.1725Z" fill="url(#paint0_radial_2012_21288)"/>
<path d="M214.022 32.5525C213.962 33.8025 213.872 35.0625 213.752 36.3125C213.552 38.4525 213.272 40.5925 212.912 42.7325C212.852 43.0725 212.792 43.4125 212.732 43.7525C212.312 46.0825 209.832 48.1525 206.082 49.6425C202.582 51.2425 197.742 52.3025 192.272 52.4825C168.002 53.2725 46.2319 53.2725 21.9519 52.4825C16.4819 52.3025 11.6419 51.2425 8.1419 49.6425C4.5819 48.2225 2.1719 46.2925 1.5719 44.1025C1.5319 43.9825 1.5119 43.8725 1.4919 43.7525C1.0919 41.5225 0.781897 39.2925 0.551897 37.0625C0.401897 35.5925 0.281897 34.1125 0.211897 32.6425C0.101897 30.7225 0.0718981 28.8025 0.101898 26.8725V26.8425C0.111898 26.3725 0.121897 25.8925 0.141897 25.4225C0.181897 24.0825 0.261898 22.7525 0.361898 21.4125C0.551898 18.9625 0.851898 16.5025 1.2519 14.0525C1.3319 13.5925 1.4019 13.1225 1.4919 12.6625C1.9119 10.3325 4.3919 8.26246 8.1419 6.77246C11.6419 5.17246 16.4819 4.11247 21.9519 3.93247C46.2319 3.14247 168.002 3.14247 192.272 3.93247C197.742 4.11247 202.582 5.17246 206.082 6.77246C209.832 8.26246 212.312 10.3325 212.732 12.6625C212.842 13.2725 212.942 13.8825 213.042 14.4925C213.412 16.8125 213.682 19.1325 213.872 21.4525C213.982 22.8925 214.062 24.3325 214.102 25.7725C214.102 26.0025 214.122 26.2325 214.122 26.4725V26.5525C214.162 28.5525 214.122 30.5525 214.022 32.5425V32.5525Z" fill="url(#paint1_radial_2012_21288)"/>
<g style="mix-blend-mode:hard-light" opacity="0.2">
<path d="M212.732 10.7425C212.312 8.37246 209.832 6.26246 206.082 4.74246C202.582 3.11246 197.742 2.03246 192.272 1.85246C168.002 1.04246 46.2219 1.04246 21.9519 1.85246C16.4819 2.03246 11.6419 3.11246 8.1419 4.74246C4.4019 6.26246 1.9119 8.36246 1.4919 10.7425C-0.358099 21.2825 -0.358099 31.8325 1.4919 42.3725C1.9119 44.7425 4.3919 46.8525 8.1419 48.3725C11.6419 50.0025 16.4819 51.0825 21.9519 51.2625C46.2219 52.0725 168.002 52.0725 192.272 51.2625C197.742 51.0825 202.582 50.0025 206.082 48.3725C209.822 46.8525 212.312 44.7525 212.732 42.3725C214.582 31.8325 214.582 21.2825 212.732 10.7425Z" fill="white"/>
</g>
<path d="M213.602 35.2325C213.382 37.2525 213.092 39.2625 212.742 41.2825C212.322 43.6425 209.842 45.7225 206.092 47.2325C202.592 48.8425 197.752 49.9125 192.282 50.0925C168.012 50.8925 46.2319 50.8925 21.9619 50.0925C16.4919 49.9125 11.6519 48.8425 8.1519 47.2325C4.4019 45.7225 1.9219 43.6425 1.5019 41.2825C1.1719 39.4225 0.901901 37.5525 0.691901 35.6825C-0.288099 27.0925 -0.0180974 18.4925 1.5019 9.90248C1.9219 7.55248 4.4019 5.46248 8.1519 3.95248C11.6519 2.34248 16.4919 1.27248 21.9619 1.09248C46.2319 0.292477 168.012 0.292477 192.282 1.09248C197.752 1.27248 202.592 2.34248 206.092 3.95248C209.842 5.46248 212.322 7.54248 212.742 9.90248C214.232 18.3425 214.532 26.7925 213.602 35.2325Z" fill="url(#paint2_radial_2012_21288)"/>
<g style="mix-blend-mode:soft-light" opacity="0.75">
<path d="M213.602 35.2324C213.382 37.2524 213.092 39.2624 212.742 41.2824C212.322 43.6424 209.842 45.7224 206.092 47.2324C202.592 48.8424 197.752 49.9124 192.282 50.0924C168.012 50.8924 46.2319 50.8924 21.9619 50.0924C16.4919 49.9124 11.6519 48.8424 8.1519 47.2324C4.4019 45.7224 1.9219 43.6424 1.5019 41.2824C1.1719 39.4224 0.901901 37.5524 0.691901 35.6824C-0.288099 27.0924 -0.0180974 18.4924 1.5019 9.90243C1.9219 7.55243 4.4019 5.46243 8.1519 3.95243C11.6519 2.34243 16.4919 1.27243 21.9619 1.09243C46.2319 0.292432 168.012 0.292432 192.282 1.09243C197.752 1.27243 202.592 2.34243 206.092 3.95243C209.842 5.46243 212.322 7.54243 212.742 9.90243C214.232 18.3424 214.532 26.7924 213.602 35.2324Z" fill="url(#paint3_linear_2012_21288)"/>
</g>
<path style="mix-blend-mode:overlay" opacity="0.6" d="M214.122 25.7925C214.122 26.0225 214.122 26.2525 214.122 26.4825V26.5625C214.122 26.9525 214.102 27.3425 214.092 27.7425C214.062 28.8625 214.012 29.9725 213.932 31.0825C213.902 31.5425 213.862 31.9925 213.832 32.4525C213.772 33.1625 213.702 33.8825 213.622 34.6025C213.612 34.7025 213.602 34.8025 213.592 34.9025C212.772 35.0225 211.962 35.1525 211.152 35.2625C206.862 35.8925 202.572 36.4425 198.282 36.9325C196.772 37.1025 195.252 37.2625 193.742 37.4225C167.982 40.0425 44.6819 40.1425 18.8619 37.5825C17.4919 37.4525 16.1219 37.3025 14.7419 37.1525C10.8719 36.7325 7.00189 36.2425 3.13189 35.6925C2.31189 35.5825 1.50189 35.4625 0.691887 35.3425C0.691887 35.3025 0.69189 35.2525 0.67189 35.2125C0.57189 34.3125 0.481888 33.4225 0.411888 32.5225C0.361888 31.9925 0.331889 31.4625 0.291889 30.9425C0.221889 29.9225 0.171888 28.9125 0.141888 27.8925V27.8525C0.141888 27.5325 0.121889 27.2025 0.111889 26.8825V26.8525C0.111889 26.3825 0.0918884 25.9225 0.0918884 25.4525C0.0918884 24.7725 0.0918891 24.0925 0.121889 23.4125C0.141889 22.7825 0.161887 22.1525 0.191887 21.5225C0.211887 20.9825 0.241887 20.4525 0.281887 19.9125C0.401887 18.0125 0.58189 16.1125 0.83189 14.2125C0.92189 13.5325 1.01189 12.8625 1.11189 12.1825C1.23189 11.3925 1.36189 10.5925 1.50189 9.79247C1.92189 7.46247 4.40189 5.39247 8.15189 3.90247C11.6519 2.30247 16.4919 1.24247 21.9619 1.06247C46.2419 0.272471 168.012 0.272471 192.282 1.06247C197.752 1.24247 202.602 2.30247 206.092 3.90247C209.842 5.39247 212.322 7.46247 212.742 9.79247C212.922 10.7725 213.082 11.7525 213.222 12.7225C213.312 13.3625 213.402 13.9925 213.472 14.6325C213.702 16.4625 213.872 18.2925 213.982 20.1225C214.012 20.5925 214.032 21.0525 214.052 21.5225C214.092 22.3125 214.112 23.0925 214.132 23.8825C214.132 24.5125 214.132 25.1425 214.132 25.7725L214.122 25.7925Z" fill="url(#paint4_radial_2012_21288)"/>
<g style="mix-blend-mode:soft-light" opacity="0.6">
<path d="M179.662 8.50247C179.692 11.5525 162.802 9.62247 102.312 9.62247C52.7019 9.62247 33.9219 11.6425 33.8919 8.59247C33.8619 5.54247 51.9819 3.03247 103.272 3.03247C162.092 3.03247 179.632 5.45247 179.662 8.50247Z" fill="white"/>
</g>
<path d="M86.0552 30.58V19.54C86.0552 18.68 86.7352 18 87.5952 18H95.4352C96.2152 18 96.8352 18.62 96.8352 19.4C96.8352 20.18 96.2152 20.8 95.4352 20.8H89.1352V23.78H94.5352C95.3152 23.78 95.9352 24.4 95.9352 25.18C95.9352 25.96 95.3152 26.58 94.5352 26.58H89.1352V30.58C89.1352 31.44 88.4552 32.12 87.5952 32.12C86.7352 32.12 86.0552 31.44 86.0552 30.58ZM96.9117 30.68C96.9117 30.46 96.9917 30.24 97.0917 30.02L101.972 19C102.312 18.24 102.932 17.78 103.772 17.78H103.952C104.792 17.78 105.392 18.24 105.732 19L110.612 30.02C110.712 30.24 110.772 30.44 110.772 30.64C110.772 31.46 110.132 32.12 109.312 32.12C108.592 32.12 108.112 31.7 107.832 31.06L106.892 28.86H100.732L99.7517 31.16C99.4917 31.76 98.9717 32.12 98.3317 32.12C97.5317 32.12 96.9117 31.48 96.9117 30.68ZM101.872 26.14H105.752L103.812 21.52L101.872 26.14ZM119.476 32.24C115.156 32.24 112.056 29.02 112.056 25.04V25C112.056 21.02 115.196 17.76 119.516 17.76C123.836 17.76 126.936 20.98 126.936 24.96V25C126.936 26.48 126.476 27.86 125.696 29.02L126.296 29.52C126.616 29.8 126.856 30.18 126.856 30.68C126.856 31.48 126.216 32.14 125.416 32.14C124.996 32.14 124.636 31.96 124.396 31.72L123.636 31.04C122.456 31.8 121.036 32.24 119.476 32.24ZM119.896 27.78C119.576 27.5 119.336 27.12 119.336 26.62C119.336 25.82 119.976 25.16 120.776 25.16C121.196 25.16 121.476 25.3 121.796 25.58L123.336 26.96C123.576 26.4 123.716 25.74 123.716 25.04V25C123.716 22.6 121.956 20.6 119.476 20.6C116.996 20.6 115.276 22.56 115.276 24.96V25C115.276 27.4 117.036 29.4 119.516 29.4C120.196 29.4 120.816 29.28 121.356 29.02L119.896 27.78Z" fill="white"/>
<path d="M17.8038 15.6036C13.6204 19.7349 10.4995 24.9083 8.46392 31.1455C7.48066 34.1599 9.26367 37.3339 12.5227 38.3501C19.3659 40.4842 26.1989 40.2973 33.0228 38.0113C36.0508 36.9975 37.7658 34.0522 37.0001 31.1931C35.4391 25.3626 32.0645 20.0974 26.9341 15.4393C24.3932 13.1318 20.2382 13.1987 17.8027 15.6036H17.8038Z" fill="url(#paint5_radial_2012_21288)"/>
<path d="M36.7973 33.231C36.7508 33.3499 36.6987 33.4666 36.6432 33.581C35.9715 34.9891 34.6971 36.1468 33.016 36.7086C26.1921 38.9935 19.3602 39.1804 12.517 37.0462C10.7521 36.4957 9.41997 35.313 8.72671 33.8642C8.66667 33.7419 8.61343 33.6173 8.56358 33.4915C8.23507 32.6555 8.11387 31.747 8.23507 30.8283C8.26 30.6369 8.29511 30.4443 8.34156 30.2529C8.37441 30.1158 8.41405 29.9787 8.45823 29.8417C8.60323 29.3987 8.75276 28.9615 8.90908 28.5287C8.98951 28.3022 9.07334 28.0779 9.1583 27.8547C9.39845 27.217 9.65106 26.5917 9.91614 25.9788H9.91727C10.0634 25.6379 10.2141 25.3026 10.3681 24.9707C10.9232 23.7733 11.527 22.6235 12.1795 21.5202C12.3924 21.1611 12.6099 20.8076 12.8331 20.4587C13.2318 19.83 13.6487 19.2183 14.0825 18.6225C14.2377 18.4084 14.3963 18.1954 14.5561 17.9859H14.5572C15.2833 17.0309 16.0547 16.1202 16.8692 15.2513C17.1547 14.9477 17.4458 14.6487 17.7415 14.3553C17.7596 14.336 17.7788 14.3179 17.797 14.2998C20.2313 11.8948 24.3864 11.8291 26.9284 14.1355C27.0281 14.2261 27.1278 14.3179 27.2263 14.4085C27.5571 14.7155 27.8811 15.0247 28.1971 15.3363C29.1487 16.2731 30.0322 17.2348 30.8467 18.2181C31.0314 18.4424 31.2138 18.6667 31.3916 18.8932C31.9138 19.5559 32.4066 20.2299 32.8665 20.913C33.1259 21.297 33.3751 21.6856 33.6141 22.0764C34.3924 23.3428 35.0675 24.6433 35.6384 25.9777H35.6396C35.8038 26.3617 35.9601 26.7491 36.1074 27.1377C36.1992 27.3824 36.2887 27.627 36.3736 27.874C36.5084 28.2569 36.633 28.642 36.7497 29.0306H36.7508C36.8358 29.316 36.9174 29.6015 36.9944 29.8892C37.0352 30.0399 37.068 30.1906 37.0941 30.3424C37.1043 30.3979 37.1133 30.4545 37.1213 30.5111V30.5134C37.2561 31.4502 37.1349 32.3791 36.7973 33.231Z" fill="url(#paint6_radial_2012_21288)"/>
<g style="mix-blend-mode:hard-light" opacity="0.2">
<path d="M37.1677 30.1226C37.2277 32.5502 35.5999 34.8271 33.0126 35.6937C26.1898 37.9785 19.3568 38.1654 12.5136 36.0324C9.65898 35.142 7.93601 32.5943 8.21581 29.9504C8.2294 29.8122 8.24979 29.6751 8.27471 29.5358C8.31889 29.2991 8.37893 29.0623 8.45596 28.8278C10.4893 22.5895 13.6102 17.4161 17.7924 13.2848C20.2268 10.881 24.3819 10.813 26.925 13.1217C32.0543 17.7797 35.4289 23.0449 36.9898 28.8743C37.0589 29.1314 37.1077 29.3897 37.1348 29.6457C37.153 29.8054 37.1643 29.964 37.1677 30.1226Z" fill="white"/>
</g>
<path d="M37.1654 29.6876C37.1711 29.9255 37.1609 30.1634 37.1349 30.3979C37.1315 30.4352 37.1258 30.4737 37.1213 30.5111V30.5134C37.0227 31.2542 36.7678 31.9668 36.3793 32.6113C36.3147 32.7178 36.2468 32.8232 36.1754 32.9262C35.4504 33.9695 34.3607 34.8078 33.0092 35.2598C26.1864 37.5446 19.3534 37.7315 12.5102 35.5974C11.0467 35.142 9.88103 34.2493 9.12999 33.1324C9.05749 33.0259 8.98952 32.9172 8.92495 32.8062C8.57039 32.1933 8.33477 31.5238 8.23508 30.8283C8.21922 30.7139 8.20676 30.5995 8.1977 30.4839C8.17278 30.1645 8.17731 29.8405 8.21129 29.5154C8.21243 29.5063 8.21356 29.4984 8.21469 29.4894C8.22829 29.3613 8.24641 29.2311 8.2702 29.1008C8.31438 28.8641 8.37442 28.6284 8.45145 28.3928C8.5534 28.0813 8.65761 27.7732 8.76636 27.4662C8.8264 27.294 8.88757 27.1241 8.94874 26.9542C9.10733 26.518 9.27159 26.0876 9.44151 25.6628C9.96372 24.3499 10.5403 23.0902 11.1701 21.8815C11.3695 21.4986 11.5734 21.1203 11.7841 20.7476C12.1443 20.1076 12.5204 19.4834 12.9135 18.874C13.0596 18.6451 13.2092 18.4197 13.361 18.1954C14.0293 17.2042 14.7418 16.2549 15.4974 15.3487C15.758 15.0349 16.0242 14.7268 16.2949 14.4244C16.7763 13.884 17.2748 13.3584 17.7902 12.8498C20.2245 10.446 24.3796 10.378 26.9227 12.6867C27.59 13.2927 28.2277 13.9089 28.836 14.5354C29.1453 14.856 29.4477 15.1777 29.7423 15.5028C30.6417 16.4951 31.4698 17.5123 32.2242 18.5545C32.3998 18.7969 32.5708 19.0405 32.7385 19.2863C33.2075 19.9716 33.6447 20.6672 34.0514 21.3729C34.2904 21.7875 34.5192 22.2055 34.7356 22.628C35.4357 23.9885 36.0236 25.3841 36.4982 26.816C36.5821 27.0686 36.6625 27.3223 36.7395 27.5772C36.7996 27.7732 36.8573 27.968 36.9117 28.1651C36.9378 28.2557 36.9627 28.3475 36.9876 28.4393C37.0567 28.6975 37.1054 28.9547 37.1326 29.2118C37.1451 29.324 37.1541 29.4372 37.1598 29.5483C37.1621 29.5947 37.1643 29.6411 37.1654 29.6876Z" fill="url(#paint7_radial_2012_21288)"/>
<g style="mix-blend-mode:overlay" opacity="0.8" filter="url(#filter0_f_2012_21288)">
<path d="M18.0156 16.0205C20.3945 13.8602 24.4544 13.7991 26.9386 15.8732C30.1852 18.5851 32.7124 21.5281 34.5034 24.6886C32.862 20.6581 30.1829 16.9584 26.4934 13.6076C24.2086 11.5335 20.4726 11.5935 18.2841 13.7549C14.7735 17.2235 12.0968 21.5111 10.2696 26.6291C12.193 22.4989 14.7781 18.9635 18.0156 16.0205Z" fill="url(#paint8_linear_2012_21288)"/>
</g>
<g style="mix-blend-mode:soft-light" opacity="0.75" filter="url(#filter1_f_2012_21288)">
<path d="M35.5535 29.6174C35.5988 31.8014 34.1239 33.8449 31.7904 34.6152C25.6404 36.6441 19.4894 36.7868 13.3372 34.8384C10.7714 34.0251 9.23082 31.7255 9.49363 29.3466C9.50723 29.2232 9.52422 29.0985 9.54914 28.9739C9.58879 28.761 9.64316 28.548 9.71453 28.3373C9.86066 27.8955 10.0136 27.4605 10.1722 27.0301C10.8326 28.1379 11.9314 29.0283 13.3372 29.4758C19.4883 31.4242 25.6404 31.2814 31.7904 29.2526C33.1656 28.7995 34.244 27.9023 34.8874 26.7944C35.0777 27.354 35.2465 27.9204 35.3972 28.4936C35.4583 28.7259 35.5014 28.9569 35.5252 29.188C35.541 29.3319 35.5501 29.4746 35.5524 29.6185L35.5535 29.6174Z" fill="url(#paint9_linear_2012_21288)"/>
</g>
<path style="mix-blend-mode:overlay" opacity="0.6" d="M36.7395 27.5772C36.6194 27.6803 36.4982 27.78 36.3736 27.874C36.2298 27.9839 36.0814 28.0881 35.9307 28.1844C35.7143 28.3248 35.49 28.4528 35.2601 28.5661C34.3822 28.9977 33.5031 29.3851 32.6241 29.7284C25.8772 32.3712 19.1178 32.4312 12.3471 29.6842C11.9008 29.5041 11.4533 29.3104 11.007 29.1053C10.4146 28.8312 9.8629 28.4698 9.35881 28.0337C9.29084 27.9748 9.22401 27.9148 9.1583 27.8547C9.02463 27.7301 8.89323 27.601 8.76636 27.4662C8.98046 26.8545 9.20475 26.253 9.4415 25.6628C10.1291 23.9341 10.9107 22.2961 11.7841 20.7476C12.2791 19.8674 12.8048 19.0167 13.361 18.1954C14.2604 16.8621 15.238 15.6059 16.2949 14.4244C16.7763 13.884 17.2748 13.3584 17.7902 12.8498C20.2245 10.446 24.3796 10.378 26.9227 12.6867C27.59 13.2927 28.2277 13.9089 28.836 14.5354C30.0923 15.8324 31.2228 17.1714 32.2242 18.5545C32.8903 19.4755 33.4997 20.4146 34.0514 21.3729C35.0607 23.1253 35.8763 24.9401 36.4982 26.816C36.5821 27.0686 36.6625 27.3223 36.7395 27.5772Z" fill="url(#paint10_radial_2012_21288)"/>
<g style="mix-blend-mode:soft-light" opacity="0.6">
<path d="M27.795 15.8562C27.8018 17.2903 25.2134 16.3716 22.3009 16.3841C19.3885 16.3966 17.2555 17.3368 17.2498 15.9027C17.243 14.4685 19.5992 13.295 22.5105 13.2825C25.4229 13.27 27.7882 14.4221 27.795 15.8562Z" fill="white"/>
</g>
<path d="M25.336 13.7045C25.4962 13.4343 25.2905 13.0164 24.8767 12.7711C24.4628 12.5258 23.9975 12.5459 23.8373 12.8161C23.6772 13.0862 23.8829 13.5041 24.2967 13.7494C24.7106 13.9948 25.1759 13.9747 25.336 13.7045Z" fill="url(#paint11_radial_2012_21288)"/>
<path d="M26.3898 14.3785C26.476 14.2332 26.3656 14.0086 26.1434 13.8768C25.9211 13.745 25.6711 13.756 25.585 13.9013C25.4988 14.0466 25.6092 14.2712 25.8314 14.403C26.0537 14.5348 26.3037 14.5238 26.3898 14.3785Z" fill="url(#paint12_radial_2012_21288)"/>
<path d="M30.4324 19.0484C30.6914 18.8708 30.6808 18.4051 30.4087 18.0084C30.1367 17.6116 29.7061 17.4339 29.4471 17.6115C29.1881 17.7891 29.1987 18.2548 29.4708 18.6516C29.7429 19.0483 30.1734 19.226 30.4324 19.0484Z" fill="url(#paint13_radial_2012_21288)"/>
<path d="M31.1024 20.1033C31.2417 20.0077 31.2362 19.7575 31.0901 19.5444C30.9439 19.3313 30.7125 19.236 30.5732 19.3316C30.4339 19.4271 30.4394 19.6773 30.5856 19.8904C30.7317 20.1035 30.9631 20.1988 31.1024 20.1033Z" fill="url(#paint14_radial_2012_21288)"/>
<path d="M19.7053 14.9418C20.7233 14.2437 21.2952 13.3084 20.9828 12.8528C20.6704 12.3973 19.5919 12.5938 18.5739 13.2919C17.5559 13.99 16.9839 14.9252 17.2963 15.3808C17.6088 15.8364 18.6873 15.6398 19.7053 14.9418Z" fill="url(#paint15_radial_2012_21288)"/>
<path d="M17.0554 16.733C17.3839 16.3815 17.4642 15.9227 17.2347 15.7083C17.0052 15.4939 16.5529 15.605 16.2244 15.9565C15.896 16.308 15.8157 16.7668 16.0452 16.9812C16.2746 17.1957 16.7269 17.0845 17.0554 16.733Z" fill="url(#paint16_radial_2012_21288)"/>
<path d="M15.5585 18.0215C15.7349 17.8327 15.7779 17.5862 15.6544 17.4708C15.531 17.3555 15.288 17.4151 15.1115 17.6038C14.9351 17.7926 14.8922 18.0392 15.0156 18.1545C15.139 18.2698 15.3821 18.2103 15.5585 18.0215Z" fill="url(#paint17_radial_2012_21288)"/>
<path d="M35.7585 29.1473C35.7585 30.0682 35.336 30.8136 35.0902 30.8136C34.8444 30.8136 35.1649 30.2676 35.1649 29.3466C35.1649 28.4257 34.8444 27.4798 35.0902 27.4798C35.336 27.4798 35.7585 28.2263 35.7585 29.1461V29.1473Z" fill="url(#paint18_radial_2012_21288)"/>
<path d="M188.804 15.6036C184.62 19.7349 181.5 24.9083 179.464 31.1455C178.481 34.1599 180.264 37.3339 183.523 38.3501C190.366 40.4842 197.199 40.2973 204.023 38.0113C207.051 36.9975 208.766 34.0522 208 31.1931C206.439 25.3626 203.064 20.0974 197.934 15.4393C195.393 13.1318 191.238 13.1987 188.803 15.6036H188.804Z" fill="url(#paint19_radial_2012_21288)"/>
<path d="M207.797 33.231C207.751 33.3499 207.699 33.4666 207.643 33.581C206.971 34.9891 205.697 36.1468 204.016 36.7086C197.192 38.9935 190.36 39.1804 183.517 37.0462C181.752 36.4957 180.42 35.313 179.727 33.8642C179.667 33.7419 179.613 33.6173 179.564 33.4915C179.235 32.6555 179.114 31.747 179.235 30.8283C179.26 30.6369 179.295 30.4443 179.342 30.2529C179.374 30.1158 179.414 29.9787 179.458 29.8417C179.603 29.3987 179.753 28.9615 179.909 28.5287C179.99 28.3022 180.073 28.0779 180.158 27.8547C180.398 27.217 180.651 26.5917 180.916 25.9788H180.917C181.063 25.6379 181.214 25.3026 181.368 24.9707C181.923 23.7733 182.527 22.6235 183.179 21.5202C183.392 21.1611 183.61 20.8076 183.833 20.4587C184.232 19.83 184.649 19.2183 185.083 18.6225C185.238 18.4084 185.396 18.1954 185.556 17.9859H185.557C186.283 17.0309 187.055 16.1202 187.869 15.2513C188.155 14.9477 188.446 14.6487 188.741 14.3553C188.76 14.336 188.779 14.3179 188.797 14.2998C191.231 11.8948 195.386 11.8291 197.928 14.1355C198.028 14.2261 198.128 14.3179 198.226 14.4085C198.557 14.7155 198.881 15.0247 199.197 15.3363C200.149 16.2731 201.032 17.2348 201.847 18.2181C202.031 18.4424 202.214 18.6667 202.392 18.8932C202.914 19.5559 203.407 20.2299 203.867 20.913C204.126 21.297 204.375 21.6856 204.614 22.0764C205.392 23.3428 206.068 24.6433 206.638 25.9777H206.64C206.804 26.3617 206.96 26.7491 207.107 27.1377C207.199 27.3824 207.289 27.627 207.374 27.874C207.508 28.2569 207.633 28.642 207.75 29.0306H207.751C207.836 29.316 207.917 29.6015 207.994 29.8892C208.035 30.0399 208.068 30.1906 208.094 30.3424C208.104 30.3979 208.113 30.4545 208.121 30.5111V30.5134C208.256 31.4502 208.135 32.3791 207.797 33.231Z" fill="url(#paint20_radial_2012_21288)"/>
<g style="mix-blend-mode:hard-light" opacity="0.2">
<path d="M208.168 30.1226C208.228 32.5502 206.6 34.8271 204.013 35.6937C197.19 37.9785 190.357 38.1654 183.514 36.0324C180.659 35.142 178.936 32.5943 179.216 29.9504C179.229 29.8122 179.25 29.6751 179.275 29.5358C179.319 29.2991 179.379 29.0623 179.456 28.8278C181.489 22.5895 184.61 17.4161 188.792 13.2848C191.227 10.881 195.382 10.813 197.925 13.1217C203.054 17.7797 206.429 23.0449 207.99 28.8743C208.059 29.1314 208.108 29.3897 208.135 29.6457C208.153 29.8054 208.164 29.964 208.168 30.1226Z" fill="white"/>
</g>
<path d="M208.165 29.6876C208.171 29.9255 208.161 30.1634 208.135 30.3979C208.131 30.4352 208.126 30.4737 208.121 30.5111V30.5134C208.023 31.2542 207.768 31.9668 207.379 32.6113C207.315 32.7178 207.247 32.8232 207.175 32.9262C206.45 33.9695 205.361 34.8078 204.009 35.2598C197.186 37.5446 190.353 37.7315 183.51 35.5974C182.047 35.142 180.881 34.2493 180.13 33.1324C180.057 33.0259 179.99 32.9172 179.925 32.8062C179.57 32.1933 179.335 31.5238 179.235 30.8283C179.219 30.7139 179.207 30.5995 179.198 30.4839C179.173 30.1645 179.177 29.8405 179.211 29.5154C179.212 29.5063 179.214 29.4984 179.215 29.4894C179.228 29.3613 179.246 29.2311 179.27 29.1008C179.314 28.8641 179.374 28.6284 179.451 28.3928C179.553 28.0813 179.658 27.7732 179.766 27.4662C179.826 27.294 179.888 27.1241 179.949 26.9542C180.107 26.518 180.272 26.0876 180.442 25.6628C180.964 24.3499 181.54 23.0902 182.17 21.8815C182.37 21.4986 182.573 21.1203 182.784 20.7476C183.144 20.1076 183.52 19.4834 183.914 18.874C184.06 18.6451 184.209 18.4197 184.361 18.1954C185.029 17.2042 185.742 16.2549 186.497 15.3487C186.758 15.0349 187.024 14.7268 187.295 14.4244C187.776 13.884 188.275 13.3584 188.79 12.8498C191.225 10.446 195.38 10.378 197.923 12.6867C198.59 13.2927 199.228 13.9089 199.836 14.5354C200.145 14.856 200.448 15.1777 200.742 15.5028C201.642 16.4951 202.47 17.5123 203.224 18.5545C203.4 18.7969 203.571 19.0405 203.738 19.2863C204.207 19.9716 204.645 20.6672 205.051 21.3729C205.29 21.7875 205.519 22.2055 205.736 22.628C206.436 23.9885 207.024 25.3841 207.498 26.816C207.582 27.0686 207.662 27.3223 207.74 27.5772C207.8 27.7732 207.857 27.968 207.912 28.1651C207.938 28.2557 207.963 28.3475 207.988 28.4393C208.057 28.6975 208.105 28.9547 208.133 29.2118C208.145 29.324 208.154 29.4372 208.16 29.5483C208.162 29.5947 208.164 29.6411 208.165 29.6876Z" fill="url(#paint21_radial_2012_21288)"/>
<g style="mix-blend-mode:overlay" opacity="0.8" filter="url(#filter2_f_2012_21288)">
<path d="M189.016 16.0205C191.394 13.8602 195.454 13.7991 197.939 15.8732C201.185 18.5851 203.712 21.5281 205.503 24.6886C203.862 20.6581 201.183 16.9584 197.493 13.6076C195.209 11.5335 191.473 11.5935 189.284 13.7549C185.774 17.2235 183.097 21.5111 181.27 26.6291C183.193 22.4989 185.778 18.9635 189.016 16.0205Z" fill="url(#paint22_linear_2012_21288)"/>
</g>
<g style="mix-blend-mode:soft-light" opacity="0.75" filter="url(#filter3_f_2012_21288)">
<path d="M206.553 29.6174C206.599 31.8014 205.124 33.8449 202.79 34.6152C196.64 36.6441 190.489 36.7868 184.337 34.8384C181.771 34.0251 180.231 31.7255 180.494 29.3466C180.507 29.2232 180.524 29.0985 180.549 28.9739C180.589 28.761 180.643 28.548 180.715 28.3373C180.861 27.8955 181.014 27.4605 181.172 27.0301C181.833 28.1379 182.931 29.0283 184.337 29.4758C190.488 31.4242 196.64 31.2814 202.79 29.2526C204.166 28.7995 205.244 27.9023 205.887 26.7944C206.078 27.354 206.247 27.9204 206.397 28.4936C206.458 28.7259 206.501 28.9569 206.525 29.188C206.541 29.3319 206.55 29.4746 206.552 29.6185L206.553 29.6174Z" fill="url(#paint23_linear_2012_21288)"/>
</g>
<path style="mix-blend-mode:overlay" opacity="0.6" d="M207.74 27.5772C207.619 27.6803 207.498 27.78 207.374 27.874C207.23 27.9839 207.081 28.0881 206.931 28.1844C206.714 28.3248 206.49 28.4528 206.26 28.5661C205.382 28.9977 204.503 29.3851 203.624 29.7284C196.877 32.3712 190.118 32.4312 183.347 29.6842C182.901 29.5041 182.453 29.3104 182.007 29.1053C181.415 28.8312 180.863 28.4698 180.359 28.0337C180.291 27.9748 180.224 27.9148 180.158 27.8547C180.025 27.7301 179.893 27.601 179.766 27.4662C179.98 26.8545 180.205 26.253 180.442 25.6628C181.129 23.9341 181.911 22.2961 182.784 20.7476C183.279 19.8674 183.805 19.0167 184.361 18.1954C185.26 16.8621 186.238 15.6059 187.295 14.4244C187.776 13.884 188.275 13.3584 188.79 12.8498C191.225 10.446 195.38 10.378 197.923 12.6867C198.59 13.2927 199.228 13.9089 199.836 14.5354C201.092 15.8324 202.223 17.1714 203.224 18.5545C203.89 19.4755 204.5 20.4146 205.051 21.3729C206.061 23.1253 206.876 24.9401 207.498 26.816C207.582 27.0686 207.662 27.3223 207.74 27.5772Z" fill="url(#paint24_radial_2012_21288)"/>
<g style="mix-blend-mode:soft-light" opacity="0.6">
<path d="M198.795 15.8562C198.802 17.2903 196.213 16.3716 193.301 16.3841C190.389 16.3966 188.256 17.3368 188.25 15.9027C188.243 14.4685 190.599 13.295 193.511 13.2825C196.423 13.27 198.788 14.4221 198.795 15.8562Z" fill="white"/>
</g>
<path d="M196.336 13.7045C196.496 13.4343 196.291 13.0164 195.877 12.7711C195.463 12.5258 194.997 12.5459 194.837 12.8161C194.677 13.0862 194.883 13.5041 195.297 13.7494C195.711 13.9948 196.176 13.9747 196.336 13.7045Z" fill="url(#paint25_radial_2012_21288)"/>
<path d="M197.39 14.3785C197.476 14.2332 197.366 14.0086 197.143 13.8768C196.921 13.745 196.671 13.756 196.585 13.9013C196.499 14.0466 196.609 14.2712 196.831 14.403C197.054 14.5348 197.304 14.5238 197.39 14.3785Z" fill="url(#paint26_radial_2012_21288)"/>
<path d="M201.432 19.0484C201.691 18.8708 201.681 18.4051 201.409 18.0084C201.137 17.6116 200.706 17.4339 200.447 17.6115C200.188 17.7891 200.199 18.2548 200.471 18.6516C200.743 19.0483 201.173 19.226 201.432 19.0484Z" fill="url(#paint27_radial_2012_21288)"/>
<path d="M202.102 20.1033C202.242 20.0077 202.236 19.7575 202.09 19.5444C201.944 19.3313 201.713 19.236 201.573 19.3316C201.434 19.4271 201.439 19.6773 201.586 19.8904C201.732 20.1035 201.963 20.1988 202.102 20.1033Z" fill="url(#paint28_radial_2012_21288)"/>
<path d="M190.705 14.9418C191.723 14.2437 192.295 13.3084 191.983 12.8528C191.67 12.3973 190.592 12.5938 189.574 13.2919C188.556 13.99 187.984 14.9252 188.296 15.3808C188.609 15.8364 189.687 15.6398 190.705 14.9418Z" fill="url(#paint29_radial_2012_21288)"/>
<path d="M188.055 16.733C188.384 16.3815 188.464 15.9227 188.235 15.7083C188.005 15.4939 187.553 15.605 187.224 15.9565C186.896 16.308 186.816 16.7668 187.045 16.9812C187.275 17.1957 187.727 17.0845 188.055 16.733Z" fill="url(#paint30_radial_2012_21288)"/>
<path d="M186.558 18.0215C186.735 17.8327 186.778 17.5862 186.654 17.4708C186.531 17.3555 186.288 17.4151 186.112 17.6038C185.935 17.7926 185.892 18.0392 186.016 18.1545C186.139 18.2698 186.382 18.2103 186.558 18.0215Z" fill="url(#paint31_radial_2012_21288)"/>
<path d="M206.759 29.1473C206.759 30.0682 206.336 30.8136 206.09 30.8136C205.844 30.8136 206.165 30.2676 206.165 29.3466C206.165 28.4257 205.844 27.4798 206.09 27.4798C206.336 27.4798 206.759 28.2263 206.759 29.1461V29.1473Z" fill="url(#paint32_radial_2012_21288)"/>
<defs>
<filter id="filter0_f_2012_21288" x="2.26956" y="4.09198" width="40.2338" height="30.5371" filterUnits="userSpaceOnUse" color-interpolation-filters="sRGB">
<feFlood flood-opacity="0" result="BackgroundImageFix"/>
<feBlend mode="normal" in="SourceGraphic" in2="BackgroundImageFix" result="shape"/>
<feGaussianBlur stdDeviation="4" result="effect1_foregroundBlur_2012_21288"/>
</filter>
<filter id="filter1_f_2012_21288" x="1.4646" y="18.7944" width="42.0899" height="25.427" filterUnits="userSpaceOnUse" color-interpolation-filters="sRGB">
<feFlood flood-opacity="0" result="BackgroundImageFix"/>
<feBlend mode="normal" in="SourceGraphic" in2="BackgroundImageFix" result="shape"/>
<feGaussianBlur stdDeviation="4" result="effect1_foregroundBlur_2012_21288"/>
</filter>
<filter id="filter2_f_2012_21288" x="173.27" y="4.09198" width="40.2338" height="30.5371" filterUnits="userSpaceOnUse" color-interpolation-filters="sRGB">
<feFlood flood-opacity="0" result="BackgroundImageFix"/>
<feBlend mode="normal" in="SourceGraphic" in2="BackgroundImageFix" result="shape"/>
<feGaussianBlur stdDeviation="4" result="effect1_foregroundBlur_2012_21288"/>
</filter>
<filter id="filter3_f_2012_21288" x="172.465" y="18.7944" width="42.0899" height="25.427" filterUnits="userSpaceOnUse" color-interpolation-filters="sRGB">
<feFlood flood-opacity="0" result="BackgroundImageFix"/>
<feBlend mode="normal" in="SourceGraphic" in2="BackgroundImageFix" result="shape"/>
<feGaussianBlur stdDeviation="4" result="effect1_foregroundBlur_2012_21288"/>
</filter>
<radialGradient id="paint0_radial_2012_21288" cx="0" cy="0" r="1" gradientUnits="userSpaceOnUse" gradientTransform="translate(105.938 30.3859) scale(98.3808 42.1632)">
<stop/>
<stop offset="0.84" stop-opacity="0.2"/>
</radialGradient>
<radialGradient id="paint1_radial_2012_21288" cx="0" cy="0" r="1" gradientUnits="userSpaceOnUse" gradientTransform="translate(105.938 28.2637) scale(98.3808 42.1632)">
<stop stop-color="#F76F06"/>
<stop offset="0.98" stop-color="#D33501"/>
</radialGradient>
<radialGradient id="paint2_radial_2012_21288" cx="0" cy="0" r="1" gradientUnits="userSpaceOnUse" gradientTransform="translate(105.948 25.6492) scale(98.3668 42.5574)">
<stop stop-color="#F76F06"/>
<stop offset="0.98" stop-color="#D33501"/>
</radialGradient>
<linearGradient id="paint3_linear_2012_21288" x1="108.411" y1="50.4775" x2="108.411" y2="38.5825" gradientUnits="userSpaceOnUse">
<stop/>
<stop offset="1" stop-opacity="0"/>
</linearGradient>
<radialGradient id="paint4_radial_2012_21288" cx="0" cy="0" r="1" gradientUnits="userSpaceOnUse" gradientTransform="translate(106.77 10.9891) scale(101.795 43.6266)">
<stop stop-color="white"/>
<stop offset="1" stop-color="white" stop-opacity="0"/>
</radialGradient>
<radialGradient id="paint5_radial_2012_21288" cx="0" cy="0" r="1" gradientUnits="userSpaceOnUse" gradientTransform="translate(22.8688 24.4791) rotate(-0.25) scale(20.0187)">
<stop/>
<stop offset="0.84" stop-opacity="0.2"/>
</radialGradient>
<radialGradient id="paint6_radial_2012_21288" cx="0" cy="0" r="1" gradientUnits="userSpaceOnUse" gradientTransform="translate(23.3352 24.3612) scale(17.9876 15.1096)">
<stop stop-color="#1B56FD"/>
<stop offset="1" stop-color="#001B83"/>
</radialGradient>
<radialGradient id="paint7_radial_2012_21288" cx="0" cy="0" r="1" gradientUnits="userSpaceOnUse" gradientTransform="translate(22.6748 23.2781) scale(17.1482 15.6049)">
<stop stop-color="#1B56FD"/>
<stop offset="1" stop-color="#001B83"/>
</radialGradient>
<linearGradient id="paint8_linear_2012_21288" x1="22.3859" y1="26.6291" x2="22.3859" y2="12.0919" gradientUnits="userSpaceOnUse">
<stop stop-color="white" stop-opacity="0"/>
<stop offset="1" stop-color="white"/>
</linearGradient>
<linearGradient id="paint9_linear_2012_21288" x1="22.5105" y1="36.2204" x2="22.5105" y2="26.7933" gradientUnits="userSpaceOnUse">
<stop/>
<stop offset="0.09" stop-color="#0C0C0C"/>
<stop offset="0.24" stop-color="#2C2C2C"/>
<stop offset="0.46" stop-color="#616161"/>
<stop offset="0.71" stop-color="#AAAAAA"/>
<stop offset="0.98" stop-color="white"/>
</linearGradient>
<radialGradient id="paint10_radial_2012_21288" cx="0" cy="0" r="1" gradientUnits="userSpaceOnUse" gradientTransform="translate(22.4629 18.7539) scale(15.1284)">
<stop stop-color="white"/>
<stop offset="1" stop-color="white" stop-opacity="0"/>
</radialGradient>
<radialGradient id="paint11_radial_2012_21288" cx="0" cy="0" r="1" gradientUnits="userSpaceOnUse" gradientTransform="translate(20.774 10.7645) rotate(-147.14) scale(0.42593 1.07842)">
<stop offset="0.51" stop-color="white"/>
<stop offset="1" stop-color="white" stop-opacity="0"/>
</radialGradient>
<radialGradient id="paint12_radial_2012_21288" cx="0" cy="0" r="1" gradientUnits="userSpaceOnUse" gradientTransform="translate(22.3041 11.7022) rotate(-147.14) scale(0.228937 0.57965)">
<stop offset="0.51" stop-color="white"/>
<stop offset="1" stop-color="white" stop-opacity="0"/>
</radialGradient>
<radialGradient id="paint13_radial_2012_21288" cx="0" cy="0" r="1" gradientUnits="userSpaceOnUse" gradientTransform="translate(26.4167 12.6095) rotate(-122.24) scale(0.42593 1.07842)">
<stop offset="0.51" stop-color="white"/>
<stop offset="1" stop-color="white" stop-opacity="0"/>
</radialGradient>
<radialGradient id="paint14_radial_2012_21288" cx="0" cy="0" r="1" gradientUnits="userSpaceOnUse" gradientTransform="translate(27.4094 14.1043) rotate(-122.24) scale(0.228937 0.579649)">
<stop offset="0.51" stop-color="white"/>
<stop offset="1" stop-color="white" stop-opacity="0"/>
</radialGradient>
<radialGradient id="paint15_radial_2012_21288" cx="0" cy="0" r="1" gradientUnits="userSpaceOnUse" gradientTransform="translate(19.3731 14.0473) rotate(-32.93) scale(1.64321 1.23914)">
<stop offset="0.51" stop-color="white"/>
<stop offset="1" stop-color="white" stop-opacity="0"/>
</radialGradient>
<radialGradient id="paint16_radial_2012_21288" cx="0" cy="0" r="1" gradientUnits="userSpaceOnUse" gradientTransform="translate(18.3348 14.6437) rotate(-44.74) scale(0.42593 1.07842)">
<stop offset="0.51" stop-color="white"/>
<stop offset="1" stop-color="white" stop-opacity="0"/>
</radialGradient>
<radialGradient id="paint17_radial_2012_21288" cx="0" cy="0" r="1" gradientUnits="userSpaceOnUse" gradientTransform="translate(16.9295 16.2424) rotate(-44.74) scale(0.228937 0.579649)">
<stop offset="0.51" stop-color="white"/>
<stop offset="1" stop-color="white" stop-opacity="0"/>
</radialGradient>
<radialGradient id="paint18_radial_2012_21288" cx="0" cy="0" r="1" gradientUnits="userSpaceOnUse" gradientTransform="translate(35.5631 29.1414) rotate(-91.25) scale(1.65913 0.649225)">
<stop stop-color="white"/>
<stop offset="1" stop-color="white" stop-opacity="0"/>
</radialGradient>
<radialGradient id="paint19_radial_2012_21288" cx="0" cy="0" r="1" gradientUnits="userSpaceOnUse" gradientTransform="translate(193.869 24.4791) rotate(-0.25) scale(20.0187)">
<stop/>
<stop offset="0.84" stop-opacity="0.2"/>
</radialGradient>
<radialGradient id="paint20_radial_2012_21288" cx="0" cy="0" r="1" gradientUnits="userSpaceOnUse" gradientTransform="translate(194.335 24.3612) scale(17.9876 15.1096)">
<stop stop-color="#1B56FD"/>
<stop offset="1" stop-color="#001B83"/>
</radialGradient>
<radialGradient id="paint21_radial_2012_21288" cx="0" cy="0" r="1" gradientUnits="userSpaceOnUse" gradientTransform="translate(193.675 23.2781) scale(17.1482 15.6049)">
<stop stop-color="#1B56FD"/>
<stop offset="1" stop-color="#001B83"/>
</radialGradient>
<linearGradient id="paint22_linear_2012_21288" x1="193.386" y1="26.6291" x2="193.386" y2="12.0919" gradientUnits="userSpaceOnUse">
<stop stop-color="white" stop-opacity="0"/>
<stop offset="1" stop-color="white"/>
</linearGradient>
<linearGradient id="paint23_linear_2012_21288" x1="193.511" y1="36.2204" x2="193.511" y2="26.7933" gradientUnits="userSpaceOnUse">
<stop/>
<stop offset="0.09" stop-color="#0C0C0C"/>
<stop offset="0.24" stop-color="#2C2C2C"/>
<stop offset="0.46" stop-color="#616161"/>
<stop offset="0.71" stop-color="#AAAAAA"/>
<stop offset="0.98" stop-color="white"/>
</linearGradient>
<radialGradient id="paint24_radial_2012_21288" cx="0" cy="0" r="1" gradientUnits="userSpaceOnUse" gradientTransform="translate(193.463 18.7539) scale(15.1284)">
<stop stop-color="white"/>
<stop offset="1" stop-color="white" stop-opacity="0"/>
</radialGradient>
<radialGradient id="paint25_radial_2012_21288" cx="0" cy="0" r="1" gradientUnits="userSpaceOnUse" gradientTransform="translate(191.774 10.7645) rotate(-147.14) scale(0.42593 1.07842)">
<stop offset="0.51" stop-color="white"/>
<stop offset="1" stop-color="white" stop-opacity="0"/>
</radialGradient>
<radialGradient id="paint26_radial_2012_21288" cx="0" cy="0" r="1" gradientUnits="userSpaceOnUse" gradientTransform="translate(193.304 11.7022) rotate(-147.14) scale(0.228937 0.57965)">
<stop offset="0.51" stop-color="white"/>
<stop offset="1" stop-color="white" stop-opacity="0"/>
</radialGradient>
<radialGradient id="paint27_radial_2012_21288" cx="0" cy="0" r="1" gradientUnits="userSpaceOnUse" gradientTransform="translate(197.417 12.6095) rotate(-122.24) scale(0.42593 1.07842)">
<stop offset="0.51" stop-color="white"/>
<stop offset="1" stop-color="white" stop-opacity="0"/>
</radialGradient>
<radialGradient id="paint28_radial_2012_21288" cx="0" cy="0" r="1" gradientUnits="userSpaceOnUse" gradientTransform="translate(198.409 14.1043) rotate(-122.24) scale(0.228937 0.579649)">
<stop offset="0.51" stop-color="white"/>
<stop offset="1" stop-color="white" stop-opacity="0"/>
</radialGradient>
<radialGradient id="paint29_radial_2012_21288" cx="0" cy="0" r="1" gradientUnits="userSpaceOnUse" gradientTransform="translate(190.373 14.0473) rotate(-32.93) scale(1.64321 1.23914)">
<stop offset="0.51" stop-color="white"/>
<stop offset="1" stop-color="white" stop-opacity="0"/>
</radialGradient>
<radialGradient id="paint30_radial_2012_21288" cx="0" cy="0" r="1" gradientUnits="userSpaceOnUse" gradientTransform="translate(189.335 14.6437) rotate(-44.74) scale(0.42593 1.07842)">
<stop offset="0.51" stop-color="white"/>
<stop offset="1" stop-color="white" stop-opacity="0"/>
</radialGradient>
<radialGradient id="paint31_radial_2012_21288" cx="0" cy="0" r="1" gradientUnits="userSpaceOnUse" gradientTransform="translate(187.929 16.2424) rotate(-44.74) scale(0.228937 0.579649)">
<stop offset="0.51" stop-color="white"/>
<stop offset="1" stop-color="white" stop-opacity="0"/>
</radialGradient>
<radialGradient id="paint32_radial_2012_21288" cx="0" cy="0" r="1" gradientUnits="userSpaceOnUse" gradientTransform="translate(206.563 29.1414) rotate(-91.25) scale(1.65913 0.649225)">
<stop stop-color="white"/>
<stop offset="1" stop-color="white" stop-opacity="0"/>
</radialGradient>
</defs>
</svg>
