<svg width="215" height="56" viewBox="0 0 215 56" fill="none" xmlns="http://www.w3.org/2000/svg">
<path d="M214.031 31.1725C214.031 32.3725 213.981 33.5725 213.921 34.7825C213.801 37.1525 213.581 39.5225 213.261 41.8925C213.081 43.2225 212.881 44.5525 212.641 45.8825C212.221 48.2125 209.741 50.2825 205.991 51.7725C202.491 53.3725 197.651 54.4325 192.181 54.6125C167.911 55.4025 46.141 55.4025 21.861 54.6125C16.391 54.4325 11.551 53.3725 8.05098 51.7725C4.30098 50.2825 1.82098 48.2125 1.40098 45.8825C1.24098 45.0025 1.10098 44.1225 0.970981 43.2425C0.580981 40.6525 0.31098 38.0525 0.16098 35.4625C0.0709798 33.9925 0.0209802 32.5125 0.0109802 31.0425C-0.00901983 29.9925 0.0109809 28.9425 0.0409809 27.8925V27.8525C0.0909809 26.3425 0.170981 24.8225 0.290981 23.3125C0.390981 22.1025 0.51098 20.8925 0.66098 19.6925C0.86098 18.0625 1.11098 16.4325 1.40098 14.8025C1.62098 13.5725 2.41098 12.4225 3.66098 11.3825C4.78098 10.4525 6.27098 9.61248 8.04098 8.91248C11.541 7.31248 16.381 6.25248 21.851 6.07248C46.131 5.28248 167.901 5.28248 192.171 6.07248C197.641 6.25248 202.481 7.31248 205.981 8.91248C208.241 9.81248 210.041 10.9125 211.201 12.1725C211.971 12.9925 212.471 13.8825 212.631 14.8125C212.941 16.5325 213.201 18.2425 213.401 19.9625C213.561 21.2525 213.691 22.5425 213.781 23.8325C213.881 25.1425 213.951 26.4425 213.991 27.7525C214.031 28.9025 214.041 30.0425 214.031 31.1825V31.1725Z" fill="url(#paint0_radial_2012_20697)"/>
<path d="M213.931 32.5525C213.871 33.8025 213.781 35.0625 213.661 36.3125C213.461 38.4525 213.181 40.5925 212.821 42.7325C212.761 43.0725 212.701 43.4125 212.641 43.7525C212.221 46.0825 209.741 48.1525 205.991 49.6425C202.491 51.2425 197.651 52.3025 192.181 52.4825C167.911 53.2725 46.141 53.2725 21.861 52.4825C16.391 52.3025 11.551 51.2425 8.05095 49.6425C4.49095 48.2225 2.08096 46.2925 1.48096 44.1025C1.44096 43.9825 1.42096 43.8725 1.40096 43.7525C1.00096 41.5225 0.690955 39.2925 0.460955 37.0625C0.310955 35.5925 0.190954 34.1125 0.120954 32.6425C0.0109544 30.7225 -0.0190443 28.8025 0.0109557 26.8725V26.8425C0.0209557 26.3725 0.0309547 25.8925 0.0509547 25.4225C0.0909547 24.0825 0.170956 22.7525 0.270956 21.4125C0.460956 18.9625 0.760955 16.5025 1.16096 14.0525C1.24096 13.5925 1.31096 13.1225 1.40096 12.6625C1.82096 10.3325 4.30095 8.26246 8.05095 6.77246C11.551 5.17246 16.391 4.11247 21.861 3.93247C46.141 3.14247 167.911 3.14247 192.181 3.93247C197.651 4.11247 202.491 5.17246 205.991 6.77246C209.741 8.26246 212.221 10.3325 212.641 12.6625C212.751 13.2725 212.851 13.8825 212.951 14.4925C213.321 16.8125 213.591 19.1325 213.781 21.4525C213.891 22.8925 213.971 24.3325 214.011 25.7725C214.011 26.0025 214.031 26.2325 214.031 26.4725V26.5525C214.071 28.5525 214.031 30.5525 213.931 32.5425V32.5525Z" fill="url(#paint1_radial_2012_20697)"/>
<g style="mix-blend-mode:hard-light" opacity="0.2">
<path d="M212.641 10.7425C212.221 8.37246 209.741 6.26246 205.991 4.74246C202.491 3.11246 197.651 2.03246 192.181 1.85246C167.911 1.04246 46.1309 1.04246 21.8609 1.85246C16.3909 2.03246 11.5509 3.11246 8.05093 4.74246C4.31093 6.26246 1.82093 8.36246 1.40093 10.7425C-0.449072 21.2825 -0.449072 31.8325 1.40093 42.3725C1.82093 44.7425 4.30093 46.8525 8.05093 48.3725C11.5509 50.0025 16.3909 51.0825 21.8609 51.2625C46.1309 52.0725 167.911 52.0725 192.181 51.2625C197.651 51.0825 202.491 50.0025 205.991 48.3725C209.731 46.8525 212.221 44.7525 212.641 42.3725C214.491 31.8325 214.491 21.2825 212.641 10.7425Z" fill="white"/>
</g>
<path d="M213.511 35.2325C213.291 37.2525 213.001 39.2625 212.651 41.2825C212.231 43.6425 209.751 45.7225 206.001 47.2325C202.501 48.8425 197.661 49.9125 192.191 50.0925C167.921 50.8925 46.141 50.8925 21.871 50.0925C16.401 49.9125 11.561 48.8425 8.06096 47.2325C4.31096 45.7225 1.83096 43.6425 1.41096 41.2825C1.08096 39.4225 0.810959 37.5525 0.600959 35.6825C-0.379041 27.0925 -0.10904 18.4925 1.41096 9.90248C1.83096 7.55248 4.31096 5.46248 8.06096 3.95248C11.561 2.34248 16.401 1.27248 21.871 1.09248C46.141 0.292477 167.921 0.292477 192.191 1.09248C197.661 1.27248 202.501 2.34248 206.001 3.95248C209.751 5.46248 212.231 7.54248 212.651 9.90248C214.141 18.3425 214.441 26.7925 213.511 35.2325Z" fill="url(#paint2_radial_2012_20697)"/>
<g style="mix-blend-mode:soft-light" opacity="0.75">
<path d="M213.511 35.2324C213.291 37.2524 213.001 39.2624 212.651 41.2824C212.231 43.6424 209.751 45.7224 206.001 47.2324C202.501 48.8424 197.661 49.9124 192.191 50.0924C167.921 50.8924 46.141 50.8924 21.871 50.0924C16.401 49.9124 11.561 48.8424 8.06096 47.2324C4.31096 45.7224 1.83096 43.6424 1.41096 41.2824C1.08096 39.4224 0.810959 37.5524 0.600959 35.6824C-0.379041 27.0924 -0.10904 18.4924 1.41096 9.90243C1.83096 7.55243 4.31096 5.46243 8.06096 3.95243C11.561 2.34243 16.401 1.27243 21.871 1.09243C46.141 0.292432 167.921 0.292432 192.191 1.09243C197.661 1.27243 202.501 2.34243 206.001 3.95243C209.751 5.46243 212.231 7.54243 212.651 9.90243C214.141 18.3424 214.441 26.7924 213.511 35.2324Z" fill="url(#paint3_linear_2012_20697)"/>
</g>
<path style="mix-blend-mode:overlay" opacity="0.6" d="M214.031 25.7925C214.031 26.0225 214.031 26.2525 214.031 26.4825V26.5625C214.031 26.9525 214.011 27.3425 214.001 27.7425C213.971 28.8625 213.921 29.9725 213.841 31.0825C213.811 31.5425 213.771 31.9925 213.741 32.4525C213.681 33.1625 213.611 33.8825 213.531 34.6025C213.521 34.7025 213.511 34.8025 213.501 34.9025C212.681 35.0225 211.871 35.1525 211.061 35.2625C206.771 35.8925 202.481 36.4425 198.191 36.9325C196.681 37.1025 195.161 37.2625 193.651 37.4225C167.891 40.0425 44.591 40.1425 18.771 37.5825C17.401 37.4525 16.031 37.3025 14.651 37.1525C10.781 36.7325 6.91098 36.2425 3.04098 35.6925C2.22098 35.5825 1.41097 35.4625 0.600975 35.3425C0.600975 35.3025 0.600978 35.2525 0.580978 35.2125C0.480978 34.3125 0.390976 33.4225 0.320976 32.5225C0.270976 31.9925 0.240977 31.4625 0.200977 30.9425C0.130977 29.9225 0.0809758 28.9125 0.0509758 27.8925V27.8525C0.0509758 27.5325 0.030977 27.2025 0.020977 26.8825V26.8525C0.020977 26.3825 0.000976562 25.9225 0.000976562 25.4525C0.000976562 24.7725 0.00097725 24.0925 0.0309772 23.4125C0.0509772 22.7825 0.070975 22.1525 0.100975 21.5225C0.120975 20.9825 0.150975 20.4525 0.190975 19.9125C0.310975 18.0125 0.490978 16.1125 0.740978 14.2125C0.830978 13.5325 0.920977 12.8625 1.02098 12.1825C1.14098 11.3925 1.27098 10.5925 1.41098 9.79247C1.83098 7.46247 4.31098 5.39247 8.06098 3.90247C11.561 2.30247 16.401 1.24247 21.871 1.06247C46.151 0.272471 167.921 0.272471 192.191 1.06247C197.661 1.24247 202.511 2.30247 206.001 3.90247C209.751 5.39247 212.231 7.46247 212.651 9.79247C212.831 10.7725 212.991 11.7525 213.131 12.7225C213.221 13.3625 213.311 13.9925 213.381 14.6325C213.611 16.4625 213.781 18.2925 213.891 20.1225C213.921 20.5925 213.941 21.0525 213.961 21.5225C214.001 22.3125 214.021 23.0925 214.041 23.8825C214.041 24.5125 214.041 25.1425 214.041 25.7725L214.031 25.7925Z" fill="url(#paint4_radial_2012_20697)"/>
<g style="mix-blend-mode:soft-light" opacity="0.6">
<path d="M179.571 8.50247C179.601 11.5525 162.711 9.62247 102.221 9.62247C52.6109 9.62247 33.8309 11.6425 33.8009 8.59247C33.7709 5.54247 51.8909 3.03247 103.181 3.03247C162.001 3.03247 179.541 5.45247 179.571 8.50247Z" fill="white"/>
</g>
<path d="M85.9643 30.58V19.54C85.9643 18.68 86.6443 18 87.5043 18H95.3443C96.1243 18 96.7443 18.62 96.7443 19.4C96.7443 20.18 96.1243 20.8 95.3443 20.8H89.0443V23.78H94.4443C95.2243 23.78 95.8443 24.4 95.8443 25.18C95.8443 25.96 95.2243 26.58 94.4443 26.58H89.0443V30.58C89.0443 31.44 88.3643 32.12 87.5043 32.12C86.6443 32.12 85.9643 31.44 85.9643 30.58ZM96.8207 30.68C96.8207 30.46 96.9007 30.24 97.0007 30.02L101.881 19C102.221 18.24 102.841 17.78 103.681 17.78H103.861C104.701 17.78 105.301 18.24 105.641 19L110.521 30.02C110.621 30.24 110.681 30.44 110.681 30.64C110.681 31.46 110.041 32.12 109.221 32.12C108.501 32.12 108.021 31.7 107.741 31.06L106.801 28.86H100.641L99.6607 31.16C99.4007 31.76 98.8807 32.12 98.2407 32.12C97.4407 32.12 96.8207 31.48 96.8207 30.68ZM101.781 26.14H105.661L103.721 21.52L101.781 26.14ZM119.385 32.24C115.065 32.24 111.965 29.02 111.965 25.04V25C111.965 21.02 115.105 17.76 119.425 17.76C123.745 17.76 126.845 20.98 126.845 24.96V25C126.845 26.48 126.385 27.86 125.605 29.02L126.205 29.52C126.525 29.8 126.765 30.18 126.765 30.68C126.765 31.48 126.125 32.14 125.325 32.14C124.905 32.14 124.545 31.96 124.305 31.72L123.545 31.04C122.365 31.8 120.945 32.24 119.385 32.24ZM119.805 27.78C119.485 27.5 119.245 27.12 119.245 26.62C119.245 25.82 119.885 25.16 120.685 25.16C121.105 25.16 121.385 25.3 121.705 25.58L123.245 26.96C123.485 26.4 123.625 25.74 123.625 25.04V25C123.625 22.6 121.865 20.6 119.385 20.6C116.905 20.6 115.185 22.56 115.185 24.96V25C115.185 27.4 116.945 29.4 119.425 29.4C120.105 29.4 120.725 29.28 121.265 29.02L119.805 27.78Z" fill="white"/>
<path d="M17.7128 15.6036C13.5294 19.7349 10.4086 24.9083 8.37295 31.1455C7.38968 34.1599 9.1727 37.3339 12.4317 38.3501C19.2749 40.4842 26.1079 40.2973 32.9319 38.0113C35.9598 36.9975 37.6749 34.0522 36.9091 31.1931C35.3481 25.3626 31.9735 20.0974 26.8431 15.4393C24.3023 13.1318 20.1472 13.1987 17.7117 15.6036H17.7128Z" fill="url(#paint5_radial_2012_20697)"/>
<path d="M36.7064 33.231C36.6599 33.3499 36.6078 33.4666 36.5523 33.581C35.8806 34.9891 34.6062 36.1468 32.9251 36.7086C26.1012 38.9935 19.2693 39.1804 12.4261 37.0462C10.6612 36.4957 9.32906 35.313 8.63579 33.8642C8.57576 33.7419 8.52251 33.6173 8.47267 33.4915C8.14416 32.6555 8.02295 31.747 8.14416 30.8283C8.16908 30.6369 8.2042 30.4443 8.25064 30.2529C8.2835 30.1158 8.32314 29.9787 8.36732 29.8417C8.51232 29.3987 8.66185 28.9615 8.81817 28.5287C8.8986 28.3022 8.98243 28.0779 9.06739 27.8547C9.30754 27.217 9.56015 26.5917 9.82522 25.9788H9.82636C9.97249 25.6379 10.1231 25.3026 10.2772 24.9707C10.8323 23.7733 11.4361 22.6235 12.0885 21.5202C12.3015 21.1611 12.519 20.8076 12.7422 20.4587C13.1409 19.83 13.5578 19.2183 13.9916 18.6225C14.1468 18.4084 14.3054 18.1954 14.4651 17.9859H14.4663C15.1924 17.0309 15.9638 16.1202 16.7783 15.2513C17.0638 14.9477 17.3549 14.6487 17.6505 14.3553C17.6687 14.336 17.6879 14.3179 17.7061 14.2998C20.1404 11.8948 24.2955 11.8291 26.8375 14.1355C26.9372 14.2261 27.0369 14.3179 27.1354 14.4085C27.4662 14.7155 27.7902 15.0247 28.1062 15.3363C29.0578 16.2731 29.9413 17.2348 30.7558 18.2181C30.9405 18.4424 31.1228 18.6667 31.3007 18.8932C31.8229 19.5559 32.3157 20.2299 32.7756 20.913C33.035 21.297 33.2842 21.6856 33.5232 22.0764C34.3015 23.3428 34.9766 24.6433 35.5475 25.9777H35.5487C35.7129 26.3617 35.8692 26.7491 36.0165 27.1377C36.1083 27.3824 36.1977 27.627 36.2827 27.874C36.4175 28.2569 36.5421 28.642 36.6588 29.0306H36.6599C36.7449 29.316 36.8264 29.6015 36.9035 29.8892C36.9443 30.0399 36.9771 30.1906 37.0032 30.3424C37.0134 30.3979 37.0224 30.4545 37.0303 30.5111V30.5134C37.1652 31.4502 37.0439 32.3791 36.7064 33.231Z" fill="url(#paint6_radial_2012_20697)"/>
<g style="mix-blend-mode:hard-light" opacity="0.2">
<path d="M37.0768 30.1226C37.1368 32.5502 35.509 34.8271 32.9217 35.6937C26.0989 37.9785 19.2659 38.1654 12.4227 36.0324C9.56807 35.142 7.8451 32.5943 8.1249 29.9504C8.13849 29.8122 8.15888 29.6751 8.1838 29.5358C8.22798 29.2991 8.28802 29.0623 8.36505 28.8278C10.3984 22.5895 13.5193 17.4161 17.7015 13.2848C20.1359 10.881 24.291 10.813 26.8341 13.1217C31.9634 17.7797 35.3379 23.0449 36.8989 28.8743C36.968 29.1314 37.0167 29.3897 37.0439 29.6457C37.0621 29.8054 37.0734 29.964 37.0768 30.1226Z" fill="white"/>
</g>
<path d="M37.0745 29.6876C37.0802 29.9255 37.07 30.1634 37.0439 30.3979C37.0405 30.4352 37.0349 30.4737 37.0303 30.5111V30.5134C36.9318 31.2542 36.6769 31.9668 36.2883 32.6113C36.2238 32.7178 36.1558 32.8232 36.0844 32.9262C35.3595 33.9695 34.2697 34.8078 32.9183 35.2598C26.0955 37.5446 19.2625 37.7315 12.4193 35.5974C10.9557 35.142 9.79009 34.2493 9.03905 33.1324C8.96655 33.0259 8.89858 32.9172 8.83401 32.8062C8.47945 32.1933 8.24383 31.5238 8.14414 30.8283C8.12828 30.7139 8.11582 30.5995 8.10676 30.4839C8.08184 30.1645 8.08637 29.8405 8.12035 29.5154C8.12148 29.5063 8.12262 29.4984 8.12375 29.4894C8.13734 29.3613 8.15547 29.2311 8.17926 29.1008C8.22344 28.8641 8.28347 28.6284 8.3605 28.3928C8.46245 28.0813 8.56667 27.7732 8.67542 27.4662C8.73546 27.294 8.79663 27.1241 8.8578 26.9542C9.01639 26.518 9.18064 26.0876 9.35056 25.6628C9.87278 24.3499 10.4494 23.0902 11.0792 21.8815C11.2786 21.4986 11.4825 21.1203 11.6932 20.7476C12.0534 20.1076 12.4295 19.4834 12.8226 18.874C12.9687 18.6451 13.1182 18.4197 13.27 18.1954C13.9384 17.2042 14.6509 16.2549 15.4065 15.3487C15.667 15.0349 15.9332 14.7268 16.204 14.4244C16.6854 13.884 17.1838 13.3584 17.6992 12.8498C20.1336 10.446 24.2887 10.378 26.8318 12.6867C27.499 13.2927 28.1368 13.9089 28.7451 14.5354C29.0543 14.856 29.3568 15.1777 29.6513 15.5028C30.5508 16.4951 31.3788 17.5123 32.1333 18.5545C32.3089 18.7969 32.4799 19.0405 32.6476 19.2863C33.1165 19.9716 33.5538 20.6672 33.9605 21.3729C34.1995 21.7875 34.4283 22.2055 34.6447 22.628C35.3447 23.9885 35.9327 25.3841 36.4073 26.816C36.4911 27.0686 36.5715 27.3223 36.6486 27.5772C36.7086 27.7732 36.7664 27.968 36.8208 28.1651C36.8468 28.2557 36.8717 28.3475 36.8967 28.4393C36.9658 28.6975 37.0145 28.9547 37.0417 29.2118C37.0541 29.324 37.0632 29.4372 37.0688 29.5483C37.0711 29.5947 37.0734 29.6411 37.0745 29.6876Z" fill="url(#paint7_radial_2012_20697)"/>
<g style="mix-blend-mode:overlay" opacity="0.8" filter="url(#filter0_f_2012_20697)">
<path d="M17.9247 16.0205C20.3035 13.8602 24.3635 13.7991 26.8477 15.8732C30.0943 18.5851 32.6215 21.5281 34.4125 24.6886C32.771 20.6581 30.092 16.9584 26.4025 13.6076C24.1177 11.5335 20.3817 11.5935 18.1932 13.7549C14.6826 17.2235 12.0058 21.5111 10.1786 26.6291C12.1021 22.4989 14.6872 18.9635 17.9247 16.0205Z" fill="url(#paint8_linear_2012_20697)"/>
</g>
<g style="mix-blend-mode:soft-light" opacity="0.75" filter="url(#filter1_f_2012_20697)">
<path d="M35.4626 29.6174C35.5079 31.8014 34.033 33.8449 31.6994 34.6152C25.5495 36.6441 19.3984 36.7868 13.2463 34.8384C10.6805 34.0251 9.13988 31.7255 9.40269 29.3466C9.41628 29.2232 9.43327 29.0985 9.4582 28.9739C9.49784 28.761 9.55222 28.548 9.62358 28.3373C9.76971 27.8955 9.92264 27.4605 10.0812 27.0301C10.7416 28.1379 11.8405 29.0283 13.2463 29.4758C19.3973 31.4242 25.5495 31.2814 31.6994 29.2526C33.0746 28.7995 34.1531 27.9023 34.7965 26.7944C34.9868 27.354 35.1556 27.9204 35.3062 28.4936C35.3674 28.7259 35.4105 28.9569 35.4342 29.188C35.4501 29.3319 35.4592 29.4746 35.4614 29.6185L35.4626 29.6174Z" fill="url(#paint9_linear_2012_20697)"/>
</g>
<path style="mix-blend-mode:overlay" opacity="0.6" d="M36.6486 27.5772C36.5285 27.6803 36.4073 27.78 36.2827 27.874C36.1388 27.9839 35.9904 28.0881 35.8398 28.1844C35.6234 28.3248 35.3991 28.4528 35.1691 28.5661C34.2912 28.9977 33.4122 29.3851 32.5331 29.7284C25.7862 32.3712 19.0269 32.4312 12.2562 29.6842C11.8098 29.5041 11.3624 29.3104 10.9161 29.1053C10.3236 28.8312 9.77196 28.4698 9.26787 28.0337C9.1999 27.9748 9.13306 27.9148 9.06736 27.8547C8.93369 27.7301 8.80229 27.601 8.67542 27.4662C8.88951 26.8545 9.11381 26.253 9.35056 25.6628C10.0382 23.9341 10.8198 22.2961 11.6932 20.7476C12.1882 19.8674 12.7138 19.0167 13.27 18.1954C14.1695 16.8621 15.1471 15.6059 16.2039 14.4244C16.6854 13.884 17.1838 13.3584 17.6992 12.8498C20.1336 10.446 24.2887 10.378 26.8318 12.6867C27.499 13.2927 28.1368 13.9089 28.7451 14.5354C30.0013 15.8324 31.1319 17.1714 32.1333 18.5545C32.7993 19.4755 33.4088 20.4146 33.9605 21.3729C34.9698 23.1253 35.7854 24.9401 36.4073 26.816C36.4911 27.0686 36.5715 27.3223 36.6486 27.5772Z" fill="url(#paint10_radial_2012_20697)"/>
<g style="mix-blend-mode:soft-light" opacity="0.6">
<path d="M27.704 15.8562C27.7108 17.2903 25.1224 16.3716 22.21 16.3841C19.2976 16.3966 17.1646 17.3368 17.1589 15.9027C17.1521 14.4685 19.5083 13.295 22.4196 13.2825C25.332 13.27 27.6972 14.4221 27.704 15.8562Z" fill="white"/>
</g>
<path d="M25.2451 13.7045C25.4052 13.4343 25.1996 13.0164 24.7857 12.7711C24.3719 12.5258 23.9066 12.5459 23.7464 12.8161C23.5863 13.0862 23.7919 13.5041 24.2058 13.7494C24.6196 13.9948 25.0849 13.9747 25.2451 13.7045Z" fill="url(#paint11_radial_2012_20697)"/>
<path d="M26.2989 14.3785C26.3851 14.2332 26.2747 14.0086 26.0525 13.8768C25.8302 13.745 25.5802 13.756 25.494 13.9013C25.4079 14.0466 25.5183 14.2712 25.7405 14.403C25.9628 14.5348 26.2128 14.5238 26.2989 14.3785Z" fill="url(#paint12_radial_2012_20697)"/>
<path d="M30.3414 19.0484C30.6005 18.8708 30.5899 18.4051 30.3178 18.0084C30.0457 17.6116 29.6151 17.4339 29.3561 17.6115C29.0971 17.7891 29.1077 18.2548 29.3798 18.6516C29.6519 19.0483 30.0824 19.226 30.3414 19.0484Z" fill="url(#paint13_radial_2012_20697)"/>
<path d="M31.0115 20.1033C31.1508 20.0077 31.1452 19.7575 30.9991 19.5444C30.853 19.3313 30.6216 19.236 30.4823 19.3316C30.343 19.4271 30.3485 19.6773 30.4946 19.8904C30.6408 20.1035 30.8721 20.1988 31.0115 20.1033Z" fill="url(#paint14_radial_2012_20697)"/>
<path d="M19.6143 14.9418C20.6323 14.2437 21.2043 13.3084 20.8919 12.8528C20.5795 12.3973 19.501 12.5938 18.483 13.2919C17.465 13.99 16.893 14.9252 17.2054 15.3808C17.5178 15.8364 18.5963 15.6398 19.6143 14.9418Z" fill="url(#paint15_radial_2012_20697)"/>
<path d="M16.9644 16.733C17.2929 16.3815 17.3732 15.9227 17.1437 15.7083C16.9143 15.4939 16.4619 15.605 16.1335 15.9565C15.805 16.308 15.7247 16.7668 15.9542 16.9812C16.1836 17.1957 16.636 17.0845 16.9644 16.733Z" fill="url(#paint16_radial_2012_20697)"/>
<path d="M15.4675 18.0215C15.6439 17.8327 15.6869 17.5862 15.5635 17.4708C15.4401 17.3555 15.197 17.4151 15.0206 17.6038C14.8442 17.7926 14.8012 18.0392 14.9246 18.1545C15.0481 18.2698 15.2911 18.2103 15.4675 18.0215Z" fill="url(#paint17_radial_2012_20697)"/>
<path d="M35.6676 29.1473C35.6676 30.0682 35.2451 30.8136 34.9992 30.8136C34.7534 30.8136 35.074 30.2676 35.074 29.3466C35.074 28.4257 34.7534 27.4798 34.9992 27.4798C35.2451 27.4798 35.6676 28.2263 35.6676 29.1461V29.1473Z" fill="url(#paint18_radial_2012_20697)"/>
<path d="M188.713 15.6036C184.529 19.7349 181.409 24.9083 179.373 31.1455C178.39 34.1599 180.173 37.3339 183.432 38.3501C190.275 40.4842 197.108 40.2973 203.932 38.0113C206.96 36.9975 208.675 34.0522 207.909 31.1931C206.348 25.3626 202.974 20.0974 197.843 15.4393C195.302 13.1318 191.147 13.1987 188.712 15.6036H188.713Z" fill="url(#paint19_radial_2012_20697)"/>
<path d="M207.706 33.231C207.66 33.3499 207.608 33.4666 207.552 33.581C206.881 34.9891 205.606 36.1468 203.925 36.7086C197.101 38.9935 190.269 39.1804 183.426 37.0462C181.661 36.4957 180.329 35.313 179.636 33.8642C179.576 33.7419 179.522 33.6173 179.473 33.4915C179.144 32.6555 179.023 31.747 179.144 30.8283C179.169 30.6369 179.204 30.4443 179.251 30.2529C179.283 30.1158 179.323 29.9787 179.367 29.8417C179.512 29.3987 179.662 28.9615 179.818 28.5287C179.899 28.3022 179.982 28.0779 180.067 27.8547C180.308 27.217 180.56 26.5917 180.825 25.9788H180.826C180.972 25.6379 181.123 25.3026 181.277 24.9707C181.832 23.7733 182.436 22.6235 183.089 21.5202C183.301 21.1611 183.519 20.8076 183.742 20.4587C184.141 19.83 184.558 19.2183 184.992 18.6225C185.147 18.4084 185.305 18.1954 185.465 17.9859H185.466C186.192 17.0309 186.964 16.1202 187.778 15.2513C188.064 14.9477 188.355 14.6487 188.651 14.3553C188.669 14.336 188.688 14.3179 188.706 14.2998C191.14 11.8948 195.295 11.8291 197.837 14.1355C197.937 14.2261 198.037 14.3179 198.135 14.4085C198.466 14.7155 198.79 15.0247 199.106 15.3363C200.058 16.2731 200.941 17.2348 201.756 18.2181C201.94 18.4424 202.123 18.6667 202.301 18.8932C202.823 19.5559 203.316 20.2299 203.776 20.913C204.035 21.297 204.284 21.6856 204.523 22.0764C205.301 23.3428 205.977 24.6433 206.547 25.9777H206.549C206.713 26.3617 206.869 26.7491 207.016 27.1377C207.108 27.3824 207.198 27.627 207.283 27.874C207.417 28.2569 207.542 28.642 207.659 29.0306H207.66C207.745 29.316 207.826 29.6015 207.903 29.8892C207.944 30.0399 207.977 30.1906 208.003 30.3424C208.013 30.3979 208.022 30.4545 208.03 30.5111V30.5134C208.165 31.4502 208.044 32.3791 207.706 33.231Z" fill="url(#paint20_radial_2012_20697)"/>
<g style="mix-blend-mode:hard-light" opacity="0.2">
<path d="M208.077 30.1226C208.137 32.5502 206.509 34.8271 203.922 35.6937C197.099 37.9785 190.266 38.1654 183.423 36.0324C180.568 35.142 178.845 32.5943 179.125 29.9504C179.138 29.8122 179.159 29.6751 179.184 29.5358C179.228 29.2991 179.288 29.0623 179.365 28.8278C181.398 22.5895 184.519 17.4161 188.701 13.2848C191.136 10.881 195.291 10.813 197.834 13.1217C202.963 17.7797 206.338 23.0449 207.899 28.8743C207.968 29.1314 208.017 29.3897 208.044 29.6457C208.062 29.8054 208.073 29.964 208.077 30.1226Z" fill="white"/>
</g>
<path d="M208.075 29.6876C208.08 29.9255 208.07 30.1634 208.044 30.3979C208.041 30.4352 208.035 30.4737 208.03 30.5111V30.5134C207.932 31.2542 207.677 31.9668 207.288 32.6113C207.224 32.7178 207.156 32.8232 207.084 32.9262C206.359 33.9695 205.27 34.8078 203.918 35.2598C197.095 37.5446 190.262 37.7315 183.419 35.5974C181.956 35.142 180.79 34.2493 180.039 33.1324C179.967 33.0259 179.899 32.9172 179.834 32.8062C179.479 32.1933 179.244 31.5238 179.144 30.8283C179.128 30.7139 179.116 30.5995 179.107 30.4839C179.082 30.1645 179.086 29.8405 179.12 29.5154C179.121 29.5063 179.123 29.4984 179.124 29.4894C179.137 29.3613 179.155 29.2311 179.179 29.1008C179.223 28.8641 179.283 28.6284 179.361 28.3928C179.462 28.0813 179.567 27.7732 179.675 27.4662C179.735 27.294 179.797 27.1241 179.858 26.9542C180.016 26.518 180.181 26.0876 180.351 25.6628C180.873 24.3499 181.449 23.0902 182.079 21.8815C182.279 21.4986 182.482 21.1203 182.693 20.7476C183.053 20.1076 183.429 19.4834 183.823 18.874C183.969 18.6451 184.118 18.4197 184.27 18.1954C184.938 17.2042 185.651 16.2549 186.406 15.3487C186.667 15.0349 186.933 14.7268 187.204 14.4244C187.685 13.884 188.184 13.3584 188.699 12.8498C191.134 10.446 195.289 10.378 197.832 12.6867C198.499 13.2927 199.137 13.9089 199.745 14.5354C200.054 14.856 200.357 15.1777 200.651 15.5028C201.551 16.4951 202.379 17.5123 203.133 18.5545C203.309 18.7969 203.48 19.0405 203.648 19.2863C204.117 19.9716 204.554 20.6672 204.96 21.3729C205.199 21.7875 205.428 22.2055 205.645 22.628C206.345 23.9885 206.933 25.3841 207.407 26.816C207.491 27.0686 207.572 27.3223 207.649 27.5772C207.709 27.7732 207.766 27.968 207.821 28.1651C207.847 28.2557 207.872 28.3475 207.897 28.4393C207.966 28.6975 208.014 28.9547 208.042 29.2118C208.054 29.324 208.063 29.4372 208.069 29.5483C208.071 29.5947 208.073 29.6411 208.075 29.6876Z" fill="url(#paint21_radial_2012_20697)"/>
<g style="mix-blend-mode:overlay" opacity="0.8" filter="url(#filter2_f_2012_20697)">
<path d="M188.925 16.0205C191.304 13.8602 195.363 13.7991 197.848 15.8732C201.094 18.5851 203.621 21.5281 205.412 24.6886C203.771 20.6581 201.092 16.9584 197.402 13.6076C195.118 11.5335 191.382 11.5935 189.193 13.7549C185.683 17.2235 183.006 21.5111 181.179 26.6291C183.102 22.4989 185.687 18.9635 188.925 16.0205Z" fill="url(#paint22_linear_2012_20697)"/>
</g>
<g style="mix-blend-mode:soft-light" opacity="0.75" filter="url(#filter3_f_2012_20697)">
<path d="M206.463 29.6174C206.508 31.8014 205.033 33.8449 202.699 34.6152C196.549 36.6441 190.398 36.7868 184.246 34.8384C181.68 34.0251 180.14 31.7255 180.403 29.3466C180.416 29.2232 180.433 29.0985 180.458 28.9739C180.498 28.761 180.552 28.548 180.624 28.3373C180.77 27.8955 180.923 27.4605 181.081 27.0301C181.742 28.1379 182.84 29.0283 184.246 29.4758C190.397 31.4242 196.549 31.2814 202.699 29.2526C204.075 28.7995 205.153 27.9023 205.796 26.7944C205.987 27.354 206.156 27.9204 206.306 28.4936C206.367 28.7259 206.41 28.9569 206.434 29.188C206.45 29.3319 206.459 29.4746 206.461 29.6185L206.463 29.6174Z" fill="url(#paint23_linear_2012_20697)"/>
</g>
<path style="mix-blend-mode:overlay" opacity="0.6" d="M207.649 27.5772C207.528 27.6803 207.407 27.78 207.283 27.874C207.139 27.9839 206.99 28.0881 206.84 28.1844C206.623 28.3248 206.399 28.4528 206.169 28.5661C205.291 28.9977 204.412 29.3851 203.533 29.7284C196.786 32.3712 190.027 32.4312 183.256 29.6842C182.81 29.5041 182.362 29.3104 181.916 29.1053C181.324 28.8312 180.772 28.4698 180.268 28.0337C180.2 27.9748 180.133 27.9148 180.067 27.8547C179.934 27.7301 179.802 27.601 179.675 27.4662C179.89 26.8545 180.114 26.253 180.351 25.6628C181.038 23.9341 181.82 22.2961 182.693 20.7476C183.188 19.8674 183.714 19.0167 184.27 18.1954C185.169 16.8621 186.147 15.6059 187.204 14.4244C187.685 13.884 188.184 13.3584 188.699 12.8498C191.134 10.446 195.289 10.378 197.832 12.6867C198.499 13.2927 199.137 13.9089 199.745 14.5354C201.001 15.8324 202.132 17.1714 203.133 18.5545C203.799 19.4755 204.409 20.4146 204.96 21.3729C205.97 23.1253 206.785 24.9401 207.407 26.816C207.491 27.0686 207.572 27.3223 207.649 27.5772Z" fill="url(#paint24_radial_2012_20697)"/>
<g style="mix-blend-mode:soft-light" opacity="0.6">
<path d="M198.704 15.8562C198.711 17.2903 196.122 16.3716 193.21 16.3841C190.298 16.3966 188.165 17.3368 188.159 15.9027C188.152 14.4685 190.508 13.295 193.42 13.2825C196.332 13.27 198.697 14.4221 198.704 15.8562Z" fill="white"/>
</g>
<path d="M196.245 13.7045C196.405 13.4343 196.2 13.0164 195.786 12.7711C195.372 12.5258 194.907 12.5459 194.746 12.8161C194.586 13.0862 194.792 13.5041 195.206 13.7494C195.62 13.9948 196.085 13.9747 196.245 13.7045Z" fill="url(#paint25_radial_2012_20697)"/>
<path d="M197.299 14.3785C197.385 14.2332 197.275 14.0086 197.052 13.8768C196.83 13.745 196.58 13.756 196.494 13.9013C196.408 14.0466 196.518 14.2712 196.74 14.403C196.963 14.5348 197.213 14.5238 197.299 14.3785Z" fill="url(#paint26_radial_2012_20697)"/>
<path d="M201.341 19.0484C201.6 18.8708 201.59 18.4051 201.318 18.0084C201.046 17.6116 200.615 17.4339 200.356 17.6115C200.097 17.7891 200.108 18.2548 200.38 18.6516C200.652 19.0483 201.082 19.226 201.341 19.0484Z" fill="url(#paint27_radial_2012_20697)"/>
<path d="M202.011 20.1033C202.151 20.0077 202.145 19.7575 201.999 19.5444C201.853 19.3313 201.622 19.236 201.482 19.3316C201.343 19.4271 201.349 19.6773 201.495 19.8904C201.641 20.1035 201.872 20.1988 202.011 20.1033Z" fill="url(#paint28_radial_2012_20697)"/>
<path d="M190.614 14.9418C191.632 14.2437 192.204 13.3084 191.892 12.8528C191.579 12.3973 190.501 12.5938 189.483 13.2919C188.465 13.99 187.893 14.9252 188.205 15.3808C188.518 15.8364 189.596 15.6398 190.614 14.9418Z" fill="url(#paint29_radial_2012_20697)"/>
<path d="M187.964 16.733C188.293 16.3815 188.373 15.9227 188.144 15.7083C187.914 15.4939 187.462 15.605 187.133 15.9565C186.805 16.308 186.725 16.7668 186.954 16.9812C187.184 17.1957 187.636 17.0845 187.964 16.733Z" fill="url(#paint30_radial_2012_20697)"/>
<path d="M186.468 18.0215C186.644 17.8327 186.687 17.5862 186.563 17.4708C186.44 17.3555 186.197 17.4151 186.021 17.6038C185.844 17.7926 185.801 18.0392 185.925 18.1545C186.048 18.2698 186.291 18.2103 186.468 18.0215Z" fill="url(#paint31_radial_2012_20697)"/>
<path d="M206.668 29.1473C206.668 30.0682 206.245 30.8136 205.999 30.8136C205.753 30.8136 206.074 30.2676 206.074 29.3466C206.074 28.4257 205.753 27.4798 205.999 27.4798C206.245 27.4798 206.668 28.2263 206.668 29.1461V29.1473Z" fill="url(#paint32_radial_2012_20697)"/>
<defs>
<filter id="filter0_f_2012_20697" x="2.17865" y="4.09198" width="40.2338" height="30.5371" filterUnits="userSpaceOnUse" color-interpolation-filters="sRGB">
<feFlood flood-opacity="0" result="BackgroundImageFix"/>
<feBlend mode="normal" in="SourceGraphic" in2="BackgroundImageFix" result="shape"/>
<feGaussianBlur stdDeviation="4" result="effect1_foregroundBlur_2012_20697"/>
</filter>
<filter id="filter1_f_2012_20697" x="1.37366" y="18.7944" width="42.0899" height="25.427" filterUnits="userSpaceOnUse" color-interpolation-filters="sRGB">
<feFlood flood-opacity="0" result="BackgroundImageFix"/>
<feBlend mode="normal" in="SourceGraphic" in2="BackgroundImageFix" result="shape"/>
<feGaussianBlur stdDeviation="4" result="effect1_foregroundBlur_2012_20697"/>
</filter>
<filter id="filter2_f_2012_20697" x="173.179" y="4.09198" width="40.2338" height="30.5371" filterUnits="userSpaceOnUse" color-interpolation-filters="sRGB">
<feFlood flood-opacity="0" result="BackgroundImageFix"/>
<feBlend mode="normal" in="SourceGraphic" in2="BackgroundImageFix" result="shape"/>
<feGaussianBlur stdDeviation="4" result="effect1_foregroundBlur_2012_20697"/>
</filter>
<filter id="filter3_f_2012_20697" x="172.374" y="18.7944" width="42.0899" height="25.427" filterUnits="userSpaceOnUse" color-interpolation-filters="sRGB">
<feFlood flood-opacity="0" result="BackgroundImageFix"/>
<feBlend mode="normal" in="SourceGraphic" in2="BackgroundImageFix" result="shape"/>
<feGaussianBlur stdDeviation="4" result="effect1_foregroundBlur_2012_20697"/>
</filter>
<radialGradient id="paint0_radial_2012_20697" cx="0" cy="0" r="1" gradientUnits="userSpaceOnUse" gradientTransform="translate(105.847 30.3859) scale(98.3808 42.1632)">
<stop/>
<stop offset="0.84" stop-opacity="0.2"/>
</radialGradient>
<radialGradient id="paint1_radial_2012_20697" cx="0" cy="0" r="1" gradientUnits="userSpaceOnUse" gradientTransform="translate(105.847 28.2637) scale(98.3808 42.1632)">
<stop stop-color="#F79D06"/>
<stop offset="0.98" stop-color="#D36101"/>
</radialGradient>
<radialGradient id="paint2_radial_2012_20697" cx="0" cy="0" r="1" gradientUnits="userSpaceOnUse" gradientTransform="translate(106.412 6.60153) rotate(-92.49) scale(43.9175 229.169)">
<stop stop-color="#F79D06"/>
<stop offset="0.98" stop-color="#D36101"/>
</radialGradient>
<linearGradient id="paint3_linear_2012_20697" x1="108.32" y1="50.4775" x2="108.32" y2="38.5825" gradientUnits="userSpaceOnUse">
<stop/>
<stop offset="1" stop-opacity="0"/>
</linearGradient>
<radialGradient id="paint4_radial_2012_20697" cx="0" cy="0" r="1" gradientUnits="userSpaceOnUse" gradientTransform="translate(106.679 10.9891) scale(101.795 43.6266)">
<stop stop-color="white"/>
<stop offset="1" stop-color="white" stop-opacity="0"/>
</radialGradient>
<radialGradient id="paint5_radial_2012_20697" cx="0" cy="0" r="1" gradientUnits="userSpaceOnUse" gradientTransform="translate(22.7778 24.4791) rotate(-0.25) scale(20.0187)">
<stop/>
<stop offset="0.84" stop-opacity="0.2"/>
</radialGradient>
<radialGradient id="paint6_radial_2012_20697" cx="0" cy="0" r="1" gradientUnits="userSpaceOnUse" gradientTransform="translate(23.2443 24.3612) scale(17.9876 15.1096)">
<stop stop-color="#1B56FD"/>
<stop offset="1" stop-color="#001B83"/>
</radialGradient>
<radialGradient id="paint7_radial_2012_20697" cx="0" cy="0" r="1" gradientUnits="userSpaceOnUse" gradientTransform="translate(22.5838 23.2781) scale(17.1482 15.6049)">
<stop stop-color="#1B56FD"/>
<stop offset="1" stop-color="#001B83"/>
</radialGradient>
<linearGradient id="paint8_linear_2012_20697" x1="22.295" y1="26.6291" x2="22.295" y2="12.0919" gradientUnits="userSpaceOnUse">
<stop stop-color="white" stop-opacity="0"/>
<stop offset="1" stop-color="white"/>
</linearGradient>
<linearGradient id="paint9_linear_2012_20697" x1="22.4196" y1="36.2204" x2="22.4196" y2="26.7933" gradientUnits="userSpaceOnUse">
<stop/>
<stop offset="0.09" stop-color="#0C0C0C"/>
<stop offset="0.24" stop-color="#2C2C2C"/>
<stop offset="0.46" stop-color="#616161"/>
<stop offset="0.71" stop-color="#AAAAAA"/>
<stop offset="0.98" stop-color="white"/>
</linearGradient>
<radialGradient id="paint10_radial_2012_20697" cx="0" cy="0" r="1" gradientUnits="userSpaceOnUse" gradientTransform="translate(22.372 18.7539) scale(15.1284)">
<stop stop-color="white"/>
<stop offset="1" stop-color="white" stop-opacity="0"/>
</radialGradient>
<radialGradient id="paint11_radial_2012_20697" cx="0" cy="0" r="1" gradientUnits="userSpaceOnUse" gradientTransform="translate(20.6831 10.7645) rotate(-147.14) scale(0.42593 1.07842)">
<stop offset="0.51" stop-color="white"/>
<stop offset="1" stop-color="white" stop-opacity="0"/>
</radialGradient>
<radialGradient id="paint12_radial_2012_20697" cx="0" cy="0" r="1" gradientUnits="userSpaceOnUse" gradientTransform="translate(22.2131 11.7022) rotate(-147.14) scale(0.228937 0.57965)">
<stop offset="0.51" stop-color="white"/>
<stop offset="1" stop-color="white" stop-opacity="0"/>
</radialGradient>
<radialGradient id="paint13_radial_2012_20697" cx="0" cy="0" r="1" gradientUnits="userSpaceOnUse" gradientTransform="translate(26.3258 12.6095) rotate(-122.24) scale(0.42593 1.07842)">
<stop offset="0.51" stop-color="white"/>
<stop offset="1" stop-color="white" stop-opacity="0"/>
</radialGradient>
<radialGradient id="paint14_radial_2012_20697" cx="0" cy="0" r="1" gradientUnits="userSpaceOnUse" gradientTransform="translate(27.3185 14.1043) rotate(-122.24) scale(0.228937 0.579649)">
<stop offset="0.51" stop-color="white"/>
<stop offset="1" stop-color="white" stop-opacity="0"/>
</radialGradient>
<radialGradient id="paint15_radial_2012_20697" cx="0" cy="0" r="1" gradientUnits="userSpaceOnUse" gradientTransform="translate(19.2821 14.0473) rotate(-32.93) scale(1.64321 1.23914)">
<stop offset="0.51" stop-color="white"/>
<stop offset="1" stop-color="white" stop-opacity="0"/>
</radialGradient>
<radialGradient id="paint16_radial_2012_20697" cx="0" cy="0" r="1" gradientUnits="userSpaceOnUse" gradientTransform="translate(18.2439 14.6437) rotate(-44.74) scale(0.42593 1.07842)">
<stop offset="0.51" stop-color="white"/>
<stop offset="1" stop-color="white" stop-opacity="0"/>
</radialGradient>
<radialGradient id="paint17_radial_2012_20697" cx="0" cy="0" r="1" gradientUnits="userSpaceOnUse" gradientTransform="translate(16.8385 16.2424) rotate(-44.74) scale(0.228937 0.579649)">
<stop offset="0.51" stop-color="white"/>
<stop offset="1" stop-color="white" stop-opacity="0"/>
</radialGradient>
<radialGradient id="paint18_radial_2012_20697" cx="0" cy="0" r="1" gradientUnits="userSpaceOnUse" gradientTransform="translate(35.4721 29.1414) rotate(-91.25) scale(1.65913 0.649225)">
<stop stop-color="white"/>
<stop offset="1" stop-color="white" stop-opacity="0"/>
</radialGradient>
<radialGradient id="paint19_radial_2012_20697" cx="0" cy="0" r="1" gradientUnits="userSpaceOnUse" gradientTransform="translate(193.778 24.4791) rotate(-0.25) scale(20.0187)">
<stop/>
<stop offset="0.84" stop-opacity="0.2"/>
</radialGradient>
<radialGradient id="paint20_radial_2012_20697" cx="0" cy="0" r="1" gradientUnits="userSpaceOnUse" gradientTransform="translate(194.244 24.3612) scale(17.9876 15.1096)">
<stop stop-color="#1B56FD"/>
<stop offset="1" stop-color="#001B83"/>
</radialGradient>
<radialGradient id="paint21_radial_2012_20697" cx="0" cy="0" r="1" gradientUnits="userSpaceOnUse" gradientTransform="translate(193.584 23.2781) scale(17.1482 15.6049)">
<stop stop-color="#1B56FD"/>
<stop offset="1" stop-color="#001B83"/>
</radialGradient>
<linearGradient id="paint22_linear_2012_20697" x1="193.295" y1="26.6291" x2="193.295" y2="12.0919" gradientUnits="userSpaceOnUse">
<stop stop-color="white" stop-opacity="0"/>
<stop offset="1" stop-color="white"/>
</linearGradient>
<linearGradient id="paint23_linear_2012_20697" x1="193.42" y1="36.2204" x2="193.42" y2="26.7933" gradientUnits="userSpaceOnUse">
<stop/>
<stop offset="0.09" stop-color="#0C0C0C"/>
<stop offset="0.24" stop-color="#2C2C2C"/>
<stop offset="0.46" stop-color="#616161"/>
<stop offset="0.71" stop-color="#AAAAAA"/>
<stop offset="0.98" stop-color="white"/>
</linearGradient>
<radialGradient id="paint24_radial_2012_20697" cx="0" cy="0" r="1" gradientUnits="userSpaceOnUse" gradientTransform="translate(193.372 18.7539) scale(15.1284)">
<stop stop-color="white"/>
<stop offset="1" stop-color="white" stop-opacity="0"/>
</radialGradient>
<radialGradient id="paint25_radial_2012_20697" cx="0" cy="0" r="1" gradientUnits="userSpaceOnUse" gradientTransform="translate(191.683 10.7645) rotate(-147.14) scale(0.42593 1.07842)">
<stop offset="0.51" stop-color="white"/>
<stop offset="1" stop-color="white" stop-opacity="0"/>
</radialGradient>
<radialGradient id="paint26_radial_2012_20697" cx="0" cy="0" r="1" gradientUnits="userSpaceOnUse" gradientTransform="translate(193.213 11.7022) rotate(-147.14) scale(0.228937 0.57965)">
<stop offset="0.51" stop-color="white"/>
<stop offset="1" stop-color="white" stop-opacity="0"/>
</radialGradient>
<radialGradient id="paint27_radial_2012_20697" cx="0" cy="0" r="1" gradientUnits="userSpaceOnUse" gradientTransform="translate(197.326 12.6095) rotate(-122.24) scale(0.42593 1.07842)">
<stop offset="0.51" stop-color="white"/>
<stop offset="1" stop-color="white" stop-opacity="0"/>
</radialGradient>
<radialGradient id="paint28_radial_2012_20697" cx="0" cy="0" r="1" gradientUnits="userSpaceOnUse" gradientTransform="translate(198.318 14.1043) rotate(-122.24) scale(0.228937 0.579649)">
<stop offset="0.51" stop-color="white"/>
<stop offset="1" stop-color="white" stop-opacity="0"/>
</radialGradient>
<radialGradient id="paint29_radial_2012_20697" cx="0" cy="0" r="1" gradientUnits="userSpaceOnUse" gradientTransform="translate(190.282 14.0473) rotate(-32.93) scale(1.64321 1.23914)">
<stop offset="0.51" stop-color="white"/>
<stop offset="1" stop-color="white" stop-opacity="0"/>
</radialGradient>
<radialGradient id="paint30_radial_2012_20697" cx="0" cy="0" r="1" gradientUnits="userSpaceOnUse" gradientTransform="translate(189.244 14.6437) rotate(-44.74) scale(0.42593 1.07842)">
<stop offset="0.51" stop-color="white"/>
<stop offset="1" stop-color="white" stop-opacity="0"/>
</radialGradient>
<radialGradient id="paint31_radial_2012_20697" cx="0" cy="0" r="1" gradientUnits="userSpaceOnUse" gradientTransform="translate(187.839 16.2424) rotate(-44.74) scale(0.228937 0.579649)">
<stop offset="0.51" stop-color="white"/>
<stop offset="1" stop-color="white" stop-opacity="0"/>
</radialGradient>
<radialGradient id="paint32_radial_2012_20697" cx="0" cy="0" r="1" gradientUnits="userSpaceOnUse" gradientTransform="translate(206.472 29.1414) rotate(-91.25) scale(1.65913 0.649225)">
<stop stop-color="white"/>
<stop offset="1" stop-color="white" stop-opacity="0"/>
</radialGradient>
</defs>
</svg>
