<svg width="217" height="97" viewBox="0 0 217 97" fill="none" xmlns="http://www.w3.org/2000/svg">
<path d="M216.13 54.0025C216.13 56.1125 216.09 58.2325 216.04 60.3525C215.95 64.5225 215.77 68.6925 215.53 72.8625C215.39 75.2025 215.23 77.5525 215.05 79.8925C214.72 84.0025 212.79 87.6325 209.87 90.2625C207.15 93.0725 203.38 94.9425 199.12 95.2525C180.22 96.6425 35.92 96.6425 17.02 95.2525C12.76 94.9425 8.99003 93.0725 6.27003 90.2625C3.35003 87.6325 1.42003 84.0025 1.09003 79.8925C0.970025 78.3425 0.860025 76.7925 0.750025 75.2425C0.450025 70.6725 0.240024 66.1125 0.120024 61.5525C0.050024 58.9625 0.0100272 56.3725 0.0100272 53.7725C2.71583e-05 51.9225 0.0100238 50.0825 0.0300238 48.2325V48.1625C0.0700238 45.5025 0.130025 42.8325 0.230025 40.1725C0.300025 38.0425 0.400027 35.9225 0.510027 33.7925C0.670027 30.9225 0.860027 28.0525 1.08003 25.1825C1.25003 23.0225 1.87003 20.9925 2.84003 19.1625C3.71003 17.5225 4.87002 16.0525 6.25002 14.8125C8.97003 12.0025 12.74 10.1325 17 9.8125C35.91 8.4225 180.2 8.4225 199.1 9.8125C203.36 10.1325 207.13 11.9925 209.85 14.8125C211.61 16.3925 213.01 18.3425 213.91 20.5425C214.51 21.9925 214.9 23.5525 215.03 25.1825C215.27 28.2025 215.47 31.2225 215.63 34.2525C215.75 36.5225 215.85 38.7925 215.93 41.0625C216.01 43.3625 216.06 45.6625 216.09 47.9525V47.9725C216.12 49.9825 216.13 51.9925 216.12 54.0025H216.13Z" fill="url(#paint0_radial_2012_20972)"/>
<path d="M216.05 56.4425C216 58.6525 215.93 60.8625 215.84 63.0625C215.68 66.8325 215.47 70.5925 215.19 74.3625C215.15 74.9625 215.1 75.5525 215.05 76.1525C214.72 80.2525 212.79 83.8925 209.87 86.5225C207.15 89.3325 203.38 91.2025 199.12 91.5225C180.22 92.9125 35.92 92.9125 17.02 91.5225C12.76 91.2025 8.99003 89.3425 6.27003 86.5225C3.50003 84.0325 1.62003 80.6225 1.16003 76.7725C1.13003 76.5725 1.11003 76.3625 1.10003 76.1525C0.790026 72.2325 0.550027 68.3025 0.370027 64.3825C0.250027 61.7825 0.160029 59.1925 0.110029 56.5925C0.0300286 53.2025 2.67718e-05 49.8225 0.0300268 46.4425V46.4025C0.0300268 45.5625 0.0500294 44.7325 0.0600294 43.9025C0.0900294 41.5525 0.150028 39.2025 0.230028 36.8525C0.380028 32.5325 0.61003 28.2125 0.92003 23.8925C0.98003 23.0825 1.04003 22.2625 1.10003 21.4525C1.42003 17.3425 3.36003 13.7025 6.28003 11.0825C9.00003 8.2725 12.77 6.4025 17.03 6.0925C35.94 4.7025 180.23 4.7025 199.13 6.0925C203.39 6.4025 207.16 8.2725 209.88 11.0825C212.8 13.7125 214.73 17.3425 215.06 21.4525C215.15 22.5225 215.22 23.6025 215.3 24.6725C215.59 28.7525 215.8 32.8325 215.94 36.9125C216.03 39.4525 216.08 41.9825 216.12 44.5225C216.12 44.9325 216.13 45.3425 216.14 45.7525V45.8925C216.17 49.4125 216.14 52.9225 216.07 56.4425H216.05Z" fill="url(#paint1_radial_2012_20972)"/>
<g style="mix-blend-mode:hard-light" opacity="0.2">
<path d="M215.05 18.7525C214.72 14.6425 212.79 11.0125 209.87 8.38247C207.15 5.57247 203.38 3.70248 199.12 3.39248C180.21 2.00248 35.92 2.00248 17.01 3.39248C12.75 3.70248 8.98 5.57247 6.26 8.38247C3.34 11.0125 1.41 14.6425 1.08 18.7525C-0.36 36.9825 -0.36 55.2225 1.08 73.4525C1.41 77.5625 3.34 81.1925 6.26 83.8225C8.98 86.6325 12.75 88.5025 17.01 88.8125C35.92 90.2025 180.21 90.2025 199.12 88.8125C203.38 88.5025 207.15 86.6325 209.87 83.8225C212.79 81.1925 214.72 77.5625 215.05 73.4525C216.49 55.2225 216.49 36.9825 215.05 18.7525Z" fill="white"/>
</g>
<path d="M215.73 60.5725C215.56 64.0825 215.34 67.6025 215.06 71.1125C214.74 75.2225 212.8 78.8625 209.88 81.4825C207.16 84.2925 203.39 86.1625 199.13 86.4725C180.22 87.8725 35.93 87.8725 17.02 86.4725C12.76 86.1625 8.99003 84.2925 6.27003 81.4825C3.35003 78.8525 1.42003 75.2225 1.09003 71.1125C0.830026 67.8625 0.620025 64.6125 0.460025 61.3525C-0.299975 46.3725 -0.0899736 31.3925 1.09003 16.4025C1.41003 12.3025 3.35003 8.6625 6.27003 6.0325C8.99003 3.2225 12.76 1.3525 17.02 1.0425C35.93 -0.3475 180.22 -0.3475 199.13 1.0425C203.39 1.3625 207.16 3.2225 209.88 6.0325C212.8 8.6625 214.73 12.3025 215.06 16.4025C216.22 31.1225 216.45 45.8425 215.73 60.5625V60.5725Z" fill="url(#paint2_radial_2012_20972)"/>
<g style="mix-blend-mode:soft-light" opacity="0.75">
<path d="M216.13 45.265C216.13 47.375 216.09 49.495 216.04 51.615C215.95 55.785 215.77 59.955 215.53 64.125C215.39 66.465 215.23 68.815 215.05 71.155C214.72 75.265 212.79 78.895 209.87 81.525C207.15 84.335 203.38 86.205 199.12 86.515C180.22 87.905 35.92 87.905 17.02 86.515C12.76 86.205 8.99003 84.335 6.27003 81.525C3.35003 78.895 1.42003 75.265 1.09003 71.155C0.970025 69.605 0.860025 68.055 0.750025 66.505C0.450025 61.935 0.240024 57.375 0.120024 52.815C0.050024 50.225 0.0100272 47.635 0.0100272 45.035C2.71583e-05 43.185 0.0100238 41.345 0.0300238 39.495V39.425C0.0700238 36.765 0.130025 34.095 0.230025 31.435C0.300025 29.305 0.400027 27.185 0.510027 25.055C0.670027 22.185 0.860027 19.315 1.08003 16.445C1.25003 14.285 1.87003 12.255 2.84003 10.425C3.71003 8.78497 4.87002 7.31497 6.25002 6.07497C8.97003 3.26497 12.74 1.39497 17 1.07497C35.91 -0.315029 180.2 -0.315029 199.1 1.07497C203.36 1.39497 207.13 3.25497 209.85 6.07497C211.61 7.65497 213.01 9.60497 213.91 11.805C214.51 13.255 214.9 14.815 215.03 16.445C215.27 19.465 215.47 22.485 215.63 25.515C215.75 27.785 215.85 30.055 215.93 32.325C216.01 34.625 216.06 36.925 216.09 39.215V39.235C216.12 41.245 216.13 43.255 216.12 45.265H216.13Z" fill="url(#paint3_linear_2012_20972)"/>
</g>
<g style="mix-blend-mode:overlay" opacity="0.5">
<path d="M216.13 45.265C216.13 47.375 216.09 49.495 216.04 51.615C215.95 55.785 215.77 59.955 215.53 64.125C215.39 66.465 215.23 68.815 215.05 71.155C214.72 75.265 212.79 78.895 209.87 81.525C207.15 84.335 203.38 86.205 199.12 86.515C180.22 87.905 35.92 87.905 17.02 86.515C12.76 86.205 8.99003 84.335 6.27003 81.525C3.35003 78.895 1.42003 75.265 1.09003 71.155C0.970025 69.605 0.860025 68.055 0.750025 66.505C0.450025 61.935 0.240024 57.375 0.120024 52.815C0.050024 50.225 0.0100272 47.635 0.0100272 45.035C2.71583e-05 43.185 0.0100238 41.345 0.0300238 39.495V39.425C0.0700238 36.765 0.130025 34.095 0.230025 31.435C0.300025 29.305 0.400027 27.185 0.510027 25.055C0.670027 22.185 0.860027 19.315 1.08003 16.445C1.25003 14.285 1.87003 12.255 2.84003 10.425C3.71003 8.78497 4.87002 7.31497 6.25002 6.07497C8.97003 3.26497 12.74 1.39497 17 1.07497C35.91 -0.315029 180.2 -0.315029 199.1 1.07497C203.36 1.39497 207.13 3.25497 209.85 6.07497C211.61 7.65497 213.01 9.60497 213.91 11.805C214.51 13.255 214.9 14.815 215.03 16.445C215.27 19.465 215.47 22.485 215.63 25.515C215.75 27.785 215.85 30.055 215.93 32.325C216.01 34.625 216.06 36.925 216.09 39.215V39.235C216.12 41.245 216.13 43.255 216.12 45.265H216.13Z" fill="url(#paint4_linear_2012_20972)"/>
</g>
<path style="mix-blend-mode:overlay" opacity="0.6" d="M216.13 44.5425C216.13 44.9425 216.13 45.3525 216.13 45.7525V45.8925C216.13 46.5825 216.12 47.2725 216.11 47.9625V47.9825C216.09 49.9425 216.05 51.8925 215.99 53.8525C215.97 54.6625 215.94 55.4625 215.91 56.2725C215.86 57.5325 215.81 58.7925 215.75 60.0525C215.75 60.2325 215.73 60.4025 215.73 60.5825C215.09 60.8025 214.46 61.0125 213.83 61.2225C210.49 62.3225 207.15 63.3025 203.81 64.1525C202.63 64.4525 201.45 64.7425 200.27 65.0125C180.2 69.6225 34.72 69.7925 14.61 65.3025C13.54 65.0625 12.47 64.8125 11.4 64.5425C8.39002 63.8025 5.37002 62.9425 2.36002 61.9825C1.72002 61.7825 1.09002 61.5725 0.460018 61.3625C0.460018 61.2825 0.46002 61.2125 0.45002 61.1325C0.37002 59.5525 0.300019 57.9725 0.250019 56.3925C0.210019 55.4625 0.190019 54.5325 0.160019 53.6025C0.110019 51.8125 0.0700183 50.0225 0.0500183 48.2325V48.1625C0.0500183 47.5925 0.0300179 47.0225 0.0300179 46.4525V46.4125C0.0300179 45.5925 0.0200195 44.7725 0.0200195 43.9525C0.0200195 42.7625 0.02002 41.5625 0.04002 40.3725C0.05002 39.2625 0.0700192 38.1525 0.0900192 37.0425C0.110019 36.1025 0.130019 35.1625 0.160019 34.2125C0.250019 30.8725 0.390019 27.5325 0.590019 24.1925C0.660019 23.0025 0.73002 21.8125 0.81002 20.6225C0.90002 19.2225 1.01002 17.8225 1.11002 16.4225C1.43002 12.3225 3.37002 8.68251 6.29002 6.05251C9.01002 3.24251 12.78 1.3725 17.04 1.0625C35.95 -0.327496 180.24 -0.327496 199.14 1.0625C203.4 1.3825 207.17 3.24251 209.9 6.05251C212.82 8.68251 214.75 12.3225 215.08 16.4225C215.22 18.1425 215.34 19.8725 215.45 21.5825C215.52 22.7025 215.59 23.8225 215.65 24.9425C215.83 28.1625 215.96 31.3825 216.04 34.6025C216.06 35.4225 216.08 36.2425 216.09 37.0625C216.12 38.4425 216.14 39.8325 216.15 41.2225C216.15 42.3325 216.15 43.4425 216.15 44.5425H216.13Z" fill="url(#paint5_radial_2012_20972)"/>
<g opacity="0.7">
<path d="M205.331 9.40335C205.847 8.62551 205.265 7.33176 204.032 6.51369C202.798 5.69561 201.38 5.663 200.864 6.44084C200.348 7.21868 200.93 8.51242 202.163 9.3305C203.397 10.1486 204.815 10.1812 205.331 9.40335Z" fill="white"/>
<path d="M208.226 14.3789C208.658 14.121 208.676 13.3586 208.268 12.6759C207.86 11.9933 207.18 11.649 206.749 11.9068C206.317 12.1647 206.298 12.9271 206.706 13.6097C207.114 14.2924 207.795 14.6367 208.226 14.3789Z" fill="white"/>
<path d="M181.314 4.77251C181.344 5.47251 21.3937 5.95251 16.5737 6.68251C6.78368 8.17251 8.95367 13.8925 7.55367 13.8125C6.15367 13.7325 5.09368 6.23251 16.4137 5.15251C26.4337 4.19251 181.294 4.07251 181.324 4.77251H181.314Z" fill="white"/>
<path d="M7.5706 19.6431C7.64987 18.0048 7.15514 16.6496 6.46559 16.6162C5.77604 16.5828 5.15279 17.8839 5.07352 19.5223C4.99425 21.1607 5.48898 22.5159 6.17853 22.5493C6.86808 22.5826 7.49133 21.2815 7.5706 19.6431Z" fill="white"/>
</g>
<g style="mix-blend-mode:soft-light" opacity="0.5">
<path d="M189.3 15.1925C189.33 21.3725 154.55 17.4325 107.44 17.4025C68.8 17.3725 26.35 21.4425 26.32 15.2625C26.29 9.08253 68.24 4.01253 108.18 4.03253C153.99 4.06253 189.28 9.00253 189.31 15.1825L189.3 15.1925Z" fill="white"/>
</g>
<path d="M101.16 60.1625C101.16 60.4225 100.55 60.6325 99.33 60.7925C98.13 60.9525 96.91 61.0325 95.67 61.0325C94.45 61.0325 93.66 60.9625 93.3 60.8225C92.96 60.6825 92.79 60.4625 92.79 60.1625V41.7125C92.79 41.2125 93.37 40.7625 94.53 40.3625C95.69 39.9425 96.95 39.7325 98.31 39.7325C100.21 39.7325 101.16 40.1825 101.16 41.0825V47.6825H103.83V41.7125C103.83 41.2125 104.41 40.7625 105.57 40.3625C106.75 39.9425 108.02 39.7325 109.38 39.7325C111.26 39.7325 112.2 40.1825 112.2 41.0825V60.1625C112.2 60.4225 111.59 60.6325 110.37 60.7925C109.15 60.9525 107.93 61.0325 106.71 61.0325C105.49 61.0325 104.7 60.9625 104.34 60.8225C104 60.6825 103.83 60.4625 103.83 60.1625V53.2925H101.16V60.1625ZM124.727 61.3025C123.067 61.3025 121.637 61.1525 120.437 60.8525C119.257 60.5325 118.167 59.9725 117.167 59.1725C115.147 57.5925 114.137 54.5625 114.137 50.0825C114.137 48.2025 114.407 46.5625 114.947 45.1625C115.507 43.7625 116.277 42.6525 117.257 41.8325C119.177 40.2325 121.667 39.4325 124.727 39.4325C126.307 39.4325 127.677 39.5725 128.837 39.8525C130.017 40.1325 131.127 40.6425 132.167 41.3825C134.267 42.9025 135.317 45.8025 135.317 50.0825C135.317 53.9225 134.367 56.7525 132.467 58.5725C130.567 60.3925 127.987 61.3025 124.727 61.3025ZM123.737 56.1725C123.977 56.4525 124.307 56.5925 124.727 56.5925C125.147 56.5925 125.477 56.4525 125.717 56.1725C125.957 55.8725 126.157 55.2525 126.317 54.3125C126.477 53.3525 126.557 52.0225 126.557 50.3225C126.557 48.6225 126.477 47.3125 126.317 46.3925C126.157 45.4725 125.957 44.8725 125.717 44.5925C125.477 44.3125 125.147 44.1725 124.727 44.1725C124.307 44.1725 123.977 44.3125 123.737 44.5925C123.497 44.8725 123.297 45.4725 123.137 46.3925C122.977 47.3125 122.897 48.6225 122.897 50.3225C122.897 52.0225 122.977 53.3525 123.137 54.3125C123.297 55.2525 123.497 55.8725 123.737 56.1725ZM141.883 61.0325C141.383 61.0325 140.653 61.0325 139.693 61.0325C138.753 61.0325 138.113 60.9625 137.773 60.8225C137.433 60.6825 137.263 60.4625 137.263 60.1625V41.2325C137.263 40.7725 137.873 40.4125 139.093 40.1525C140.333 39.8725 141.653 39.7325 143.053 39.7325C144.453 39.7325 145.453 39.9125 146.053 40.2725C146.653 40.6325 147.003 41.0125 147.103 41.4125L149.143 49.3325H149.413L151.333 41.7725C151.473 41.2325 152.123 40.7625 153.283 40.3625C154.463 39.9425 155.753 39.7325 157.153 39.7325C158.553 39.7325 159.583 39.8425 160.243 40.0625C160.923 40.2825 161.263 40.5625 161.263 40.9025V60.1625C161.263 60.4225 160.693 60.6325 159.553 60.7925C158.413 60.9525 157.023 61.0325 155.383 61.0325C153.743 61.0325 152.923 60.7425 152.923 60.1625C152.923 58.5825 153.093 55.7725 153.433 51.7325H153.163L151.603 59.5625C151.543 59.8625 151.293 60.0825 150.853 60.2225C150.433 60.3625 149.793 60.4325 148.933 60.4325C148.073 60.4325 147.543 60.3725 147.343 60.2525C147.163 60.1325 147.043 59.9025 146.983 59.5625L145.363 51.7325H145.093C145.453 55.8525 145.633 58.6625 145.633 60.1625C145.633 60.6825 144.383 60.9725 141.883 61.0325ZM178.869 61.0325H166.149C165.169 61.0325 164.509 60.9625 164.169 60.8225C163.829 60.6825 163.659 60.4625 163.659 60.1625V41.1725C163.659 40.6525 163.889 40.2825 164.349 40.0625C164.829 39.8425 165.679 39.7325 166.899 39.7325H178.959C179.379 39.7325 179.589 40.4325 179.589 41.8325C179.589 43.2125 179.499 44.2725 179.319 45.0125C179.139 45.7325 178.899 46.0925 178.599 46.0925C177.299 46.0925 175.109 45.9625 172.029 45.7025V47.7125C174.989 47.5925 176.919 47.5325 177.819 47.5325C178.359 47.5325 178.629 48.1625 178.629 49.4225C178.629 50.6825 178.519 51.6425 178.299 52.3025C178.099 52.9425 177.819 53.2625 177.459 53.2625L172.029 53.1425V55.0625C175.509 54.8025 177.909 54.6725 179.229 54.6725C179.649 54.6725 179.859 55.3725 179.859 56.7725C179.859 58.1725 179.769 59.2325 179.589 59.9525C179.409 60.6725 179.169 61.0325 178.869 61.0325Z" fill="#005E78"/>
<path d="M76.89 46.8825L53.81 23.8025L30.72 46.8825L33.24 49.4025L53.81 28.8325L74.38 49.4025L76.89 46.8825Z" stroke="#005E78" stroke-miterlimit="10"/>
<path d="M47.07 55.0425C47.07 51.4825 49.95 48.6025 53.51 48.6025C57.07 48.6025 59.95 51.4825 59.95 55.0425V68.6125H70.46L70.37 45.4925L53.85 28.8625L37.11 45.8125L37.2 68.6025H47.08V55.0325L47.07 55.0425Z" stroke="#005E78" stroke-miterlimit="10"/>
<defs>
<radialGradient id="paint0_radial_2012_20972" cx="0" cy="0" r="1" gradientUnits="userSpaceOnUse" gradientTransform="translate(108.807 52.7445) scale(95.4212 91.8204)">
<stop/>
<stop offset="0.84" stop-opacity="0.2"/>
</radialGradient>
<radialGradient id="paint1_radial_2012_20972" cx="0" cy="0" r="1" gradientUnits="userSpaceOnUse" gradientTransform="translate(108.807 49.0011) scale(95.4212 91.8204)">
<stop stop-color="#2CFCE5"/>
<stop offset="1" stop-color="#049CA8"/>
</radialGradient>
<radialGradient id="paint2_radial_2012_20972" cx="0" cy="0" r="1" gradientUnits="userSpaceOnUse" gradientTransform="translate(108.243 36.2695) rotate(-91.11) scale(92.6772 99.0374)">
<stop stop-color="#2CFCE5"/>
<stop offset="1" stop-color="#049CA8"/>
</radialGradient>
<linearGradient id="paint3_linear_2012_20972" x1="103.43" y1="87.0325" x2="103.43" y2="59.5325" gradientUnits="userSpaceOnUse">
<stop/>
<stop offset="0.84" stop-opacity="0"/>
</linearGradient>
<linearGradient id="paint4_linear_2012_20972" x1="103.93" y1="5.03247" x2="103.93" y2="26.0325" gradientUnits="userSpaceOnUse">
<stop stop-color="white"/>
<stop offset="1" stop-color="white" stop-opacity="0"/>
</linearGradient>
<radialGradient id="paint5_radial_2012_20972" cx="0" cy="0" r="1" gradientUnits="userSpaceOnUse" gradientTransform="translate(109.655 18.5439) scale(97.52 93.84)">
<stop stop-color="white"/>
<stop offset="1" stop-color="white" stop-opacity="0"/>
</radialGradient>
</defs>
</svg>
