<svg width="215" height="56" viewBox="0 0 215 56" fill="none" xmlns="http://www.w3.org/2000/svg">
<path d="M214.122 31.4375C214.122 32.6375 214.072 33.8375 214.012 35.0475C213.892 37.4175 213.672 39.7875 213.352 42.1575C213.172 43.4875 212.972 44.8175 212.732 46.1475C212.312 48.4775 209.832 50.5475 206.082 52.0375C202.582 53.6375 197.742 54.6975 192.272 54.8775C168.002 55.6675 46.2319 55.6675 21.9519 54.8775C16.4819 54.6975 11.6419 53.6375 8.14189 52.0375C4.39189 50.5475 1.91189 48.4775 1.49189 46.1475C1.33189 45.2675 1.19189 44.3875 1.06189 43.5075C0.671893 40.9175 0.401892 38.3175 0.251892 35.7275C0.161892 34.2575 0.111892 32.7775 0.101892 31.3075C0.081892 30.2575 0.101893 29.2075 0.131893 28.1575V28.1175C0.181893 26.6075 0.261893 25.0875 0.381893 23.5775C0.481893 22.3675 0.601892 21.1575 0.751892 19.9575C0.951892 18.3275 1.20189 16.6975 1.49189 15.0675C1.71189 13.8375 2.50189 12.6875 3.75189 11.6475C4.87189 10.7175 6.36189 9.87749 8.13189 9.17749C11.6319 7.57749 16.4719 6.51749 21.9419 6.33749C46.2219 5.54749 167.992 5.54749 192.262 6.33749C197.732 6.51749 202.572 7.57749 206.072 9.17749C208.332 10.0775 210.132 11.1775 211.292 12.4375C212.062 13.2575 212.562 14.1475 212.722 15.0775C213.032 16.7975 213.292 18.5075 213.492 20.2275C213.652 21.5175 213.782 22.8075 213.872 24.0975C213.972 25.4075 214.042 26.7075 214.082 28.0175C214.122 29.1675 214.132 30.3075 214.122 31.4475V31.4375Z" fill="url(#paint0_radial_2012_21473)"/>
<path d="M214.022 32.8175C213.962 34.0675 213.872 35.3275 213.752 36.5775C213.552 38.7175 213.272 40.8575 212.912 42.9975C212.852 43.3375 212.792 43.6775 212.732 44.0175C212.312 46.3475 209.832 48.4175 206.082 49.9075C202.582 51.5075 197.742 52.5675 192.272 52.7475C168.002 53.5375 46.2319 53.5375 21.9519 52.7475C16.4819 52.5675 11.6419 51.5075 8.1419 49.9075C4.5819 48.4875 2.1719 46.5575 1.5719 44.3675C1.5319 44.2475 1.5119 44.1375 1.4919 44.0175C1.0919 41.7875 0.781897 39.5575 0.551897 37.3275C0.401897 35.8575 0.281897 34.3775 0.211897 32.9075C0.101897 30.9875 0.0718981 29.0675 0.101898 27.1375V27.1075C0.111898 26.6375 0.121897 26.1575 0.141897 25.6875C0.181897 24.3475 0.261898 23.0175 0.361898 21.6775C0.551898 19.2275 0.851898 16.7675 1.2519 14.3175C1.3319 13.8575 1.4019 13.3875 1.4919 12.9275C1.9119 10.5975 4.3919 8.52748 8.1419 7.03748C11.6419 5.43748 16.4819 4.37748 21.9519 4.19748C46.2319 3.40748 168.002 3.40748 192.272 4.19748C197.742 4.37748 202.582 5.43748 206.082 7.03748C209.832 8.52748 212.312 10.5975 212.732 12.9275C212.842 13.5375 212.942 14.1475 213.042 14.7575C213.412 17.0775 213.682 19.3975 213.872 21.7175C213.982 23.1575 214.062 24.5975 214.102 26.0375C214.102 26.2675 214.122 26.4975 214.122 26.7375V26.8175C214.162 28.8175 214.122 30.8175 214.022 32.8075V32.8175Z" fill="url(#paint1_radial_2012_21473)"/>
<g style="mix-blend-mode:hard-light" opacity="0.2">
<path d="M212.732 11.0075C212.312 8.63749 209.832 6.52749 206.082 5.00749C202.582 3.37749 197.742 2.29749 192.272 2.11749C168.002 1.30749 46.2219 1.30749 21.9519 2.11749C16.4819 2.29749 11.6419 3.37749 8.1419 5.00749C4.4019 6.52749 1.9119 8.62749 1.4919 11.0075C-0.358099 21.5475 -0.358099 32.0975 1.4919 42.6375C1.9119 45.0075 4.3919 47.1175 8.1419 48.6375C11.6419 50.2675 16.4819 51.3475 21.9519 51.5275C46.2219 52.3375 168.002 52.3375 192.272 51.5275C197.742 51.3475 202.582 50.2675 206.082 48.6375C209.822 47.1175 212.312 45.0175 212.732 42.6375C214.582 32.0975 214.582 21.5475 212.732 11.0075Z" fill="white"/>
</g>
<path d="M213.602 35.4975C213.382 37.5175 213.092 39.5275 212.742 41.5475C212.322 43.9075 209.842 45.9875 206.092 47.4975C202.592 49.1075 197.752 50.1775 192.282 50.3575C168.012 51.1575 46.2319 51.1575 21.9619 50.3575C16.4919 50.1775 11.6519 49.1075 8.1519 47.4975C4.4019 45.9875 1.9219 43.9075 1.5019 41.5475C1.1719 39.6875 0.901901 37.8175 0.691901 35.9475C-0.288099 27.3575 -0.0180974 18.7575 1.5019 10.1675C1.9219 7.81749 4.4019 5.72749 8.1519 4.21749C11.6519 2.60749 16.4919 1.53749 21.9619 1.35749C46.2319 0.557492 168.012 0.557492 192.282 1.35749C197.752 1.53749 202.592 2.60749 206.092 4.21749C209.842 5.72749 212.322 7.80749 212.742 10.1675C214.232 18.6075 214.532 27.0575 213.602 35.4975Z" fill="url(#paint2_radial_2012_21473)"/>
<g style="mix-blend-mode:soft-light" opacity="0.75">
<path d="M213.602 35.4974C213.382 37.5174 213.092 39.5274 212.742 41.5474C212.322 43.9074 209.842 45.9874 206.092 47.4974C202.592 49.1074 197.752 50.1774 192.282 50.3574C168.012 51.1574 46.2319 51.1574 21.9619 50.3574C16.4919 50.1774 11.6519 49.1074 8.1519 47.4974C4.4019 45.9874 1.9219 43.9074 1.5019 41.5474C1.1719 39.6874 0.901901 37.8174 0.691901 35.9474C-0.288099 27.3574 -0.0180974 18.7574 1.5019 10.1674C1.9219 7.81745 4.4019 5.72745 8.1519 4.21745C11.6519 2.60745 16.4919 1.53745 21.9619 1.35745C46.2319 0.557446 168.012 0.557446 192.282 1.35745C197.752 1.53745 202.592 2.60745 206.092 4.21745C209.842 5.72745 212.322 7.80745 212.742 10.1674C214.232 18.6074 214.532 27.0574 213.602 35.4974Z" fill="url(#paint3_linear_2012_21473)"/>
</g>
<path style="mix-blend-mode:overlay" opacity="0.6" d="M214.122 26.0575C214.122 26.2875 214.122 26.5175 214.122 26.7475V26.8275C214.122 27.2175 214.102 27.6075 214.092 28.0075C214.062 29.1275 214.012 30.2375 213.932 31.3475C213.902 31.8075 213.862 32.2575 213.832 32.7175C213.772 33.4275 213.702 34.1475 213.622 34.8675C213.612 34.9675 213.602 35.0675 213.592 35.1675C212.772 35.2875 211.962 35.4175 211.152 35.5275C206.862 36.1575 202.572 36.7075 198.282 37.1975C196.772 37.3675 195.252 37.5275 193.742 37.6875C167.982 40.3075 44.6819 40.4075 18.8619 37.8475C17.4919 37.7175 16.1219 37.5675 14.7419 37.4175C10.8719 36.9975 7.00189 36.5075 3.13189 35.9575C2.31189 35.8475 1.50189 35.7275 0.691887 35.6075C0.691887 35.5675 0.69189 35.5175 0.67189 35.4775C0.57189 34.5775 0.481888 33.6875 0.411888 32.7875C0.361888 32.2575 0.331889 31.7275 0.291889 31.2075C0.221889 30.1875 0.171888 29.1775 0.141888 28.1575V28.1175C0.141888 27.7975 0.121889 27.4675 0.111889 27.1475V27.1175C0.111889 26.6475 0.0918884 26.1875 0.0918884 25.7175C0.0918884 25.0375 0.0918891 24.3575 0.121889 23.6775C0.141889 23.0475 0.161887 22.4175 0.191887 21.7875C0.211887 21.2475 0.241887 20.7175 0.281887 20.1775C0.401887 18.2775 0.58189 16.3775 0.83189 14.4775C0.92189 13.7975 1.01189 13.1275 1.11189 12.4475C1.23189 11.6575 1.36189 10.8575 1.50189 10.0575C1.92189 7.72748 4.40189 5.65749 8.15189 4.16749C11.6519 2.56749 16.4919 1.50749 21.9619 1.32749C46.2419 0.537485 168.012 0.537485 192.282 1.32749C197.752 1.50749 202.602 2.56749 206.092 4.16749C209.842 5.65749 212.322 7.72748 212.742 10.0575C212.922 11.0375 213.082 12.0175 213.222 12.9875C213.312 13.6275 213.402 14.2575 213.472 14.8975C213.702 16.7275 213.872 18.5575 213.982 20.3875C214.012 20.8575 214.032 21.3175 214.052 21.7875C214.092 22.5775 214.112 23.3575 214.132 24.1475C214.132 24.7775 214.132 25.4075 214.132 26.0375L214.122 26.0575Z" fill="url(#paint4_radial_2012_21473)"/>
<g style="mix-blend-mode:soft-light" opacity="0.6">
<path d="M179.662 8.76748C179.692 11.8175 162.802 9.88749 102.312 9.88749C52.7019 9.88749 33.9219 11.9075 33.8919 8.85748C33.8619 5.80748 51.9819 3.29749 103.272 3.29749C162.092 3.29749 179.632 5.71748 179.662 8.76748Z" fill="white"/>
</g>
<path d="M43.6587 30.503V21.671C43.6587 20.983 44.2027 20.439 44.8907 20.439C45.5787 20.439 46.1227 20.983 46.1227 21.671V29.495H50.6827C51.3067 29.495 51.8027 29.991 51.8027 30.615C51.8027 31.239 51.3067 31.735 50.6827 31.735H44.8907C44.2027 31.735 43.6587 31.191 43.6587 30.503ZM54.7969 31.735C54.1089 31.735 53.5649 31.191 53.5649 30.503V21.767C53.5649 21.079 54.1089 20.535 54.7969 20.535H61.0049C61.6129 20.535 62.1089 21.031 62.1089 21.639C62.1089 22.247 61.6129 22.727 61.0049 22.727H56.0129V24.999H60.2849C60.8929 24.999 61.3889 25.495 61.3889 26.103C61.3889 26.711 60.8929 27.191 60.2849 27.191H56.0129V29.543H61.0849C61.6929 29.543 62.1889 30.039 62.1889 30.647C62.1889 31.255 61.6929 31.735 61.0849 31.735H54.7969ZM63.5157 30.679C63.5157 30.503 63.5797 30.327 63.6597 30.151L67.5637 21.335C67.8357 20.727 68.3317 20.359 69.0037 20.359H69.1477C69.8197 20.359 70.2997 20.727 70.5717 21.335L74.4757 30.151C74.5557 30.327 74.6037 30.487 74.6037 30.647C74.6037 31.303 74.0917 31.831 73.4357 31.831C72.8597 31.831 72.4757 31.495 72.2517 30.983L71.4997 29.223H66.5717L65.7877 31.063C65.5797 31.543 65.1637 31.831 64.6517 31.831C64.0117 31.831 63.5157 31.319 63.5157 30.679ZM67.4837 27.047H70.5877L69.0357 23.351L67.4837 27.047ZM76.5337 30.503V21.767C76.5337 21.079 77.0777 20.535 77.7657 20.535H80.9017C84.4217 20.535 86.8537 22.951 86.8537 26.103V26.135C86.8537 29.287 84.4217 31.735 80.9017 31.735H77.7657C77.0777 31.735 76.5337 31.191 76.5337 30.503ZM78.9977 29.511H80.9017C82.9177 29.511 84.2777 28.151 84.2777 26.167V26.135C84.2777 24.151 82.9177 22.759 80.9017 22.759H78.9977V29.511ZM90.2813 31.735C89.5933 31.735 89.0493 31.191 89.0493 30.503V21.767C89.0493 21.079 89.5933 20.535 90.2813 20.535H96.4893C97.0973 20.535 97.5933 21.031 97.5933 21.639C97.5933 22.247 97.0973 22.727 96.4893 22.727H91.4973V24.999H95.7693C96.3773 24.999 96.8733 25.495 96.8733 26.103C96.8733 26.711 96.3773 27.191 95.7693 27.191H91.4973V29.543H96.5693C97.1773 29.543 97.6733 30.039 97.6733 30.647C97.6733 31.255 97.1773 31.735 96.5693 31.735H90.2813ZM99.7681 30.599V21.767C99.7681 21.079 100.312 20.535 101 20.535H104.888C106.312 20.535 107.416 20.935 108.152 21.671C108.776 22.295 109.112 23.175 109.112 24.231V24.263C109.112 26.023 108.232 27.111 106.872 27.671L108.584 29.751C108.824 30.055 108.984 30.311 108.984 30.695C108.984 31.383 108.408 31.831 107.816 31.831C107.256 31.831 106.888 31.559 106.6 31.191L104.2 28.151H102.232V30.599C102.232 31.287 101.688 31.831 101 31.831C100.312 31.831 99.7681 31.287 99.7681 30.599ZM102.232 25.975H104.728C105.928 25.975 106.616 25.335 106.616 24.391V24.359C106.616 23.303 105.88 22.759 104.68 22.759H102.232V25.975ZM111.331 30.503V21.767C111.331 21.079 111.875 20.535 112.563 20.535H116.531C117.811 20.535 118.819 20.887 119.459 21.527C119.971 22.039 120.227 22.663 120.227 23.431V23.463C120.227 24.727 119.555 25.431 118.755 25.879C120.051 26.375 120.851 27.127 120.851 28.631V28.663C120.851 30.711 119.187 31.735 116.659 31.735H112.563C111.875 31.735 111.331 31.191 111.331 30.503ZM113.731 25.063H116.003C117.091 25.063 117.779 24.711 117.779 23.879V23.847C117.779 23.111 117.203 22.695 116.163 22.695H113.731V25.063ZM113.731 29.575H116.659C117.747 29.575 118.403 29.191 118.403 28.359V28.327C118.403 27.575 117.843 27.111 116.579 27.111H113.731V29.575ZM128.317 31.927C124.861 31.927 122.381 29.351 122.381 26.167V26.135C122.381 22.951 124.893 20.343 128.349 20.343C131.805 20.343 134.285 22.919 134.285 26.103V26.135C134.285 29.319 131.773 31.927 128.317 31.927ZM128.349 29.655C130.333 29.655 131.709 28.087 131.709 26.167V26.135C131.709 24.215 130.301 22.615 128.317 22.615C126.333 22.615 124.957 24.183 124.957 26.103V26.135C124.957 28.055 126.365 29.655 128.349 29.655ZM135.297 30.679C135.297 30.503 135.361 30.327 135.441 30.151L139.345 21.335C139.617 20.727 140.113 20.359 140.785 20.359H140.929C141.601 20.359 142.081 20.727 142.353 21.335L146.257 30.151C146.337 30.327 146.385 30.487 146.385 30.647C146.385 31.303 145.873 31.831 145.217 31.831C144.641 31.831 144.257 31.495 144.033 30.983L143.281 29.223H138.353L137.569 31.063C137.361 31.543 136.945 31.831 136.433 31.831C135.793 31.831 135.297 31.319 135.297 30.679ZM139.265 27.047H142.369L140.817 23.351L139.265 27.047ZM148.315 30.599V21.767C148.315 21.079 148.859 20.535 149.547 20.535H153.435C154.859 20.535 155.963 20.935 156.699 21.671C157.323 22.295 157.659 23.175 157.659 24.231V24.263C157.659 26.023 156.779 27.111 155.419 27.671L157.131 29.751C157.371 30.055 157.531 30.311 157.531 30.695C157.531 31.383 156.955 31.831 156.363 31.831C155.803 31.831 155.435 31.559 155.147 31.191L152.747 28.151H150.779V30.599C150.779 31.287 150.235 31.831 149.547 31.831C148.859 31.831 148.315 31.287 148.315 30.599ZM150.779 25.975H153.275C154.475 25.975 155.163 25.335 155.163 24.391V24.359C155.163 23.303 154.427 22.759 153.227 22.759H150.779V25.975ZM159.877 30.503V21.767C159.877 21.079 160.421 20.535 161.109 20.535H164.245C167.765 20.535 170.197 22.951 170.197 26.103V26.135C170.197 29.287 167.765 31.735 164.245 31.735H161.109C160.421 31.735 159.877 31.191 159.877 30.503ZM162.341 29.511H164.245C166.261 29.511 167.621 28.151 167.621 26.167V26.135C167.621 24.151 166.261 22.759 164.245 22.759H162.341V29.511Z" fill="white"/>
<path d="M22.4676 42.735C30.3573 42.735 36.7532 36.3391 36.7532 28.4493C36.7532 20.5595 30.3573 14.1636 22.4676 14.1636C14.5778 14.1636 8.18188 20.5595 8.18188 28.4493C8.18188 36.3391 14.5778 42.735 22.4676 42.735Z" fill="url(#paint5_radial_2012_21473)"/>
<path d="M36.7533 27.0206C36.7533 27.5443 36.7258 28.0605 36.6695 28.5693C36.6445 28.803 36.6145 29.0355 36.5783 29.2655C36.517 29.653 36.4395 30.0367 36.347 30.4129C36.282 30.6804 36.2095 30.9442 36.1296 31.2054C35.8821 32.0141 35.5658 32.7916 35.1858 33.5328C35.1058 33.6903 35.0221 33.8453 34.9359 33.999C32.4909 38.3589 27.8236 41.3063 22.4688 41.3063C17.1141 41.3063 12.553 38.4264 10.0856 34.1465C9.99809 33.9953 9.9131 33.8428 9.83185 33.6878C9.44437 32.9553 9.11813 32.1854 8.86189 31.3841C8.77814 31.1242 8.7019 30.8604 8.6344 30.5942C8.5194 30.1492 8.42566 29.6967 8.35441 29.2355C8.31316 28.978 8.28066 28.7168 8.25441 28.4543C8.20692 27.983 8.18317 27.5043 8.18317 27.0206C8.18317 26.6856 8.19442 26.3519 8.21817 26.0231C8.23691 25.7519 8.26316 25.4831 8.29566 25.2169C8.35316 24.7657 8.43066 24.3207 8.5294 23.8844C8.66565 23.272 8.84064 22.6757 9.05438 22.0983C9.19188 21.7233 9.34437 21.3558 9.51186 20.9958C10.2256 19.4621 11.2043 18.0772 12.3905 16.8985H12.3917C12.8317 16.4572 13.303 16.0448 13.8017 15.6648C16.2053 13.8274 19.209 12.7361 22.4676 12.7361C25.7262 12.7361 28.9848 13.9223 31.4372 15.9035C31.936 16.306 32.406 16.741 32.8459 17.206C33.9809 18.4047 34.9096 19.8009 35.5746 21.3358C35.7133 21.6583 35.8421 21.9858 35.9571 22.3195C36.1758 22.9432 36.3508 23.5882 36.4808 24.2482C36.5608 24.6507 36.6233 25.0582 36.667 25.4731C36.687 25.6556 36.7033 25.8381 36.7158 26.0231C36.7395 26.3519 36.7508 26.6856 36.7508 27.0206H36.7533Z" fill="url(#paint6_radial_2012_21473)"/>
<g style="mix-blend-mode:hard-light" opacity="0.2">
<path d="M22.4676 39.8776C30.3573 39.8776 36.7532 33.4817 36.7532 25.5919C36.7532 17.7022 30.3573 11.3063 22.4676 11.3063C14.5778 11.3063 8.18188 17.7022 8.18188 25.5919C8.18188 33.4817 14.5778 39.8776 22.4676 39.8776Z" fill="white"/>
</g>
<path d="M36.7532 25.0207C36.7532 26.6319 36.4858 28.1805 35.9945 29.6267C34.0784 35.2565 28.7461 39.3063 22.4676 39.3063C16.1891 39.3063 10.8043 35.2165 8.91186 29.543C8.43812 28.1218 8.18188 26.6019 8.18188 25.0219C8.18313 17.131 14.5779 10.735 22.4676 10.735C30.3572 10.735 36.7532 17.131 36.7532 25.0207Z" fill="url(#paint7_radial_2012_21473)"/>
<g style="mix-blend-mode:overlay" opacity="0.8" filter="url(#filter0_f_2012_21473)">
<path d="M22.4676 14.0211C28.8548 14.0211 34.2008 18.3734 35.5658 24.207C35.1458 17.3372 29.4423 11.8962 22.4676 11.8962C15.4928 11.8962 9.78931 17.3372 9.36932 24.207C10.7355 18.3734 16.0803 14.0211 22.4676 14.0211Z" fill="url(#paint8_linear_2012_21473)"/>
</g>
<g style="mix-blend-mode:soft-light" opacity="0.75" filter="url(#filter1_f_2012_21473)">
<path d="M22.4675 33.0203C17.5815 33.0203 13.1542 31.0566 9.92929 27.8768C11.228 33.6028 16.3478 37.8776 22.4675 37.8776C28.5873 37.8776 33.7058 33.6028 35.0058 27.8768C31.7822 31.0566 27.3548 33.0203 22.4675 33.0203Z" fill="url(#paint9_linear_2012_21473)"/>
</g>
<path style="mix-blend-mode:overlay" opacity="0.6" d="M36.7534 25.0209C36.7534 25.1946 36.7509 25.3671 36.7434 25.5396C36.7384 25.7008 36.7297 25.8621 36.7184 26.0233C36.6647 26.797 36.5497 27.5533 36.3772 28.287C36.3297 28.4932 36.2772 28.697 36.2197 28.8995C36.151 29.1444 36.076 29.3869 35.9947 29.6269C35.8572 29.6844 35.7185 29.7407 35.581 29.7957C35.2535 29.9269 34.9248 30.0544 34.5973 30.1769C33.1623 30.7094 31.7261 31.1494 30.2912 31.4956C29.6025 31.6618 28.915 31.8068 28.2263 31.9281C24.3477 32.6206 20.4653 32.6193 16.5805 31.9006C15.8968 31.7743 15.2118 31.6243 14.5268 31.4531C13.1531 31.1094 11.7782 30.6744 10.402 30.1469C10.0945 30.0294 9.78576 29.9069 9.47702 29.7794C9.28952 29.7019 9.10078 29.6232 8.91329 29.5419C8.83454 29.3069 8.76205 29.0694 8.6958 28.8282C8.63455 28.607 8.5783 28.382 8.52706 28.1557C8.37331 27.462 8.26832 26.7508 8.21832 26.0233C8.20207 25.7908 8.19082 25.5571 8.18707 25.3221C8.18457 25.2221 8.18332 25.1221 8.18332 25.0209C8.18332 24.7271 8.19207 24.4371 8.21082 24.1484C8.23832 23.6884 8.28706 23.2359 8.35831 22.7897C8.41206 22.4372 8.48081 22.0885 8.56205 21.7447C8.90704 20.2698 9.48202 18.8824 10.247 17.6237C10.5345 17.1487 10.8495 16.6924 11.1882 16.2575C13.8006 12.8976 17.8829 10.7364 22.469 10.7364C27.0551 10.7364 31.4436 13.0638 34.0385 16.6424C34.356 17.0799 34.6498 17.5374 34.916 18.0111C35.6085 19.2336 36.1235 20.5685 36.4284 21.981C36.4934 22.2797 36.5497 22.5822 36.5947 22.8872C36.6722 23.4009 36.7209 23.9234 36.7409 24.4534C36.7497 24.6409 36.7534 24.8309 36.7534 25.0209Z" fill="url(#paint10_radial_2012_21473)"/>
<g style="mix-blend-mode:soft-light" opacity="0.6">
<path d="M28.1961 15.5697C28.2036 17.1371 25.375 16.1321 22.1926 16.1471C19.0102 16.1609 16.6803 17.1883 16.6728 15.6209C16.6653 14.0535 19.2402 12.771 22.4213 12.7573C25.6037 12.7435 28.1886 14.0022 28.1948 15.5697H28.1961Z" fill="white"/>
</g>
<path d="M16.3978 15.9906C17.681 15.1106 18.402 13.9315 18.008 13.3571C17.6141 12.7826 16.2545 13.0303 14.9712 13.9103C13.688 14.7903 12.967 15.9694 13.3609 16.5438C13.7549 17.1183 15.1145 16.8706 16.3978 15.9906Z" fill="url(#paint11_radial_2012_21473)"/>
<path d="M13.0548 18.2472C13.4686 17.8044 13.5698 17.2264 13.2808 16.9563C12.9918 16.6863 12.422 16.8263 12.0082 17.2692C11.5944 17.712 11.4932 18.29 11.7822 18.56C12.0712 18.8301 12.641 18.69 13.0548 18.2472Z" fill="url(#paint12_radial_2012_21473)"/>
<path d="M11.1686 19.873C11.3911 19.635 11.4455 19.3243 11.2901 19.1791C11.1348 19.0339 10.8285 19.1092 10.606 19.3473C10.3836 19.5854 10.3292 19.8961 10.4845 20.0412C10.6399 20.1864 10.9461 20.1111 11.1686 19.873Z" fill="url(#paint13_radial_2012_21473)"/>
<path d="M28.2114 14.5716C28.4131 14.2313 28.154 13.7049 27.6326 13.3958C27.1112 13.0868 26.525 13.112 26.3233 13.4523C26.1216 13.7926 26.3807 14.3189 26.9021 14.628C27.4235 14.9371 28.0097 14.9118 28.2114 14.5716Z" fill="url(#paint14_radial_2012_21473)"/>
<path d="M29.5397 15.423C29.6481 15.2401 29.5088 14.9571 29.2285 14.7909C28.9482 14.6248 28.6331 14.6384 28.5247 14.8213C28.4163 15.0042 28.5556 15.2871 28.8359 15.4533C29.1162 15.6194 29.4313 15.6059 29.5397 15.423Z" fill="url(#paint15_radial_2012_21473)"/>
<path d="M33.9136 20.356C34.0889 20.2357 34.0817 19.9204 33.8974 19.6517C33.7132 19.383 33.4216 19.2626 33.2463 19.3829C33.0709 19.5031 33.0782 19.8184 33.2624 20.0872C33.4467 20.3559 33.7382 20.4762 33.9136 20.356Z" fill="url(#paint16_radial_2012_21473)"/>
<path d="M34.9133 29.0142C34.6458 30.1442 33.9108 30.9366 33.6084 30.8654C33.3059 30.7941 33.8583 30.2167 34.1258 29.0867C34.3933 27.9568 34.2758 26.7031 34.5783 26.7743C34.8808 26.8455 35.1808 27.8843 34.9133 29.0142Z" fill="url(#paint17_radial_2012_21473)"/>
<path d="M193.468 42.735C201.357 42.735 207.753 36.3391 207.753 28.4493C207.753 20.5595 201.357 14.1636 193.468 14.1636C185.578 14.1636 179.182 20.5595 179.182 28.4493C179.182 36.3391 185.578 42.735 193.468 42.735Z" fill="url(#paint18_radial_2012_21473)"/>
<path d="M207.753 27.0206C207.753 27.5443 207.726 28.0605 207.67 28.5693C207.645 28.803 207.615 29.0355 207.578 29.2655C207.517 29.653 207.44 30.0367 207.347 30.4129C207.282 30.6804 207.21 30.9442 207.13 31.2054C206.882 32.0141 206.566 32.7916 206.186 33.5328C206.106 33.6903 206.022 33.8453 205.936 33.999C203.491 38.3589 198.824 41.3063 193.469 41.3063C188.114 41.3063 183.553 38.4264 181.086 34.1465C180.998 33.9953 180.913 33.8428 180.832 33.6878C180.444 32.9553 180.118 32.1854 179.862 31.3841C179.778 31.1242 179.702 30.8604 179.634 30.5942C179.519 30.1492 179.426 29.6967 179.354 29.2355C179.313 28.978 179.281 28.7168 179.254 28.4543C179.207 27.983 179.183 27.5043 179.183 27.0206C179.183 26.6856 179.194 26.3519 179.218 26.0231C179.237 25.7519 179.263 25.4831 179.296 25.2169C179.353 24.7657 179.431 24.3207 179.529 23.8844C179.666 23.272 179.841 22.6757 180.054 22.0983C180.192 21.7233 180.344 21.3558 180.512 20.9958C181.226 19.4621 182.204 18.0772 183.39 16.8985H183.392C183.832 16.4572 184.303 16.0448 184.802 15.6648C187.205 13.8274 190.209 12.7361 193.468 12.7361C196.726 12.7361 199.985 13.9223 202.437 15.9035C202.936 16.306 203.406 16.741 203.846 17.206C204.981 18.4047 205.91 19.8009 206.575 21.3358C206.713 21.6583 206.842 21.9858 206.957 22.3195C207.176 22.9432 207.351 23.5882 207.481 24.2482C207.561 24.6507 207.623 25.0582 207.667 25.4731C207.687 25.6556 207.703 25.8381 207.716 26.0231C207.74 26.3519 207.751 26.6856 207.751 27.0206H207.753Z" fill="url(#paint19_radial_2012_21473)"/>
<g style="mix-blend-mode:hard-light" opacity="0.2">
<path d="M193.468 39.8776C201.357 39.8776 207.753 33.4817 207.753 25.5919C207.753 17.7022 201.357 11.3063 193.468 11.3063C185.578 11.3063 179.182 17.7022 179.182 25.5919C179.182 33.4817 185.578 39.8776 193.468 39.8776Z" fill="white"/>
</g>
<path d="M207.753 25.0207C207.753 26.6319 207.486 28.1805 206.995 29.6267C205.078 35.2565 199.746 39.3063 193.468 39.3063C187.189 39.3063 181.804 35.2165 179.912 29.543C179.438 28.1218 179.182 26.6019 179.182 25.0219C179.183 17.131 185.578 10.735 193.468 10.735C201.357 10.735 207.753 17.131 207.753 25.0207Z" fill="url(#paint20_radial_2012_21473)"/>
<g style="mix-blend-mode:overlay" opacity="0.8" filter="url(#filter2_f_2012_21473)">
<path d="M193.468 14.0211C199.855 14.0211 205.201 18.3734 206.566 24.207C206.146 17.3372 200.442 11.8962 193.468 11.8962C186.493 11.8962 180.789 17.3372 180.369 24.207C181.736 18.3734 187.08 14.0211 193.468 14.0211Z" fill="url(#paint21_linear_2012_21473)"/>
</g>
<g style="mix-blend-mode:soft-light" opacity="0.75" filter="url(#filter3_f_2012_21473)">
<path d="M193.468 33.0203C188.581 33.0203 184.154 31.0566 180.929 27.8768C182.228 33.6028 187.348 37.8776 193.468 37.8776C199.587 37.8776 204.706 33.6028 206.006 27.8768C202.782 31.0566 198.355 33.0203 193.468 33.0203Z" fill="url(#paint22_linear_2012_21473)"/>
</g>
<path style="mix-blend-mode:overlay" opacity="0.6" d="M207.753 25.0209C207.753 25.1946 207.751 25.3671 207.743 25.5396C207.738 25.7008 207.73 25.8621 207.718 26.0233C207.665 26.797 207.55 27.5533 207.377 28.287C207.33 28.4932 207.277 28.697 207.22 28.8995C207.151 29.1444 207.076 29.3869 206.995 29.6269C206.857 29.6844 206.718 29.7407 206.581 29.7957C206.254 29.9269 205.925 30.0544 205.597 30.1769C204.162 30.7094 202.726 31.1494 201.291 31.4956C200.602 31.6618 199.915 31.8068 199.226 31.9281C195.348 32.6206 191.465 32.6193 187.58 31.9006C186.897 31.7743 186.212 31.6243 185.527 31.4531C184.153 31.1094 182.778 30.6744 181.402 30.1469C181.095 30.0294 180.786 29.9069 180.477 29.7794C180.29 29.7019 180.101 29.6232 179.913 29.5419C179.835 29.3069 179.762 29.0694 179.696 28.8282C179.635 28.607 179.578 28.382 179.527 28.1557C179.373 27.462 179.268 26.7508 179.218 26.0233C179.202 25.7908 179.191 25.5571 179.187 25.3221C179.185 25.2221 179.183 25.1221 179.183 25.0209C179.183 24.7271 179.192 24.4371 179.211 24.1484C179.238 23.6884 179.287 23.2359 179.358 22.7897C179.412 22.4372 179.481 22.0885 179.562 21.7447C179.907 20.2698 180.482 18.8824 181.247 17.6237C181.534 17.1487 181.849 16.6924 182.188 16.2575C184.801 12.8976 188.883 10.7364 193.469 10.7364C198.055 10.7364 202.444 13.0638 205.039 16.6424C205.356 17.0799 205.65 17.5374 205.916 18.0111C206.608 19.2336 207.123 20.5685 207.428 21.981C207.493 22.2797 207.55 22.5822 207.595 22.8872C207.672 23.4009 207.721 23.9234 207.741 24.4534C207.75 24.6409 207.753 24.8309 207.753 25.0209Z" fill="url(#paint23_radial_2012_21473)"/>
<g style="mix-blend-mode:soft-light" opacity="0.6">
<path d="M199.196 15.5697C199.204 17.1371 196.375 16.1321 193.193 16.1471C190.01 16.1609 187.68 17.1883 187.673 15.6209C187.665 14.0535 190.24 12.771 193.421 12.7573C196.604 12.7435 199.189 14.0022 199.195 15.5697H199.196Z" fill="white"/>
</g>
<path d="M187.398 15.9906C188.681 15.1106 189.402 13.9315 189.008 13.3571C188.614 12.7826 187.254 13.0303 185.971 13.9103C184.688 14.7903 183.967 15.9694 184.361 16.5438C184.755 17.1183 186.114 16.8706 187.398 15.9906Z" fill="url(#paint24_radial_2012_21473)"/>
<path d="M184.055 18.2472C184.469 17.8044 184.57 17.2264 184.281 16.9563C183.992 16.6863 183.422 16.8263 183.008 17.2692C182.594 17.712 182.493 18.29 182.782 18.56C183.071 18.8301 183.641 18.69 184.055 18.2472Z" fill="url(#paint25_radial_2012_21473)"/>
<path d="M182.169 19.873C182.391 19.635 182.445 19.3243 182.29 19.1791C182.135 19.0339 181.828 19.1092 181.606 19.3473C181.384 19.5854 181.329 19.8961 181.484 20.0412C181.64 20.1864 181.946 20.1111 182.169 19.873Z" fill="url(#paint26_radial_2012_21473)"/>
<path d="M199.211 14.5716C199.413 14.2313 199.154 13.7049 198.633 13.3958C198.111 13.0868 197.525 13.112 197.323 13.4523C197.122 13.7926 197.381 14.3189 197.902 14.628C198.423 14.9371 199.01 14.9118 199.211 14.5716Z" fill="url(#paint27_radial_2012_21473)"/>
<path d="M200.54 15.423C200.648 15.2401 200.509 14.9571 200.229 14.7909C199.948 14.6248 199.633 14.6384 199.525 14.8213C199.416 15.0042 199.556 15.2871 199.836 15.4533C200.116 15.6194 200.431 15.6059 200.54 15.423Z" fill="url(#paint28_radial_2012_21473)"/>
<path d="M204.914 20.356C205.089 20.2357 205.082 19.9204 204.897 19.6517C204.713 19.383 204.422 19.2626 204.246 19.3829C204.071 19.5031 204.078 19.8184 204.262 20.0872C204.447 20.3559 204.738 20.4762 204.914 20.356Z" fill="url(#paint29_radial_2012_21473)"/>
<path d="M205.913 29.0142C205.646 30.1442 204.911 30.9366 204.608 30.8654C204.306 30.7941 204.858 30.2167 205.126 29.0867C205.393 27.9568 205.276 26.7031 205.578 26.7743C205.881 26.8455 206.181 27.8843 205.913 29.0142Z" fill="url(#paint30_radial_2012_21473)"/>
<defs>
<filter id="filter0_f_2012_21473" x="1.36932" y="3.89619" width="42.1964" height="28.3108" filterUnits="userSpaceOnUse" color-interpolation-filters="sRGB">
<feFlood flood-opacity="0" result="BackgroundImageFix"/>
<feBlend mode="normal" in="SourceGraphic" in2="BackgroundImageFix" result="shape"/>
<feGaussianBlur stdDeviation="4" result="effect1_foregroundBlur_2012_21473"/>
</filter>
<filter id="filter1_f_2012_21473" x="1.92929" y="19.8768" width="41.0765" height="26.0009" filterUnits="userSpaceOnUse" color-interpolation-filters="sRGB">
<feFlood flood-opacity="0" result="BackgroundImageFix"/>
<feBlend mode="normal" in="SourceGraphic" in2="BackgroundImageFix" result="shape"/>
<feGaussianBlur stdDeviation="4" result="effect1_foregroundBlur_2012_21473"/>
</filter>
<filter id="filter2_f_2012_21473" x="172.369" y="3.89619" width="42.1964" height="28.3108" filterUnits="userSpaceOnUse" color-interpolation-filters="sRGB">
<feFlood flood-opacity="0" result="BackgroundImageFix"/>
<feBlend mode="normal" in="SourceGraphic" in2="BackgroundImageFix" result="shape"/>
<feGaussianBlur stdDeviation="4" result="effect1_foregroundBlur_2012_21473"/>
</filter>
<filter id="filter3_f_2012_21473" x="172.929" y="19.8768" width="41.0765" height="26.0009" filterUnits="userSpaceOnUse" color-interpolation-filters="sRGB">
<feFlood flood-opacity="0" result="BackgroundImageFix"/>
<feBlend mode="normal" in="SourceGraphic" in2="BackgroundImageFix" result="shape"/>
<feGaussianBlur stdDeviation="4" result="effect1_foregroundBlur_2012_21473"/>
</filter>
<radialGradient id="paint0_radial_2012_21473" cx="0" cy="0" r="1" gradientUnits="userSpaceOnUse" gradientTransform="translate(105.938 30.6509) scale(98.3808 42.1632)">
<stop/>
<stop offset="0.84" stop-opacity="0.2"/>
</radialGradient>
<radialGradient id="paint1_radial_2012_21473" cx="0" cy="0" r="1" gradientUnits="userSpaceOnUse" gradientTransform="translate(105.938 28.5287) scale(98.3808 42.1632)">
<stop stop-color="#F76F06"/>
<stop offset="0.98" stop-color="#D33501"/>
</radialGradient>
<radialGradient id="paint2_radial_2012_21473" cx="0" cy="0" r="1" gradientUnits="userSpaceOnUse" gradientTransform="translate(105.948 25.9142) scale(98.3668 42.5574)">
<stop stop-color="#F76F06"/>
<stop offset="0.98" stop-color="#D33501"/>
</radialGradient>
<linearGradient id="paint3_linear_2012_21473" x1="108.411" y1="50.7425" x2="108.411" y2="38.8475" gradientUnits="userSpaceOnUse">
<stop/>
<stop offset="1" stop-opacity="0"/>
</linearGradient>
<radialGradient id="paint4_radial_2012_21473" cx="0" cy="0" r="1" gradientUnits="userSpaceOnUse" gradientTransform="translate(106.77 11.2541) scale(101.795 43.6266)">
<stop stop-color="white"/>
<stop offset="1" stop-color="white" stop-opacity="0"/>
</radialGradient>
<radialGradient id="paint5_radial_2012_21473" cx="0" cy="0" r="1" gradientUnits="userSpaceOnUse" gradientTransform="translate(22.4676 28.4493) scale(14.2857)">
<stop/>
<stop offset="0.84" stop-opacity="0.2"/>
</radialGradient>
<radialGradient id="paint6_radial_2012_21473" cx="0" cy="0" r="1" gradientUnits="userSpaceOnUse" gradientTransform="translate(22.4676 27.0206) scale(14.2844)">
<stop stop-color="#6DEA01"/>
<stop offset="0.44" stop-color="#6DEA01"/>
<stop offset="0.68" stop-color="#42BA00"/>
<stop offset="1" stop-color="#0E8000"/>
</radialGradient>
<radialGradient id="paint7_radial_2012_21473" cx="0" cy="0" r="1" gradientUnits="userSpaceOnUse" gradientTransform="translate(22.7459 22.1626) rotate(-91.15) scale(17.2281 19.9846)">
<stop stop-color="#6DEA01"/>
<stop offset="0.44" stop-color="#6DEA01"/>
<stop offset="0.68" stop-color="#42BA00"/>
<stop offset="1" stop-color="#0E8000"/>
</radialGradient>
<linearGradient id="paint8_linear_2012_21473" x1="22.4675" y1="24.207" x2="22.4675" y2="11.8962" gradientUnits="userSpaceOnUse">
<stop stop-color="white" stop-opacity="0"/>
<stop offset="1" stop-color="white"/>
</linearGradient>
<linearGradient id="paint9_linear_2012_21473" x1="22.4675" y1="37.8776" x2="22.4675" y2="27.8768" gradientUnits="userSpaceOnUse">
<stop/>
<stop offset="0.09" stop-color="#0C0C0C"/>
<stop offset="0.24" stop-color="#2C2C2C"/>
<stop offset="0.46" stop-color="#616161"/>
<stop offset="0.71" stop-color="#AAAAAA"/>
<stop offset="0.98" stop-color="white"/>
</linearGradient>
<radialGradient id="paint10_radial_2012_21473" cx="0" cy="0" r="1" gradientUnits="userSpaceOnUse" gradientTransform="translate(22.1715 18.8574) scale(15.6294 15.6294)">
<stop stop-color="white"/>
<stop offset="1" stop-color="white" stop-opacity="0"/>
</radialGradient>
<radialGradient id="paint11_radial_2012_21473" cx="0" cy="0" r="1" gradientUnits="userSpaceOnUse" gradientTransform="translate(15.4211 14.9632) rotate(-32.93) scale(2.07087 1.56164)">
<stop offset="0.51" stop-color="white"/>
<stop offset="1" stop-color="white" stop-opacity="0"/>
</radialGradient>
<radialGradient id="paint12_radial_2012_21473" cx="0" cy="0" r="1" gradientUnits="userSpaceOnUse" gradientTransform="translate(11.5087 18.6369) rotate(-44.74) scale(0.536954 1.35952)">
<stop offset="0.51" stop-color="white"/>
<stop offset="1" stop-color="white" stop-opacity="0"/>
</radialGradient>
<radialGradient id="paint13_radial_2012_21473" cx="0" cy="0" r="1" gradientUnits="userSpaceOnUse" gradientTransform="translate(9.7377 20.654) rotate(-44.74) scale(0.289038 0.73182)">
<stop offset="0.51" stop-color="white"/>
<stop offset="1" stop-color="white" stop-opacity="0"/>
</radialGradient>
<radialGradient id="paint14_radial_2012_21473" cx="0" cy="0" r="1" gradientUnits="userSpaceOnUse" gradientTransform="translate(19.402 8.80396) rotate(-147.14) scale(0.536954 1.35952)">
<stop offset="0.51" stop-color="white"/>
<stop offset="1" stop-color="white" stop-opacity="0"/>
</radialGradient>
<radialGradient id="paint15_radial_2012_21473" cx="0" cy="0" r="1" gradientUnits="userSpaceOnUse" gradientTransform="translate(21.3307 9.98735) rotate(-147.14) scale(0.289038 0.731821)">
<stop offset="0.51" stop-color="white"/>
<stop offset="1" stop-color="white" stop-opacity="0"/>
</radialGradient>
<radialGradient id="paint16_radial_2012_21473" cx="0" cy="0" r="1" gradientUnits="userSpaceOnUse" gradientTransform="translate(28.2087 11.0619) rotate(-122.24) scale(0.289039 0.731819)">
<stop offset="0.51" stop-color="white"/>
<stop offset="1" stop-color="white" stop-opacity="0"/>
</radialGradient>
<radialGradient id="paint17_radial_2012_21473" cx="0" cy="0" r="1" gradientUnits="userSpaceOnUse" gradientTransform="translate(34.2775 29.0058) rotate(-77.92) scale(2.09234 0.818742)">
<stop stop-color="white"/>
<stop offset="1" stop-color="white" stop-opacity="0"/>
</radialGradient>
<radialGradient id="paint18_radial_2012_21473" cx="0" cy="0" r="1" gradientUnits="userSpaceOnUse" gradientTransform="translate(193.468 28.4493) scale(14.2857)">
<stop/>
<stop offset="0.84" stop-opacity="0.2"/>
</radialGradient>
<radialGradient id="paint19_radial_2012_21473" cx="0" cy="0" r="1" gradientUnits="userSpaceOnUse" gradientTransform="translate(193.468 27.0206) scale(14.2844)">
<stop stop-color="#6DEA01"/>
<stop offset="0.44" stop-color="#6DEA01"/>
<stop offset="0.68" stop-color="#42BA00"/>
<stop offset="1" stop-color="#0E8000"/>
</radialGradient>
<radialGradient id="paint20_radial_2012_21473" cx="0" cy="0" r="1" gradientUnits="userSpaceOnUse" gradientTransform="translate(193.746 22.1626) rotate(-91.15) scale(17.2281 19.9846)">
<stop stop-color="#6DEA01"/>
<stop offset="0.44" stop-color="#6DEA01"/>
<stop offset="0.68" stop-color="#42BA00"/>
<stop offset="1" stop-color="#0E8000"/>
</radialGradient>
<linearGradient id="paint21_linear_2012_21473" x1="193.468" y1="24.207" x2="193.468" y2="11.8962" gradientUnits="userSpaceOnUse">
<stop stop-color="white" stop-opacity="0"/>
<stop offset="1" stop-color="white"/>
</linearGradient>
<linearGradient id="paint22_linear_2012_21473" x1="193.468" y1="37.8776" x2="193.468" y2="27.8768" gradientUnits="userSpaceOnUse">
<stop/>
<stop offset="0.09" stop-color="#0C0C0C"/>
<stop offset="0.24" stop-color="#2C2C2C"/>
<stop offset="0.46" stop-color="#616161"/>
<stop offset="0.71" stop-color="#AAAAAA"/>
<stop offset="0.98" stop-color="white"/>
</linearGradient>
<radialGradient id="paint23_radial_2012_21473" cx="0" cy="0" r="1" gradientUnits="userSpaceOnUse" gradientTransform="translate(193.172 18.8574) scale(15.6294 15.6294)">
<stop stop-color="white"/>
<stop offset="1" stop-color="white" stop-opacity="0"/>
</radialGradient>
<radialGradient id="paint24_radial_2012_21473" cx="0" cy="0" r="1" gradientUnits="userSpaceOnUse" gradientTransform="translate(186.421 14.9632) rotate(-32.93) scale(2.07087 1.56164)">
<stop offset="0.51" stop-color="white"/>
<stop offset="1" stop-color="white" stop-opacity="0"/>
</radialGradient>
<radialGradient id="paint25_radial_2012_21473" cx="0" cy="0" r="1" gradientUnits="userSpaceOnUse" gradientTransform="translate(182.509 18.6369) rotate(-44.74) scale(0.536954 1.35952)">
<stop offset="0.51" stop-color="white"/>
<stop offset="1" stop-color="white" stop-opacity="0"/>
</radialGradient>
<radialGradient id="paint26_radial_2012_21473" cx="0" cy="0" r="1" gradientUnits="userSpaceOnUse" gradientTransform="translate(180.738 20.654) rotate(-44.74) scale(0.289038 0.73182)">
<stop offset="0.51" stop-color="white"/>
<stop offset="1" stop-color="white" stop-opacity="0"/>
</radialGradient>
<radialGradient id="paint27_radial_2012_21473" cx="0" cy="0" r="1" gradientUnits="userSpaceOnUse" gradientTransform="translate(190.402 8.80396) rotate(-147.14) scale(0.536954 1.35952)">
<stop offset="0.51" stop-color="white"/>
<stop offset="1" stop-color="white" stop-opacity="0"/>
</radialGradient>
<radialGradient id="paint28_radial_2012_21473" cx="0" cy="0" r="1" gradientUnits="userSpaceOnUse" gradientTransform="translate(192.331 9.98735) rotate(-147.14) scale(0.289038 0.731821)">
<stop offset="0.51" stop-color="white"/>
<stop offset="1" stop-color="white" stop-opacity="0"/>
</radialGradient>
<radialGradient id="paint29_radial_2012_21473" cx="0" cy="0" r="1" gradientUnits="userSpaceOnUse" gradientTransform="translate(199.209 11.0619) rotate(-122.24) scale(0.289039 0.731819)">
<stop offset="0.51" stop-color="white"/>
<stop offset="1" stop-color="white" stop-opacity="0"/>
</radialGradient>
<radialGradient id="paint30_radial_2012_21473" cx="0" cy="0" r="1" gradientUnits="userSpaceOnUse" gradientTransform="translate(205.278 29.0058) rotate(-77.92) scale(2.09234 0.818742)">
<stop stop-color="white"/>
<stop offset="1" stop-color="white" stop-opacity="0"/>
</radialGradient>
</defs>
</svg>
