<svg width="215" height="56" viewBox="0 0 215 56" fill="none" xmlns="http://www.w3.org/2000/svg">
<path d="M214.031 31.4375C214.031 32.6375 213.981 33.8375 213.921 35.0475C213.801 37.4175 213.581 39.7875 213.261 42.1575C213.081 43.4875 212.881 44.8175 212.641 46.1475C212.221 48.4775 209.741 50.5475 205.991 52.0375C202.491 53.6375 197.651 54.6975 192.181 54.8775C167.911 55.6675 46.141 55.6675 21.861 54.8775C16.391 54.6975 11.551 53.6375 8.05098 52.0375C4.30098 50.5475 1.82098 48.4775 1.40098 46.1475C1.24098 45.2675 1.10098 44.3875 0.970981 43.5075C0.580981 40.9175 0.31098 38.3175 0.16098 35.7275C0.0709798 34.2575 0.0209802 32.7775 0.0109802 31.3075C-0.00901983 30.2575 0.0109809 29.2075 0.0409809 28.1575V28.1175C0.0909809 26.6075 0.170981 25.0875 0.290981 23.5775C0.390981 22.3675 0.51098 21.1575 0.66098 19.9575C0.86098 18.3275 1.11098 16.6975 1.40098 15.0675C1.62098 13.8375 2.41098 12.6875 3.66098 11.6475C4.78098 10.7175 6.27098 9.87749 8.04098 9.17749C11.541 7.57749 16.381 6.51749 21.851 6.33749C46.131 5.54749 167.901 5.54749 192.171 6.33749C197.641 6.51749 202.481 7.57749 205.981 9.17749C208.241 10.0775 210.041 11.1775 211.201 12.4375C211.971 13.2575 212.471 14.1475 212.631 15.0775C212.941 16.7975 213.201 18.5075 213.401 20.2275C213.561 21.5175 213.691 22.8075 213.781 24.0975C213.881 25.4075 213.951 26.7075 213.991 28.0175C214.031 29.1675 214.041 30.3075 214.031 31.4475V31.4375Z" fill="url(#paint0_radial_2012_20882)"/>
<path d="M213.931 32.8175C213.871 34.0675 213.781 35.3275 213.661 36.5775C213.461 38.7175 213.181 40.8575 212.821 42.9975C212.761 43.3375 212.701 43.6775 212.641 44.0175C212.221 46.3475 209.741 48.4175 205.991 49.9075C202.491 51.5075 197.651 52.5675 192.181 52.7475C167.911 53.5375 46.141 53.5375 21.861 52.7475C16.391 52.5675 11.551 51.5075 8.05095 49.9075C4.49095 48.4875 2.08096 46.5575 1.48096 44.3675C1.44096 44.2475 1.42096 44.1375 1.40096 44.0175C1.00096 41.7875 0.690955 39.5575 0.460955 37.3275C0.310955 35.8575 0.190954 34.3775 0.120954 32.9075C0.0109544 30.9875 -0.0190443 29.0675 0.0109557 27.1375V27.1075C0.0209557 26.6375 0.0309547 26.1575 0.0509547 25.6875C0.0909547 24.3475 0.170956 23.0175 0.270956 21.6775C0.460956 19.2275 0.760955 16.7675 1.16096 14.3175C1.24096 13.8575 1.31096 13.3875 1.40096 12.9275C1.82096 10.5975 4.30095 8.52748 8.05095 7.03748C11.551 5.43748 16.391 4.37748 21.861 4.19748C46.141 3.40748 167.911 3.40748 192.181 4.19748C197.651 4.37748 202.491 5.43748 205.991 7.03748C209.741 8.52748 212.221 10.5975 212.641 12.9275C212.751 13.5375 212.851 14.1475 212.951 14.7575C213.321 17.0775 213.591 19.3975 213.781 21.7175C213.891 23.1575 213.971 24.5975 214.011 26.0375C214.011 26.2675 214.031 26.4975 214.031 26.7375V26.8175C214.071 28.8175 214.031 30.8175 213.931 32.8075V32.8175Z" fill="url(#paint1_radial_2012_20882)"/>
<g style="mix-blend-mode:hard-light" opacity="0.2">
<path d="M212.641 11.0075C212.221 8.63749 209.741 6.52749 205.991 5.00749C202.491 3.37749 197.651 2.29749 192.181 2.11749C167.911 1.30749 46.1309 1.30749 21.8609 2.11749C16.3909 2.29749 11.5509 3.37749 8.05093 5.00749C4.31093 6.52749 1.82093 8.62749 1.40093 11.0075C-0.449072 21.5475 -0.449072 32.0975 1.40093 42.6375C1.82093 45.0075 4.30093 47.1175 8.05093 48.6375C11.5509 50.2675 16.3909 51.3475 21.8609 51.5275C46.1309 52.3375 167.911 52.3375 192.181 51.5275C197.651 51.3475 202.491 50.2675 205.991 48.6375C209.731 47.1175 212.221 45.0175 212.641 42.6375C214.491 32.0975 214.491 21.5475 212.641 11.0075Z" fill="white"/>
</g>
<path d="M213.511 35.4975C213.291 37.5175 213.001 39.5275 212.651 41.5475C212.231 43.9075 209.751 45.9875 206.001 47.4975C202.501 49.1075 197.661 50.1775 192.191 50.3575C167.921 51.1575 46.141 51.1575 21.871 50.3575C16.401 50.1775 11.561 49.1075 8.06096 47.4975C4.31096 45.9875 1.83096 43.9075 1.41096 41.5475C1.08096 39.6875 0.810959 37.8175 0.600959 35.9475C-0.379041 27.3575 -0.10904 18.7575 1.41096 10.1675C1.83096 7.81749 4.31096 5.72749 8.06096 4.21749C11.561 2.60749 16.401 1.53749 21.871 1.35749C46.141 0.557492 167.921 0.557492 192.191 1.35749C197.661 1.53749 202.501 2.60749 206.001 4.21749C209.751 5.72749 212.231 7.80749 212.651 10.1675C214.141 18.6075 214.441 27.0575 213.511 35.4975Z" fill="url(#paint2_radial_2012_20882)"/>
<g style="mix-blend-mode:soft-light" opacity="0.75">
<path d="M213.511 35.4974C213.291 37.5174 213.001 39.5274 212.651 41.5474C212.231 43.9074 209.751 45.9874 206.001 47.4974C202.501 49.1074 197.661 50.1774 192.191 50.3574C167.921 51.1574 46.141 51.1574 21.871 50.3574C16.401 50.1774 11.561 49.1074 8.06096 47.4974C4.31096 45.9874 1.83096 43.9074 1.41096 41.5474C1.08096 39.6874 0.810959 37.8174 0.600959 35.9474C-0.379041 27.3574 -0.10904 18.7574 1.41096 10.1674C1.83096 7.81745 4.31096 5.72745 8.06096 4.21745C11.561 2.60745 16.401 1.53745 21.871 1.35745C46.141 0.557446 167.921 0.557446 192.191 1.35745C197.661 1.53745 202.501 2.60745 206.001 4.21745C209.751 5.72745 212.231 7.80745 212.651 10.1674C214.141 18.6074 214.441 27.0574 213.511 35.4974Z" fill="url(#paint3_linear_2012_20882)"/>
</g>
<path style="mix-blend-mode:overlay" opacity="0.6" d="M214.031 26.0575C214.031 26.2875 214.031 26.5175 214.031 26.7475V26.8275C214.031 27.2175 214.011 27.6075 214.001 28.0075C213.971 29.1275 213.921 30.2375 213.841 31.3475C213.811 31.8075 213.771 32.2575 213.741 32.7175C213.681 33.4275 213.611 34.1475 213.531 34.8675C213.521 34.9675 213.511 35.0675 213.501 35.1675C212.681 35.2875 211.871 35.4175 211.061 35.5275C206.771 36.1575 202.481 36.7075 198.191 37.1975C196.681 37.3675 195.161 37.5275 193.651 37.6875C167.891 40.3075 44.591 40.4075 18.771 37.8475C17.401 37.7175 16.031 37.5675 14.651 37.4175C10.781 36.9975 6.91098 36.5075 3.04098 35.9575C2.22098 35.8475 1.41097 35.7275 0.600975 35.6075C0.600975 35.5675 0.600978 35.5175 0.580978 35.4775C0.480978 34.5775 0.390976 33.6875 0.320976 32.7875C0.270976 32.2575 0.240977 31.7275 0.200977 31.2075C0.130977 30.1875 0.0809758 29.1775 0.0509758 28.1575V28.1175C0.0509758 27.7975 0.030977 27.4675 0.020977 27.1475V27.1175C0.020977 26.6475 0.000976562 26.1875 0.000976562 25.7175C0.000976562 25.0375 0.00097725 24.3575 0.0309772 23.6775C0.0509772 23.0475 0.070975 22.4175 0.100975 21.7875C0.120975 21.2475 0.150975 20.7175 0.190975 20.1775C0.310975 18.2775 0.490978 16.3775 0.740978 14.4775C0.830978 13.7975 0.920977 13.1275 1.02098 12.4475C1.14098 11.6575 1.27098 10.8575 1.41098 10.0575C1.83098 7.72748 4.31098 5.65749 8.06098 4.16749C11.561 2.56749 16.401 1.50749 21.871 1.32749C46.151 0.537485 167.921 0.537485 192.191 1.32749C197.661 1.50749 202.511 2.56749 206.001 4.16749C209.751 5.65749 212.231 7.72748 212.651 10.0575C212.831 11.0375 212.991 12.0175 213.131 12.9875C213.221 13.6275 213.311 14.2575 213.381 14.8975C213.611 16.7275 213.781 18.5575 213.891 20.3875C213.921 20.8575 213.941 21.3175 213.961 21.7875C214.001 22.5775 214.021 23.3575 214.041 24.1475C214.041 24.7775 214.041 25.4075 214.041 26.0375L214.031 26.0575Z" fill="url(#paint4_radial_2012_20882)"/>
<g style="mix-blend-mode:soft-light" opacity="0.6">
<path d="M179.571 8.76748C179.601 11.8175 162.711 9.88749 102.221 9.88749C52.6109 9.88749 33.8309 11.9075 33.8009 8.85748C33.7709 5.80748 51.8909 3.29749 103.181 3.29749C162.001 3.29749 179.541 5.71748 179.571 8.76748Z" fill="white"/>
</g>
<path d="M43.5678 30.503V21.671C43.5678 20.983 44.1118 20.439 44.7998 20.439C45.4878 20.439 46.0318 20.983 46.0318 21.671V29.495H50.5918C51.2158 29.495 51.7118 29.991 51.7118 30.615C51.7118 31.239 51.2158 31.735 50.5918 31.735H44.7998C44.1118 31.735 43.5678 31.191 43.5678 30.503ZM54.706 31.735C54.018 31.735 53.474 31.191 53.474 30.503V21.767C53.474 21.079 54.018 20.535 54.706 20.535H60.914C61.522 20.535 62.018 21.031 62.018 21.639C62.018 22.247 61.522 22.727 60.914 22.727H55.922V24.999H60.194C60.802 24.999 61.298 25.495 61.298 26.103C61.298 26.711 60.802 27.191 60.194 27.191H55.922V29.543H60.994C61.602 29.543 62.098 30.039 62.098 30.647C62.098 31.255 61.602 31.735 60.994 31.735H54.706ZM63.4248 30.679C63.4248 30.503 63.4888 30.327 63.5688 30.151L67.4728 21.335C67.7448 20.727 68.2408 20.359 68.9128 20.359H69.0568C69.7288 20.359 70.2088 20.727 70.4808 21.335L74.3848 30.151C74.4648 30.327 74.5128 30.487 74.5128 30.647C74.5128 31.303 74.0008 31.831 73.3448 31.831C72.7688 31.831 72.3848 31.495 72.1608 30.983L71.4088 29.223H66.4808L65.6968 31.063C65.4888 31.543 65.0728 31.831 64.5608 31.831C63.9208 31.831 63.4248 31.319 63.4248 30.679ZM67.3928 27.047H70.4968L68.9448 23.351L67.3928 27.047ZM76.4428 30.503V21.767C76.4428 21.079 76.9868 20.535 77.6748 20.535H80.8108C84.3308 20.535 86.7628 22.951 86.7628 26.103V26.135C86.7628 29.287 84.3308 31.735 80.8108 31.735H77.6748C76.9868 31.735 76.4428 31.191 76.4428 30.503ZM78.9068 29.511H80.8108C82.8268 29.511 84.1868 28.151 84.1868 26.167V26.135C84.1868 24.151 82.8268 22.759 80.8108 22.759H78.9068V29.511ZM90.1904 31.735C89.5024 31.735 88.9584 31.191 88.9584 30.503V21.767C88.9584 21.079 89.5024 20.535 90.1904 20.535H96.3984C97.0064 20.535 97.5024 21.031 97.5024 21.639C97.5024 22.247 97.0064 22.727 96.3984 22.727H91.4064V24.999H95.6784C96.2864 24.999 96.7824 25.495 96.7824 26.103C96.7824 26.711 96.2864 27.191 95.6784 27.191H91.4064V29.543H96.4784C97.0864 29.543 97.5824 30.039 97.5824 30.647C97.5824 31.255 97.0864 31.735 96.4784 31.735H90.1904ZM99.6771 30.599V21.767C99.6771 21.079 100.221 20.535 100.909 20.535H104.797C106.221 20.535 107.325 20.935 108.061 21.671C108.685 22.295 109.021 23.175 109.021 24.231V24.263C109.021 26.023 108.141 27.111 106.781 27.671L108.493 29.751C108.733 30.055 108.893 30.311 108.893 30.695C108.893 31.383 108.317 31.831 107.725 31.831C107.165 31.831 106.797 31.559 106.509 31.191L104.109 28.151H102.141V30.599C102.141 31.287 101.597 31.831 100.909 31.831C100.221 31.831 99.6771 31.287 99.6771 30.599ZM102.141 25.975H104.637C105.837 25.975 106.525 25.335 106.525 24.391V24.359C106.525 23.303 105.789 22.759 104.589 22.759H102.141V25.975ZM111.24 30.503V21.767C111.24 21.079 111.784 20.535 112.472 20.535H116.44C117.72 20.535 118.728 20.887 119.368 21.527C119.88 22.039 120.136 22.663 120.136 23.431V23.463C120.136 24.727 119.464 25.431 118.664 25.879C119.96 26.375 120.76 27.127 120.76 28.631V28.663C120.76 30.711 119.096 31.735 116.568 31.735H112.472C111.784 31.735 111.24 31.191 111.24 30.503ZM113.64 25.063H115.912C117 25.063 117.688 24.711 117.688 23.879V23.847C117.688 23.111 117.112 22.695 116.072 22.695H113.64V25.063ZM113.64 29.575H116.568C117.656 29.575 118.312 29.191 118.312 28.359V28.327C118.312 27.575 117.752 27.111 116.488 27.111H113.64V29.575ZM128.227 31.927C124.771 31.927 122.291 29.351 122.291 26.167V26.135C122.291 22.951 124.803 20.343 128.259 20.343C131.715 20.343 134.195 22.919 134.195 26.103V26.135C134.195 29.319 131.683 31.927 128.227 31.927ZM128.259 29.655C130.243 29.655 131.619 28.087 131.619 26.167V26.135C131.619 24.215 130.211 22.615 128.227 22.615C126.243 22.615 124.867 24.183 124.867 26.103V26.135C124.867 28.055 126.275 29.655 128.259 29.655ZM135.206 30.679C135.206 30.503 135.27 30.327 135.35 30.151L139.254 21.335C139.526 20.727 140.022 20.359 140.694 20.359H140.838C141.51 20.359 141.99 20.727 142.262 21.335L146.166 30.151C146.246 30.327 146.294 30.487 146.294 30.647C146.294 31.303 145.782 31.831 145.126 31.831C144.55 31.831 144.166 31.495 143.942 30.983L143.19 29.223H138.262L137.478 31.063C137.27 31.543 136.854 31.831 136.342 31.831C135.702 31.831 135.206 31.319 135.206 30.679ZM139.174 27.047H142.278L140.726 23.351L139.174 27.047ZM148.224 30.599V21.767C148.224 21.079 148.768 20.535 149.456 20.535H153.344C154.768 20.535 155.872 20.935 156.608 21.671C157.232 22.295 157.568 23.175 157.568 24.231V24.263C157.568 26.023 156.688 27.111 155.328 27.671L157.04 29.751C157.28 30.055 157.44 30.311 157.44 30.695C157.44 31.383 156.864 31.831 156.272 31.831C155.712 31.831 155.344 31.559 155.056 31.191L152.656 28.151H150.688V30.599C150.688 31.287 150.144 31.831 149.456 31.831C148.768 31.831 148.224 31.287 148.224 30.599ZM150.688 25.975H153.184C154.384 25.975 155.072 25.335 155.072 24.391V24.359C155.072 23.303 154.336 22.759 153.136 22.759H150.688V25.975ZM159.787 30.503V21.767C159.787 21.079 160.331 20.535 161.019 20.535H164.155C167.675 20.535 170.107 22.951 170.107 26.103V26.135C170.107 29.287 167.675 31.735 164.155 31.735H161.019C160.331 31.735 159.787 31.191 159.787 30.503ZM162.251 29.511H164.155C166.171 29.511 167.531 28.151 167.531 26.167V26.135C167.531 24.151 166.171 22.759 164.155 22.759H162.251V29.511Z" fill="white"/>
<path d="M22.3766 42.735C30.2664 42.735 36.6623 36.3391 36.6623 28.4493C36.6623 20.5595 30.2664 14.1636 22.3766 14.1636C14.4869 14.1636 8.09094 20.5595 8.09094 28.4493C8.09094 36.3391 14.4869 42.735 22.3766 42.735Z" fill="url(#paint5_radial_2012_20882)"/>
<path d="M36.6623 27.0206C36.6623 27.5443 36.6348 28.0605 36.5786 28.5693C36.5536 28.803 36.5236 29.0355 36.4873 29.2655C36.4261 29.653 36.3486 30.0367 36.2561 30.4129C36.1911 30.6804 36.1186 30.9442 36.0386 31.2054C35.7911 32.0141 35.4749 32.7916 35.0949 33.5328C35.0149 33.6903 34.9312 33.8453 34.8449 33.999C32.4 38.3589 27.7327 41.3063 22.3779 41.3063C17.0231 41.3063 12.462 38.4264 9.99465 34.1465C9.90715 33.9953 9.82216 33.8428 9.74091 33.6878C9.35342 32.9553 9.02719 32.1854 8.77095 31.3841C8.6872 31.1242 8.61095 30.8604 8.54346 30.5942C8.42846 30.1492 8.33471 29.6967 8.26347 29.2355C8.22222 28.978 8.18972 28.7168 8.16347 28.4543C8.11597 27.983 8.09222 27.5043 8.09222 27.0206C8.09222 26.6856 8.10347 26.3519 8.12722 26.0231C8.14597 25.7519 8.17222 25.4831 8.20472 25.2169C8.26222 24.7657 8.33971 24.3207 8.43846 23.8844C8.5747 23.272 8.7497 22.6757 8.96344 22.0983C9.10093 21.7233 9.25343 21.3558 9.42092 20.9958C10.1346 19.4621 11.1134 18.0772 12.2996 16.8985H12.3008C12.7408 16.4572 13.212 16.0448 13.7107 15.6648C16.1144 13.8274 19.118 12.7361 22.3767 12.7361C25.6353 12.7361 28.8939 13.9223 31.3463 15.9035C31.845 16.306 32.315 16.741 32.755 17.206C33.8899 18.4047 34.8187 19.8009 35.4836 21.3358C35.6224 21.6583 35.7511 21.9858 35.8661 22.3195C36.0849 22.9432 36.2599 23.5882 36.3898 24.2482C36.4698 24.6507 36.5323 25.0582 36.5761 25.4731C36.5961 25.6556 36.6123 25.8381 36.6248 26.0231C36.6486 26.3519 36.6598 26.6856 36.6598 27.0206H36.6623Z" fill="url(#paint6_radial_2012_20882)"/>
<g style="mix-blend-mode:hard-light" opacity="0.2">
<path d="M22.3766 39.8776C30.2664 39.8776 36.6623 33.4817 36.6623 25.5919C36.6623 17.7022 30.2664 11.3063 22.3766 11.3063C14.4869 11.3063 8.09094 17.7022 8.09094 25.5919C8.09094 33.4817 14.4869 39.8776 22.3766 39.8776Z" fill="white"/>
</g>
<path d="M36.6623 25.0207C36.6623 26.6319 36.3948 28.1805 35.9036 29.6267C33.9874 35.2565 28.6551 39.3063 22.3766 39.3063C16.0981 39.3063 10.7133 35.2165 8.82091 29.543C8.34718 28.1218 8.09094 26.6019 8.09094 25.0219C8.09219 17.131 14.4869 10.735 22.3766 10.735C30.2663 10.735 36.6623 17.131 36.6623 25.0207Z" fill="url(#paint7_radial_2012_20882)"/>
<g style="mix-blend-mode:overlay" opacity="0.8" filter="url(#filter0_f_2012_20882)">
<path d="M22.3766 14.0211C28.7639 14.0211 34.1099 18.3734 35.4748 24.207C35.0548 17.3372 29.3513 11.8962 22.3766 11.8962C15.4019 11.8962 9.69836 17.3372 9.27838 24.207C10.6446 18.3734 15.9894 14.0211 22.3766 14.0211Z" fill="url(#paint8_linear_2012_20882)"/>
</g>
<g style="mix-blend-mode:soft-light" opacity="0.75" filter="url(#filter1_f_2012_20882)">
<path d="M22.3766 33.0203C17.4906 33.0203 13.0632 31.0566 9.83838 27.8768C11.1371 33.6028 16.2569 37.8776 22.3766 37.8776C28.4964 37.8776 33.6149 33.6028 34.9149 27.8768C31.6913 31.0566 27.2639 33.0203 22.3766 33.0203Z" fill="url(#paint9_linear_2012_20882)"/>
</g>
<path style="mix-blend-mode:overlay" opacity="0.6" d="M36.6625 25.0209C36.6625 25.1946 36.66 25.3671 36.6525 25.5396C36.6475 25.7008 36.6388 25.8621 36.6275 26.0233C36.5738 26.797 36.4588 27.5533 36.2863 28.287C36.2388 28.4932 36.1863 28.697 36.1288 28.8995C36.06 29.1444 35.985 29.3869 35.9038 29.6269C35.7663 29.6844 35.6276 29.7407 35.4901 29.7957C35.1626 29.9269 34.8338 30.0544 34.5064 30.1769C33.0714 30.7094 31.6352 31.1494 30.2003 31.4956C29.5116 31.6618 28.8241 31.8068 28.1354 31.9281C24.2568 32.6206 20.3744 32.6193 16.4896 31.9006C15.8058 31.7743 15.1209 31.6243 14.4359 31.4531C13.0622 31.1094 11.6873 30.6744 10.3111 30.1469C10.0036 30.0294 9.69484 29.9069 9.38611 29.7794C9.19861 29.7019 9.00987 29.6232 8.82238 29.5419C8.74363 29.3069 8.67113 29.0694 8.60489 28.8282C8.54364 28.607 8.48739 28.382 8.43614 28.1557C8.2824 27.462 8.1774 26.7508 8.12741 26.0233C8.11116 25.7908 8.09991 25.5571 8.09616 25.3221C8.09366 25.2221 8.09241 25.1221 8.09241 25.0209C8.09241 24.7271 8.10116 24.4371 8.11991 24.1484C8.1474 23.6884 8.19615 23.2359 8.2674 22.7897C8.32115 22.4372 8.3899 22.0885 8.47114 21.7447C8.81613 20.2698 9.39111 18.8824 10.1561 17.6237C10.4436 17.1487 10.7586 16.6924 11.0973 16.2575C13.7097 12.8976 17.792 10.7364 22.3781 10.7364C26.9642 10.7364 31.3527 13.0638 33.9476 16.6424C34.2651 17.0799 34.5589 17.5374 34.8251 18.0111C35.5176 19.2336 36.0325 20.5685 36.3375 21.981C36.4025 22.2797 36.4588 22.5822 36.5038 22.8872C36.5813 23.4009 36.63 23.9234 36.65 24.4534C36.6588 24.6409 36.6625 24.8309 36.6625 25.0209Z" fill="url(#paint10_radial_2012_20882)"/>
<g style="mix-blend-mode:soft-light" opacity="0.6">
<path d="M28.1052 15.5697C28.1127 17.1371 25.284 16.1321 22.1016 16.1471C18.9193 16.1609 16.5894 17.1883 16.5819 15.6209C16.5744 14.0535 19.1493 12.771 22.3304 12.7573C25.5128 12.7435 28.0977 14.0022 28.1039 15.5697H28.1052Z" fill="white"/>
</g>
<path d="M16.3068 15.9906C17.5901 15.1106 18.3111 13.9315 17.9171 13.3571C17.5232 12.7826 16.1636 13.0303 14.8803 13.9103C13.5971 14.7903 12.8761 15.9694 13.27 16.5438C13.6639 17.1183 15.0236 16.8706 16.3068 15.9906Z" fill="url(#paint11_radial_2012_20882)"/>
<path d="M12.9639 18.2472C13.3777 17.8044 13.4789 17.2264 13.1899 16.9563C12.9009 16.6863 12.3311 16.8263 11.9173 17.2692C11.5034 17.712 11.4023 18.29 11.6913 18.56C11.9803 18.8301 12.55 18.69 12.9639 18.2472Z" fill="url(#paint12_radial_2012_20882)"/>
<path d="M11.0776 19.873C11.3001 19.635 11.3545 19.3243 11.1992 19.1791C11.0438 19.0339 10.7375 19.1092 10.5151 19.3473C10.2926 19.5854 10.2382 19.8961 10.3935 20.0412C10.5489 20.1864 10.8552 20.1111 11.0776 19.873Z" fill="url(#paint13_radial_2012_20882)"/>
<path d="M28.1204 14.5716C28.3222 14.2313 28.063 13.7049 27.5416 13.3958C27.0203 13.0868 26.4341 13.112 26.2324 13.4523C26.0306 13.7926 26.2898 14.3189 26.8112 14.628C27.3325 14.9371 27.9187 14.9118 28.1204 14.5716Z" fill="url(#paint14_radial_2012_20882)"/>
<path d="M29.4488 15.423C29.5572 15.2401 29.4179 14.9571 29.1376 14.7909C28.8573 14.6248 28.5422 14.6384 28.4337 14.8213C28.3253 15.0042 28.4646 15.2871 28.7449 15.4533C29.0252 15.6194 29.3403 15.6059 29.4488 15.423Z" fill="url(#paint15_radial_2012_20882)"/>
<path d="M33.8226 20.356C33.998 20.2357 33.9908 19.9204 33.8065 19.6517C33.6222 19.383 33.3307 19.2626 33.1553 19.3829C32.98 19.5031 32.9872 19.8184 33.1715 20.0872C33.3558 20.3559 33.6473 20.4762 33.8226 20.356Z" fill="url(#paint16_radial_2012_20882)"/>
<path d="M34.8223 29.0142C34.5548 30.1442 33.8199 30.9366 33.5174 30.8654C33.2149 30.7941 33.7674 30.2167 34.0349 29.0867C34.3024 27.9568 34.1849 26.7031 34.4873 26.7743C34.7898 26.8455 35.0898 27.8843 34.8223 29.0142Z" fill="url(#paint17_radial_2012_20882)"/>
<path d="M193.377 42.735C201.266 42.735 207.662 36.3391 207.662 28.4493C207.662 20.5595 201.266 14.1636 193.377 14.1636C185.487 14.1636 179.091 20.5595 179.091 28.4493C179.091 36.3391 185.487 42.735 193.377 42.735Z" fill="url(#paint18_radial_2012_20882)"/>
<path d="M207.662 27.0206C207.662 27.5443 207.635 28.0605 207.579 28.5693C207.554 28.803 207.524 29.0355 207.487 29.2655C207.426 29.653 207.349 30.0367 207.256 30.4129C207.191 30.6804 207.119 30.9442 207.039 31.2054C206.791 32.0141 206.475 32.7916 206.095 33.5328C206.015 33.6903 205.931 33.8453 205.845 33.999C203.4 38.3589 198.733 41.3063 193.378 41.3063C188.023 41.3063 183.462 38.4264 180.995 34.1465C180.907 33.9953 180.822 33.8428 180.741 33.6878C180.353 32.9553 180.027 32.1854 179.771 31.3841C179.687 31.1242 179.611 30.8604 179.543 30.5942C179.428 30.1492 179.335 29.6967 179.263 29.2355C179.222 28.978 179.19 28.7168 179.163 28.4543C179.116 27.983 179.092 27.5043 179.092 27.0206C179.092 26.6856 179.103 26.3519 179.127 26.0231C179.146 25.7519 179.172 25.4831 179.205 25.2169C179.262 24.7657 179.34 24.3207 179.438 23.8844C179.575 23.272 179.75 22.6757 179.963 22.0983C180.101 21.7233 180.253 21.3558 180.421 20.9958C181.135 19.4621 182.113 18.0772 183.3 16.8985H183.301C183.741 16.4572 184.212 16.0448 184.711 15.6648C187.114 13.8274 190.118 12.7361 193.377 12.7361C196.635 12.7361 199.894 13.9223 202.346 15.9035C202.845 16.306 203.315 16.741 203.755 17.206C204.89 18.4047 205.819 19.8009 206.484 21.3358C206.622 21.6583 206.751 21.9858 206.866 22.3195C207.085 22.9432 207.26 23.5882 207.39 24.2482C207.47 24.6507 207.532 25.0582 207.576 25.4731C207.596 25.6556 207.612 25.8381 207.625 26.0231C207.649 26.3519 207.66 26.6856 207.66 27.0206H207.662Z" fill="url(#paint19_radial_2012_20882)"/>
<g style="mix-blend-mode:hard-light" opacity="0.2">
<path d="M193.377 39.8776C201.266 39.8776 207.662 33.4817 207.662 25.5919C207.662 17.7022 201.266 11.3063 193.377 11.3063C185.487 11.3063 179.091 17.7022 179.091 25.5919C179.091 33.4817 185.487 39.8776 193.377 39.8776Z" fill="white"/>
</g>
<path d="M207.662 25.0207C207.662 26.6319 207.395 28.1805 206.904 29.6267C204.987 35.2565 199.655 39.3063 193.377 39.3063C187.098 39.3063 181.713 35.2165 179.821 29.543C179.347 28.1218 179.091 26.6019 179.091 25.0219C179.092 17.131 185.487 10.735 193.377 10.735C201.266 10.735 207.662 17.131 207.662 25.0207Z" fill="url(#paint20_radial_2012_20882)"/>
<g style="mix-blend-mode:overlay" opacity="0.8" filter="url(#filter2_f_2012_20882)">
<path d="M193.377 14.0211C199.764 14.0211 205.11 18.3734 206.475 24.207C206.055 17.3372 200.351 11.8962 193.377 11.8962C186.402 11.8962 180.698 17.3372 180.278 24.207C181.645 18.3734 186.989 14.0211 193.377 14.0211Z" fill="url(#paint21_linear_2012_20882)"/>
</g>
<g style="mix-blend-mode:soft-light" opacity="0.75" filter="url(#filter3_f_2012_20882)">
<path d="M193.377 33.0203C188.491 33.0203 184.063 31.0566 180.838 27.8768C182.137 33.6028 187.257 37.8776 193.377 37.8776C199.496 37.8776 204.615 33.6028 205.915 27.8768C202.691 31.0566 198.264 33.0203 193.377 33.0203Z" fill="url(#paint22_linear_2012_20882)"/>
</g>
<path style="mix-blend-mode:overlay" opacity="0.6" d="M207.662 25.0209C207.662 25.1946 207.66 25.3671 207.652 25.5396C207.647 25.7008 207.639 25.8621 207.627 26.0233C207.574 26.797 207.459 27.5533 207.286 28.287C207.239 28.4932 207.186 28.697 207.129 28.8995C207.06 29.1444 206.985 29.3869 206.904 29.6269C206.766 29.6844 206.628 29.7407 206.49 29.7957C206.163 29.9269 205.834 30.0544 205.506 30.1769C204.071 30.7094 202.635 31.1494 201.2 31.4956C200.512 31.6618 199.824 31.8068 199.135 31.9281C195.257 32.6206 191.374 32.6193 187.49 31.9006C186.806 31.7743 186.121 31.6243 185.436 31.4531C184.062 31.1094 182.687 30.6744 181.311 30.1469C181.004 30.0294 180.695 29.9069 180.386 29.7794C180.199 29.7019 180.01 29.6232 179.822 29.5419C179.744 29.3069 179.671 29.0694 179.605 28.8282C179.544 28.607 179.487 28.382 179.436 28.1557C179.282 27.462 179.177 26.7508 179.127 26.0233C179.111 25.7908 179.1 25.5571 179.096 25.3221C179.094 25.2221 179.092 25.1221 179.092 25.0209C179.092 24.7271 179.101 24.4371 179.12 24.1484C179.147 23.6884 179.196 23.2359 179.267 22.7897C179.321 22.4372 179.39 22.0885 179.471 21.7447C179.816 20.2698 180.391 18.8824 181.156 17.6237C181.444 17.1487 181.759 16.6924 182.097 16.2575C184.71 12.8976 188.792 10.7364 193.378 10.7364C197.964 10.7364 202.353 13.0638 204.948 16.6424C205.265 17.0799 205.559 17.5374 205.825 18.0111C206.518 19.2336 207.033 20.5685 207.337 21.981C207.402 22.2797 207.459 22.5822 207.504 22.8872C207.581 23.4009 207.63 23.9234 207.65 24.4534C207.659 24.6409 207.662 24.8309 207.662 25.0209Z" fill="url(#paint23_radial_2012_20882)"/>
<g style="mix-blend-mode:soft-light" opacity="0.6">
<path d="M199.105 15.5697C199.113 17.1371 196.284 16.1321 193.102 16.1471C189.919 16.1609 187.589 17.1883 187.582 15.6209C187.574 14.0535 190.149 12.771 193.33 12.7573C196.513 12.7435 199.098 14.0022 199.104 15.5697H199.105Z" fill="white"/>
</g>
<path d="M187.307 15.9906C188.59 15.1106 189.311 13.9315 188.917 13.3571C188.523 12.7826 187.164 13.0303 185.88 13.9103C184.597 14.7903 183.876 15.9694 184.27 16.5438C184.664 17.1183 186.024 16.8706 187.307 15.9906Z" fill="url(#paint24_radial_2012_20882)"/>
<path d="M183.964 18.2472C184.378 17.8044 184.479 17.2264 184.19 16.9563C183.901 16.6863 183.331 16.8263 182.917 17.2692C182.503 17.712 182.402 18.29 182.691 18.56C182.98 18.8301 183.55 18.69 183.964 18.2472Z" fill="url(#paint25_radial_2012_20882)"/>
<path d="M182.078 19.873C182.3 19.635 182.355 19.3243 182.199 19.1791C182.044 19.0339 181.738 19.1092 181.515 19.3473C181.293 19.5854 181.238 19.8961 181.394 20.0412C181.549 20.1864 181.855 20.1111 182.078 19.873Z" fill="url(#paint26_radial_2012_20882)"/>
<path d="M199.12 14.5716C199.322 14.2313 199.063 13.7049 198.542 13.3958C198.02 13.0868 197.434 13.112 197.232 13.4523C197.031 13.7926 197.29 14.3189 197.811 14.628C198.333 14.9371 198.919 14.9118 199.12 14.5716Z" fill="url(#paint27_radial_2012_20882)"/>
<path d="M200.449 15.423C200.557 15.2401 200.418 14.9571 200.138 14.7909C199.857 14.6248 199.542 14.6384 199.434 14.8213C199.325 15.0042 199.465 15.2871 199.745 15.4533C200.025 15.6194 200.34 15.6059 200.449 15.423Z" fill="url(#paint28_radial_2012_20882)"/>
<path d="M204.823 20.356C204.998 20.2357 204.991 19.9204 204.806 19.6517C204.622 19.383 204.331 19.2626 204.155 19.3829C203.98 19.5031 203.987 19.8184 204.171 20.0872C204.356 20.3559 204.647 20.4762 204.823 20.356Z" fill="url(#paint29_radial_2012_20882)"/>
<path d="M205.822 29.0142C205.555 30.1442 204.82 30.9366 204.517 30.8654C204.215 30.7941 204.767 30.2167 205.035 29.0867C205.302 27.9568 205.185 26.7031 205.487 26.7743C205.79 26.8455 206.09 27.8843 205.822 29.0142Z" fill="url(#paint30_radial_2012_20882)"/>
<defs>
<filter id="filter0_f_2012_20882" x="1.27838" y="3.89619" width="42.1965" height="28.3108" filterUnits="userSpaceOnUse" color-interpolation-filters="sRGB">
<feFlood flood-opacity="0" result="BackgroundImageFix"/>
<feBlend mode="normal" in="SourceGraphic" in2="BackgroundImageFix" result="shape"/>
<feGaussianBlur stdDeviation="4" result="effect1_foregroundBlur_2012_20882"/>
</filter>
<filter id="filter1_f_2012_20882" x="1.83838" y="19.8768" width="41.0765" height="26.0009" filterUnits="userSpaceOnUse" color-interpolation-filters="sRGB">
<feFlood flood-opacity="0" result="BackgroundImageFix"/>
<feBlend mode="normal" in="SourceGraphic" in2="BackgroundImageFix" result="shape"/>
<feGaussianBlur stdDeviation="4" result="effect1_foregroundBlur_2012_20882"/>
</filter>
<filter id="filter2_f_2012_20882" x="172.278" y="3.89619" width="42.1964" height="28.3108" filterUnits="userSpaceOnUse" color-interpolation-filters="sRGB">
<feFlood flood-opacity="0" result="BackgroundImageFix"/>
<feBlend mode="normal" in="SourceGraphic" in2="BackgroundImageFix" result="shape"/>
<feGaussianBlur stdDeviation="4" result="effect1_foregroundBlur_2012_20882"/>
</filter>
<filter id="filter3_f_2012_20882" x="172.838" y="19.8768" width="41.0765" height="26.0009" filterUnits="userSpaceOnUse" color-interpolation-filters="sRGB">
<feFlood flood-opacity="0" result="BackgroundImageFix"/>
<feBlend mode="normal" in="SourceGraphic" in2="BackgroundImageFix" result="shape"/>
<feGaussianBlur stdDeviation="4" result="effect1_foregroundBlur_2012_20882"/>
</filter>
<radialGradient id="paint0_radial_2012_20882" cx="0" cy="0" r="1" gradientUnits="userSpaceOnUse" gradientTransform="translate(105.847 30.6509) scale(98.3808 42.1632)">
<stop/>
<stop offset="0.84" stop-opacity="0.2"/>
</radialGradient>
<radialGradient id="paint1_radial_2012_20882" cx="0" cy="0" r="1" gradientUnits="userSpaceOnUse" gradientTransform="translate(105.847 28.5287) scale(98.3808 42.1632)">
<stop stop-color="#F79D06"/>
<stop offset="0.98" stop-color="#D36101"/>
</radialGradient>
<radialGradient id="paint2_radial_2012_20882" cx="0" cy="0" r="1" gradientUnits="userSpaceOnUse" gradientTransform="translate(106.412 6.86654) rotate(-92.49) scale(43.9175 229.169)">
<stop stop-color="#F79D06"/>
<stop offset="0.98" stop-color="#D36101"/>
</radialGradient>
<linearGradient id="paint3_linear_2012_20882" x1="108.32" y1="50.7425" x2="108.32" y2="38.8475" gradientUnits="userSpaceOnUse">
<stop/>
<stop offset="1" stop-opacity="0"/>
</linearGradient>
<radialGradient id="paint4_radial_2012_20882" cx="0" cy="0" r="1" gradientUnits="userSpaceOnUse" gradientTransform="translate(106.679 11.2541) scale(101.795 43.6266)">
<stop stop-color="white"/>
<stop offset="1" stop-color="white" stop-opacity="0"/>
</radialGradient>
<radialGradient id="paint5_radial_2012_20882" cx="0" cy="0" r="1" gradientUnits="userSpaceOnUse" gradientTransform="translate(22.3766 28.4493) scale(14.2857)">
<stop/>
<stop offset="0.84" stop-opacity="0.2"/>
</radialGradient>
<radialGradient id="paint6_radial_2012_20882" cx="0" cy="0" r="1" gradientUnits="userSpaceOnUse" gradientTransform="translate(22.3767 27.0206) scale(14.2844)">
<stop stop-color="#6DEA01"/>
<stop offset="0.44" stop-color="#6DEA01"/>
<stop offset="0.68" stop-color="#42BA00"/>
<stop offset="1" stop-color="#0E8000"/>
</radialGradient>
<radialGradient id="paint7_radial_2012_20882" cx="0" cy="0" r="1" gradientUnits="userSpaceOnUse" gradientTransform="translate(22.655 22.1626) rotate(-91.15) scale(17.2281 19.9846)">
<stop stop-color="#6DEA01"/>
<stop offset="0.44" stop-color="#6DEA01"/>
<stop offset="0.68" stop-color="#42BA00"/>
<stop offset="1" stop-color="#0E8000"/>
</radialGradient>
<linearGradient id="paint8_linear_2012_20882" x1="22.3766" y1="24.207" x2="22.3766" y2="11.8962" gradientUnits="userSpaceOnUse">
<stop stop-color="white" stop-opacity="0"/>
<stop offset="1" stop-color="white"/>
</linearGradient>
<linearGradient id="paint9_linear_2012_20882" x1="22.3766" y1="37.8776" x2="22.3766" y2="27.8768" gradientUnits="userSpaceOnUse">
<stop/>
<stop offset="0.09" stop-color="#0C0C0C"/>
<stop offset="0.24" stop-color="#2C2C2C"/>
<stop offset="0.46" stop-color="#616161"/>
<stop offset="0.71" stop-color="#AAAAAA"/>
<stop offset="0.98" stop-color="white"/>
</linearGradient>
<radialGradient id="paint10_radial_2012_20882" cx="0" cy="0" r="1" gradientUnits="userSpaceOnUse" gradientTransform="translate(22.0806 18.8574) scale(15.6294 15.6294)">
<stop stop-color="white"/>
<stop offset="1" stop-color="white" stop-opacity="0"/>
</radialGradient>
<radialGradient id="paint11_radial_2012_20882" cx="0" cy="0" r="1" gradientUnits="userSpaceOnUse" gradientTransform="translate(15.3301 14.9632) rotate(-32.93) scale(2.07087 1.56164)">
<stop offset="0.51" stop-color="white"/>
<stop offset="1" stop-color="white" stop-opacity="0"/>
</radialGradient>
<radialGradient id="paint12_radial_2012_20882" cx="0" cy="0" r="1" gradientUnits="userSpaceOnUse" gradientTransform="translate(11.4178 18.6369) rotate(-44.74) scale(0.536954 1.35952)">
<stop offset="0.51" stop-color="white"/>
<stop offset="1" stop-color="white" stop-opacity="0"/>
</radialGradient>
<radialGradient id="paint13_radial_2012_20882" cx="0" cy="0" r="1" gradientUnits="userSpaceOnUse" gradientTransform="translate(9.64673 20.654) rotate(-44.74) scale(0.289038 0.73182)">
<stop offset="0.51" stop-color="white"/>
<stop offset="1" stop-color="white" stop-opacity="0"/>
</radialGradient>
<radialGradient id="paint14_radial_2012_20882" cx="0" cy="0" r="1" gradientUnits="userSpaceOnUse" gradientTransform="translate(19.3111 8.80396) rotate(-147.14) scale(0.536954 1.35952)">
<stop offset="0.51" stop-color="white"/>
<stop offset="1" stop-color="white" stop-opacity="0"/>
</radialGradient>
<radialGradient id="paint15_radial_2012_20882" cx="0" cy="0" r="1" gradientUnits="userSpaceOnUse" gradientTransform="translate(21.2398 9.98735) rotate(-147.14) scale(0.289038 0.731821)">
<stop offset="0.51" stop-color="white"/>
<stop offset="1" stop-color="white" stop-opacity="0"/>
</radialGradient>
<radialGradient id="paint16_radial_2012_20882" cx="0" cy="0" r="1" gradientUnits="userSpaceOnUse" gradientTransform="translate(28.1178 11.0619) rotate(-122.24) scale(0.289039 0.731819)">
<stop offset="0.51" stop-color="white"/>
<stop offset="1" stop-color="white" stop-opacity="0"/>
</radialGradient>
<radialGradient id="paint17_radial_2012_20882" cx="0" cy="0" r="1" gradientUnits="userSpaceOnUse" gradientTransform="translate(34.1866 29.0058) rotate(-77.92) scale(2.09234 0.818742)">
<stop stop-color="white"/>
<stop offset="1" stop-color="white" stop-opacity="0"/>
</radialGradient>
<radialGradient id="paint18_radial_2012_20882" cx="0" cy="0" r="1" gradientUnits="userSpaceOnUse" gradientTransform="translate(193.377 28.4493) scale(14.2857)">
<stop/>
<stop offset="0.84" stop-opacity="0.2"/>
</radialGradient>
<radialGradient id="paint19_radial_2012_20882" cx="0" cy="0" r="1" gradientUnits="userSpaceOnUse" gradientTransform="translate(193.377 27.0206) scale(14.2844)">
<stop stop-color="#6DEA01"/>
<stop offset="0.44" stop-color="#6DEA01"/>
<stop offset="0.68" stop-color="#42BA00"/>
<stop offset="1" stop-color="#0E8000"/>
</radialGradient>
<radialGradient id="paint20_radial_2012_20882" cx="0" cy="0" r="1" gradientUnits="userSpaceOnUse" gradientTransform="translate(193.655 22.1626) rotate(-91.15) scale(17.2281 19.9846)">
<stop stop-color="#6DEA01"/>
<stop offset="0.44" stop-color="#6DEA01"/>
<stop offset="0.68" stop-color="#42BA00"/>
<stop offset="1" stop-color="#0E8000"/>
</radialGradient>
<linearGradient id="paint21_linear_2012_20882" x1="193.377" y1="24.207" x2="193.377" y2="11.8962" gradientUnits="userSpaceOnUse">
<stop stop-color="white" stop-opacity="0"/>
<stop offset="1" stop-color="white"/>
</linearGradient>
<linearGradient id="paint22_linear_2012_20882" x1="193.377" y1="37.8776" x2="193.377" y2="27.8768" gradientUnits="userSpaceOnUse">
<stop/>
<stop offset="0.09" stop-color="#0C0C0C"/>
<stop offset="0.24" stop-color="#2C2C2C"/>
<stop offset="0.46" stop-color="#616161"/>
<stop offset="0.71" stop-color="#AAAAAA"/>
<stop offset="0.98" stop-color="white"/>
</linearGradient>
<radialGradient id="paint23_radial_2012_20882" cx="0" cy="0" r="1" gradientUnits="userSpaceOnUse" gradientTransform="translate(193.081 18.8574) scale(15.6294 15.6294)">
<stop stop-color="white"/>
<stop offset="1" stop-color="white" stop-opacity="0"/>
</radialGradient>
<radialGradient id="paint24_radial_2012_20882" cx="0" cy="0" r="1" gradientUnits="userSpaceOnUse" gradientTransform="translate(186.33 14.9632) rotate(-32.93) scale(2.07087 1.56164)">
<stop offset="0.51" stop-color="white"/>
<stop offset="1" stop-color="white" stop-opacity="0"/>
</radialGradient>
<radialGradient id="paint25_radial_2012_20882" cx="0" cy="0" r="1" gradientUnits="userSpaceOnUse" gradientTransform="translate(182.418 18.6369) rotate(-44.74) scale(0.536954 1.35952)">
<stop offset="0.51" stop-color="white"/>
<stop offset="1" stop-color="white" stop-opacity="0"/>
</radialGradient>
<radialGradient id="paint26_radial_2012_20882" cx="0" cy="0" r="1" gradientUnits="userSpaceOnUse" gradientTransform="translate(180.647 20.654) rotate(-44.74) scale(0.289038 0.73182)">
<stop offset="0.51" stop-color="white"/>
<stop offset="1" stop-color="white" stop-opacity="0"/>
</radialGradient>
<radialGradient id="paint27_radial_2012_20882" cx="0" cy="0" r="1" gradientUnits="userSpaceOnUse" gradientTransform="translate(190.311 8.80396) rotate(-147.14) scale(0.536954 1.35952)">
<stop offset="0.51" stop-color="white"/>
<stop offset="1" stop-color="white" stop-opacity="0"/>
</radialGradient>
<radialGradient id="paint28_radial_2012_20882" cx="0" cy="0" r="1" gradientUnits="userSpaceOnUse" gradientTransform="translate(192.24 9.98735) rotate(-147.14) scale(0.289038 0.731821)">
<stop offset="0.51" stop-color="white"/>
<stop offset="1" stop-color="white" stop-opacity="0"/>
</radialGradient>
<radialGradient id="paint29_radial_2012_20882" cx="0" cy="0" r="1" gradientUnits="userSpaceOnUse" gradientTransform="translate(199.118 11.0619) rotate(-122.24) scale(0.289039 0.731819)">
<stop offset="0.51" stop-color="white"/>
<stop offset="1" stop-color="white" stop-opacity="0"/>
</radialGradient>
<radialGradient id="paint30_radial_2012_20882" cx="0" cy="0" r="1" gradientUnits="userSpaceOnUse" gradientTransform="translate(205.187 29.0058) rotate(-77.92) scale(2.09234 0.818742)">
<stop stop-color="white"/>
<stop offset="1" stop-color="white" stop-opacity="0"/>
</radialGradient>
</defs>
</svg>
