<svg width="215" height="56" viewBox="0 0 215 56" fill="none" xmlns="http://www.w3.org/2000/svg">
<path d="M214.122 31.7025C214.122 32.9025 214.072 34.1025 214.012 35.3125C213.892 37.6825 213.672 40.0525 213.352 42.4225C213.172 43.7525 212.972 45.0825 212.732 46.4125C212.312 48.7425 209.832 50.8125 206.082 52.3025C202.582 53.9025 197.742 54.9625 192.272 55.1425C168.002 55.9325 46.2319 55.9325 21.9519 55.1425C16.4819 54.9625 11.6419 53.9025 8.14189 52.3025C4.39189 50.8125 1.91189 48.7425 1.49189 46.4125C1.33189 45.5325 1.19189 44.6525 1.06189 43.7725C0.671893 41.1825 0.401892 38.5825 0.251892 35.9925C0.161892 34.5225 0.111892 33.0425 0.101892 31.5725C0.081892 30.5225 0.101893 29.4725 0.131893 28.4225V28.3825C0.181893 26.8725 0.261893 25.3525 0.381893 23.8425C0.481893 22.6325 0.601892 21.4225 0.751892 20.2225C0.951892 18.5925 1.20189 16.9625 1.49189 15.3325C1.71189 14.1025 2.50189 12.9525 3.75189 11.9125C4.87189 10.9825 6.36189 10.1425 8.13189 9.44251C11.6319 7.84251 16.4719 6.78251 21.9419 6.60251C46.2219 5.81251 167.992 5.81251 192.262 6.60251C197.732 6.78251 202.572 7.84251 206.072 9.44251C208.332 10.3425 210.132 11.4425 211.292 12.7025C212.062 13.5225 212.562 14.4125 212.722 15.3425C213.032 17.0625 213.292 18.7725 213.492 20.4925C213.652 21.7825 213.782 23.0725 213.872 24.3625C213.972 25.6725 214.042 26.9725 214.082 28.2825C214.122 29.4325 214.132 30.5725 214.122 31.7125V31.7025Z" fill="url(#paint0_radial_2012_21518)"/>
<path d="M214.022 33.0825C213.962 34.3325 213.872 35.5925 213.752 36.8425C213.552 38.9825 213.272 41.1225 212.912 43.2625C212.852 43.6025 212.792 43.9425 212.732 44.2825C212.312 46.6125 209.832 48.6825 206.082 50.1725C202.582 51.7725 197.742 52.8325 192.272 53.0125C168.002 53.8025 46.2319 53.8025 21.9519 53.0125C16.4819 52.8325 11.6419 51.7725 8.1419 50.1725C4.5819 48.7525 2.1719 46.8225 1.5719 44.6325C1.5319 44.5125 1.5119 44.4025 1.4919 44.2825C1.0919 42.0525 0.781897 39.8225 0.551897 37.5925C0.401897 36.1225 0.281897 34.6425 0.211897 33.1725C0.101897 31.2525 0.0718981 29.3325 0.101898 27.4025V27.3725C0.111898 26.9025 0.121897 26.4225 0.141897 25.9525C0.181897 24.6125 0.261898 23.2825 0.361898 21.9425C0.551898 19.4925 0.851898 17.0325 1.2519 14.5825C1.3319 14.1225 1.4019 13.6525 1.4919 13.1925C1.9119 10.8625 4.3919 8.79249 8.1419 7.30249C11.6419 5.70249 16.4819 4.6425 21.9519 4.4625C46.2319 3.6725 168.002 3.6725 192.272 4.4625C197.742 4.6425 202.582 5.70249 206.082 7.30249C209.832 8.79249 212.312 10.8625 212.732 13.1925C212.842 13.8025 212.942 14.4125 213.042 15.0225C213.412 17.3425 213.682 19.6625 213.872 21.9825C213.982 23.4225 214.062 24.8625 214.102 26.3025C214.102 26.5325 214.122 26.7625 214.122 27.0025V27.0825C214.162 29.0825 214.122 31.0825 214.022 33.0725V33.0825Z" fill="url(#paint1_radial_2012_21518)"/>
<g style="mix-blend-mode:hard-light" opacity="0.2">
<path d="M212.732 11.2725C212.312 8.90249 209.832 6.79249 206.082 5.27249C202.582 3.64249 197.742 2.56249 192.272 2.38249C168.002 1.57249 46.2219 1.57249 21.9519 2.38249C16.4819 2.56249 11.6419 3.64249 8.1419 5.27249C4.4019 6.79249 1.9119 8.89249 1.4919 11.2725C-0.358099 21.8125 -0.358099 32.3625 1.4919 42.9025C1.9119 45.2725 4.3919 47.3825 8.1419 48.9025C11.6419 50.5325 16.4819 51.6125 21.9519 51.7925C46.2219 52.6025 168.002 52.6025 192.272 51.7925C197.742 51.6125 202.582 50.5325 206.082 48.9025C209.822 47.3825 212.312 45.2825 212.732 42.9025C214.582 32.3625 214.582 21.8125 212.732 11.2725Z" fill="white"/>
</g>
<path d="M213.602 35.7625C213.382 37.7825 213.092 39.7925 212.742 41.8125C212.322 44.1725 209.842 46.2525 206.092 47.7625C202.592 49.3725 197.752 50.4425 192.282 50.6225C168.012 51.4225 46.2319 51.4225 21.9619 50.6225C16.4919 50.4425 11.6519 49.3725 8.1519 47.7625C4.4019 46.2525 1.9219 44.1725 1.5019 41.8125C1.1719 39.9525 0.901901 38.0825 0.691901 36.2125C-0.288099 27.6225 -0.0180974 19.0225 1.5019 10.4325C1.9219 8.08251 4.4019 5.99251 8.1519 4.48251C11.6519 2.87251 16.4919 1.80251 21.9619 1.62251C46.2319 0.822507 168.012 0.822507 192.282 1.62251C197.752 1.80251 202.592 2.87251 206.092 4.48251C209.842 5.99251 212.322 8.07251 212.742 10.4325C214.232 18.8725 214.532 27.3225 213.602 35.7625Z" fill="url(#paint2_radial_2012_21518)"/>
<g style="mix-blend-mode:soft-light" opacity="0.75">
<path d="M213.602 35.7625C213.382 37.7825 213.092 39.7925 212.742 41.8125C212.322 44.1725 209.842 46.2525 206.092 47.7625C202.592 49.3725 197.752 50.4425 192.282 50.6225C168.012 51.4225 46.2319 51.4225 21.9619 50.6225C16.4919 50.4425 11.6519 49.3725 8.1519 47.7625C4.4019 46.2525 1.9219 44.1725 1.5019 41.8125C1.1719 39.9525 0.901901 38.0825 0.691901 36.2125C-0.288099 27.6225 -0.0180974 19.0225 1.5019 10.4325C1.9219 8.08246 4.4019 5.99246 8.1519 4.48246C11.6519 2.87246 16.4919 1.80246 21.9619 1.62246C46.2319 0.822461 168.012 0.822461 192.282 1.62246C197.752 1.80246 202.592 2.87246 206.092 4.48246C209.842 5.99246 212.322 8.07246 212.742 10.4325C214.232 18.8725 214.532 27.3225 213.602 35.7625Z" fill="url(#paint3_linear_2012_21518)"/>
</g>
<path style="mix-blend-mode:overlay" opacity="0.6" d="M214.212 26.3225C214.212 26.5525 214.212 26.7825 214.212 27.0125V27.0925C214.212 27.4825 214.192 27.8725 214.182 28.2725C214.152 29.3925 214.102 30.5025 214.022 31.6125C213.992 32.0725 213.952 32.5225 213.922 32.9825C213.862 33.6925 213.792 34.4125 213.712 35.1325C213.702 35.2325 213.692 35.3325 213.682 35.4325C212.862 35.5525 212.052 35.6825 211.242 35.7925C206.952 36.4225 202.662 36.9725 198.372 37.4625C196.862 37.6325 195.342 37.7925 193.832 37.9525C168.072 40.5725 44.7719 40.6725 18.9519 38.1125C17.5819 37.9825 16.2119 37.8325 14.8319 37.6825C10.9619 37.2625 7.09189 36.7725 3.22189 36.2225C2.40189 36.1125 1.59188 35.9925 0.781883 35.8725C0.781883 35.8325 0.781887 35.7825 0.761887 35.7425C0.661887 34.8425 0.571884 33.9525 0.501884 33.0525C0.451884 32.5225 0.421886 31.9925 0.381886 31.4725C0.311886 30.4525 0.261884 29.4425 0.231884 28.4225V28.3825C0.231884 28.0625 0.211885 27.7325 0.201885 27.4125V27.3825C0.201885 26.9125 0.181885 26.4525 0.181885 25.9825C0.181885 25.3025 0.181885 24.6225 0.211885 23.9425C0.231885 23.3125 0.251883 22.6825 0.281883 22.0525C0.301883 21.5125 0.331883 20.9825 0.371883 20.4425C0.491883 18.5425 0.671886 16.6425 0.921886 14.7425C1.01189 14.0625 1.10189 13.3925 1.20189 12.7125C1.32189 11.9225 1.45188 11.1225 1.59188 10.3225C2.01188 7.9925 4.49189 5.9225 8.24189 4.4325C11.7419 2.8325 16.5819 1.7725 22.0519 1.5925C46.3319 0.8025 168.102 0.8025 192.372 1.5925C197.842 1.7725 202.692 2.8325 206.182 4.4325C209.932 5.9225 212.412 7.9925 212.832 10.3225C213.012 11.3025 213.172 12.2825 213.312 13.2525C213.402 13.8925 213.492 14.5225 213.562 15.1625C213.792 16.9925 213.962 18.8225 214.072 20.6525C214.102 21.1225 214.122 21.5825 214.142 22.0525C214.182 22.8425 214.202 23.6225 214.222 24.4125C214.222 25.0425 214.222 25.6725 214.222 26.3025L214.212 26.3225Z" fill="url(#paint4_radial_2012_21518)"/>
<g style="mix-blend-mode:soft-light" opacity="0.6">
<path d="M179.662 9.0325C179.692 12.0825 162.802 10.1525 102.312 10.1525C52.7019 10.1525 33.9219 12.1725 33.8919 9.1225C33.8619 6.0725 51.9819 3.5625 103.272 3.5625C162.092 3.5625 179.632 5.9825 179.662 9.0325Z" fill="white"/>
</g>
<path d="M81.2017 33.1925V22.1525C81.2017 21.2925 81.8817 20.6125 82.7417 20.6125H86.9217C90.2617 20.6125 92.2817 22.5925 92.2817 25.4525V25.4925C92.2817 28.7325 89.7617 30.4125 86.6217 30.4125H84.2817V33.1925C84.2817 34.0525 83.6017 34.7325 82.7417 34.7325C81.8817 34.7325 81.2017 34.0525 81.2017 33.1925ZM84.2817 27.6725H86.7217C88.2617 27.6725 89.1617 26.7525 89.1617 25.5525V25.5125C89.1617 24.1325 88.2017 23.3925 86.6617 23.3925H84.2817V27.6725ZM94.5611 33.0725V22.0325C94.5611 21.1725 95.2411 20.4925 96.1011 20.4925C96.9611 20.4925 97.6411 21.1725 97.6411 22.0325V31.8125H103.341C104.121 31.8125 104.741 32.4325 104.741 33.2125C104.741 33.9925 104.121 34.6125 103.341 34.6125H96.1011C95.2411 34.6125 94.5611 33.9325 94.5611 33.0725ZM105.984 33.2925C105.984 33.0725 106.064 32.8525 106.164 32.6325L111.044 21.6125C111.384 20.8525 112.004 20.3925 112.844 20.3925H113.024C113.864 20.3925 114.464 20.8525 114.804 21.6125L119.684 32.6325C119.784 32.8525 119.844 33.0525 119.844 33.2525C119.844 34.0725 119.204 34.7325 118.384 34.7325C117.664 34.7325 117.184 34.3125 116.904 33.6725L115.964 31.4725H109.804L108.824 33.7725C108.564 34.3725 108.044 34.7325 107.404 34.7325C106.604 34.7325 105.984 34.0925 105.984 33.2925ZM110.944 28.7525H114.824L112.884 24.1325L110.944 28.7525ZM124.413 33.1925V29.2125L119.893 23.0725C119.673 22.7725 119.513 22.4125 119.513 21.9725C119.513 21.1525 120.193 20.4925 121.053 20.4925C121.753 20.4925 122.193 20.8725 122.573 21.4325L125.973 26.3325L129.433 21.3925C129.813 20.8325 130.273 20.4725 130.913 20.4725C131.853 20.4725 132.413 21.1325 132.413 21.9725C132.413 22.3925 132.213 22.7725 132.013 23.0525L127.493 29.1525V33.1925C127.493 34.0525 126.813 34.7325 125.953 34.7325C125.093 34.7325 124.413 34.0525 124.413 33.1925Z" fill="white"/>
<path d="M181.644 23.7873C181.66 23.7844 181.676 23.783 181.694 23.7801C184.281 23.4173 186.468 21.6858 187.281 19.2027C188.466 15.588 191.117 11.291 196.995 11.6798C202.869 12.0686 207.003 17.1041 207.655 23.7237C209.651 44.0118 176.59 53.3139 171.467 35.6823C169.875 30.2046 175.213 24.7109 181.644 23.7873Z" fill="url(#paint5_radial_2012_21518)"/>
<path d="M207.738 24.3119C207.731 24.7513 207.707 25.1864 207.666 25.6142C207.636 25.9365 207.597 26.2559 207.548 26.5724L207.543 26.5941C207.51 26.8181 207.471 27.0393 207.429 27.2575C207.389 27.4642 207.344 27.6694 207.296 27.8732C207.129 28.5843 206.915 29.2752 206.662 29.9473C206.631 30.0268 206.601 30.1063 206.569 30.1857C206.508 30.339 206.445 30.4907 206.38 30.6425C206.266 30.907 206.144 31.1686 206.017 31.4258C206.008 31.4461 205.998 31.4663 205.988 31.4865C205.884 31.6976 205.774 31.9071 205.66 32.1124C205.234 32.8957 204.747 33.6444 204.209 34.3555C204.167 34.4119 204.125 34.4668 204.083 34.5217C204.014 34.6113 203.944 34.7009 203.874 34.7891C203.592 35.1432 203.297 35.4872 202.989 35.8225C194.694 44.8746 177.937 46.8836 172.532 36.84C172.452 36.694 172.376 36.5437 172.302 36.392C172.211 36.2055 172.124 36.0162 172.04 35.8225C171.861 35.4077 171.699 34.9741 171.558 34.5217C171.527 34.422 171.495 34.3208 171.467 34.2197C171.404 34.0086 171.354 33.7976 171.313 33.5866C171.247 33.2484 171.206 32.9102 171.192 32.5734C171.175 32.2092 171.186 31.8464 171.224 31.4865C171.235 31.3724 171.25 31.2596 171.269 31.1469V31.144C171.318 30.8202 171.388 30.5008 171.481 30.1857C171.493 30.1482 171.503 30.1106 171.514 30.073C171.747 29.3099 172.098 28.5699 172.549 27.8732C172.753 27.5553 172.977 27.2488 173.218 26.9497H173.22C173.324 26.821 173.431 26.6953 173.541 26.5724C174.633 25.3453 176.045 24.2989 177.647 23.5372C178.887 22.9461 180.24 22.527 181.645 22.3246C181.66 22.3217 181.678 22.3203 181.694 22.3174C181.85 22.2957 182.006 22.2682 182.159 22.2365C183.242 22.0124 184.239 21.5456 185.079 20.8807C185.44 20.5975 185.771 20.2766 186.067 19.9239C186.111 19.8719 186.154 19.8199 186.196 19.7664C186.473 19.4152 186.716 19.0307 186.92 18.6231C187.06 18.3413 187.182 18.0464 187.281 17.7415L187.307 17.6634C187.384 17.4322 187.468 17.1966 187.559 16.9596C187.731 16.5028 187.929 16.0432 188.154 15.5879C188.374 15.1457 188.62 14.7092 188.894 14.2872C189.013 14.105 189.136 13.9258 189.266 13.7509C189.549 13.365 189.861 12.995 190.202 12.651C191.76 11.0785 193.943 10.0162 196.995 10.2186C200.104 10.4238 202.726 11.9313 204.602 14.2872C204.927 14.6962 205.231 15.1312 205.51 15.5879C205.738 15.9623 205.952 16.3525 206.144 16.7572C206.146 16.7572 206.146 16.7587 206.146 16.7587C206.435 17.3512 206.686 17.9742 206.899 18.6231C206.959 18.8067 207.016 18.9931 207.069 19.181C207.14 19.4253 207.205 19.6724 207.264 19.9239C207.442 20.6683 207.572 21.4401 207.652 22.2365C207.653 22.2451 207.653 22.2538 207.655 22.2625C207.676 22.4807 207.694 22.6975 207.705 22.9129V22.9172C207.72 23.1253 207.73 23.332 207.734 23.5372C207.741 23.7974 207.743 24.0561 207.738 24.3119Z" fill="url(#paint6_radial_2012_21518)"/>
<g style="mix-blend-mode:hard-light" opacity="0.2">
<path d="M181.644 20.7175C181.66 20.7146 181.676 20.7131 181.694 20.7102C184.281 20.3475 186.468 18.616 187.281 16.1329C188.466 12.5181 191.117 8.22117 196.995 8.60997C202.869 8.99876 207.003 14.0343 207.655 20.6539C209.651 40.9419 176.59 50.244 171.467 32.6125C169.875 27.1347 175.213 21.641 181.644 20.7175Z" fill="white"/>
</g>
<path d="M205.583 30.06C198.42 42.87 175.646 46.4139 171.465 32.0286C171.391 31.7756 171.332 31.5227 171.289 31.2698C170.371 26.0536 175.509 21.0137 181.644 20.1321C181.66 20.1292 181.676 20.1278 181.692 20.1249C184.279 19.7635 186.465 18.0306 187.28 15.5475C188.466 11.9328 191.116 7.6358 196.994 8.02459C202.866 8.41339 207.001 13.4489 207.653 20.0685C208.02 23.8047 207.199 27.1679 205.582 30.0586L205.583 30.06Z" fill="url(#paint7_radial_2012_21518)"/>
<g style="mix-blend-mode:overlay" opacity="0.8" filter="url(#filter0_f_2012_21518)">
<path d="M183.86 22.7366C183.875 22.7337 183.889 22.7337 183.904 22.7308C186.218 22.4663 188.232 20.8157 189.06 18.3645C190.264 14.7959 192.798 10.6016 198.007 11.2086C202.159 11.6928 205.202 15.0922 206.417 19.8184C205.695 13.9157 202.376 9.45546 197.573 8.89612C192.365 8.29053 189.831 12.4849 188.627 16.0519C187.8 18.5032 185.784 20.1538 183.47 20.4183C183.456 20.4212 183.441 20.4212 183.427 20.424C177.937 21.0773 173.16 25.9221 173.759 31.1686C173.788 31.423 173.83 31.6774 173.885 31.9332C173.963 32.2945 174.054 32.6428 174.152 32.9825C173.898 27.9311 178.544 23.3696 183.86 22.7366Z" fill="url(#paint8_linear_2012_21518)"/>
</g>
<g style="mix-blend-mode:soft-light" opacity="0.75" filter="url(#filter1_f_2012_21518)">
<path d="M172.679 28.9616C172.598 29.7753 172.665 30.6064 172.906 31.4389C177.424 46.9863 205.552 39.7698 206.264 22.7106C201.013 36.2027 178.699 41.1024 172.679 28.9631V28.9616Z" fill="url(#paint9_radial_2012_21518)"/>
</g>
<path style="mix-blend-mode:overlay" opacity="0.6" d="M207.736 22.2365C207.731 22.4634 207.721 22.6889 207.705 22.9129V22.9172C207.694 23.1253 207.676 23.332 207.655 23.5373C207.639 23.7006 207.62 23.8625 207.597 24.0243C207.552 24.3727 207.497 24.7152 207.429 25.0534C207.393 25.2413 207.354 25.4249 207.311 25.6084C207.237 25.9351 207.152 26.2559 207.058 26.5725C207.052 26.5927 207.046 26.6129 207.039 26.6332C206.913 27.0552 206.771 27.4686 206.614 27.8732C206.452 28.2881 206.276 28.6956 206.084 29.0945C205.985 29.3012 205.881 29.5065 205.773 29.7103C205.711 29.8273 205.647 29.9444 205.583 30.0586C205.476 30.1005 205.371 30.1439 205.265 30.1858C205.173 30.2233 205.082 30.2595 204.989 30.2971C204.689 30.4185 204.391 30.5413 204.095 30.6642C203.427 30.9388 202.769 31.2148 202.122 31.4866C201.62 31.6976 201.125 31.9072 200.633 32.1138C200.278 32.2627 199.925 32.4101 199.574 32.5547C197.795 33.2889 196.059 33.9696 194.316 34.5217C192.292 35.1635 190.26 35.6347 188.143 35.8225C186.846 35.9382 185.518 35.9468 184.141 35.8225C182.267 35.6549 180.305 35.243 178.205 34.5217C177.4 34.2457 176.576 33.9234 175.729 33.5519C175.486 33.4464 175.242 33.3351 174.996 33.221C174.162 32.8336 173.306 32.4 172.426 31.9144C172.215 31.7988 172.003 31.6802 171.789 31.5574C171.747 31.5343 171.706 31.5111 171.665 31.4866C171.54 31.4143 171.414 31.342 171.289 31.2683C171.282 31.2278 171.274 31.1874 171.268 31.1469V31.144C171.242 30.9793 171.222 30.8159 171.208 30.6526V30.6497C171.195 30.4951 171.186 30.3404 171.183 30.1858C171.177 29.8924 171.19 29.6004 171.221 29.3099C171.271 28.8243 171.371 28.3444 171.514 27.8732C171.65 27.4295 171.826 26.9959 172.037 26.5725C172.591 25.4653 173.39 24.4363 174.372 23.5373C174.885 23.0646 175.448 22.6296 176.053 22.2365C176.149 22.1743 176.246 22.1122 176.344 22.0529C176.398 22.0182 176.454 21.985 176.509 21.9532C176.629 21.8809 176.749 21.8115 176.872 21.7436C176.947 21.7017 177.022 21.6612 177.099 21.6208C177.134 21.602 177.17 21.5832 177.204 21.5658C177.274 21.5283 177.345 21.4921 177.417 21.4574C177.423 21.4531 177.428 21.4502 177.434 21.4488C177.522 21.404 177.612 21.3606 177.702 21.3187C177.796 21.2739 177.89 21.2305 177.985 21.1886C178.046 21.1612 178.105 21.1351 178.166 21.1106C178.241 21.0773 178.317 21.0455 178.394 21.0152C178.478 20.9805 178.563 20.9472 178.648 20.914C178.735 20.8808 178.822 20.8475 178.908 20.8172C178.992 20.7868 179.076 20.7579 179.16 20.729C179.248 20.6986 179.338 20.6697 179.426 20.6408C179.517 20.6119 179.609 20.583 179.702 20.557C179.751 20.5411 179.799 20.5281 179.848 20.5151C179.943 20.4876 180.037 20.4616 180.133 20.437C180.144 20.4327 180.156 20.4298 180.169 20.4269C180.269 20.4009 180.367 20.3763 180.467 20.3547C180.508 20.3431 180.55 20.3344 180.592 20.3258C180.663 20.3084 180.735 20.2925 180.806 20.2795C180.847 20.2694 180.887 20.2622 180.928 20.2549C180.984 20.2434 181.04 20.2318 181.097 20.2217C181.153 20.2101 181.208 20.2015 181.266 20.1913C181.392 20.1697 181.519 20.1494 181.646 20.1306C181.662 20.1277 181.678 20.1263 181.694 20.1234C182.019 20.0786 182.337 20.0121 182.648 19.924C182.726 19.9023 182.802 19.8791 182.879 19.8546H182.88C183.72 19.5872 184.493 19.168 185.162 18.6232C185.509 18.3399 185.827 18.0248 186.111 17.6779C186.294 17.4539 186.463 17.2183 186.616 16.9697H186.618C186.884 16.5419 187.102 16.0808 187.267 15.588C187.273 15.575 187.277 15.5605 187.281 15.5475C187.417 15.1341 187.572 14.7107 187.75 14.2872C187.787 14.2005 187.825 14.1123 187.862 14.0241C187.883 13.9808 187.901 13.936 187.922 13.8926C187.94 13.8492 187.961 13.8044 187.981 13.7611C188.013 13.6903 188.046 13.6209 188.081 13.5501C188.107 13.4951 188.134 13.4388 188.161 13.3838C188.196 13.313 188.232 13.2422 188.268 13.1714C188.297 13.1165 188.326 13.063 188.355 13.0081C188.378 12.9633 188.403 12.9185 188.427 12.8736C188.466 12.8028 188.507 12.732 188.547 12.6612C190.077 10.0018 192.656 7.7384 196.994 8.02458C200.982 8.28907 204.168 10.6955 206.007 14.2872C206.221 14.7049 206.417 15.1399 206.592 15.588C206.91 16.3916 207.165 17.2414 207.353 18.1289C207.389 18.2922 207.42 18.4569 207.451 18.6232C207.529 19.0495 207.591 19.4831 207.637 19.924C207.643 19.9688 207.647 20.0136 207.652 20.0584C207.653 20.0613 207.653 20.0656 207.653 20.0685C207.725 20.8056 207.751 21.5283 207.734 22.2365H207.736Z" fill="url(#paint10_radial_2012_21518)"/>
<g style="mix-blend-mode:soft-light" opacity="0.6">
<path d="M202.631 12.7161C202.638 14.4693 199.475 13.3463 195.916 13.3622C192.356 13.3781 189.75 14.5271 189.743 12.7739C189.735 11.0207 192.613 9.58699 196.173 9.57109C199.731 9.55519 202.623 10.9644 202.631 12.7176V12.7161Z" fill="white"/>
</g>
<path d="M204.674 29.6597C204.203 30.7509 203.322 31.4187 203.03 31.2929C202.738 31.1672 203.397 30.683 203.868 29.5932C204.339 28.502 204.443 27.2171 204.735 27.3428C205.027 27.4686 205.146 28.5699 204.674 29.6597Z" fill="url(#paint11_radial_2012_21518)"/>
<path d="M192.462 13.2033C193.451 11.9538 193.799 10.5824 193.24 10.1401C192.681 9.69782 191.427 10.3522 190.438 11.6017C189.449 12.8512 189.101 14.2227 189.66 14.6649C190.219 15.1072 191.474 14.4528 192.462 13.2033Z" fill="url(#paint12_radial_2012_21518)"/>
<path d="M189.344 16.9465C189.768 16.4927 189.872 15.9009 189.576 15.6246C189.28 15.3483 188.697 15.4921 188.273 15.9458C187.849 16.3996 187.745 16.9914 188.04 17.2677C188.336 17.544 188.92 17.4002 189.344 16.9465Z" fill="url(#paint13_radial_2012_21518)"/>
<path d="M187.414 18.6118C187.642 18.368 187.698 18.0497 187.539 17.9009C187.379 17.7522 187.066 17.8292 186.838 18.073C186.61 18.3167 186.554 18.635 186.714 18.7838C186.873 18.9326 187.187 18.8555 187.414 18.6118Z" fill="url(#paint14_radial_2012_21518)"/>
<path d="M201.892 11.633C202.172 11.3406 202.035 10.7555 201.587 10.3261C201.138 9.89661 200.547 9.78547 200.268 10.0778C199.988 10.3702 200.125 10.9553 200.573 11.3847C201.022 11.8142 201.612 11.9253 201.892 11.633Z" fill="url(#paint15_radial_2012_21518)"/>
<path d="M203.018 12.7891C203.169 12.6317 203.096 12.3171 202.855 12.0863C202.614 11.8556 202.296 11.7962 202.146 11.9536C201.995 12.111 202.068 12.4257 202.309 12.6564C202.55 12.8871 202.868 12.9466 203.018 12.7891Z" fill="url(#paint16_radial_2012_21518)"/>
<path d="M179.274 22.7853C179.679 22.6553 179.939 22.3354 179.854 22.071C179.769 21.8065 179.372 21.6975 178.966 21.8276C178.561 21.9576 178.302 22.2775 178.387 22.5419C178.472 22.8064 178.869 22.9154 179.274 22.7853Z" fill="url(#paint17_radial_2012_21518)"/>
<path d="M34.2788 23.3998C34.2629 23.3969 34.247 23.3955 34.2296 23.3926C31.6425 23.0298 29.4557 21.2983 28.642 18.8152C27.4568 15.2005 24.8061 10.9035 18.9279 11.2923C13.0541 11.6811 8.9205 16.7166 8.26866 23.3362C6.27266 43.6243 39.3331 52.9264 44.4567 35.2948C46.048 29.8171 40.7105 24.3234 34.2788 23.3998Z" fill="url(#paint18_radial_2012_21518)"/>
<path d="M8.18482 23.9244C8.19204 24.3638 8.21661 24.7989 8.25708 25.2267C8.28743 25.549 8.32646 25.8684 8.3756 26.1849L8.37994 26.2066C8.41318 26.4306 8.4522 26.6518 8.49411 26.87C8.53458 27.0767 8.57939 27.2819 8.62709 27.4857C8.79474 28.1968 9.00866 28.8877 9.26159 29.5598C9.29194 29.6393 9.32229 29.7188 9.35408 29.7982C9.41479 29.9515 9.47838 30.1032 9.54342 30.255C9.6576 30.5195 9.77901 30.7811 9.9062 31.0383C9.91488 31.0586 9.92499 31.0788 9.93511 31.099C10.0392 31.3101 10.149 31.5196 10.2632 31.7249C10.6896 32.5082 11.1766 33.2569 11.7143 33.968C11.7562 34.0244 11.7981 34.0793 11.84 34.1342C11.9094 34.2238 11.9788 34.3134 12.0496 34.4016C12.3315 34.7557 12.6263 35.0997 12.9342 35.435C21.2289 44.4871 37.986 46.4961 43.3915 36.4525C43.471 36.3066 43.5476 36.1562 43.6213 36.0045C43.7124 35.818 43.7991 35.6287 43.8829 35.435C44.0622 35.0202 44.224 34.5866 44.3657 34.1342C44.396 34.0345 44.4278 33.9333 44.4567 33.8322C44.5189 33.6211 44.5695 33.4101 44.6099 33.1991C44.6764 32.8609 44.7169 32.5227 44.7313 32.1859C44.7487 31.8217 44.7371 31.4589 44.6995 31.099C44.688 30.9849 44.6735 30.8721 44.6547 30.7594V30.7565C44.6056 30.4327 44.5348 30.1133 44.4423 29.7982C44.4307 29.7607 44.4206 29.7231 44.409 29.6855C44.1763 28.9224 43.8251 28.1824 43.3742 27.4857C43.1704 27.1678 42.9464 26.8613 42.705 26.5622H42.7035C42.5995 26.4335 42.4925 26.3078 42.3827 26.1849C41.29 24.9579 39.8779 23.9114 38.2765 23.1497C37.0364 22.5586 35.6836 22.1395 34.2787 21.9371C34.2628 21.9342 34.2455 21.9328 34.2296 21.9299C34.0735 21.9082 33.9174 21.8808 33.7642 21.849C32.6817 21.6249 31.6844 21.1581 30.8446 20.4932C30.4833 20.21 30.1523 19.8891 29.856 19.5364C29.8127 19.4844 29.7693 19.4324 29.7274 19.3789C29.4499 19.0277 29.2071 18.6432 29.0033 18.2356C28.8631 17.9538 28.7417 17.659 28.642 17.354L28.616 17.2759C28.5394 17.0447 28.4555 16.8091 28.3645 16.5721C28.1925 16.1153 27.9945 15.6557 27.769 15.2005C27.5493 14.7582 27.3036 14.3217 27.029 13.8997C26.9105 13.7175 26.7876 13.5383 26.6575 13.3634C26.3743 12.9775 26.0621 12.6075 25.721 12.2635C24.1629 10.691 21.9805 9.62872 18.9279 9.83106C15.819 10.0363 13.1972 11.5438 11.3212 13.8997C10.996 14.3087 10.6925 14.7437 10.4135 15.2005C10.1852 15.5748 9.97124 15.965 9.77901 16.3697C9.77757 16.3697 9.77757 16.3712 9.77757 16.3712C9.4885 16.9638 9.23701 17.5867 9.02455 18.2356C8.96385 18.4192 8.90748 18.6056 8.854 18.7935C8.78318 19.0378 8.71814 19.2849 8.65888 19.5364C8.48111 20.2808 8.35103 21.0526 8.27154 21.849C8.27009 21.8576 8.27009 21.8663 8.26864 21.875C8.24696 22.0932 8.22962 22.31 8.21806 22.5254V22.5297C8.20361 22.7378 8.19349 22.9445 8.18915 23.1497C8.18193 23.4099 8.18048 23.6686 8.18482 23.9244Z" fill="url(#paint19_radial_2012_21518)"/>
<g style="mix-blend-mode:hard-light" opacity="0.2">
<path d="M34.2788 20.33C34.2629 20.3271 34.247 20.3256 34.2296 20.3227C31.6425 19.96 29.4557 18.2285 28.642 15.7454C27.4568 12.1306 24.8061 7.83368 18.9279 8.22247C13.0541 8.61126 8.9205 13.6468 8.26866 20.2664C6.27266 40.5544 39.3331 49.8565 44.4567 32.225C46.048 26.7472 40.7105 21.2535 34.2788 20.33Z" fill="white"/>
</g>
<path d="M10.3398 29.6725C17.5028 42.4825 40.2769 46.0264 44.4582 31.6411C44.5319 31.3881 44.5912 31.1352 44.6345 30.8823C45.5523 25.6661 40.4142 20.6262 34.2788 19.7446C34.2629 19.7417 34.247 19.7403 34.2311 19.7374C31.6439 19.376 29.4586 17.6431 28.6434 15.16C27.4568 11.5453 24.8075 7.2483 18.9294 7.6371C13.057 8.02589 8.92195 13.0614 8.2701 19.681C7.90299 23.4172 8.72394 26.7804 10.3413 29.6711L10.3398 29.6725Z" fill="url(#paint20_radial_2012_21518)"/>
<g style="mix-blend-mode:overlay" opacity="0.8" filter="url(#filter2_f_2012_21518)">
<path d="M32.0631 22.3491C32.0486 22.3462 32.0342 22.3462 32.0197 22.3433C29.7057 22.0788 27.6909 20.4282 26.8628 17.977C25.6588 14.4084 23.1252 10.2141 17.9162 10.8211C13.7638 11.3053 10.7214 14.7047 9.50585 19.431C10.2285 13.5282 13.547 9.06796 18.3498 8.50862C23.5588 7.90303 26.0924 12.0974 27.2964 15.6644C28.1231 18.1157 30.1393 19.7663 32.4533 20.0308C32.4678 20.0337 32.4822 20.0337 32.4967 20.0365C37.986 20.6898 42.7628 25.5346 42.1644 30.7811C42.1355 31.0355 42.0936 31.2899 42.0387 31.5457C41.9607 31.907 41.8696 32.2553 41.7713 32.595C42.0257 27.5436 37.379 22.9821 32.0631 22.3491Z" fill="url(#paint21_linear_2012_21518)"/>
</g>
<g style="mix-blend-mode:soft-light" opacity="0.75" filter="url(#filter3_f_2012_21518)">
<path d="M43.2441 28.5741C43.3251 29.3878 43.2586 30.2189 43.0172 31.0514C38.4991 46.5988 10.3716 39.3823 9.65908 22.3231C14.91 35.8152 37.2244 40.7149 43.2441 28.5756V28.5741Z" fill="url(#paint22_radial_2012_21518)"/>
</g>
<path style="mix-blend-mode:overlay" opacity="0.6" d="M8.18772 21.849C8.19205 22.0759 8.20217 22.3014 8.21807 22.5254V22.5297C8.22963 22.7379 8.24697 22.9445 8.26865 23.1498C8.28455 23.3131 8.30334 23.475 8.32647 23.6368C8.37128 23.9852 8.42619 24.3277 8.49413 24.6659C8.53026 24.8538 8.56928 25.0374 8.61264 25.2209C8.68636 25.5476 8.77163 25.8684 8.86557 26.185C8.87136 26.2052 8.87714 26.2254 8.88437 26.2457C9.01011 26.6677 9.15175 27.0811 9.30929 27.4858C9.47117 27.9006 9.6475 28.3081 9.83973 28.7071C9.93801 28.9137 10.0421 29.119 10.1505 29.3228C10.2126 29.4398 10.2762 29.5569 10.3398 29.6711C10.4468 29.713 10.5523 29.7564 10.6578 29.7983C10.7503 29.8359 10.8413 29.872 10.9338 29.9096C11.2345 30.031 11.5322 30.1538 11.8285 30.2767C12.4962 30.5513 13.1539 30.8273 13.8014 31.0991C14.3029 31.3101 14.7986 31.5197 15.2901 31.7263C15.6456 31.8752 15.9983 32.0226 16.3495 32.1672C18.1287 32.9014 19.8645 33.5821 21.6076 34.1343C23.631 34.776 25.6632 35.2472 27.7806 35.435C29.077 35.5507 30.4053 35.5593 31.7827 35.435C33.6558 35.2674 35.6186 34.8555 37.7186 34.1343C38.5237 33.8582 39.3475 33.5359 40.1945 33.1644C40.4373 33.0589 40.6815 32.9476 40.9273 32.8335C41.7612 32.4461 42.6168 32.0125 43.497 31.5269C43.7081 31.4113 43.9205 31.2927 44.1344 31.1699C44.1763 31.1468 44.2168 31.1236 44.2587 31.0991C44.383 31.0268 44.5088 30.9545 44.6345 30.8808C44.6417 30.8404 44.649 30.7999 44.6547 30.7594V30.7565C44.6808 30.5918 44.701 30.4284 44.7155 30.2651V30.2622C44.7285 30.1076 44.7371 29.9529 44.74 29.7983C44.7458 29.5049 44.7328 29.2129 44.7024 28.9224C44.6519 28.4368 44.5521 27.9569 44.409 27.4858C44.2732 27.042 44.0969 26.6084 43.8858 26.185C43.3323 25.0778 42.533 24.0488 41.5516 23.1498C41.0385 22.6771 40.4749 22.2421 39.8707 21.849C39.7739 21.7868 39.677 21.7247 39.5788 21.6654C39.5253 21.6307 39.4689 21.5975 39.414 21.5657C39.294 21.4934 39.1741 21.4241 39.0512 21.3561C38.9761 21.3142 38.9009 21.2737 38.8243 21.2333C38.7896 21.2145 38.7535 21.1957 38.7188 21.1783C38.6494 21.1408 38.5786 21.1046 38.5063 21.0699C38.5005 21.0656 38.4948 21.0627 38.489 21.0613C38.4008 21.0165 38.3112 20.9731 38.2216 20.9312C38.1277 20.8864 38.0337 20.843 37.9383 20.8011C37.8776 20.7737 37.8184 20.7476 37.7577 20.7231C37.6825 20.6898 37.6059 20.658 37.5293 20.6277C37.4455 20.593 37.3602 20.5597 37.2749 20.5265C37.1882 20.4933 37.1015 20.46 37.0148 20.4297C36.9309 20.3993 36.8471 20.3704 36.7633 20.3415C36.6751 20.3111 36.5855 20.2822 36.4973 20.2533C36.4063 20.2244 36.3138 20.1955 36.2213 20.1695C36.1721 20.1536 36.1244 20.1406 36.0753 20.1276C35.9799 20.1001 35.886 20.0741 35.7906 20.0495C35.779 20.0452 35.7674 20.0423 35.7544 20.0394C35.6547 20.0134 35.5564 19.9888 35.4567 19.9672C35.4148 19.9556 35.3729 19.9469 35.3309 19.9383C35.2601 19.9209 35.1879 19.905 35.117 19.892C35.0766 19.8819 35.0361 19.8747 34.9956 19.8674C34.9393 19.8559 34.8829 19.8443 34.8265 19.8342C34.7702 19.8226 34.7152 19.814 34.6574 19.8038C34.5317 19.7822 34.4045 19.7619 34.2773 19.7431C34.2614 19.7402 34.2455 19.7388 34.2296 19.7359C33.9044 19.6911 33.5864 19.6246 33.2757 19.5365C33.1976 19.5148 33.121 19.4916 33.0444 19.4671H33.043C32.2033 19.1997 31.43 18.7805 30.7608 18.2357C30.4139 17.9524 30.096 17.6373 29.8127 17.2904C29.6291 17.0664 29.46 16.8308 29.3068 16.5822H29.3054C29.0394 16.1544 28.8212 15.6933 28.6564 15.2005C28.6507 15.1875 28.6463 15.173 28.642 15.16C28.5061 14.7466 28.3515 14.3232 28.1737 13.8997C28.1361 13.813 28.0985 13.7248 28.061 13.6366C28.0407 13.5933 28.0219 13.5485 28.0017 13.5051C27.9829 13.4617 27.9627 13.4169 27.9424 13.3736C27.9106 13.3028 27.8774 13.2334 27.8427 13.1626C27.8167 13.1076 27.7892 13.0513 27.7618 12.9964C27.7271 12.9255 27.691 12.8547 27.6548 12.7839C27.6259 12.729 27.597 12.6755 27.5681 12.6206C27.545 12.5758 27.5204 12.531 27.4958 12.4862C27.4568 12.4153 27.4163 12.3445 27.3759 12.2737C25.8467 9.61429 23.2668 7.35091 18.9294 7.63708C14.9417 7.90158 11.7548 10.308 9.91633 13.8997C9.70242 14.3174 9.50586 14.7524 9.33097 15.2005C9.013 16.0041 8.75862 16.8539 8.57073 17.7414C8.5346 17.9047 8.5028 18.0694 8.47245 18.2357C8.3944 18.662 8.33225 19.0956 8.286 19.5365C8.28022 19.5813 8.27588 19.6261 8.27155 19.6709C8.2701 19.6738 8.2701 19.6781 8.2701 19.681C8.19783 20.4181 8.17182 21.1408 8.18916 21.849H8.18772Z" fill="url(#paint23_radial_2012_21518)"/>
<g style="mix-blend-mode:soft-light" opacity="0.6">
<path d="M13.2926 12.3286C13.2854 14.0818 16.4478 12.9588 20.0076 12.9747C23.5674 12.9906 26.1734 14.1396 26.1806 12.3864C26.1878 10.6333 23.3102 9.19949 19.7503 9.18359C16.1919 9.16769 13.2998 10.5769 13.2926 12.3301V12.3286Z" fill="white"/>
</g>
<path d="M11.2489 29.2722C11.7201 30.3634 12.6017 31.0312 12.8937 30.9054C13.1856 30.7797 12.5266 30.2955 12.0554 29.2057C11.5842 28.1145 11.4802 26.8296 11.1882 26.9553C10.8962 27.0811 10.7777 28.1824 11.2489 29.2722Z" fill="url(#paint24_radial_2012_21518)"/>
<path d="M23.4609 12.8158C22.4723 11.5663 22.1241 10.1949 22.6831 9.75261C23.2421 9.31033 24.4967 9.96471 25.4853 11.2142C26.4738 12.4637 26.822 13.8352 26.263 14.2774C25.704 14.7197 24.4494 14.0653 23.4609 12.8158Z" fill="url(#paint25_radial_2012_21518)"/>
<path d="M26.5797 16.559C26.1557 16.1052 26.0517 15.5134 26.3474 15.2371C26.6431 14.9608 27.2265 15.1046 27.6505 15.5583C28.0745 16.0121 28.1785 16.6039 27.8828 16.8802C27.5872 17.1565 27.0037 17.0127 26.5797 16.559Z" fill="url(#paint26_radial_2012_21518)"/>
<path d="M28.5089 18.2243C28.2811 17.9805 28.2255 17.6622 28.3847 17.5135C28.5439 17.3647 28.8577 17.4417 29.0855 17.6855C29.3133 17.9292 29.3689 18.2475 29.2097 18.3963C29.0504 18.5451 28.7367 18.4681 28.5089 18.2243Z" fill="url(#paint27_radial_2012_21518)"/>
<path d="M14.0311 11.2455C13.7512 10.9531 13.888 10.368 14.3366 9.93856C14.7852 9.50912 15.3758 9.39797 15.6556 9.69032C15.9355 9.98266 15.7987 10.5678 15.3501 10.9972C14.9015 11.4267 14.3109 11.5378 14.0311 11.2455Z" fill="url(#paint28_radial_2012_21518)"/>
<path d="M12.9049 12.4016C12.7542 12.2442 12.8274 11.9296 13.0684 11.6988C13.3094 11.4681 13.627 11.4087 13.7777 11.5661C13.9284 11.7235 13.8551 12.0382 13.6141 12.2689C13.3731 12.4996 13.0555 12.5591 12.9049 12.4016Z" fill="url(#paint29_radial_2012_21518)"/>
<path d="M36.6493 22.3978C36.2442 22.2678 35.9846 21.9479 36.0696 21.6835C36.1545 21.419 36.5517 21.31 36.9568 21.4401C37.3619 21.5701 37.6214 21.89 37.5365 22.1544C37.4516 22.4189 37.0544 22.5279 36.6493 22.3978Z" fill="url(#paint30_radial_2012_21518)"/>
<defs>
<filter id="filter0_f_2012_21518" x="165.708" y="0.837372" width="48.7094" height="40.1451" filterUnits="userSpaceOnUse" color-interpolation-filters="sRGB">
<feFlood flood-opacity="0" result="BackgroundImageFix"/>
<feBlend mode="normal" in="SourceGraphic" in2="BackgroundImageFix" result="shape"/>
<feGaussianBlur stdDeviation="4" result="effect1_foregroundBlur_2012_21518"/>
</filter>
<filter id="filter1_f_2012_21518" x="164.646" y="14.7106" width="49.6178" height="33.3006" filterUnits="userSpaceOnUse" color-interpolation-filters="sRGB">
<feFlood flood-opacity="0" result="BackgroundImageFix"/>
<feBlend mode="normal" in="SourceGraphic" in2="BackgroundImageFix" result="shape"/>
<feGaussianBlur stdDeviation="4" result="effect1_foregroundBlur_2012_21518"/>
</filter>
<filter id="filter2_f_2012_21518" x="1.50586" y="0.449875" width="48.7094" height="40.1451" filterUnits="userSpaceOnUse" color-interpolation-filters="sRGB">
<feFlood flood-opacity="0" result="BackgroundImageFix"/>
<feBlend mode="normal" in="SourceGraphic" in2="BackgroundImageFix" result="shape"/>
<feGaussianBlur stdDeviation="4" result="effect1_foregroundBlur_2012_21518"/>
</filter>
<filter id="filter3_f_2012_21518" x="1.65909" y="14.3231" width="49.6178" height="33.3006" filterUnits="userSpaceOnUse" color-interpolation-filters="sRGB">
<feFlood flood-opacity="0" result="BackgroundImageFix"/>
<feBlend mode="normal" in="SourceGraphic" in2="BackgroundImageFix" result="shape"/>
<feGaussianBlur stdDeviation="4" result="effect1_foregroundBlur_2012_21518"/>
</filter>
<radialGradient id="paint0_radial_2012_21518" cx="0" cy="0" r="1" gradientUnits="userSpaceOnUse" gradientTransform="translate(105.938 30.9159) scale(98.3808 42.1632)">
<stop/>
<stop offset="0.84" stop-opacity="0.2"/>
</radialGradient>
<radialGradient id="paint1_radial_2012_21518" cx="0" cy="0" r="1" gradientUnits="userSpaceOnUse" gradientTransform="translate(105.938 28.7937) scale(98.3808 42.1632)">
<stop stop-color="#F76F06"/>
<stop offset="0.98" stop-color="#D33501"/>
</radialGradient>
<radialGradient id="paint2_radial_2012_21518" cx="0" cy="0" r="1" gradientUnits="userSpaceOnUse" gradientTransform="translate(105.948 26.1792) scale(98.3668 42.5574)">
<stop stop-color="#F76F06"/>
<stop offset="0.98" stop-color="#D33501"/>
</radialGradient>
<linearGradient id="paint3_linear_2012_21518" x1="108.411" y1="51.0075" x2="108.411" y2="39.1125" gradientUnits="userSpaceOnUse">
<stop/>
<stop offset="1" stop-opacity="0"/>
</linearGradient>
<radialGradient id="paint4_radial_2012_21518" cx="0" cy="0" r="1" gradientUnits="userSpaceOnUse" gradientTransform="translate(106.86 11.5191) scale(101.795 43.6266)">
<stop stop-color="white"/>
<stop offset="1" stop-color="white" stop-opacity="0"/>
</radialGradient>
<radialGradient id="paint5_radial_2012_21518" cx="0" cy="0" r="1" gradientUnits="userSpaceOnUse" gradientTransform="translate(187.488 25.4046) scale(19.4642 19.4642)">
<stop/>
<stop offset="0.84" stop-opacity="0.2"/>
</radialGradient>
<radialGradient id="paint6_radial_2012_21518" cx="0" cy="0" r="1" gradientUnits="userSpaceOnUse" gradientTransform="translate(189.462 26.8658) scale(17.4928 17.4928)">
<stop stop-color="#26DAFD"/>
<stop offset="0.23" stop-color="#1CAAE3"/>
<stop offset="0.47" stop-color="#1482CD"/>
<stop offset="0.68" stop-color="#0E65BD"/>
<stop offset="0.87" stop-color="#0B53B4"/>
<stop offset="1" stop-color="#0A4DB1"/>
</radialGradient>
<radialGradient id="paint7_radial_2012_21518" cx="0" cy="0" r="1" gradientUnits="userSpaceOnUse" gradientTransform="translate(185.806 17.7993) scale(22.6931 22.6931)">
<stop stop-color="#26DAFD"/>
<stop offset="0.23" stop-color="#1CAAE3"/>
<stop offset="0.47" stop-color="#1482CD"/>
<stop offset="0.68" stop-color="#0E65BD"/>
<stop offset="0.87" stop-color="#0B53B4"/>
<stop offset="1" stop-color="#0A4DB1"/>
</radialGradient>
<linearGradient id="paint8_linear_2012_21518" x1="190.062" y1="32.9825" x2="190.062" y2="8.8383" gradientUnits="userSpaceOnUse">
<stop stop-color="white" stop-opacity="0"/>
<stop offset="1" stop-color="white"/>
</linearGradient>
<radialGradient id="paint9_radial_2012_21518" cx="0" cy="0" r="1" gradientUnits="userSpaceOnUse" gradientTransform="translate(186.093 24.5042) scale(22.55)">
<stop stop-color="white"/>
<stop offset="0.62" stop-color="#5D5D5D"/>
<stop offset="1"/>
</radialGradient>
<radialGradient id="paint10_radial_2012_21518" cx="0" cy="0" r="1" gradientUnits="userSpaceOnUse" gradientTransform="translate(189.082 18.4439) scale(20.0452 20.0452)">
<stop stop-color="white"/>
<stop offset="1" stop-color="white" stop-opacity="0"/>
</radialGradient>
<radialGradient id="paint11_radial_2012_21518" cx="0" cy="0" r="1" gradientUnits="userSpaceOnUse" gradientTransform="translate(204.006 29.536) rotate(-67.9) scale(2.14148 0.837972)">
<stop stop-color="white"/>
<stop offset="1" stop-color="white" stop-opacity="0"/>
</radialGradient>
<radialGradient id="paint12_radial_2012_21518" cx="0" cy="0" r="1" gradientUnits="userSpaceOnUse" gradientTransform="translate(189.412 13.4045) rotate(-50.14) scale(2.12125 1.59963)">
<stop offset="0.51" stop-color="white"/>
<stop offset="1" stop-color="white" stop-opacity="0"/>
</radialGradient>
<radialGradient id="paint13_radial_2012_21518" cx="0" cy="0" r="1" gradientUnits="userSpaceOnUse" gradientTransform="translate(178.746 25.9716) rotate(-44.74) scale(0.549556 1.39143)">
<stop offset="0.51" stop-color="white"/>
<stop offset="1" stop-color="white" stop-opacity="0"/>
</radialGradient>
<radialGradient id="paint14_radial_2012_21518" cx="0" cy="0" r="1" gradientUnits="userSpaceOnUse" gradientTransform="translate(176.931 28.0349) rotate(-44.74) scale(0.295497 0.748173)">
<stop offset="0.51" stop-color="white"/>
<stop offset="1" stop-color="white" stop-opacity="0"/>
</radialGradient>
<radialGradient id="paint15_radial_2012_21518" cx="0" cy="0" r="1" gradientUnits="userSpaceOnUse" gradientTransform="translate(182.44 -9.05464) rotate(-134.05) scale(0.549557 1.39143)">
<stop offset="0.51" stop-color="white"/>
<stop offset="1" stop-color="white" stop-opacity="0"/>
</radialGradient>
<radialGradient id="paint16_radial_2012_21518" cx="0" cy="0" r="1" gradientUnits="userSpaceOnUse" gradientTransform="translate(184.089 -7.42855) rotate(-134.05) scale(0.295497 0.748174)">
<stop offset="0.51" stop-color="white"/>
<stop offset="1" stop-color="white" stop-opacity="0"/>
</radialGradient>
<radialGradient id="paint17_radial_2012_21518" cx="0" cy="0" r="1" gradientUnits="userSpaceOnUse" gradientTransform="translate(196.908 17.6144) rotate(-15.6) scale(0.376334 0.952846)">
<stop offset="0.51" stop-color="white"/>
<stop offset="1" stop-color="white" stop-opacity="0"/>
</radialGradient>
<radialGradient id="paint18_radial_2012_21518" cx="0" cy="0" r="1" gradientUnits="userSpaceOnUse" gradientTransform="translate(28.4353 25.0171) rotate(180) scale(19.4642 19.4642)">
<stop/>
<stop offset="0.84" stop-opacity="0.2"/>
</radialGradient>
<radialGradient id="paint19_radial_2012_21518" cx="0" cy="0" r="1" gradientUnits="userSpaceOnUse" gradientTransform="translate(26.461 26.4783) rotate(180) scale(17.4928 17.4928)">
<stop stop-color="#26DAFD"/>
<stop offset="0.23" stop-color="#1CAAE3"/>
<stop offset="0.47" stop-color="#1482CD"/>
<stop offset="0.68" stop-color="#0E65BD"/>
<stop offset="0.87" stop-color="#0B53B4"/>
<stop offset="1" stop-color="#0A4DB1"/>
</radialGradient>
<radialGradient id="paint20_radial_2012_21518" cx="0" cy="0" r="1" gradientUnits="userSpaceOnUse" gradientTransform="translate(30.1177 17.4118) rotate(180) scale(22.6931 22.6931)">
<stop stop-color="#26DAFD"/>
<stop offset="0.23" stop-color="#1CAAE3"/>
<stop offset="0.47" stop-color="#1482CD"/>
<stop offset="0.68" stop-color="#0E65BD"/>
<stop offset="0.87" stop-color="#0B53B4"/>
<stop offset="1" stop-color="#0A4DB1"/>
</radialGradient>
<linearGradient id="paint21_linear_2012_21518" x1="25.8612" y1="32.595" x2="25.8612" y2="8.45081" gradientUnits="userSpaceOnUse">
<stop stop-color="white" stop-opacity="0"/>
<stop offset="1" stop-color="white"/>
</linearGradient>
<radialGradient id="paint22_radial_2012_21518" cx="0" cy="0" r="1" gradientUnits="userSpaceOnUse" gradientTransform="translate(29.8301 24.1167) rotate(180) scale(22.55)">
<stop stop-color="white"/>
<stop offset="0.62" stop-color="#5D5D5D"/>
<stop offset="1"/>
</radialGradient>
<radialGradient id="paint23_radial_2012_21518" cx="0" cy="0" r="1" gradientUnits="userSpaceOnUse" gradientTransform="translate(26.8411 18.0564) rotate(180) scale(20.0452 20.0452)">
<stop stop-color="white"/>
<stop offset="1" stop-color="white" stop-opacity="0"/>
</radialGradient>
<radialGradient id="paint24_radial_2012_21518" cx="0" cy="0" r="1" gradientUnits="userSpaceOnUse" gradientTransform="translate(11.9169 29.1485) rotate(-112.1) scale(2.14148 0.837972)">
<stop stop-color="white"/>
<stop offset="1" stop-color="white" stop-opacity="0"/>
</radialGradient>
<radialGradient id="paint25_radial_2012_21518" cx="0" cy="0" r="1" gradientUnits="userSpaceOnUse" gradientTransform="translate(26.5116 13.017) rotate(-129.86) scale(2.12125 1.59963)">
<stop offset="0.51" stop-color="white"/>
<stop offset="1" stop-color="white" stop-opacity="0"/>
</radialGradient>
<radialGradient id="paint26_radial_2012_21518" cx="0" cy="0" r="1" gradientUnits="userSpaceOnUse" gradientTransform="translate(37.1776 25.5841) rotate(-135.26) scale(0.549556 1.39143)">
<stop offset="0.51" stop-color="white"/>
<stop offset="1" stop-color="white" stop-opacity="0"/>
</radialGradient>
<radialGradient id="paint27_radial_2012_21518" cx="0" cy="0" r="1" gradientUnits="userSpaceOnUse" gradientTransform="translate(38.9918 27.6474) rotate(-135.26) scale(0.295497 0.748173)">
<stop offset="0.51" stop-color="white"/>
<stop offset="1" stop-color="white" stop-opacity="0"/>
</radialGradient>
<radialGradient id="paint28_radial_2012_21518" cx="0" cy="0" r="1" gradientUnits="userSpaceOnUse" gradientTransform="translate(33.4834 -9.44213) rotate(-45.95) scale(0.549557 1.39143)">
<stop offset="0.51" stop-color="white"/>
<stop offset="1" stop-color="white" stop-opacity="0"/>
</radialGradient>
<radialGradient id="paint29_radial_2012_21518" cx="0" cy="0" r="1" gradientUnits="userSpaceOnUse" gradientTransform="translate(31.8346 -7.81605) rotate(-45.95) scale(0.295497 0.748174)">
<stop offset="0.51" stop-color="white"/>
<stop offset="1" stop-color="white" stop-opacity="0"/>
</radialGradient>
<radialGradient id="paint30_radial_2012_21518" cx="0" cy="0" r="1" gradientUnits="userSpaceOnUse" gradientTransform="translate(19.015 17.2269) rotate(-164.4) scale(0.376334 0.952846)">
<stop offset="0.51" stop-color="white"/>
<stop offset="1" stop-color="white" stop-opacity="0"/>
</radialGradient>
</defs>
</svg>
