<svg width="215" height="56" viewBox="0 0 215 56" fill="none" xmlns="http://www.w3.org/2000/svg">
<path d="M214.031 31.7025C214.031 32.9025 213.981 34.1025 213.921 35.3125C213.801 37.6825 213.581 40.0525 213.261 42.4225C213.081 43.7525 212.881 45.0825 212.641 46.4125C212.221 48.7425 209.741 50.8125 205.991 52.3025C202.491 53.9025 197.651 54.9625 192.181 55.1425C167.911 55.9325 46.141 55.9325 21.861 55.1425C16.391 54.9625 11.551 53.9025 8.05098 52.3025C4.30098 50.8125 1.82098 48.7425 1.40098 46.4125C1.24098 45.5325 1.10098 44.6525 0.970981 43.7725C0.580981 41.1825 0.31098 38.5825 0.16098 35.9925C0.0709798 34.5225 0.0209802 33.0425 0.0109802 31.5725C-0.00901983 30.5225 0.0109809 29.4725 0.0409809 28.4225V28.3825C0.0909809 26.8725 0.170981 25.3525 0.290981 23.8425C0.390981 22.6325 0.51098 21.4225 0.66098 20.2225C0.86098 18.5925 1.11098 16.9625 1.40098 15.3325C1.62098 14.1025 2.41098 12.9525 3.66098 11.9125C4.78098 10.9825 6.27098 10.1425 8.04098 9.44251C11.541 7.84251 16.381 6.78251 21.851 6.60251C46.131 5.81251 167.901 5.81251 192.171 6.60251C197.641 6.78251 202.481 7.84251 205.981 9.44251C208.241 10.3425 210.041 11.4425 211.201 12.7025C211.971 13.5225 212.471 14.4125 212.631 15.3425C212.941 17.0625 213.201 18.7725 213.401 20.4925C213.561 21.7825 213.691 23.0725 213.781 24.3625C213.881 25.6725 213.951 26.9725 213.991 28.2825C214.031 29.4325 214.041 30.5725 214.031 31.7125V31.7025Z" fill="url(#paint0_radial_2012_20927)"/>
<path d="M213.931 33.0825C213.871 34.3325 213.781 35.5925 213.661 36.8425C213.461 38.9825 213.181 41.1225 212.821 43.2625C212.761 43.6025 212.701 43.9425 212.641 44.2825C212.221 46.6125 209.741 48.6825 205.991 50.1725C202.491 51.7725 197.651 52.8325 192.181 53.0125C167.911 53.8025 46.141 53.8025 21.861 53.0125C16.391 52.8325 11.551 51.7725 8.05095 50.1725C4.49095 48.7525 2.08096 46.8225 1.48096 44.6325C1.44096 44.5125 1.42096 44.4025 1.40096 44.2825C1.00096 42.0525 0.690955 39.8225 0.460955 37.5925C0.310955 36.1225 0.190954 34.6425 0.120954 33.1725C0.0109544 31.2525 -0.0190443 29.3325 0.0109557 27.4025V27.3725C0.0209557 26.9025 0.0309547 26.4225 0.0509547 25.9525C0.0909547 24.6125 0.170956 23.2825 0.270956 21.9425C0.460956 19.4925 0.760955 17.0325 1.16096 14.5825C1.24096 14.1225 1.31096 13.6525 1.40096 13.1925C1.82096 10.8625 4.30095 8.79249 8.05095 7.30249C11.551 5.70249 16.391 4.6425 21.861 4.4625C46.141 3.6725 167.911 3.6725 192.181 4.4625C197.651 4.6425 202.491 5.70249 205.991 7.30249C209.741 8.79249 212.221 10.8625 212.641 13.1925C212.751 13.8025 212.851 14.4125 212.951 15.0225C213.321 17.3425 213.591 19.6625 213.781 21.9825C213.891 23.4225 213.971 24.8625 214.011 26.3025C214.011 26.5325 214.031 26.7625 214.031 27.0025V27.0825C214.071 29.0825 214.031 31.0825 213.931 33.0725V33.0825Z" fill="url(#paint1_radial_2012_20927)"/>
<g style="mix-blend-mode:hard-light" opacity="0.2">
<path d="M212.641 11.2725C212.221 8.90249 209.741 6.79249 205.991 5.27249C202.491 3.64249 197.651 2.56249 192.181 2.38249C167.911 1.57249 46.1309 1.57249 21.8609 2.38249C16.3909 2.56249 11.5509 3.64249 8.05093 5.27249C4.31093 6.79249 1.82093 8.89249 1.40093 11.2725C-0.449072 21.8125 -0.449072 32.3625 1.40093 42.9025C1.82093 45.2725 4.30093 47.3825 8.05093 48.9025C11.5509 50.5325 16.3909 51.6125 21.8609 51.7925C46.1309 52.6025 167.911 52.6025 192.181 51.7925C197.651 51.6125 202.491 50.5325 205.991 48.9025C209.731 47.3825 212.221 45.2825 212.641 42.9025C214.491 32.3625 214.491 21.8125 212.641 11.2725Z" fill="white"/>
</g>
<path d="M213.511 35.7625C213.291 37.7825 213.001 39.7925 212.651 41.8125C212.231 44.1725 209.751 46.2525 206.001 47.7625C202.501 49.3725 197.661 50.4425 192.191 50.6225C167.921 51.4225 46.141 51.4225 21.871 50.6225C16.401 50.4425 11.561 49.3725 8.06096 47.7625C4.31096 46.2525 1.83096 44.1725 1.41096 41.8125C1.08096 39.9525 0.810959 38.0825 0.600959 36.2125C-0.379041 27.6225 -0.10904 19.0225 1.41096 10.4325C1.83096 8.08251 4.31096 5.99251 8.06096 4.48251C11.561 2.87251 16.401 1.80251 21.871 1.62251C46.141 0.822507 167.921 0.822507 192.191 1.62251C197.661 1.80251 202.501 2.87251 206.001 4.48251C209.751 5.99251 212.231 8.07251 212.651 10.4325C214.141 18.8725 214.441 27.3225 213.511 35.7625Z" fill="url(#paint2_radial_2012_20927)"/>
<g style="mix-blend-mode:soft-light" opacity="0.75">
<path d="M213.511 35.7625C213.291 37.7825 213.001 39.7925 212.651 41.8125C212.231 44.1725 209.751 46.2525 206.001 47.7625C202.501 49.3725 197.661 50.4425 192.191 50.6225C167.921 51.4225 46.141 51.4225 21.871 50.6225C16.401 50.4425 11.561 49.3725 8.06096 47.7625C4.31096 46.2525 1.83096 44.1725 1.41096 41.8125C1.08096 39.9525 0.810959 38.0825 0.600959 36.2125C-0.379041 27.6225 -0.10904 19.0225 1.41096 10.4325C1.83096 8.08246 4.31096 5.99246 8.06096 4.48246C11.561 2.87246 16.401 1.80246 21.871 1.62246C46.141 0.822461 167.921 0.822461 192.191 1.62246C197.661 1.80246 202.501 2.87246 206.001 4.48246C209.751 5.99246 212.231 8.07246 212.651 10.4325C214.141 18.8725 214.441 27.3225 213.511 35.7625Z" fill="url(#paint3_linear_2012_20927)"/>
</g>
<path style="mix-blend-mode:overlay" opacity="0.6" d="M214.121 26.3225C214.121 26.5525 214.121 26.7825 214.121 27.0125V27.0925C214.121 27.4825 214.101 27.8725 214.091 28.2725C214.061 29.3925 214.011 30.5025 213.931 31.6125C213.901 32.0725 213.861 32.5225 213.831 32.9825C213.771 33.6925 213.701 34.4125 213.621 35.1325C213.611 35.2325 213.601 35.3325 213.591 35.4325C212.771 35.5525 211.961 35.6825 211.151 35.7925C206.861 36.4225 202.571 36.9725 198.281 37.4625C196.771 37.6325 195.251 37.7925 193.741 37.9525C167.981 40.5725 44.6809 40.6725 18.8609 38.1125C17.4909 37.9825 16.1209 37.8325 14.7409 37.6825C10.8709 37.2625 7.00094 36.7725 3.13094 36.2225C2.31094 36.1125 1.50094 35.9925 0.690941 35.8725C0.690941 35.8325 0.690944 35.7825 0.670944 35.7425C0.570944 34.8425 0.480942 33.9525 0.410942 33.0525C0.360942 32.5225 0.330943 31.9925 0.290943 31.4725C0.220943 30.4525 0.170942 29.4425 0.140942 28.4225V28.3825C0.140942 28.0625 0.120943 27.7325 0.110943 27.4125V27.3825C0.110943 26.9125 0.0909424 26.4525 0.0909424 25.9825C0.0909424 25.3025 0.0909431 24.6225 0.120943 23.9425C0.140943 23.3125 0.160941 22.6825 0.190941 22.0525C0.210941 21.5125 0.240941 20.9825 0.280941 20.4425C0.400941 18.5425 0.580944 16.6425 0.830944 14.7425C0.920944 14.0625 1.01094 13.3925 1.11094 12.7125C1.23094 11.9225 1.36094 11.1225 1.50094 10.3225C1.92094 7.9925 4.40094 5.9225 8.15094 4.4325C11.6509 2.8325 16.4909 1.7725 21.9609 1.5925C46.2409 0.8025 168.011 0.8025 192.281 1.5925C197.751 1.7725 202.601 2.8325 206.091 4.4325C209.841 5.9225 212.321 7.9925 212.741 10.3225C212.921 11.3025 213.081 12.2825 213.221 13.2525C213.311 13.8925 213.401 14.5225 213.471 15.1625C213.701 16.9925 213.871 18.8225 213.981 20.6525C214.011 21.1225 214.031 21.5825 214.051 22.0525C214.091 22.8425 214.111 23.6225 214.131 24.4125C214.131 25.0425 214.131 25.6725 214.131 26.3025L214.121 26.3225Z" fill="url(#paint4_radial_2012_20927)"/>
<g style="mix-blend-mode:soft-light" opacity="0.6">
<path d="M179.571 9.0325C179.601 12.0825 162.711 10.1525 102.221 10.1525C52.6109 10.1525 33.8309 12.1725 33.8009 9.1225C33.7709 6.0725 51.8909 3.5625 103.181 3.5625C162.001 3.5625 179.541 5.9825 179.571 9.0325Z" fill="white"/>
</g>
<path d="M81.1108 33.1925V22.1525C81.1108 21.2925 81.7908 20.6125 82.6508 20.6125H86.8308C90.1708 20.6125 92.1908 22.5925 92.1908 25.4525V25.4925C92.1908 28.7325 89.6708 30.4125 86.5308 30.4125H84.1908V33.1925C84.1908 34.0525 83.5108 34.7325 82.6508 34.7325C81.7908 34.7325 81.1108 34.0525 81.1108 33.1925ZM84.1908 27.6725H86.6308C88.1708 27.6725 89.0708 26.7525 89.0708 25.5525V25.5125C89.0708 24.1325 88.1108 23.3925 86.5708 23.3925H84.1908V27.6725ZM94.4702 33.0725V22.0325C94.4702 21.1725 95.1502 20.4925 96.0102 20.4925C96.8702 20.4925 97.5502 21.1725 97.5502 22.0325V31.8125H103.25C104.03 31.8125 104.65 32.4325 104.65 33.2125C104.65 33.9925 104.03 34.6125 103.25 34.6125H96.0102C95.1502 34.6125 94.4702 33.9325 94.4702 33.0725ZM105.893 33.2925C105.893 33.0725 105.973 32.8525 106.073 32.6325L110.953 21.6125C111.293 20.8525 111.913 20.3925 112.753 20.3925H112.933C113.773 20.3925 114.373 20.8525 114.713 21.6125L119.593 32.6325C119.693 32.8525 119.753 33.0525 119.753 33.2525C119.753 34.0725 119.113 34.7325 118.293 34.7325C117.573 34.7325 117.093 34.3125 116.813 33.6725L115.873 31.4725H109.713L108.733 33.7725C108.473 34.3725 107.953 34.7325 107.313 34.7325C106.513 34.7325 105.893 34.0925 105.893 33.2925ZM110.853 28.7525H114.733L112.793 24.1325L110.853 28.7525ZM124.322 33.1925V29.2125L119.802 23.0725C119.582 22.7725 119.422 22.4125 119.422 21.9725C119.422 21.1525 120.102 20.4925 120.962 20.4925C121.662 20.4925 122.102 20.8725 122.482 21.4325L125.882 26.3325L129.342 21.3925C129.722 20.8325 130.182 20.4725 130.822 20.4725C131.762 20.4725 132.322 21.1325 132.322 21.9725C132.322 22.3925 132.122 22.7725 131.922 23.0525L127.402 29.1525V33.1925C127.402 34.0525 126.722 34.7325 125.862 34.7325C125.002 34.7325 124.322 34.0525 124.322 33.1925Z" fill="white"/>
<path d="M181.554 23.7873C181.569 23.7844 181.585 23.783 181.603 23.7801C184.19 23.4173 186.377 21.6858 187.19 19.2027C188.375 15.588 191.026 11.291 196.904 11.6798C202.778 12.0686 206.912 17.1041 207.564 23.7237C209.56 44.0118 176.499 53.3139 171.376 35.6823C169.784 30.2046 175.122 24.7109 181.554 23.7873Z" fill="url(#paint5_radial_2012_20927)"/>
<path d="M207.647 24.3119C207.64 24.7513 207.616 25.1864 207.575 25.6142C207.545 25.9365 207.506 26.2559 207.457 26.5724L207.452 26.5941C207.419 26.8181 207.38 27.0393 207.338 27.2575C207.298 27.4642 207.253 27.6694 207.205 27.8732C207.038 28.5843 206.824 29.2752 206.571 29.9473C206.54 30.0268 206.51 30.1063 206.478 30.1857C206.418 30.339 206.354 30.4907 206.289 30.6425C206.175 30.907 206.053 31.1686 205.926 31.4258C205.917 31.4461 205.907 31.4663 205.897 31.4865C205.793 31.6976 205.683 31.9071 205.569 32.1124C205.143 32.8957 204.656 33.6444 204.118 34.3555C204.076 34.4119 204.034 34.4668 203.992 34.5217C203.923 34.6113 203.854 34.7009 203.783 34.7891C203.501 35.1432 203.206 35.4872 202.898 35.8225C194.603 44.8746 177.846 46.8836 172.441 36.84C172.361 36.694 172.285 36.5437 172.211 36.392C172.12 36.2055 172.033 36.0162 171.949 35.8225C171.77 35.4077 171.608 34.9741 171.467 34.5217C171.436 34.422 171.404 34.3208 171.376 34.2197C171.313 34.0086 171.263 33.7976 171.222 33.5866C171.156 33.2484 171.115 32.9102 171.101 32.5734C171.084 32.2092 171.095 31.8464 171.133 31.4865C171.144 31.3724 171.159 31.2596 171.178 31.1469V31.144C171.227 30.8202 171.298 30.5008 171.39 30.1857C171.402 30.1482 171.412 30.1106 171.423 30.073C171.656 29.3099 172.007 28.5699 172.458 27.8732C172.662 27.5553 172.886 27.2488 173.127 26.9497H173.129C173.233 26.821 173.34 26.6953 173.45 26.5724C174.542 25.3453 175.954 24.2989 177.556 23.5372C178.796 22.9461 180.149 22.527 181.554 22.3246C181.569 22.3217 181.587 22.3203 181.603 22.3174C181.759 22.2957 181.915 22.2682 182.068 22.2365C183.151 22.0124 184.148 21.5456 184.988 20.8807C185.349 20.5975 185.68 20.2766 185.976 19.9239C186.02 19.8719 186.063 19.8199 186.105 19.7664C186.382 19.4152 186.625 19.0307 186.829 18.6231C186.969 18.3413 187.091 18.0464 187.19 17.7415L187.216 17.6634C187.293 17.4322 187.377 17.1966 187.468 16.9596C187.64 16.5028 187.838 16.0432 188.063 15.5879C188.283 15.1457 188.529 14.7092 188.803 14.2872C188.922 14.105 189.045 13.9258 189.175 13.7509C189.458 13.365 189.77 12.995 190.111 12.651C191.669 11.0785 193.852 10.0162 196.904 10.2186C200.013 10.4238 202.635 11.9313 204.511 14.2872C204.836 14.6962 205.14 15.1312 205.419 15.5879C205.647 15.9623 205.861 16.3525 206.053 16.7572C206.055 16.7572 206.055 16.7587 206.055 16.7587C206.344 17.3512 206.595 17.9742 206.808 18.6231C206.868 18.8067 206.925 18.9931 206.978 19.181C207.049 19.4253 207.114 19.6724 207.173 19.9239C207.351 20.6683 207.481 21.4401 207.561 22.2365C207.562 22.2451 207.562 22.2538 207.564 22.2625C207.585 22.4807 207.603 22.6975 207.614 22.9129V22.9172C207.629 23.1253 207.639 23.332 207.643 23.5372C207.65 23.7974 207.652 24.0561 207.647 24.3119Z" fill="url(#paint6_radial_2012_20927)"/>
<g style="mix-blend-mode:hard-light" opacity="0.2">
<path d="M181.554 20.7175C181.569 20.7146 181.585 20.7131 181.603 20.7102C184.19 20.3475 186.377 18.616 187.19 16.1329C188.375 12.5181 191.026 8.22117 196.904 8.60997C202.778 8.99876 206.912 14.0343 207.564 20.6539C209.56 40.9419 176.499 50.244 171.376 32.6125C169.784 27.1347 175.122 21.641 181.554 20.7175Z" fill="white"/>
</g>
<path d="M205.492 30.06C198.329 42.87 175.555 46.4139 171.374 32.0286C171.3 31.7756 171.241 31.5227 171.198 31.2698C170.28 26.0536 175.418 21.0137 181.554 20.1321C181.569 20.1292 181.585 20.1278 181.601 20.1249C184.188 19.7635 186.374 18.0306 187.189 15.5475C188.375 11.9328 191.025 7.6358 196.903 8.02459C202.775 8.41339 206.91 13.4489 207.562 20.0685C207.929 23.8047 207.108 27.1679 205.491 30.0586L205.492 30.06Z" fill="url(#paint7_radial_2012_20927)"/>
<g style="mix-blend-mode:overlay" opacity="0.8" filter="url(#filter0_f_2012_20927)">
<path d="M183.769 22.7366C183.784 22.7337 183.798 22.7337 183.813 22.7308C186.127 22.4663 188.141 20.8157 188.97 18.3645C190.173 14.7959 192.707 10.6016 197.916 11.2086C202.069 11.6928 205.111 15.0922 206.326 19.8184C205.604 13.9157 202.285 9.45546 197.483 8.89612C192.274 8.29053 189.74 12.4849 188.536 16.0519C187.709 18.5032 185.693 20.1538 183.379 20.4183C183.365 20.4212 183.35 20.4212 183.336 20.424C177.846 21.0773 173.069 25.9221 173.668 31.1686C173.697 31.423 173.739 31.6774 173.794 31.9332C173.872 32.2945 173.963 32.6428 174.061 32.9825C173.807 27.9311 178.453 23.3696 183.769 22.7366Z" fill="url(#paint8_linear_2012_20927)"/>
</g>
<g style="mix-blend-mode:soft-light" opacity="0.75" filter="url(#filter1_f_2012_20927)">
<path d="M172.588 28.9616C172.507 29.7753 172.574 30.6064 172.815 31.4389C177.333 46.9863 205.461 39.7698 206.173 22.7106C200.922 36.2027 178.608 41.1024 172.588 28.9631V28.9616Z" fill="url(#paint9_radial_2012_20927)"/>
</g>
<path style="mix-blend-mode:overlay" opacity="0.6" d="M207.645 22.2365C207.64 22.4634 207.63 22.6889 207.614 22.9129V22.9172C207.603 23.1253 207.585 23.332 207.564 23.5373C207.548 23.7006 207.529 23.8625 207.506 24.0243C207.461 24.3727 207.406 24.7152 207.338 25.0534C207.302 25.2413 207.263 25.4249 207.22 25.6084C207.146 25.9351 207.061 26.2559 206.967 26.5725C206.961 26.5927 206.955 26.6129 206.948 26.6332C206.822 27.0552 206.681 27.4686 206.523 27.8732C206.361 28.2881 206.185 28.6956 205.993 29.0945C205.894 29.3012 205.79 29.5065 205.682 29.7103C205.62 29.8273 205.556 29.9444 205.492 30.0586C205.386 30.1005 205.28 30.1439 205.175 30.1858C205.082 30.2233 204.991 30.2595 204.898 30.2971C204.598 30.4185 204.3 30.5413 204.004 30.6642C203.336 30.9388 202.678 31.2148 202.031 31.4866C201.529 31.6976 201.034 31.9072 200.542 32.1138C200.187 32.2627 199.834 32.4101 199.483 32.5547C197.704 33.2889 195.968 33.9696 194.225 34.5217C192.201 35.1635 190.169 35.6347 188.052 35.8225C186.755 35.9382 185.427 35.9468 184.05 35.8225C182.176 35.6549 180.214 35.243 178.114 34.5217C177.309 34.2457 176.485 33.9234 175.638 33.5519C175.395 33.4464 175.151 33.3351 174.905 33.221C174.071 32.8336 173.215 32.4 172.335 31.9144C172.124 31.7988 171.912 31.6802 171.698 31.5574C171.656 31.5343 171.615 31.5111 171.574 31.4866C171.449 31.4143 171.324 31.342 171.198 31.2683C171.191 31.2278 171.183 31.1874 171.178 31.1469V31.144C171.152 30.9793 171.131 30.8159 171.117 30.6526V30.6497C171.104 30.4951 171.095 30.3404 171.092 30.1858C171.087 29.8924 171.1 29.6004 171.13 29.3099C171.18 28.8243 171.28 28.3444 171.423 27.8732C171.559 27.4295 171.735 26.9959 171.946 26.5725C172.5 25.4653 173.299 24.4363 174.281 23.5373C174.794 23.0646 175.357 22.6296 175.962 22.2365C176.058 22.1743 176.155 22.1122 176.254 22.0529C176.307 22.0182 176.363 21.985 176.418 21.9532C176.538 21.8809 176.658 21.8115 176.781 21.7436C176.856 21.7017 176.931 21.6612 177.008 21.6208C177.043 21.602 177.079 21.5832 177.114 21.5658C177.183 21.5283 177.254 21.4921 177.326 21.4574C177.332 21.4531 177.338 21.4502 177.343 21.4488C177.431 21.404 177.521 21.3606 177.611 21.3187C177.705 21.2739 177.799 21.2305 177.894 21.1886C177.955 21.1612 178.014 21.1351 178.075 21.1106C178.15 21.0773 178.226 21.0455 178.303 21.0152C178.387 20.9805 178.472 20.9472 178.557 20.914C178.644 20.8808 178.731 20.8475 178.818 20.8172C178.901 20.7868 178.985 20.7579 179.069 20.729C179.157 20.6986 179.247 20.6697 179.335 20.6408C179.426 20.6119 179.519 20.583 179.611 20.557C179.66 20.5411 179.708 20.5281 179.757 20.5151C179.852 20.4876 179.946 20.4616 180.042 20.437C180.053 20.4327 180.065 20.4298 180.078 20.4269C180.178 20.4009 180.276 20.3763 180.376 20.3547C180.418 20.3431 180.459 20.3344 180.501 20.3258C180.572 20.3084 180.644 20.2925 180.715 20.2795C180.756 20.2694 180.796 20.2622 180.837 20.2549C180.893 20.2434 180.949 20.2318 181.006 20.2217C181.062 20.2101 181.117 20.2015 181.175 20.1913C181.301 20.1697 181.428 20.1494 181.555 20.1306C181.571 20.1277 181.587 20.1263 181.603 20.1234C181.928 20.0786 182.246 20.0121 182.557 19.924C182.635 19.9023 182.711 19.8791 182.788 19.8546H182.789C183.629 19.5872 184.402 19.168 185.071 18.6232C185.418 18.3399 185.736 18.0248 186.02 17.6779C186.203 17.4539 186.372 17.2183 186.525 16.9697H186.527C186.793 16.5419 187.011 16.0808 187.176 15.588C187.182 15.575 187.186 15.5605 187.19 15.5475C187.326 15.1341 187.481 14.7107 187.659 14.2872C187.696 14.2005 187.734 14.1123 187.771 14.0241C187.792 13.9808 187.81 13.936 187.831 13.8926C187.849 13.8492 187.87 13.8044 187.89 13.7611C187.922 13.6903 187.955 13.6209 187.99 13.5501C188.016 13.4951 188.043 13.4388 188.071 13.3838C188.105 13.313 188.141 13.2422 188.177 13.1714C188.206 13.1165 188.235 13.063 188.264 13.0081C188.287 12.9633 188.312 12.9185 188.336 12.8736C188.375 12.8028 188.416 12.732 188.456 12.6612C189.986 10.0018 192.565 7.7384 196.903 8.02458C200.891 8.28907 204.078 10.6955 205.916 14.2872C206.13 14.7049 206.326 15.1399 206.501 15.588C206.819 16.3916 207.074 17.2414 207.262 18.1289C207.298 18.2922 207.33 18.4569 207.36 18.6232C207.438 19.0495 207.5 19.4831 207.546 19.924C207.552 19.9688 207.556 20.0136 207.561 20.0584C207.562 20.0613 207.562 20.0656 207.562 20.0685C207.634 20.8056 207.66 21.5283 207.643 22.2365H207.645Z" fill="url(#paint10_radial_2012_20927)"/>
<g style="mix-blend-mode:soft-light" opacity="0.6">
<path d="M202.54 12.7161C202.547 14.4693 199.385 13.3463 195.825 13.3622C192.265 13.3781 189.659 14.5271 189.652 12.7739C189.644 11.0207 192.522 9.58699 196.082 9.57109C199.64 9.55519 202.532 10.9644 202.54 12.7176V12.7161Z" fill="white"/>
</g>
<path d="M204.583 29.6597C204.112 30.7509 203.231 31.4187 202.939 31.2929C202.647 31.1672 203.306 30.683 203.777 29.5932C204.248 28.502 204.352 27.2171 204.644 27.3428C204.936 27.4686 205.055 28.5699 204.583 29.6597Z" fill="url(#paint11_radial_2012_20927)"/>
<path d="M192.371 13.2033C193.36 11.9538 193.708 10.5824 193.149 10.1401C192.59 9.69782 191.336 10.3522 190.347 11.6017C189.359 12.8512 189.01 14.2227 189.569 14.6649C190.128 15.1072 191.383 14.4528 192.371 13.2033Z" fill="url(#paint12_radial_2012_20927)"/>
<path d="M189.253 16.9465C189.677 16.4927 189.781 15.9009 189.485 15.6246C189.189 15.3483 188.606 15.4921 188.182 15.9458C187.758 16.3996 187.654 16.9914 187.949 17.2677C188.245 17.544 188.829 17.4002 189.253 16.9465Z" fill="url(#paint13_radial_2012_20927)"/>
<path d="M187.323 18.6118C187.551 18.368 187.607 18.0497 187.448 17.9009C187.288 17.7522 186.975 17.8292 186.747 18.073C186.519 18.3167 186.463 18.635 186.623 18.7838C186.782 18.9326 187.096 18.8555 187.323 18.6118Z" fill="url(#paint14_radial_2012_20927)"/>
<path d="M201.801 11.633C202.081 11.3406 201.944 10.7555 201.496 10.3261C201.047 9.89661 200.457 9.78547 200.177 10.0778C199.897 10.3702 200.034 10.9553 200.482 11.3847C200.931 11.8142 201.521 11.9253 201.801 11.633Z" fill="url(#paint15_radial_2012_20927)"/>
<path d="M202.927 12.7891C203.078 12.6317 203.005 12.3171 202.764 12.0863C202.523 11.8556 202.205 11.7962 202.055 11.9536C201.904 12.111 201.977 12.4257 202.218 12.6564C202.459 12.8871 202.777 12.9466 202.927 12.7891Z" fill="url(#paint16_radial_2012_20927)"/>
<path d="M179.183 22.7853C179.588 22.6553 179.848 22.3354 179.763 22.071C179.678 21.8065 179.281 21.6975 178.876 21.8276C178.47 21.9576 178.211 22.2775 178.296 22.5419C178.381 22.8064 178.778 22.9154 179.183 22.7853Z" fill="url(#paint17_radial_2012_20927)"/>
<path d="M34.1878 23.3998C34.1719 23.3969 34.156 23.3955 34.1386 23.3926C31.5515 23.0298 29.3647 21.2983 28.551 18.8152C27.3658 15.2005 24.7151 10.9035 18.837 11.2923C12.9632 11.6811 8.82953 16.7166 8.17768 23.3362C6.18169 43.6243 39.2421 52.9264 44.3658 35.2948C45.9571 29.8171 40.6195 24.3234 34.1878 23.3998Z" fill="url(#paint18_radial_2012_20927)"/>
<path d="M8.09385 23.9244C8.10107 24.3638 8.12564 24.7989 8.16611 25.2267C8.19646 25.549 8.23549 25.8684 8.28463 26.1849L8.28896 26.2066C8.3222 26.4306 8.36123 26.6518 8.40314 26.87C8.44361 27.0767 8.48842 27.2819 8.53611 27.4857C8.70377 28.1968 8.91768 28.8877 9.17061 29.5598C9.20097 29.6393 9.23132 29.7188 9.26311 29.7982C9.32381 29.9515 9.38741 30.1032 9.45245 30.255C9.56663 30.5195 9.68804 30.7811 9.81523 31.0383C9.8239 31.0586 9.83402 31.0788 9.84414 31.099C9.9482 31.3101 10.058 31.5196 10.1722 31.7249C10.5986 32.5082 11.0857 33.2569 11.6233 33.968C11.6652 34.0244 11.7072 34.0793 11.7491 34.1342C11.8185 34.2238 11.8878 34.3134 11.9586 34.4016C12.2405 34.7557 12.5353 35.0997 12.8432 35.435C21.1379 44.4871 37.895 46.4961 43.3006 36.4525C43.38 36.3066 43.4566 36.1562 43.5304 36.0045C43.6214 35.818 43.7081 35.6287 43.792 35.435C43.9712 35.0202 44.1331 34.5866 44.2747 34.1342C44.3051 34.0345 44.3369 33.9333 44.3658 33.8322C44.4279 33.6211 44.4785 33.4101 44.519 33.1991C44.5854 32.8609 44.6259 32.5227 44.6404 32.1859C44.6577 31.8217 44.6462 31.4589 44.6086 31.099C44.597 30.9849 44.5826 30.8721 44.5638 30.7594V30.7565C44.5146 30.4327 44.4438 30.1133 44.3513 29.7982C44.3397 29.7607 44.3296 29.7231 44.3181 29.6855C44.0854 28.9224 43.7342 28.1824 43.2832 27.4857C43.0794 27.1678 42.8554 26.8613 42.614 26.5622H42.6126C42.5085 26.4335 42.4016 26.3078 42.2917 26.1849C41.199 24.9579 39.787 23.9114 38.1855 23.1497C36.9455 22.5586 35.5926 22.1395 34.1878 21.9371C34.1719 21.9342 34.1545 21.9328 34.1386 21.9299C33.9825 21.9082 33.8264 21.8808 33.6732 21.849C32.5907 21.6249 31.5934 21.1581 30.7537 20.4932C30.3923 20.21 30.0614 19.8891 29.7651 19.5364C29.7217 19.4844 29.6783 19.4324 29.6364 19.3789C29.3589 19.0277 29.1161 18.6432 28.9123 18.2356C28.7721 17.9538 28.6507 17.659 28.551 17.354L28.525 17.2759C28.4484 17.0447 28.3645 16.8091 28.2735 16.5721C28.1015 16.1153 27.9035 15.6557 27.678 15.2005C27.4583 14.7582 27.2126 14.3217 26.938 13.8997C26.8195 13.7175 26.6966 13.5383 26.5666 13.3634C26.2833 12.9775 25.9711 12.6075 25.63 12.2635C24.0719 10.691 21.8895 9.62872 18.837 9.83106C15.7281 10.0363 13.1062 11.5438 11.2302 13.8997C10.905 14.3087 10.6015 14.7437 10.3225 15.2005C10.0942 15.5748 9.88027 15.965 9.68804 16.3697C9.68659 16.3697 9.6866 16.3712 9.6866 16.3712C9.39753 16.9638 9.14604 17.5867 8.93358 18.2356C8.87288 18.4192 8.81651 18.6056 8.76303 18.7935C8.69221 19.0378 8.62717 19.2849 8.56791 19.5364C8.39014 20.2808 8.26006 21.0526 8.18056 21.849C8.17912 21.8576 8.17912 21.8663 8.17767 21.875C8.15599 22.0932 8.13865 22.31 8.12709 22.5254V22.5297C8.11264 22.7378 8.10252 22.9445 8.09818 23.1497C8.09095 23.4099 8.08951 23.6686 8.09385 23.9244Z" fill="url(#paint19_radial_2012_20927)"/>
<g style="mix-blend-mode:hard-light" opacity="0.2">
<path d="M34.1878 20.33C34.1719 20.3271 34.156 20.3256 34.1386 20.3227C31.5515 19.96 29.3647 18.2285 28.551 15.7454C27.3658 12.1306 24.7151 7.83368 18.837 8.22247C12.9632 8.61126 8.82953 13.6468 8.17768 20.2664C6.18169 40.5544 39.2421 49.8565 44.3658 32.225C45.9571 26.7472 40.6195 21.2535 34.1878 20.33Z" fill="white"/>
</g>
<path d="M10.2489 29.6725C17.4119 42.4825 40.1859 46.0264 44.3672 31.6411C44.441 31.3881 44.5002 31.1352 44.5436 30.8823C45.4614 25.6661 40.3232 20.6262 34.1878 19.7446C34.1719 19.7417 34.156 19.7403 34.1401 19.7374C31.553 19.376 29.3676 17.6431 28.5525 15.16C27.3659 11.5453 24.7166 7.2483 18.8384 7.6371C12.9661 8.02589 8.83101 13.0614 8.17916 19.681C7.81205 23.4172 8.633 26.7804 10.2503 29.6711L10.2489 29.6725Z" fill="url(#paint20_radial_2012_20927)"/>
<g style="mix-blend-mode:overlay" opacity="0.8" filter="url(#filter2_f_2012_20927)">
<path d="M31.9721 22.3491C31.9576 22.3462 31.9432 22.3462 31.9287 22.3433C29.6148 22.0788 27.6 20.4282 26.7718 17.977C25.5678 14.4084 23.0342 10.2141 17.8252 10.8211C13.6728 11.3053 10.6304 14.7047 9.41488 19.431C10.1375 13.5282 13.456 9.06796 18.2588 8.50862C23.4678 7.90303 26.0014 12.0974 27.2054 15.6644C28.0321 18.1157 30.0484 19.7663 32.3623 20.0308C32.3768 20.0337 32.3912 20.0337 32.4057 20.0365C37.895 20.6898 42.6718 25.5346 42.0735 30.7811C42.0446 31.0355 42.0027 31.2899 41.9477 31.5457C41.8697 31.907 41.7786 32.2553 41.6803 32.595C41.9347 27.5436 37.288 22.9821 31.9721 22.3491Z" fill="url(#paint21_linear_2012_20927)"/>
</g>
<g style="mix-blend-mode:soft-light" opacity="0.75" filter="url(#filter3_f_2012_20927)">
<path d="M43.1531 28.5741C43.2341 29.3878 43.1676 30.2189 42.9262 31.0514C38.4081 46.5988 10.2806 39.3823 9.56808 22.3231C14.819 35.8152 37.1333 40.7149 43.1531 28.5756V28.5741Z" fill="url(#paint22_radial_2012_20927)"/>
</g>
<path style="mix-blend-mode:overlay" opacity="0.6" d="M8.09674 21.849C8.10108 22.0759 8.1112 22.3014 8.1271 22.5254V22.5297C8.13866 22.7379 8.156 22.9445 8.17768 23.1498C8.19358 23.3131 8.21237 23.475 8.2355 23.6368C8.2803 23.9852 8.33522 24.3277 8.40315 24.6659C8.43929 24.8538 8.47831 25.0374 8.52167 25.2209C8.59538 25.5476 8.68066 25.8684 8.7746 26.185C8.78038 26.2052 8.78616 26.2254 8.79339 26.2457C8.91914 26.6677 9.06078 27.0811 9.21832 27.4858C9.3802 27.9006 9.55652 28.3081 9.74875 28.7071C9.84703 28.9137 9.9511 29.119 10.0595 29.3228C10.1216 29.4398 10.1852 29.5569 10.2488 29.6711C10.3558 29.713 10.4613 29.7564 10.5668 29.7983C10.6593 29.8359 10.7504 29.872 10.8429 29.9096C11.1435 30.031 11.4412 30.1538 11.7375 30.2767C12.4053 30.5513 13.0629 30.8273 13.7104 31.0991C14.2119 31.3101 14.7077 31.5197 15.1991 31.7263C15.5546 31.8752 15.9073 32.0226 16.2585 32.1672C18.0377 32.9014 19.7735 33.5821 21.5166 34.1343C23.5401 34.776 25.5722 35.2472 27.6896 35.435C28.986 35.5507 30.3143 35.5593 31.6917 35.435C33.5648 35.2674 35.5276 34.8555 37.6277 34.1343C38.4327 33.8582 39.2565 33.5359 40.1035 33.1644C40.3463 33.0589 40.5906 32.9476 40.8363 32.8335C41.6702 32.4461 42.5259 32.0125 43.4061 31.5269C43.6171 31.4113 43.8296 31.2927 44.0435 31.1699C44.0854 31.1468 44.1258 31.1236 44.1678 31.0991C44.2921 31.0268 44.4178 30.9545 44.5435 30.8808C44.5508 30.8404 44.558 30.7999 44.5638 30.7594V30.7565C44.5898 30.5918 44.61 30.4284 44.6245 30.2651V30.2622C44.6375 30.1076 44.6462 29.9529 44.6491 29.7983C44.6548 29.5049 44.6418 29.2129 44.6115 28.9224C44.5609 28.4368 44.4612 27.9569 44.3181 27.4858C44.1822 27.042 44.0059 26.6084 43.7949 26.185C43.2413 25.0778 42.442 24.0488 41.4607 23.1498C40.9476 22.6771 40.3839 22.2421 39.7797 21.849C39.6829 21.7868 39.5861 21.7247 39.4878 21.6654C39.4343 21.6307 39.3779 21.5975 39.323 21.5657C39.2031 21.4934 39.0831 21.4241 38.9602 21.3561C38.8851 21.3142 38.8099 21.2737 38.7333 21.2333C38.6986 21.2145 38.6625 21.1957 38.6278 21.1783C38.5584 21.1408 38.4876 21.1046 38.4154 21.0699C38.4096 21.0656 38.4038 21.0627 38.398 21.0613C38.3098 21.0165 38.2202 20.9731 38.1306 20.9312C38.0367 20.8864 37.9427 20.843 37.8473 20.8011C37.7866 20.7737 37.7274 20.7476 37.6667 20.7231C37.5915 20.6898 37.5149 20.658 37.4383 20.6277C37.3545 20.593 37.2692 20.5597 37.1839 20.5265C37.0972 20.4933 37.0105 20.46 36.9238 20.4297C36.84 20.3993 36.7561 20.3704 36.6723 20.3415C36.5841 20.3111 36.4945 20.2822 36.4064 20.2533C36.3153 20.2244 36.2228 20.1955 36.1303 20.1695C36.0812 20.1536 36.0335 20.1406 35.9843 20.1276C35.8889 20.1001 35.795 20.0741 35.6996 20.0495C35.688 20.0452 35.6765 20.0423 35.6635 20.0394C35.5637 20.0134 35.4654 19.9888 35.3657 19.9672C35.3238 19.9556 35.2819 19.9469 35.24 19.9383C35.1692 19.9209 35.0969 19.905 35.0261 19.892C34.9856 19.8819 34.9451 19.8747 34.9047 19.8674C34.8483 19.8559 34.7919 19.8443 34.7356 19.8342C34.6792 19.8226 34.6243 19.814 34.5665 19.8038C34.4407 19.7822 34.3135 19.7619 34.1863 19.7431C34.1704 19.7402 34.1545 19.7388 34.1386 19.7359C33.8134 19.6911 33.4955 19.6246 33.1847 19.5365C33.1067 19.5148 33.0301 19.4916 32.9535 19.4671H32.952C32.1123 19.1997 31.339 18.7805 30.6699 18.2357C30.323 17.9524 30.005 17.6373 29.7217 17.2904C29.5382 17.0664 29.3691 16.8308 29.2159 16.5822H29.2144C28.9485 16.1544 28.7302 15.6933 28.5655 15.2005C28.5597 15.1875 28.5553 15.173 28.551 15.16C28.4151 14.7466 28.2605 14.3232 28.0827 13.8997C28.0451 13.813 28.0076 13.7248 27.97 13.6366C27.9497 13.5933 27.931 13.5485 27.9107 13.5051C27.8919 13.4617 27.8717 13.4169 27.8515 13.3736C27.8197 13.3028 27.7864 13.2334 27.7517 13.1626C27.7257 13.1076 27.6983 13.0513 27.6708 12.9964C27.6361 12.9255 27.6 12.8547 27.5638 12.7839C27.5349 12.729 27.506 12.6755 27.4771 12.6206C27.454 12.5758 27.4294 12.531 27.4049 12.4862C27.3658 12.4153 27.3254 12.3445 27.2849 12.2737C25.7557 9.61429 23.1758 7.35091 18.8384 7.63708C14.8508 7.90158 11.6638 10.308 9.82536 13.8997C9.61145 14.3174 9.41488 14.7524 9.24 15.2005C8.92202 16.0041 8.66764 16.8539 8.47976 17.7414C8.44362 17.9047 8.41182 18.0694 8.38147 18.2357C8.30342 18.662 8.24128 19.0956 8.19503 19.5365C8.18925 19.5813 8.18491 19.6261 8.18058 19.6709C8.17913 19.6738 8.17913 19.6781 8.17913 19.681C8.10686 20.4181 8.08084 21.1408 8.09819 21.849H8.09674Z" fill="url(#paint23_radial_2012_20927)"/>
<g style="mix-blend-mode:soft-light" opacity="0.6">
<path d="M13.2016 12.3286C13.1944 14.0818 16.3568 12.9588 19.9166 12.9747C23.4764 12.9906 26.0824 14.1396 26.0896 12.3864C26.0968 10.6333 23.2192 9.19949 19.6593 9.18359C16.1009 9.16769 13.2088 10.5769 13.2016 12.3301V12.3286Z" fill="white"/>
</g>
<path d="M11.1579 29.2722C11.6291 30.3634 12.5108 31.0312 12.8027 30.9054C13.0947 30.7797 12.4356 30.2955 11.9644 29.2057C11.4932 28.1145 11.3892 26.8296 11.0972 26.9553C10.8053 27.0811 10.6868 28.1824 11.1579 29.2722Z" fill="url(#paint24_radial_2012_20927)"/>
<path d="M23.3699 12.8158C22.3813 11.5663 22.0331 10.1949 22.5921 9.75261C23.1511 9.31033 24.4057 9.96471 25.3942 11.2142C26.3828 12.4637 26.731 13.8352 26.172 14.2774C25.613 14.7197 24.3584 14.0653 23.3699 12.8158Z" fill="url(#paint25_radial_2012_20927)"/>
<path d="M26.4887 16.559C26.0647 16.1052 25.9607 15.5134 26.2564 15.2371C26.5521 14.9608 27.1355 15.1046 27.5595 15.5583C27.9835 16.0121 28.0876 16.6039 27.7919 16.8802C27.4962 17.1565 26.9127 17.0127 26.4887 16.559Z" fill="url(#paint26_radial_2012_20927)"/>
<path d="M28.4179 18.2243C28.1901 17.9805 28.1345 17.6622 28.2937 17.5135C28.4529 17.3647 28.7667 17.4417 28.9945 17.6855C29.2223 17.9292 29.2779 18.2475 29.1187 18.3963C28.9595 18.5451 28.6457 18.4681 28.4179 18.2243Z" fill="url(#paint27_radial_2012_20927)"/>
<path d="M13.9401 11.2455C13.6602 10.9531 13.797 10.368 14.2456 9.93856C14.6942 9.50912 15.2848 9.39797 15.5646 9.69032C15.8445 9.98266 15.7077 10.5678 15.2591 10.9972C14.8105 11.4267 14.2199 11.5378 13.9401 11.2455Z" fill="url(#paint28_radial_2012_20927)"/>
<path d="M12.8139 12.4016C12.6632 12.2442 12.7364 11.9296 12.9775 11.6988C13.2185 11.4681 13.536 11.4087 13.6867 11.5661C13.8374 11.7235 13.7642 12.0382 13.5232 12.2689C13.2822 12.4996 12.9646 12.5591 12.8139 12.4016Z" fill="url(#paint29_radial_2012_20927)"/>
<path d="M36.5583 22.3978C36.1532 22.2678 35.8937 21.9479 35.9786 21.6835C36.0635 21.419 36.4607 21.31 36.8658 21.4401C37.2709 21.5701 37.5305 21.89 37.4455 22.1544C37.3606 22.4189 36.9634 22.5279 36.5583 22.3978Z" fill="url(#paint30_radial_2012_20927)"/>
<defs>
<filter id="filter0_f_2012_20927" x="165.617" y="0.837372" width="48.7094" height="40.1451" filterUnits="userSpaceOnUse" color-interpolation-filters="sRGB">
<feFlood flood-opacity="0" result="BackgroundImageFix"/>
<feBlend mode="normal" in="SourceGraphic" in2="BackgroundImageFix" result="shape"/>
<feGaussianBlur stdDeviation="4" result="effect1_foregroundBlur_2012_20927"/>
</filter>
<filter id="filter1_f_2012_20927" x="164.555" y="14.7106" width="49.6178" height="33.3006" filterUnits="userSpaceOnUse" color-interpolation-filters="sRGB">
<feFlood flood-opacity="0" result="BackgroundImageFix"/>
<feBlend mode="normal" in="SourceGraphic" in2="BackgroundImageFix" result="shape"/>
<feGaussianBlur stdDeviation="4" result="effect1_foregroundBlur_2012_20927"/>
</filter>
<filter id="filter2_f_2012_20927" x="1.41486" y="0.449875" width="48.7094" height="40.1451" filterUnits="userSpaceOnUse" color-interpolation-filters="sRGB">
<feFlood flood-opacity="0" result="BackgroundImageFix"/>
<feBlend mode="normal" in="SourceGraphic" in2="BackgroundImageFix" result="shape"/>
<feGaussianBlur stdDeviation="4" result="effect1_foregroundBlur_2012_20927"/>
</filter>
<filter id="filter3_f_2012_20927" x="1.56805" y="14.3231" width="49.6179" height="33.3006" filterUnits="userSpaceOnUse" color-interpolation-filters="sRGB">
<feFlood flood-opacity="0" result="BackgroundImageFix"/>
<feBlend mode="normal" in="SourceGraphic" in2="BackgroundImageFix" result="shape"/>
<feGaussianBlur stdDeviation="4" result="effect1_foregroundBlur_2012_20927"/>
</filter>
<radialGradient id="paint0_radial_2012_20927" cx="0" cy="0" r="1" gradientUnits="userSpaceOnUse" gradientTransform="translate(105.847 30.9159) scale(98.3808 42.1632)">
<stop/>
<stop offset="0.84" stop-opacity="0.2"/>
</radialGradient>
<radialGradient id="paint1_radial_2012_20927" cx="0" cy="0" r="1" gradientUnits="userSpaceOnUse" gradientTransform="translate(105.847 28.7937) scale(98.3808 42.1632)">
<stop stop-color="#F79D06"/>
<stop offset="0.98" stop-color="#D36101"/>
</radialGradient>
<radialGradient id="paint2_radial_2012_20927" cx="0" cy="0" r="1" gradientUnits="userSpaceOnUse" gradientTransform="translate(106.412 7.13156) rotate(-92.49) scale(43.9175 229.169)">
<stop stop-color="#F79D06"/>
<stop offset="0.98" stop-color="#D36101"/>
</radialGradient>
<linearGradient id="paint3_linear_2012_20927" x1="108.32" y1="51.0075" x2="108.32" y2="39.1125" gradientUnits="userSpaceOnUse">
<stop/>
<stop offset="1" stop-opacity="0"/>
</linearGradient>
<radialGradient id="paint4_radial_2012_20927" cx="0" cy="0" r="1" gradientUnits="userSpaceOnUse" gradientTransform="translate(106.769 11.5191) scale(101.795 43.6266)">
<stop stop-color="white"/>
<stop offset="1" stop-color="white" stop-opacity="0"/>
</radialGradient>
<radialGradient id="paint5_radial_2012_20927" cx="0" cy="0" r="1" gradientUnits="userSpaceOnUse" gradientTransform="translate(187.397 25.4046) scale(19.4642 19.4642)">
<stop/>
<stop offset="0.84" stop-opacity="0.2"/>
</radialGradient>
<radialGradient id="paint6_radial_2012_20927" cx="0" cy="0" r="1" gradientUnits="userSpaceOnUse" gradientTransform="translate(189.371 26.8658) scale(17.4928 17.4928)">
<stop stop-color="#26DAFD"/>
<stop offset="0.23" stop-color="#1CAAE3"/>
<stop offset="0.47" stop-color="#1482CD"/>
<stop offset="0.68" stop-color="#0E65BD"/>
<stop offset="0.87" stop-color="#0B53B4"/>
<stop offset="1" stop-color="#0A4DB1"/>
</radialGradient>
<radialGradient id="paint7_radial_2012_20927" cx="0" cy="0" r="1" gradientUnits="userSpaceOnUse" gradientTransform="translate(185.715 17.7993) scale(22.6931 22.6931)">
<stop stop-color="#26DAFD"/>
<stop offset="0.23" stop-color="#1CAAE3"/>
<stop offset="0.47" stop-color="#1482CD"/>
<stop offset="0.68" stop-color="#0E65BD"/>
<stop offset="0.87" stop-color="#0B53B4"/>
<stop offset="1" stop-color="#0A4DB1"/>
</radialGradient>
<linearGradient id="paint8_linear_2012_20927" x1="189.971" y1="32.9825" x2="189.971" y2="8.8383" gradientUnits="userSpaceOnUse">
<stop stop-color="white" stop-opacity="0"/>
<stop offset="1" stop-color="white"/>
</linearGradient>
<radialGradient id="paint9_radial_2012_20927" cx="0" cy="0" r="1" gradientUnits="userSpaceOnUse" gradientTransform="translate(186.002 24.5042) scale(22.55)">
<stop stop-color="white"/>
<stop offset="0.62" stop-color="#5D5D5D"/>
<stop offset="1"/>
</radialGradient>
<radialGradient id="paint10_radial_2012_20927" cx="0" cy="0" r="1" gradientUnits="userSpaceOnUse" gradientTransform="translate(188.991 18.4439) scale(20.0452 20.0452)">
<stop stop-color="white"/>
<stop offset="1" stop-color="white" stop-opacity="0"/>
</radialGradient>
<radialGradient id="paint11_radial_2012_20927" cx="0" cy="0" r="1" gradientUnits="userSpaceOnUse" gradientTransform="translate(203.915 29.536) rotate(-67.9) scale(2.14148 0.837972)">
<stop stop-color="white"/>
<stop offset="1" stop-color="white" stop-opacity="0"/>
</radialGradient>
<radialGradient id="paint12_radial_2012_20927" cx="0" cy="0" r="1" gradientUnits="userSpaceOnUse" gradientTransform="translate(189.321 13.4045) rotate(-50.14) scale(2.12125 1.59963)">
<stop offset="0.51" stop-color="white"/>
<stop offset="1" stop-color="white" stop-opacity="0"/>
</radialGradient>
<radialGradient id="paint13_radial_2012_20927" cx="0" cy="0" r="1" gradientUnits="userSpaceOnUse" gradientTransform="translate(178.655 25.9716) rotate(-44.74) scale(0.549556 1.39143)">
<stop offset="0.51" stop-color="white"/>
<stop offset="1" stop-color="white" stop-opacity="0"/>
</radialGradient>
<radialGradient id="paint14_radial_2012_20927" cx="0" cy="0" r="1" gradientUnits="userSpaceOnUse" gradientTransform="translate(176.841 28.0349) rotate(-44.74) scale(0.295497 0.748173)">
<stop offset="0.51" stop-color="white"/>
<stop offset="1" stop-color="white" stop-opacity="0"/>
</radialGradient>
<radialGradient id="paint15_radial_2012_20927" cx="0" cy="0" r="1" gradientUnits="userSpaceOnUse" gradientTransform="translate(182.349 -9.05464) rotate(-134.05) scale(0.549557 1.39143)">
<stop offset="0.51" stop-color="white"/>
<stop offset="1" stop-color="white" stop-opacity="0"/>
</radialGradient>
<radialGradient id="paint16_radial_2012_20927" cx="0" cy="0" r="1" gradientUnits="userSpaceOnUse" gradientTransform="translate(183.998 -7.42855) rotate(-134.05) scale(0.295497 0.748174)">
<stop offset="0.51" stop-color="white"/>
<stop offset="1" stop-color="white" stop-opacity="0"/>
</radialGradient>
<radialGradient id="paint17_radial_2012_20927" cx="0" cy="0" r="1" gradientUnits="userSpaceOnUse" gradientTransform="translate(196.817 17.6144) rotate(-15.6) scale(0.376334 0.952846)">
<stop offset="0.51" stop-color="white"/>
<stop offset="1" stop-color="white" stop-opacity="0"/>
</radialGradient>
<radialGradient id="paint18_radial_2012_20927" cx="0" cy="0" r="1" gradientUnits="userSpaceOnUse" gradientTransform="translate(28.3443 25.0171) rotate(180) scale(19.4642 19.4642)">
<stop/>
<stop offset="0.84" stop-opacity="0.2"/>
</radialGradient>
<radialGradient id="paint19_radial_2012_20927" cx="0" cy="0" r="1" gradientUnits="userSpaceOnUse" gradientTransform="translate(26.37 26.4783) rotate(180) scale(17.4928 17.4928)">
<stop stop-color="#26DAFD"/>
<stop offset="0.23" stop-color="#1CAAE3"/>
<stop offset="0.47" stop-color="#1482CD"/>
<stop offset="0.68" stop-color="#0E65BD"/>
<stop offset="0.87" stop-color="#0B53B4"/>
<stop offset="1" stop-color="#0A4DB1"/>
</radialGradient>
<radialGradient id="paint20_radial_2012_20927" cx="0" cy="0" r="1" gradientUnits="userSpaceOnUse" gradientTransform="translate(30.0267 17.4118) rotate(180) scale(22.6931 22.6931)">
<stop stop-color="#26DAFD"/>
<stop offset="0.23" stop-color="#1CAAE3"/>
<stop offset="0.47" stop-color="#1482CD"/>
<stop offset="0.68" stop-color="#0E65BD"/>
<stop offset="0.87" stop-color="#0B53B4"/>
<stop offset="1" stop-color="#0A4DB1"/>
</radialGradient>
<linearGradient id="paint21_linear_2012_20927" x1="25.7702" y1="32.595" x2="25.7702" y2="8.45081" gradientUnits="userSpaceOnUse">
<stop stop-color="white" stop-opacity="0"/>
<stop offset="1" stop-color="white"/>
</linearGradient>
<radialGradient id="paint22_radial_2012_20927" cx="0" cy="0" r="1" gradientUnits="userSpaceOnUse" gradientTransform="translate(29.7391 24.1167) rotate(180) scale(22.55)">
<stop stop-color="white"/>
<stop offset="0.62" stop-color="#5D5D5D"/>
<stop offset="1"/>
</radialGradient>
<radialGradient id="paint23_radial_2012_20927" cx="0" cy="0" r="1" gradientUnits="userSpaceOnUse" gradientTransform="translate(26.7501 18.0564) rotate(180) scale(20.0452 20.0452)">
<stop stop-color="white"/>
<stop offset="1" stop-color="white" stop-opacity="0"/>
</radialGradient>
<radialGradient id="paint24_radial_2012_20927" cx="0" cy="0" r="1" gradientUnits="userSpaceOnUse" gradientTransform="translate(11.8259 29.1485) rotate(-112.1) scale(2.14148 0.837972)">
<stop stop-color="white"/>
<stop offset="1" stop-color="white" stop-opacity="0"/>
</radialGradient>
<radialGradient id="paint25_radial_2012_20927" cx="0" cy="0" r="1" gradientUnits="userSpaceOnUse" gradientTransform="translate(26.4206 13.017) rotate(-129.86) scale(2.12125 1.59963)">
<stop offset="0.51" stop-color="white"/>
<stop offset="1" stop-color="white" stop-opacity="0"/>
</radialGradient>
<radialGradient id="paint26_radial_2012_20927" cx="0" cy="0" r="1" gradientUnits="userSpaceOnUse" gradientTransform="translate(37.0867 25.5841) rotate(-135.26) scale(0.549556 1.39143)">
<stop offset="0.51" stop-color="white"/>
<stop offset="1" stop-color="white" stop-opacity="0"/>
</radialGradient>
<radialGradient id="paint27_radial_2012_20927" cx="0" cy="0" r="1" gradientUnits="userSpaceOnUse" gradientTransform="translate(38.9008 27.6474) rotate(-135.26) scale(0.295497 0.748173)">
<stop offset="0.51" stop-color="white"/>
<stop offset="1" stop-color="white" stop-opacity="0"/>
</radialGradient>
<radialGradient id="paint28_radial_2012_20927" cx="0" cy="0" r="1" gradientUnits="userSpaceOnUse" gradientTransform="translate(33.3924 -9.44213) rotate(-45.95) scale(0.549557 1.39143)">
<stop offset="0.51" stop-color="white"/>
<stop offset="1" stop-color="white" stop-opacity="0"/>
</radialGradient>
<radialGradient id="paint29_radial_2012_20927" cx="0" cy="0" r="1" gradientUnits="userSpaceOnUse" gradientTransform="translate(31.7437 -7.81605) rotate(-45.95) scale(0.295497 0.748174)">
<stop offset="0.51" stop-color="white"/>
<stop offset="1" stop-color="white" stop-opacity="0"/>
</radialGradient>
<radialGradient id="paint30_radial_2012_20927" cx="0" cy="0" r="1" gradientUnits="userSpaceOnUse" gradientTransform="translate(18.924 17.2269) rotate(-164.4) scale(0.376334 0.952846)">
<stop offset="0.51" stop-color="white"/>
<stop offset="1" stop-color="white" stop-opacity="0"/>
</radialGradient>
</defs>
</svg>
