<svg width="215" height="56" viewBox="0 0 215 56" fill="none" xmlns="http://www.w3.org/2000/svg">
<path d="M214.122 31.1725C214.122 32.3725 214.072 33.5725 214.012 34.7825C213.892 37.1525 213.672 39.5225 213.352 41.8925C213.172 43.2225 212.972 44.5525 212.732 45.8825C212.312 48.2125 209.832 50.2825 206.082 51.7725C202.582 53.3725 197.742 54.4325 192.272 54.6125C168.002 55.4025 46.2319 55.4025 21.9519 54.6125C16.4819 54.4325 11.6419 53.3725 8.14189 51.7725C4.39189 50.2825 1.91189 48.2125 1.49189 45.8825C1.33189 45.0025 1.19189 44.1225 1.06189 43.2425C0.671893 40.6525 0.401892 38.0525 0.251892 35.4625C0.161892 33.9925 0.111892 32.5125 0.101892 31.0425C0.081892 29.9925 0.101893 28.9425 0.131893 27.8925V27.8525C0.181893 26.3425 0.261893 24.8225 0.381893 23.3125C0.481893 22.1025 0.601892 20.8925 0.751892 19.6925C0.951892 18.0625 1.20189 16.4325 1.49189 14.8025C1.71189 13.5725 2.50189 12.4225 3.75189 11.3825C4.87189 10.4525 6.36189 9.61247 8.13189 8.91247C11.6319 7.31247 16.4719 6.25247 21.9419 6.07247C46.2219 5.28247 167.992 5.28247 192.262 6.07247C197.732 6.25247 202.572 7.31247 206.072 8.91247C208.332 9.81247 210.132 10.9125 211.292 12.1725C212.062 12.9925 212.562 13.8825 212.722 14.8125C213.032 16.5325 213.292 18.2425 213.492 19.9625C213.652 21.2525 213.782 22.5425 213.872 23.8325C213.972 25.1425 214.042 26.4425 214.082 27.7525C214.122 28.9025 214.132 30.0425 214.122 31.1825V31.1725Z" fill="url(#paint0_radial_2012_21427)"/>
<path d="M214.022 32.5525C213.962 33.8025 213.872 35.0625 213.752 36.3125C213.552 38.4525 213.272 40.5925 212.912 42.7325C212.852 43.0725 212.792 43.4125 212.732 43.7525C212.312 46.0825 209.832 48.1525 206.082 49.6425C202.582 51.2425 197.742 52.3025 192.272 52.4825C168.002 53.2725 46.2319 53.2725 21.9519 52.4825C16.4819 52.3025 11.6419 51.2425 8.1419 49.6425C4.5819 48.2225 2.1719 46.2925 1.5719 44.1025C1.5319 43.9825 1.5119 43.8725 1.4919 43.7525C1.0919 41.5225 0.781897 39.2925 0.551897 37.0625C0.401897 35.5925 0.281897 34.1125 0.211897 32.6425C0.101897 30.7225 0.0718981 28.8025 0.101898 26.8725V26.8425C0.111898 26.3725 0.121897 25.8925 0.141897 25.4225C0.181897 24.0825 0.261898 22.7525 0.361898 21.4125C0.551898 18.9625 0.851898 16.5025 1.2519 14.0525C1.3319 13.5925 1.4019 13.1225 1.4919 12.6625C1.9119 10.3325 4.3919 8.26246 8.1419 6.77246C11.6419 5.17246 16.4819 4.11247 21.9519 3.93247C46.2319 3.14247 168.002 3.14247 192.272 3.93247C197.742 4.11247 202.582 5.17246 206.082 6.77246C209.832 8.26246 212.312 10.3325 212.732 12.6625C212.842 13.2725 212.942 13.8825 213.042 14.4925C213.412 16.8125 213.682 19.1325 213.872 21.4525C213.982 22.8925 214.062 24.3325 214.102 25.7725C214.102 26.0025 214.122 26.2325 214.122 26.4725V26.5525C214.162 28.5525 214.122 30.5525 214.022 32.5425V32.5525Z" fill="url(#paint1_radial_2012_21427)"/>
<g style="mix-blend-mode:hard-light" opacity="0.2">
<path d="M212.732 10.7425C212.312 8.37247 209.832 6.26247 206.082 4.74247C202.582 3.11247 197.742 2.03247 192.272 1.85247C168.002 1.04247 46.2219 1.04247 21.9519 1.85247C16.4819 2.03247 11.6419 3.11247 8.1419 4.74247C4.4019 6.26247 1.9119 8.36247 1.4919 10.7425C-0.358099 21.2825 -0.358099 31.8325 1.4919 42.3725C1.9119 44.7425 4.3919 46.8525 8.1419 48.3725C11.6419 50.0025 16.4819 51.0825 21.9519 51.2625C46.2219 52.0725 168.002 52.0725 192.272 51.2625C197.742 51.0825 202.582 50.0025 206.082 48.3725C209.822 46.8525 212.312 44.7525 212.732 42.3725C214.582 31.8325 214.582 21.2825 212.732 10.7425Z" fill="white"/>
</g>
<path d="M213.602 35.2325C213.382 37.2525 213.092 39.2625 212.742 41.2825C212.322 43.6425 209.842 45.7225 206.092 47.2325C202.592 48.8425 197.752 49.9125 192.282 50.0925C168.012 50.8925 46.2319 50.8925 21.9619 50.0925C16.4919 49.9125 11.6519 48.8425 8.1519 47.2325C4.4019 45.7225 1.9219 43.6425 1.5019 41.2825C1.1719 39.4225 0.901901 37.5525 0.691901 35.6825C-0.288099 27.0925 -0.0180974 18.4925 1.5019 9.90248C1.9219 7.55248 4.4019 5.46248 8.1519 3.95248C11.6519 2.34248 16.4919 1.27248 21.9619 1.09248C46.2319 0.292477 168.012 0.292477 192.282 1.09248C197.752 1.27248 202.592 2.34248 206.092 3.95248C209.842 5.46248 212.322 7.54248 212.742 9.90248C214.232 18.3425 214.532 26.7925 213.602 35.2325Z" fill="url(#paint2_radial_2012_21427)"/>
<g style="mix-blend-mode:soft-light" opacity="0.75">
<path d="M213.602 35.2324C213.382 37.2524 213.092 39.2624 212.742 41.2824C212.322 43.6424 209.842 45.7224 206.092 47.2324C202.592 48.8424 197.752 49.9124 192.282 50.0924C168.012 50.8924 46.2319 50.8924 21.9619 50.0924C16.4919 49.9124 11.6519 48.8424 8.1519 47.2324C4.4019 45.7224 1.9219 43.6424 1.5019 41.2824C1.1719 39.4224 0.901901 37.5524 0.691901 35.6824C-0.288099 27.0924 -0.0180974 18.4924 1.5019 9.90243C1.9219 7.55243 4.4019 5.46243 8.1519 3.95243C11.6519 2.34243 16.4919 1.27243 21.9619 1.09243C46.2319 0.292432 168.012 0.292432 192.282 1.09243C197.752 1.27243 202.592 2.34243 206.092 3.95243C209.842 5.46243 212.322 7.54243 212.742 9.90243C214.232 18.3424 214.532 26.7924 213.602 35.2324Z" fill="url(#paint3_linear_2012_21427)"/>
</g>
<path style="mix-blend-mode:overlay" opacity="0.6" d="M214.122 25.7925C214.122 26.0225 214.122 26.2525 214.122 26.4825V26.5625C214.122 26.9525 214.102 27.3425 214.092 27.7425C214.062 28.8625 214.012 29.9725 213.932 31.0825C213.902 31.5425 213.862 31.9925 213.832 32.4525C213.772 33.1625 213.702 33.8825 213.622 34.6025C213.612 34.7025 213.602 34.8025 213.592 34.9025C212.772 35.0225 211.962 35.1525 211.152 35.2625C206.862 35.8925 202.572 36.4425 198.282 36.9325C196.772 37.1025 195.252 37.2625 193.742 37.4225C167.982 40.0425 44.6819 40.1425 18.8619 37.5825C17.4919 37.4525 16.1219 37.3025 14.7419 37.1525C10.8719 36.7325 7.00189 36.2425 3.13189 35.6925C2.31189 35.5825 1.50189 35.4625 0.691887 35.3425C0.691887 35.3025 0.69189 35.2525 0.67189 35.2125C0.57189 34.3125 0.481888 33.4225 0.411888 32.5225C0.361888 31.9925 0.331889 31.4625 0.291889 30.9425C0.221889 29.9225 0.171888 28.9125 0.141888 27.8925V27.8525C0.141888 27.5325 0.121889 27.2025 0.111889 26.8825V26.8525C0.111889 26.3825 0.0918884 25.9225 0.0918884 25.4525C0.0918884 24.7725 0.0918891 24.0925 0.121889 23.4125C0.141889 22.7825 0.161887 22.1525 0.191887 21.5225C0.211887 20.9825 0.241887 20.4525 0.281887 19.9125C0.401887 18.0125 0.58189 16.1125 0.83189 14.2125C0.92189 13.5325 1.01189 12.8625 1.11189 12.1825C1.23189 11.3925 1.36189 10.5925 1.50189 9.79247C1.92189 7.46247 4.40189 5.39247 8.15189 3.90247C11.6519 2.30247 16.4919 1.24247 21.9619 1.06247C46.2419 0.272471 168.012 0.272471 192.282 1.06247C197.752 1.24247 202.602 2.30247 206.092 3.90247C209.842 5.39247 212.322 7.46247 212.742 9.79247C212.922 10.7725 213.082 11.7525 213.222 12.7225C213.312 13.3625 213.402 13.9925 213.472 14.6325C213.702 16.4625 213.872 18.2925 213.982 20.1225C214.012 20.5925 214.032 21.0525 214.052 21.5225C214.092 22.3125 214.112 23.0925 214.132 23.8825C214.132 24.5125 214.132 25.1425 214.132 25.7725L214.122 25.7925Z" fill="url(#paint4_radial_2012_21427)"/>
<g style="mix-blend-mode:soft-light" opacity="0.6">
<path d="M179.662 8.50247C179.692 11.5525 162.802 9.62247 102.312 9.62247C52.7019 9.62247 33.9219 11.6425 33.8919 8.59247C33.8619 5.54247 51.9819 3.03247 103.272 3.03247C162.092 3.03247 179.632 5.45247 179.662 8.50247Z" fill="white"/>
</g>
<path d="M53.0021 31.63C51.5301 31.63 50.0421 31.182 48.7941 30.286C48.5221 30.094 48.3301 29.742 48.3301 29.358C48.3301 28.718 48.8421 28.222 49.4821 28.222C49.8021 28.222 50.0261 28.334 50.1861 28.446C51.0341 29.07 51.9621 29.454 53.0501 29.454C54.0581 29.454 54.6661 29.054 54.6661 28.398V28.366C54.6661 27.742 54.2821 27.422 52.4101 26.942C50.1541 26.366 48.6981 25.742 48.6981 23.518V23.486C48.6981 21.454 50.3301 20.11 52.6181 20.11C53.9781 20.11 55.1621 20.462 56.1701 21.102C56.4421 21.262 56.7141 21.598 56.7141 22.078C56.7141 22.718 56.2021 23.214 55.5621 23.214C55.3221 23.214 55.1301 23.15 54.9381 23.038C54.1221 22.558 53.3541 22.286 52.5861 22.286C51.6421 22.286 51.1461 22.718 51.1461 23.262V23.294C51.1461 24.03 51.6261 24.27 53.5621 24.766C55.8341 25.358 57.1141 26.174 57.1141 28.126V28.158C57.1141 30.382 55.4181 31.63 53.0021 31.63ZM61.6261 30.334V22.542H59.2581C58.6341 22.542 58.1221 22.03 58.1221 21.406C58.1221 20.782 58.6341 20.27 59.2581 20.27H66.4581C67.0821 20.27 67.5941 20.782 67.5941 21.406C67.5941 22.03 67.0821 22.542 66.4581 22.542H64.0901V30.334C64.0901 31.022 63.5461 31.566 62.8581 31.566C62.1701 31.566 61.6261 31.022 61.6261 30.334ZM67.4219 30.414C67.4219 30.238 67.4859 30.062 67.5659 29.886L71.4699 21.07C71.7419 20.462 72.2379 20.094 72.9099 20.094H73.0539C73.7259 20.094 74.2059 20.462 74.4779 21.07L78.3819 29.886C78.4619 30.062 78.5099 30.222 78.5099 30.382C78.5099 31.038 77.9979 31.566 77.3419 31.566C76.7659 31.566 76.3819 31.23 76.1579 30.718L75.4059 28.958H70.4779L69.6939 30.798C69.4859 31.278 69.0699 31.566 68.5579 31.566C67.9179 31.566 67.4219 31.054 67.4219 30.414ZM71.3899 26.782H74.4939L72.9419 23.086L71.3899 26.782ZM80.4399 30.334V21.406C80.4399 20.718 80.9839 20.174 81.6719 20.174C82.3599 20.174 82.9039 20.718 82.9039 21.406V25.166L87.4479 20.654C87.7519 20.35 88.0559 20.174 88.4879 20.174C89.1759 20.174 89.6239 20.702 89.6239 21.31C89.6239 21.694 89.4479 21.982 89.1759 22.238L86.0239 25.182L89.4639 29.502C89.6559 29.742 89.7999 29.998 89.7999 30.366C89.7999 31.054 89.2719 31.566 88.5519 31.566C88.0719 31.566 87.7839 31.326 87.5119 30.974L84.3119 26.782L82.9039 28.094V30.334C82.9039 31.022 82.3599 31.566 81.6719 31.566C80.9839 31.566 80.4399 31.022 80.4399 30.334ZM93.0626 31.47C92.3746 31.47 91.8306 30.926 91.8306 30.238V21.502C91.8306 20.814 92.3746 20.27 93.0626 20.27H99.2706C99.8786 20.27 100.375 20.766 100.375 21.374C100.375 21.982 99.8786 22.462 99.2706 22.462H94.2786V24.734H98.5506C99.1586 24.734 99.6546 25.23 99.6546 25.838C99.6546 26.446 99.1586 26.926 98.5506 26.926H94.2786V29.278H99.3506C99.9586 29.278 100.455 29.774 100.455 30.382C100.455 30.99 99.9586 31.47 99.3506 31.47H93.0626ZM111.33 31.63C109.858 31.63 108.37 31.182 107.122 30.286C106.85 30.094 106.658 29.742 106.658 29.358C106.658 28.718 107.17 28.222 107.81 28.222C108.13 28.222 108.354 28.334 108.514 28.446C109.362 29.07 110.29 29.454 111.378 29.454C112.386 29.454 112.994 29.054 112.994 28.398V28.366C112.994 27.742 112.61 27.422 110.738 26.942C108.482 26.366 107.026 25.742 107.026 23.518V23.486C107.026 21.454 108.658 20.11 110.946 20.11C112.306 20.11 113.49 20.462 114.498 21.102C114.77 21.262 115.042 21.598 115.042 22.078C115.042 22.718 114.53 23.214 113.89 23.214C113.65 23.214 113.458 23.15 113.266 23.038C112.45 22.558 111.682 22.286 110.914 22.286C109.97 22.286 109.474 22.718 109.474 23.262V23.294C109.474 24.03 109.954 24.27 111.89 24.766C114.162 25.358 115.442 26.174 115.442 28.126V28.158C115.442 30.382 113.746 31.63 111.33 31.63ZM122.253 31.646C119.245 31.646 117.405 29.966 117.405 26.67V21.406C117.405 20.718 117.949 20.174 118.637 20.174C119.325 20.174 119.869 20.718 119.869 21.406V26.606C119.869 28.43 120.781 29.374 122.285 29.374C123.789 29.374 124.701 28.462 124.701 26.686V21.406C124.701 20.718 125.245 20.174 125.933 20.174C126.621 20.174 127.165 20.718 127.165 21.406V26.59C127.165 29.982 125.261 31.646 122.253 31.646ZM135.066 31.662C131.578 31.662 129.178 29.214 129.178 25.902V25.87C129.178 22.686 131.658 20.078 135.05 20.078C136.746 20.078 137.866 20.462 138.874 21.166C139.114 21.342 139.386 21.678 139.386 22.158C139.386 22.83 138.842 23.374 138.17 23.374C137.818 23.374 137.594 23.246 137.418 23.118C136.746 22.638 136.026 22.35 134.97 22.35C133.178 22.35 131.754 23.934 131.754 25.838V25.87C131.754 27.918 133.162 29.422 135.146 29.422C136.042 29.422 136.842 29.198 137.466 28.75V27.15H135.802C135.21 27.15 134.73 26.686 134.73 26.094C134.73 25.502 135.21 25.022 135.802 25.022H138.618C139.306 25.022 139.85 25.566 139.85 26.254V28.974C139.85 29.694 139.578 30.19 138.986 30.542C138.074 31.102 136.746 31.662 135.066 31.662ZM141.453 30.414C141.453 30.238 141.517 30.062 141.597 29.886L145.501 21.07C145.773 20.462 146.269 20.094 146.941 20.094H147.085C147.757 20.094 148.237 20.462 148.509 21.07L152.413 29.886C152.493 30.062 152.541 30.222 152.541 30.382C152.541 31.038 152.029 31.566 151.373 31.566C150.797 31.566 150.413 31.23 150.189 30.718L149.437 28.958H144.509L143.725 30.798C143.517 31.278 143.101 31.566 142.589 31.566C141.949 31.566 141.453 31.054 141.453 30.414ZM145.421 26.782H148.525L146.973 23.086L145.421 26.782ZM154.471 30.334V21.502C154.471 20.814 155.015 20.27 155.703 20.27H159.591C161.015 20.27 162.119 20.67 162.855 21.406C163.479 22.03 163.815 22.91 163.815 23.966V23.998C163.815 25.758 162.935 26.846 161.575 27.406L163.287 29.486C163.527 29.79 163.687 30.046 163.687 30.43C163.687 31.118 163.111 31.566 162.519 31.566C161.959 31.566 161.591 31.294 161.303 30.926L158.903 27.886H156.935V30.334C156.935 31.022 156.391 31.566 155.703 31.566C155.015 31.566 154.471 31.022 154.471 30.334ZM156.935 25.71H159.431C160.631 25.71 161.319 25.07 161.319 24.126V24.094C161.319 23.038 160.583 22.494 159.383 22.494H156.935V25.71Z" fill="white"/>
<path d="M37.2623 28.4161C37.2598 29.1186 37.251 29.8223 37.2348 30.5248C37.2048 31.911 37.1498 33.2959 37.071 34.6821C37.0273 35.4608 36.976 36.2396 36.916 37.0183C36.811 38.3832 36.1911 39.5919 35.2561 40.4644C34.3836 41.3994 33.1749 42.0193 31.81 42.1231C25.7515 42.5856 19.6929 42.5856 13.6332 42.1231C12.2682 42.0193 11.0595 41.3994 10.1871 40.4644C9.25209 39.5919 8.63212 38.3832 8.52837 37.0183C8.48962 36.5033 8.45338 35.9883 8.42088 35.4733C8.32463 33.9559 8.25713 32.4397 8.21963 30.9235C8.19839 30.0623 8.18589 29.2011 8.18339 28.3399C8.17964 27.7261 8.18339 27.1124 8.19089 26.4999V26.4762C8.20214 25.5912 8.22213 24.7063 8.25338 23.8225C8.27713 23.1163 8.30713 22.4101 8.34463 21.7039C8.39463 20.7502 8.45588 19.7952 8.52837 18.8415C8.58337 18.1228 8.78086 17.4478 9.09335 16.8416C9.37209 16.2966 9.74458 15.8079 10.1871 15.3954C11.0595 14.4604 12.2682 13.8404 13.6332 13.7354C19.6929 13.273 25.7515 13.273 31.81 13.7354C33.1749 13.8404 34.3836 14.4604 35.2561 15.3954C35.8198 15.9204 36.2685 16.5678 36.5585 17.2991C36.751 17.7803 36.8748 18.299 36.916 18.8415C36.9923 19.8452 37.0573 20.8502 37.1073 21.8539C37.146 22.6076 37.1785 23.3626 37.2023 24.1163C37.2273 24.88 37.2435 25.6437 37.2535 26.4074V26.4137C37.2623 27.0812 37.2648 27.7486 37.2623 28.4161Z" fill="url(#paint5_radial_2012_21427)"/>
<path d="M37.236 29.2262C37.221 29.9599 37.1985 30.6936 37.1685 31.4273C37.1185 32.6785 37.0498 33.931 36.9598 35.1834C36.946 35.3822 36.931 35.5797 36.916 35.7772C36.811 37.1409 36.1911 38.3496 35.2561 39.222C34.3836 40.157 33.1749 40.777 31.81 40.882C25.7515 41.3444 19.6929 41.3444 13.6332 40.882C12.2682 40.777 11.0595 40.157 10.1871 39.222C9.2996 38.3933 8.69587 37.2621 8.54838 35.9821C8.53963 35.9146 8.53338 35.8459 8.52838 35.7772C8.42838 34.4735 8.35088 33.1698 8.29464 31.8673C8.25714 31.0048 8.22839 30.1424 8.21089 29.2799C8.18464 28.1549 8.17714 27.0312 8.18464 25.9075V25.8925C8.18714 25.615 8.18964 25.3388 8.19339 25.0613C8.20339 24.2801 8.22214 23.4989 8.24839 22.7177C8.29589 21.2827 8.36963 19.8465 8.46963 18.4103C8.48838 18.1403 8.50713 17.8691 8.52838 17.5991C8.63212 16.2342 9.2521 15.0255 10.1871 14.153C11.0595 13.2193 12.2682 12.598 13.6332 12.4943C19.6929 12.0318 25.7515 12.0318 31.81 12.4943C33.1749 12.598 34.3836 13.2193 35.2561 14.153C36.1911 15.0255 36.811 16.2342 36.916 17.5991C36.9435 17.9553 36.9685 18.3128 36.9923 18.6691C37.0848 20.0253 37.1523 21.3815 37.1985 22.7377C37.226 23.5801 37.2448 24.4226 37.2548 25.2651C37.256 25.4013 37.2585 25.5363 37.2598 25.6725V25.72C37.2685 26.8887 37.2598 28.0575 37.236 29.2262Z" fill="url(#paint6_radial_2012_21427)"/>
<g style="mix-blend-mode:hard-light" opacity="0.2">
<path d="M36.9161 16.3704C36.8123 15.0054 36.1923 13.7967 35.2574 12.9243C34.3849 11.9893 33.1762 11.3693 31.8113 11.2656C25.7527 10.8031 19.693 10.8031 13.6345 11.2656C12.2695 11.3693 11.0608 11.9893 10.1883 12.9243C9.25338 13.7967 8.63341 15.0054 8.52966 16.3704C8.06718 22.4289 8.06718 28.4886 8.52966 34.5472C8.63341 35.9121 9.25338 37.1208 10.1883 37.9933C11.0608 38.9282 12.2695 39.5482 13.6345 39.652C19.693 40.1144 25.7527 40.1144 31.8113 39.652C33.1762 39.5482 34.3849 38.9282 35.2574 37.9933C36.1923 37.1208 36.8123 35.9121 36.9161 34.5472C37.3785 28.4886 37.3785 22.4289 36.9161 16.3704Z" fill="white"/>
</g>
<path d="M37.1311 30.5973C37.0761 31.7648 37.0049 32.9322 36.9161 34.0997C36.8124 35.4646 36.1924 36.6733 35.2574 37.5458C34.385 38.4808 33.1763 39.1007 31.8113 39.2045C25.7528 39.6682 19.693 39.6682 13.6345 39.2045C12.2696 39.1007 11.0609 38.4808 10.1884 37.5458C9.25344 36.6733 8.63346 35.4646 8.52971 34.0997C8.44722 33.0197 8.37972 31.9385 8.32597 30.8573C8.08098 25.8787 8.14973 20.9002 8.52971 15.9216C8.63346 14.5579 9.25344 13.3492 10.1884 12.4755C11.0609 11.5418 12.2696 10.9218 13.6345 10.8168C19.693 10.3544 25.7528 10.3544 31.8113 10.8168C33.1763 10.9218 34.385 11.5418 35.2574 12.4755C36.1924 13.3492 36.8124 14.5579 36.9161 15.9216C37.2886 20.8139 37.3623 25.705 37.1311 30.5973Z" fill="url(#paint7_radial_2012_21427)"/>
<g style="mix-blend-mode:overlay" opacity="0.8" filter="url(#filter0_f_2012_21427)">
<path d="M10.8695 15.6779C11.6945 14.8154 12.837 14.2417 14.1282 14.1454C19.8579 13.7179 25.5865 13.7179 31.3162 14.1454C32.6074 14.2429 33.7499 14.8154 34.5749 15.6779C35.1761 16.2266 35.6386 16.9191 35.9048 17.7015C35.8836 17.3803 35.8636 17.0591 35.8386 16.7378C35.7423 15.4779 35.1698 14.3604 34.3061 13.553C33.4999 12.6905 32.3824 12.1168 31.1212 12.0205C25.5215 11.593 19.9229 11.593 14.3231 12.0205C13.0619 12.118 11.9445 12.6905 11.1383 13.553C10.2746 14.3604 9.70083 15.4766 9.60583 16.7378C9.58083 17.0591 9.56208 17.3803 9.53958 17.7003C9.80582 16.9178 10.2683 16.2266 10.8695 15.6779Z" fill="url(#paint8_linear_2012_21427)"/>
</g>
<g style="mix-blend-mode:soft-light" opacity="0.75" filter="url(#filter1_f_2012_21427)">
<path d="M35.0486 30.5236C34.1911 31.4423 33.0024 32.0523 31.66 32.1548C25.7015 32.6097 19.7442 32.6097 13.7857 32.1548C12.4432 32.0523 11.2545 31.4423 10.3971 30.5236C10.2571 30.3923 10.1258 30.2536 10.0008 30.1086C10.0483 31.086 10.1083 32.0635 10.1833 33.041C10.2758 34.2472 10.8233 35.3146 11.6495 36.0858C12.4207 36.9121 13.4882 37.4595 14.6944 37.552C20.0479 37.9608 25.4002 37.9608 30.7538 37.552C31.96 37.4595 33.0274 36.9121 33.7987 36.0858C34.6249 35.3146 35.1723 34.2472 35.2648 33.041C35.3398 32.0635 35.3998 31.086 35.4473 30.1086C35.3223 30.2536 35.1911 30.3936 35.0511 30.5236H35.0486Z" fill="url(#paint9_linear_2012_21427)"/>
</g>
<path style="mix-blend-mode:overlay" opacity="0.6" d="M37.261 25.2713C37.261 25.4051 37.261 25.5388 37.261 25.6726V25.7201C37.2598 25.9488 37.2573 26.1788 37.2548 26.4075V26.4138C37.2473 27.0638 37.2348 27.7137 37.216 28.3637C37.2085 28.6312 37.1998 28.8987 37.191 29.1674C37.176 29.5849 37.1585 30.0036 37.1398 30.4224C37.1373 30.4811 37.1348 30.5399 37.1323 30.5986C36.9285 30.6711 36.7261 30.7424 36.5223 30.8111C35.4511 31.1773 34.3799 31.5011 33.3099 31.7861C32.9325 31.8861 32.5537 31.9811 32.1762 32.0711C25.7452 33.6035 19.3067 33.661 12.8607 32.1661C12.5182 32.0873 12.1758 32.0036 11.8333 31.9148C10.8683 31.6673 9.90209 31.3836 8.93588 31.0636C8.73214 30.9974 8.52965 30.9286 8.3259 30.8586C8.3259 30.8336 8.3234 30.8086 8.32215 30.7836C8.29716 30.2599 8.27466 29.7349 8.25716 29.2099C8.24591 28.9012 8.23716 28.5924 8.22841 28.2837C8.21216 27.6887 8.19966 27.095 8.19216 26.5V26.4763C8.18966 26.2863 8.18716 26.0975 8.18591 25.9076V25.8926C8.18341 25.6201 8.18216 25.3476 8.18216 25.0751C8.18216 24.6788 8.18466 24.2814 8.18841 23.8839C8.19216 23.5151 8.19716 23.1464 8.20466 22.7777C8.20966 22.4639 8.21716 22.1514 8.22591 21.8377C8.25591 20.7278 8.3009 19.6165 8.36215 18.5066C8.3834 18.1104 8.40715 17.7154 8.43215 17.3191C8.4609 16.8542 8.49465 16.3879 8.52965 15.9229C8.63339 14.5592 9.25337 13.3505 10.1883 12.4768C11.0608 11.5431 12.2695 10.9231 13.6344 10.8181C19.6942 10.3557 25.7527 10.3557 31.8112 10.8181C33.1774 10.9231 34.3861 11.5431 35.2586 12.4768C36.1936 13.3505 36.8136 14.5592 36.9173 15.9229C36.961 16.4954 37.001 17.0679 37.036 17.6391C37.0585 18.0116 37.0798 18.3841 37.0985 18.7566C37.156 19.8278 37.1973 20.8977 37.2248 21.9677C37.2323 22.2402 37.2373 22.5139 37.2423 22.7864C37.251 23.2464 37.2573 23.7064 37.261 24.1676C37.2635 24.5364 37.2635 24.9038 37.261 25.2713Z" fill="url(#paint10_radial_2012_21427)"/>
<g style="mix-blend-mode:soft-light" opacity="0.6">
<path d="M28.6601 15.1567C28.6676 16.9378 25.7102 15.7954 22.3828 15.8104C19.0555 15.8254 16.6193 16.9916 16.6106 15.2104C16.6018 13.4292 19.2942 11.973 22.6216 11.958C25.9489 11.943 28.6526 13.3755 28.6601 15.1567Z" fill="white"/>
</g>
<path d="M30.7732 13.3189C30.8223 13.0135 30.4825 12.7049 30.0143 12.6296C29.5461 12.5543 29.1267 12.7407 29.0775 13.0461C29.0284 13.3514 29.3682 13.66 29.8364 13.7353C30.3046 13.8107 30.724 13.6242 30.7732 13.3189Z" fill="url(#paint11_radial_2012_21427)"/>
<path d="M31.9839 13.5579C32.0103 13.3936 31.8278 13.2276 31.5763 13.1872C31.3248 13.1467 31.0995 13.2471 31.0731 13.4113C31.0467 13.5756 31.2291 13.7415 31.4806 13.782C31.7321 13.8225 31.9574 13.7221 31.9839 13.5579Z" fill="url(#paint12_radial_2012_21427)"/>
<path d="M35.4811 31.9772C35.4811 32.8847 35.0648 33.6209 34.8223 33.6209C34.5798 33.6209 34.8961 33.0822 34.8961 32.1747C34.8961 31.2673 34.5798 30.3336 34.8223 30.3336C35.0648 30.3336 35.4811 31.0698 35.4811 31.9772Z" fill="url(#paint13_radial_2012_21427)"/>
<path d="M34.7203 18.0747C35.0598 18.0125 35.2578 17.5404 35.1624 17.0202C35.067 16.5001 34.7145 16.1289 34.375 16.1912C34.0355 16.2534 33.8376 16.7255 33.9329 17.2457C34.0283 17.7658 34.3808 18.137 34.7203 18.0747Z" fill="url(#paint14_radial_2012_21427)"/>
<path d="M34.9197 19.4344C35.1023 19.4009 35.2088 19.147 35.1575 18.8673C35.1062 18.5875 34.9166 18.3879 34.7339 18.4214C34.5513 18.4548 34.4448 18.7088 34.4961 18.9885C34.5474 19.2683 34.737 19.4679 34.9197 19.4344Z" fill="url(#paint15_radial_2012_21427)"/>
<path d="M21.1704 13.1167C21.1804 13.348 16.8793 13.2017 15.3331 13.4455C12.1945 13.9392 12.8894 15.8404 12.442 15.8141C11.9945 15.7879 11.6545 13.2955 15.2806 12.938C18.493 12.6205 21.1604 12.8855 21.1704 13.1167Z" fill="url(#paint16_radial_2012_21427)"/>
<path d="M12.8065 17.6625C12.8314 17.1191 12.6717 16.6703 12.4496 16.6601C12.2276 16.6499 12.0273 17.0822 12.0023 17.6256C11.9774 18.169 12.1372 18.6178 12.3592 18.628C12.5813 18.6382 12.7815 18.2059 12.8065 17.6625Z" fill="url(#paint17_radial_2012_21427)"/>
<path d="M208.262 28.4161C208.26 29.1186 208.251 29.8223 208.235 30.5248C208.205 31.911 208.15 33.2959 208.071 34.6821C208.027 35.4608 207.976 36.2396 207.916 37.0183C207.811 38.3832 207.191 39.5919 206.256 40.4644C205.384 41.3994 204.175 42.0193 202.81 42.1231C196.751 42.5856 190.693 42.5856 184.633 42.1231C183.268 42.0193 182.06 41.3994 181.187 40.4644C180.252 39.5919 179.632 38.3832 179.528 37.0183C179.49 36.5033 179.453 35.9883 179.421 35.4733C179.325 33.9559 179.257 32.4397 179.22 30.9235C179.198 30.0623 179.186 29.2011 179.183 28.3399C179.18 27.7261 179.183 27.1124 179.191 26.4999V26.4762C179.202 25.5912 179.222 24.7063 179.253 23.8225C179.277 23.1163 179.307 22.4101 179.345 21.7039C179.395 20.7502 179.456 19.7952 179.528 18.8415C179.583 18.1228 179.781 17.4478 180.093 16.8416C180.372 16.2966 180.745 15.8079 181.187 15.3954C182.06 14.4604 183.268 13.8404 184.633 13.7354C190.693 13.273 196.751 13.273 202.81 13.7354C204.175 13.8404 205.384 14.4604 206.256 15.3954C206.82 15.9204 207.269 16.5678 207.559 17.2991C207.751 17.7803 207.875 18.299 207.916 18.8415C207.992 19.8452 208.057 20.8502 208.107 21.8539C208.146 22.6076 208.179 23.3626 208.202 24.1163C208.227 24.88 208.244 25.6437 208.254 26.4074V26.4137C208.262 27.0812 208.265 27.7486 208.262 28.4161Z" fill="url(#paint18_radial_2012_21427)"/>
<path d="M208.236 29.2262C208.221 29.9599 208.199 30.6936 208.169 31.4273C208.119 32.6785 208.05 33.931 207.96 35.1834C207.946 35.3822 207.931 35.5797 207.916 35.7772C207.811 37.1409 207.191 38.3496 206.256 39.222C205.384 40.157 204.175 40.777 202.81 40.882C196.751 41.3444 190.693 41.3444 184.633 40.882C183.268 40.777 182.06 40.157 181.187 39.222C180.3 38.3933 179.696 37.2621 179.548 35.9821C179.54 35.9146 179.533 35.8459 179.528 35.7772C179.428 34.4735 179.351 33.1698 179.295 31.8673C179.257 31.0048 179.228 30.1424 179.211 29.2799C179.185 28.1549 179.177 27.0312 179.185 25.9075V25.8925C179.187 25.615 179.19 25.3388 179.193 25.0613C179.203 24.2801 179.222 23.4989 179.248 22.7177C179.296 21.2827 179.37 19.8465 179.47 18.4103C179.488 18.1403 179.507 17.8691 179.528 17.5991C179.632 16.2342 180.252 15.0255 181.187 14.153C182.06 13.2193 183.268 12.598 184.633 12.4943C190.693 12.0318 196.751 12.0318 202.81 12.4943C204.175 12.598 205.384 13.2193 206.256 14.153C207.191 15.0255 207.811 16.2342 207.916 17.5991C207.944 17.9553 207.969 18.3128 207.992 18.6691C208.085 20.0253 208.152 21.3815 208.199 22.7377C208.226 23.5801 208.245 24.4226 208.255 25.2651C208.256 25.4013 208.259 25.5363 208.26 25.6725V25.72C208.269 26.8887 208.26 28.0575 208.236 29.2262Z" fill="url(#paint19_radial_2012_21427)"/>
<g style="mix-blend-mode:hard-light" opacity="0.2">
<path d="M207.916 16.3704C207.812 15.0054 207.192 13.7967 206.257 12.9243C205.385 11.9893 204.176 11.3693 202.811 11.2656C196.753 10.8031 190.693 10.8031 184.634 11.2656C183.27 11.3693 182.061 11.9893 181.188 12.9243C180.253 13.7967 179.633 15.0054 179.53 16.3704C179.067 22.4289 179.067 28.4886 179.53 34.5472C179.633 35.9121 180.253 37.1208 181.188 37.9933C182.061 38.9282 183.27 39.5482 184.634 39.652C190.693 40.1144 196.753 40.1144 202.811 39.652C204.176 39.5482 205.385 38.9282 206.257 37.9933C207.192 37.1208 207.812 35.9121 207.916 34.5472C208.379 28.4886 208.379 22.4289 207.916 16.3704Z" fill="white"/>
</g>
<path d="M208.131 30.5973C208.076 31.7648 208.005 32.9322 207.916 34.0997C207.812 35.4646 207.192 36.6733 206.257 37.5458C205.385 38.4808 204.176 39.1007 202.811 39.2045C196.753 39.6682 190.693 39.6682 184.635 39.2045C183.27 39.1007 182.061 38.4808 181.188 37.5458C180.253 36.6733 179.633 35.4646 179.53 34.0997C179.447 33.0197 179.38 31.9385 179.326 30.8573C179.081 25.8787 179.15 20.9002 179.53 15.9216C179.633 14.5579 180.253 13.3492 181.188 12.4755C182.061 11.5418 183.27 10.9218 184.635 10.8168C190.693 10.3544 196.753 10.3544 202.811 10.8168C204.176 10.9218 205.385 11.5418 206.257 12.4755C207.192 13.3492 207.812 14.5579 207.916 15.9216C208.289 20.8139 208.362 25.705 208.131 30.5973Z" fill="url(#paint20_radial_2012_21427)"/>
<g style="mix-blend-mode:overlay" opacity="0.8" filter="url(#filter2_f_2012_21427)">
<path d="M181.87 15.6779C182.694 14.8154 183.837 14.2417 185.128 14.1454C190.858 13.7179 196.586 13.7179 202.316 14.1454C203.607 14.2429 204.75 14.8154 205.575 15.6779C206.176 16.2266 206.639 16.9191 206.905 17.7015C206.884 17.3803 206.864 17.0591 206.839 16.7378C206.742 15.4779 206.17 14.3604 205.306 13.553C204.5 12.6905 203.382 12.1168 202.121 12.0205C196.521 11.593 190.923 11.593 185.323 12.0205C184.062 12.118 182.944 12.6905 182.138 13.553C181.275 14.3604 180.701 15.4766 180.606 16.7378C180.581 17.0591 180.562 17.3803 180.54 17.7003C180.806 16.9178 181.268 16.2266 181.87 15.6779Z" fill="url(#paint21_linear_2012_21427)"/>
</g>
<g style="mix-blend-mode:soft-light" opacity="0.75" filter="url(#filter3_f_2012_21427)">
<path d="M206.049 30.5236C205.191 31.4423 204.002 32.0523 202.66 32.1548C196.701 32.6097 190.744 32.6097 184.786 32.1548C183.443 32.0523 182.255 31.4423 181.397 30.5236C181.257 30.3923 181.126 30.2536 181.001 30.1086C181.048 31.086 181.108 32.0635 181.183 33.041C181.276 34.2472 181.823 35.3146 182.65 36.0858C183.421 36.9121 184.488 37.4595 185.694 37.552C191.048 37.9608 196.4 37.9608 201.754 37.552C202.96 37.4595 204.027 36.9121 204.799 36.0858C205.625 35.3146 206.172 34.2472 206.265 33.041C206.34 32.0635 206.4 31.086 206.447 30.1086C206.322 30.2536 206.191 30.3936 206.051 30.5236H206.049Z" fill="url(#paint22_linear_2012_21427)"/>
</g>
<path style="mix-blend-mode:overlay" opacity="0.6" d="M208.261 25.2713C208.261 25.4051 208.261 25.5388 208.261 25.6726V25.7201C208.26 25.9488 208.257 26.1788 208.255 26.4075V26.4138C208.247 27.0638 208.235 27.7137 208.216 28.3637C208.209 28.6312 208.2 28.8987 208.191 29.1674C208.176 29.5849 208.159 30.0036 208.14 30.4224C208.137 30.4811 208.135 30.5399 208.132 30.5986C207.929 30.6711 207.726 30.7424 207.522 30.8111C206.451 31.1773 205.38 31.5011 204.31 31.7861C203.932 31.8861 203.554 31.9811 203.176 32.0711C196.745 33.6035 190.307 33.661 183.861 32.1661C183.518 32.0873 183.176 32.0036 182.833 31.9148C181.868 31.6673 180.902 31.3836 179.936 31.0636C179.732 30.9974 179.53 30.9286 179.326 30.8586C179.326 30.8336 179.323 30.8086 179.322 30.7836C179.297 30.2599 179.275 29.7349 179.257 29.2099C179.246 28.9012 179.237 28.5924 179.228 28.2837C179.212 27.6887 179.2 27.095 179.192 26.5V26.4763C179.19 26.2863 179.187 26.0975 179.186 25.9076V25.8926C179.183 25.6201 179.182 25.3476 179.182 25.0751C179.182 24.6788 179.185 24.2814 179.188 23.8839C179.192 23.5151 179.197 23.1464 179.205 22.7777C179.21 22.4639 179.217 22.1514 179.226 21.8377C179.256 20.7278 179.301 19.6165 179.362 18.5066C179.383 18.1104 179.407 17.7154 179.432 17.3191C179.461 16.8542 179.495 16.3879 179.53 15.9229C179.633 14.5592 180.253 13.3505 181.188 12.4768C182.061 11.5431 183.27 10.9231 184.634 10.8181C190.694 10.3557 196.753 10.3557 202.811 10.8181C204.177 10.9231 205.386 11.5431 206.259 12.4768C207.194 13.3505 207.814 14.5592 207.917 15.9229C207.961 16.4954 208.001 17.0679 208.036 17.6391C208.059 18.0116 208.08 18.3841 208.099 18.7566C208.156 19.8278 208.197 20.8977 208.225 21.9677C208.232 22.2402 208.237 22.5139 208.242 22.7864C208.251 23.2464 208.257 23.7064 208.261 24.1676C208.264 24.5364 208.264 24.9038 208.261 25.2713Z" fill="url(#paint23_radial_2012_21427)"/>
<g style="mix-blend-mode:soft-light" opacity="0.6">
<path d="M199.66 15.1567C199.668 16.9378 196.71 15.7954 193.383 15.8104C190.055 15.8254 187.619 16.9916 187.611 15.2104C187.602 13.4292 190.294 11.973 193.622 11.958C196.949 11.943 199.653 13.3755 199.66 15.1567Z" fill="white"/>
</g>
<path d="M201.773 13.3189C201.822 13.0135 201.483 12.7049 201.014 12.6296C200.546 12.5543 200.127 12.7407 200.078 13.0461C200.028 13.3514 200.368 13.66 200.836 13.7353C201.305 13.8107 201.724 13.6242 201.773 13.3189Z" fill="url(#paint24_radial_2012_21427)"/>
<path d="M202.984 13.5579C203.01 13.3936 202.828 13.2277 202.576 13.1872C202.325 13.1467 202.1 13.2471 202.073 13.4113C202.047 13.5756 202.229 13.7416 202.481 13.782C202.732 13.8225 202.957 13.7221 202.984 13.5579Z" fill="url(#paint25_radial_2012_21427)"/>
<path d="M206.481 31.9773C206.481 32.8847 206.065 33.6209 205.822 33.6209C205.58 33.6209 205.896 33.0822 205.896 32.1747C205.896 31.2673 205.58 30.3336 205.822 30.3336C206.065 30.3336 206.481 31.0698 206.481 31.9773Z" fill="url(#paint26_radial_2012_21427)"/>
<path d="M205.72 18.0747C206.06 18.0125 206.258 17.5404 206.162 17.0202C206.067 16.5001 205.715 16.1289 205.375 16.1912C205.036 16.2534 204.838 16.7255 204.933 17.2457C205.028 17.7658 205.381 18.137 205.72 18.0747Z" fill="url(#paint27_radial_2012_21427)"/>
<path d="M205.92 19.4344C206.102 19.401 206.209 19.147 206.158 18.8673C206.106 18.5875 205.917 18.3879 205.734 18.4214C205.551 18.4549 205.445 18.7088 205.496 18.9886C205.547 19.2683 205.737 19.4679 205.92 19.4344Z" fill="url(#paint28_radial_2012_21427)"/>
<path d="M192.17 13.1167C192.18 13.348 187.879 13.2017 186.333 13.4455C183.194 13.9392 183.889 15.8404 183.442 15.8141C182.995 15.7879 182.655 13.2955 186.281 12.938C189.493 12.6205 192.16 12.8855 192.17 13.1167Z" fill="url(#paint29_radial_2012_21427)"/>
<path d="M183.806 17.6625C183.831 17.1191 183.672 16.6703 183.45 16.6601C183.228 16.6499 183.027 17.0822 183.002 17.6256C182.977 18.169 183.137 18.6178 183.359 18.628C183.581 18.6382 183.782 18.2059 183.806 17.6625Z" fill="url(#paint30_radial_2012_21427)"/>
<defs>
<filter id="filter0_f_2012_21427" x="1.53958" y="3.6999" width="42.3652" height="22.0016" filterUnits="userSpaceOnUse" color-interpolation-filters="sRGB">
<feFlood flood-opacity="0" result="BackgroundImageFix"/>
<feBlend mode="normal" in="SourceGraphic" in2="BackgroundImageFix" result="shape"/>
<feGaussianBlur stdDeviation="4" result="effect1_foregroundBlur_2012_21427"/>
</filter>
<filter id="filter1_f_2012_21427" x="2.00082" y="22.1086" width="41.4465" height="23.75" filterUnits="userSpaceOnUse" color-interpolation-filters="sRGB">
<feFlood flood-opacity="0" result="BackgroundImageFix"/>
<feBlend mode="normal" in="SourceGraphic" in2="BackgroundImageFix" result="shape"/>
<feGaussianBlur stdDeviation="4" result="effect1_foregroundBlur_2012_21427"/>
</filter>
<filter id="filter2_f_2012_21427" x="172.54" y="3.6999" width="42.3652" height="22.0016" filterUnits="userSpaceOnUse" color-interpolation-filters="sRGB">
<feFlood flood-opacity="0" result="BackgroundImageFix"/>
<feBlend mode="normal" in="SourceGraphic" in2="BackgroundImageFix" result="shape"/>
<feGaussianBlur stdDeviation="4" result="effect1_foregroundBlur_2012_21427"/>
</filter>
<filter id="filter3_f_2012_21427" x="173.001" y="22.1086" width="41.4465" height="23.75" filterUnits="userSpaceOnUse" color-interpolation-filters="sRGB">
<feFlood flood-opacity="0" result="BackgroundImageFix"/>
<feBlend mode="normal" in="SourceGraphic" in2="BackgroundImageFix" result="shape"/>
<feGaussianBlur stdDeviation="4" result="effect1_foregroundBlur_2012_21427"/>
</filter>
<radialGradient id="paint0_radial_2012_21427" cx="0" cy="0" r="1" gradientUnits="userSpaceOnUse" gradientTransform="translate(105.938 30.3859) scale(98.3808 42.1632)">
<stop/>
<stop offset="0.84" stop-opacity="0.2"/>
</radialGradient>
<radialGradient id="paint1_radial_2012_21427" cx="0" cy="0" r="1" gradientUnits="userSpaceOnUse" gradientTransform="translate(105.938 28.2637) scale(98.3808 42.1632)">
<stop stop-color="#F76F06"/>
<stop offset="0.98" stop-color="#D33501"/>
</radialGradient>
<radialGradient id="paint2_radial_2012_21427" cx="0" cy="0" r="1" gradientUnits="userSpaceOnUse" gradientTransform="translate(105.948 25.6492) scale(98.3668 42.5574)">
<stop stop-color="#F76F06"/>
<stop offset="0.98" stop-color="#D33501"/>
</radialGradient>
<linearGradient id="paint3_linear_2012_21427" x1="108.411" y1="50.4775" x2="108.411" y2="38.5825" gradientUnits="userSpaceOnUse">
<stop/>
<stop offset="1" stop-opacity="0"/>
</linearGradient>
<radialGradient id="paint4_radial_2012_21427" cx="0" cy="0" r="1" gradientUnits="userSpaceOnUse" gradientTransform="translate(106.77 10.9891) scale(101.795 43.6266)">
<stop stop-color="white"/>
<stop offset="1" stop-color="white" stop-opacity="0"/>
</radialGradient>
<radialGradient id="paint5_radial_2012_21427" cx="0" cy="0" r="1" gradientUnits="userSpaceOnUse" gradientTransform="translate(22.7228 27.9286) scale(16.6644)">
<stop/>
<stop offset="0.84" stop-opacity="0.2"/>
</radialGradient>
<radialGradient id="paint6_radial_2012_21427" cx="0" cy="0" r="1" gradientUnits="userSpaceOnUse" gradientTransform="translate(22.7228 26.6875) scale(16.6644)">
<stop stop-color="#A767D3"/>
<stop offset="0.4" stop-color="#8440B4"/>
<stop offset="1" stop-color="#4C0082"/>
</radialGradient>
<radialGradient id="paint7_radial_2012_21427" cx="0" cy="0" r="1" gradientUnits="userSpaceOnUse" gradientTransform="translate(22.8208 22.67) rotate(-91.08) scale(17.7906 18.5022)">
<stop stop-color="#A767D3"/>
<stop offset="0.4" stop-color="#8440B4"/>
<stop offset="1" stop-color="#4C0082"/>
</radialGradient>
<linearGradient id="paint8_linear_2012_21427" x1="22.7228" y1="17.7015" x2="22.7228" y2="11.6993" gradientUnits="userSpaceOnUse">
<stop stop-color="white" stop-opacity="0"/>
<stop offset="1" stop-color="white"/>
</linearGradient>
<linearGradient id="paint9_linear_2012_21427" x1="22.7228" y1="37.8583" x2="22.7228" y2="30.1086" gradientUnits="userSpaceOnUse">
<stop/>
<stop offset="0.09" stop-color="#0C0C0C"/>
<stop offset="0.24" stop-color="#2C2C2C"/>
<stop offset="0.46" stop-color="#616161"/>
<stop offset="0.71" stop-color="#AAAAAA"/>
<stop offset="0.98" stop-color="white"/>
</linearGradient>
<radialGradient id="paint10_radial_2012_21427" cx="0" cy="0" r="1" gradientUnits="userSpaceOnUse" gradientTransform="translate(22.8353 16.5917) scale(17.9543 17.9543)">
<stop stop-color="white"/>
<stop offset="1" stop-color="white" stop-opacity="0"/>
</radialGradient>
<radialGradient id="paint11_radial_2012_21427" cx="0" cy="0" r="1" gradientUnits="userSpaceOnUse" gradientTransform="translate(24.8058 12.1237) rotate(-168.66) scale(0.420046 1.06352)">
<stop offset="0.51" stop-color="white"/>
<stop offset="1" stop-color="white" stop-opacity="0"/>
</radialGradient>
<radialGradient id="paint12_radial_2012_21427" cx="0" cy="0" r="1" gradientUnits="userSpaceOnUse" gradientTransform="translate(26.5487 12.4324) rotate(-168.66) scale(0.225591 0.571177)">
<stop offset="0.51" stop-color="white"/>
<stop offset="1" stop-color="white" stop-opacity="0"/>
</radialGradient>
<radialGradient id="paint13_radial_2012_21427" cx="0" cy="0" r="1" gradientUnits="userSpaceOnUse" gradientTransform="translate(35.3552 31.943) rotate(-91.25) scale(1.63581 0.640101)">
<stop stop-color="white"/>
<stop offset="1" stop-color="white" stop-opacity="0"/>
</radialGradient>
<radialGradient id="paint14_radial_2012_21427" cx="0" cy="0" r="1" gradientUnits="userSpaceOnUse" gradientTransform="translate(32.4461 0.766496) rotate(-98.19) scale(0.468219 1.18549)">
<stop offset="0.51" stop-color="white"/>
<stop offset="1" stop-color="white" stop-opacity="0"/>
</radialGradient>
<radialGradient id="paint15_radial_2012_21427" cx="0" cy="0" r="1" gradientUnits="userSpaceOnUse" gradientTransform="translate(32.7733 2.71249) rotate(-98.19) scale(0.25144 0.636624)">
<stop offset="0.51" stop-color="white"/>
<stop offset="1" stop-color="white" stop-opacity="0"/>
</radialGradient>
<radialGradient id="paint16_radial_2012_21427" cx="0" cy="0" r="1" gradientUnits="userSpaceOnUse" gradientTransform="translate(15.1913 10.685) rotate(-94.57) scale(2.21751 9.05485)">
<stop offset="0.51" stop-color="white"/>
<stop offset="1" stop-color="white" stop-opacity="0"/>
</radialGradient>
<radialGradient id="paint17_radial_2012_21427" cx="0" cy="0" r="1" gradientUnits="userSpaceOnUse" gradientTransform="translate(12.4415 17.7867) rotate(-91.38) scale(0.983362 0.365036)">
<stop offset="0.51" stop-color="white"/>
<stop offset="1" stop-color="white" stop-opacity="0"/>
</radialGradient>
<radialGradient id="paint18_radial_2012_21427" cx="0" cy="0" r="1" gradientUnits="userSpaceOnUse" gradientTransform="translate(193.723 27.9286) scale(16.6644)">
<stop/>
<stop offset="0.84" stop-opacity="0.2"/>
</radialGradient>
<radialGradient id="paint19_radial_2012_21427" cx="0" cy="0" r="1" gradientUnits="userSpaceOnUse" gradientTransform="translate(193.723 26.6875) scale(16.6644)">
<stop stop-color="#A767D3"/>
<stop offset="0.4" stop-color="#8440B4"/>
<stop offset="1" stop-color="#4C0082"/>
</radialGradient>
<radialGradient id="paint20_radial_2012_21427" cx="0" cy="0" r="1" gradientUnits="userSpaceOnUse" gradientTransform="translate(193.821 22.67) rotate(-91.08) scale(17.7906 18.5022)">
<stop stop-color="#A767D3"/>
<stop offset="0.4" stop-color="#8440B4"/>
<stop offset="1" stop-color="#4C0082"/>
</radialGradient>
<linearGradient id="paint21_linear_2012_21427" x1="193.723" y1="17.7015" x2="193.723" y2="11.6993" gradientUnits="userSpaceOnUse">
<stop stop-color="white" stop-opacity="0"/>
<stop offset="1" stop-color="white"/>
</linearGradient>
<linearGradient id="paint22_linear_2012_21427" x1="193.723" y1="37.8583" x2="193.723" y2="30.1086" gradientUnits="userSpaceOnUse">
<stop/>
<stop offset="0.09" stop-color="#0C0C0C"/>
<stop offset="0.24" stop-color="#2C2C2C"/>
<stop offset="0.46" stop-color="#616161"/>
<stop offset="0.71" stop-color="#AAAAAA"/>
<stop offset="0.98" stop-color="white"/>
</linearGradient>
<radialGradient id="paint23_radial_2012_21427" cx="0" cy="0" r="1" gradientUnits="userSpaceOnUse" gradientTransform="translate(193.835 16.5917) scale(17.9543 17.9543)">
<stop stop-color="white"/>
<stop offset="1" stop-color="white" stop-opacity="0"/>
</radialGradient>
<radialGradient id="paint24_radial_2012_21427" cx="0" cy="0" r="1" gradientUnits="userSpaceOnUse" gradientTransform="translate(195.806 12.1237) rotate(-168.66) scale(0.420046 1.06352)">
<stop offset="0.51" stop-color="white"/>
<stop offset="1" stop-color="white" stop-opacity="0"/>
</radialGradient>
<radialGradient id="paint25_radial_2012_21427" cx="0" cy="0" r="1" gradientUnits="userSpaceOnUse" gradientTransform="translate(197.549 12.4324) rotate(-168.66) scale(0.225591 0.571177)">
<stop offset="0.51" stop-color="white"/>
<stop offset="1" stop-color="white" stop-opacity="0"/>
</radialGradient>
<radialGradient id="paint26_radial_2012_21427" cx="0" cy="0" r="1" gradientUnits="userSpaceOnUse" gradientTransform="translate(206.355 31.9431) rotate(-91.25) scale(1.63581 0.640101)">
<stop stop-color="white"/>
<stop offset="1" stop-color="white" stop-opacity="0"/>
</radialGradient>
<radialGradient id="paint27_radial_2012_21427" cx="0" cy="0" r="1" gradientUnits="userSpaceOnUse" gradientTransform="translate(203.446 0.766504) rotate(-98.19) scale(0.468219 1.18549)">
<stop offset="0.51" stop-color="white"/>
<stop offset="1" stop-color="white" stop-opacity="0"/>
</radialGradient>
<radialGradient id="paint28_radial_2012_21427" cx="0" cy="0" r="1" gradientUnits="userSpaceOnUse" gradientTransform="translate(203.773 2.71251) rotate(-98.19) scale(0.25144 0.636624)">
<stop offset="0.51" stop-color="white"/>
<stop offset="1" stop-color="white" stop-opacity="0"/>
</radialGradient>
<radialGradient id="paint29_radial_2012_21427" cx="0" cy="0" r="1" gradientUnits="userSpaceOnUse" gradientTransform="translate(186.191 10.685) rotate(-94.57) scale(2.21751 9.05485)">
<stop offset="0.51" stop-color="white"/>
<stop offset="1" stop-color="white" stop-opacity="0"/>
</radialGradient>
<radialGradient id="paint30_radial_2012_21427" cx="0" cy="0" r="1" gradientUnits="userSpaceOnUse" gradientTransform="translate(183.442 17.7867) rotate(-91.38) scale(0.983362 0.365036)">
<stop offset="0.51" stop-color="white"/>
<stop offset="1" stop-color="white" stop-opacity="0"/>
</radialGradient>
</defs>
</svg>
