<svg width="215" height="56" viewBox="0 0 215 56" fill="none" xmlns="http://www.w3.org/2000/svg">
<path d="M214.031 31.1725C214.031 32.3725 213.981 33.5725 213.921 34.7825C213.801 37.1525 213.581 39.5225 213.261 41.8925C213.081 43.2225 212.881 44.5525 212.641 45.8825C212.221 48.2125 209.741 50.2825 205.991 51.7725C202.491 53.3725 197.651 54.4325 192.181 54.6125C167.911 55.4025 46.141 55.4025 21.861 54.6125C16.391 54.4325 11.551 53.3725 8.05098 51.7725C4.30098 50.2825 1.82098 48.2125 1.40098 45.8825C1.24098 45.0025 1.10098 44.1225 0.970981 43.2425C0.580981 40.6525 0.31098 38.0525 0.16098 35.4625C0.0709798 33.9925 0.0209802 32.5125 0.0109802 31.0425C-0.00901983 29.9925 0.0109809 28.9425 0.0409809 27.8925V27.8525C0.0909809 26.3425 0.170981 24.8225 0.290981 23.3125C0.390981 22.1025 0.51098 20.8925 0.66098 19.6925C0.86098 18.0625 1.11098 16.4325 1.40098 14.8025C1.62098 13.5725 2.41098 12.4225 3.66098 11.3825C4.78098 10.4525 6.27098 9.61247 8.04098 8.91247C11.541 7.31247 16.381 6.25247 21.851 6.07247C46.131 5.28247 167.901 5.28247 192.171 6.07247C197.641 6.25247 202.481 7.31247 205.981 8.91247C208.241 9.81247 210.041 10.9125 211.201 12.1725C211.971 12.9925 212.471 13.8825 212.631 14.8125C212.941 16.5325 213.201 18.2425 213.401 19.9625C213.561 21.2525 213.691 22.5425 213.781 23.8325C213.881 25.1425 213.951 26.4425 213.991 27.7525C214.031 28.9025 214.041 30.0425 214.031 31.1825V31.1725Z" fill="url(#paint0_radial_2012_20836)"/>
<path d="M213.931 32.5525C213.871 33.8025 213.781 35.0625 213.661 36.3125C213.461 38.4525 213.181 40.5925 212.821 42.7325C212.761 43.0725 212.701 43.4125 212.641 43.7525C212.221 46.0825 209.741 48.1525 205.991 49.6425C202.491 51.2425 197.651 52.3025 192.181 52.4825C167.911 53.2725 46.141 53.2725 21.861 52.4825C16.391 52.3025 11.551 51.2425 8.05095 49.6425C4.49095 48.2225 2.08096 46.2925 1.48096 44.1025C1.44096 43.9825 1.42096 43.8725 1.40096 43.7525C1.00096 41.5225 0.690955 39.2925 0.460955 37.0625C0.310955 35.5925 0.190954 34.1125 0.120954 32.6425C0.0109544 30.7225 -0.0190443 28.8025 0.0109557 26.8725V26.8425C0.0209557 26.3725 0.0309547 25.8925 0.0509547 25.4225C0.0909547 24.0825 0.170956 22.7525 0.270956 21.4125C0.460956 18.9625 0.760955 16.5025 1.16096 14.0525C1.24096 13.5925 1.31096 13.1225 1.40096 12.6625C1.82096 10.3325 4.30095 8.26246 8.05095 6.77246C11.551 5.17246 16.391 4.11247 21.861 3.93247C46.141 3.14247 167.911 3.14247 192.181 3.93247C197.651 4.11247 202.491 5.17246 205.991 6.77246C209.741 8.26246 212.221 10.3325 212.641 12.6625C212.751 13.2725 212.851 13.8825 212.951 14.4925C213.321 16.8125 213.591 19.1325 213.781 21.4525C213.891 22.8925 213.971 24.3325 214.011 25.7725C214.011 26.0025 214.031 26.2325 214.031 26.4725V26.5525C214.071 28.5525 214.031 30.5525 213.931 32.5425V32.5525Z" fill="url(#paint1_radial_2012_20836)"/>
<g style="mix-blend-mode:hard-light" opacity="0.2">
<path d="M212.641 10.7425C212.221 8.37247 209.741 6.26247 205.991 4.74247C202.491 3.11247 197.651 2.03247 192.181 1.85247C167.911 1.04247 46.1309 1.04247 21.8609 1.85247C16.3909 2.03247 11.5509 3.11247 8.05093 4.74247C4.31093 6.26247 1.82093 8.36247 1.40093 10.7425C-0.449072 21.2825 -0.449072 31.8325 1.40093 42.3725C1.82093 44.7425 4.30093 46.8525 8.05093 48.3725C11.5509 50.0025 16.3909 51.0825 21.8609 51.2625C46.1309 52.0725 167.911 52.0725 192.181 51.2625C197.651 51.0825 202.491 50.0025 205.991 48.3725C209.731 46.8525 212.221 44.7525 212.641 42.3725C214.491 31.8325 214.491 21.2825 212.641 10.7425Z" fill="white"/>
</g>
<path d="M213.511 35.2325C213.291 37.2525 213.001 39.2625 212.651 41.2825C212.231 43.6425 209.751 45.7225 206.001 47.2325C202.501 48.8425 197.661 49.9125 192.191 50.0925C167.921 50.8925 46.141 50.8925 21.871 50.0925C16.401 49.9125 11.561 48.8425 8.06096 47.2325C4.31096 45.7225 1.83096 43.6425 1.41096 41.2825C1.08096 39.4225 0.810959 37.5525 0.600959 35.6825C-0.379041 27.0925 -0.10904 18.4925 1.41096 9.90248C1.83096 7.55248 4.31096 5.46248 8.06096 3.95248C11.561 2.34248 16.401 1.27248 21.871 1.09248C46.141 0.292477 167.921 0.292477 192.191 1.09248C197.661 1.27248 202.501 2.34248 206.001 3.95248C209.751 5.46248 212.231 7.54248 212.651 9.90248C214.141 18.3425 214.441 26.7925 213.511 35.2325Z" fill="url(#paint2_radial_2012_20836)"/>
<g style="mix-blend-mode:soft-light" opacity="0.75">
<path d="M213.511 35.2324C213.291 37.2524 213.001 39.2624 212.651 41.2824C212.231 43.6424 209.751 45.7224 206.001 47.2324C202.501 48.8424 197.661 49.9124 192.191 50.0924C167.921 50.8924 46.141 50.8924 21.871 50.0924C16.401 49.9124 11.561 48.8424 8.06096 47.2324C4.31096 45.7224 1.83096 43.6424 1.41096 41.2824C1.08096 39.4224 0.810959 37.5524 0.600959 35.6824C-0.379041 27.0924 -0.10904 18.4924 1.41096 9.90243C1.83096 7.55243 4.31096 5.46243 8.06096 3.95243C11.561 2.34243 16.401 1.27243 21.871 1.09243C46.141 0.292432 167.921 0.292432 192.191 1.09243C197.661 1.27243 202.501 2.34243 206.001 3.95243C209.751 5.46243 212.231 7.54243 212.651 9.90243C214.141 18.3424 214.441 26.7924 213.511 35.2324Z" fill="url(#paint3_linear_2012_20836)"/>
</g>
<path style="mix-blend-mode:overlay" opacity="0.6" d="M214.031 25.7925C214.031 26.0225 214.031 26.2525 214.031 26.4825V26.5625C214.031 26.9525 214.011 27.3425 214.001 27.7425C213.971 28.8625 213.921 29.9725 213.841 31.0825C213.811 31.5425 213.771 31.9925 213.741 32.4525C213.681 33.1625 213.611 33.8825 213.531 34.6025C213.521 34.7025 213.511 34.8025 213.501 34.9025C212.681 35.0225 211.871 35.1525 211.061 35.2625C206.771 35.8925 202.481 36.4425 198.191 36.9325C196.681 37.1025 195.161 37.2625 193.651 37.4225C167.891 40.0425 44.591 40.1425 18.771 37.5825C17.401 37.4525 16.031 37.3025 14.651 37.1525C10.781 36.7325 6.91098 36.2425 3.04098 35.6925C2.22098 35.5825 1.41097 35.4625 0.600975 35.3425C0.600975 35.3025 0.600978 35.2525 0.580978 35.2125C0.480978 34.3125 0.390976 33.4225 0.320976 32.5225C0.270976 31.9925 0.240977 31.4625 0.200977 30.9425C0.130977 29.9225 0.0809758 28.9125 0.0509758 27.8925V27.8525C0.0509758 27.5325 0.030977 27.2025 0.020977 26.8825V26.8525C0.020977 26.3825 0.000976562 25.9225 0.000976562 25.4525C0.000976562 24.7725 0.00097725 24.0925 0.0309772 23.4125C0.0509772 22.7825 0.070975 22.1525 0.100975 21.5225C0.120975 20.9825 0.150975 20.4525 0.190975 19.9125C0.310975 18.0125 0.490978 16.1125 0.740978 14.2125C0.830978 13.5325 0.920977 12.8625 1.02098 12.1825C1.14098 11.3925 1.27098 10.5925 1.41098 9.79247C1.83098 7.46247 4.31098 5.39247 8.06098 3.90247C11.561 2.30247 16.401 1.24247 21.871 1.06247C46.151 0.272471 167.921 0.272471 192.191 1.06247C197.661 1.24247 202.511 2.30247 206.001 3.90247C209.751 5.39247 212.231 7.46247 212.651 9.79247C212.831 10.7725 212.991 11.7525 213.131 12.7225C213.221 13.3625 213.311 13.9925 213.381 14.6325C213.611 16.4625 213.781 18.2925 213.891 20.1225C213.921 20.5925 213.941 21.0525 213.961 21.5225C214.001 22.3125 214.021 23.0925 214.041 23.8825C214.041 24.5125 214.041 25.1425 214.041 25.7725L214.031 25.7925Z" fill="url(#paint4_radial_2012_20836)"/>
<g style="mix-blend-mode:soft-light" opacity="0.6">
<path d="M179.571 8.50247C179.601 11.5525 162.711 9.62247 102.221 9.62247C52.6109 9.62247 33.8309 11.6425 33.8009 8.59247C33.7709 5.54247 51.8909 3.03247 103.181 3.03247C162.001 3.03247 179.541 5.45247 179.571 8.50247Z" fill="white"/>
</g>
<path d="M52.9111 31.63C51.4391 31.63 49.9511 31.182 48.7031 30.286C48.4311 30.094 48.2391 29.742 48.2391 29.358C48.2391 28.718 48.7511 28.222 49.3911 28.222C49.7111 28.222 49.9351 28.334 50.0951 28.446C50.9431 29.07 51.8711 29.454 52.9591 29.454C53.9671 29.454 54.5751 29.054 54.5751 28.398V28.366C54.5751 27.742 54.1911 27.422 52.3191 26.942C50.0631 26.366 48.6071 25.742 48.6071 23.518V23.486C48.6071 21.454 50.2391 20.11 52.5271 20.11C53.8871 20.11 55.0711 20.462 56.0791 21.102C56.3511 21.262 56.6231 21.598 56.6231 22.078C56.6231 22.718 56.1111 23.214 55.4711 23.214C55.2311 23.214 55.0391 23.15 54.8471 23.038C54.0311 22.558 53.2631 22.286 52.4951 22.286C51.5511 22.286 51.0551 22.718 51.0551 23.262V23.294C51.0551 24.03 51.5351 24.27 53.4711 24.766C55.7431 25.358 57.0231 26.174 57.0231 28.126V28.158C57.0231 30.382 55.3271 31.63 52.9111 31.63ZM61.5351 30.334V22.542H59.1671C58.5431 22.542 58.0311 22.03 58.0311 21.406C58.0311 20.782 58.5431 20.27 59.1671 20.27H66.3671C66.9911 20.27 67.5031 20.782 67.5031 21.406C67.5031 22.03 66.9911 22.542 66.3671 22.542H63.9991V30.334C63.9991 31.022 63.4551 31.566 62.7671 31.566C62.0791 31.566 61.5351 31.022 61.5351 30.334ZM67.331 30.414C67.331 30.238 67.395 30.062 67.475 29.886L71.379 21.07C71.651 20.462 72.147 20.094 72.819 20.094H72.963C73.635 20.094 74.115 20.462 74.387 21.07L78.291 29.886C78.371 30.062 78.419 30.222 78.419 30.382C78.419 31.038 77.907 31.566 77.251 31.566C76.675 31.566 76.291 31.23 76.067 30.718L75.315 28.958H70.387L69.603 30.798C69.395 31.278 68.979 31.566 68.467 31.566C67.827 31.566 67.331 31.054 67.331 30.414ZM71.299 26.782H74.403L72.851 23.086L71.299 26.782ZM80.349 30.334V21.406C80.349 20.718 80.893 20.174 81.581 20.174C82.269 20.174 82.813 20.718 82.813 21.406V25.166L87.357 20.654C87.661 20.35 87.965 20.174 88.397 20.174C89.085 20.174 89.533 20.702 89.533 21.31C89.533 21.694 89.357 21.982 89.085 22.238L85.933 25.182L89.373 29.502C89.565 29.742 89.709 29.998 89.709 30.366C89.709 31.054 89.181 31.566 88.461 31.566C87.981 31.566 87.693 31.326 87.421 30.974L84.221 26.782L82.813 28.094V30.334C82.813 31.022 82.269 31.566 81.581 31.566C80.893 31.566 80.349 31.022 80.349 30.334ZM92.9716 31.47C92.2836 31.47 91.7396 30.926 91.7396 30.238V21.502C91.7396 20.814 92.2836 20.27 92.9716 20.27H99.1796C99.7876 20.27 100.284 20.766 100.284 21.374C100.284 21.982 99.7876 22.462 99.1796 22.462H94.1876V24.734H98.4596C99.0676 24.734 99.5636 25.23 99.5636 25.838C99.5636 26.446 99.0676 26.926 98.4596 26.926H94.1876V29.278H99.2596C99.8676 29.278 100.364 29.774 100.364 30.382C100.364 30.99 99.8676 31.47 99.2596 31.47H92.9716ZM111.239 31.63C109.767 31.63 108.279 31.182 107.031 30.286C106.759 30.094 106.567 29.742 106.567 29.358C106.567 28.718 107.079 28.222 107.719 28.222C108.039 28.222 108.263 28.334 108.423 28.446C109.271 29.07 110.199 29.454 111.287 29.454C112.295 29.454 112.903 29.054 112.903 28.398V28.366C112.903 27.742 112.519 27.422 110.647 26.942C108.391 26.366 106.935 25.742 106.935 23.518V23.486C106.935 21.454 108.567 20.11 110.855 20.11C112.215 20.11 113.399 20.462 114.407 21.102C114.679 21.262 114.951 21.598 114.951 22.078C114.951 22.718 114.439 23.214 113.799 23.214C113.559 23.214 113.367 23.15 113.175 23.038C112.359 22.558 111.591 22.286 110.823 22.286C109.879 22.286 109.383 22.718 109.383 23.262V23.294C109.383 24.03 109.863 24.27 111.799 24.766C114.071 25.358 115.351 26.174 115.351 28.126V28.158C115.351 30.382 113.655 31.63 111.239 31.63ZM122.162 31.646C119.154 31.646 117.314 29.966 117.314 26.67V21.406C117.314 20.718 117.858 20.174 118.546 20.174C119.234 20.174 119.778 20.718 119.778 21.406V26.606C119.778 28.43 120.69 29.374 122.194 29.374C123.698 29.374 124.61 28.462 124.61 26.686V21.406C124.61 20.718 125.154 20.174 125.842 20.174C126.53 20.174 127.074 20.718 127.074 21.406V26.59C127.074 29.982 125.17 31.646 122.162 31.646ZM134.975 31.662C131.487 31.662 129.087 29.214 129.087 25.902V25.87C129.087 22.686 131.567 20.078 134.959 20.078C136.655 20.078 137.775 20.462 138.783 21.166C139.023 21.342 139.295 21.678 139.295 22.158C139.295 22.83 138.751 23.374 138.079 23.374C137.727 23.374 137.503 23.246 137.327 23.118C136.655 22.638 135.935 22.35 134.879 22.35C133.087 22.35 131.663 23.934 131.663 25.838V25.87C131.663 27.918 133.071 29.422 135.055 29.422C135.951 29.422 136.751 29.198 137.375 28.75V27.15H135.711C135.119 27.15 134.639 26.686 134.639 26.094C134.639 25.502 135.119 25.022 135.711 25.022H138.527C139.215 25.022 139.759 25.566 139.759 26.254V28.974C139.759 29.694 139.487 30.19 138.895 30.542C137.983 31.102 136.655 31.662 134.975 31.662ZM141.362 30.414C141.362 30.238 141.426 30.062 141.506 29.886L145.41 21.07C145.682 20.462 146.178 20.094 146.85 20.094H146.994C147.666 20.094 148.146 20.462 148.418 21.07L152.322 29.886C152.402 30.062 152.45 30.222 152.45 30.382C152.45 31.038 151.938 31.566 151.282 31.566C150.706 31.566 150.322 31.23 150.098 30.718L149.346 28.958H144.418L143.634 30.798C143.426 31.278 143.01 31.566 142.498 31.566C141.858 31.566 141.362 31.054 141.362 30.414ZM145.33 26.782H148.434L146.882 23.086L145.33 26.782ZM154.38 30.334V21.502C154.38 20.814 154.924 20.27 155.612 20.27H159.5C160.924 20.27 162.028 20.67 162.764 21.406C163.388 22.03 163.724 22.91 163.724 23.966V23.998C163.724 25.758 162.844 26.846 161.484 27.406L163.196 29.486C163.436 29.79 163.596 30.046 163.596 30.43C163.596 31.118 163.02 31.566 162.428 31.566C161.868 31.566 161.5 31.294 161.212 30.926L158.812 27.886H156.844V30.334C156.844 31.022 156.3 31.566 155.612 31.566C154.924 31.566 154.38 31.022 154.38 30.334ZM156.844 25.71H159.34C160.54 25.71 161.228 25.07 161.228 24.126V24.094C161.228 23.038 160.492 22.494 159.292 22.494H156.844V25.71Z" fill="white"/>
<path d="M37.1713 28.4161C37.1688 29.1186 37.16 29.8223 37.1438 30.5248C37.1138 31.911 37.0588 33.2959 36.98 34.6821C36.9363 35.4608 36.885 36.2396 36.8251 37.0183C36.7201 38.3832 36.1001 39.5919 35.1651 40.4644C34.2926 41.3994 33.0839 42.0193 31.719 42.1231C25.6605 42.5856 19.602 42.5856 13.5422 42.1231C12.1773 42.0193 10.9686 41.3994 10.0961 40.4644C9.16112 39.5919 8.54115 38.3832 8.4374 37.0183C8.39865 36.5033 8.3624 35.9883 8.3299 35.4733C8.23366 33.9559 8.16616 32.4397 8.12866 30.9235C8.10741 30.0623 8.09491 29.2011 8.09241 28.3399C8.08866 27.7261 8.09241 27.1124 8.09991 26.4999V26.4762C8.11116 25.5912 8.13116 24.7063 8.16241 23.8225C8.18616 23.1163 8.21616 22.4101 8.25366 21.7039C8.30366 20.7502 8.3649 19.7952 8.4374 18.8415C8.4924 18.1228 8.68989 17.4478 9.00238 16.8416C9.28112 16.2966 9.6536 15.8079 10.0961 15.3954C10.9686 14.4604 12.1773 13.8404 13.5422 13.7354C19.602 13.273 25.6605 13.273 31.719 13.7354C33.0839 13.8404 34.2926 14.4604 35.1651 15.3954C35.7288 15.9204 36.1776 16.5678 36.4676 17.2991C36.6601 17.7803 36.7838 18.299 36.8251 18.8415C36.9013 19.8452 36.9663 20.8502 37.0163 21.8539C37.055 22.6076 37.0875 23.3626 37.1113 24.1163C37.1363 24.88 37.1525 25.6437 37.1625 26.4074V26.4137C37.1713 27.0812 37.1738 27.7486 37.1713 28.4161Z" fill="url(#paint5_radial_2012_20836)"/>
<path d="M37.1451 29.2262C37.1301 29.9599 37.1076 30.6936 37.0776 31.4273C37.0276 32.6785 36.9588 33.931 36.8688 35.1834C36.8551 35.3822 36.8401 35.5797 36.8251 35.7772C36.7201 37.1409 36.1001 38.3496 35.1652 39.222C34.2927 40.157 33.084 40.777 31.719 40.882C25.6605 41.3444 19.602 41.3444 13.5422 40.882C12.1773 40.777 10.9686 40.157 10.0961 39.222C9.20866 38.3933 8.60493 37.2621 8.45743 35.9821C8.44869 35.9146 8.44244 35.8459 8.43744 35.7772C8.33744 34.4735 8.25994 33.1698 8.20369 31.8673C8.1662 31.0048 8.13745 30.1424 8.11995 29.2799C8.0937 28.1549 8.0862 27.0312 8.0937 25.9075V25.8925C8.0962 25.615 8.0987 25.3388 8.10245 25.0613C8.11245 24.2801 8.1312 23.4989 8.15745 22.7177C8.20494 21.2827 8.27869 19.8465 8.37869 18.4103C8.39744 18.1403 8.41619 17.8691 8.43744 17.5991C8.54118 16.2342 9.16116 15.0255 10.0961 14.153C10.9686 13.2193 12.1773 12.598 13.5422 12.4943C19.602 12.0318 25.6605 12.0318 31.719 12.4943C33.084 12.598 34.2927 13.2193 35.1652 14.153C36.1001 15.0255 36.7201 16.2342 36.8251 17.5991C36.8526 17.9553 36.8776 18.3128 36.9013 18.6691C36.9938 20.0253 37.0613 21.3815 37.1076 22.7377C37.1351 23.5801 37.1538 24.4226 37.1638 25.2651C37.1651 25.4013 37.1676 25.5363 37.1688 25.6725V25.72C37.1776 26.8887 37.1688 28.0575 37.1451 29.2262Z" fill="url(#paint6_radial_2012_20836)"/>
<g style="mix-blend-mode:hard-light" opacity="0.2">
<path d="M36.8251 16.3704C36.7214 15.0054 36.1014 13.7967 35.1664 12.9243C34.294 11.9893 33.0853 11.3693 31.7203 11.2656C25.6618 10.8031 19.602 10.8031 13.5435 11.2656C12.1786 11.3693 10.9699 11.9893 10.0974 12.9243C9.16244 13.7967 8.54247 15.0054 8.43872 16.3704C7.97624 22.4289 7.97624 28.4886 8.43872 34.5472C8.54247 35.9121 9.16244 37.1208 10.0974 37.9933C10.9699 38.9282 12.1786 39.5482 13.5435 39.652C19.602 40.1144 25.6618 40.1144 31.7203 39.652C33.0853 39.5482 34.294 38.9282 35.1664 37.9933C36.1014 37.1208 36.7214 35.9121 36.8251 34.5472C37.2876 28.4886 37.2876 22.4289 36.8251 16.3704Z" fill="white"/>
</g>
<path d="M37.0401 30.5973C36.9851 31.7648 36.9139 32.9322 36.8251 34.0997C36.7214 35.4646 36.1014 36.6733 35.1665 37.5458C34.294 38.4808 33.0853 39.1007 31.7203 39.2045C25.6618 39.6682 19.6021 39.6682 13.5435 39.2045C12.1786 39.1007 10.9699 38.4808 10.0974 37.5458C9.16246 36.6733 8.54249 35.4646 8.43874 34.0997C8.35624 33.0197 8.28875 31.9385 8.235 30.8573C7.99001 25.8787 8.05876 20.9002 8.43874 15.9216C8.54249 14.5579 9.16246 13.3492 10.0974 12.4755C10.9699 11.5418 12.1786 10.9218 13.5435 10.8168C19.6021 10.3544 25.6618 10.3544 31.7203 10.8168C33.0853 10.9218 34.294 11.5418 35.1665 12.4755C36.1014 13.3492 36.7214 14.5579 36.8251 15.9216C37.1976 20.8139 37.2714 25.705 37.0401 30.5973Z" fill="url(#paint7_radial_2012_20836)"/>
<g style="mix-blend-mode:overlay" opacity="0.8" filter="url(#filter0_f_2012_20836)">
<path d="M10.7786 15.6779C11.6035 14.8154 12.746 14.2417 14.0372 14.1454C19.767 13.7179 25.4955 13.7179 31.2253 14.1454C32.5165 14.2429 33.6589 14.8154 34.4839 15.6779C35.0851 16.2266 35.5476 16.9191 35.8138 17.7015C35.7926 17.3803 35.7726 17.0591 35.7476 16.7378C35.6513 15.4779 35.0789 14.3604 34.2151 13.553C33.4089 12.6905 32.2915 12.1168 31.0303 12.0205C25.4305 11.593 19.832 11.593 14.2322 12.0205C12.971 12.118 11.8535 12.6905 11.0473 13.553C10.1836 14.3604 9.60985 15.4766 9.51486 16.7378C9.48986 17.0591 9.47111 17.3803 9.44861 17.7003C9.71485 16.9178 10.1773 16.2266 10.7786 15.6779Z" fill="url(#paint8_linear_2012_20836)"/>
</g>
<g style="mix-blend-mode:soft-light" opacity="0.75" filter="url(#filter1_f_2012_20836)">
<path d="M34.9576 30.5236C34.1002 31.4423 32.9115 32.0523 31.569 32.1548C25.6105 32.6097 19.6532 32.6097 13.6947 32.1548C12.3523 32.0523 11.1636 31.4423 10.3061 30.5236C10.1661 30.3923 10.0348 30.2536 9.90985 30.1086C9.95735 31.086 10.0173 32.0635 10.0923 33.041C10.1848 34.2472 10.7323 35.3146 11.5585 36.0858C12.3298 36.9121 13.3972 37.4595 14.6034 37.552C19.957 37.9608 25.3093 37.9608 30.6628 37.552C31.869 37.4595 32.9365 36.9121 33.7077 36.0858C34.5339 35.3146 35.0814 34.2472 35.1739 33.041C35.2489 32.0635 35.3089 31.086 35.3564 30.1086C35.2314 30.2536 35.1001 30.3936 34.9601 30.5236H34.9576Z" fill="url(#paint9_linear_2012_20836)"/>
</g>
<path style="mix-blend-mode:overlay" opacity="0.6" d="M37.1701 25.2713C37.1701 25.4051 37.1701 25.5388 37.1701 25.6726V25.7201C37.1689 25.9488 37.1664 26.1788 37.1639 26.4075V26.4138C37.1564 27.0638 37.1439 27.7137 37.1251 28.3637C37.1176 28.6312 37.1089 28.8987 37.1001 29.1674C37.0851 29.5849 37.0676 30.0036 37.0489 30.4224C37.0464 30.4811 37.0439 30.5399 37.0414 30.5986C36.8376 30.6711 36.6351 30.7424 36.4314 30.8111C35.3602 31.1773 34.289 31.5011 33.219 31.7861C32.8415 31.8861 32.4628 31.9811 32.0853 32.0711C25.6543 33.6035 19.2158 33.661 12.7698 32.1661C12.4273 32.0873 12.0848 32.0036 11.7424 31.9148C10.7774 31.6673 9.81118 31.3836 8.84497 31.0636C8.64123 30.9974 8.43873 30.9286 8.23499 30.8586C8.23499 30.8336 8.23249 30.8086 8.23124 30.7836C8.20624 30.2599 8.18374 29.7349 8.16624 29.2099C8.155 28.9012 8.14625 28.5924 8.1375 28.2837C8.12125 27.6887 8.10875 27.095 8.10125 26.5V26.4763C8.09875 26.2863 8.09625 26.0975 8.095 25.9076V25.8926C8.0925 25.6201 8.09125 25.3476 8.09125 25.0751C8.09125 24.6788 8.09375 24.2814 8.0975 23.8839C8.10125 23.5151 8.10625 23.1464 8.11375 22.7777C8.11875 22.4639 8.12625 22.1514 8.135 21.8377C8.16499 20.7278 8.20999 19.6165 8.27124 18.5066C8.29249 18.1104 8.31624 17.7154 8.34124 17.3191C8.36999 16.8542 8.40374 16.3879 8.43873 15.9229C8.54248 14.5592 9.16246 13.3505 10.0974 12.4768C10.9699 11.5431 12.1786 10.9231 13.5435 10.8181C19.6033 10.3557 25.6618 10.3557 31.7203 10.8181C33.0865 10.9231 34.2952 11.5431 35.1677 12.4768C36.1027 13.3505 36.7226 14.5592 36.8264 15.9229C36.8701 16.4954 36.9101 17.0679 36.9451 17.6391C36.9676 18.0116 36.9889 18.3841 37.0076 18.7566C37.0651 19.8278 37.1064 20.8977 37.1339 21.9677C37.1414 22.2402 37.1464 22.5139 37.1514 22.7864C37.1601 23.2464 37.1664 23.7064 37.1701 24.1676C37.1726 24.5364 37.1726 24.9038 37.1701 25.2713Z" fill="url(#paint10_radial_2012_20836)"/>
<g style="mix-blend-mode:soft-light" opacity="0.6">
<path d="M28.5691 15.1567C28.5766 16.9378 25.6193 15.7954 22.2919 15.8104C18.9645 15.8254 16.5284 16.9916 16.5196 15.2104C16.5109 13.4292 19.2033 11.973 22.5306 11.958C25.858 11.943 28.5616 13.3755 28.5691 15.1567Z" fill="white"/>
</g>
<path d="M30.6822 13.3189C30.7313 13.0135 30.3916 12.7049 29.9234 12.6296C29.4551 12.5543 29.0357 12.7407 28.9866 13.0461C28.9375 13.3514 29.2772 13.66 29.7455 13.7353C30.2137 13.8107 30.6331 13.6242 30.6822 13.3189Z" fill="url(#paint11_radial_2012_20836)"/>
<path d="M31.8929 13.5579C31.9194 13.3936 31.7369 13.2276 31.4854 13.1872C31.2339 13.1467 31.0086 13.2471 30.9822 13.4113C30.9557 13.5756 31.1382 13.7415 31.3897 13.782C31.6412 13.8225 31.8665 13.7221 31.8929 13.5579Z" fill="url(#paint12_radial_2012_20836)"/>
<path d="M35.3901 31.9772C35.3901 32.8847 34.9739 33.6209 34.7314 33.6209C34.4889 33.6209 34.8051 33.0822 34.8051 32.1747C34.8051 31.2673 34.4889 30.3336 34.7314 30.3336C34.9739 30.3336 35.3901 31.0698 35.3901 31.9772Z" fill="url(#paint13_radial_2012_20836)"/>
<path d="M34.6294 18.0747C34.9689 18.0125 35.1668 17.5404 35.0714 17.0202C34.9761 16.5001 34.6235 16.1289 34.284 16.1912C33.9445 16.2534 33.7466 16.7255 33.842 17.2457C33.9374 17.7658 34.2899 18.137 34.6294 18.0747Z" fill="url(#paint14_radial_2012_20836)"/>
<path d="M34.8287 19.4344C35.0114 19.4009 35.1179 19.147 35.0666 18.8673C35.0153 18.5875 34.8256 18.3879 34.643 18.4214C34.4603 18.4548 34.3538 18.7088 34.4051 18.9885C34.4564 19.2683 34.6461 19.4679 34.8287 19.4344Z" fill="url(#paint15_radial_2012_20836)"/>
<path d="M21.0794 13.1167C21.0894 13.348 16.7884 13.2017 15.2422 13.4455C12.1035 13.9392 12.7985 15.8404 12.351 15.8141C11.9035 15.7879 11.5636 13.2955 15.1897 12.938C18.402 12.6205 21.0694 12.8855 21.0794 13.1167Z" fill="url(#paint16_radial_2012_20836)"/>
<path d="M12.7155 17.6625C12.7405 17.1191 12.5807 16.6703 12.3587 16.6601C12.1366 16.6499 11.9364 17.0822 11.9114 17.6256C11.8864 18.169 12.0462 18.6178 12.2683 18.628C12.4903 18.6382 12.6906 18.2059 12.7155 17.6625Z" fill="url(#paint17_radial_2012_20836)"/>
<path d="M208.171 28.4161C208.169 29.1186 208.16 29.8223 208.144 30.5248C208.114 31.911 208.059 33.2959 207.98 34.6821C207.936 35.4608 207.885 36.2396 207.825 37.0183C207.72 38.3832 207.1 39.5919 206.165 40.4644C205.293 41.3994 204.084 42.0193 202.719 42.1231C196.661 42.5856 190.602 42.5856 184.542 42.1231C183.177 42.0193 181.969 41.3994 181.096 40.4644C180.161 39.5919 179.541 38.3832 179.437 37.0183C179.399 36.5033 179.362 35.9883 179.33 35.4733C179.234 33.9559 179.166 32.4397 179.129 30.9235C179.107 30.0623 179.095 29.2011 179.092 28.3399C179.089 27.7261 179.092 27.1124 179.1 26.4999V26.4762C179.111 25.5912 179.131 24.7063 179.162 23.8225C179.186 23.1163 179.216 22.4101 179.254 21.7039C179.304 20.7502 179.365 19.7952 179.437 18.8415C179.492 18.1228 179.69 17.4478 180.002 16.8416C180.281 16.2966 180.654 15.8079 181.096 15.3954C181.969 14.4604 183.177 13.8404 184.542 13.7354C190.602 13.273 196.661 13.273 202.719 13.7354C204.084 13.8404 205.293 14.4604 206.165 15.3954C206.729 15.9204 207.178 16.5678 207.468 17.2991C207.66 17.7803 207.784 18.299 207.825 18.8415C207.901 19.8452 207.966 20.8502 208.016 21.8539C208.055 22.6076 208.088 23.3626 208.111 24.1163C208.136 24.88 208.153 25.6437 208.163 26.4074V26.4137C208.171 27.0812 208.174 27.7486 208.171 28.4161Z" fill="url(#paint18_radial_2012_20836)"/>
<path d="M208.145 29.2262C208.13 29.9599 208.108 30.6936 208.078 31.4273C208.028 32.6785 207.959 33.931 207.869 35.1834C207.855 35.3822 207.84 35.5797 207.825 35.7772C207.72 37.1409 207.1 38.3496 206.165 39.222C205.293 40.157 204.084 40.777 202.719 40.882C196.661 41.3444 190.602 41.3444 184.542 40.882C183.177 40.777 181.969 40.157 181.096 39.222C180.209 38.3933 179.605 37.2621 179.457 35.9821C179.449 35.9146 179.442 35.8459 179.437 35.7772C179.337 34.4735 179.26 33.1698 179.204 31.8673C179.166 31.0048 179.137 30.1424 179.12 29.2799C179.094 28.1549 179.086 27.0312 179.094 25.9075V25.8925C179.096 25.615 179.099 25.3388 179.102 25.0613C179.112 24.2801 179.131 23.4989 179.157 22.7177C179.205 21.2827 179.279 19.8465 179.379 18.4103C179.397 18.1403 179.416 17.8691 179.437 17.5991C179.541 16.2342 180.161 15.0255 181.096 14.153C181.969 13.2193 183.177 12.598 184.542 12.4943C190.602 12.0318 196.661 12.0318 202.719 12.4943C204.084 12.598 205.293 13.2193 206.165 14.153C207.1 15.0255 207.72 16.2342 207.825 17.5991C207.853 17.9553 207.878 18.3128 207.901 18.6691C207.994 20.0253 208.061 21.3815 208.108 22.7377C208.135 23.5801 208.154 24.4226 208.164 25.2651C208.165 25.4013 208.168 25.5363 208.169 25.6725V25.72C208.178 26.8887 208.169 28.0575 208.145 29.2262Z" fill="url(#paint19_radial_2012_20836)"/>
<g style="mix-blend-mode:hard-light" opacity="0.2">
<path d="M207.825 16.3704C207.721 15.0054 207.101 13.7967 206.166 12.9243C205.294 11.9893 204.085 11.3693 202.72 11.2656C196.662 10.8031 190.602 10.8031 184.544 11.2656C183.179 11.3693 181.97 11.9893 181.097 12.9243C180.162 13.7967 179.542 15.0054 179.439 16.3704C178.976 22.4289 178.976 28.4886 179.439 34.5472C179.542 35.9121 180.162 37.1208 181.097 37.9933C181.97 38.9282 183.179 39.5482 184.544 39.652C190.602 40.1144 196.662 40.1144 202.72 39.652C204.085 39.5482 205.294 38.9282 206.166 37.9933C207.101 37.1208 207.721 35.9121 207.825 34.5472C208.288 28.4886 208.288 22.4289 207.825 16.3704Z" fill="white"/>
</g>
<path d="M208.04 30.5973C207.985 31.7648 207.914 32.9322 207.825 34.0997C207.721 35.4646 207.101 36.6733 206.166 37.5458C205.294 38.4808 204.085 39.1007 202.72 39.2045C196.662 39.6682 190.602 39.6682 184.544 39.2045C183.179 39.1007 181.97 38.4808 181.097 37.5458C180.162 36.6733 179.543 35.4646 179.439 34.0997C179.356 33.0197 179.289 31.9385 179.235 30.8573C178.99 25.8787 179.059 20.9002 179.439 15.9216C179.543 14.5579 180.162 13.3492 181.097 12.4755C181.97 11.5418 183.179 10.9218 184.544 10.8168C190.602 10.3544 196.662 10.3544 202.72 10.8168C204.085 10.9218 205.294 11.5418 206.166 12.4755C207.101 13.3492 207.721 14.5579 207.825 15.9216C208.198 20.8139 208.271 25.705 208.04 30.5973Z" fill="url(#paint20_radial_2012_20836)"/>
<g style="mix-blend-mode:overlay" opacity="0.8" filter="url(#filter2_f_2012_20836)">
<path d="M181.779 15.6779C182.604 14.8154 183.746 14.2417 185.037 14.1454C190.767 13.7179 196.496 13.7179 202.225 14.1454C203.516 14.2429 204.659 14.8154 205.484 15.6779C206.085 16.2266 206.548 16.9191 206.814 17.7015C206.793 17.3803 206.773 17.0591 206.748 16.7378C206.651 15.4779 206.079 14.3604 205.215 13.553C204.409 12.6905 203.292 12.1168 202.03 12.0205C196.431 11.593 190.832 11.593 185.232 12.0205C183.971 12.118 182.854 12.6905 182.047 13.553C181.184 14.3604 180.61 15.4766 180.515 16.7378C180.49 17.0591 180.471 17.3803 180.449 17.7003C180.715 16.9178 181.177 16.2266 181.779 15.6779Z" fill="url(#paint21_linear_2012_20836)"/>
</g>
<g style="mix-blend-mode:soft-light" opacity="0.75" filter="url(#filter3_f_2012_20836)">
<path d="M205.958 30.5236C205.1 31.4423 203.911 32.0523 202.569 32.1548C196.611 32.6097 190.653 32.6097 184.695 32.1548C183.352 32.0523 182.164 31.4423 181.306 30.5236C181.166 30.3923 181.035 30.2536 180.91 30.1086C180.957 31.086 181.017 32.0635 181.092 33.041C181.185 34.2472 181.732 35.3146 182.559 36.0858C183.33 36.9121 184.397 37.4595 185.603 37.552C190.957 37.9608 196.309 37.9608 201.663 37.552C202.869 37.4595 203.936 36.9121 204.708 36.0858C205.534 35.3146 206.081 34.2472 206.174 33.041C206.249 32.0635 206.309 31.086 206.356 30.1086C206.231 30.2536 206.1 30.3936 205.96 30.5236H205.958Z" fill="url(#paint22_linear_2012_20836)"/>
</g>
<path style="mix-blend-mode:overlay" opacity="0.6" d="M208.17 25.2713C208.17 25.4051 208.17 25.5388 208.17 25.6726V25.7201C208.169 25.9488 208.166 26.1788 208.164 26.4075V26.4138C208.156 27.0638 208.144 27.7137 208.125 28.3637C208.118 28.6312 208.109 28.8987 208.1 29.1674C208.085 29.5849 208.068 30.0036 208.049 30.4224C208.046 30.4811 208.044 30.5399 208.041 30.5986C207.838 30.6711 207.635 30.7424 207.431 30.8111C206.36 31.1773 205.289 31.5011 204.219 31.7861C203.842 31.8861 203.463 31.9811 203.085 32.0711C196.654 33.6035 190.216 33.661 183.77 32.1661C183.427 32.0873 183.085 32.0036 182.742 31.9148C181.777 31.6673 180.811 31.3836 179.845 31.0636C179.641 30.9974 179.439 30.9286 179.235 30.8586C179.235 30.8336 179.232 30.8086 179.231 30.7836C179.206 30.2599 179.184 29.7349 179.166 29.2099C179.155 28.9012 179.146 28.5924 179.137 28.2837C179.121 27.6887 179.109 27.095 179.101 26.5V26.4763C179.099 26.2863 179.096 26.0975 179.095 25.9076V25.8926C179.092 25.6201 179.091 25.3476 179.091 25.0751C179.091 24.6788 179.094 24.2814 179.097 23.8839C179.101 23.5151 179.106 23.1464 179.114 22.7777C179.119 22.4639 179.126 22.1514 179.135 21.8377C179.165 20.7278 179.21 19.6165 179.271 18.5066C179.292 18.1104 179.316 17.7154 179.341 17.3191C179.37 16.8542 179.404 16.3879 179.439 15.9229C179.542 14.5592 180.162 13.3505 181.097 12.4768C181.97 11.5431 183.179 10.9231 184.544 10.8181C190.603 10.3557 196.662 10.3557 202.72 10.8181C204.087 10.9231 205.295 11.5431 206.168 12.4768C207.103 13.3505 207.723 14.5592 207.826 15.9229C207.87 16.4954 207.91 17.0679 207.945 17.6391C207.968 18.0116 207.989 18.3841 208.008 18.7566C208.065 19.8278 208.106 20.8977 208.134 21.9677C208.141 22.2402 208.146 22.5139 208.151 22.7864C208.16 23.2464 208.166 23.7064 208.17 24.1676C208.173 24.5364 208.173 24.9038 208.17 25.2713Z" fill="url(#paint23_radial_2012_20836)"/>
<g style="mix-blend-mode:soft-light" opacity="0.6">
<path d="M199.569 15.1567C199.577 16.9378 196.619 15.7954 193.292 15.8104C189.965 15.8254 187.528 16.9916 187.52 15.2104C187.511 13.4292 190.203 11.973 193.531 11.958C196.858 11.943 199.562 13.3755 199.569 15.1567Z" fill="white"/>
</g>
<path d="M201.682 13.3189C201.731 13.0135 201.392 12.7049 200.923 12.6296C200.455 12.5543 200.036 12.7407 199.987 13.0461C199.937 13.3514 200.277 13.66 200.745 13.7353C201.214 13.8107 201.633 13.6242 201.682 13.3189Z" fill="url(#paint24_radial_2012_20836)"/>
<path d="M202.893 13.5579C202.919 13.3936 202.737 13.2277 202.485 13.1872C202.234 13.1467 202.009 13.2471 201.982 13.4113C201.956 13.5756 202.138 13.7416 202.39 13.782C202.641 13.8225 202.867 13.7221 202.893 13.5579Z" fill="url(#paint25_radial_2012_20836)"/>
<path d="M206.39 31.9773C206.39 32.8847 205.974 33.6209 205.731 33.6209C205.489 33.6209 205.805 33.0822 205.805 32.1747C205.805 31.2673 205.489 30.3336 205.731 30.3336C205.974 30.3336 206.39 31.0698 206.39 31.9773Z" fill="url(#paint26_radial_2012_20836)"/>
<path d="M205.629 18.0747C205.969 18.0125 206.167 17.5404 206.071 17.0202C205.976 16.5001 205.624 16.1289 205.284 16.1912C204.945 16.2534 204.747 16.7255 204.842 17.2457C204.937 17.7658 205.29 18.137 205.629 18.0747Z" fill="url(#paint27_radial_2012_20836)"/>
<path d="M205.829 19.4344C206.011 19.401 206.118 19.147 206.067 18.8673C206.015 18.5875 205.826 18.3879 205.643 18.4214C205.46 18.4549 205.354 18.7088 205.405 18.9886C205.456 19.2683 205.646 19.4679 205.829 19.4344Z" fill="url(#paint28_radial_2012_20836)"/>
<path d="M192.079 13.1167C192.089 13.348 187.788 13.2017 186.242 13.4455C183.104 13.9392 183.799 15.8404 183.351 15.8141C182.904 15.7879 182.564 13.2955 186.19 12.938C189.402 12.6205 192.069 12.8855 192.079 13.1167Z" fill="url(#paint29_radial_2012_20836)"/>
<path d="M183.716 17.6625C183.74 17.1191 183.581 16.6703 183.359 16.6601C183.137 16.6499 182.936 17.0822 182.911 17.6256C182.886 18.169 183.046 18.6178 183.268 18.628C183.49 18.6382 183.691 18.2059 183.716 17.6625Z" fill="url(#paint30_radial_2012_20836)"/>
<defs>
<filter id="filter0_f_2012_20836" x="1.44861" y="3.6999" width="42.3652" height="22.0016" filterUnits="userSpaceOnUse" color-interpolation-filters="sRGB">
<feFlood flood-opacity="0" result="BackgroundImageFix"/>
<feBlend mode="normal" in="SourceGraphic" in2="BackgroundImageFix" result="shape"/>
<feGaussianBlur stdDeviation="4" result="effect1_foregroundBlur_2012_20836"/>
</filter>
<filter id="filter1_f_2012_20836" x="1.90985" y="22.1086" width="41.4465" height="23.75" filterUnits="userSpaceOnUse" color-interpolation-filters="sRGB">
<feFlood flood-opacity="0" result="BackgroundImageFix"/>
<feBlend mode="normal" in="SourceGraphic" in2="BackgroundImageFix" result="shape"/>
<feGaussianBlur stdDeviation="4" result="effect1_foregroundBlur_2012_20836"/>
</filter>
<filter id="filter2_f_2012_20836" x="172.449" y="3.6999" width="42.3652" height="22.0016" filterUnits="userSpaceOnUse" color-interpolation-filters="sRGB">
<feFlood flood-opacity="0" result="BackgroundImageFix"/>
<feBlend mode="normal" in="SourceGraphic" in2="BackgroundImageFix" result="shape"/>
<feGaussianBlur stdDeviation="4" result="effect1_foregroundBlur_2012_20836"/>
</filter>
<filter id="filter3_f_2012_20836" x="172.91" y="22.1086" width="41.4465" height="23.75" filterUnits="userSpaceOnUse" color-interpolation-filters="sRGB">
<feFlood flood-opacity="0" result="BackgroundImageFix"/>
<feBlend mode="normal" in="SourceGraphic" in2="BackgroundImageFix" result="shape"/>
<feGaussianBlur stdDeviation="4" result="effect1_foregroundBlur_2012_20836"/>
</filter>
<radialGradient id="paint0_radial_2012_20836" cx="0" cy="0" r="1" gradientUnits="userSpaceOnUse" gradientTransform="translate(105.847 30.3859) scale(98.3808 42.1632)">
<stop/>
<stop offset="0.84" stop-opacity="0.2"/>
</radialGradient>
<radialGradient id="paint1_radial_2012_20836" cx="0" cy="0" r="1" gradientUnits="userSpaceOnUse" gradientTransform="translate(105.847 28.2637) scale(98.3808 42.1632)">
<stop stop-color="#F79D06"/>
<stop offset="0.98" stop-color="#D36101"/>
</radialGradient>
<radialGradient id="paint2_radial_2012_20836" cx="0" cy="0" r="1" gradientUnits="userSpaceOnUse" gradientTransform="translate(106.412 6.60153) rotate(-92.49) scale(43.9175 229.169)">
<stop stop-color="#F79D06"/>
<stop offset="0.98" stop-color="#D36101"/>
</radialGradient>
<linearGradient id="paint3_linear_2012_20836" x1="108.32" y1="50.4775" x2="108.32" y2="38.5825" gradientUnits="userSpaceOnUse">
<stop/>
<stop offset="1" stop-opacity="0"/>
</linearGradient>
<radialGradient id="paint4_radial_2012_20836" cx="0" cy="0" r="1" gradientUnits="userSpaceOnUse" gradientTransform="translate(106.679 10.9891) scale(101.795 43.6266)">
<stop stop-color="white"/>
<stop offset="1" stop-color="white" stop-opacity="0"/>
</radialGradient>
<radialGradient id="paint5_radial_2012_20836" cx="0" cy="0" r="1" gradientUnits="userSpaceOnUse" gradientTransform="translate(22.6318 27.9286) scale(16.6644)">
<stop/>
<stop offset="0.84" stop-opacity="0.2"/>
</radialGradient>
<radialGradient id="paint6_radial_2012_20836" cx="0" cy="0" r="1" gradientUnits="userSpaceOnUse" gradientTransform="translate(22.6319 26.6875) scale(16.6644)">
<stop stop-color="#A767D3"/>
<stop offset="0.4" stop-color="#8440B4"/>
<stop offset="1" stop-color="#4C0082"/>
</radialGradient>
<radialGradient id="paint7_radial_2012_20836" cx="0" cy="0" r="1" gradientUnits="userSpaceOnUse" gradientTransform="translate(22.7298 22.67) rotate(-91.08) scale(17.7906 18.5022)">
<stop stop-color="#A767D3"/>
<stop offset="0.4" stop-color="#8440B4"/>
<stop offset="1" stop-color="#4C0082"/>
</radialGradient>
<linearGradient id="paint8_linear_2012_20836" x1="22.6318" y1="17.7015" x2="22.6318" y2="11.6993" gradientUnits="userSpaceOnUse">
<stop stop-color="white" stop-opacity="0"/>
<stop offset="1" stop-color="white"/>
</linearGradient>
<linearGradient id="paint9_linear_2012_20836" x1="22.6319" y1="37.8583" x2="22.6319" y2="30.1086" gradientUnits="userSpaceOnUse">
<stop/>
<stop offset="0.09" stop-color="#0C0C0C"/>
<stop offset="0.24" stop-color="#2C2C2C"/>
<stop offset="0.46" stop-color="#616161"/>
<stop offset="0.71" stop-color="#AAAAAA"/>
<stop offset="0.98" stop-color="white"/>
</linearGradient>
<radialGradient id="paint10_radial_2012_20836" cx="0" cy="0" r="1" gradientUnits="userSpaceOnUse" gradientTransform="translate(22.7444 16.5917) scale(17.9543 17.9543)">
<stop stop-color="white"/>
<stop offset="1" stop-color="white" stop-opacity="0"/>
</radialGradient>
<radialGradient id="paint11_radial_2012_20836" cx="0" cy="0" r="1" gradientUnits="userSpaceOnUse" gradientTransform="translate(24.7148 12.1237) rotate(-168.66) scale(0.420046 1.06352)">
<stop offset="0.51" stop-color="white"/>
<stop offset="1" stop-color="white" stop-opacity="0"/>
</radialGradient>
<radialGradient id="paint12_radial_2012_20836" cx="0" cy="0" r="1" gradientUnits="userSpaceOnUse" gradientTransform="translate(26.4578 12.4324) rotate(-168.66) scale(0.225591 0.571177)">
<stop offset="0.51" stop-color="white"/>
<stop offset="1" stop-color="white" stop-opacity="0"/>
</radialGradient>
<radialGradient id="paint13_radial_2012_20836" cx="0" cy="0" r="1" gradientUnits="userSpaceOnUse" gradientTransform="translate(35.2643 31.943) rotate(-91.25) scale(1.63581 0.640101)">
<stop stop-color="white"/>
<stop offset="1" stop-color="white" stop-opacity="0"/>
</radialGradient>
<radialGradient id="paint14_radial_2012_20836" cx="0" cy="0" r="1" gradientUnits="userSpaceOnUse" gradientTransform="translate(32.3551 0.766496) rotate(-98.19) scale(0.468219 1.18549)">
<stop offset="0.51" stop-color="white"/>
<stop offset="1" stop-color="white" stop-opacity="0"/>
</radialGradient>
<radialGradient id="paint15_radial_2012_20836" cx="0" cy="0" r="1" gradientUnits="userSpaceOnUse" gradientTransform="translate(32.6824 2.71249) rotate(-98.19) scale(0.25144 0.636624)">
<stop offset="0.51" stop-color="white"/>
<stop offset="1" stop-color="white" stop-opacity="0"/>
</radialGradient>
<radialGradient id="paint16_radial_2012_20836" cx="0" cy="0" r="1" gradientUnits="userSpaceOnUse" gradientTransform="translate(15.1004 10.685) rotate(-94.57) scale(2.21751 9.05485)">
<stop offset="0.51" stop-color="white"/>
<stop offset="1" stop-color="white" stop-opacity="0"/>
</radialGradient>
<radialGradient id="paint17_radial_2012_20836" cx="0" cy="0" r="1" gradientUnits="userSpaceOnUse" gradientTransform="translate(12.3506 17.7867) rotate(-91.38) scale(0.983362 0.365036)">
<stop offset="0.51" stop-color="white"/>
<stop offset="1" stop-color="white" stop-opacity="0"/>
</radialGradient>
<radialGradient id="paint18_radial_2012_20836" cx="0" cy="0" r="1" gradientUnits="userSpaceOnUse" gradientTransform="translate(193.632 27.9286) scale(16.6644)">
<stop/>
<stop offset="0.84" stop-opacity="0.2"/>
</radialGradient>
<radialGradient id="paint19_radial_2012_20836" cx="0" cy="0" r="1" gradientUnits="userSpaceOnUse" gradientTransform="translate(193.632 26.6875) scale(16.6644)">
<stop stop-color="#A767D3"/>
<stop offset="0.4" stop-color="#8440B4"/>
<stop offset="1" stop-color="#4C0082"/>
</radialGradient>
<radialGradient id="paint20_radial_2012_20836" cx="0" cy="0" r="1" gradientUnits="userSpaceOnUse" gradientTransform="translate(193.73 22.67) rotate(-91.08) scale(17.7906 18.5022)">
<stop stop-color="#A767D3"/>
<stop offset="0.4" stop-color="#8440B4"/>
<stop offset="1" stop-color="#4C0082"/>
</radialGradient>
<linearGradient id="paint21_linear_2012_20836" x1="193.632" y1="17.7015" x2="193.632" y2="11.6993" gradientUnits="userSpaceOnUse">
<stop stop-color="white" stop-opacity="0"/>
<stop offset="1" stop-color="white"/>
</linearGradient>
<linearGradient id="paint22_linear_2012_20836" x1="193.632" y1="37.8583" x2="193.632" y2="30.1086" gradientUnits="userSpaceOnUse">
<stop/>
<stop offset="0.09" stop-color="#0C0C0C"/>
<stop offset="0.24" stop-color="#2C2C2C"/>
<stop offset="0.46" stop-color="#616161"/>
<stop offset="0.71" stop-color="#AAAAAA"/>
<stop offset="0.98" stop-color="white"/>
</linearGradient>
<radialGradient id="paint23_radial_2012_20836" cx="0" cy="0" r="1" gradientUnits="userSpaceOnUse" gradientTransform="translate(193.744 16.5917) scale(17.9543 17.9543)">
<stop stop-color="white"/>
<stop offset="1" stop-color="white" stop-opacity="0"/>
</radialGradient>
<radialGradient id="paint24_radial_2012_20836" cx="0" cy="0" r="1" gradientUnits="userSpaceOnUse" gradientTransform="translate(195.715 12.1237) rotate(-168.66) scale(0.420046 1.06352)">
<stop offset="0.51" stop-color="white"/>
<stop offset="1" stop-color="white" stop-opacity="0"/>
</radialGradient>
<radialGradient id="paint25_radial_2012_20836" cx="0" cy="0" r="1" gradientUnits="userSpaceOnUse" gradientTransform="translate(197.458 12.4324) rotate(-168.66) scale(0.225591 0.571177)">
<stop offset="0.51" stop-color="white"/>
<stop offset="1" stop-color="white" stop-opacity="0"/>
</radialGradient>
<radialGradient id="paint26_radial_2012_20836" cx="0" cy="0" r="1" gradientUnits="userSpaceOnUse" gradientTransform="translate(206.264 31.9431) rotate(-91.25) scale(1.63581 0.640101)">
<stop stop-color="white"/>
<stop offset="1" stop-color="white" stop-opacity="0"/>
</radialGradient>
<radialGradient id="paint27_radial_2012_20836" cx="0" cy="0" r="1" gradientUnits="userSpaceOnUse" gradientTransform="translate(203.355 0.766504) rotate(-98.19) scale(0.468219 1.18549)">
<stop offset="0.51" stop-color="white"/>
<stop offset="1" stop-color="white" stop-opacity="0"/>
</radialGradient>
<radialGradient id="paint28_radial_2012_20836" cx="0" cy="0" r="1" gradientUnits="userSpaceOnUse" gradientTransform="translate(203.682 2.71251) rotate(-98.19) scale(0.25144 0.636624)">
<stop offset="0.51" stop-color="white"/>
<stop offset="1" stop-color="white" stop-opacity="0"/>
</radialGradient>
<radialGradient id="paint29_radial_2012_20836" cx="0" cy="0" r="1" gradientUnits="userSpaceOnUse" gradientTransform="translate(186.1 10.685) rotate(-94.57) scale(2.21751 9.05485)">
<stop offset="0.51" stop-color="white"/>
<stop offset="1" stop-color="white" stop-opacity="0"/>
</radialGradient>
<radialGradient id="paint30_radial_2012_20836" cx="0" cy="0" r="1" gradientUnits="userSpaceOnUse" gradientTransform="translate(183.351 17.7867) rotate(-91.38) scale(0.983362 0.365036)">
<stop offset="0.51" stop-color="white"/>
<stop offset="1" stop-color="white" stop-opacity="0"/>
</radialGradient>
</defs>
</svg>
