<svg width="215" height="55" viewBox="0 0 215 55" fill="none" xmlns="http://www.w3.org/2000/svg">
<path d="M214.122 30.7025C214.122 31.9025 214.072 33.1025 214.012 34.3125C213.892 36.6825 213.672 39.0525 213.352 41.4225C213.172 42.7525 212.972 44.0825 212.732 45.4125C212.312 47.7425 209.832 49.8125 206.082 51.3025C202.582 52.9025 197.742 53.9625 192.272 54.1425C168.002 54.9325 46.2319 54.9325 21.9519 54.1425C16.4819 53.9625 11.6419 52.9025 8.14192 51.3025C4.39192 49.8125 1.91192 47.7425 1.49192 45.4125C1.33192 44.5325 1.19192 43.6525 1.06192 42.7725C0.671924 40.1825 0.401922 37.5825 0.251922 34.9925C0.161922 33.5225 0.111923 32.0425 0.101923 30.5725C0.0819226 29.5225 0.101923 28.4725 0.131923 27.4225V27.3825C0.181923 25.8725 0.261923 24.3525 0.381923 22.8425C0.481923 21.6325 0.601922 20.4225 0.751922 19.2225C0.951922 17.5925 1.20192 15.9625 1.49192 14.3325C1.71192 13.1025 2.50192 11.9525 3.75192 10.9125C4.87192 9.9825 6.36192 9.1425 8.13192 8.4425C11.6319 6.8425 16.4719 5.7825 21.9419 5.6025C46.2219 4.8125 167.992 4.8125 192.262 5.6025C197.732 5.7825 202.572 6.8425 206.072 8.4425C208.332 9.3425 210.132 10.4425 211.292 11.7025C212.062 12.5225 212.562 13.4125 212.722 14.3425C213.032 16.0625 213.292 17.7725 213.492 19.4925C213.652 20.7825 213.782 22.0725 213.872 23.3625C213.972 24.6725 214.042 25.9725 214.082 27.2825C214.122 28.4325 214.132 29.5725 214.122 30.7125V30.7025Z" fill="url(#paint0_radial_2012_20789)"/>
<path d="M214.022 32.0825C213.962 33.3325 213.872 34.5925 213.752 35.8425C213.552 37.9825 213.272 40.1225 212.912 42.2625C212.852 42.6025 212.792 42.9425 212.732 43.2825C212.312 45.6125 209.832 47.6825 206.082 49.1725C202.582 50.7725 197.742 51.8325 192.272 52.0125C168.002 52.8025 46.2319 52.8025 21.9519 52.0125C16.4819 51.8325 11.6419 50.7725 8.1419 49.1725C4.5819 47.7525 2.1719 45.8225 1.5719 43.6325C1.5319 43.5125 1.5119 43.4025 1.4919 43.2825C1.0919 41.0525 0.781897 38.8225 0.551897 36.5925C0.401897 35.1225 0.281897 33.6425 0.211897 32.1725C0.101897 30.2525 0.0718981 28.3325 0.101898 26.4025V26.3725C0.111898 25.9025 0.121897 25.4225 0.141897 24.9525C0.181897 23.6125 0.261898 22.2825 0.361898 20.9425C0.551898 18.4925 0.851898 16.0325 1.2519 13.5825C1.3319 13.1225 1.4019 12.6525 1.4919 12.1925C1.9119 9.8625 4.3919 7.79249 8.1419 6.30249C11.6419 4.70249 16.4819 3.6425 21.9519 3.4625C46.2319 2.6725 168.002 2.6725 192.272 3.4625C197.742 3.6425 202.582 4.70249 206.082 6.30249C209.832 7.79249 212.312 9.8625 212.732 12.1925C212.842 12.8025 212.942 13.4125 213.042 14.0225C213.412 16.3425 213.682 18.6625 213.872 20.9825C213.982 22.4225 214.062 23.8625 214.102 25.3025C214.102 25.5325 214.122 25.7625 214.122 26.0025V26.0825C214.162 28.0825 214.122 30.0825 214.022 32.0725V32.0825Z" fill="url(#paint1_radial_2012_20789)"/>
<g style="mix-blend-mode:hard-light" opacity="0.2">
<path d="M212.732 10.2725C212.312 7.9025 209.832 5.7925 206.082 4.2725C202.582 2.6425 197.742 1.5625 192.272 1.3825C168.002 0.572502 46.2219 0.572502 21.9519 1.3825C16.4819 1.5625 11.6419 2.6425 8.14187 4.2725C4.40187 5.7925 1.91187 7.8925 1.49187 10.2725C-0.35813 20.8125 -0.35813 31.3625 1.49187 41.9025C1.91187 44.2725 4.39187 46.3825 8.14187 47.9025C11.6419 49.5325 16.4819 50.6125 21.9519 50.7925C46.2219 51.6025 168.002 51.6025 192.272 50.7925C197.742 50.6125 202.582 49.5325 206.082 47.9025C209.822 46.3825 212.312 44.2825 212.732 41.9025C214.582 31.3625 214.582 20.8125 212.732 10.2725Z" fill="white"/>
</g>
<path d="M213.602 34.7625C213.382 36.7825 213.092 38.7925 212.742 40.8125C212.322 43.1725 209.842 45.2525 206.092 46.7625C202.592 48.3725 197.752 49.4425 192.282 49.6225C168.012 50.4225 46.2319 50.4225 21.9619 49.6225C16.4919 49.4425 11.6519 48.3725 8.1519 46.7625C4.4019 45.2525 1.9219 43.1725 1.5019 40.8125C1.1719 38.9525 0.901901 37.0825 0.691901 35.2125C-0.288099 26.6225 -0.0180974 18.0225 1.5019 9.43251C1.9219 7.08251 4.4019 4.99251 8.1519 3.48251C11.6519 1.87251 16.4919 0.802507 21.9619 0.622507C46.2319 -0.177493 168.012 -0.177493 192.282 0.622507C197.752 0.802507 202.592 1.87251 206.092 3.48251C209.842 4.99251 212.322 7.07251 212.742 9.43251C214.232 17.8725 214.532 26.3225 213.602 34.7625Z" fill="url(#paint2_radial_2012_20789)"/>
<g style="mix-blend-mode:soft-light" opacity="0.75">
<path d="M213.602 34.7625C213.382 36.7825 213.092 38.7925 212.742 40.8125C212.322 43.1725 209.842 45.2525 206.092 46.7625C202.592 48.3725 197.752 49.4425 192.282 49.6225C168.012 50.4225 46.2319 50.4225 21.9619 49.6225C16.4919 49.4425 11.6519 48.3725 8.1519 46.7625C4.4019 45.2525 1.9219 43.1725 1.5019 40.8125C1.1719 38.9525 0.901901 37.0825 0.691901 35.2125C-0.288099 26.6225 -0.0180974 18.0225 1.5019 9.43246C1.9219 7.08246 4.4019 4.99246 8.1519 3.48246C11.6519 1.87246 16.4919 0.802461 21.9619 0.622461C46.2319 -0.177539 168.012 -0.177539 192.282 0.622461C197.752 0.802461 202.592 1.87246 206.092 3.48246C209.842 4.99246 212.322 7.07246 212.742 9.43246C214.232 17.8725 214.532 26.3225 213.602 34.7625Z" fill="url(#paint3_linear_2012_20789)"/>
</g>
<path style="mix-blend-mode:overlay" opacity="0.6" d="M214.122 25.3225C214.122 25.5525 214.122 25.7825 214.122 26.0125V26.0925C214.122 26.4825 214.102 26.8725 214.092 27.2725C214.062 28.3925 214.012 29.5025 213.932 30.6125C213.902 31.0725 213.862 31.5225 213.832 31.9825C213.772 32.6925 213.702 33.4125 213.622 34.1325C213.612 34.2325 213.602 34.3325 213.592 34.4325C212.772 34.5525 211.962 34.6825 211.152 34.7925C206.862 35.4225 202.572 35.9725 198.282 36.4625C196.772 36.6325 195.252 36.7925 193.742 36.9525C167.982 39.5725 44.6819 39.6725 18.8619 37.1125C17.4919 36.9825 16.1219 36.8325 14.7419 36.6825C10.8719 36.2625 7.00192 35.7725 3.13192 35.2225C2.31192 35.1125 1.50192 34.9925 0.691917 34.8725C0.691917 34.8325 0.691921 34.7825 0.671921 34.7425C0.571921 33.8425 0.481919 32.9525 0.411919 32.0525C0.361919 31.5225 0.33192 30.9925 0.29192 30.4725C0.22192 29.4525 0.171918 28.4425 0.141918 27.4225V27.3825C0.141918 27.0625 0.121919 26.7325 0.111919 26.4125V26.3825C0.111919 25.9125 0.0919189 25.4525 0.0919189 24.9825C0.0919189 24.3025 0.0919196 23.6225 0.12192 22.9425C0.14192 22.3125 0.161917 21.6825 0.191917 21.0525C0.211917 20.5125 0.241918 19.9825 0.281918 19.4425C0.401918 17.5425 0.581921 15.6425 0.831921 13.7425C0.921921 13.0625 1.01192 12.3925 1.11192 11.7125C1.23192 10.9225 1.36192 10.1225 1.50192 9.3225C1.92192 6.9925 4.40192 4.9225 8.15192 3.4325C11.6519 1.8325 16.4919 0.7725 21.9619 0.5925C46.2419 -0.1975 168.012 -0.1975 192.282 0.5925C197.752 0.7725 202.602 1.8325 206.092 3.4325C209.842 4.9225 212.322 6.9925 212.742 9.3225C212.922 10.3025 213.082 11.2825 213.222 12.2525C213.312 12.8925 213.402 13.5225 213.472 14.1625C213.702 15.9925 213.872 17.8225 213.982 19.6525C214.012 20.1225 214.032 20.5825 214.052 21.0525C214.092 21.8425 214.112 22.6225 214.132 23.4125C214.132 24.0425 214.132 24.6725 214.132 25.3025L214.122 25.3225Z" fill="url(#paint4_radial_2012_20789)"/>
<g style="mix-blend-mode:soft-light" opacity="0.6">
<path d="M179.662 8.0325C179.692 11.0825 162.802 9.1525 102.312 9.1525C52.7019 9.1525 33.9219 11.1725 33.8919 8.1225C33.8619 5.0725 51.9819 2.5625 103.272 2.5625C162.092 2.5625 179.632 4.9825 179.662 8.0325Z" fill="white"/>
</g>
<path d="M57.2957 32.1925V22.4525H54.3357C53.5557 22.4525 52.9157 21.8125 52.9157 21.0325C52.9157 20.2525 53.5557 19.6125 54.3357 19.6125H63.3357C64.1157 19.6125 64.7557 20.2525 64.7557 21.0325C64.7557 21.8125 64.1157 22.4525 63.3357 22.4525H60.3757V32.1925C60.3757 33.0525 59.6957 33.7325 58.8357 33.7325C57.9757 33.7325 57.2957 33.0525 57.2957 32.1925ZM67.0045 32.1925V21.1525C67.0045 20.2925 67.6845 19.6125 68.5445 19.6125H73.4045C75.1845 19.6125 76.5645 20.1125 77.4845 21.0325C78.2645 21.8125 78.6845 22.9125 78.6845 24.2325V24.2725C78.6845 26.4725 77.5845 27.8325 75.8845 28.5325L78.0245 31.1325C78.3245 31.5125 78.5245 31.8325 78.5245 32.3125C78.5245 33.1725 77.8045 33.7325 77.0645 33.7325C76.3645 33.7325 75.9045 33.3925 75.5445 32.9325L72.5445 29.1325H70.0845V32.1925C70.0845 33.0525 69.4045 33.7325 68.5445 33.7325C67.6845 33.7325 67.0045 33.0525 67.0045 32.1925ZM70.0845 26.4125H73.2045C74.7045 26.4125 75.5645 25.6125 75.5645 24.4325V24.3925C75.5645 23.0725 74.6445 22.3925 73.1445 22.3925H70.0845V26.4125ZM84.8246 32.1925V28.2125L80.3046 22.0725C80.0846 21.7725 79.9246 21.4125 79.9246 20.9725C79.9246 20.1525 80.6046 19.4925 81.4646 19.4925C82.1646 19.4925 82.6046 19.8725 82.9846 20.4325L86.3846 25.3325L89.8446 20.3925C90.2246 19.8325 90.6846 19.4725 91.3246 19.4725C92.2646 19.4725 92.8246 20.1325 92.8246 20.9725C92.8246 21.3925 92.6246 21.7725 92.4246 22.0525L87.9046 28.1525V32.1925C87.9046 33.0525 87.2246 33.7325 86.3646 33.7325C85.5046 33.7325 84.8246 33.0525 84.8246 32.1925ZM107.67 33.8525C103.31 33.8525 100.31 30.7925 100.31 26.6525V26.6125C100.31 22.6325 103.41 19.3725 107.65 19.3725C109.77 19.3725 111.17 19.8525 112.43 20.7325C112.73 20.9525 113.07 21.3725 113.07 21.9725C113.07 22.8125 112.39 23.4925 111.55 23.4925C111.11 23.4925 110.83 23.3325 110.61 23.1725C109.77 22.5725 108.87 22.2125 107.55 22.2125C105.31 22.2125 103.53 24.1925 103.53 26.5725V26.6125C103.53 29.1725 105.29 31.0525 107.77 31.0525C108.89 31.0525 109.89 30.7725 110.67 30.2125V28.2125H108.59C107.85 28.2125 107.25 27.6325 107.25 26.8925C107.25 26.1525 107.85 25.5525 108.59 25.5525H112.11C112.97 25.5525 113.65 26.2325 113.65 27.0925V30.4925C113.65 31.3925 113.31 32.0125 112.57 32.4525C111.43 33.1525 109.77 33.8525 107.67 33.8525ZM115.654 32.2925C115.654 32.0725 115.734 31.8525 115.834 31.6325L120.714 20.6125C121.054 19.8525 121.674 19.3925 122.514 19.3925H122.694C123.534 19.3925 124.134 19.8525 124.474 20.6125L129.354 31.6325C129.454 31.8525 129.514 32.0525 129.514 32.2525C129.514 33.0725 128.874 33.7325 128.054 33.7325C127.334 33.7325 126.854 33.3125 126.574 32.6725L125.634 30.4725H119.474L118.494 32.7725C118.234 33.3725 117.714 33.7325 117.074 33.7325C116.274 33.7325 115.654 33.0925 115.654 32.2925ZM120.614 27.7525H124.494L122.554 23.1325L120.614 27.7525ZM131.926 32.2325V21.0725C131.926 20.2125 132.606 19.5325 133.466 19.5325H133.806C134.466 19.5325 134.926 19.8725 135.206 20.3325L138.926 26.3925L142.666 20.3125C142.986 19.7925 143.426 19.5325 144.046 19.5325H144.386C145.246 19.5325 145.926 20.2125 145.926 21.0725V32.1925C145.926 33.0525 145.246 33.7325 144.386 33.7325C143.546 33.7325 142.866 33.0325 142.866 32.1925V25.2125L140.166 29.3725C139.846 29.8525 139.446 30.1525 138.886 30.1525C138.326 30.1525 137.926 29.8525 137.606 29.3725L134.946 25.2725V32.2325C134.946 33.0725 134.266 33.7325 133.426 33.7325C132.586 33.7325 131.926 33.0725 131.926 32.2325ZM150.83 33.6125C149.97 33.6125 149.29 32.9325 149.29 32.0725V21.1525C149.29 20.2925 149.97 19.6125 150.83 19.6125H158.59C159.35 19.6125 159.97 20.2325 159.97 20.9925C159.97 21.7525 159.35 22.3525 158.59 22.3525H152.35V25.1925H157.69C158.45 25.1925 159.07 25.8125 159.07 26.5725C159.07 27.3325 158.45 27.9325 157.69 27.9325H152.35V30.8725H158.69C159.45 30.8725 160.07 31.4925 160.07 32.2525C160.07 33.0125 159.45 33.6125 158.69 33.6125H150.83Z" fill="white"/>
<path d="M34.0403 28.0317C36.1845 26.0519 36.7552 22.788 35.2347 20.1546C33.7142 17.5212 30.6011 16.3839 27.8155 17.2508C27.1742 14.404 24.6318 12.2775 21.5908 12.2775C18.5497 12.2775 16.0087 14.404 15.366 17.2508C12.5804 16.3839 9.46736 17.5212 7.94684 20.1546C6.42632 22.788 6.99702 26.0532 9.14125 28.0317C6.99702 30.0115 6.42632 33.2754 7.94684 35.9088C9.46736 38.5422 12.5804 39.6795 15.366 38.8126C16.0074 41.6593 18.5497 43.7859 21.5908 43.7859C24.6318 43.7859 27.1728 41.6593 27.8155 38.8126C30.6011 39.6795 33.7142 38.5422 35.2347 35.9088C36.7552 33.2754 36.1845 30.0101 34.0403 28.0317Z" fill="url(#paint5_radial_2012_20789)"/>
<path d="M36.0786 31.8608C36.0201 32.7862 35.7593 33.7116 35.2769 34.5717C35.2633 34.5975 35.2497 34.622 35.2347 34.6478C35.1519 34.7918 35.0635 34.9304 34.9711 35.065C33.3759 37.3994 30.4503 38.3723 27.8156 37.5516C27.1742 40.3983 24.6319 42.5249 21.5908 42.5249C18.5498 42.5249 16.0088 40.3983 15.366 37.5516C12.7816 38.356 9.9158 37.4361 8.30287 35.1954C8.19145 35.0432 8.08682 34.8842 7.98899 34.7185C7.97404 34.6954 7.96045 34.6709 7.94686 34.6478C7.4672 33.8176 7.19679 32.9234 7.11662 32.0266C7.08401 31.6529 7.08401 31.2779 7.11662 30.907C7.13429 30.7113 7.1601 30.517 7.19543 30.324C7.31365 29.6704 7.53378 29.0359 7.84903 28.4475C8.10856 27.9597 8.43468 27.5031 8.82059 27.0914C8.9225 26.9813 9.0312 26.874 9.14263 26.7707C8.80972 26.4636 8.51485 26.1253 8.25939 25.7638C7.99306 25.3847 7.77022 24.9811 7.59221 24.5572C7.46176 24.2474 7.35577 23.928 7.27696 23.6019C7.16282 23.1372 7.10032 22.6589 7.09352 22.1765C7.08809 21.8898 7.10303 21.6004 7.13836 21.3109C7.14787 21.2308 7.15875 21.152 7.17233 21.0718C7.29191 20.3258 7.54737 19.588 7.94686 18.8936C8.45099 18.0199 9.1304 17.3106 9.9158 16.7861C11.4961 15.7262 13.5031 15.4109 15.3647 15.9898H15.366C15.4476 15.6283 15.5603 15.2778 15.7003 14.9421C16.6624 12.6376 18.937 11.0165 21.5908 11.0165C24.2446 11.0165 26.5695 12.6729 27.5126 15.0182C27.6389 15.3308 27.7408 15.6555 27.8156 15.9898C29.9367 15.3294 32.2467 15.8308 33.899 17.2712C34.4181 17.7209 34.8719 18.2645 35.2347 18.8936C35.6342 19.5852 35.8897 20.3217 36.0106 21.0677C36.0378 21.2362 36.0582 21.4061 36.0691 21.5759C36.0894 21.8341 36.0949 22.0936 36.084 22.3518C36.0623 22.8777 35.9753 23.3981 35.8258 23.9009C35.7348 24.208 35.6207 24.5083 35.4834 24.7977C35.3271 25.1333 35.1396 25.4567 34.9249 25.7624C34.6681 26.1253 34.3733 26.4636 34.0403 26.7707C34.3107 27.0207 34.5567 27.2911 34.7768 27.5792C35.0622 27.9515 35.3027 28.351 35.497 28.7722C35.6723 29.1527 35.8122 29.5495 35.9101 29.9571C35.9753 30.2248 36.0229 30.4966 36.0528 30.7711C36.0922 31.1312 36.1017 31.4967 36.0786 31.8608Z" fill="url(#paint6_radial_2012_20789)"/>
<g style="mix-blend-mode:hard-light" opacity="0.2">
<path d="M34.0403 25.2583C36.1845 23.2785 36.7552 20.0146 35.2347 17.3812C33.7142 14.7478 30.6011 13.6105 27.8155 14.4774C27.1742 11.6307 24.6318 9.50414 21.5908 9.50414C18.5497 9.50414 16.0087 11.6307 15.366 14.4774C12.5804 13.6105 9.46736 14.7478 7.94684 17.3812C6.42632 20.0146 6.99702 23.2799 9.14125 25.2583C6.99702 27.2381 6.42632 30.502 7.94684 33.1354C9.46736 35.7688 12.5804 36.9062 15.366 36.0392C16.0074 38.886 18.5497 41.0125 21.5908 41.0125C24.6318 41.0125 27.1728 38.886 27.8155 36.0392C30.6011 36.9062 33.7142 35.7688 35.2347 33.1354C36.7552 30.502 36.1845 27.2368 34.0403 25.2583Z" fill="white"/>
</g>
<path d="M36.0745 29.8973C36.0093 30.8322 35.7348 31.7657 35.2347 32.6313C33.7142 35.2647 30.6011 36.402 27.8169 35.5351C27.1742 38.3818 24.6318 40.5084 21.5921 40.5084C18.5525 40.5084 16.0101 38.3818 15.3674 35.5351C12.5818 36.402 9.46872 35.2647 7.94956 32.6313C7.52289 31.8921 7.26064 31.1053 7.15329 30.3091C6.87201 28.2681 7.6017 26.1782 9.14532 24.7542C6.99974 22.7757 6.42904 19.5105 7.95092 16.8771C9.47144 14.2437 12.5845 13.1064 15.3687 13.9733C16.0087 11.1266 18.5511 9 21.5908 9C24.6305 9 27.1728 11.1266 27.8156 13.9733C30.6011 13.1064 33.7142 14.2437 35.2334 16.8771C36.7553 19.5105 36.1832 22.7757 34.039 24.7542C35.4793 26.0831 36.209 27.9909 36.0731 29.8973H36.0745Z" fill="url(#paint7_radial_2012_20789)"/>
<g style="mix-blend-mode:overlay" opacity="0.8" filter="url(#filter0_f_2012_20789)">
<path d="M9.12494 20.0024C10.5137 17.5973 13.3577 16.5564 15.9027 17.3486C16.4898 14.7465 18.8133 12.8047 21.5908 12.8047C24.3682 12.8047 26.6918 14.7478 27.2788 17.3486C29.8239 16.5564 32.6679 17.5959 34.0566 20.0024C34.3936 20.584 34.6165 21.2009 34.736 21.8259C34.9874 20.5024 34.7836 19.0865 34.0566 17.8283C32.6679 15.4232 29.8239 14.3823 27.2788 15.1745C26.6918 12.5724 24.3682 10.6306 21.5908 10.6306C18.8133 10.6306 16.4898 12.5737 15.9027 15.1745C13.3577 14.3823 10.5137 15.4218 9.12494 17.8283C8.39797 19.0865 8.1955 20.5024 8.44553 21.8259C8.5651 21.2009 8.78795 20.5853 9.12494 20.0024Z" fill="url(#paint8_linear_2012_20789)"/>
</g>
<g style="mix-blend-mode:soft-light" filter="url(#filter1_f_2012_20789)">
<path d="M27.9392 30.3688C27.2978 32.7604 24.7568 34.5459 21.7171 34.5459C18.6775 34.5459 16.1365 32.759 15.4951 30.3688C12.8726 31.0551 9.96196 30.2466 8.36127 28.3048C8.39116 29.2315 8.64254 30.1637 9.13851 31.0238C10.5259 33.4276 13.3672 34.4657 15.9095 33.6749C16.4952 36.2729 18.8161 38.2133 21.5908 38.2133C24.3655 38.2133 26.6864 36.2729 27.272 33.6749C29.8144 34.4671 32.6557 33.4276 34.043 31.0238C34.4846 30.2574 34.7333 29.434 34.8026 28.6078C33.1598 30.3294 30.4204 31.0184 27.9392 30.3702V30.3688Z" fill="url(#paint9_radial_2012_20789)"/>
</g>
<path style="mix-blend-mode:overlay" opacity="0.6" d="M36.0867 29.2315C36.0949 29.453 36.0908 29.6745 36.0745 29.8973C36.0202 29.9177 35.9644 29.9381 35.9101 29.9571C35.6818 30.0414 35.4535 30.1229 35.2252 30.2017C34.8013 30.3498 34.3787 30.4925 33.9547 30.627C31.8893 31.2874 29.8226 31.7915 27.7558 32.1394C23.3328 32.884 18.9058 32.9085 14.476 32.1856C12.5682 31.8744 10.6591 31.4247 8.74857 30.8336C8.37354 30.7194 7.9985 30.5971 7.62347 30.4708C7.48079 30.4232 7.33812 30.3743 7.19544 30.324C7.18049 30.3186 7.1669 30.3145 7.15196 30.3091C7.09489 29.8946 7.07994 29.4775 7.10576 29.0644C7.12478 28.7383 7.16962 28.4149 7.23756 28.0969C7.41693 27.2639 7.76207 26.469 8.2594 25.7638C8.5135 25.401 8.80972 25.0613 9.14263 24.7542C8.90892 24.5395 8.69422 24.3085 8.49991 24.0653C8.28657 23.8017 8.0977 23.5231 7.93192 23.231C7.69956 22.8233 7.5134 22.3926 7.37752 21.9469C7.30686 21.7213 7.24979 21.493 7.20495 21.2607C7.19272 21.1982 7.18185 21.1343 7.17234 21.0718C6.99841 19.9902 7.10168 18.8583 7.5134 17.7902C7.63162 17.4791 7.77702 17.1747 7.94823 16.8771C8.07324 16.661 8.20776 16.4559 8.35452 16.2602C9.97559 14.0711 12.8087 13.177 15.366 13.9733C16.0088 11.1266 18.5511 9 21.5908 9C24.6305 9 27.1729 11.1266 27.8156 13.9733C30.5522 13.1213 33.6055 14.2043 35.1519 16.7399C35.1804 16.7847 35.2076 16.8309 35.2348 16.8771C35.4766 17.2956 35.6655 17.7304 35.8041 18.1748C36.1003 19.1259 36.1628 20.1165 36.0106 21.0677C35.9889 21.2049 35.9631 21.3422 35.9318 21.4781C35.8843 21.6914 35.8245 21.902 35.7538 22.1099C35.5908 22.5937 35.3693 23.057 35.0934 23.4918C34.9181 23.769 34.7211 24.0327 34.5023 24.2813C34.357 24.4457 34.2034 24.6034 34.0403 24.7542C34.3733 25.0613 34.6681 25.401 34.9249 25.7624C35.4766 26.5465 35.8421 27.4433 35.9998 28.3768C36.0473 28.6595 36.0772 28.9448 36.0867 29.2315Z" fill="url(#paint10_radial_2012_20789)"/>
<g style="mix-blend-mode:soft-light" opacity="0.6">
<path d="M25.1957 14.1826C25.1998 15.1378 23.4768 14.5263 21.5378 14.5345C19.5987 14.5426 18.1788 15.1691 18.1747 14.2138C18.1706 13.2586 19.7387 12.4772 21.6777 12.4691C23.6168 12.4609 25.1917 13.2273 25.1957 14.1826Z" fill="white"/>
</g>
<path d="M34.8243 30.5985C34.4629 31.5565 33.7305 32.1679 33.475 32.0714C33.2182 31.975 33.7672 31.532 34.1286 30.574C34.4901 29.6161 34.5281 28.5045 34.7836 28.601C35.039 28.6975 35.1858 29.6405 34.8257 30.5985H34.8243Z" fill="url(#paint11_radial_2012_20789)"/>
<path d="M18.0156 13.8108C18.9446 13.1737 19.4665 12.3201 19.1813 11.9042C18.896 11.4883 17.9117 11.6676 16.9827 12.3046C16.0538 12.9417 15.5319 13.7952 15.8171 14.2112C16.1023 14.6271 17.0866 14.4478 18.0156 13.8108Z" fill="url(#paint12_radial_2012_20789)"/>
<path d="M15.1765 15.7533C15.5419 15.3624 15.6313 14.8523 15.3764 14.6141C15.1214 14.3758 14.6186 14.4996 14.2532 14.8905C13.8879 15.2815 13.7984 15.7915 14.0534 16.0298C14.3084 16.2681 14.8112 16.1443 15.1765 15.7533Z" fill="url(#paint13_radial_2012_20789)"/>
<path d="M13.5116 17.0611C13.7078 16.8511 13.7558 16.577 13.6187 16.4489C13.4816 16.3208 13.2114 16.3872 13.0152 16.5972C12.8189 16.8072 12.771 17.0813 12.9081 17.2094C13.0451 17.3375 13.3153 17.2711 13.5116 17.0611Z" fill="url(#paint14_radial_2012_20789)"/>
<path d="M26.8184 14.2406C27.1151 14.0569 27.1271 13.5391 26.8453 13.0843C26.5635 12.6294 26.0946 12.4097 25.7979 12.5935C25.5013 12.7773 25.4892 13.295 25.7711 13.7498C26.0529 14.2047 26.5218 14.4244 26.8184 14.2406Z" fill="url(#paint15_radial_2012_20789)"/>
<path d="M27.5107 15.448C27.6702 15.3492 27.6768 15.071 27.5254 14.8267C27.374 14.5823 27.122 14.4644 26.9625 14.5632C26.8031 14.662 26.7965 14.9401 26.9479 15.1845C27.0992 15.4288 27.3512 15.5468 27.5107 15.448Z" fill="url(#paint16_radial_2012_20789)"/>
<path d="M35.1974 22.1913C35.4448 21.7169 35.3945 21.2015 35.0851 21.0401C34.7757 20.8788 34.3243 21.1326 34.0769 21.607C33.8295 22.0815 33.8797 22.5969 34.1892 22.7582C34.4986 22.9196 34.95 22.6658 35.1974 22.1913Z" fill="url(#paint17_radial_2012_20789)"/>
<path d="M34.0457 23.6637C34.1786 23.4089 34.1515 23.132 33.9851 23.0452C33.8188 22.9585 33.5762 23.0947 33.4433 23.3496C33.3104 23.6045 33.3375 23.8814 33.5038 23.9681C33.6702 24.0549 33.9128 23.9186 34.0457 23.6637Z" fill="url(#paint18_radial_2012_20789)"/>
<path d="M206.04 28.0317C208.185 26.0519 208.755 22.788 207.235 20.1546C205.714 17.5212 202.601 16.3839 199.816 17.2508C199.174 14.404 196.632 12.2775 193.591 12.2775C190.55 12.2775 188.009 14.404 187.366 17.2508C184.58 16.3839 181.467 17.5212 179.947 20.1546C178.426 22.788 178.997 26.0532 181.141 28.0317C178.997 30.0115 178.426 33.2754 179.947 35.9088C181.467 38.5422 184.58 39.6795 187.366 38.8126C188.007 41.6593 190.55 43.7859 193.591 43.7859C196.632 43.7859 199.173 41.6593 199.816 38.8126C202.601 39.6795 205.714 38.5422 207.235 35.9088C208.755 33.2754 208.185 30.0101 206.04 28.0317Z" fill="url(#paint19_radial_2012_20789)"/>
<path d="M208.079 31.8608C208.02 32.7862 207.759 33.7116 207.277 34.5717C207.263 34.5975 207.25 34.622 207.235 34.6478C207.152 34.7918 207.064 34.9304 206.971 35.065C205.376 37.3994 202.45 38.3723 199.816 37.5516C199.174 40.3983 196.632 42.5249 193.591 42.5249C190.55 42.5249 188.009 40.3983 187.366 37.5516C184.782 38.356 181.916 37.4361 180.303 35.1954C180.191 35.0432 180.087 34.8842 179.989 34.7185C179.974 34.6954 179.96 34.6709 179.947 34.6478C179.467 33.8176 179.197 32.9234 179.117 32.0266C179.084 31.6529 179.084 31.2779 179.117 30.907C179.134 30.7113 179.16 30.517 179.195 30.324C179.314 29.6704 179.534 29.0359 179.849 28.4475C180.109 27.9597 180.435 27.5031 180.821 27.0914C180.922 26.9813 181.031 26.874 181.143 26.7707C180.81 26.4636 180.515 26.1253 180.259 25.7638C179.993 25.3847 179.77 24.9811 179.592 24.5572C179.462 24.2474 179.356 23.928 179.277 23.6019C179.163 23.1372 179.1 22.6589 179.093 22.1765C179.088 21.8898 179.103 21.6004 179.138 21.3109C179.148 21.2308 179.159 21.152 179.172 21.0718C179.292 20.3258 179.547 19.588 179.947 18.8936C180.451 18.0199 181.13 17.3106 181.916 16.7861C183.496 15.7262 185.503 15.4109 187.365 15.9898H187.366C187.448 15.6283 187.56 15.2778 187.7 14.9421C188.662 12.6376 190.937 11.0165 193.591 11.0165C196.245 11.0165 198.57 12.6729 199.513 15.0182C199.639 15.3308 199.741 15.6555 199.816 15.9898C201.937 15.3294 204.247 15.8308 205.899 17.2712C206.418 17.7209 206.872 18.2645 207.235 18.8936C207.634 19.5852 207.89 20.3217 208.011 21.0677C208.038 21.2362 208.058 21.4061 208.069 21.5759C208.089 21.8341 208.095 22.0936 208.084 22.3518C208.062 22.8777 207.975 23.3981 207.826 23.9009C207.735 24.208 207.621 24.5083 207.483 24.7977C207.327 25.1333 207.14 25.4567 206.925 25.7624C206.668 26.1253 206.373 26.4636 206.04 26.7707C206.311 27.0207 206.557 27.2911 206.777 27.5792C207.062 27.9515 207.303 28.351 207.497 28.7722C207.672 29.1527 207.812 29.5495 207.91 29.9571C207.975 30.2248 208.023 30.4966 208.053 30.7711C208.092 31.1312 208.102 31.4967 208.079 31.8608Z" fill="url(#paint20_radial_2012_20789)"/>
<g style="mix-blend-mode:hard-light" opacity="0.2">
<path d="M206.04 25.2583C208.185 23.2785 208.755 20.0146 207.235 17.3812C205.714 14.7478 202.601 13.6105 199.816 14.4774C199.174 11.6307 196.632 9.50414 193.591 9.50414C190.55 9.50414 188.009 11.6307 187.366 14.4774C184.58 13.6105 181.467 14.7478 179.947 17.3812C178.426 20.0146 178.997 23.2799 181.141 25.2583C178.997 27.2381 178.426 30.502 179.947 33.1354C181.467 35.7688 184.58 36.9062 187.366 36.0392C188.007 38.886 190.55 41.0125 193.591 41.0125C196.632 41.0125 199.173 38.886 199.816 36.0392C202.601 36.9062 205.714 35.7688 207.235 33.1354C208.755 30.502 208.185 27.2368 206.04 25.2583Z" fill="white"/>
</g>
<path d="M208.074 29.8973C208.009 30.8322 207.735 31.7657 207.235 32.6313C205.714 35.2647 202.601 36.402 199.817 35.5351C199.174 38.3818 196.632 40.5084 193.592 40.5084C190.552 40.5084 188.01 38.3818 187.367 35.5351C184.582 36.402 181.469 35.2647 179.95 32.6313C179.523 31.8921 179.261 31.1053 179.153 30.3091C178.872 28.2681 179.602 26.1782 181.145 24.7542C179 22.7757 178.429 19.5105 179.951 16.8771C181.471 14.2437 184.585 13.1064 187.369 13.9733C188.009 11.1266 190.551 9 193.591 9C196.63 9 199.173 11.1266 199.816 13.9733C202.601 13.1064 205.714 14.2437 207.233 16.8771C208.755 19.5105 208.183 22.7757 206.039 24.7542C207.479 26.0831 208.209 27.9909 208.073 29.8973H208.074Z" fill="url(#paint21_radial_2012_20789)"/>
<g style="mix-blend-mode:overlay" opacity="0.8" filter="url(#filter2_f_2012_20789)">
<path d="M181.125 20.0024C182.514 17.5973 185.358 16.5564 187.903 17.3486C188.49 14.7465 190.813 12.8047 193.591 12.8047C196.368 12.8047 198.692 14.7478 199.279 17.3486C201.824 16.5564 204.668 17.5959 206.057 20.0024C206.394 20.584 206.616 21.2009 206.736 21.8259C206.987 20.5024 206.784 19.0865 206.057 17.8283C204.668 15.4232 201.824 14.3823 199.279 15.1745C198.692 12.5724 196.368 10.6306 193.591 10.6306C190.813 10.6306 188.49 12.5737 187.903 15.1745C185.358 14.3823 182.514 15.4218 181.125 17.8283C180.398 19.0865 180.196 20.5024 180.446 21.8259C180.565 21.2009 180.788 20.5853 181.125 20.0024Z" fill="url(#paint22_linear_2012_20789)"/>
</g>
<g style="mix-blend-mode:soft-light" filter="url(#filter3_f_2012_20789)">
<path d="M199.939 30.3688C199.298 32.7604 196.757 34.5459 193.717 34.5459C190.677 34.5459 188.136 32.759 187.495 30.3688C184.873 31.0551 181.962 30.2466 180.361 28.3048C180.391 29.2315 180.643 30.1637 181.139 31.0238C182.526 33.4276 185.367 34.4657 187.91 33.6749C188.495 36.2729 190.816 38.2133 193.591 38.2133C196.366 38.2133 198.686 36.2729 199.272 33.6749C201.814 34.4671 204.656 33.4276 206.043 31.0238C206.485 30.2574 206.733 29.434 206.803 28.6078C205.16 30.3294 202.42 31.0184 199.939 30.3702V30.3688Z" fill="url(#paint23_radial_2012_20789)"/>
</g>
<path style="mix-blend-mode:overlay" opacity="0.6" d="M208.087 29.2315C208.095 29.453 208.091 29.6745 208.074 29.8973C208.02 29.9177 207.964 29.9381 207.91 29.9571C207.682 30.0414 207.453 30.1229 207.225 30.2017C206.801 30.3498 206.379 30.4925 205.955 30.627C203.889 31.2874 201.823 31.7915 199.756 32.1394C195.333 32.884 190.906 32.9085 186.476 32.1856C184.568 31.8744 182.659 31.4247 180.749 30.8336C180.374 30.7194 179.998 30.5971 179.623 30.4708C179.481 30.4232 179.338 30.3743 179.195 30.324C179.18 30.3186 179.167 30.3145 179.152 30.3091C179.095 29.8946 179.08 29.4775 179.106 29.0644C179.125 28.7383 179.17 28.4149 179.238 28.0969C179.417 27.2639 179.762 26.469 180.259 25.7638C180.513 25.401 180.81 25.0613 181.143 24.7542C180.909 24.5395 180.694 24.3085 180.5 24.0653C180.287 23.8017 180.098 23.5231 179.932 23.231C179.7 22.8233 179.513 22.3926 179.377 21.9469C179.307 21.7213 179.25 21.493 179.205 21.2607C179.193 21.1982 179.182 21.1343 179.172 21.0718C178.998 19.9902 179.102 18.8583 179.513 17.7902C179.632 17.4791 179.777 17.1747 179.948 16.8771C180.073 16.661 180.208 16.4559 180.354 16.2602C181.976 14.0711 184.809 13.177 187.366 13.9733C188.009 11.1266 190.551 9 193.591 9C196.63 9 199.173 11.1266 199.816 13.9733C202.552 13.1213 205.605 14.2043 207.152 16.7399C207.18 16.7847 207.208 16.8309 207.235 16.8771C207.477 17.2956 207.665 17.7304 207.804 18.1748C208.1 19.1259 208.163 20.1165 208.011 21.0677C207.989 21.2049 207.963 21.3422 207.932 21.4781C207.884 21.6914 207.824 21.902 207.754 22.1099C207.591 22.5937 207.369 23.057 207.093 23.4918C206.918 23.769 206.721 24.0327 206.502 24.2813C206.357 24.4457 206.203 24.6034 206.04 24.7542C206.373 25.0613 206.668 25.401 206.925 25.7624C207.477 26.5465 207.842 27.4433 208 28.3768C208.047 28.6595 208.077 28.9448 208.087 29.2315Z" fill="url(#paint24_radial_2012_20789)"/>
<g style="mix-blend-mode:soft-light" opacity="0.6">
<path d="M197.196 14.1826C197.2 15.1378 195.477 14.5263 193.538 14.5345C191.599 14.5426 190.179 15.1691 190.175 14.2138C190.171 13.2586 191.739 12.4772 193.678 12.4691C195.617 12.4609 197.192 13.2273 197.196 14.1826Z" fill="white"/>
</g>
<path d="M206.824 30.5985C206.463 31.5565 205.73 32.1679 205.475 32.0714C205.218 31.975 205.767 31.532 206.129 30.574C206.49 29.6161 206.528 28.5045 206.784 28.601C207.039 28.6975 207.186 29.6405 206.826 30.5985H206.824Z" fill="url(#paint25_radial_2012_20789)"/>
<path d="M190.016 13.8108C190.945 13.1737 191.466 12.3201 191.181 11.9042C190.896 11.4883 189.912 11.6676 188.983 12.3046C188.054 12.9417 187.532 13.7952 187.817 14.2112C188.102 14.6271 189.087 14.4478 190.016 13.8108Z" fill="url(#paint26_radial_2012_20789)"/>
<path d="M187.177 15.7533C187.542 15.3624 187.631 14.8523 187.376 14.6141C187.121 14.3758 186.619 14.4996 186.253 14.8905C185.888 15.2815 185.798 15.7915 186.053 16.0298C186.308 16.2681 186.811 16.1443 187.177 15.7533Z" fill="url(#paint27_radial_2012_20789)"/>
<path d="M185.512 17.0611C185.708 16.8511 185.756 16.577 185.619 16.4489C185.482 16.3208 185.211 16.3872 185.015 16.5972C184.819 16.8072 184.771 17.0813 184.908 17.2094C185.045 17.3375 185.315 17.2711 185.512 17.0611Z" fill="url(#paint28_radial_2012_20789)"/>
<path d="M198.818 14.2406C199.115 14.0569 199.127 13.5391 198.845 13.0843C198.563 12.6294 198.095 12.4097 197.798 12.5935C197.501 12.7773 197.489 13.295 197.771 13.7498C198.053 14.2047 198.522 14.4244 198.818 14.2406Z" fill="url(#paint29_radial_2012_20789)"/>
<path d="M199.511 15.448C199.67 15.3492 199.677 15.071 199.525 14.8267C199.374 14.5823 199.122 14.4644 198.963 14.5632C198.803 14.662 198.796 14.9401 198.948 15.1845C199.099 15.4288 199.351 15.5468 199.511 15.448Z" fill="url(#paint30_radial_2012_20789)"/>
<path d="M207.197 22.1913C207.445 21.7169 207.395 21.2015 207.085 21.0401C206.776 20.8788 206.324 21.1326 206.077 21.607C205.829 22.0815 205.88 22.5969 206.189 22.7582C206.499 22.9196 206.95 22.6658 207.197 22.1913Z" fill="url(#paint31_radial_2012_20789)"/>
<path d="M206.046 23.6637C206.179 23.4089 206.151 23.132 205.985 23.0452C205.819 22.9585 205.576 23.0947 205.443 23.3496C205.31 23.6045 205.337 23.8814 205.504 23.9681C205.67 24.0549 205.913 23.9186 206.046 23.6637Z" fill="url(#paint32_radial_2012_20789)"/>
<defs>
<filter id="filter0_f_2012_20789" x="0.343384" y="2.63059" width="42.4954" height="27.1953" filterUnits="userSpaceOnUse" color-interpolation-filters="sRGB">
<feFlood flood-opacity="0" result="BackgroundImageFix"/>
<feBlend mode="normal" in="SourceGraphic" in2="BackgroundImageFix" result="shape"/>
<feGaussianBlur stdDeviation="4" result="effect1_foregroundBlur_2012_20789"/>
</filter>
<filter id="filter1_f_2012_20789" x="0.361267" y="20.3048" width="42.4413" height="25.9085" filterUnits="userSpaceOnUse" color-interpolation-filters="sRGB">
<feFlood flood-opacity="0" result="BackgroundImageFix"/>
<feBlend mode="normal" in="SourceGraphic" in2="BackgroundImageFix" result="shape"/>
<feGaussianBlur stdDeviation="4" result="effect1_foregroundBlur_2012_20789"/>
</filter>
<filter id="filter2_f_2012_20789" x="172.343" y="2.63059" width="42.4954" height="27.1953" filterUnits="userSpaceOnUse" color-interpolation-filters="sRGB">
<feFlood flood-opacity="0" result="BackgroundImageFix"/>
<feBlend mode="normal" in="SourceGraphic" in2="BackgroundImageFix" result="shape"/>
<feGaussianBlur stdDeviation="4" result="effect1_foregroundBlur_2012_20789"/>
</filter>
<filter id="filter3_f_2012_20789" x="172.361" y="20.3048" width="42.4413" height="25.9085" filterUnits="userSpaceOnUse" color-interpolation-filters="sRGB">
<feFlood flood-opacity="0" result="BackgroundImageFix"/>
<feBlend mode="normal" in="SourceGraphic" in2="BackgroundImageFix" result="shape"/>
<feGaussianBlur stdDeviation="4" result="effect1_foregroundBlur_2012_20789"/>
</filter>
<radialGradient id="paint0_radial_2012_20789" cx="0" cy="0" r="1" gradientUnits="userSpaceOnUse" gradientTransform="translate(105.938 29.9159) scale(98.3808 42.1632)">
<stop/>
<stop offset="0.84" stop-opacity="0.2"/>
</radialGradient>
<radialGradient id="paint1_radial_2012_20789" cx="0" cy="0" r="1" gradientUnits="userSpaceOnUse" gradientTransform="translate(105.938 27.7937) scale(98.3808 42.1632)">
<stop stop-color="#F79D06"/>
<stop offset="0.98" stop-color="#D36101"/>
</radialGradient>
<radialGradient id="paint2_radial_2012_20789" cx="0" cy="0" r="1" gradientUnits="userSpaceOnUse" gradientTransform="translate(106.503 6.13156) rotate(-92.49) scale(43.9175 229.169)">
<stop stop-color="#F79D06"/>
<stop offset="0.98" stop-color="#D36101"/>
</radialGradient>
<linearGradient id="paint3_linear_2012_20789" x1="108.411" y1="50.0075" x2="108.411" y2="38.1125" gradientUnits="userSpaceOnUse">
<stop/>
<stop offset="1" stop-opacity="0"/>
</linearGradient>
<radialGradient id="paint4_radial_2012_20789" cx="0" cy="0" r="1" gradientUnits="userSpaceOnUse" gradientTransform="translate(106.77 10.5191) scale(101.795 43.6266)">
<stop stop-color="white"/>
<stop offset="1" stop-color="white" stop-opacity="0"/>
</radialGradient>
<radialGradient id="paint5_radial_2012_20789" cx="0" cy="0" r="1" gradientUnits="userSpaceOnUse" gradientTransform="translate(21.5908 28.0317) scale(15.14)">
<stop/>
<stop offset="0.84" stop-opacity="0.2"/>
</radialGradient>
<radialGradient id="paint6_radial_2012_20789" cx="0" cy="0" r="1" gradientUnits="userSpaceOnUse" gradientTransform="translate(21.5922 26.7707) scale(15.14 15.14)">
<stop offset="0.31" stop-color="#FF75BC"/>
<stop offset="0.67" stop-color="#FE4EAE"/>
<stop offset="0.99" stop-color="#FE28A2"/>
</radialGradient>
<radialGradient id="paint7_radial_2012_20789" cx="0" cy="0" r="1" gradientUnits="userSpaceOnUse" gradientTransform="translate(21.6295 21.5229) rotate(-90) scale(16.2841 16.7727)">
<stop offset="0.31" stop-color="#FF75BC"/>
<stop offset="0.67" stop-color="#FE4EAE"/>
<stop offset="0.99" stop-color="#FE28A2"/>
</radialGradient>
<linearGradient id="paint8_linear_2012_20789" x1="21.5908" y1="21.8259" x2="21.5908" y2="10.6306" gradientUnits="userSpaceOnUse">
<stop stop-color="white" stop-opacity="0"/>
<stop offset="1" stop-color="white"/>
</linearGradient>
<radialGradient id="paint9_radial_2012_20789" cx="0" cy="0" r="1" gradientUnits="userSpaceOnUse" gradientTransform="translate(22.33 24.6971) scale(15.761)">
<stop stop-color="white"/>
<stop offset="0.63" stop-color="#5D5D5D"/>
<stop offset="1"/>
</radialGradient>
<radialGradient id="paint10_radial_2012_20789" cx="0" cy="0" r="1" gradientUnits="userSpaceOnUse" gradientTransform="translate(21.2905 17.8718) scale(16.4377 16.4377)">
<stop stop-color="white"/>
<stop offset="1" stop-color="white" stop-opacity="0"/>
</radialGradient>
<radialGradient id="paint11_radial_2012_20789" cx="0" cy="0" r="1" gradientUnits="userSpaceOnUse" gradientTransform="translate(34.4472 30.509) rotate(-70.6) scale(1.8458 0.722269)">
<stop stop-color="white"/>
<stop offset="1" stop-color="white" stop-opacity="0"/>
</radialGradient>
<radialGradient id="paint12_radial_2012_20789" cx="0" cy="0" r="1" gradientUnits="userSpaceOnUse" gradientTransform="translate(15.2647 13.412) rotate(-32.93) scale(1.49862 1.13011)">
<stop offset="0.51" stop-color="white"/>
<stop offset="1" stop-color="white" stop-opacity="0"/>
</radialGradient>
<radialGradient id="paint13_radial_2012_20789" cx="0" cy="0" r="1" gradientUnits="userSpaceOnUse" gradientTransform="translate(2.21649 27.1897) rotate(-44.74) scale(0.473876 1.19981)">
<stop offset="0.51" stop-color="white"/>
<stop offset="1" stop-color="white" stop-opacity="0"/>
</radialGradient>
<radialGradient id="paint14_radial_2012_20789" cx="0" cy="0" r="1" gradientUnits="userSpaceOnUse" gradientTransform="translate(0.656851 28.8365) rotate(-44.74) scale(0.25482 0.645183)">
<stop offset="0.51" stop-color="white"/>
<stop offset="1" stop-color="white" stop-opacity="0"/>
</radialGradient>
<radialGradient id="paint15_radial_2012_20789" cx="0" cy="0" r="1" gradientUnits="userSpaceOnUse" gradientTransform="translate(10.9141 -14.8129) rotate(-119.58) scale(0.473876 1.19981)">
<stop offset="0.51" stop-color="white"/>
<stop offset="1" stop-color="white" stop-opacity="0"/>
</radialGradient>
<radialGradient id="paint16_radial_2012_20789" cx="0" cy="0" r="1" gradientUnits="userSpaceOnUse" gradientTransform="translate(11.9417 -13.0995) rotate(-119.58) scale(0.25482 0.645183)">
<stop offset="0.51" stop-color="white"/>
<stop offset="1" stop-color="white" stop-opacity="0"/>
</radialGradient>
<radialGradient id="paint17_radial_2012_20789" cx="0" cy="0" r="1" gradientUnits="userSpaceOnUse" gradientTransform="translate(52.0231 -7.38079) rotate(-60.26) scale(0.473876 1.19981)">
<stop offset="0.51" stop-color="white"/>
<stop offset="1" stop-color="white" stop-opacity="0"/>
</radialGradient>
<radialGradient id="paint18_radial_2012_20789" cx="0" cy="0" r="1" gradientUnits="userSpaceOnUse" gradientTransform="translate(51.0736 -5.62433) rotate(-60.26) scale(0.25482 0.645183)">
<stop offset="0.51" stop-color="white"/>
<stop offset="1" stop-color="white" stop-opacity="0"/>
</radialGradient>
<radialGradient id="paint19_radial_2012_20789" cx="0" cy="0" r="1" gradientUnits="userSpaceOnUse" gradientTransform="translate(193.591 28.0317) scale(15.14)">
<stop/>
<stop offset="0.84" stop-opacity="0.2"/>
</radialGradient>
<radialGradient id="paint20_radial_2012_20789" cx="0" cy="0" r="1" gradientUnits="userSpaceOnUse" gradientTransform="translate(193.592 26.7707) scale(15.14 15.14)">
<stop offset="0.31" stop-color="#FF75BC"/>
<stop offset="0.67" stop-color="#FE4EAE"/>
<stop offset="0.99" stop-color="#FE28A2"/>
</radialGradient>
<radialGradient id="paint21_radial_2012_20789" cx="0" cy="0" r="1" gradientUnits="userSpaceOnUse" gradientTransform="translate(193.629 21.5229) rotate(-90) scale(16.2841 16.7727)">
<stop offset="0.31" stop-color="#FF75BC"/>
<stop offset="0.67" stop-color="#FE4EAE"/>
<stop offset="0.99" stop-color="#FE28A2"/>
</radialGradient>
<linearGradient id="paint22_linear_2012_20789" x1="193.591" y1="21.8259" x2="193.591" y2="10.6306" gradientUnits="userSpaceOnUse">
<stop stop-color="white" stop-opacity="0"/>
<stop offset="1" stop-color="white"/>
</linearGradient>
<radialGradient id="paint23_radial_2012_20789" cx="0" cy="0" r="1" gradientUnits="userSpaceOnUse" gradientTransform="translate(194.33 24.6971) scale(15.761)">
<stop stop-color="white"/>
<stop offset="0.63" stop-color="#5D5D5D"/>
<stop offset="1"/>
</radialGradient>
<radialGradient id="paint24_radial_2012_20789" cx="0" cy="0" r="1" gradientUnits="userSpaceOnUse" gradientTransform="translate(193.29 17.8718) scale(16.4377 16.4377)">
<stop stop-color="white"/>
<stop offset="1" stop-color="white" stop-opacity="0"/>
</radialGradient>
<radialGradient id="paint25_radial_2012_20789" cx="0" cy="0" r="1" gradientUnits="userSpaceOnUse" gradientTransform="translate(206.447 30.509) rotate(-70.6) scale(1.8458 0.722269)">
<stop stop-color="white"/>
<stop offset="1" stop-color="white" stop-opacity="0"/>
</radialGradient>
<radialGradient id="paint26_radial_2012_20789" cx="0" cy="0" r="1" gradientUnits="userSpaceOnUse" gradientTransform="translate(187.265 13.412) rotate(-32.93) scale(1.49862 1.13011)">
<stop offset="0.51" stop-color="white"/>
<stop offset="1" stop-color="white" stop-opacity="0"/>
</radialGradient>
<radialGradient id="paint27_radial_2012_20789" cx="0" cy="0" r="1" gradientUnits="userSpaceOnUse" gradientTransform="translate(174.216 27.1897) rotate(-44.74) scale(0.473876 1.19981)">
<stop offset="0.51" stop-color="white"/>
<stop offset="1" stop-color="white" stop-opacity="0"/>
</radialGradient>
<radialGradient id="paint28_radial_2012_20789" cx="0" cy="0" r="1" gradientUnits="userSpaceOnUse" gradientTransform="translate(172.657 28.8365) rotate(-44.74) scale(0.25482 0.645183)">
<stop offset="0.51" stop-color="white"/>
<stop offset="1" stop-color="white" stop-opacity="0"/>
</radialGradient>
<radialGradient id="paint29_radial_2012_20789" cx="0" cy="0" r="1" gradientUnits="userSpaceOnUse" gradientTransform="translate(182.914 -14.8129) rotate(-119.58) scale(0.473876 1.19981)">
<stop offset="0.51" stop-color="white"/>
<stop offset="1" stop-color="white" stop-opacity="0"/>
</radialGradient>
<radialGradient id="paint30_radial_2012_20789" cx="0" cy="0" r="1" gradientUnits="userSpaceOnUse" gradientTransform="translate(183.942 -13.0995) rotate(-119.58) scale(0.25482 0.645183)">
<stop offset="0.51" stop-color="white"/>
<stop offset="1" stop-color="white" stop-opacity="0"/>
</radialGradient>
<radialGradient id="paint31_radial_2012_20789" cx="0" cy="0" r="1" gradientUnits="userSpaceOnUse" gradientTransform="translate(224.023 -7.38079) rotate(-60.26) scale(0.473876 1.19981)">
<stop offset="0.51" stop-color="white"/>
<stop offset="1" stop-color="white" stop-opacity="0"/>
</radialGradient>
<radialGradient id="paint32_radial_2012_20789" cx="0" cy="0" r="1" gradientUnits="userSpaceOnUse" gradientTransform="translate(223.074 -5.62433) rotate(-60.26) scale(0.25482 0.645183)">
<stop offset="0.51" stop-color="white"/>
<stop offset="1" stop-color="white" stop-opacity="0"/>
</radialGradient>
</defs>
</svg>
