<svg width="215" height="55" viewBox="0 0 215 55" fill="none" xmlns="http://www.w3.org/2000/svg">
<path d="M214.213 30.7025C214.213 31.9025 214.163 33.1025 214.103 34.3125C213.983 36.6825 213.763 39.0525 213.443 41.4225C213.263 42.7525 213.063 44.0825 212.823 45.4125C212.403 47.7425 209.923 49.8125 206.173 51.3025C202.673 52.9025 197.833 53.9625 192.363 54.1425C168.093 54.9325 46.3228 54.9325 22.0428 54.1425C16.5728 53.9625 11.7328 52.9025 8.23283 51.3025C4.48283 49.8125 2.00284 47.7425 1.58284 45.4125C1.42284 44.5325 1.28284 43.6525 1.15284 42.7725C0.762835 40.1825 0.492834 37.5825 0.342834 34.9925C0.252834 33.5225 0.202834 32.0425 0.192834 30.5725C0.172834 29.5225 0.192835 28.4725 0.222835 27.4225V27.3825C0.272835 25.8725 0.352835 24.3525 0.472835 22.8425C0.572835 21.6325 0.692834 20.4225 0.842834 19.2225C1.04283 17.5925 1.29284 15.9625 1.58284 14.3325C1.80284 13.1025 2.59283 11.9525 3.84283 10.9125C4.96283 9.9825 6.45284 9.1425 8.22284 8.4425C11.7228 6.8425 16.5628 5.7825 22.0328 5.6025C46.3128 4.8125 168.083 4.8125 192.353 5.6025C197.823 5.7825 202.663 6.8425 206.163 8.4425C208.423 9.3425 210.223 10.4425 211.383 11.7025C212.153 12.5225 212.653 13.4125 212.813 14.3425C213.123 16.0625 213.383 17.7725 213.583 19.4925C213.743 20.7825 213.873 22.0725 213.963 23.3625C214.063 24.6725 214.133 25.9725 214.173 27.2825C214.213 28.4325 214.223 29.5725 214.213 30.7125V30.7025Z" fill="url(#paint0_radial_2012_21380)"/>
<path d="M214.113 32.0825C214.053 33.3325 213.963 34.5925 213.843 35.8425C213.643 37.9825 213.363 40.1225 213.003 42.2625C212.943 42.6025 212.883 42.9425 212.823 43.2825C212.403 45.6125 209.923 47.6825 206.173 49.1725C202.673 50.7725 197.833 51.8325 192.363 52.0125C168.093 52.8025 46.3228 52.8025 22.0428 52.0125C16.5728 51.8325 11.7328 50.7725 8.23284 49.1725C4.67284 47.7525 2.26284 45.8225 1.66284 43.6325C1.62284 43.5125 1.60284 43.4025 1.58284 43.2825C1.18284 41.0525 0.872839 38.8225 0.642839 36.5925C0.492839 35.1225 0.372839 33.6425 0.302839 32.1725C0.192839 30.2525 0.162841 28.3325 0.192841 26.4025V26.3725C0.20284 25.9025 0.21284 25.4225 0.23284 24.9525C0.27284 23.6125 0.352841 22.2825 0.452841 20.9425C0.642841 18.4925 0.94284 16.0325 1.34284 13.5825C1.42284 13.1225 1.49284 12.6525 1.58284 12.1925C2.00284 9.8625 4.48284 7.79249 8.23284 6.30249C11.7328 4.70249 16.5728 3.6425 22.0428 3.4625C46.3228 2.6725 168.093 2.6725 192.363 3.4625C197.833 3.6425 202.673 4.70249 206.173 6.30249C209.923 7.79249 212.403 9.8625 212.823 12.1925C212.933 12.8025 213.033 13.4125 213.133 14.0225C213.503 16.3425 213.773 18.6625 213.963 20.9825C214.073 22.4225 214.153 23.8625 214.193 25.3025C214.193 25.5325 214.213 25.7625 214.213 26.0025V26.0825C214.253 28.0825 214.213 30.0825 214.113 32.0725V32.0825Z" fill="url(#paint1_radial_2012_21380)"/>
<g style="mix-blend-mode:hard-light" opacity="0.2">
<path d="M212.823 10.2725C212.403 7.9025 209.923 5.7925 206.173 4.2725C202.673 2.6425 197.833 1.5625 192.363 1.3825C168.093 0.572502 46.3128 0.572502 22.0428 1.3825C16.5728 1.5625 11.7328 2.6425 8.23284 4.2725C4.49284 5.7925 2.00284 7.8925 1.58284 10.2725C-0.267157 20.8125 -0.267157 31.3625 1.58284 41.9025C2.00284 44.2725 4.48284 46.3825 8.23284 47.9025C11.7328 49.5325 16.5728 50.6125 22.0428 50.7925C46.3128 51.6025 168.093 51.6025 192.363 50.7925C197.833 50.6125 202.673 49.5325 206.173 47.9025C209.913 46.3825 212.403 44.2825 212.823 41.9025C214.673 31.3625 214.673 20.8125 212.823 10.2725Z" fill="white"/>
</g>
<path d="M213.693 34.7625C213.473 36.7825 213.183 38.7925 212.833 40.8125C212.413 43.1725 209.933 45.2525 206.183 46.7625C202.683 48.3725 197.843 49.4425 192.373 49.6225C168.103 50.4225 46.3228 50.4225 22.0528 49.6225C16.5828 49.4425 11.7428 48.3725 8.24285 46.7625C4.49285 45.2525 2.01284 43.1725 1.59284 40.8125C1.26284 38.9525 0.992844 37.0825 0.782844 35.2125C-0.197156 26.6225 0.072845 18.0225 1.59284 9.43251C2.01284 7.08251 4.49285 4.99251 8.24285 3.48251C11.7428 1.87251 16.5828 0.802507 22.0528 0.622507C46.3228 -0.177493 168.103 -0.177493 192.373 0.622507C197.843 0.802507 202.683 1.87251 206.183 3.48251C209.933 4.99251 212.413 7.07251 212.833 9.43251C214.323 17.8725 214.623 26.3225 213.693 34.7625Z" fill="url(#paint2_radial_2012_21380)"/>
<g style="mix-blend-mode:soft-light" opacity="0.75">
<path d="M213.693 34.7625C213.473 36.7825 213.183 38.7925 212.833 40.8125C212.413 43.1725 209.933 45.2525 206.183 46.7625C202.683 48.3725 197.843 49.4425 192.373 49.6225C168.103 50.4225 46.3228 50.4225 22.0528 49.6225C16.5828 49.4425 11.7428 48.3725 8.24285 46.7625C4.49285 45.2525 2.01284 43.1725 1.59284 40.8125C1.26284 38.9525 0.992844 37.0825 0.782844 35.2125C-0.197156 26.6225 0.072845 18.0225 1.59284 9.43246C2.01284 7.08246 4.49285 4.99246 8.24285 3.48246C11.7428 1.87246 16.5828 0.802461 22.0528 0.622461C46.3228 -0.177539 168.103 -0.177539 192.373 0.622461C197.843 0.802461 202.683 1.87246 206.183 3.48246C209.933 4.99246 212.413 7.07246 212.833 9.43246C214.323 17.8725 214.623 26.3225 213.693 34.7625Z" fill="url(#paint3_linear_2012_21380)"/>
</g>
<path style="mix-blend-mode:overlay" opacity="0.6" d="M214.213 25.3225C214.213 25.5525 214.213 25.7825 214.213 26.0125V26.0925C214.213 26.4825 214.193 26.8725 214.183 27.2725C214.153 28.3925 214.103 29.5025 214.023 30.6125C213.993 31.0725 213.953 31.5225 213.923 31.9825C213.863 32.6925 213.793 33.4125 213.713 34.1325C213.703 34.2325 213.693 34.3325 213.683 34.4325C212.863 34.5525 212.053 34.6825 211.243 34.7925C206.953 35.4225 202.663 35.9725 198.373 36.4625C196.863 36.6325 195.343 36.7925 193.833 36.9525C168.073 39.5725 44.7728 39.6725 18.9528 37.1125C17.5828 36.9825 16.2128 36.8325 14.8328 36.6825C10.9628 36.2625 7.09283 35.7725 3.22283 35.2225C2.40283 35.1125 1.59283 34.9925 0.782829 34.8725C0.782829 34.8325 0.782833 34.7825 0.762833 34.7425C0.662833 33.8425 0.57283 32.9525 0.502831 32.0525C0.45283 31.5225 0.422832 30.9925 0.382832 30.4725C0.312832 29.4525 0.26283 28.4425 0.23283 27.4225V27.3825C0.23283 27.0625 0.212831 26.7325 0.202831 26.4125V26.3825C0.202831 25.9125 0.182831 25.4525 0.182831 24.9825C0.182831 24.3025 0.182831 23.6225 0.212831 22.9425C0.232831 22.3125 0.252829 21.6825 0.282829 21.0525C0.302829 20.5125 0.332829 19.9825 0.372829 19.4425C0.492829 17.5425 0.672832 15.6425 0.922832 13.7425C1.01283 13.0625 1.10283 12.3925 1.20283 11.7125C1.32283 10.9225 1.45283 10.1225 1.59283 9.3225C2.01283 6.9925 4.49283 4.9225 8.24283 3.4325C11.7428 1.8325 16.5828 0.7725 22.0528 0.5925C46.3328 -0.1975 168.103 -0.1975 192.373 0.5925C197.843 0.7725 202.693 1.8325 206.183 3.4325C209.933 4.9225 212.413 6.9925 212.833 9.3225C213.013 10.3025 213.173 11.2825 213.313 12.2525C213.403 12.8925 213.493 13.5225 213.563 14.1625C213.793 15.9925 213.963 17.8225 214.073 19.6525C214.103 20.1225 214.123 20.5825 214.143 21.0525C214.183 21.8425 214.203 22.6225 214.223 23.4125C214.223 24.0425 214.223 24.6725 214.223 25.3025L214.213 25.3225Z" fill="url(#paint4_radial_2012_21380)"/>
<g style="mix-blend-mode:soft-light" opacity="0.6">
<path d="M179.753 8.0325C179.783 11.0825 162.893 9.1525 102.403 9.1525C52.7928 9.1525 34.0128 11.1725 33.9828 8.1225C33.9528 5.0725 52.0728 2.5625 103.363 2.5625C162.183 2.5625 179.723 4.9825 179.753 8.0325Z" fill="white"/>
</g>
<path d="M57.3867 32.1925V22.4525H54.4267C53.6467 22.4525 53.0067 21.8125 53.0067 21.0325C53.0067 20.2525 53.6467 19.6125 54.4267 19.6125H63.4267C64.2067 19.6125 64.8467 20.2525 64.8467 21.0325C64.8467 21.8125 64.2067 22.4525 63.4267 22.4525H60.4667V32.1925C60.4667 33.0525 59.7867 33.7325 58.9267 33.7325C58.0667 33.7325 57.3867 33.0525 57.3867 32.1925ZM67.0954 32.1925V21.1525C67.0954 20.2925 67.7754 19.6125 68.6354 19.6125H73.4954C75.2754 19.6125 76.6554 20.1125 77.5754 21.0325C78.3554 21.8125 78.7754 22.9125 78.7754 24.2325V24.2725C78.7754 26.4725 77.6754 27.8325 75.9754 28.5325L78.1154 31.1325C78.4154 31.5125 78.6154 31.8325 78.6154 32.3125C78.6154 33.1725 77.8954 33.7325 77.1554 33.7325C76.4554 33.7325 75.9954 33.3925 75.6354 32.9325L72.6354 29.1325H70.1754V32.1925C70.1754 33.0525 69.4954 33.7325 68.6354 33.7325C67.7754 33.7325 67.0954 33.0525 67.0954 32.1925ZM70.1754 26.4125H73.2954C74.7954 26.4125 75.6554 25.6125 75.6554 24.4325V24.3925C75.6554 23.0725 74.7354 22.3925 73.2354 22.3925H70.1754V26.4125ZM84.9156 32.1925V28.2125L80.3956 22.0725C80.1756 21.7725 80.0156 21.4125 80.0156 20.9725C80.0156 20.1525 80.6956 19.4925 81.5556 19.4925C82.2556 19.4925 82.6956 19.8725 83.0756 20.4325L86.4756 25.3325L89.9356 20.3925C90.3156 19.8325 90.7756 19.4725 91.4156 19.4725C92.3556 19.4725 92.9156 20.1325 92.9156 20.9725C92.9156 21.3925 92.7156 21.7725 92.5156 22.0525L87.9956 28.1525V32.1925C87.9956 33.0525 87.3156 33.7325 86.4556 33.7325C85.5956 33.7325 84.9156 33.0525 84.9156 32.1925ZM107.761 33.8525C103.401 33.8525 100.401 30.7925 100.401 26.6525V26.6125C100.401 22.6325 103.501 19.3725 107.741 19.3725C109.861 19.3725 111.261 19.8525 112.521 20.7325C112.821 20.9525 113.161 21.3725 113.161 21.9725C113.161 22.8125 112.481 23.4925 111.641 23.4925C111.201 23.4925 110.921 23.3325 110.701 23.1725C109.861 22.5725 108.961 22.2125 107.641 22.2125C105.401 22.2125 103.621 24.1925 103.621 26.5725V26.6125C103.621 29.1725 105.381 31.0525 107.861 31.0525C108.981 31.0525 109.981 30.7725 110.761 30.2125V28.2125H108.681C107.941 28.2125 107.341 27.6325 107.341 26.8925C107.341 26.1525 107.941 25.5525 108.681 25.5525H112.201C113.061 25.5525 113.741 26.2325 113.741 27.0925V30.4925C113.741 31.3925 113.401 32.0125 112.661 32.4525C111.521 33.1525 109.861 33.8525 107.761 33.8525ZM115.745 32.2925C115.745 32.0725 115.825 31.8525 115.925 31.6325L120.805 20.6125C121.145 19.8525 121.765 19.3925 122.605 19.3925H122.785C123.625 19.3925 124.225 19.8525 124.565 20.6125L129.445 31.6325C129.545 31.8525 129.605 32.0525 129.605 32.2525C129.605 33.0725 128.965 33.7325 128.145 33.7325C127.425 33.7325 126.945 33.3125 126.665 32.6725L125.725 30.4725H119.565L118.585 32.7725C118.325 33.3725 117.805 33.7325 117.165 33.7325C116.365 33.7325 115.745 33.0925 115.745 32.2925ZM120.705 27.7525H124.585L122.645 23.1325L120.705 27.7525ZM132.017 32.2325V21.0725C132.017 20.2125 132.697 19.5325 133.557 19.5325H133.897C134.557 19.5325 135.017 19.8725 135.297 20.3325L139.017 26.3925L142.757 20.3125C143.077 19.7925 143.517 19.5325 144.137 19.5325H144.477C145.337 19.5325 146.017 20.2125 146.017 21.0725V32.1925C146.017 33.0525 145.337 33.7325 144.477 33.7325C143.637 33.7325 142.957 33.0325 142.957 32.1925V25.2125L140.257 29.3725C139.937 29.8525 139.537 30.1525 138.977 30.1525C138.417 30.1525 138.017 29.8525 137.697 29.3725L135.037 25.2725V32.2325C135.037 33.0725 134.357 33.7325 133.517 33.7325C132.677 33.7325 132.017 33.0725 132.017 32.2325ZM150.921 33.6125C150.061 33.6125 149.381 32.9325 149.381 32.0725V21.1525C149.381 20.2925 150.061 19.6125 150.921 19.6125H158.681C159.441 19.6125 160.061 20.2325 160.061 20.9925C160.061 21.7525 159.441 22.3525 158.681 22.3525H152.441V25.1925H157.781C158.541 25.1925 159.161 25.8125 159.161 26.5725C159.161 27.3325 158.541 27.9325 157.781 27.9325H152.441V30.8725H158.781C159.541 30.8725 160.161 31.4925 160.161 32.2525C160.161 33.0125 159.541 33.6125 158.781 33.6125H150.921Z" fill="white"/>
<path d="M34.1313 28.0317C36.2755 26.0519 36.8462 22.788 35.3257 20.1546C33.8051 17.5212 30.6921 16.3839 27.9065 17.2508C27.2651 14.404 24.7228 12.2775 21.6817 12.2775C18.6407 12.2775 16.0997 14.404 15.457 17.2508C12.6714 16.3839 9.55831 17.5212 8.03778 20.1546C6.51726 22.788 7.08797 26.0532 9.23219 28.0317C7.08797 30.0115 6.51726 33.2754 8.03778 35.9088C9.55831 38.5422 12.6714 39.6795 15.457 38.8126C16.0983 41.6593 18.6407 43.7859 21.6817 43.7859C24.7228 43.7859 27.2638 41.6593 27.9065 38.8126C30.6921 39.6795 33.8051 38.5422 35.3257 35.9088C36.8462 33.2754 36.2755 30.0101 34.1313 28.0317Z" fill="url(#paint5_radial_2012_21380)"/>
<path d="M36.1695 31.8608C36.1111 32.7862 35.8502 33.7116 35.3678 34.5717C35.3542 34.5975 35.3406 34.622 35.3257 34.6478C35.2428 34.7918 35.1544 34.9304 35.062 35.065C33.4668 37.3994 30.5412 38.3723 27.9065 37.5516C27.2651 40.3983 24.7228 42.5249 21.6817 42.5249C18.6407 42.5249 16.0997 40.3983 15.4569 37.5516C12.8725 38.356 10.0067 37.4361 8.39379 35.1954C8.28236 35.0432 8.17773 34.8842 8.0799 34.7185C8.06495 34.6954 8.05136 34.6709 8.03777 34.6478C7.55811 33.8176 7.2877 32.9234 7.20753 32.0266C7.17492 31.6529 7.17492 31.2779 7.20753 30.907C7.2252 30.7113 7.25102 30.517 7.28635 30.324C7.40456 29.6704 7.62469 29.0359 7.93994 28.4475C8.19947 27.9597 8.52559 27.5031 8.9115 27.0914C9.01341 26.9813 9.12212 26.874 9.23354 26.7707C8.90063 26.4636 8.60576 26.1253 8.3503 25.7638C8.08397 25.3847 7.86113 24.9811 7.68312 24.5572C7.55267 24.2474 7.44669 23.928 7.36787 23.6019C7.25373 23.1372 7.19123 22.6589 7.18443 22.1765C7.179 21.8898 7.19395 21.6004 7.22927 21.3109C7.23879 21.2308 7.24966 21.152 7.26325 21.0718C7.38282 20.3258 7.63828 19.588 8.03777 18.8936C8.5419 18.0199 9.22131 17.3106 10.0067 16.7861C11.587 15.7262 13.594 15.4109 15.4556 15.9898H15.4569C15.5385 15.6283 15.6513 15.2778 15.7912 14.9421C16.7533 12.6376 19.0279 11.0165 21.6817 11.0165C24.3355 11.0165 26.6604 12.6729 27.6035 15.0182C27.7298 15.3308 27.8318 15.6555 27.9065 15.9898C30.0276 15.3294 32.3376 15.8308 33.9899 17.2712C34.509 17.7209 34.9629 18.2645 35.3257 18.8936C35.7252 19.5852 35.9806 20.3217 36.1015 21.0677C36.1287 21.2362 36.1491 21.4061 36.16 21.5759C36.1804 21.8341 36.1858 22.0936 36.1749 22.3518C36.1532 22.8777 36.0662 23.3981 35.9167 23.9009C35.8257 24.208 35.7116 24.5083 35.5743 24.7977C35.4181 25.1333 35.2305 25.4567 35.0158 25.7624C34.759 26.1253 34.4642 26.4636 34.1313 26.7707C34.4017 27.0207 34.6476 27.2911 34.8677 27.5792C35.1531 27.9515 35.3936 28.351 35.5879 28.7722C35.7632 29.1527 35.9032 29.5495 36.001 29.9571C36.0662 30.2248 36.1138 30.4966 36.1437 30.7711C36.1831 31.1312 36.1926 31.4967 36.1695 31.8608Z" fill="url(#paint6_radial_2012_21380)"/>
<g style="mix-blend-mode:hard-light" opacity="0.2">
<path d="M34.1313 25.2583C36.2755 23.2785 36.8462 20.0146 35.3257 17.3812C33.8051 14.7478 30.6921 13.6105 27.9065 14.4774C27.2651 11.6307 24.7228 9.50414 21.6817 9.50414C18.6407 9.50414 16.0997 11.6307 15.457 14.4774C12.6714 13.6105 9.55831 14.7478 8.03778 17.3812C6.51726 20.0146 7.08797 23.2799 9.23219 25.2583C7.08797 27.2381 6.51726 30.502 8.03778 33.1354C9.55831 35.7688 12.6714 36.9062 15.457 36.0392C16.0983 38.886 18.6407 41.0125 21.6817 41.0125C24.7228 41.0125 27.2638 38.886 27.9065 36.0392C30.6921 36.9062 33.8051 35.7688 35.3257 33.1354C36.8462 30.502 36.2755 27.2368 34.1313 25.2583Z" fill="white"/>
</g>
<path d="M36.1654 29.8973C36.1002 30.8322 35.8257 31.7657 35.3257 32.6313C33.8051 35.2647 30.6921 36.402 27.9079 35.5351C27.2651 38.3818 24.7228 40.5084 21.6831 40.5084C18.6434 40.5084 16.101 38.3818 15.4583 35.5351C12.6727 36.402 9.55967 35.2647 8.0405 32.6313C7.61383 31.8921 7.35158 31.1053 7.24423 30.3091C6.96296 28.2681 7.69264 26.1782 9.23627 24.7542C7.09069 22.7757 6.51998 19.5105 8.04186 16.8771C9.56239 14.2437 12.6754 13.1064 15.4597 13.9733C16.0997 11.1266 18.642 9 21.6817 9C24.7214 9 27.2638 11.1266 27.9065 13.9733C30.6921 13.1064 33.8051 14.2437 35.3243 16.8771C36.8462 19.5105 36.2741 22.7757 34.1299 24.7542C35.5703 26.0831 36.2999 27.9909 36.1641 29.8973H36.1654Z" fill="url(#paint7_radial_2012_21380)"/>
<g style="mix-blend-mode:overlay" opacity="0.8" filter="url(#filter0_f_2012_21380)">
<path d="M9.21588 20.0024C10.6046 17.5973 13.4486 16.5564 15.9937 17.3486C16.5807 14.7465 18.9043 12.8047 21.6817 12.8047C24.4592 12.8047 26.7827 14.7478 27.3698 17.3486C29.9148 16.5564 32.7588 17.5959 34.1476 20.0024C34.4845 20.584 34.7074 21.2009 34.827 21.8259C35.0784 20.5024 34.8745 19.0865 34.1476 17.8283C32.7588 15.4232 29.9148 14.3823 27.3698 15.1745C26.7827 12.5724 24.4592 10.6306 21.6817 10.6306C18.9043 10.6306 16.5807 12.5737 15.9937 15.1745C13.4486 14.3823 10.6046 15.4218 9.21588 17.8283C8.48891 19.0865 8.28645 20.5024 8.53647 21.8259C8.65605 21.2009 8.87889 20.5853 9.21588 20.0024Z" fill="url(#paint8_linear_2012_21380)"/>
</g>
<g style="mix-blend-mode:soft-light" filter="url(#filter1_f_2012_21380)">
<path d="M28.0302 30.3688C27.3888 32.7604 24.8478 34.5459 21.8081 34.5459C18.7684 34.5459 16.2274 32.759 15.5861 30.3688C12.9635 31.0551 10.0529 30.2466 8.45224 28.3048C8.48213 29.2315 8.73352 30.1637 9.22949 31.0238C10.6168 33.4276 13.4581 34.4657 16.0005 33.6749C16.5862 36.2729 18.907 38.2133 21.6817 38.2133C24.4565 38.2133 26.7773 36.2729 27.363 33.6749C29.9053 34.4671 32.7466 33.4276 34.134 31.0238C34.5756 30.2574 34.8243 29.434 34.8936 28.6078C33.2508 30.3294 30.5114 31.0184 28.0302 30.3702V30.3688Z" fill="url(#paint9_radial_2012_21380)"/>
</g>
<path style="mix-blend-mode:overlay" opacity="0.6" d="M36.1776 29.2315C36.1858 29.453 36.1817 29.6745 36.1654 29.8973C36.1111 29.9177 36.0554 29.9381 36.001 29.9571C35.7727 30.0414 35.5444 30.1229 35.3162 30.2017C34.8922 30.3498 34.4696 30.4925 34.0457 30.627C31.9802 31.2874 29.9135 31.7915 27.8467 32.1394C23.4237 32.884 18.9967 32.9085 14.5669 32.1856C12.6591 31.8744 10.75 31.4247 8.83949 30.8336C8.46445 30.7194 8.08942 30.5971 7.71438 30.4708C7.5717 30.4232 7.42903 30.3743 7.28635 30.324C7.2714 30.3186 7.25782 30.3145 7.24287 30.3091C7.1858 29.8946 7.17085 29.4775 7.19667 29.0644C7.21569 28.7383 7.26053 28.4149 7.32847 28.0969C7.50784 27.2639 7.85298 26.469 8.35031 25.7638C8.60441 25.401 8.90063 25.0613 9.23354 24.7542C8.99983 24.5395 8.78513 24.3085 8.59082 24.0653C8.37749 23.8017 8.18861 23.5231 8.02283 23.231C7.79047 22.8233 7.60432 22.3926 7.46843 21.9469C7.39777 21.7213 7.3407 21.493 7.29586 21.2607C7.28363 21.1982 7.27276 21.1343 7.26325 21.0718C7.08932 19.9902 7.19259 18.8583 7.60432 17.7902C7.72253 17.4791 7.86793 17.1747 8.03914 16.8771C8.16415 16.661 8.29867 16.4559 8.44543 16.2602C10.0665 14.0711 12.8996 13.177 15.457 13.9733C16.0997 11.1266 18.642 9 21.6817 9C24.7214 9 27.2638 11.1266 27.9065 13.9733C30.6432 13.1213 33.6964 14.2043 35.2428 16.7399C35.2713 16.7847 35.2985 16.8309 35.3257 16.8771C35.5675 17.2956 35.7564 17.7304 35.895 18.1748C36.1912 19.1259 36.2537 20.1165 36.1016 21.0677C36.0798 21.2049 36.054 21.3422 36.0227 21.4781C35.9752 21.6914 35.9154 21.902 35.8447 22.1099C35.6817 22.5937 35.4602 23.057 35.1843 23.4918C35.0091 23.769 34.812 24.0327 34.5933 24.2813C34.4479 24.4457 34.2943 24.6034 34.1313 24.7542C34.4642 25.0613 34.759 25.401 35.0159 25.7624C35.5675 26.5465 35.9331 27.4433 36.0907 28.3768C36.1382 28.6595 36.1681 28.9448 36.1776 29.2315Z" fill="url(#paint10_radial_2012_21380)"/>
<g style="mix-blend-mode:soft-light" opacity="0.6">
<path d="M25.2867 14.1826C25.2908 15.1378 23.5678 14.5263 21.6288 14.5345C19.6897 14.5426 18.2697 15.1691 18.2657 14.2138C18.2616 13.2586 19.8297 12.4772 21.7687 12.4691C23.7077 12.4609 25.2826 13.2273 25.2867 14.1826Z" fill="white"/>
</g>
<path d="M34.9153 30.5985C34.5538 31.5565 33.8214 32.1679 33.566 32.0714C33.3092 31.975 33.8581 31.532 34.2196 30.574C34.581 29.6161 34.6191 28.5045 34.8745 28.601C35.13 28.6975 35.2767 29.6405 34.9166 30.5985H34.9153Z" fill="url(#paint11_radial_2012_21380)"/>
<path d="M18.1065 13.8108C19.0355 13.1737 19.5574 12.3201 19.2722 11.9042C18.987 11.4883 18.0027 11.6676 17.0737 12.3046C16.1447 12.9417 15.6228 13.7952 15.908 14.2112C16.1933 14.6271 17.1776 14.4478 18.1065 13.8108Z" fill="url(#paint12_radial_2012_21380)"/>
<path d="M15.2674 15.7533C15.6328 15.3624 15.7222 14.8523 15.4673 14.6141C15.2123 14.3758 14.7095 14.4996 14.3441 14.8905C13.9788 15.2815 13.8893 15.7915 14.1443 16.0298C14.3993 16.2681 14.9021 16.1443 15.2674 15.7533Z" fill="url(#paint13_radial_2012_21380)"/>
<path d="M13.6025 17.0611C13.7988 16.8511 13.8467 16.577 13.7097 16.4489C13.5726 16.3208 13.3024 16.3872 13.1061 16.5972C12.9099 16.8072 12.8619 17.0813 12.999 17.2094C13.1361 17.3375 13.4063 17.2711 13.6025 17.0611Z" fill="url(#paint14_radial_2012_21380)"/>
<path d="M26.9094 14.2406C27.206 14.0569 27.218 13.5391 26.9362 13.0843C26.6544 12.6294 26.1855 12.4097 25.8889 12.5935C25.5922 12.7773 25.5802 13.295 25.862 13.7498C26.1438 14.2047 26.6127 14.4244 26.9094 14.2406Z" fill="url(#paint15_radial_2012_21380)"/>
<path d="M27.6017 15.448C27.7611 15.3492 27.7677 15.071 27.6164 14.8267C27.465 14.5823 27.213 14.4644 27.0535 14.5632C26.894 14.662 26.8874 14.9401 27.0388 15.1845C27.1902 15.4288 27.4422 15.5468 27.6017 15.448Z" fill="url(#paint16_radial_2012_21380)"/>
<path d="M35.2884 22.1913C35.5358 21.7169 35.4855 21.2015 35.1761 21.0401C34.8666 20.8788 34.4152 21.1326 34.1678 21.607C33.9204 22.0815 33.9707 22.5969 34.2801 22.7582C34.5896 22.9196 35.041 22.6658 35.2884 22.1913Z" fill="url(#paint17_radial_2012_21380)"/>
<path d="M34.1366 23.6637C34.2695 23.4089 34.2424 23.132 34.0761 23.0452C33.9097 22.9585 33.6671 23.0947 33.5342 23.3496C33.4013 23.6045 33.4284 23.8814 33.5948 23.9681C33.7611 24.0549 34.0037 23.9186 34.1366 23.6637Z" fill="url(#paint18_radial_2012_21380)"/>
<path d="M206.131 28.0317C208.275 26.0519 208.846 22.788 207.326 20.1546C205.805 17.5212 202.692 16.3839 199.906 17.2508C199.265 14.404 196.723 12.2775 193.682 12.2775C190.641 12.2775 188.1 14.404 187.457 17.2508C184.671 16.3839 181.558 17.5212 180.038 20.1546C178.517 22.788 179.088 26.0532 181.232 28.0317C179.088 30.0115 178.517 33.2754 180.038 35.9088C181.558 38.5422 184.671 39.6795 187.457 38.8126C188.098 41.6593 190.641 43.7859 193.682 43.7859C196.723 43.7859 199.264 41.6593 199.906 38.8126C202.692 39.6795 205.805 38.5422 207.326 35.9088C208.846 33.2754 208.275 30.0101 206.131 28.0317Z" fill="url(#paint19_radial_2012_21380)"/>
<path d="M208.169 31.8608C208.111 32.7862 207.85 33.7116 207.368 34.5717C207.354 34.5975 207.341 34.622 207.326 34.6478C207.243 34.7918 207.154 34.9304 207.062 35.065C205.467 37.3994 202.541 38.3723 199.906 37.5516C199.265 40.3983 196.723 42.5249 193.682 42.5249C190.641 42.5249 188.1 40.3983 187.457 37.5516C184.872 38.356 182.007 37.4361 180.394 35.1954C180.282 35.0432 180.178 34.8842 180.08 34.7185C180.065 34.6954 180.051 34.6709 180.038 34.6478C179.558 33.8176 179.288 32.9234 179.208 32.0266C179.175 31.6529 179.175 31.2779 179.208 30.907C179.225 30.7113 179.251 30.517 179.286 30.324C179.405 29.6704 179.625 29.0359 179.94 28.4475C180.199 27.9597 180.526 27.5031 180.911 27.0914C181.013 26.9813 181.122 26.874 181.234 26.7707C180.901 26.4636 180.606 26.1253 180.35 25.7638C180.084 25.3847 179.861 24.9811 179.683 24.5572C179.553 24.2474 179.447 23.928 179.368 23.6019C179.254 23.1372 179.191 22.6589 179.184 22.1765C179.179 21.8898 179.194 21.6004 179.229 21.3109C179.239 21.2308 179.25 21.152 179.263 21.0718C179.383 20.3258 179.638 19.588 180.038 18.8936C180.542 18.0199 181.221 17.3106 182.007 16.7861C183.587 15.7262 185.594 15.4109 187.456 15.9898H187.457C187.538 15.6283 187.651 15.2778 187.791 14.9421C188.753 12.6376 191.028 11.0165 193.682 11.0165C196.335 11.0165 198.66 12.6729 199.603 15.0182C199.73 15.3308 199.832 15.6555 199.906 15.9898C202.028 15.3294 204.338 15.8308 205.99 17.2712C206.509 17.7209 206.963 18.2645 207.326 18.8936C207.725 19.5852 207.981 20.3217 208.102 21.0677C208.129 21.2362 208.149 21.4061 208.16 21.5759C208.18 21.8341 208.186 22.0936 208.175 22.3518C208.153 22.8777 208.066 23.3981 207.917 23.9009C207.826 24.208 207.712 24.5083 207.574 24.7977C207.418 25.1333 207.231 25.4567 207.016 25.7624C206.759 26.1253 206.464 26.4636 206.131 26.7707C206.402 27.0207 206.648 27.2911 206.868 27.5792C207.153 27.9515 207.394 28.351 207.588 28.7722C207.763 29.1527 207.903 29.5495 208.001 29.9571C208.066 30.2248 208.114 30.4966 208.144 30.7711C208.183 31.1312 208.193 31.4967 208.169 31.8608Z" fill="url(#paint20_radial_2012_21380)"/>
<g style="mix-blend-mode:hard-light" opacity="0.2">
<path d="M206.131 25.2583C208.275 23.2785 208.846 20.0146 207.326 17.3812C205.805 14.7478 202.692 13.6105 199.906 14.4774C199.265 11.6307 196.723 9.50414 193.682 9.50414C190.641 9.50414 188.1 11.6307 187.457 14.4774C184.671 13.6105 181.558 14.7478 180.038 17.3812C178.517 20.0146 179.088 23.2799 181.232 25.2583C179.088 27.2381 178.517 30.502 180.038 33.1354C181.558 35.7688 184.671 36.9062 187.457 36.0392C188.098 38.886 190.641 41.0125 193.682 41.0125C196.723 41.0125 199.264 38.886 199.906 36.0392C202.692 36.9062 205.805 35.7688 207.326 33.1354C208.846 30.502 208.275 27.2368 206.131 25.2583Z" fill="white"/>
</g>
<path d="M208.165 29.8973C208.1 30.8322 207.826 31.7657 207.326 32.6313C205.805 35.2647 202.692 36.402 199.908 35.5351C199.265 38.3818 196.723 40.5084 193.683 40.5084C190.643 40.5084 188.101 38.3818 187.458 35.5351C184.673 36.402 181.56 35.2647 180.04 32.6313C179.614 31.8921 179.352 31.1053 179.244 30.3091C178.963 28.2681 179.693 26.1782 181.236 24.7542C179.091 22.7757 178.52 19.5105 180.042 16.8771C181.562 14.2437 184.675 13.1064 187.46 13.9733C188.1 11.1266 190.642 9 193.682 9C196.721 9 199.264 11.1266 199.906 13.9733C202.692 13.1064 205.805 14.2437 207.324 16.8771C208.846 19.5105 208.274 22.7757 206.13 24.7542C207.57 26.0831 208.3 27.9909 208.164 29.8973H208.165Z" fill="url(#paint21_radial_2012_21380)"/>
<g style="mix-blend-mode:overlay" opacity="0.8" filter="url(#filter2_f_2012_21380)">
<path d="M181.216 20.0024C182.605 17.5973 185.449 16.5564 187.994 17.3486C188.581 14.7465 190.904 12.8047 193.682 12.8047C196.459 12.8047 198.783 14.7478 199.37 17.3486C201.915 16.5564 204.759 17.5959 206.148 20.0024C206.485 20.584 206.707 21.2009 206.827 21.8259C207.078 20.5024 206.875 19.0865 206.148 17.8283C204.759 15.4232 201.915 14.3823 199.37 15.1745C198.783 12.5724 196.459 10.6306 193.682 10.6306C190.904 10.6306 188.581 12.5737 187.994 15.1745C185.449 14.3823 182.605 15.4218 181.216 17.8283C180.489 19.0865 180.286 20.5024 180.536 21.8259C180.656 21.2009 180.879 20.5853 181.216 20.0024Z" fill="url(#paint22_linear_2012_21380)"/>
</g>
<g style="mix-blend-mode:soft-light" filter="url(#filter3_f_2012_21380)">
<path d="M200.03 30.3688C199.389 32.7604 196.848 34.5459 193.808 34.5459C190.768 34.5459 188.227 32.759 187.586 30.3688C184.964 31.0551 182.053 30.2466 180.452 28.3048C180.482 29.2315 180.734 30.1637 181.229 31.0238C182.617 33.4276 185.458 34.4657 188 33.6749C188.586 36.2729 190.907 38.2133 193.682 38.2133C196.456 38.2133 198.777 36.2729 199.363 33.6749C201.905 34.4671 204.747 33.4276 206.134 31.0238C206.576 30.2574 206.824 29.434 206.894 28.6078C205.251 30.3294 202.511 31.0184 200.03 30.3702V30.3688Z" fill="url(#paint23_radial_2012_21380)"/>
</g>
<path style="mix-blend-mode:overlay" opacity="0.6" d="M208.178 29.2315C208.186 29.453 208.182 29.6745 208.165 29.8973C208.111 29.9177 208.055 29.9381 208.001 29.9571C207.773 30.0414 207.544 30.1229 207.316 30.2017C206.892 30.3498 206.47 30.4925 206.046 30.627C203.98 31.2874 201.913 31.7915 199.847 32.1394C195.424 32.884 190.997 32.9085 186.567 32.1856C184.659 31.8744 182.75 31.4247 180.839 30.8336C180.464 30.7194 180.089 30.5971 179.714 30.4708C179.572 30.4232 179.429 30.3743 179.286 30.324C179.271 30.3186 179.258 30.3145 179.243 30.3091C179.186 29.8946 179.171 29.4775 179.197 29.0644C179.216 28.7383 179.261 28.4149 179.328 28.0969C179.508 27.2639 179.853 26.469 180.35 25.7638C180.604 25.401 180.901 25.0613 181.234 24.7542C181 24.5395 180.785 24.3085 180.591 24.0653C180.377 23.8017 180.189 23.5231 180.023 23.231C179.79 22.8233 179.604 22.3926 179.468 21.9469C179.398 21.7213 179.341 21.493 179.296 21.2607C179.284 21.1982 179.273 21.1343 179.263 21.0718C179.089 19.9902 179.193 18.8583 179.604 17.7902C179.723 17.4791 179.868 17.1747 180.039 16.8771C180.164 16.661 180.299 16.4559 180.445 16.2602C182.067 14.0711 184.9 13.177 187.457 13.9733C188.1 11.1266 190.642 9 193.682 9C196.721 9 199.264 11.1266 199.906 13.9733C202.643 13.1213 205.696 14.2043 207.243 16.7399C207.271 16.7847 207.298 16.8309 207.326 16.8771C207.568 17.2956 207.756 17.7304 207.895 18.1748C208.191 19.1259 208.254 20.1165 208.102 21.0677C208.08 21.2049 208.054 21.3422 208.023 21.4781C207.975 21.6914 207.915 21.902 207.845 22.1099C207.682 22.5937 207.46 23.057 207.184 23.4918C207.009 23.769 206.812 24.0327 206.593 24.2813C206.448 24.4457 206.294 24.6034 206.131 24.7542C206.464 25.0613 206.759 25.401 207.016 25.7624C207.568 26.5465 207.933 27.4433 208.091 28.3768C208.138 28.6595 208.168 28.9448 208.178 29.2315Z" fill="url(#paint24_radial_2012_21380)"/>
<g style="mix-blend-mode:soft-light" opacity="0.6">
<path d="M197.287 14.1826C197.291 15.1378 195.568 14.5263 193.629 14.5345C191.69 14.5426 190.27 15.1691 190.266 14.2138C190.262 13.2586 191.83 12.4772 193.769 12.4691C195.708 12.4609 197.283 13.2273 197.287 14.1826Z" fill="white"/>
</g>
<path d="M206.915 30.5985C206.554 31.5565 205.821 32.1679 205.566 32.0714C205.309 31.975 205.858 31.532 206.22 30.574C206.581 29.6161 206.619 28.5045 206.875 28.601C207.13 28.6975 207.277 29.6405 206.917 30.5985H206.915Z" fill="url(#paint25_radial_2012_21380)"/>
<path d="M190.107 13.8108C191.036 13.1737 191.557 12.3201 191.272 11.9042C190.987 11.4883 190.003 11.6676 189.074 12.3046C188.145 12.9417 187.623 13.7952 187.908 14.2112C188.193 14.6271 189.178 14.4478 190.107 13.8108Z" fill="url(#paint26_radial_2012_21380)"/>
<path d="M187.267 15.7533C187.633 15.3624 187.722 14.8523 187.467 14.6141C187.212 14.3758 186.709 14.4996 186.344 14.8905C185.979 15.2815 185.889 15.7915 186.144 16.0298C186.399 16.2681 186.902 16.1443 187.267 15.7533Z" fill="url(#paint27_radial_2012_21380)"/>
<path d="M185.603 17.0611C185.799 16.8511 185.847 16.577 185.71 16.4489C185.573 16.3208 185.302 16.3872 185.106 16.5972C184.91 16.8072 184.862 17.0813 184.999 17.2094C185.136 17.3375 185.406 17.2711 185.603 17.0611Z" fill="url(#paint28_radial_2012_21380)"/>
<path d="M198.909 14.2406C199.206 14.0569 199.218 13.5391 198.936 13.0843C198.654 12.6294 198.186 12.4097 197.889 12.5935C197.592 12.7773 197.58 13.295 197.862 13.7498C198.144 14.2047 198.613 14.4244 198.909 14.2406Z" fill="url(#paint29_radial_2012_21380)"/>
<path d="M199.602 15.448C199.761 15.3492 199.768 15.071 199.616 14.8267C199.465 14.5823 199.213 14.4644 199.053 14.5632C198.894 14.662 198.887 14.9401 199.039 15.1845C199.19 15.4288 199.442 15.5468 199.602 15.448Z" fill="url(#paint30_radial_2012_21380)"/>
<path d="M207.288 22.1913C207.536 21.7169 207.485 21.2015 207.176 21.0401C206.867 20.8788 206.415 21.1326 206.168 21.607C205.92 22.0815 205.971 22.5969 206.28 22.7582C206.59 22.9196 207.041 22.6658 207.288 22.1913Z" fill="url(#paint31_radial_2012_21380)"/>
<path d="M206.137 23.6637C206.27 23.4089 206.242 23.132 206.076 23.0452C205.91 22.9585 205.667 23.0947 205.534 23.3496C205.401 23.6045 205.428 23.8814 205.595 23.9681C205.761 24.0549 206.004 23.9186 206.137 23.6637Z" fill="url(#paint32_radial_2012_21380)"/>
<defs>
<filter id="filter0_f_2012_21380" x="0.434326" y="2.63059" width="42.4954" height="27.1953" filterUnits="userSpaceOnUse" color-interpolation-filters="sRGB">
<feFlood flood-opacity="0" result="BackgroundImageFix"/>
<feBlend mode="normal" in="SourceGraphic" in2="BackgroundImageFix" result="shape"/>
<feGaussianBlur stdDeviation="4" result="effect1_foregroundBlur_2012_21380"/>
</filter>
<filter id="filter1_f_2012_21380" x="0.45224" y="20.3048" width="42.4413" height="25.9085" filterUnits="userSpaceOnUse" color-interpolation-filters="sRGB">
<feFlood flood-opacity="0" result="BackgroundImageFix"/>
<feBlend mode="normal" in="SourceGraphic" in2="BackgroundImageFix" result="shape"/>
<feGaussianBlur stdDeviation="4" result="effect1_foregroundBlur_2012_21380"/>
</filter>
<filter id="filter2_f_2012_21380" x="172.434" y="2.63059" width="42.4954" height="27.1953" filterUnits="userSpaceOnUse" color-interpolation-filters="sRGB">
<feFlood flood-opacity="0" result="BackgroundImageFix"/>
<feBlend mode="normal" in="SourceGraphic" in2="BackgroundImageFix" result="shape"/>
<feGaussianBlur stdDeviation="4" result="effect1_foregroundBlur_2012_21380"/>
</filter>
<filter id="filter3_f_2012_21380" x="172.452" y="20.3048" width="42.4413" height="25.9085" filterUnits="userSpaceOnUse" color-interpolation-filters="sRGB">
<feFlood flood-opacity="0" result="BackgroundImageFix"/>
<feBlend mode="normal" in="SourceGraphic" in2="BackgroundImageFix" result="shape"/>
<feGaussianBlur stdDeviation="4" result="effect1_foregroundBlur_2012_21380"/>
</filter>
<radialGradient id="paint0_radial_2012_21380" cx="0" cy="0" r="1" gradientUnits="userSpaceOnUse" gradientTransform="translate(106.029 29.9159) scale(98.3808 42.1632)">
<stop/>
<stop offset="0.84" stop-opacity="0.2"/>
</radialGradient>
<radialGradient id="paint1_radial_2012_21380" cx="0" cy="0" r="1" gradientUnits="userSpaceOnUse" gradientTransform="translate(106.029 27.7937) scale(98.3808 42.1632)">
<stop stop-color="#F76F06"/>
<stop offset="0.98" stop-color="#D33501"/>
</radialGradient>
<radialGradient id="paint2_radial_2012_21380" cx="0" cy="0" r="1" gradientUnits="userSpaceOnUse" gradientTransform="translate(106.039 25.1792) scale(98.3668 42.5574)">
<stop stop-color="#F76F06"/>
<stop offset="0.98" stop-color="#D33501"/>
</radialGradient>
<linearGradient id="paint3_linear_2012_21380" x1="108.502" y1="50.0075" x2="108.502" y2="38.1125" gradientUnits="userSpaceOnUse">
<stop/>
<stop offset="1" stop-opacity="0"/>
</linearGradient>
<radialGradient id="paint4_radial_2012_21380" cx="0" cy="0" r="1" gradientUnits="userSpaceOnUse" gradientTransform="translate(106.861 10.5191) scale(101.795 43.6266)">
<stop stop-color="white"/>
<stop offset="1" stop-color="white" stop-opacity="0"/>
</radialGradient>
<radialGradient id="paint5_radial_2012_21380" cx="0" cy="0" r="1" gradientUnits="userSpaceOnUse" gradientTransform="translate(21.6817 28.0317) scale(15.14)">
<stop/>
<stop offset="0.84" stop-opacity="0.2"/>
</radialGradient>
<radialGradient id="paint6_radial_2012_21380" cx="0" cy="0" r="1" gradientUnits="userSpaceOnUse" gradientTransform="translate(21.6831 26.7707) scale(15.14 15.14)">
<stop offset="0.31" stop-color="#FF75BC"/>
<stop offset="0.67" stop-color="#FE4EAE"/>
<stop offset="0.99" stop-color="#FE28A2"/>
</radialGradient>
<radialGradient id="paint7_radial_2012_21380" cx="0" cy="0" r="1" gradientUnits="userSpaceOnUse" gradientTransform="translate(21.7204 21.5229) rotate(-90) scale(16.2841 16.7727)">
<stop offset="0.31" stop-color="#FF75BC"/>
<stop offset="0.67" stop-color="#FE4EAE"/>
<stop offset="0.99" stop-color="#FE28A2"/>
</radialGradient>
<linearGradient id="paint8_linear_2012_21380" x1="21.6817" y1="21.8259" x2="21.6817" y2="10.6306" gradientUnits="userSpaceOnUse">
<stop stop-color="white" stop-opacity="0"/>
<stop offset="1" stop-color="white"/>
</linearGradient>
<radialGradient id="paint9_radial_2012_21380" cx="0" cy="0" r="1" gradientUnits="userSpaceOnUse" gradientTransform="translate(22.4209 24.6971) scale(15.761)">
<stop stop-color="white"/>
<stop offset="0.63" stop-color="#5D5D5D"/>
<stop offset="1"/>
</radialGradient>
<radialGradient id="paint10_radial_2012_21380" cx="0" cy="0" r="1" gradientUnits="userSpaceOnUse" gradientTransform="translate(21.3814 17.8718) scale(16.4377 16.4377)">
<stop stop-color="white"/>
<stop offset="1" stop-color="white" stop-opacity="0"/>
</radialGradient>
<radialGradient id="paint11_radial_2012_21380" cx="0" cy="0" r="1" gradientUnits="userSpaceOnUse" gradientTransform="translate(34.5381 30.509) rotate(-70.6) scale(1.8458 0.722269)">
<stop stop-color="white"/>
<stop offset="1" stop-color="white" stop-opacity="0"/>
</radialGradient>
<radialGradient id="paint12_radial_2012_21380" cx="0" cy="0" r="1" gradientUnits="userSpaceOnUse" gradientTransform="translate(15.3557 13.412) rotate(-32.93) scale(1.49862 1.13011)">
<stop offset="0.51" stop-color="white"/>
<stop offset="1" stop-color="white" stop-opacity="0"/>
</radialGradient>
<radialGradient id="paint13_radial_2012_21380" cx="0" cy="0" r="1" gradientUnits="userSpaceOnUse" gradientTransform="translate(2.3074 27.1897) rotate(-44.74) scale(0.473876 1.19981)">
<stop offset="0.51" stop-color="white"/>
<stop offset="1" stop-color="white" stop-opacity="0"/>
</radialGradient>
<radialGradient id="paint14_radial_2012_21380" cx="0" cy="0" r="1" gradientUnits="userSpaceOnUse" gradientTransform="translate(0.747793 28.8365) rotate(-44.74) scale(0.25482 0.645183)">
<stop offset="0.51" stop-color="white"/>
<stop offset="1" stop-color="white" stop-opacity="0"/>
</radialGradient>
<radialGradient id="paint15_radial_2012_21380" cx="0" cy="0" r="1" gradientUnits="userSpaceOnUse" gradientTransform="translate(11.005 -14.8129) rotate(-119.58) scale(0.473876 1.19981)">
<stop offset="0.51" stop-color="white"/>
<stop offset="1" stop-color="white" stop-opacity="0"/>
</radialGradient>
<radialGradient id="paint16_radial_2012_21380" cx="0" cy="0" r="1" gradientUnits="userSpaceOnUse" gradientTransform="translate(12.0326 -13.0995) rotate(-119.58) scale(0.25482 0.645183)">
<stop offset="0.51" stop-color="white"/>
<stop offset="1" stop-color="white" stop-opacity="0"/>
</radialGradient>
<radialGradient id="paint17_radial_2012_21380" cx="0" cy="0" r="1" gradientUnits="userSpaceOnUse" gradientTransform="translate(52.114 -7.38079) rotate(-60.26) scale(0.473876 1.19981)">
<stop offset="0.51" stop-color="white"/>
<stop offset="1" stop-color="white" stop-opacity="0"/>
</radialGradient>
<radialGradient id="paint18_radial_2012_21380" cx="0" cy="0" r="1" gradientUnits="userSpaceOnUse" gradientTransform="translate(51.1646 -5.62433) rotate(-60.26) scale(0.25482 0.645183)">
<stop offset="0.51" stop-color="white"/>
<stop offset="1" stop-color="white" stop-opacity="0"/>
</radialGradient>
<radialGradient id="paint19_radial_2012_21380" cx="0" cy="0" r="1" gradientUnits="userSpaceOnUse" gradientTransform="translate(193.682 28.0317) scale(15.14)">
<stop/>
<stop offset="0.84" stop-opacity="0.2"/>
</radialGradient>
<radialGradient id="paint20_radial_2012_21380" cx="0" cy="0" r="1" gradientUnits="userSpaceOnUse" gradientTransform="translate(193.683 26.7707) scale(15.14 15.14)">
<stop offset="0.31" stop-color="#FF75BC"/>
<stop offset="0.67" stop-color="#FE4EAE"/>
<stop offset="0.99" stop-color="#FE28A2"/>
</radialGradient>
<radialGradient id="paint21_radial_2012_21380" cx="0" cy="0" r="1" gradientUnits="userSpaceOnUse" gradientTransform="translate(193.72 21.5229) rotate(-90) scale(16.2841 16.7727)">
<stop offset="0.31" stop-color="#FF75BC"/>
<stop offset="0.67" stop-color="#FE4EAE"/>
<stop offset="0.99" stop-color="#FE28A2"/>
</radialGradient>
<linearGradient id="paint22_linear_2012_21380" x1="193.682" y1="21.8259" x2="193.682" y2="10.6306" gradientUnits="userSpaceOnUse">
<stop stop-color="white" stop-opacity="0"/>
<stop offset="1" stop-color="white"/>
</linearGradient>
<radialGradient id="paint23_radial_2012_21380" cx="0" cy="0" r="1" gradientUnits="userSpaceOnUse" gradientTransform="translate(194.421 24.6971) scale(15.761)">
<stop stop-color="white"/>
<stop offset="0.63" stop-color="#5D5D5D"/>
<stop offset="1"/>
</radialGradient>
<radialGradient id="paint24_radial_2012_21380" cx="0" cy="0" r="1" gradientUnits="userSpaceOnUse" gradientTransform="translate(193.381 17.8718) scale(16.4377 16.4377)">
<stop stop-color="white"/>
<stop offset="1" stop-color="white" stop-opacity="0"/>
</radialGradient>
<radialGradient id="paint25_radial_2012_21380" cx="0" cy="0" r="1" gradientUnits="userSpaceOnUse" gradientTransform="translate(206.538 30.509) rotate(-70.6) scale(1.8458 0.722269)">
<stop stop-color="white"/>
<stop offset="1" stop-color="white" stop-opacity="0"/>
</radialGradient>
<radialGradient id="paint26_radial_2012_21380" cx="0" cy="0" r="1" gradientUnits="userSpaceOnUse" gradientTransform="translate(187.356 13.412) rotate(-32.93) scale(1.49862 1.13011)">
<stop offset="0.51" stop-color="white"/>
<stop offset="1" stop-color="white" stop-opacity="0"/>
</radialGradient>
<radialGradient id="paint27_radial_2012_21380" cx="0" cy="0" r="1" gradientUnits="userSpaceOnUse" gradientTransform="translate(174.307 27.1897) rotate(-44.74) scale(0.473876 1.19981)">
<stop offset="0.51" stop-color="white"/>
<stop offset="1" stop-color="white" stop-opacity="0"/>
</radialGradient>
<radialGradient id="paint28_radial_2012_21380" cx="0" cy="0" r="1" gradientUnits="userSpaceOnUse" gradientTransform="translate(172.748 28.8365) rotate(-44.74) scale(0.25482 0.645183)">
<stop offset="0.51" stop-color="white"/>
<stop offset="1" stop-color="white" stop-opacity="0"/>
</radialGradient>
<radialGradient id="paint29_radial_2012_21380" cx="0" cy="0" r="1" gradientUnits="userSpaceOnUse" gradientTransform="translate(183.005 -14.8129) rotate(-119.58) scale(0.473876 1.19981)">
<stop offset="0.51" stop-color="white"/>
<stop offset="1" stop-color="white" stop-opacity="0"/>
</radialGradient>
<radialGradient id="paint30_radial_2012_21380" cx="0" cy="0" r="1" gradientUnits="userSpaceOnUse" gradientTransform="translate(184.033 -13.0995) rotate(-119.58) scale(0.25482 0.645183)">
<stop offset="0.51" stop-color="white"/>
<stop offset="1" stop-color="white" stop-opacity="0"/>
</radialGradient>
<radialGradient id="paint31_radial_2012_21380" cx="0" cy="0" r="1" gradientUnits="userSpaceOnUse" gradientTransform="translate(224.114 -7.38079) rotate(-60.26) scale(0.473876 1.19981)">
<stop offset="0.51" stop-color="white"/>
<stop offset="1" stop-color="white" stop-opacity="0"/>
</radialGradient>
<radialGradient id="paint32_radial_2012_21380" cx="0" cy="0" r="1" gradientUnits="userSpaceOnUse" gradientTransform="translate(223.165 -5.62433) rotate(-60.26) scale(0.25482 0.645183)">
<stop offset="0.51" stop-color="white"/>
<stop offset="1" stop-color="white" stop-opacity="0"/>
</radialGradient>
</defs>
</svg>
