<svg width="340" height="488" viewBox="0 0 340 488" fill="none" xmlns="http://www.w3.org/2000/svg">
<path d="M339.968 275.418C339.937 288.238 339.844 277.166 339.657 289.986C339.322 315.283 338.699 324.565 337.819 349.873C337.329 364.087 336.753 378.302 336.083 392.516C334.908 417.428 331.467 448.386 309.498 469.874C284.641 494.172 129.192 489.729 61.1833 481.279C45.8626 479.385 32.3013 472.476 22.5079 455.41C12.0139 439.489 5.05416 417.428 3.89421 392.516C3.45826 383.12 3.05344 373.713 2.68755 364.316C1.60545 336.615 0.850319 308.946 0.429934 281.276C0.188603 265.553 0.0484757 289.747 0.025121 274.034C-0.0138035 262.837 0.00955018 251.63 0.110754 240.454V240.017C0.235312 223.866 0.461074 234.252 0.811394 218.122C1.07608 205.229 1.41083 192.347 1.839 179.454C2.39951 162.045 3.08458 169.11 3.902 151.701C4.517 138.579 6.7357 126.258 10.2467 115.197C13.3762 105.249 17.5567 96.3307 22.5235 88.7968C32.3169 71.731 45.8781 60.4197 61.1988 58.505C129.208 50.0657 210.801 50.0657 278.794 58.505C294.115 60.4197 307.676 71.7414 317.47 88.7968C323.799 98.3807 328.836 110.202 332.09 123.542C334.254 132.325 335.64 141.794 336.099 151.691C336.955 170.005 337.687 163.866 338.248 182.18C338.684 195.937 339.049 209.714 339.314 223.471C339.594 237.415 339.773 224.813 339.89 238.747V238.861C339.991 251.047 340.015 263.222 339.991 275.407L339.968 275.418Z" fill="url(#paint0_radial_607_13926)"/>
<path d="M339.689 267.363C339.517 280.756 339.268 278.154 338.933 291.537C338.373 314.378 337.602 337.229 336.59 360.091V360.112C336.434 363.712 336.271 367.323 336.1 370.924C334.924 395.815 327.964 417.876 317.47 433.797C307.677 450.863 294.116 462.174 278.795 464.099C210.802 472.538 129.208 472.538 61.1995 464.099C45.8788 462.184 32.3175 450.863 22.5241 433.797C12.5672 418.666 5.78657 398.021 4.13618 374.66C4.03497 373.432 3.96491 372.173 3.91042 370.913C2.78939 347.115 1.91748 323.327 1.28691 299.549C0.866521 283.805 0.539556 284.065 0.344934 268.321V268.3C0.0491079 247.79 -0.0365268 277.738 0.049107 257.228V256.957C0.0802466 251.89 0.103602 246.853 0.150312 241.786C0.2593 227.529 0.469491 213.263 0.765317 199.007C1.29469 172.815 2.12767 171.098 3.2487 144.875C3.45889 139.942 3.66908 134.999 3.91042 130.067C5.07815 105.155 12.0301 83.0943 22.5241 67.1627C32.3175 50.1177 45.8788 38.7856 61.1995 36.8917C129.208 28.4524 210.802 28.4524 278.795 36.8917C294.116 38.7856 307.677 50.1281 317.47 67.1627C327.964 83.0839 334.924 105.145 336.1 130.067C336.411 136.571 336.691 143.095 336.956 149.599C337.991 174.355 338.754 174.615 339.268 199.371C339.58 214.751 339.79 230.12 339.899 245.5C339.914 247.987 339.938 250.454 339.953 252.941V253.804C340.054 275.137 339.969 246.01 339.689 267.343V267.363Z" fill="url(#paint1_radial_607_13926)"/>
<g style="mix-blend-mode:hard-light" opacity="0.2">
<path d="M336.091 118.152C334.924 93.1154 327.964 70.9403 317.47 54.9359C307.677 37.7868 294.115 26.413 278.795 24.4983C210.794 16.0071 129.192 16.0071 61.1912 24.4983C45.8705 26.413 32.3093 37.7868 22.5159 54.9359C12.0218 70.9403 5.06213 93.1154 3.89439 118.152C-1.29813 229.309 -1.29813 249.528 3.89439 360.684C5.06213 385.721 12.0218 407.896 22.5159 423.901C32.3093 441.05 45.8705 452.424 61.1912 454.338C129.192 462.83 210.794 462.83 278.795 454.338C294.115 452.424 307.677 441.05 317.47 423.901C327.964 407.896 334.924 385.721 336.091 360.684C341.284 249.528 341.284 229.309 336.091 118.152Z" fill="white"/>
</g>
<path d="M338.513 285.761C337.898 307.614 337.096 329.456 336.092 351.309C334.924 376.855 327.964 399.478 317.47 415.805C307.677 433.308 294.116 444.911 278.795 446.857C210.794 455.535 129.193 455.535 61.1917 446.857C45.8711 444.911 32.302 433.308 22.5164 415.805C12.0223 399.478 5.06263 376.855 3.8949 351.309C2.9685 331.09 2.21336 310.85 1.61393 290.631C-1.13414 197.446 -0.363437 195.229 3.8949 102.044C5.06263 76.5179 12.0223 53.8953 22.5164 37.5475C32.3098 20.0654 45.8711 8.46275 61.1917 6.49602C129.193 -2.16176 210.794 -2.16176 278.795 6.49602C294.116 8.46275 307.685 20.0654 317.47 37.5475C327.964 53.8953 334.924 76.5179 336.092 102.044C340.28 193.596 341.098 194.21 338.513 285.761Z" fill="url(#paint2_radial_607_13926)"/>
<g style="mix-blend-mode:overlay" opacity="0.4" filter="url(#filter0_f_607_13926)">
<path d="M30.1688 82.9278C39.425 68.8069 52.2545 59.4415 66.7422 57.8494C131.045 50.8566 208.941 50.8566 273.244 57.8494C287.732 59.4415 300.562 68.8069 309.818 82.9278C316.56 91.9082 321.752 103.219 324.741 116.029C324.5 110.774 324.274 105.519 324.002 100.264C322.928 79.6395 316.497 61.3666 306.797 48.1614C297.751 34.0405 285.21 24.6751 271.057 23.083C208.217 16.0902 131.777 16.0902 68.9376 23.083C54.7768 24.6751 42.2432 34.0405 33.1971 48.1614C23.4971 61.3666 17.0668 79.6395 15.9925 100.264C15.72 105.519 15.4943 110.764 15.2529 116.019C18.2423 103.219 23.4349 91.8978 30.1766 82.9278H30.1688Z" fill="url(#paint3_linear_607_13926)"/>
</g>
<g style="mix-blend-mode:soft-light" opacity="0.75" filter="url(#filter1_f_607_13926)">
<path d="M315.135 292.775C305.505 309.549 292.169 320.684 277.105 322.547C210.233 330.85 129.768 330.85 62.8962 322.547C47.8325 320.673 34.4969 309.549 24.867 292.775C23.2945 290.392 21.8153 287.853 20.4141 285.199C20.9434 303.046 21.6285 320.892 22.4615 338.728C23.4969 360.737 29.6469 380.227 38.911 394.296C47.56 409.364 59.5487 419.364 73.0789 421.05C133.155 428.511 206.831 428.511 266.907 421.05C280.437 419.364 292.426 409.374 301.075 394.296C310.347 380.227 316.489 360.737 317.525 338.728C318.365 320.882 319.043 303.035 319.572 285.199C318.171 287.853 316.692 290.392 315.119 292.775H315.135Z" fill="url(#paint4_linear_607_13926)"/>
</g>
<path style="mix-blend-mode:overlay" opacity="0.6" d="M339.905 218.986C339.609 170.994 338.341 147.497 336.091 99.515C334.923 74.6239 327.963 52.5632 317.469 36.6109C307.676 19.5659 294.115 8.25455 278.794 6.32944C210.793 -2.10981 129.199 -2.10981 61.1905 6.32944C45.8698 8.24414 32.3007 19.5659 22.5151 36.6109C12.0211 52.5528 5.06138 74.6135 3.89365 99.515C1.60489 148.33 0.335948 172.659 0.0634766 221.473C1.28571 221.91 2.51572 222.347 3.74573 222.774C14.8236 226.614 25.9015 230.027 36.9639 232.993C40.8875 234.054 44.8188 235.063 48.7424 236.01C122.644 253.961 214.304 253.274 288.035 234.866C292.363 233.783 296.707 232.649 301.035 231.442C313.304 228.019 325.581 224.137 337.866 219.735C338.551 219.496 339.228 219.236 339.905 218.986Z" fill="url(#paint5_radial_607_13926)"/>
<g style="mix-blend-mode:soft-light" opacity="0.3">
<path d="M243.427 85.5293C243.513 118.038 301.985 97.4546 164.675 97.4546C27.3653 97.4546 94.6891 119.005 94.5957 86.4971C94.51 53.9888 13.2279 27.1414 169.961 27.1414C305.597 27.1414 243.342 53.0106 243.427 85.5293Z" fill="white"/>
</g>
<g style="mix-blend-mode:overlay">
<path d="M277.156 26.0066C278.355 20.6433 275.156 14.6292 270.011 12.5737C264.866 10.5183 259.723 13.1997 258.524 18.5629C257.325 23.9262 260.524 29.9402 265.669 31.9957C270.814 34.0512 275.957 31.3698 277.156 26.0066Z" fill="url(#paint6_radial_607_13926)"/>
<path d="M290.831 29.781C291.476 26.8956 289.755 23.6601 286.987 22.5542C284.219 21.4483 281.451 22.8908 280.806 25.7761C280.161 28.6615 281.882 31.897 284.651 33.0029C287.419 34.1089 290.186 32.6664 290.831 29.781Z" fill="url(#paint7_radial_607_13926)"/>
<path d="M333.118 290.35C333.118 306.917 328.447 304.357 325.722 304.357C322.997 304.357 326.547 310.517 326.547 293.951C326.547 277.384 323.005 260.35 325.722 260.35C328.439 260.35 333.118 273.784 333.118 290.35Z" fill="url(#paint8_radial_607_13926)"/>
<path d="M324.202 111.578C328.061 110.953 330.488 102.718 329.624 93.1844C328.759 83.6508 324.931 76.429 321.072 77.054C317.214 77.6791 314.787 85.9143 315.651 95.4479C316.515 104.981 320.344 112.203 324.202 111.578Z" fill="url(#paint9_radial_607_13926)"/>
<path d="M326.623 136.366C328.697 136.03 330.002 131.6 329.537 126.471C329.072 121.342 327.013 117.456 324.939 117.792C322.865 118.128 321.56 122.559 322.025 127.688C322.49 132.817 324.549 136.703 326.623 136.366Z" fill="url(#paint10_radial_607_13926)"/>
<path d="M130.258 24.9146C130.367 29.1394 82.0932 26.4755 64.7407 30.9188C29.514 39.9304 30.3626 74.6344 25.3413 74.1557C20.2033 73.6562 23.4574 28.1925 64.1568 21.6575C100.216 15.8614 130.149 20.7001 130.258 24.925V24.9146Z" fill="url(#paint11_radial_607_13926)"/>
<path d="M24.9252 107.763C25.1883 97.8378 23.3814 89.6965 20.8893 89.5785C18.3971 89.4604 16.1635 97.4102 15.9003 107.335C15.6372 117.26 17.4441 125.401 19.9362 125.519C22.4284 125.637 24.662 117.687 24.9252 107.763Z" fill="url(#paint12_radial_607_13926)"/>
</g>
<path d="M20.5931 288.706C21.1692 308.821 21.9243 328.936 22.874 349.05C23.9717 372.568 30.5188 393.401 40.3978 408.437C49.6152 424.546 62.3824 435.233 76.8078 437.023C140.823 445.014 199.14 445.014 263.155 437.023C277.58 435.233 290.347 424.546 299.565 408.437C309.444 393.401 315.991 372.578 317.089 349.05C317.961 330.434 318.669 311.807 319.237 293.191C321.822 207.394 321.106 209.392 317.089 123.605C315.991 100.098 309.444 79.2752 299.565 64.2178C290.347 48.1301 277.58 37.4432 263.155 35.6325C199.14 27.6616 140.823 27.6616 76.8078 35.6325C62.3824 37.4432 49.6152 48.1301 40.3978 64.2178C30.5188 79.2752 23.9717 100.098 22.874 123.605C18.9349 207.893 18.1642 204.418 20.5931 288.706Z" fill="url(#paint13_radial_607_13926)"/>
<path style="mix-blend-mode:overlay" opacity="0.4" d="M30.2773 248.674C30.5498 223.211 31.7175 97.9957 33.7961 72.5322C34.8704 59.3166 41.2852 47.6099 50.9618 39.1498C59.9923 30.107 72.4948 24.1028 86.6244 23.083C149.316 18.6084 202.495 18.6084 265.187 23.083C279.308 24.1028 291.819 30.107 300.849 39.1498C310.526 47.6099 316.941 59.3166 318.015 72.5322C320.125 98.4431 321.3 224.085 321.549 249.985C320.42 250.214 319.292 250.454 318.155 250.672C307.941 252.712 297.727 254.522 287.529 256.094C283.909 256.656 280.289 257.197 276.669 257.696C180.269 271.172 174.243 270.901 78.1077 257.093C74.1141 256.52 70.1127 255.917 66.1268 255.282C54.8153 253.461 43.4961 251.401 32.1691 249.07C31.5385 248.945 30.9157 248.81 30.2851 248.674H30.2773Z" fill="url(#paint14_radial_607_13926)"/>
<g style="mix-blend-mode:overlay" opacity="0.15" filter="url(#filter2_f_607_13926)">
<path d="M295.525 327.593C286.681 341.423 274.436 350.601 260.602 352.151C199.202 358.999 140.847 358.999 79.4472 352.151C65.6135 350.601 53.3678 341.413 44.5242 327.593C38.0861 318.8 33.1271 307.718 30.2778 295.179C30.5114 300.33 30.7216 305.47 30.9863 310.621C32.0139 330.819 38.1561 348.718 47.4124 361.652C56.0536 375.482 68.019 384.66 81.5414 386.21C141.547 393.057 198.502 393.057 258.508 386.21C272.03 384.66 283.995 375.471 292.637 361.652C301.893 348.718 308.035 330.819 309.063 310.621C309.327 305.481 309.538 300.33 309.771 295.189C306.922 307.728 301.963 318.811 295.525 327.604V327.593Z" fill="url(#paint15_linear_607_13926)"/>
</g>
<g style="mix-blend-mode:overlay" opacity="0.38" filter="url(#filter3_f_607_13926)">
<path d="M295.525 110.899C286.681 97.0694 274.436 87.8914 260.602 86.3409C199.202 79.4937 140.847 79.4937 79.4472 86.3409C65.6135 87.8914 53.3678 97.0798 44.5242 110.899C38.0861 119.692 33.1271 130.774 30.2778 143.314C30.5114 138.163 30.7216 133.022 30.9863 127.871C32.0139 107.673 38.1561 89.7748 47.4124 76.8402C56.0536 63.0106 68.019 53.8326 81.5414 52.2821C141.547 45.4349 198.502 45.4349 258.508 52.2821C272.03 53.8326 283.995 63.0211 292.637 76.8402C301.893 89.7748 308.035 107.673 309.063 127.871C309.327 133.012 309.538 138.163 309.771 143.303C306.922 130.764 301.963 119.682 295.525 110.889V110.899Z" fill="url(#paint16_linear_607_13926)"/>
</g>
<g style="mix-blend-mode:multiply" opacity="0.25" filter="url(#filter4_f_607_13926)">
<path d="M317.003 354.503C307.202 368.957 293.633 378.541 278.304 380.154C210.256 387.313 132.906 387.313 64.8658 380.154C49.5373 378.541 35.9682 368.957 26.167 354.503C24.5711 352.453 23.0609 350.257 21.6362 347.979C22.1812 363.348 22.874 349.768 23.7226 365.148C24.7735 384.108 31.0326 400.893 40.4601 413.016C49.2648 426.003 61.456 434.619 75.2275 436.065C136.362 442.496 206.8 442.496 267.935 436.065C281.706 434.619 293.897 426.003 302.702 413.016C312.13 400.893 318.389 384.108 319.44 365.148C320.296 349.779 320.989 363.359 321.526 347.979C320.101 350.268 318.591 352.453 316.995 354.503H317.003Z" fill="url(#paint17_linear_607_13926)"/>
</g>
<path style="mix-blend-mode:overlay" opacity="0.15" d="M14.8861 257.894L169.992 239.424L14.2944 243.367L14.8861 257.894ZM19.6504 293.514L170 239.413L17.1826 279.351L19.6582 293.514H19.6504ZM28.9767 327.5L169.992 239.413L24.6951 314.118L28.9767 327.5ZM42.5925 358.811L169.992 239.413L36.6293 346.616L42.5847 358.801L42.5925 358.811ZM60.0774 386.491L169.992 239.413L52.6195 375.867L60.0696 386.491H60.0774ZM80.9098 409.707L170 239.424L72.1829 400.976L80.9098 409.707ZM104.444 427.741L170 239.413L94.7124 421.154L104.444 427.741ZM129.962 440.061L169.992 239.424L119.515 435.836L129.955 440.072L129.962 440.061ZM156.704 446.284L169.992 239.424L145.867 444.536L156.704 446.284ZM183.849 446.211L170 239.424L172.958 447.013L183.857 446.222L183.849 446.211ZM210.575 439.864L170 239.413L199.949 443.152L210.583 439.853L210.575 439.864ZM236.063 427.428L169.992 239.424L226.02 433.141L236.055 427.428H236.063ZM259.55 409.28L170 239.424L250.41 417.231L259.55 409.28ZM280.312 385.961L170 239.413L272.348 395.898L280.32 385.961H280.312ZM297.719 358.197L169.992 239.424L291.164 369.842L297.719 358.208V358.197ZM311.249 326.823L169.992 239.424L306.306 339.8L311.241 326.823H311.249ZM320.49 292.796L169.992 239.424L317.314 306.719L320.49 292.796ZM325.161 257.145L170 239.424L323.853 271.588L325.161 257.145ZM325.106 220.953L169.992 239.424L325.69 235.48L325.106 220.953ZM320.35 185.323L170 239.424L322.825 199.496L320.358 185.323H320.35ZM311.016 151.337L170 239.413L315.297 164.719L311.016 151.337ZM297.4 120.025L169.992 239.413L303.355 132.211L297.392 120.025H297.4ZM279.915 92.3454L170 239.413L287.373 102.959L279.915 92.335V92.3454ZM259.09 69.1296L169.992 239.413L267.81 77.8602L259.083 69.1192L259.09 69.1296ZM235.557 51.096L170 239.424L245.288 57.683L235.557 51.096ZM210.03 38.7754L169.992 239.413L220.47 43.0002L210.03 38.7754ZM183.289 32.5526L169.992 239.413L194.118 34.3008L183.289 32.5526ZM156.143 32.6254L169.992 239.424L167.034 31.845L156.135 32.6358L156.143 32.6254ZM129.417 38.9731L169.992 239.424L140.044 35.6744L129.417 38.9731ZM103.93 51.4082L169.992 239.424L113.964 45.7057L103.93 51.4082ZM80.4427 69.5563L169.992 239.413L89.5899 61.6165L80.4505 69.5563H80.4427ZM59.6804 92.8761L169.992 239.424L67.6521 82.9279L59.6804 92.8657V92.8761ZM42.2733 120.639L170 239.424L48.8204 109.005L42.2733 120.639ZM28.7432 152.013L170 239.424L33.6788 139.037L28.7432 152.013ZM19.5025 186.041L170 239.424L22.671 172.128L19.4947 186.041H19.5025ZM14.8394 221.692L170 239.413L16.155 207.248L14.8394 221.692Z" fill="url(#paint18_radial_607_13926)"/>
<defs>
<filter id="filter0_f_607_13926" x="7.25293" y="9.83838" width="325.488" height="114.191" filterUnits="userSpaceOnUse" color-interpolation-filters="sRGB">
<feFlood flood-opacity="0" result="BackgroundImageFix"/>
<feBlend mode="normal" in="SourceGraphic" in2="BackgroundImageFix" result="shape"/>
<feGaussianBlur stdDeviation="4" result="effect1_foregroundBlur_607_13926"/>
</filter>
<filter id="filter1_f_607_13926" x="12.4141" y="277.199" width="315.158" height="157.446" filterUnits="userSpaceOnUse" color-interpolation-filters="sRGB">
<feFlood flood-opacity="0" result="BackgroundImageFix"/>
<feBlend mode="normal" in="SourceGraphic" in2="BackgroundImageFix" result="shape"/>
<feGaussianBlur stdDeviation="4" result="effect1_foregroundBlur_607_13926"/>
</filter>
<filter id="filter2_f_607_13926" x="22.2778" y="287.179" width="295.493" height="112.167" filterUnits="userSpaceOnUse" color-interpolation-filters="sRGB">
<feFlood flood-opacity="0" result="BackgroundImageFix"/>
<feBlend mode="normal" in="SourceGraphic" in2="BackgroundImageFix" result="shape"/>
<feGaussianBlur stdDeviation="4" result="effect1_foregroundBlur_607_13926"/>
</filter>
<filter id="filter3_f_607_13926" x="22.2778" y="39.1467" width="295.493" height="112.167" filterUnits="userSpaceOnUse" color-interpolation-filters="sRGB">
<feFlood flood-opacity="0" result="BackgroundImageFix"/>
<feBlend mode="normal" in="SourceGraphic" in2="BackgroundImageFix" result="shape"/>
<feGaussianBlur stdDeviation="4" result="effect1_foregroundBlur_607_13926"/>
</filter>
<filter id="filter4_f_607_13926" x="13.6362" y="339.979" width="315.89" height="108.91" filterUnits="userSpaceOnUse" color-interpolation-filters="sRGB">
<feFlood flood-opacity="0" result="BackgroundImageFix"/>
<feBlend mode="normal" in="SourceGraphic" in2="BackgroundImageFix" result="shape"/>
<feGaussianBlur stdDeviation="4" result="effect1_foregroundBlur_607_13926"/>
</filter>
<radialGradient id="paint0_radial_607_13926" cx="0" cy="0" r="1" gradientUnits="userSpaceOnUse" gradientTransform="translate(171.642 270.115) scale(175.849 285.424)">
<stop/>
<stop offset="0.84" stop-opacity="0.2"/>
</radialGradient>
<radialGradient id="paint1_radial_607_13926" cx="0" cy="0" r="1" gradientUnits="userSpaceOnUse" gradientTransform="translate(171.656 250.543) scale(176.47 286.432)">
<stop stop-color="#26DAFD"/>
<stop offset="0.23" stop-color="#1CAAE3"/>
<stop offset="0.47" stop-color="#1482CD"/>
<stop offset="0.68" stop-color="#0E65BD"/>
<stop offset="0.87" stop-color="#0B53B4"/>
<stop offset="1" stop-color="#0A4DB1"/>
</radialGradient>
<radialGradient id="paint2_radial_607_13926" cx="0" cy="0" r="1" gradientUnits="userSpaceOnUse" gradientTransform="translate(170.568 185.026) rotate(-90.6434) scale(310.094 192.237)">
<stop stop-color="#26DAFD"/>
<stop offset="0.23" stop-color="#1CAAE3"/>
<stop offset="0.47" stop-color="#1482CD"/>
<stop offset="0.68" stop-color="#0E65BD"/>
<stop offset="0.87" stop-color="#0B53B4"/>
<stop offset="1" stop-color="#0A4DB1"/>
</radialGradient>
<linearGradient id="paint3_linear_607_13926" x1="169.993" y1="116.029" x2="169.993" y2="17.8488" gradientUnits="userSpaceOnUse">
<stop stop-color="white" stop-opacity="0"/>
<stop offset="1" stop-color="white"/>
</linearGradient>
<linearGradient id="paint4_linear_607_13926" x1="169.993" y1="425.15" x2="169.993" y2="262.972" gradientUnits="userSpaceOnUse">
<stop/>
<stop offset="0.09" stop-color="#0C0C0C"/>
<stop offset="0.24" stop-color="#2C2C2C"/>
<stop offset="0.46" stop-color="#616161"/>
<stop offset="0.71" stop-color="#AAAAAA"/>
<stop offset="0.98" stop-color="white"/>
</linearGradient>
<radialGradient id="paint5_radial_607_13926" cx="0" cy="0" r="1" gradientUnits="userSpaceOnUse" gradientTransform="translate(170.546 103.19) rotate(-90.6584) scale(248.824 158.791)">
<stop stop-color="white"/>
<stop offset="1" stop-color="white" stop-opacity="0"/>
</radialGradient>
<radialGradient id="paint6_radial_607_13926" cx="0" cy="0" r="1" gradientUnits="userSpaceOnUse" gradientTransform="translate(339.431 48.9007) rotate(-161.939) scale(4.89395 18.7945)">
<stop offset="0.51" stop-color="white"/>
<stop offset="1" stop-color="white" stop-opacity="0"/>
</radialGradient>
<radialGradient id="paint7_radial_607_13926" cx="0" cy="0" r="1" gradientUnits="userSpaceOnUse" gradientTransform="translate(363.109 55.9685) rotate(-161.939) scale(2.63153 10.106)">
<stop offset="0.51" stop-color="white"/>
<stop offset="1" stop-color="white" stop-opacity="0"/>
</radialGradient>
<radialGradient id="paint8_radial_607_13926" cx="0" cy="0" r="1" gradientUnits="userSpaceOnUse" gradientTransform="translate(326.933 282.961) rotate(-90.7706) scale(23.9046 5.70828)">
<stop stop-color="white"/>
<stop offset="1" stop-color="white" stop-opacity="0"/>
</radialGradient>
<radialGradient id="paint9_radial_607_13926" cx="0" cy="0" r="1" gradientUnits="userSpaceOnUse" gradientTransform="translate(299.564 -183.703) rotate(-95.0601) scale(8.53513 13.3841)">
<stop offset="0.51" stop-color="white"/>
<stop offset="1" stop-color="white" stop-opacity="0"/>
</radialGradient>
<radialGradient id="paint10_radial_607_13926" cx="0" cy="0" r="1" gradientUnits="userSpaceOnUse" gradientTransform="translate(303.555 -144.355) rotate(-95.0601) scale(4.58627 7.19181)">
<stop offset="0.51" stop-color="white"/>
<stop offset="1" stop-color="white" stop-opacity="0"/>
</radialGradient>
<radialGradient id="paint11_radial_607_13926" cx="0" cy="0" r="1" gradientUnits="userSpaceOnUse" gradientTransform="translate(56.7821 -6.2805) rotate(-92.8147) scale(42.4578 104.382)">
<stop offset="0.51" stop-color="white"/>
<stop offset="1" stop-color="white" stop-opacity="0"/>
</radialGradient>
<radialGradient id="paint12_radial_607_13926" cx="0" cy="0" r="1" gradientUnits="userSpaceOnUse" gradientTransform="translate(21.8747 107.174) rotate(-90.8529) scale(17.8747 4.09226)">
<stop offset="0.51" stop-color="white"/>
<stop offset="1" stop-color="white" stop-opacity="0"/>
</radialGradient>
<radialGradient id="paint13_radial_607_13926" cx="0" cy="0" r="1" gradientUnits="userSpaceOnUse" gradientTransform="translate(169.041 248.207) rotate(-89.3416) scale(275.609 175.278)">
<stop stop-color="#0093B0"/>
<stop offset="0.03" stop-color="#008EAD"/>
<stop offset="0.33" stop-color="#006697"/>
<stop offset="0.6" stop-color="#004988"/>
<stop offset="0.83" stop-color="#00377E"/>
<stop offset="1" stop-color="#00317B"/>
</radialGradient>
<radialGradient id="paint14_radial_607_13926" cx="0" cy="0" r="1" gradientUnits="userSpaceOnUse" gradientTransform="translate(174.562 126.37) rotate(-88.8478) scale(158.42 175.715)">
<stop stop-color="white"/>
<stop offset="1" stop-color="white" stop-opacity="0"/>
</radialGradient>
<linearGradient id="paint15_linear_607_13926" x1="170.024" y1="295.179" x2="170.024" y2="391.351" gradientUnits="userSpaceOnUse">
<stop stop-color="white" stop-opacity="0"/>
<stop offset="1" stop-color="white"/>
</linearGradient>
<linearGradient id="paint16_linear_607_13926" x1="170.024" y1="143.324" x2="170.024" y2="47.1623" gradientUnits="userSpaceOnUse">
<stop stop-color="white" stop-opacity="0"/>
<stop offset="1" stop-color="white"/>
</linearGradient>
<linearGradient id="paint17_linear_607_13926" x1="171.573" y1="439.884" x2="171.573" y2="333.358" gradientUnits="userSpaceOnUse">
<stop/>
<stop offset="0.09" stop-color="#0C0C0C"/>
<stop offset="0.24" stop-color="#2C2C2C"/>
<stop offset="0.46" stop-color="#616161"/>
<stop offset="0.71" stop-color="#AAAAAA"/>
<stop offset="0.98" stop-color="white"/>
</linearGradient>
<radialGradient id="paint18_radial_607_13926" cx="0" cy="0" r="1" gradientUnits="userSpaceOnUse" gradientTransform="translate(169.887 240.595) scale(177.164 226.736)">
<stop offset="0.37" stop-color="white"/>
<stop offset="0.42" stop-color="white" stop-opacity="0.96"/>
<stop offset="0.51" stop-color="white" stop-opacity="0.86"/>
<stop offset="0.62" stop-color="white" stop-opacity="0.7"/>
<stop offset="0.76" stop-color="white" stop-opacity="0.47"/>
<stop offset="0.91" stop-color="white" stop-opacity="0.19"/>
<stop offset="1" stop-color="white" stop-opacity="0"/>
</radialGradient>
</defs>
</svg>
