<svg width="337" height="100" viewBox="0 0 337 100" fill="none" xmlns="http://www.w3.org/2000/svg">
<path d="M25.1849 62.7102C15.8938 43.4602 13.5491 23.4902 13.5491 23.4902C13.5491 23.4902 38.0127 55.5002 76.2323 52.3302C102.259 50.1702 98.8201 38.0202 98.8201 38.0202L99.1425 86.1702C99.1425 86.1702 98.8201 97.0902 70.4583 99.7202C32.0531 103.28 0.447754 71.9502 0.447754 71.9502C0.447754 71.9502 11.6049 69.5802 25.1849 62.7002V62.7102Z" fill="url(#paint0_linear_606_13799)"/>
<path d="M33.2742 78.3702C33.2742 78.3702 31.7794 88.4302 50.557 88.4302C66.0128 88.4302 73.858 76.8602 87.3306 76.8602C99.0544 76.8602 98.8101 87.7902 98.8101 87.7902V42.7002C98.8101 42.7002 98.8199 33.7002 88.1122 33.7002C73.858 33.7002 67.0191 50.4302 49.9903 50.4302C32.9615 50.4302 33.2155 38.8402 33.2155 38.8402L33.2742 78.3602V78.3702Z" fill="url(#paint1_linear_606_13799)"/>
<path d="M147.2 11.9002C96.3875 11.9002 96.3875 0.000244141 61.1966 0.000244141C33.7727 0.000244141 33.167 18.3002 33.167 18.3002V78.3702C33.167 78.3702 33.929 61.4102 62.369 61.4102C96.2019 61.4102 96.2019 74.4602 146.565 74.4602C146.927 36.6902 146.634 67.3202 147.21 11.9002H147.2Z" fill="url(#paint2_linear_606_13799)"/>
<path style="mix-blend-mode:soft-light" d="M34.6129 20.6402C34.6129 20.6402 35.2187 2.33024 62.6425 2.33024C97.4817 2.33024 97.8334 13.9902 147.171 14.2202C147.171 13.4602 147.191 12.6902 147.191 11.8902C96.3875 11.9002 96.3875 0.000244141 61.1966 0.000244141C33.7727 0.000244141 33.167 18.3002 33.167 18.3002V78.3702C33.167 78.3702 33.2647 76.2702 34.6227 73.5502V20.6402H34.6129Z" fill="url(#paint3_linear_606_13799)"/>
<path d="M312.105 62.7102C321.396 43.4702 323.741 23.4902 323.741 23.4902C323.741 23.4902 299.277 55.5002 261.058 52.3302C235.031 50.1702 238.47 38.0202 238.47 38.0202L238.147 86.1702C238.147 86.1702 238.47 97.0902 266.832 99.7202C305.237 103.29 336.842 71.9602 336.842 71.9602C336.842 71.9602 325.685 69.5902 312.105 62.7102Z" fill="url(#paint4_linear_606_13799)"/>
<path d="M304.015 78.3702C304.015 78.3702 305.51 88.4302 286.733 88.4302C271.277 88.4302 263.432 76.8602 249.959 76.8602C238.235 76.8602 238.479 87.7902 238.479 87.7902V42.7002C238.479 42.7002 238.47 33.7002 249.177 33.7002C263.432 33.7002 270.27 50.4302 287.299 50.4302C304.846 50.4302 304.074 38.8402 304.074 38.8402L304.015 78.3602V78.3702Z" fill="url(#paint5_linear_606_13799)"/>
<path d="M190.08 11.9002C240.903 11.9002 240.903 0.000244141 276.094 0.000244141C303.517 0.000244141 304.123 18.3002 304.123 18.3002V78.3702C304.123 78.3702 303.361 61.4102 274.921 61.4102C241.088 61.4102 241.088 74.4602 190.725 74.4602C190.363 36.6902 190.656 67.3202 190.08 11.9002Z" fill="url(#paint6_linear_606_13799)"/>
<path style="mix-blend-mode:soft-light" d="M302.667 20.6402C302.667 20.6402 302.062 2.33023 274.638 2.33023C239.799 2.33023 239.447 13.9902 190.109 14.2202C190.109 13.4602 190.09 12.6902 190.09 11.8902C240.903 11.8902 240.903 -0.00976562 276.094 -0.00976562C303.517 -0.00976562 304.123 18.2902 304.123 18.2902V78.3602C304.123 78.3602 304.025 76.2602 302.667 73.5402V20.6402Z" fill="url(#paint7_linear_606_13799)"/>
<path d="M201.325 11.9001H139.384V74.4601H201.325V11.9001Z" fill="#9E6F4F"/>
<path d="M59.476 52.748C58.516 52.964 57.532 53.108 56.524 53.18C55.54 53.276 54.568 53.324 53.608 53.324C52.672 53.324 51.94 53.3 51.412 53.252C50.908 53.204 50.236 53.084 49.396 52.892C48.556 52.7 47.788 52.436 47.092 52.1C46.396 51.764 45.652 51.272 44.86 50.624C44.092 49.976 43.444 49.208 42.916 48.32C41.692 46.256 41.08 43.592 41.08 40.328C41.08 38.144 41.416 36.212 42.088 34.532C42.784 32.852 43.612 31.556 44.572 30.644C45.556 29.732 46.672 29 47.92 28.448C49.936 27.536 51.964 27.08 54.004 27.08C56.932 27.08 59.032 27.32 60.304 27.8C60.88 28.016 61.396 28.352 61.852 28.808C62.308 29.264 62.536 29.924 62.536 30.788C62.536 31.652 62.32 32.744 61.888 34.064C61.48 35.384 60.88 36.044 60.088 36.044C59.848 36.044 58.96 35.852 57.424 35.468C55.888 35.084 54.844 34.892 54.292 34.892C53.452 34.892 52.732 35.36 52.132 36.296C51.556 37.232 51.268 38.564 51.268 40.292C51.268 42.02 51.52 43.364 52.024 44.324C52.552 45.284 53.236 45.764 54.076 45.764C54.676 45.764 55.756 45.524 57.316 45.044C58.9 44.54 59.824 44.288 60.088 44.288C60.832 44.288 61.408 44.972 61.816 46.34C62.248 47.708 62.464 48.812 62.464 49.652C62.464 50.492 62.2 51.164 61.672 51.668C61.168 52.148 60.436 52.508 59.476 52.748ZM77.233 53.324C75.241 53.324 73.525 53.144 72.085 52.784C70.669 52.4 69.361 51.728 68.161 50.768C65.737 48.872 64.525 45.236 64.525 39.86C64.525 37.604 64.849 35.636 65.497 33.956C66.169 32.276 67.093 30.944 68.269 29.96C70.573 28.04 73.561 27.08 77.233 27.08C79.129 27.08 80.773 27.248 82.165 27.584C83.581 27.92 84.913 28.532 86.161 29.42C88.681 31.244 89.941 34.724 89.941 39.86C89.941 44.468 88.801 47.864 86.521 50.048C84.241 52.232 81.145 53.324 77.233 53.324ZM76.045 47.168C76.333 47.504 76.729 47.672 77.233 47.672C77.737 47.672 78.133 47.504 78.421 47.168C78.709 46.808 78.949 46.064 79.141 44.936C79.333 43.784 79.429 42.188 79.429 40.148C79.429 38.108 79.333 36.536 79.141 35.432C78.949 34.328 78.709 33.608 78.421 33.272C78.133 32.936 77.737 32.768 77.233 32.768C76.729 32.768 76.333 32.936 76.045 33.272C75.757 33.608 75.517 34.328 75.325 35.432C75.133 36.536 75.037 38.108 75.037 40.148C75.037 42.188 75.133 43.784 75.325 44.936C75.517 46.064 75.757 46.808 76.045 47.168ZM97.8199 53C97.2199 53 96.3439 53 95.1919 53C94.0639 53 93.2959 52.916 92.8879 52.748C92.4799 52.58 92.2759 52.316 92.2759 51.956V29.24C92.2759 28.688 93.0079 28.256 94.4719 27.944C95.9599 27.608 97.5439 27.44 99.2239 27.44C100.904 27.44 102.104 27.656 102.824 28.088C103.544 28.52 103.964 28.976 104.084 29.456L106.532 38.96H106.856L109.16 29.888C109.328 29.24 110.108 28.676 111.5 28.196C112.916 27.692 114.464 27.44 116.144 27.44C117.824 27.44 119.06 27.572 119.852 27.836C120.668 28.1 121.076 28.436 121.076 28.844V51.956C121.076 52.268 120.392 52.52 119.024 52.712C117.656 52.904 115.988 53 114.02 53C112.052 53 111.068 52.652 111.068 51.956C111.068 50.06 111.272 46.688 111.68 41.84H111.356L109.484 51.236C109.412 51.596 109.112 51.86 108.584 52.028C108.08 52.196 107.312 52.28 106.28 52.28C105.248 52.28 104.612 52.208 104.372 52.064C104.156 51.92 104.012 51.644 103.94 51.236L101.996 41.84H101.672C102.104 46.784 102.32 50.156 102.32 51.956C102.32 52.58 100.82 52.928 97.8199 53ZM133.996 52.136C133.996 52.4 133.264 52.616 131.8 52.784C130.336 52.928 128.86 53 127.372 53C125.908 53 124.972 52.94 124.564 52.82C124.156 52.676 123.952 52.448 123.952 52.136V29.744C123.952 29.216 124.648 28.7 126.04 28.196C127.432 27.668 128.992 27.404 130.72 27.404C132.256 27.404 133.264 27.728 133.744 28.376C133.912 28.616 133.996 28.856 133.996 29.096V52.136ZM146.933 51.956C146.933 52.268 146.189 52.52 144.701 52.712C143.237 52.904 141.773 53 140.309 53C138.845 53 137.909 52.916 137.501 52.748C137.093 52.58 136.889 52.316 136.889 51.956V29.852C136.889 29.252 137.573 28.7 138.941 28.196C140.333 27.692 141.905 27.44 143.657 27.44C144.281 27.44 144.749 27.464 145.061 27.512C145.877 27.632 146.453 28.148 146.789 29.06L150.245 38.348H150.389V29.852C150.389 29.252 151.073 28.7 152.441 28.196C153.809 27.692 155.369 27.44 157.121 27.44C158.633 27.44 159.593 27.728 160.001 28.304C160.289 28.712 160.433 29.084 160.433 29.42V51.956C160.433 52.268 159.689 52.52 158.201 52.712C156.737 52.904 155.117 53 153.341 53C151.589 53 150.629 52.772 150.461 52.316L147.113 43.46H146.933V51.956ZM171.139 53.288C170.323 53.288 169.567 53.204 168.871 53.036C168.175 52.868 167.443 52.52 166.675 51.992C165.931 51.44 165.295 50.72 164.767 49.832C163.567 47.816 162.967 44.78 162.967 40.724C162.967 38.492 163.267 36.524 163.867 34.82C164.467 33.116 165.223 31.796 166.135 30.86C167.047 29.9 168.139 29.12 169.411 28.52C170.683 27.92 171.871 27.536 172.975 27.368C174.079 27.176 175.255 27.08 176.503 27.08C179.383 27.08 181.411 27.332 182.587 27.836C183.763 28.316 184.351 29.252 184.351 30.644C184.351 31.748 184.147 32.948 183.739 34.244C183.331 35.516 182.731 36.152 181.939 36.152C181.747 36.152 180.931 35.972 179.491 35.612C178.051 35.228 176.971 35.036 176.251 35.036C174.187 35.036 173.155 36.776 173.155 40.256C173.155 42.008 173.395 43.316 173.875 44.18C174.355 45.02 174.955 45.488 175.675 45.584V42.344C175.675 41.744 176.287 41.192 177.511 40.688C178.735 40.184 179.911 39.932 181.039 39.932C182.167 39.932 182.983 40.004 183.487 40.148C184.015 40.292 184.375 40.496 184.567 40.76C184.903 41.192 185.071 41.576 185.071 41.912V51.884C185.071 52.196 184.435 52.448 183.163 52.64C181.915 52.832 180.607 52.928 179.239 52.928C177.895 52.928 177.043 52.868 176.683 52.748C176.323 52.604 176.119 52.232 176.071 51.632L175.819 49.508H175.531C175.363 50.54 174.931 51.428 174.235 52.172C173.563 52.916 172.531 53.288 171.139 53.288ZM213.994 51.488C213.274 52.016 212.266 52.46 210.97 52.82C209.698 53.156 208.042 53.324 206.002 53.324C203.986 53.324 202.066 53.156 200.242 52.82C198.418 52.484 197.11 52.112 196.318 51.704C195.526 51.296 195.13 50.9 195.13 50.516C195.13 49.172 195.322 47.78 195.706 46.34C196.09 44.876 196.546 44.144 197.074 44.144C197.17 44.144 198.166 44.468 200.062 45.116C201.958 45.764 203.386 46.088 204.346 46.088C205.306 46.088 205.93 45.992 206.218 45.8C206.506 45.584 206.65 45.284 206.65 44.9C206.65 44.516 206.386 44.18 205.858 43.892C205.33 43.58 204.67 43.316 203.878 43.1C203.086 42.86 202.222 42.524 201.286 42.092C200.374 41.66 199.522 41.18 198.73 40.652C197.938 40.124 197.278 39.38 196.75 38.42C196.222 37.436 195.958 36.32 195.958 35.072C195.958 29.744 199.138 27.08 205.498 27.08C207.874 27.08 209.926 27.236 211.654 27.548C213.382 27.836 214.594 28.172 215.29 28.556C216.01 28.916 216.37 29.276 216.37 29.636C216.37 30.884 216.07 32.228 215.47 33.668C214.894 35.108 214.33 35.828 213.778 35.828C213.682 35.828 213.37 35.72 212.842 35.504C211.258 34.808 209.938 34.46 208.882 34.46C207.85 34.46 207.142 34.556 206.758 34.748C206.398 34.94 206.218 35.24 206.218 35.648C206.218 36.032 206.482 36.356 207.01 36.62C207.538 36.86 208.186 37.088 208.954 37.304C209.746 37.496 210.598 37.808 211.51 38.24C212.446 38.648 213.31 39.14 214.102 39.716C214.894 40.268 215.554 41.06 216.082 42.092C216.61 43.124 216.874 44.324 216.874 45.692C216.874 47.132 216.502 48.44 215.758 49.616C215.302 50.336 214.714 50.96 213.994 51.488ZM231.393 53.324C229.401 53.324 227.685 53.144 226.245 52.784C224.829 52.4 223.521 51.728 222.321 50.768C219.897 48.872 218.685 45.236 218.685 39.86C218.685 37.604 219.009 35.636 219.657 33.956C220.329 32.276 221.253 30.944 222.429 29.96C224.733 28.04 227.721 27.08 231.393 27.08C233.289 27.08 234.933 27.248 236.325 27.584C237.741 27.92 239.073 28.532 240.321 29.42C242.841 31.244 244.101 34.724 244.101 39.86C244.101 44.468 242.961 47.864 240.681 50.048C238.401 52.232 235.305 53.324 231.393 53.324ZM230.205 47.168C230.493 47.504 230.889 47.672 231.393 47.672C231.897 47.672 232.293 47.504 232.581 47.168C232.869 46.808 233.109 46.064 233.301 44.936C233.493 43.784 233.589 42.188 233.589 40.148C233.589 38.108 233.493 36.536 233.301 35.432C233.109 34.328 232.869 33.608 232.581 33.272C232.293 32.936 231.897 32.768 231.393 32.768C230.889 32.768 230.493 32.936 230.205 33.272C229.917 33.608 229.677 34.328 229.485 35.432C229.293 36.536 229.197 38.108 229.197 40.148C229.197 42.188 229.293 43.784 229.485 44.936C229.677 46.064 229.917 46.808 230.205 47.168ZM258.604 53.324C256.612 53.324 254.896 53.144 253.456 52.784C252.04 52.4 250.732 51.728 249.532 50.768C247.108 48.872 245.896 45.236 245.896 39.86C245.896 37.604 246.22 35.636 246.868 33.956C247.54 32.276 248.464 30.944 249.64 29.96C251.944 28.04 254.932 27.08 258.604 27.08C260.5 27.08 262.144 27.248 263.536 27.584C264.952 27.92 266.284 28.532 267.532 29.42C270.052 31.244 271.312 34.724 271.312 39.86C271.312 44.468 270.172 47.864 267.892 50.048C265.612 52.232 262.516 53.324 258.604 53.324ZM257.416 47.168C257.704 47.504 258.1 47.672 258.604 47.672C259.108 47.672 259.504 47.504 259.792 47.168C260.08 46.808 260.32 46.064 260.512 44.936C260.704 43.784 260.8 42.188 260.8 40.148C260.8 38.108 260.704 36.536 260.512 35.432C260.32 34.328 260.08 33.608 259.792 33.272C259.504 32.936 259.108 32.768 258.604 32.768C258.1 32.768 257.704 32.936 257.416 33.272C257.128 33.608 256.888 34.328 256.696 35.432C256.504 36.536 256.408 38.108 256.408 40.148C256.408 42.188 256.504 43.784 256.696 44.936C256.888 46.064 257.128 46.808 257.416 47.168ZM283.691 51.956C283.691 52.268 282.947 52.52 281.459 52.712C279.995 52.904 278.531 53 277.067 53C275.603 53 274.667 52.916 274.259 52.748C273.851 52.58 273.647 52.316 273.647 51.956V29.852C273.647 29.252 274.331 28.7 275.699 28.196C277.091 27.692 278.663 27.44 280.415 27.44C281.039 27.44 281.507 27.464 281.819 27.512C282.635 27.632 283.211 28.148 283.547 29.06L287.003 38.348H287.147V29.852C287.147 29.252 287.831 28.7 289.199 28.196C290.567 27.692 292.127 27.44 293.879 27.44C295.391 27.44 296.351 27.728 296.759 28.304C297.047 28.712 297.191 29.084 297.191 29.42V51.956C297.191 52.268 296.447 52.52 294.959 52.712C293.495 52.904 291.875 53 290.099 53C288.347 53 287.387 52.772 287.219 52.316L283.871 43.46H283.691V51.956Z" fill="#D52C00"/>
<path d="M56.476 49.748C55.516 49.964 54.532 50.108 53.524 50.18C52.54 50.276 51.568 50.324 50.608 50.324C49.672 50.324 48.94 50.3 48.412 50.252C47.908 50.204 47.236 50.084 46.396 49.892C45.556 49.7 44.788 49.436 44.092 49.1C43.396 48.764 42.652 48.272 41.86 47.624C41.092 46.976 40.444 46.208 39.916 45.32C38.692 43.256 38.08 40.592 38.08 37.328C38.08 35.144 38.416 33.212 39.088 31.532C39.784 29.852 40.612 28.556 41.572 27.644C42.556 26.732 43.672 26 44.92 25.448C46.936 24.536 48.964 24.08 51.004 24.08C53.932 24.08 56.032 24.32 57.304 24.8C57.88 25.016 58.396 25.352 58.852 25.808C59.308 26.264 59.536 26.924 59.536 27.788C59.536 28.652 59.32 29.744 58.888 31.064C58.48 32.384 57.88 33.044 57.088 33.044C56.848 33.044 55.96 32.852 54.424 32.468C52.888 32.084 51.844 31.892 51.292 31.892C50.452 31.892 49.732 32.36 49.132 33.296C48.556 34.232 48.268 35.564 48.268 37.292C48.268 39.02 48.52 40.364 49.024 41.324C49.552 42.284 50.236 42.764 51.076 42.764C51.676 42.764 52.756 42.524 54.316 42.044C55.9 41.54 56.824 41.288 57.088 41.288C57.832 41.288 58.408 41.972 58.816 43.34C59.248 44.708 59.464 45.812 59.464 46.652C59.464 47.492 59.2 48.164 58.672 48.668C58.168 49.148 57.436 49.508 56.476 49.748ZM74.233 50.324C72.241 50.324 70.525 50.144 69.085 49.784C67.669 49.4 66.361 48.728 65.161 47.768C62.737 45.872 61.525 42.236 61.525 36.86C61.525 34.604 61.849 32.636 62.497 30.956C63.169 29.276 64.093 27.944 65.269 26.96C67.573 25.04 70.561 24.08 74.233 24.08C76.129 24.08 77.773 24.248 79.165 24.584C80.581 24.92 81.913 25.532 83.161 26.42C85.681 28.244 86.941 31.724 86.941 36.86C86.941 41.468 85.801 44.864 83.521 47.048C81.241 49.232 78.145 50.324 74.233 50.324ZM73.045 44.168C73.333 44.504 73.729 44.672 74.233 44.672C74.737 44.672 75.133 44.504 75.421 44.168C75.709 43.808 75.949 43.064 76.141 41.936C76.333 40.784 76.429 39.188 76.429 37.148C76.429 35.108 76.333 33.536 76.141 32.432C75.949 31.328 75.709 30.608 75.421 30.272C75.133 29.936 74.737 29.768 74.233 29.768C73.729 29.768 73.333 29.936 73.045 30.272C72.757 30.608 72.517 31.328 72.325 32.432C72.133 33.536 72.037 35.108 72.037 37.148C72.037 39.188 72.133 40.784 72.325 41.936C72.517 43.064 72.757 43.808 73.045 44.168ZM94.8199 50C94.2199 50 93.3439 50 92.1919 50C91.0639 50 90.2959 49.916 89.8879 49.748C89.4799 49.58 89.2759 49.316 89.2759 48.956V26.24C89.2759 25.688 90.0079 25.256 91.4719 24.944C92.9599 24.608 94.5439 24.44 96.2239 24.44C97.9039 24.44 99.1039 24.656 99.8239 25.088C100.544 25.52 100.964 25.976 101.084 26.456L103.532 35.96H103.856L106.16 26.888C106.328 26.24 107.108 25.676 108.5 25.196C109.916 24.692 111.464 24.44 113.144 24.44C114.824 24.44 116.06 24.572 116.852 24.836C117.668 25.1 118.076 25.436 118.076 25.844V48.956C118.076 49.268 117.392 49.52 116.024 49.712C114.656 49.904 112.988 50 111.02 50C109.052 50 108.068 49.652 108.068 48.956C108.068 47.06 108.272 43.688 108.68 38.84H108.356L106.484 48.236C106.412 48.596 106.112 48.86 105.584 49.028C105.08 49.196 104.312 49.28 103.28 49.28C102.248 49.28 101.612 49.208 101.372 49.064C101.156 48.92 101.012 48.644 100.94 48.236L98.9959 38.84H98.6719C99.1039 43.784 99.3199 47.156 99.3199 48.956C99.3199 49.58 97.8199 49.928 94.8199 50ZM130.996 49.136C130.996 49.4 130.264 49.616 128.8 49.784C127.336 49.928 125.86 50 124.372 50C122.908 50 121.972 49.94 121.564 49.82C121.156 49.676 120.952 49.448 120.952 49.136V26.744C120.952 26.216 121.648 25.7 123.04 25.196C124.432 24.668 125.992 24.404 127.72 24.404C129.256 24.404 130.264 24.728 130.744 25.376C130.912 25.616 130.996 25.856 130.996 26.096V49.136ZM143.933 48.956C143.933 49.268 143.189 49.52 141.701 49.712C140.237 49.904 138.773 50 137.309 50C135.845 50 134.909 49.916 134.501 49.748C134.093 49.58 133.889 49.316 133.889 48.956V26.852C133.889 26.252 134.573 25.7 135.941 25.196C137.333 24.692 138.905 24.44 140.657 24.44C141.281 24.44 141.749 24.464 142.061 24.512C142.877 24.632 143.453 25.148 143.789 26.06L147.245 35.348H147.389V26.852C147.389 26.252 148.073 25.7 149.441 25.196C150.809 24.692 152.369 24.44 154.121 24.44C155.633 24.44 156.593 24.728 157.001 25.304C157.289 25.712 157.433 26.084 157.433 26.42V48.956C157.433 49.268 156.689 49.52 155.201 49.712C153.737 49.904 152.117 50 150.341 50C148.589 50 147.629 49.772 147.461 49.316L144.113 40.46H143.933V48.956ZM168.139 50.288C167.323 50.288 166.567 50.204 165.871 50.036C165.175 49.868 164.443 49.52 163.675 48.992C162.931 48.44 162.295 47.72 161.767 46.832C160.567 44.816 159.967 41.78 159.967 37.724C159.967 35.492 160.267 33.524 160.867 31.82C161.467 30.116 162.223 28.796 163.135 27.86C164.047 26.9 165.139 26.12 166.411 25.52C167.683 24.92 168.871 24.536 169.975 24.368C171.079 24.176 172.255 24.08 173.503 24.08C176.383 24.08 178.411 24.332 179.587 24.836C180.763 25.316 181.351 26.252 181.351 27.644C181.351 28.748 181.147 29.948 180.739 31.244C180.331 32.516 179.731 33.152 178.939 33.152C178.747 33.152 177.931 32.972 176.491 32.612C175.051 32.228 173.971 32.036 173.251 32.036C171.187 32.036 170.155 33.776 170.155 37.256C170.155 39.008 170.395 40.316 170.875 41.18C171.355 42.02 171.955 42.488 172.675 42.584V39.344C172.675 38.744 173.287 38.192 174.511 37.688C175.735 37.184 176.911 36.932 178.039 36.932C179.167 36.932 179.983 37.004 180.487 37.148C181.015 37.292 181.375 37.496 181.567 37.76C181.903 38.192 182.071 38.576 182.071 38.912V48.884C182.071 49.196 181.435 49.448 180.163 49.64C178.915 49.832 177.607 49.928 176.239 49.928C174.895 49.928 174.043 49.868 173.683 49.748C173.323 49.604 173.119 49.232 173.071 48.632L172.819 46.508H172.531C172.363 47.54 171.931 48.428 171.235 49.172C170.563 49.916 169.531 50.288 168.139 50.288ZM210.994 48.488C210.274 49.016 209.266 49.46 207.97 49.82C206.698 50.156 205.042 50.324 203.002 50.324C200.986 50.324 199.066 50.156 197.242 49.82C195.418 49.484 194.11 49.112 193.318 48.704C192.526 48.296 192.13 47.9 192.13 47.516C192.13 46.172 192.322 44.78 192.706 43.34C193.09 41.876 193.546 41.144 194.074 41.144C194.17 41.144 195.166 41.468 197.062 42.116C198.958 42.764 200.386 43.088 201.346 43.088C202.306 43.088 202.93 42.992 203.218 42.8C203.506 42.584 203.65 42.284 203.65 41.9C203.65 41.516 203.386 41.18 202.858 40.892C202.33 40.58 201.67 40.316 200.878 40.1C200.086 39.86 199.222 39.524 198.286 39.092C197.374 38.66 196.522 38.18 195.73 37.652C194.938 37.124 194.278 36.38 193.75 35.42C193.222 34.436 192.958 33.32 192.958 32.072C192.958 26.744 196.138 24.08 202.498 24.08C204.874 24.08 206.926 24.236 208.654 24.548C210.382 24.836 211.594 25.172 212.29 25.556C213.01 25.916 213.37 26.276 213.37 26.636C213.37 27.884 213.07 29.228 212.47 30.668C211.894 32.108 211.33 32.828 210.778 32.828C210.682 32.828 210.37 32.72 209.842 32.504C208.258 31.808 206.938 31.46 205.882 31.46C204.85 31.46 204.142 31.556 203.758 31.748C203.398 31.94 203.218 32.24 203.218 32.648C203.218 33.032 203.482 33.356 204.01 33.62C204.538 33.86 205.186 34.088 205.954 34.304C206.746 34.496 207.598 34.808 208.51 35.24C209.446 35.648 210.31 36.14 211.102 36.716C211.894 37.268 212.554 38.06 213.082 39.092C213.61 40.124 213.874 41.324 213.874 42.692C213.874 44.132 213.502 45.44 212.758 46.616C212.302 47.336 211.714 47.96 210.994 48.488ZM228.393 50.324C226.401 50.324 224.685 50.144 223.245 49.784C221.829 49.4 220.521 48.728 219.321 47.768C216.897 45.872 215.685 42.236 215.685 36.86C215.685 34.604 216.009 32.636 216.657 30.956C217.329 29.276 218.253 27.944 219.429 26.96C221.733 25.04 224.721 24.08 228.393 24.08C230.289 24.08 231.933 24.248 233.325 24.584C234.741 24.92 236.073 25.532 237.321 26.42C239.841 28.244 241.101 31.724 241.101 36.86C241.101 41.468 239.961 44.864 237.681 47.048C235.401 49.232 232.305 50.324 228.393 50.324ZM227.205 44.168C227.493 44.504 227.889 44.672 228.393 44.672C228.897 44.672 229.293 44.504 229.581 44.168C229.869 43.808 230.109 43.064 230.301 41.936C230.493 40.784 230.589 39.188 230.589 37.148C230.589 35.108 230.493 33.536 230.301 32.432C230.109 31.328 229.869 30.608 229.581 30.272C229.293 29.936 228.897 29.768 228.393 29.768C227.889 29.768 227.493 29.936 227.205 30.272C226.917 30.608 226.677 31.328 226.485 32.432C226.293 33.536 226.197 35.108 226.197 37.148C226.197 39.188 226.293 40.784 226.485 41.936C226.677 43.064 226.917 43.808 227.205 44.168ZM255.604 50.324C253.612 50.324 251.896 50.144 250.456 49.784C249.04 49.4 247.732 48.728 246.532 47.768C244.108 45.872 242.896 42.236 242.896 36.86C242.896 34.604 243.22 32.636 243.868 30.956C244.54 29.276 245.464 27.944 246.64 26.96C248.944 25.04 251.932 24.08 255.604 24.08C257.5 24.08 259.144 24.248 260.536 24.584C261.952 24.92 263.284 25.532 264.532 26.42C267.052 28.244 268.312 31.724 268.312 36.86C268.312 41.468 267.172 44.864 264.892 47.048C262.612 49.232 259.516 50.324 255.604 50.324ZM254.416 44.168C254.704 44.504 255.1 44.672 255.604 44.672C256.108 44.672 256.504 44.504 256.792 44.168C257.08 43.808 257.32 43.064 257.512 41.936C257.704 40.784 257.8 39.188 257.8 37.148C257.8 35.108 257.704 33.536 257.512 32.432C257.32 31.328 257.08 30.608 256.792 30.272C256.504 29.936 256.108 29.768 255.604 29.768C255.1 29.768 254.704 29.936 254.416 30.272C254.128 30.608 253.888 31.328 253.696 32.432C253.504 33.536 253.408 35.108 253.408 37.148C253.408 39.188 253.504 40.784 253.696 41.936C253.888 43.064 254.128 43.808 254.416 44.168ZM280.691 48.956C280.691 49.268 279.947 49.52 278.459 49.712C276.995 49.904 275.531 50 274.067 50C272.603 50 271.667 49.916 271.259 49.748C270.851 49.58 270.647 49.316 270.647 48.956V26.852C270.647 26.252 271.331 25.7 272.699 25.196C274.091 24.692 275.663 24.44 277.415 24.44C278.039 24.44 278.507 24.464 278.819 24.512C279.635 24.632 280.211 25.148 280.547 26.06L284.003 35.348H284.147V26.852C284.147 26.252 284.831 25.7 286.199 25.196C287.567 24.692 289.127 24.44 290.879 24.44C292.391 24.44 293.351 24.728 293.759 25.304C294.047 25.712 294.191 26.084 294.191 26.42V48.956C294.191 49.268 293.447 49.52 291.959 49.712C290.495 49.904 288.875 50 287.099 50C285.347 50 284.387 49.772 284.219 49.316L280.871 40.46H280.691V48.956Z" fill="#FABB10"/>
<defs>
<linearGradient id="paint0_linear_606_13799" x1="114.201" y1="58.7332" x2="19.2447" y2="61.8756" gradientUnits="userSpaceOnUse">
<stop offset="0.17" stop-color="#8C6042"/>
<stop offset="0.66" stop-color="#AA7E49"/>
<stop offset="1" stop-color="#BA8E4D"/>
</linearGradient>
<linearGradient id="paint1_linear_606_13799" x1="33.2155" y1="61.0802" x2="98.8199" y2="61.0802" gradientUnits="userSpaceOnUse">
<stop stop-color="#473123"/>
<stop offset="1" stop-color="#7A513D"/>
</linearGradient>
<linearGradient id="paint2_linear_606_13799" x1="39.9904" y1="39.0781" x2="149.723" y2="37.0945" gradientUnits="userSpaceOnUse">
<stop offset="0.34" stop-color="#CC9E5B"/>
<stop offset="0.56" stop-color="#BC8E57"/>
<stop offset="0.9" stop-color="#9E6F4F"/>
</linearGradient>
<linearGradient id="paint3_linear_606_13799" x1="37.0749" y1="39.1902" x2="144.602" y2="39.1902" gradientUnits="userSpaceOnUse">
<stop stop-color="white"/>
<stop offset="1" stop-color="white" stop-opacity="0"/>
</linearGradient>
<linearGradient id="paint4_linear_606_13799" x1="248.436" y1="58.694" x2="343.38" y2="61.8359" gradientUnits="userSpaceOnUse">
<stop offset="0.17" stop-color="#8C6042"/>
<stop offset="0.66" stop-color="#AA7E49"/>
<stop offset="1" stop-color="#BA8E4D"/>
</linearGradient>
<linearGradient id="paint5_linear_606_13799" x1="304.074" y1="61.0802" x2="238.47" y2="61.0802" gradientUnits="userSpaceOnUse">
<stop stop-color="#473123"/>
<stop offset="1" stop-color="#7A513D"/>
</linearGradient>
<linearGradient id="paint6_linear_606_13799" x1="288.434" y1="38.9295" x2="178.71" y2="36.946" gradientUnits="userSpaceOnUse">
<stop offset="0.34" stop-color="#CC9E5B"/>
<stop offset="0.56" stop-color="#BC8E57"/>
<stop offset="0.9" stop-color="#9E6F4F"/>
</linearGradient>
<linearGradient id="paint7_linear_606_13799" x1="300.215" y1="39.1902" x2="192.679" y2="39.1902" gradientUnits="userSpaceOnUse">
<stop stop-color="white"/>
<stop offset="1" stop-color="white" stop-opacity="0"/>
</linearGradient>
</defs>
</svg>
