<svg width="150" height="55" viewBox="0 0 150 55" fill="none" xmlns="http://www.w3.org/2000/svg">
<path d="M149.989 30.7025C149.989 31.9025 149.954 33.1025 149.912 34.3125C149.828 36.6825 149.674 39.0525 149.45 41.4225C149.324 42.7525 149.184 44.0825 149.015 45.4125C148.721 47.7425 146.983 49.8125 144.355 51.3025C141.902 52.9025 138.511 53.9625 134.677 54.1425C117.669 54.9325 32.335 54.9325 15.32 54.1425C11.4867 53.9625 8.09488 52.9025 5.64213 51.3025C3.0142 49.8125 1.27626 47.7425 0.981928 45.4125C0.869803 44.5325 0.771693 43.6525 0.680591 42.7725C0.407286 40.1825 0.218074 37.5825 0.112956 34.9925C0.0498856 33.5225 0.0148467 32.0425 0.00783891 30.5725C-0.00617675 29.5225 0.00783939 28.4725 0.0288629 27.4225V27.3825C0.063902 25.8725 0.119965 24.3525 0.204059 22.8425C0.274137 21.6325 0.35823 20.4225 0.463348 19.2225C0.603504 17.5925 0.778701 15.9625 0.981928 14.3325C1.1361 13.1025 1.68972 11.9525 2.5657 10.9125C3.35057 9.98251 4.39474 9.14251 5.63513 8.44251C8.08787 6.84251 11.4797 5.78251 15.3129 5.60251C32.328 4.81251 117.662 4.81251 134.67 5.60251C138.504 5.78251 141.895 6.84251 144.348 8.44251C145.932 9.34251 147.193 10.4425 148.006 11.7025C148.546 12.5225 148.896 13.4125 149.008 14.3425C149.226 16.0625 149.408 17.7725 149.548 19.4925C149.66 20.7825 149.751 22.0725 149.814 23.3625C149.884 24.6725 149.933 25.9725 149.961 27.2825C149.989 28.4325 149.996 29.5725 149.989 30.7125V30.7025Z" fill="url(#paint0_radial_2012_24347)"/>
<path d="M149.919 32.0825C149.877 33.3325 149.814 34.5925 149.73 35.8425C149.59 37.9825 149.394 40.1225 149.141 42.2625C149.099 42.6025 149.057 42.9425 149.015 43.2825C148.721 45.6125 146.983 47.6825 144.355 49.1725C141.902 50.7725 138.51 51.8325 134.677 52.0125C117.669 52.8025 32.3348 52.8025 15.3198 52.0125C11.4865 51.8325 8.09471 50.7725 5.64197 49.1725C3.14718 47.7525 1.4583 45.8225 1.03783 43.6325C1.0098 43.5125 0.995782 43.4025 0.981767 43.2825C0.701454 41.0525 0.484209 38.8225 0.323029 36.5925C0.217912 35.1225 0.133818 33.6425 0.0847628 32.1725C0.00767669 30.2525 -0.0133459 28.3325 0.00767759 26.4025V26.3725C0.0146854 25.9025 0.0216926 25.4225 0.0357082 24.9525C0.0637395 23.6125 0.119803 22.2825 0.189881 20.9425C0.32303 18.4925 0.533265 16.0325 0.813578 13.5825C0.86964 13.1225 0.918696 12.6525 0.981767 12.1925C1.2761 9.8625 3.01404 7.79249 5.64197 6.30249C8.09471 4.70249 11.4865 3.6425 15.3198 3.4625C32.3348 2.6725 117.669 2.6725 134.677 3.4625C138.51 3.6425 141.902 4.70249 144.355 6.30249C146.983 7.79249 148.721 9.8625 149.015 12.1925C149.092 12.8025 149.162 13.4125 149.232 14.0225C149.492 16.3425 149.681 18.6625 149.814 20.9825C149.891 22.4225 149.947 23.8625 149.975 25.3025C149.975 25.5325 149.989 25.7625 149.989 26.0025V26.0825C150.017 28.0825 149.989 30.0825 149.919 32.0725V32.0825Z" fill="url(#paint1_radial_2012_24347)"/>
<g style="mix-blend-mode:hard-light" opacity="0.2">
<path d="M149.015 10.2725C148.721 7.90252 146.983 5.79252 144.355 4.27252C141.902 2.64252 138.511 1.56252 134.677 1.38252C117.669 0.572524 32.328 0.572524 15.32 1.38252C11.4867 1.56252 8.09493 2.64252 5.64219 4.27252C3.02126 5.79252 1.27631 7.89252 0.98198 10.2725C-0.314469 20.8125 -0.314469 31.3625 0.98198 41.9025C1.27631 44.2725 3.01425 46.3825 5.64219 47.9025C8.09493 49.5325 11.4867 50.6125 15.32 50.7925C32.328 51.6025 117.669 51.6025 134.677 50.7925C138.511 50.6125 141.902 49.5325 144.355 47.9025C146.976 46.3825 148.721 44.2825 149.015 41.9025C150.312 31.3625 150.312 20.8125 149.015 10.2725Z" fill="white"/>
</g>
<path d="M149.625 34.7625C149.471 36.7825 149.268 38.7925 149.023 40.8125C148.728 43.1725 146.99 45.2525 144.362 46.7625C141.91 48.3725 138.518 49.4425 134.685 49.6225C117.677 50.4225 32.3352 50.4225 15.3272 49.6225C11.494 49.4425 8.10216 48.3725 5.64942 46.7625C3.02149 45.2525 1.28354 43.1725 0.989215 40.8125C0.757957 38.9525 0.568745 37.0825 0.42158 35.2125C-0.265187 26.6225 -0.0759748 18.0225 0.989215 9.43246C1.28354 7.08246 3.02149 4.99246 5.64942 3.48246C8.10216 1.87246 11.494 0.802461 15.3272 0.622461C32.3352 -0.177539 117.677 -0.177539 134.685 0.622461C138.518 0.802461 141.91 1.87246 144.362 3.48246C146.99 4.99246 148.728 7.07246 149.023 9.43246C150.067 17.8725 150.277 26.3225 149.625 34.7625Z" fill="url(#paint2_radial_2012_24347)"/>
<g style="mix-blend-mode:soft-light" opacity="0.75">
<path d="M149.625 34.7625C149.471 36.7825 149.268 38.7925 149.023 40.8125C148.728 43.1725 146.99 45.2525 144.362 46.7625C141.91 48.3725 138.518 49.4425 134.685 49.6225C117.677 50.4225 32.3352 50.4225 15.3272 49.6225C11.494 49.4425 8.10216 48.3725 5.64942 46.7625C3.02149 45.2525 1.28354 43.1725 0.989215 40.8125C0.757957 38.9525 0.568745 37.0825 0.42158 35.2125C-0.265187 26.6225 -0.0759748 18.0225 0.989215 9.43246C1.28354 7.08246 3.02149 4.99246 5.64942 3.48246C8.10216 1.87246 11.494 0.802461 15.3272 0.622461C32.3352 -0.177539 117.677 -0.177539 134.685 0.622461C138.518 0.802461 141.91 1.87246 144.362 3.48246C146.99 4.99246 148.728 7.07246 149.023 9.43246C150.067 17.8725 150.277 26.3225 149.625 34.7625Z" fill="url(#paint3_linear_2012_24347)"/>
</g>
<path style="mix-blend-mode:overlay" opacity="0.6" d="M149.99 25.3225C149.99 25.5525 149.99 25.7825 149.99 26.0125V26.0925C149.99 26.4825 149.976 26.8725 149.969 27.2725C149.948 28.3925 149.912 29.5025 149.856 30.6125C149.835 31.0725 149.807 31.5225 149.786 31.9825C149.744 32.6925 149.695 33.4125 149.639 34.1325C149.632 34.2325 149.625 34.3325 149.618 34.4325C149.044 34.5525 148.476 34.6825 147.908 34.7925C144.902 35.4225 141.896 35.9725 138.889 36.4625C137.831 36.6325 136.766 36.7925 135.708 36.9525C117.655 39.5725 31.2489 39.6725 13.1547 37.1125C12.1946 36.9825 11.2345 36.8325 10.2674 36.6825C7.55542 36.2625 4.84339 35.7725 2.13136 35.2225C1.55672 35.1125 0.98908 34.9925 0.421445 34.8725C0.421445 34.8325 0.421448 34.7825 0.407432 34.7425C0.337354 33.8425 0.274282 32.9525 0.225227 32.0525C0.190188 31.5225 0.169165 30.9925 0.141134 30.4725C0.0920789 29.4525 0.0570387 28.4425 0.0360152 27.4225V27.3825C0.0360152 27.0625 0.0220004 26.7325 0.0149925 26.4125V26.3825C0.0149925 25.9125 0.000976562 25.4525 0.000976562 24.9825C0.000976562 24.3025 0.000977044 23.6225 0.0220005 22.9425C0.0360162 22.3125 0.0500303 21.6825 0.0710538 21.0525C0.0850695 20.5125 0.106093 19.9825 0.134124 19.4425C0.218218 17.5425 0.344361 15.6425 0.519557 13.7425C0.582628 13.0625 0.645697 12.3925 0.715776 11.7125C0.79987 10.9225 0.890971 10.1225 0.98908 9.3225C1.28341 6.9925 3.02135 4.9225 5.64929 3.4325C8.10203 1.8325 11.4938 0.7725 15.3271 0.5925C32.3421 -0.1975 117.676 -0.1975 134.684 0.5925C138.518 0.7725 141.917 1.8325 144.362 3.4325C146.99 4.9225 148.728 6.9925 149.022 9.3225C149.149 10.3025 149.261 11.2825 149.359 12.2525C149.422 12.8925 149.485 13.5225 149.534 14.1625C149.695 15.9925 149.814 17.8225 149.891 19.6525C149.912 20.1225 149.926 20.5825 149.941 21.0525C149.969 21.8425 149.983 22.6225 149.997 23.4125C149.997 24.0425 149.997 24.6725 149.997 25.3025L149.99 25.3225Z" fill="url(#paint4_radial_2012_24347)"/>
<g style="mix-blend-mode:soft-light" opacity="0.6">
<path d="M125.84 8.0325C125.861 11.0825 114.025 9.1525 71.6347 9.1525C36.8689 9.1525 23.7082 11.1725 23.6872 8.1225C23.6661 5.0725 36.3643 2.5625 72.3075 2.5625C113.528 2.5625 125.819 4.9825 125.84 8.0325Z" fill="white"/>
</g>
<path d="M22.9846 32.391C22.9846 32.573 22.5576 32.72 21.7036 32.832C20.8496 32.944 19.9956 33 19.1416 33C18.2876 33 17.7416 32.951 17.5036 32.853C17.2656 32.755 17.1466 32.601 17.1466 32.391V18.888C17.1466 18.216 19.1626 17.88 23.1946 17.88C25.6306 17.88 27.2406 18.048 28.0246 18.384C28.9766 18.776 29.6206 19.308 29.9566 19.98C30.4046 20.848 30.6286 21.961 30.6286 23.319C30.6286 25.181 30.3066 26.532 29.6626 27.372C29.2006 27.988 28.7386 28.387 28.2766 28.569C27.8146 28.751 27.4296 28.884 27.1216 28.968C26.8276 29.038 26.4566 29.094 26.0086 29.136C25.3926 29.192 24.5526 29.22 23.4886 29.22L22.9846 29.199V32.391ZM23.0056 25.713H23.5096C23.7756 25.713 23.9856 25.678 24.1396 25.608C24.2936 25.524 24.4266 25.314 24.5386 24.978C24.6646 24.628 24.7276 24.145 24.7276 23.529C24.7276 22.899 24.6576 22.423 24.5176 22.101C24.3916 21.765 24.2586 21.569 24.1186 21.513C23.9926 21.443 23.8386 21.408 23.6566 21.408H23.0056V25.713ZM33.7583 33C33.0583 33 32.5893 32.965 32.3513 32.895C32.1133 32.811 31.9943 32.678 31.9943 32.496V19.434C31.9943 19.126 32.4003 18.825 33.2123 18.531C34.0243 18.223 34.9343 18.069 35.9423 18.069C36.8383 18.069 37.4263 18.258 37.7063 18.636C37.8043 18.776 37.8533 18.916 37.8533 19.056V28.359C39.5613 28.247 40.8493 28.191 41.7173 28.191C42.0113 28.191 42.1583 28.66 42.1583 29.598C42.1583 30.522 42.0953 31.32 41.9693 31.992C41.8433 32.664 41.6753 33 41.4653 33H33.7583ZM49.2131 31.929C49.1851 32.335 48.9681 32.615 48.5621 32.769C48.1701 32.923 47.4561 33 46.4201 33C45.3841 33 44.5161 32.909 43.8161 32.727C43.1301 32.531 42.7871 32.286 42.7871 31.992C42.7871 31.656 43.4101 29.514 44.6561 25.566C45.9021 21.604 46.6161 19.322 46.7981 18.72C46.8681 18.538 47.4281 18.391 48.4781 18.279C49.5421 18.153 50.6761 18.09 51.8801 18.09C53.0981 18.09 53.7701 18.3 53.8961 18.72C56.5421 27.512 57.8651 31.978 57.8651 32.118C57.8651 32.258 57.7811 32.398 57.6131 32.538C57.2211 32.846 56.4441 33 55.2821 33C52.8041 33 51.5371 32.706 51.4811 32.118L51.3341 30.753H49.3181L49.2131 31.929ZM50.8931 26.763L50.5781 22.983H50.1161L49.7591 26.763H50.8931ZM65.5805 32.391C65.5805 32.573 65.1535 32.72 64.2995 32.832C63.4455 32.944 62.5915 33 61.7375 33C60.8975 33 60.3515 32.958 60.0995 32.874C59.8475 32.776 59.7215 32.615 59.7215 32.391V28.737C56.9495 23.067 55.5635 19.987 55.5635 19.497C55.5635 19.203 56.0325 18.895 56.9705 18.573C57.9085 18.251 58.8955 18.09 59.9315 18.09C61.2615 18.09 61.9685 18.482 62.0525 19.266L62.6195 24.915H62.8505L63.2495 19.413C63.2775 19.021 63.7745 18.706 64.7405 18.468C65.7065 18.216 66.6235 18.09 67.4915 18.09C68.3595 18.09 68.9615 18.216 69.2975 18.468C69.6335 18.72 69.8015 18.986 69.8015 19.266C69.8015 19.532 68.3945 22.689 65.5805 28.737V32.391ZM81.4324 32.391C81.4324 32.573 80.9984 32.72 80.1304 32.832C79.2764 32.944 78.4224 33 77.5684 33C76.7144 33 76.1684 32.951 75.9304 32.853C75.6924 32.755 75.5734 32.601 75.5734 32.391V19.497C75.5734 19.147 75.9724 18.825 76.7704 18.531C77.5824 18.237 78.4994 18.09 79.5214 18.09C79.8854 18.09 80.1584 18.104 80.3404 18.132C80.8164 18.202 81.1524 18.503 81.3484 19.035L83.3644 24.453H83.4484V19.497C83.4484 19.147 83.8474 18.825 84.6454 18.531C85.4434 18.237 86.3534 18.09 87.3754 18.09C88.2574 18.09 88.8174 18.258 89.0554 18.594C89.2234 18.832 89.3074 19.049 89.3074 19.245V32.391C89.3074 32.573 88.8734 32.72 88.0054 32.832C87.1514 32.944 86.2064 33 85.1704 33C84.1484 33 83.5884 32.867 83.4904 32.601L81.5374 27.435H81.4324V32.391ZM98.0933 33.189C96.9313 33.189 95.9303 33.084 95.0903 32.874C94.2643 32.65 93.5013 32.258 92.8013 31.698C91.3873 30.592 90.6803 28.471 90.6803 25.335C90.6803 24.019 90.8693 22.871 91.2473 21.891C91.6393 20.911 92.1783 20.134 92.8643 19.56C94.2083 18.44 95.9513 17.88 98.0933 17.88C99.1993 17.88 100.158 17.978 100.97 18.174C101.796 18.37 102.573 18.727 103.301 19.245C104.771 20.309 105.506 22.339 105.506 25.335C105.506 28.023 104.841 30.004 103.511 31.278C102.181 32.552 100.375 33.189 98.0933 33.189ZM97.4003 29.598C97.5683 29.794 97.7993 29.892 98.0933 29.892C98.3873 29.892 98.6183 29.794 98.7863 29.598C98.9543 29.388 99.0943 28.954 99.2063 28.296C99.3183 27.624 99.3743 26.693 99.3743 25.503C99.3743 24.313 99.3183 23.396 99.2063 22.752C99.0943 22.108 98.9543 21.688 98.7863 21.492C98.6183 21.296 98.3873 21.198 98.0933 21.198C97.7993 21.198 97.5683 21.296 97.4003 21.492C97.2323 21.688 97.0923 22.108 96.9803 22.752C96.8683 23.396 96.8123 24.313 96.8123 25.503C96.8123 26.693 96.8683 27.624 96.9803 28.296C97.0923 28.954 97.2323 29.388 97.4003 29.598ZM112.008 33C111.336 33 110.895 32.951 110.685 32.853C110.475 32.755 110.328 32.587 110.244 32.349L105.603 19.539C105.603 19.273 106.1 18.965 107.094 18.615C108.102 18.265 109.117 18.09 110.139 18.09C111.455 18.09 112.155 18.503 112.239 19.329L112.953 25.986H113.247L113.835 19.329C113.905 18.503 114.85 18.09 116.67 18.09C117.37 18.09 117.839 18.188 118.077 18.384C118.315 18.566 118.448 18.811 118.476 19.119L119.169 25.986H119.463L120.009 19.329C120.051 18.923 120.527 18.615 121.437 18.405C122.361 18.195 123.271 18.09 124.167 18.09C125.077 18.09 125.693 18.223 126.015 18.489C126.351 18.755 126.519 19.035 126.519 19.329L122.025 32.349C121.871 32.783 120.835 33 118.917 33C118.343 33 117.958 32.951 117.762 32.853C117.566 32.755 117.433 32.587 117.363 32.349L116.271 28.695H116.019L114.906 32.349C114.78 32.783 113.814 33 112.008 33ZM127.372 18.3C127.358 18.146 127.757 18.027 128.569 17.943C129.381 17.845 130.333 17.796 131.425 17.796C132.517 17.796 133.063 17.957 133.063 18.279C133.063 18.685 132.937 22.059 132.685 28.401C132.671 28.751 132.419 29.066 131.929 29.346C131.439 29.626 130.746 29.766 129.85 29.766C128.632 29.766 127.995 29.437 127.939 28.779L127.372 18.3ZM132.832 32.811C132.832 33.525 132.601 34.015 132.139 34.281C131.691 34.561 131.054 34.701 130.228 34.701C129.416 34.701 128.793 34.575 128.359 34.323C127.925 34.085 127.708 33.581 127.708 32.811C127.708 31.551 128.562 30.921 130.27 30.921C131.978 30.921 132.832 31.551 132.832 32.811Z" fill="#731F0D"/>
<defs>
<radialGradient id="paint0_radial_2012_24347" cx="0" cy="0" r="1" gradientUnits="userSpaceOnUse" gradientTransform="translate(74.1762 29.9159) scale(68.9436 42.1632)">
<stop/>
<stop offset="0.84" stop-opacity="0.2"/>
</radialGradient>
<radialGradient id="paint1_radial_2012_24347" cx="0" cy="0" r="1" gradientUnits="userSpaceOnUse" gradientTransform="translate(74.176 27.7937) scale(68.9436 42.1632)">
<stop stop-color="#F76F06"/>
<stop offset="0.98" stop-color="#D33501"/>
</radialGradient>
<radialGradient id="paint2_radial_2012_24347" cx="0" cy="0" r="1" gradientUnits="userSpaceOnUse" gradientTransform="translate(74.1832 25.1792) scale(68.9338 42.5574)">
<stop stop-color="#F76F06"/>
<stop offset="0.98" stop-color="#D33501"/>
</radialGradient>
<linearGradient id="paint3_linear_2012_24347" x1="75.9093" y1="50.0075" x2="75.9093" y2="38.1125" gradientUnits="userSpaceOnUse">
<stop/>
<stop offset="1" stop-opacity="0"/>
</linearGradient>
<radialGradient id="paint4_radial_2012_24347" cx="0" cy="0" r="1" gradientUnits="userSpaceOnUse" gradientTransform="translate(74.7591 10.5191) scale(71.3365 43.6266)">
<stop stop-color="white"/>
<stop offset="1" stop-color="white" stop-opacity="0"/>
</radialGradient>
</defs>
</svg>
