<svg width="1299" height="617" viewBox="0 0 1299 617" fill="none" xmlns="http://www.w3.org/2000/svg">
<path d="M1298.46 247.77C1298.43 257.73 1298.32 437.01 1298.13 446.97C1297.77 466.63 1297.1 486.26 1296.15 505.92C1295.62 516.96 1295 528 1294.27 539.04C1293 558.39 1293.13 575.97 1273.74 597.52C1263.26 609.16 1245.8 616.68 1195.75 616.68C956.503 616.68 444.043 616.94 406.263 616.94C332.613 616.94 139.373 617.99 66.0034 611.43C49.4734 609.96 34.8434 601.17 24.2834 587.91C12.9634 575.54 5.45344 558.4 4.20344 539.05C3.73344 531.75 3.29344 524.45 2.90344 517.14C1.73344 495.62 0.923438 474.13 0.463438 452.63C0.203438 440.42 0.0534375 258.91 0.0234375 246.69C-0.0265625 237.99 0.00343762 229.29 0.113438 220.6V220.26C0.253438 207.71 0.493438 195.16 0.873438 182.63C1.16344 172.62 1.52344 162.6 1.97344 152.59C2.58344 139.07 3.32344 125.53 4.19344 112C4.86344 101.81 7.25344 92.24 11.0334 83.64C14.4034 75.91 18.9134 68.9801 24.2734 63.1301C34.8334 49.8701 49.4734 41.08 65.9934 39.59C139.363 33.03 1159.09 33.03 1232.45 39.59C1248.98 41.08 1263.61 49.8701 1274.17 63.1301C1281 70.5701 1286.43 79.75 1289.94 90.12C1292.27 96.94 1293.77 104.3 1294.27 111.99C1295.19 126.22 1295.98 140.47 1296.59 154.7C1297.06 165.39 1297.45 176.09 1297.74 186.78C1298.04 197.61 1298.24 208.44 1298.36 219.27V219.36C1298.47 228.82 1298.5 238.29 1298.47 247.75L1298.46 247.77Z" fill="url(#paint0_radial_2065_54)"/>
<path d="M1298.16 435.22C1297.98 445.62 1297.71 456.03 1297.34 466.43C1296.73 484.17 1295.9 501.93 1294.81 519.69V519.71C1294.64 522.51 1294.46 525.31 1294.28 528.11C1293.01 547.45 1285.5 564.58 1274.18 576.95C1263.62 590.21 1248.98 599 1232.46 600.49C1159.11 607.05 139.374 607.05 66.0035 600.49C49.4735 599 34.8435 590.21 24.2835 576.95C13.5435 565.2 6.2335 549.16 4.4435 531.01C4.3335 530.05 4.2635 529.08 4.2035 528.1C2.9935 509.62 2.0535 491.13 1.3735 472.66C0.923505 460.43 0.573505 448.2 0.363505 435.97V435.95C0.0435046 420.02 -0.0464951 234.78 0.0435049 218.85V218.64C0.0735049 214.71 0.103504 210.79 0.153504 206.85C0.273504 195.77 0.503504 184.7 0.823504 173.62C1.4035 153.27 2.2935 132.91 3.5035 112.55C3.7335 108.72 3.9535 104.88 4.2135 101.05C5.47351 81.7 12.9735 64.56 24.2935 52.19C34.8535 38.95 49.4935 30.14 66.0135 28.67C139.384 22.11 1159.11 22.11 1232.47 28.67C1249 30.14 1263.63 38.95 1274.19 52.19C1285.51 64.56 1293.02 81.7 1294.29 101.05C1294.62 106.1 1294.93 111.17 1295.21 116.22C1296.33 135.45 1297.15 154.68 1297.71 173.91C1298.04 185.86 1298.27 197.8 1298.39 209.75C1298.41 211.68 1298.44 213.6 1298.45 215.53V216.2C1298.56 232.77 1298.47 418.64 1298.16 435.22Z" fill="url(#paint1_radial_2065_54)"/>
<g style="mix-blend-mode:hard-light" opacity="0.2">
<path d="M1294.28 91.79C1293.02 72.34 1285.51 55.11 1274.19 42.68C1263.63 29.36 1248.99 20.52 1232.47 19.04C1159.11 12.45 139.374 12.45 66.0135 19.04C49.4935 20.53 34.8535 29.36 24.2935 42.68C12.9735 55.12 5.47354 72.34 4.20354 91.79C-1.39646 178.14 -1.39646 433.79 4.20354 520.15C5.46354 539.6 12.9735 556.83 24.2935 569.26C34.8535 582.58 49.4935 591.42 66.0135 592.9C139.374 599.49 1159.11 599.49 1232.47 592.9C1248.99 591.41 1263.63 582.58 1274.19 569.26C1285.51 556.82 1293.01 539.6 1294.28 520.15C1299.88 433.8 1299.88 178.15 1294.28 91.79Z" fill="white"/>
</g>
<path d="M1296.89 461.94C1296.23 478.91 1295.36 495.89 1294.28 512.86C1293.02 532.71 1285.52 550.28 1274.2 562.97C1263.64 576.56 1249 585.58 1232.48 587.09C1159.12 593.83 139.383 593.83 66.0234 587.09C49.4934 585.58 34.8634 576.57 24.3034 562.97C12.9834 550.29 5.47344 532.71 4.22344 512.86C3.22344 497.15 2.41344 481.43 1.76344 465.73C-1.19656 393.34 -0.376562 151.66 4.22344 79.27C5.48344 59.44 12.9834 41.86 24.3034 29.16C34.8634 15.58 49.5034 6.57 66.0234 5.04C139.383 -1.68 1159.12 -1.68 1232.48 5.04C1249.01 6.57 1263.64 15.58 1274.2 29.16C1285.52 41.86 1293.03 59.44 1294.28 79.27C1298.8 150.39 1299.68 390.82 1296.89 461.94Z" fill="url(#paint2_radial_2065_54)"/>
<path style="mix-blend-mode:overlay" opacity="0.6" d="M1298.39 189.14C1298.07 151.86 1296.7 114.58 1294.27 77.3C1293.01 57.96 1285.51 40.82 1274.19 28.44C1263.63 15.2 1248.99 6.41 1232.47 4.92C1159.11 -1.64 139.374 -1.64 66.0135 4.92C49.4835 6.41 34.8535 15.2 24.2935 28.44C12.9735 40.83 5.4635 57.96 4.2135 77.3C1.7435 115.22 0.373496 153.14 0.0834961 191.06C1.4035 191.4 2.7235 191.74 4.0535 192.07C16.0035 195.05 27.9535 197.7 39.8935 200.01C44.1335 200.84 48.3635 201.62 52.6035 202.35C132.333 216.29 1162.92 215.76 1242.46 201.46C1247.13 200.62 1251.81 199.73 1256.48 198.8C1269.71 196.14 1282.96 193.12 1296.21 189.71C1296.95 189.52 1297.68 189.32 1298.41 189.13L1298.39 189.14Z" fill="url(#paint3_radial_2065_54)"/>
<g style="mix-blend-mode:soft-light" opacity="0.3">
<path d="M1223.15 59.95C1223.24 85.21 563.984 69.24 399.274 69.31C234.984 69.38 90.5235 86.14 90.4335 60.88C90.3435 35.62 221.164 14.77 409.184 14.69C571.894 14.62 1223.06 34.69 1223.16 59.95H1223.15Z" fill="white"/>
</g>
<g style="mix-blend-mode:overlay">
<path d="M1230.72 19.9066C1231.81 15.6871 1228.16 11.0971 1222.57 9.65463C1216.97 8.21211 1211.55 10.4633 1210.47 14.6828C1209.38 18.9023 1213.03 23.4923 1218.62 24.9348C1224.22 26.3773 1229.64 24.1261 1230.72 19.9066Z" fill="url(#paint4_radial_2065_54)"/>
<path d="M1245.45 22.9713C1246.03 20.7038 1244.07 18.2373 1241.06 17.4622C1238.06 16.6872 1235.15 17.8971 1234.56 20.1646C1233.98 22.4321 1235.94 24.8986 1238.94 25.6736C1241.95 26.4486 1244.86 25.2388 1245.45 22.9713Z" fill="url(#paint5_radial_2065_54)"/>
<path d="M1290.54 493.82C1290.54 506.69 1285.5 517.13 1282.56 517.13C1279.62 517.13 1283.45 509.49 1283.45 496.62C1283.45 483.75 1279.63 470.52 1282.56 470.52C1285.49 470.52 1290.54 480.95 1290.54 493.83V493.82Z" fill="url(#paint6_radial_2065_54)"/>
<path d="M1284.29 86.2969C1287.73 85.849 1289.87 80.5179 1289.08 74.3896C1288.28 68.2613 1284.84 63.6564 1281.4 64.1043C1277.96 64.5522 1275.82 69.8833 1276.62 76.0116C1277.42 82.1399 1280.85 86.7448 1284.29 86.2969Z" fill="url(#paint7_radial_2065_54)"/>
<path d="M1286.44 102.251C1288.3 102.01 1289.45 99.1416 1289.02 95.8446C1288.59 92.5477 1286.74 90.0705 1284.89 90.3115C1283.04 90.5526 1281.89 93.4207 1282.31 96.7176C1282.74 100.015 1284.59 102.492 1286.44 102.251Z" fill="url(#paint8_radial_2065_54)"/>
<path d="M186.824 14.36C186.934 17.64 112.194 16.5 85.2535 20.28C30.5635 27.96 31.4035 54.93 23.6235 54.65C15.6735 54.36 21.3435 18.95 84.4835 13.09C140.414 7.89002 186.724 11.08 186.824 14.36Z" fill="url(#paint9_radial_2065_54)"/>
<path d="M21.5612 71.9538C22.456 64.2905 21.0158 57.8252 18.3443 57.5133C15.6728 57.2014 12.7817 63.1609 11.8869 70.8242C10.9921 78.4876 12.4324 84.9528 15.1039 85.2648C17.7753 85.5767 20.6664 79.6172 21.5612 71.9538Z" fill="url(#paint10_radial_2065_54)"/>
</g>
<defs>
<radialGradient id="paint0_radial_2065_54" cx="0" cy="0" r="1" gradientUnits="userSpaceOnUse" gradientTransform="translate(653.056 324.238) scale(565.951 657.234)">
<stop/>
<stop offset="0.84" stop-opacity="0.2"/>
</radialGradient>
<radialGradient id="paint1_radial_2065_54" cx="0" cy="0" r="1" gradientUnits="userSpaceOnUse" gradientTransform="translate(651.285 263.701) rotate(-92.2977) scale(365.079 798.149)">
<stop stop-color="#26DAFD"/>
<stop offset="1" stop-color="#0A4DB1"/>
</radialGradient>
<radialGradient id="paint2_radial_2065_54" cx="0" cy="0" r="1" gradientUnits="userSpaceOnUse" gradientTransform="translate(651.286 244.277) rotate(-92.257) scale(371.65 798.155)">
<stop stop-color="#26DAFD"/>
<stop offset="1" stop-color="#0A4DB1"/>
</radialGradient>
<radialGradient id="paint3_radial_2065_54" cx="0" cy="0" r="1" gradientUnits="userSpaceOnUse" gradientTransform="translate(651.8 93.8406) rotate(-90.92) scale(611.388 543.456)">
<stop stop-color="white"/>
<stop offset="1" stop-color="white" stop-opacity="0"/>
</radialGradient>
<radialGradient id="paint4_radial_2065_54" cx="0" cy="0" r="1" gradientUnits="userSpaceOnUse" gradientTransform="translate(991.089 -39.4921) rotate(-166.79) scale(5.1436 14.9632)">
<stop offset="0.51" stop-color="white"/>
<stop offset="1" stop-color="white" stop-opacity="0"/>
</radialGradient>
<radialGradient id="paint5_radial_2065_54" cx="0" cy="0" r="1" gradientUnits="userSpaceOnUse" gradientTransform="translate(1015.65 -34.2815) rotate(-166.79) scale(2.7632 8.03838)">
<stop offset="0.51" stop-color="white"/>
<stop offset="1" stop-color="white" stop-opacity="0"/>
</radialGradient>
<radialGradient id="paint6_radial_2065_54" cx="0" cy="0" r="1" gradientUnits="userSpaceOnUse" gradientTransform="translate(1264.26 494.735) rotate(-91.07) scale(23.255 7.44158)">
<stop stop-color="white"/>
<stop offset="1" stop-color="white" stop-opacity="0"/>
</radialGradient>
<radialGradient id="paint7_radial_2065_54" cx="0" cy="0" r="1" gradientUnits="userSpaceOnUse" gradientTransform="translate(1227.11 -229.888) rotate(-97.02) scale(5.5029 11.9768)">
<stop offset="0.51" stop-color="white"/>
<stop offset="1" stop-color="white" stop-opacity="0"/>
</radialGradient>
<radialGradient id="paint8_radial_2065_54" cx="0" cy="0" r="1" gradientUnits="userSpaceOnUse" gradientTransform="translate(1230.87 -205.014) rotate(-97.02) scale(2.958 6.43801)">
<stop offset="0.51" stop-color="white"/>
<stop offset="1" stop-color="white" stop-opacity="0"/>
</radialGradient>
<radialGradient id="paint9_radial_2065_54" cx="0" cy="0" r="1" gradientUnits="userSpaceOnUse" gradientTransform="translate(70.1538 -40.1102) rotate(-94.59) scale(32.2842 161.421)">
<stop offset="0.51" stop-color="white"/>
<stop offset="1" stop-color="white" stop-opacity="0"/>
</radialGradient>
<radialGradient id="paint10_radial_2065_54" cx="0" cy="0" r="1" gradientUnits="userSpaceOnUse" gradientTransform="translate(16.8152 72.7913) rotate(-86.65) scale(13.9282 4.4804)">
<stop offset="0.51" stop-color="white"/>
<stop offset="1" stop-color="white" stop-opacity="0"/>
</radialGradient>
</defs>
</svg>
