<svg width="40" height="40" viewBox="0 0 40 40" fill="none" xmlns="http://www.w3.org/2000/svg">
<circle cx="20" cy="20" r="20" fill="#DF7100"/>
<path d="M4.8114 20.3536C4.81847 19.0879 6.08419 18.0626 7.65397 18.0626L33.0886 18.0838C34.6584 18.0838 35.9312 19.1162 35.9241 20.3819C35.917 21.6476 34.6513 22.6729 33.0815 22.6729L7.6469 22.6517C6.07712 22.6517 4.80433 21.6193 4.8114 20.3536Z" fill="white"/>
<path d="M20.3536 35.9241C19.0879 35.917 18.0626 34.6513 18.0626 33.0815L18.0838 7.64689C18.0838 6.07711 19.1161 4.80432 20.3819 4.81139C21.6476 4.81846 22.6729 6.08418 22.6729 7.65396L22.6517 33.0886C22.6517 34.6584 21.6193 35.9312 20.3536 35.9241Z" fill="white"/>
</svg>
