<svg width="359" height="491" viewBox="0 0 359 491" fill="none" xmlns="http://www.w3.org/2000/svg">
<path d="M358.638 308.8C358.618 317.79 358.528 326.8 358.368 335.8C358.078 353.55 357.538 371.28 356.778 389.03C356.348 399 355.858 408.97 355.268 418.94C354.248 436.42 351.268 463.05 332.218 478.12C310.668 495.17 202.488 489.27 154.558 489.27C95.3676 489.27 112.018 490.21 53.0476 484.29C39.7676 482.96 28.0076 475.02 19.5176 463.05C10.4176 451.88 4.38764 436.4 3.37764 418.93C2.99764 412.34 2.64764 405.74 2.32764 399.15C1.38764 379.72 0.737641 360.31 0.367641 340.9C0.157641 329.87 0.0376405 318.85 0.0176405 307.82C-0.0223595 299.96 0.00764023 292.1 0.0876402 284.26V283.96C0.19764 272.63 0.387641 181.49 0.697641 170.18C0.927641 161.14 1.21764 152.1 1.58764 143.05C2.07764 130.84 2.66764 118.61 3.37764 106.4C3.91764 97.2 5.83764 88.56 8.87764 80.79C11.5876 73.81 15.2176 67.56 19.5176 62.27C28.0076 50.3 39.7676 42.36 53.0476 41.02C112.018 35.1 246.638 35.1 305.588 41.02C318.868 42.36 330.628 50.3 339.118 62.27C344.608 68.99 348.968 77.28 351.788 86.64C353.658 92.8 354.868 99.44 355.268 106.39C356.008 119.24 356.638 132.11 357.128 144.96C357.508 154.61 357.818 164.28 358.048 173.93C358.288 183.71 358.448 273.29 358.548 283.07V283.15C358.638 291.7 358.658 300.24 358.638 308.79V308.8Z" fill="url(#paint0_radial_2010_6331)"/>
<path d="M358.388 319.93C358.238 329.32 358.028 338.72 357.728 348.11C357.238 364.13 356.568 380.16 355.698 396.2V396.22C355.568 398.75 355.418 401.28 355.268 403.81C354.248 421.27 348.218 436.75 339.118 447.92C330.628 459.89 318.868 467.83 305.588 469.17C246.638 475.09 112.018 475.09 53.0476 469.17C39.7676 467.83 28.0076 459.89 19.5176 447.92C10.8776 437.31 5.00764 422.83 3.56764 406.44C3.47764 405.58 3.41764 404.7 3.37764 403.82C2.40764 387.13 1.64764 370.44 1.10764 353.76C0.747642 342.72 0.46764 331.68 0.29764 320.63V320.61C0.0376404 306.22 -0.0323579 212.03 0.0376421 197.64V197.45C0.0576421 193.9 0.0876403 190.36 0.12764 186.81C0.22764 176.81 0.407641 166.81 0.667641 156.8C1.12764 138.43 1.84764 120.04 2.81764 101.65C2.99764 98.19 3.17764 94.72 3.38764 91.26C4.39764 73.78 10.4276 58.31 19.5276 47.14C28.0176 35.19 39.7776 27.23 53.0576 25.9C112.028 19.98 246.648 19.98 305.598 25.9C318.878 27.23 330.638 35.18 339.128 47.14C348.228 58.31 354.258 73.79 355.278 91.26C355.548 95.82 355.788 100.4 356.018 104.96C356.918 122.32 357.578 139.69 358.028 157.05C358.298 167.84 358.478 178.62 358.578 189.41C358.588 191.15 358.618 192.88 358.628 194.63V195.24C358.718 210.2 358.638 304.97 358.398 319.94L358.388 319.93Z" fill="url(#paint1_radial_2010_6331)"/>
<g style="mix-blend-mode:hard-light" opacity="0.2">
<path d="M355.278 82.88C354.268 65.32 348.228 49.76 339.138 38.53C330.648 26.5 318.888 18.52 305.608 17.18C246.648 11.23 112.028 11.23 53.0676 17.18C39.7876 18.52 28.0276 26.5 19.5376 38.53C10.4376 49.76 4.40764 65.31 3.39764 82.88C-1.10236 160.85 -1.10236 318.63 3.39764 396.61C4.40764 414.17 10.4476 429.73 19.5376 440.96C28.0276 452.99 39.7876 460.97 53.0676 462.31C112.028 468.26 246.648 468.26 305.608 462.31C318.888 460.97 330.648 452.99 339.138 440.96C348.238 429.73 354.268 414.18 355.278 396.61C359.778 318.64 359.778 160.86 355.278 82.88Z" fill="white"/>
</g>
<path d="M357.378 344.05C356.848 359.38 356.148 374.7 355.278 390.03C354.268 407.95 348.238 423.82 339.138 435.28C330.648 447.56 318.888 455.7 305.608 457.06C246.648 463.15 112.028 463.15 53.0676 457.06C39.7876 455.7 28.0276 447.56 19.5376 435.28C10.4376 423.83 4.40764 407.96 3.39764 390.03C2.59764 375.85 1.93764 361.65 1.41764 347.47C-0.962359 282.1 -0.302359 136.94 3.39764 71.58C4.40764 53.67 10.4376 37.8 19.5376 26.33C28.0276 14.07 39.7876 5.93 53.0676 4.55C112.028 -1.52 246.648 -1.52 305.608 4.55C318.888 5.93 330.648 14.07 339.138 26.33C348.238 37.8 354.268 53.67 355.278 71.58C358.908 135.8 359.618 279.83 357.378 344.06V344.05Z" fill="url(#paint2_radial_2010_6331)"/>
<path style="mix-blend-mode:overlay" opacity="0.6" d="M358.588 170.79C358.328 137.13 357.228 103.47 355.278 69.8C354.268 52.34 348.238 36.86 339.138 25.68C330.648 13.72 318.888 5.79 305.608 4.44C246.648 -1.48 112.028 -1.48 53.0676 4.44C39.7876 5.78 28.0276 13.72 19.5376 25.68C10.4376 36.86 4.40764 52.34 3.39764 69.8C1.40764 104.05 0.307641 138.29 0.0776405 172.53C1.13764 172.83 2.20764 173.15 3.26764 173.44C12.8676 176.14 22.4776 178.53 32.0676 180.61C35.4676 181.36 38.8776 182.06 42.2776 182.73C106.358 195.32 249.698 194.84 313.628 181.93C317.378 181.17 321.148 180.37 324.898 179.53C335.538 177.13 346.178 174.4 356.828 171.32C357.418 171.15 358.008 170.97 358.598 170.8L358.588 170.79Z" fill="url(#paint3_radial_2010_6331)"/>
<g style="mix-blend-mode:overlay">
<path d="M303.878 18.9764C305.418 15.4065 303.169 11.003 298.853 9.14096C294.538 7.2789 289.791 8.66341 288.25 12.2333C286.71 15.8033 288.96 20.2068 293.275 22.0688C297.59 23.9309 302.337 22.5464 303.878 18.9764Z" fill="url(#paint4_radial_2010_6331)"/>
<path d="M315.86 21.2844C316.689 19.3626 315.483 16.9939 313.165 15.994C310.848 14.994 308.297 15.7414 307.468 17.6633C306.639 19.5852 307.845 21.9538 310.162 22.9537C312.48 23.9537 315.031 23.2063 315.86 21.2844Z" fill="url(#paint5_radial_2010_6331)"/>
<path d="M352.698 336.05C352.698 347.67 348.648 357.1 346.288 357.1C343.928 357.1 346.998 350.2 346.998 338.58C346.998 326.96 343.928 315.01 346.288 315.01C348.648 315.01 352.698 324.43 352.698 336.06V336.05Z" fill="url(#paint6_radial_2010_6331)"/>
<path d="M344.885 78.2996C348.241 77.9451 350.388 72.2303 349.681 65.5352C348.974 58.8401 345.68 53.7 342.324 54.0545C338.968 54.409 336.821 60.1238 337.529 66.8189C338.236 73.514 341.53 78.6541 344.885 78.2996Z" fill="url(#paint7_radial_2010_6331)"/>
<path d="M347.023 95.6868C348.824 95.4965 349.977 92.426 349.597 88.8285C349.217 85.2311 347.448 82.469 345.647 82.6593C343.845 82.8496 342.693 85.9202 343.073 89.5176C343.453 93.1151 345.221 95.8771 347.023 95.6868Z" fill="url(#paint8_radial_2010_6331)"/>
<path d="M128.518 11.55C128.748 14.51 78.4176 15.47 60.4876 19.61C24.0776 28 25.9676 52.28 20.7176 52.24C15.3576 52.19 17.4276 20.12 59.6076 13.15C96.9776 6.96999 128.278 8.59999 128.518 11.56V11.55Z" fill="url(#paint9_radial_2010_6331)"/>
<path d="M19.5396 69.0223C20.5642 62.1338 19.6632 56.292 17.5273 55.9743C15.3914 55.6566 12.8293 60.9833 11.8047 67.8718C10.7801 74.7603 11.681 80.6021 13.817 80.9198C15.9529 81.2375 18.515 75.9108 19.5396 69.0223Z" fill="url(#paint10_radial_2010_6331)"/>
</g>
<g style="mix-blend-mode:overlay" opacity="0.4" filter="url(#filter0_f_2010_6331)">
<path d="M26.1576 58.17C34.1876 48.27 45.3076 41.69 57.8676 40.58C113.618 35.68 245.038 35.68 300.788 40.58C313.348 41.69 324.468 48.27 332.498 58.17C338.348 64.47 342.848 72.41 345.438 81.39C345.228 77.7 345.038 74.02 344.798 70.33C343.868 55.87 338.288 43.05 329.878 33.78C322.028 23.88 311.168 17.3 298.888 16.19C244.408 11.29 114.258 11.29 59.7676 16.19C47.4876 17.3 36.6276 23.88 28.7776 33.78C20.3676 43.04 14.7976 55.86 13.8576 70.33C13.6176 74.01 13.4276 77.7 13.2176 81.38C15.8076 72.4 20.3076 64.46 26.1576 58.17Z" fill="url(#paint11_linear_2010_6331)"/>
</g>
<g style="mix-blend-mode:soft-light" opacity="0.3">
<path d="M292.238 53.38C292.308 76.19 63.2976 77.03 63.2276 54.22C63.1576 31.41 23.4176 12.61 184.728 12.5C324.328 12.4 292.168 30.57 292.238 53.38Z" fill="white"/>
</g>
<g style="mix-blend-mode:soft-light" opacity="0.75" filter="url(#filter1_f_2010_6331)">
<path d="M337.098 348.98C328.748 360.75 317.188 368.56 304.128 369.87C246.148 375.7 112.508 375.7 54.5276 369.87C41.4676 368.56 29.8976 360.75 21.5576 348.98C20.1976 347.31 18.9176 345.53 17.6976 343.67C18.1576 356.19 18.7476 368.7 19.4776 381.22C20.3776 396.66 25.7076 410.33 33.7376 420.2C41.2376 430.77 51.6276 437.79 63.3676 438.97C115.458 444.2 243.208 444.2 295.298 438.97C307.028 437.79 317.418 430.78 324.928 420.2C332.968 410.33 338.298 396.66 339.188 381.22C339.918 368.7 340.508 356.19 340.968 343.67C339.748 345.53 338.468 347.31 337.108 348.98H337.098Z" fill="url(#paint12_linear_2010_6331)"/>
</g>
<path d="M20.1976 340.68C20.6876 354.43 21.3176 368.17 22.1176 381.92C23.0376 397.99 28.5576 412.23 36.8676 422.5C44.6276 433.51 55.3676 440.81 67.5076 442.03C121.388 447.49 234.338 447.49 288.218 442.03C300.358 440.81 311.108 433.51 318.858 422.5C327.168 412.23 332.688 398 333.608 381.92C334.348 369.2 334.938 356.47 335.418 343.75C337.598 285.13 336.988 145.9 333.608 87.28C332.688 71.22 327.168 56.99 318.858 46.7C311.098 35.7 300.358 28.4 288.218 27.17C234.338 21.72 121.388 21.72 67.5076 27.17C55.3676 28.41 44.6176 35.71 36.8676 46.7C28.5576 56.99 23.0376 71.22 22.1176 87.28C18.7976 144.88 18.1576 283.09 20.1976 340.69V340.68Z" fill="url(#paint13_radial_2010_6331)"/>
<path style="mix-blend-mode:overlay" d="M28.3576 236.62C28.6176 215.63 29.5976 85.69 31.2976 68.72C32.1976 59.69 37.5976 51.69 45.7476 45.91C53.3476 39.73 63.8676 35.63 75.7576 34.93C128.518 31.87 237.148 31.87 289.918 34.93C301.808 35.63 312.328 39.73 319.928 45.91C328.068 51.69 333.468 59.69 334.378 68.72C336.158 86.42 337.138 221.28 337.348 238.98C336.398 239.14 335.448 239.3 334.488 239.45C325.888 240.84 317.298 242.08 308.718 243.16C305.668 243.55 302.628 243.91 299.578 244.25C242.238 250.76 125.808 250.51 68.5976 243.84C65.2376 243.45 61.8676 243.03 58.5076 242.6C48.9476 241.35 39.3676 239.94 29.7876 238.33L28.3676 236.63L28.3576 236.62Z" fill="url(#paint14_radial_2010_6331)"/>
<g style="mix-blend-mode:overlay" opacity="0.15" filter="url(#filter2_f_2010_6331)">
<path d="M315.448 346.38C308.008 355.83 297.698 362.1 286.058 363.16C234.388 367.84 121.398 367.84 69.7176 363.16C58.0776 362.1 47.7676 355.82 40.3276 346.38C34.9076 340.37 30.7376 332.8 28.3376 324.23C28.5376 327.75 28.7176 331.26 28.9376 334.78C29.8076 348.58 34.9676 360.81 42.7676 369.65C50.0376 379.1 60.1176 385.37 71.4876 386.43C121.988 391.11 233.798 391.11 284.298 386.43C295.678 385.37 305.748 379.09 313.018 369.65C320.808 360.81 325.978 348.58 326.848 334.78C327.068 331.26 327.248 327.75 327.438 324.24C325.038 332.81 320.868 340.38 315.448 346.39V346.38Z" fill="url(#paint15_linear_2010_6331)"/>
</g>
<g style="mix-blend-mode:overlay" opacity="0.38" filter="url(#filter3_f_2010_6331)">
<path d="M315.448 78.6C308.008 69.15 297.698 62.88 286.058 61.82C234.388 57.14 121.398 57.14 69.7176 61.82C58.0776 62.88 47.7676 69.16 40.3276 78.6C34.9076 84.61 30.7376 92.18 28.3376 100.75C28.5376 97.23 28.7176 93.72 28.9376 90.2C29.8076 76.4 34.9676 64.17 42.7676 55.33C50.0376 45.88 60.1176 39.61 71.4876 38.55C121.988 33.87 233.798 33.87 284.298 38.55C295.678 39.61 305.748 45.89 313.018 55.33C320.808 64.17 325.978 76.4 326.848 90.2C327.068 93.72 327.248 97.23 327.438 100.74C325.038 92.17 320.868 84.6 315.448 78.59V78.6Z" fill="url(#paint16_linear_2010_6331)"/>
</g>
<g style="mix-blend-mode:multiply" opacity="0.25" filter="url(#filter4_f_2010_6331)">
<path d="M333.528 365.86C325.278 375.74 313.858 382.29 300.958 383.39C243.688 388.28 114.718 388.28 57.4476 383.39C44.5476 382.29 33.1276 375.74 24.8776 365.86C23.5376 364.46 22.2676 362.96 21.0676 361.4C21.5276 371.9 22.1076 382.41 22.8276 392.91C23.7176 405.87 28.9776 417.34 36.9176 425.62C44.3276 434.49 54.5876 440.38 66.1776 441.37C117.628 445.76 240.788 445.76 292.238 441.37C303.828 440.38 314.088 434.49 321.498 425.62C329.438 417.34 334.698 405.86 335.588 392.91C336.308 382.41 336.888 371.9 337.348 361.4C336.148 362.96 334.878 364.46 333.538 365.86H333.528Z" fill="url(#paint17_linear_2010_6331)"/>
</g>
<path style="mix-blend-mode:overlay" opacity="0.15" d="M9.46764 267.84L177.448 251.66L8.82764 255.11L9.46764 267.84ZM14.6176 299.06L177.438 251.66L11.9376 286.65L14.6176 299.06ZM24.7276 328.84L177.448 251.66L20.0876 317.12L24.7276 328.84ZM39.4676 356.27L177.438 251.66L33.0076 345.59L39.4576 356.27H39.4676ZM58.4076 380.52L177.448 251.65L50.3376 371.21L58.4076 380.52ZM80.9676 400.86L177.448 251.66L71.5176 393.21L80.9676 400.86ZM106.448 416.67L177.438 251.66L95.9076 410.9L106.448 416.67ZM134.088 427.46L177.438 251.66L122.778 423.76L134.088 427.47V427.46ZM163.048 432.91L177.438 251.66L151.308 431.38L163.038 432.91H163.048ZM192.448 432.85L177.448 251.66L180.648 433.55L192.448 432.86V432.85ZM221.388 427.29L177.448 251.66L209.878 430.18L221.388 427.29ZM248.998 416.39L177.448 251.66L238.128 421.39L248.998 416.39ZM274.428 400.48L177.448 251.65L264.538 407.44L274.438 400.48H274.428ZM296.918 380.06L177.448 251.66L288.288 388.77L296.918 380.06ZM315.768 355.73L177.448 251.66L308.678 365.93L315.778 355.73H315.768ZM330.418 328.24L177.438 251.66L325.068 339.61L330.418 328.24ZM340.428 298.42L177.448 251.65L336.988 310.62L340.428 298.42ZM345.478 267.18L177.438 251.65L344.058 279.83L345.478 267.17V267.18ZM345.428 235.48L177.448 251.66L346.068 248.21L345.438 235.48H345.428ZM340.278 204.26L177.448 251.66L342.948 216.68L340.278 204.26ZM330.168 174.48L177.448 251.66L334.808 186.21L330.168 174.48ZM315.418 147.05L177.438 251.66L321.868 157.73L315.418 147.05ZM296.488 122.79L177.448 251.66L304.558 132.1L296.488 122.79ZM273.938 102.45L177.448 251.65L283.388 110.1L273.938 102.44V102.45ZM248.448 86.65L177.448 251.66L258.988 92.42L248.448 86.65ZM220.798 75.85L177.438 251.65L232.108 79.55L220.798 75.84V75.85ZM191.848 70.4L177.448 251.65L203.578 71.93L191.848 70.4ZM162.448 70.46L177.448 251.66L174.248 69.78L162.448 70.47V70.46ZM133.508 76.02L177.448 251.65L145.018 73.13L133.508 76.02ZM105.898 86.92L177.448 251.66L116.768 81.92L105.898 86.92ZM80.4676 102.82L177.448 251.65L90.3676 95.86L80.4676 102.82ZM57.9776 123.25L177.448 251.65L66.6076 114.54L57.9776 123.25ZM39.1176 147.58L177.438 251.66L46.2076 137.39L39.1176 147.58ZM24.4676 175.07L177.448 251.66L29.8176 163.7L24.4776 175.07H24.4676ZM14.4576 204.89L177.438 251.66L17.8876 192.7L14.4476 204.89H14.4576ZM9.40764 236.12L177.448 251.65L10.8376 223.47L9.41764 236.12H9.40764Z" fill="url(#paint18_radial_2010_6331)"/>
<defs>
<filter id="filter0_f_2010_6331" x="5.21764" y="4.515" width="348.22" height="84.875" filterUnits="userSpaceOnUse" color-interpolation-filters="sRGB">
<feFlood flood-opacity="0" result="BackgroundImageFix"/>
<feBlend mode="normal" in="SourceGraphic" in2="BackgroundImageFix" result="shape"/>
<feGaussianBlur stdDeviation="4" result="effect1_foregroundBlur_2010_6331"/>
</filter>
<filter id="filter1_f_2010_6331" x="9.69764" y="335.67" width="339.27" height="115.223" filterUnits="userSpaceOnUse" color-interpolation-filters="sRGB">
<feFlood flood-opacity="0" result="BackgroundImageFix"/>
<feBlend mode="normal" in="SourceGraphic" in2="BackgroundImageFix" result="shape"/>
<feGaussianBlur stdDeviation="4" result="effect1_foregroundBlur_2010_6331"/>
</filter>
<filter id="filter2_f_2010_6331" x="20.3376" y="316.23" width="315.1" height="81.71" filterUnits="userSpaceOnUse" color-interpolation-filters="sRGB">
<feFlood flood-opacity="0" result="BackgroundImageFix"/>
<feBlend mode="normal" in="SourceGraphic" in2="BackgroundImageFix" result="shape"/>
<feGaussianBlur stdDeviation="4" result="effect1_foregroundBlur_2010_6331"/>
</filter>
<filter id="filter3_f_2010_6331" x="20.3376" y="27.04" width="315.1" height="81.71" filterUnits="userSpaceOnUse" color-interpolation-filters="sRGB">
<feFlood flood-opacity="0" result="BackgroundImageFix"/>
<feBlend mode="normal" in="SourceGraphic" in2="BackgroundImageFix" result="shape"/>
<feGaussianBlur stdDeviation="4" result="effect1_foregroundBlur_2010_6331"/>
</filter>
<filter id="filter4_f_2010_6331" x="13.0676" y="353.4" width="332.28" height="99.2625" filterUnits="userSpaceOnUse" color-interpolation-filters="sRGB">
<feFlood flood-opacity="0" result="BackgroundImageFix"/>
<feBlend mode="normal" in="SourceGraphic" in2="BackgroundImageFix" result="shape"/>
<feGaussianBlur stdDeviation="4" result="effect1_foregroundBlur_2010_6331"/>
</filter>
<radialGradient id="paint0_radial_2010_6331" cx="0" cy="0" r="1" gradientUnits="userSpaceOnUse" gradientTransform="translate(176.009 263.464) scale(200.339 265.384)">
<stop/>
<stop offset="0.84" stop-opacity="0.2"/>
</radialGradient>
<radialGradient id="paint1_radial_2010_6331" cx="0" cy="0" r="1" gradientUnits="userSpaceOnUse" gradientTransform="translate(179.899 207.985) rotate(-90.8168) scale(283.593 220.609)">
<stop stop-color="#26DAFD"/>
<stop offset="1" stop-color="#0A4DB1"/>
</radialGradient>
<radialGradient id="paint2_radial_2010_6331" cx="0" cy="0" r="1" gradientUnits="userSpaceOnUse" gradientTransform="translate(179.898 190.433) rotate(-90.8) scale(289.538 220.6)">
<stop stop-color="#26DAFD"/>
<stop offset="1" stop-color="#0A4DB1"/>
</radialGradient>
<radialGradient id="paint3_radial_2010_6331" cx="0" cy="0" r="1" gradientUnits="userSpaceOnUse" gradientTransform="translate(180.251 79.1665) rotate(-90.82) scale(208.1 163.216)">
<stop stop-color="white"/>
<stop offset="1" stop-color="white" stop-opacity="0"/>
</radialGradient>
<radialGradient id="paint4_radial_2010_6331" cx="0" cy="0" r="1" gradientUnits="userSpaceOnUse" gradientTransform="translate(-115.047 -83.4962) rotate(-165.22) scale(4.1551 13.476)">
<stop offset="0.51" stop-color="white"/>
<stop offset="1" stop-color="white" stop-opacity="0"/>
</radialGradient>
<radialGradient id="paint5_radial_2010_6331" cx="0" cy="0" r="1" gradientUnits="userSpaceOnUse" gradientTransform="translate(-92.6217 -78.2918) rotate(-165.22) scale(2.2311 7.23602)">
<stop offset="0.51" stop-color="white"/>
<stop offset="1" stop-color="white" stop-opacity="0"/>
</radialGradient>
<radialGradient id="paint6_radial_2010_6331" cx="0" cy="0" r="1" gradientUnits="userSpaceOnUse" gradientTransform="translate(351.406 339.159) rotate(-90.95) scale(20.9949 6.2538)">
<stop stop-color="white"/>
<stop offset="1" stop-color="white" stop-opacity="0"/>
</radialGradient>
<radialGradient id="paint7_radial_2010_6331" cx="0" cy="0" r="1" gradientUnits="userSpaceOnUse" gradientTransform="translate(278.786 -382.599) rotate(-96.24) scale(6.0048 11.6343)">
<stop offset="0.51" stop-color="white"/>
<stop offset="1" stop-color="white" stop-opacity="0"/>
</radialGradient>
<radialGradient id="paint8_radial_2010_6331" cx="0" cy="0" r="1" gradientUnits="userSpaceOnUse" gradientTransform="translate(282.549 -354.184) rotate(-96.24) scale(3.2304 6.2589)">
<stop offset="0.51" stop-color="white"/>
<stop offset="1" stop-color="white" stop-opacity="0"/>
</radialGradient>
<radialGradient id="paint9_radial_2010_6331" cx="0" cy="0" r="1" gradientUnits="userSpaceOnUse" gradientTransform="translate(51.3553 3.72045) rotate(-96.54) scale(29.81 108.508)">
<stop offset="0.51" stop-color="white"/>
<stop offset="1" stop-color="white" stop-opacity="0"/>
</radialGradient>
<radialGradient id="paint10_radial_2010_6331" cx="0" cy="0" r="1" gradientUnits="userSpaceOnUse" gradientTransform="translate(16.5342 68.7489) rotate(-84.43) scale(12.5424 3.5568)">
<stop offset="0.51" stop-color="white"/>
<stop offset="1" stop-color="white" stop-opacity="0"/>
</radialGradient>
<linearGradient id="paint11_linear_2010_6331" x1="179.328" y1="81.39" x2="179.328" y2="12.52" gradientUnits="userSpaceOnUse">
<stop stop-color="white" stop-opacity="0"/>
<stop offset="1" stop-color="white"/>
</linearGradient>
<linearGradient id="paint12_linear_2010_6331" x1="179.328" y1="441.83" x2="179.328" y2="328.06" gradientUnits="userSpaceOnUse">
<stop/>
<stop offset="0.09" stop-color="#0C0C0C"/>
<stop offset="0.24" stop-color="#2C2C2C"/>
<stop offset="0.46" stop-color="#616161"/>
<stop offset="0.71" stop-color="#AAAAAA"/>
<stop offset="0.98" stop-color="white"/>
</linearGradient>
<radialGradient id="paint13_radial_2010_6331" cx="0" cy="0" r="1" gradientUnits="userSpaceOnUse" gradientTransform="translate(177.471 199.668) rotate(-89.19) scale(258.116 201.892)">
<stop stop-color="#0093B0"/>
<stop offset="1" stop-color="#00317B"/>
</radialGradient>
<radialGradient id="paint14_radial_2010_6331" cx="0" cy="0" r="1" gradientUnits="userSpaceOnUse" gradientTransform="translate(181.726 135.279) rotate(-88.59) scale(137.78 186.124)">
<stop stop-color="white"/>
<stop offset="1" stop-color="white" stop-opacity="0"/>
</radialGradient>
<linearGradient id="paint15_linear_2010_6331" x1="177.888" y1="324.22" x2="177.888" y2="389.93" gradientUnits="userSpaceOnUse">
<stop stop-color="white" stop-opacity="0"/>
<stop offset="1" stop-color="white"/>
</linearGradient>
<linearGradient id="paint16_linear_2010_6331" x1="177.888" y1="100.75" x2="177.888" y2="35.04" gradientUnits="userSpaceOnUse">
<stop stop-color="white" stop-opacity="0"/>
<stop offset="1" stop-color="white"/>
</linearGradient>
<linearGradient id="paint17_linear_2010_6331" x1="179.198" y1="443.78" x2="179.198" y2="348.3" gradientUnits="userSpaceOnUse">
<stop/>
<stop offset="0.09" stop-color="#0C0C0C"/>
<stop offset="0.24" stop-color="#2C2C2C"/>
<stop offset="0.46" stop-color="#616161"/>
<stop offset="0.71" stop-color="#AAAAAA"/>
<stop offset="0.98" stop-color="white"/>
</linearGradient>
<radialGradient id="paint18_radial_2010_6331" cx="0" cy="0" r="1" gradientUnits="userSpaceOnUse" gradientTransform="translate(177.648 252.674) scale(192.044 198.666)">
<stop offset="0.37" stop-color="white"/>
<stop offset="0.42" stop-color="white" stop-opacity="0.96"/>
<stop offset="0.51" stop-color="white" stop-opacity="0.86"/>
<stop offset="0.62" stop-color="white" stop-opacity="0.7"/>
<stop offset="0.76" stop-color="white" stop-opacity="0.47"/>
<stop offset="0.91" stop-color="white" stop-opacity="0.19"/>
<stop offset="1" stop-color="white" stop-opacity="0"/>
</radialGradient>
</defs>
</svg>
