<svg width="359" height="491" viewBox="0 0 359 491" fill="none" xmlns="http://www.w3.org/2000/svg">
<path d="M358.64 308.8C358.62 317.79 358.53 326.8 358.37 335.8C358.08 353.55 357.54 371.28 356.78 389.03C356.35 399 355.86 408.97 355.27 418.94C354.25 436.42 351.27 463.05 332.22 478.12C310.67 495.17 202.49 489.27 154.56 489.27C95.3699 489.27 112.02 490.21 53.05 484.29C39.77 482.96 28.01 475.02 19.52 463.05C10.42 451.88 4.38996 436.4 3.37996 418.93C2.99996 412.34 2.64996 405.74 2.32996 399.15C1.38996 379.72 0.73996 360.31 0.36996 340.9C0.15996 329.87 0.0399599 318.85 0.0199599 307.82C-0.0200401 299.96 0.00995956 292.1 0.0899596 284.26V283.96C0.19996 272.63 0.38996 181.49 0.69996 170.18C0.92996 161.14 1.21996 152.1 1.58996 143.05C2.07996 130.84 2.66996 118.61 3.37996 106.4C3.91996 97.2 5.83996 88.56 8.87996 80.79C11.59 73.81 15.22 67.56 19.52 62.27C28.01 50.3 39.77 42.36 53.05 41.02C112.02 35.1 246.64 35.1 305.59 41.02C318.87 42.36 330.63 50.3 339.12 62.27C344.61 68.99 348.97 77.28 351.79 86.64C353.66 92.8 354.87 99.44 355.27 106.39C356.01 119.24 356.64 132.11 357.13 144.96C357.51 154.61 357.82 164.28 358.05 173.93C358.29 183.71 358.45 273.29 358.55 283.07V283.15C358.64 291.7 358.66 300.24 358.64 308.79V308.8Z" fill="url(#paint0_radial_2010_6967)"/>
<path d="M358.39 319.93C358.24 329.32 358.03 338.72 357.73 348.11C357.24 364.13 356.57 380.16 355.7 396.2V396.22C355.57 398.75 355.42 401.28 355.27 403.81C354.25 421.27 348.22 436.75 339.12 447.92C330.63 459.89 318.87 467.83 305.59 469.17C246.64 475.09 112.02 475.09 53.05 469.17C39.77 467.83 28.01 459.89 19.52 447.92C10.88 437.31 5.00995 422.83 3.56995 406.44C3.47995 405.58 3.41995 404.7 3.37995 403.82C2.40995 387.13 1.64995 370.44 1.10995 353.76C0.749952 342.72 0.46995 331.68 0.29995 320.63V320.61C0.0399502 306.22 -0.0300481 212.03 0.0399519 197.64V197.45C0.0599519 193.9 0.0899501 190.36 0.12995 186.81C0.22995 176.81 0.409951 166.81 0.669951 156.8C1.12995 138.43 1.84995 120.04 2.81995 101.65C2.99995 98.19 3.17995 94.72 3.38995 91.26C4.39995 73.78 10.4299 58.31 19.5299 47.14C28.0199 35.19 39.7799 27.23 53.0599 25.9C112.03 19.98 246.65 19.98 305.6 25.9C318.88 27.23 330.64 35.18 339.13 47.14C348.23 58.31 354.26 73.79 355.28 91.26C355.55 95.82 355.79 100.4 356.02 104.96C356.92 122.32 357.58 139.69 358.03 157.05C358.3 167.84 358.48 178.62 358.58 189.41C358.59 191.15 358.62 192.88 358.63 194.63V195.24C358.72 210.2 358.64 304.97 358.4 319.94L358.39 319.93Z" fill="url(#paint1_radial_2010_6967)"/>
<g style="mix-blend-mode:hard-light" opacity="0.2">
<path d="M355.28 82.88C354.27 65.32 348.23 49.76 339.14 38.53C330.65 26.5 318.89 18.52 305.61 17.18C246.65 11.23 112.03 11.23 53.07 17.18C39.79 18.52 28.03 26.5 19.54 38.53C10.44 49.76 4.40996 65.31 3.39996 82.88C-1.10004 160.85 -1.10004 318.63 3.39996 396.61C4.40996 414.17 10.45 429.73 19.54 440.96C28.03 452.99 39.79 460.97 53.07 462.31C112.03 468.26 246.65 468.26 305.61 462.31C318.89 460.97 330.65 452.99 339.14 440.96C348.24 429.73 354.27 414.18 355.28 396.61C359.78 318.64 359.78 160.86 355.28 82.88Z" fill="white"/>
</g>
<path d="M357.38 344.05C356.85 359.38 356.15 374.7 355.28 390.03C354.27 407.95 348.24 423.82 339.14 435.28C330.65 447.56 318.89 455.7 305.61 457.06C246.65 463.15 112.03 463.15 53.07 457.06C39.79 455.7 28.03 447.56 19.54 435.28C10.44 423.83 4.40996 407.96 3.39996 390.03C2.59996 375.85 1.93996 361.65 1.41996 347.47C-0.960041 282.1 -0.300042 136.94 3.39996 71.58C4.40996 53.67 10.44 37.8 19.54 26.33C28.03 14.07 39.79 5.93 53.07 4.55C112.03 -1.52 246.65 -1.52 305.61 4.55C318.89 5.93 330.65 14.07 339.14 26.33C348.24 37.8 354.27 53.67 355.28 71.58C358.91 135.8 359.62 279.83 357.38 344.06V344.05Z" fill="url(#paint2_radial_2010_6967)"/>
<path style="mix-blend-mode:overlay" opacity="0.6" d="M358.59 170.79C358.33 137.13 357.23 103.47 355.28 69.8C354.27 52.34 348.24 36.86 339.14 25.68C330.65 13.72 318.89 5.79 305.61 4.44C246.65 -1.48 112.03 -1.48 53.07 4.44C39.79 5.78 28.03 13.72 19.54 25.68C10.44 36.86 4.40996 52.34 3.39996 69.8C1.40996 104.05 0.309956 138.29 0.0799561 172.53C1.13996 172.83 2.20996 173.15 3.26996 173.44C12.87 176.14 22.48 178.53 32.07 180.61C35.47 181.36 38.88 182.06 42.28 182.73C106.36 195.32 249.7 194.84 313.63 181.93C317.38 181.17 321.15 180.37 324.9 179.53C335.54 177.13 346.18 174.4 356.83 171.32C357.42 171.15 358.01 170.97 358.6 170.8L358.59 170.79Z" fill="url(#paint3_radial_2010_6967)"/>
<g style="mix-blend-mode:overlay">
<path d="M303.88 18.9764C305.42 15.4065 303.171 11.003 298.856 9.14096C294.54 7.2789 289.793 8.66341 288.253 12.2333C286.712 15.8033 288.962 20.2068 293.277 22.0688C297.593 23.9309 302.34 22.5464 303.88 18.9764Z" fill="url(#paint4_radial_2010_6967)"/>
<path d="M315.862 21.2844C316.692 19.3626 315.485 16.9939 313.168 15.994C310.85 14.994 308.299 15.7414 307.47 17.6633C306.641 19.5852 307.847 21.9538 310.165 22.9537C312.482 23.9537 315.033 23.2063 315.862 21.2844Z" fill="url(#paint5_radial_2010_6967)"/>
<path d="M352.7 336.05C352.7 347.67 348.65 357.1 346.29 357.1C343.93 357.1 347 350.2 347 338.58C347 326.96 343.93 315.01 346.29 315.01C348.65 315.01 352.7 324.43 352.7 336.06V336.05Z" fill="url(#paint6_radial_2010_6967)"/>
<path d="M344.888 78.2996C348.243 77.9451 350.391 72.2303 349.683 65.5352C348.976 58.8401 345.682 53.7 342.327 54.0545C338.971 54.409 336.824 60.1238 337.531 66.8189C338.238 73.514 341.532 78.6541 344.888 78.2996Z" fill="url(#paint7_radial_2010_6967)"/>
<path d="M347.025 95.6868C348.827 95.4965 349.979 92.426 349.599 88.8285C349.219 85.2311 347.451 82.469 345.649 82.6593C343.848 82.8496 342.695 85.9202 343.075 89.5176C343.455 93.1151 345.224 95.8771 347.025 95.6868Z" fill="url(#paint8_radial_2010_6967)"/>
<path d="M128.52 11.55C128.75 14.51 78.42 15.47 60.49 19.61C24.08 28 25.97 52.28 20.72 52.24C15.36 52.19 17.43 20.12 59.61 13.15C96.98 6.96999 128.28 8.59999 128.52 11.56V11.55Z" fill="url(#paint9_radial_2010_6967)"/>
<path d="M19.5419 69.0223C20.5665 62.1338 19.6656 56.292 17.5296 55.9743C15.3937 55.6566 12.8316 60.9833 11.807 67.8718C10.7824 74.7603 11.6834 80.6021 13.8193 80.9198C15.9552 81.2375 18.5173 75.9108 19.5419 69.0223Z" fill="url(#paint10_radial_2010_6967)"/>
</g>
<g style="mix-blend-mode:overlay" opacity="0.4" filter="url(#filter0_f_2010_6967)">
<path d="M26.16 58.17C34.19 48.27 45.31 41.69 57.87 40.58C113.62 35.68 245.04 35.68 300.79 40.58C313.35 41.69 324.47 48.27 332.5 58.17C338.35 64.47 342.85 72.41 345.44 81.39C345.23 77.7 345.04 74.02 344.8 70.33C343.87 55.87 338.29 43.05 329.88 33.78C322.03 23.88 311.17 17.3 298.89 16.19C244.41 11.29 114.26 11.29 59.77 16.19C47.49 17.3 36.63 23.88 28.78 33.78C20.37 43.04 14.8 55.86 13.86 70.33C13.62 74.01 13.43 77.7 13.22 81.38C15.81 72.4 20.31 64.46 26.16 58.17Z" fill="url(#paint11_linear_2010_6967)"/>
</g>
<g style="mix-blend-mode:soft-light" opacity="0.3">
<path d="M292.24 53.38C292.31 76.19 63.3 77.03 63.23 54.22C63.16 31.41 23.42 12.61 184.73 12.5C324.33 12.4 292.17 30.57 292.24 53.38Z" fill="white"/>
</g>
<g style="mix-blend-mode:soft-light" opacity="0.75" filter="url(#filter1_f_2010_6967)">
<path d="M337.1 348.98C328.75 360.75 317.19 368.56 304.13 369.87C246.15 375.7 112.51 375.7 54.5299 369.87C41.4699 368.56 29.9 360.75 21.56 348.98C20.2 347.31 18.92 345.53 17.7 343.67C18.16 356.19 18.7499 368.7 19.4799 381.22C20.38 396.66 25.71 410.33 33.74 420.2C41.24 430.77 51.63 437.79 63.37 438.97C115.46 444.2 243.21 444.2 295.3 438.97C307.03 437.79 317.42 430.78 324.93 420.2C332.97 410.33 338.3 396.66 339.19 381.22C339.92 368.7 340.51 356.19 340.97 343.67C339.75 345.53 338.47 347.31 337.11 348.98H337.1Z" fill="url(#paint12_linear_2010_6967)"/>
</g>
<path d="M20.2 340.68C20.69 354.43 21.32 368.17 22.12 381.92C23.04 397.99 28.56 412.23 36.87 422.5C44.63 433.51 55.37 440.81 67.51 442.03C121.39 447.49 234.34 447.49 288.22 442.03C300.36 440.81 311.11 433.51 318.86 422.5C327.17 412.23 332.69 398 333.61 381.92C334.35 369.2 334.94 356.47 335.42 343.75C337.6 285.13 336.99 145.9 333.61 87.28C332.69 71.22 327.17 56.99 318.86 46.7C311.1 35.7 300.36 28.4 288.22 27.17C234.34 21.72 121.39 21.72 67.51 27.17C55.37 28.41 44.62 35.71 36.87 46.7C28.56 56.99 23.04 71.22 22.12 87.28C18.8 144.88 18.16 283.09 20.2 340.69V340.68Z" fill="url(#paint13_radial_2010_6967)"/>
<path style="mix-blend-mode:overlay" d="M28.36 236.62C28.62 215.63 29.6 85.69 31.3 68.72C32.2 59.69 37.6 51.69 45.75 45.91C53.35 39.73 63.87 35.63 75.76 34.93C128.52 31.87 237.15 31.87 289.92 34.93C301.81 35.63 312.33 39.73 319.93 45.91C328.07 51.69 333.47 59.69 334.38 68.72C336.16 86.42 337.14 221.28 337.35 238.98C336.4 239.14 335.45 239.3 334.49 239.45C325.89 240.84 317.3 242.08 308.72 243.16C305.67 243.55 302.63 243.91 299.58 244.25C242.24 250.76 125.81 250.51 68.6 243.84C65.24 243.45 61.87 243.03 58.51 242.6C48.95 241.35 39.37 239.94 29.79 238.33L28.37 236.63L28.36 236.62Z" fill="url(#paint14_radial_2010_6967)"/>
<g style="mix-blend-mode:overlay" opacity="0.15" filter="url(#filter2_f_2010_6967)">
<path d="M315.45 346.38C308.01 355.83 297.7 362.1 286.06 363.16C234.39 367.84 121.4 367.84 69.72 363.16C58.08 362.1 47.77 355.82 40.33 346.38C34.91 340.37 30.74 332.8 28.34 324.23C28.54 327.75 28.72 331.26 28.94 334.78C29.81 348.58 34.97 360.81 42.77 369.65C50.04 379.1 60.12 385.37 71.49 386.43C121.99 391.11 233.8 391.11 284.3 386.43C295.68 385.37 305.75 379.09 313.02 369.65C320.81 360.81 325.98 348.58 326.85 334.78C327.07 331.26 327.25 327.75 327.44 324.24C325.04 332.81 320.87 340.38 315.45 346.39V346.38Z" fill="url(#paint15_linear_2010_6967)"/>
</g>
<g style="mix-blend-mode:overlay" opacity="0.38" filter="url(#filter3_f_2010_6967)">
<path d="M315.45 78.6C308.01 69.15 297.7 62.88 286.06 61.82C234.39 57.14 121.4 57.14 69.72 61.82C58.08 62.88 47.77 69.16 40.33 78.6C34.91 84.61 30.74 92.18 28.34 100.75C28.54 97.23 28.72 93.72 28.94 90.2C29.81 76.4 34.97 64.17 42.77 55.33C50.04 45.88 60.12 39.61 71.49 38.55C121.99 33.87 233.8 33.87 284.3 38.55C295.68 39.61 305.75 45.89 313.02 55.33C320.81 64.17 325.98 76.4 326.85 90.2C327.07 93.72 327.25 97.23 327.44 100.74C325.04 92.17 320.87 84.6 315.45 78.59V78.6Z" fill="url(#paint16_linear_2010_6967)"/>
</g>
<g style="mix-blend-mode:multiply" opacity="0.25" filter="url(#filter4_f_2010_6967)">
<path d="M333.53 365.86C325.28 375.74 313.86 382.29 300.96 383.39C243.69 388.28 114.72 388.28 57.4499 383.39C44.5499 382.29 33.1299 375.74 24.8799 365.86C23.5399 364.46 22.2699 362.96 21.0699 361.4C21.5299 371.9 22.1099 382.41 22.8299 392.91C23.7199 405.87 28.9799 417.34 36.9199 425.62C44.3299 434.49 54.5899 440.38 66.1799 441.37C117.63 445.76 240.79 445.76 292.24 441.37C303.83 440.38 314.09 434.49 321.5 425.62C329.44 417.34 334.7 405.86 335.59 392.91C336.31 382.41 336.89 371.9 337.35 361.4C336.15 362.96 334.88 364.46 333.54 365.86H333.53Z" fill="url(#paint17_linear_2010_6967)"/>
</g>
<path style="mix-blend-mode:overlay" opacity="0.15" d="M9.46996 267.84L177.45 251.66L8.82996 255.11L9.46996 267.84ZM14.62 299.06L177.44 251.66L11.94 286.65L14.62 299.06ZM24.73 328.84L177.45 251.66L20.09 317.12L24.73 328.84ZM39.47 356.27L177.44 251.66L33.01 345.59L39.46 356.27H39.47ZM58.41 380.52L177.45 251.65L50.34 371.21L58.41 380.52ZM80.97 400.86L177.45 251.66L71.52 393.21L80.97 400.86ZM106.45 416.67L177.44 251.66L95.91 410.9L106.45 416.67ZM134.09 427.46L177.44 251.66L122.78 423.76L134.09 427.47V427.46ZM163.05 432.91L177.44 251.66L151.31 431.38L163.04 432.91H163.05ZM192.45 432.85L177.45 251.66L180.65 433.55L192.45 432.86V432.85ZM221.39 427.29L177.45 251.66L209.88 430.18L221.39 427.29ZM249 416.39L177.45 251.66L238.13 421.39L249 416.39ZM274.43 400.48L177.45 251.65L264.54 407.44L274.44 400.48H274.43ZM296.92 380.06L177.45 251.66L288.29 388.77L296.92 380.06ZM315.77 355.73L177.45 251.66L308.68 365.93L315.78 355.73H315.77ZM330.42 328.24L177.44 251.66L325.07 339.61L330.42 328.24ZM340.43 298.42L177.45 251.65L336.99 310.62L340.43 298.42ZM345.48 267.18L177.44 251.65L344.06 279.83L345.48 267.17V267.18ZM345.43 235.48L177.45 251.66L346.07 248.21L345.44 235.48H345.43ZM340.28 204.26L177.45 251.66L342.95 216.68L340.28 204.26ZM330.17 174.48L177.45 251.66L334.81 186.21L330.17 174.48ZM315.42 147.05L177.44 251.66L321.87 157.73L315.42 147.05ZM296.49 122.79L177.45 251.66L304.56 132.1L296.49 122.79ZM273.94 102.45L177.45 251.65L283.39 110.1L273.94 102.44V102.45ZM248.45 86.65L177.45 251.66L258.99 92.42L248.45 86.65ZM220.8 75.85L177.44 251.65L232.11 79.55L220.8 75.84V75.85ZM191.85 70.4L177.45 251.65L203.58 71.93L191.85 70.4ZM162.45 70.46L177.45 251.66L174.25 69.78L162.45 70.47V70.46ZM133.51 76.02L177.45 251.65L145.02 73.13L133.51 76.02ZM105.9 86.92L177.45 251.66L116.77 81.92L105.9 86.92ZM80.47 102.82L177.45 251.65L90.37 95.86L80.47 102.82ZM57.98 123.25L177.45 251.65L66.61 114.54L57.98 123.25ZM39.12 147.58L177.44 251.66L46.21 137.39L39.12 147.58ZM24.47 175.07L177.45 251.66L29.82 163.7L24.48 175.07H24.47ZM14.46 204.89L177.44 251.66L17.89 192.7L14.45 204.89H14.46ZM9.40996 236.12L177.45 251.65L10.84 223.47L9.41996 236.12H9.40996Z" fill="url(#paint18_radial_2010_6967)"/>
<defs>
<filter id="filter0_f_2010_6967" x="5.21997" y="4.515" width="348.22" height="84.875" filterUnits="userSpaceOnUse" color-interpolation-filters="sRGB">
<feFlood flood-opacity="0" result="BackgroundImageFix"/>
<feBlend mode="normal" in="SourceGraphic" in2="BackgroundImageFix" result="shape"/>
<feGaussianBlur stdDeviation="4" result="effect1_foregroundBlur_2010_6967"/>
</filter>
<filter id="filter1_f_2010_6967" x="9.69995" y="335.67" width="339.27" height="115.223" filterUnits="userSpaceOnUse" color-interpolation-filters="sRGB">
<feFlood flood-opacity="0" result="BackgroundImageFix"/>
<feBlend mode="normal" in="SourceGraphic" in2="BackgroundImageFix" result="shape"/>
<feGaussianBlur stdDeviation="4" result="effect1_foregroundBlur_2010_6967"/>
</filter>
<filter id="filter2_f_2010_6967" x="20.34" y="316.23" width="315.1" height="81.71" filterUnits="userSpaceOnUse" color-interpolation-filters="sRGB">
<feFlood flood-opacity="0" result="BackgroundImageFix"/>
<feBlend mode="normal" in="SourceGraphic" in2="BackgroundImageFix" result="shape"/>
<feGaussianBlur stdDeviation="4" result="effect1_foregroundBlur_2010_6967"/>
</filter>
<filter id="filter3_f_2010_6967" x="20.34" y="27.04" width="315.1" height="81.71" filterUnits="userSpaceOnUse" color-interpolation-filters="sRGB">
<feFlood flood-opacity="0" result="BackgroundImageFix"/>
<feBlend mode="normal" in="SourceGraphic" in2="BackgroundImageFix" result="shape"/>
<feGaussianBlur stdDeviation="4" result="effect1_foregroundBlur_2010_6967"/>
</filter>
<filter id="filter4_f_2010_6967" x="13.0699" y="353.4" width="332.28" height="99.2625" filterUnits="userSpaceOnUse" color-interpolation-filters="sRGB">
<feFlood flood-opacity="0" result="BackgroundImageFix"/>
<feBlend mode="normal" in="SourceGraphic" in2="BackgroundImageFix" result="shape"/>
<feGaussianBlur stdDeviation="4" result="effect1_foregroundBlur_2010_6967"/>
</filter>
<radialGradient id="paint0_radial_2010_6967" cx="0" cy="0" r="1" gradientUnits="userSpaceOnUse" gradientTransform="translate(175.355 263.464) scale(200.339 265.384)">
<stop/>
<stop offset="0.84" stop-opacity="0.2"/>
</radialGradient>
<radialGradient id="paint1_radial_2010_6967" cx="0" cy="0" r="1" gradientUnits="userSpaceOnUse" gradientTransform="translate(180.539 248.535) scale(158.342 474.394)">
<stop stop-color="#2CFCE5"/>
<stop offset="1" stop-color="#049CA8"/>
</radialGradient>
<radialGradient id="paint2_radial_2010_6967" cx="0" cy="0" r="1" gradientUnits="userSpaceOnUse" gradientTransform="translate(180.538 231.834) scale(158.335 484.34)">
<stop stop-color="#2CFCE5"/>
<stop offset="1" stop-color="#049CA8"/>
</radialGradient>
<radialGradient id="paint3_radial_2010_6967" cx="0" cy="0" r="1" gradientUnits="userSpaceOnUse" gradientTransform="translate(180.24 79.0891) rotate(-90.82) scale(208.1 163.216)">
<stop stop-color="white"/>
<stop offset="1" stop-color="white" stop-opacity="0"/>
</radialGradient>
<radialGradient id="paint4_radial_2010_6967" cx="0" cy="0" r="1" gradientUnits="userSpaceOnUse" gradientTransform="translate(73.8788 -37.6524) rotate(-165.22) scale(4.1551 13.476)">
<stop offset="0.51" stop-color="white"/>
<stop offset="1" stop-color="white" stop-opacity="0"/>
</radialGradient>
<radialGradient id="paint5_radial_2010_6967" cx="0" cy="0" r="1" gradientUnits="userSpaceOnUse" gradientTransform="translate(96.3003 -32.4388) rotate(-165.22) scale(2.2311 7.23602)">
<stop offset="0.51" stop-color="white"/>
<stop offset="1" stop-color="white" stop-opacity="0"/>
</radialGradient>
<radialGradient id="paint6_radial_2010_6967" cx="0" cy="0" r="1" gradientUnits="userSpaceOnUse" gradientTransform="translate(351.405 338.384) rotate(-90.95) scale(20.9949 6.2538)">
<stop stop-color="white"/>
<stop offset="1" stop-color="white" stop-opacity="0"/>
</radialGradient>
<radialGradient id="paint7_radial_2010_6967" cx="0" cy="0" r="1" gradientUnits="userSpaceOnUse" gradientTransform="translate(282.328 -357.84) rotate(-96.24) scale(6.0048 11.6343)">
<stop offset="0.51" stop-color="white"/>
<stop offset="1" stop-color="white" stop-opacity="0"/>
</radialGradient>
<radialGradient id="paint8_radial_2010_6967" cx="0" cy="0" r="1" gradientUnits="userSpaceOnUse" gradientTransform="translate(286.089 -329.44) rotate(-96.24) scale(3.2304 6.2589)">
<stop offset="0.51" stop-color="white"/>
<stop offset="1" stop-color="white" stop-opacity="0"/>
</radialGradient>
<radialGradient id="paint9_radial_2010_6967" cx="0" cy="0" r="1" gradientUnits="userSpaceOnUse" gradientTransform="translate(50.3836 0.734062) rotate(-96.54) scale(29.81 108.508)">
<stop offset="0.51" stop-color="white"/>
<stop offset="1" stop-color="white" stop-opacity="0"/>
</radialGradient>
<radialGradient id="paint10_radial_2010_6967" cx="0" cy="0" r="1" gradientUnits="userSpaceOnUse" gradientTransform="translate(16.776 68.3438) rotate(-84.43) scale(12.5424 3.5568)">
<stop offset="0.51" stop-color="white"/>
<stop offset="1" stop-color="white" stop-opacity="0"/>
</radialGradient>
<linearGradient id="paint11_linear_2010_6967" x1="179.33" y1="81.39" x2="179.33" y2="12.52" gradientUnits="userSpaceOnUse">
<stop stop-color="white" stop-opacity="0"/>
<stop offset="1" stop-color="white"/>
</linearGradient>
<linearGradient id="paint12_linear_2010_6967" x1="179.33" y1="441.83" x2="179.33" y2="328.06" gradientUnits="userSpaceOnUse">
<stop/>
<stop offset="0.09" stop-color="#0C0C0C"/>
<stop offset="0.24" stop-color="#2C2C2C"/>
<stop offset="0.46" stop-color="#616161"/>
<stop offset="0.71" stop-color="#AAAAAA"/>
<stop offset="0.98" stop-color="white"/>
</linearGradient>
<radialGradient id="paint13_radial_2010_6967" cx="0" cy="0" r="1" gradientUnits="userSpaceOnUse" gradientTransform="translate(178.929 235.54) scale(140.246 443.855)">
<stop stop-color="#1FB0A0"/>
<stop offset="1" stop-color="#036D75"/>
</radialGradient>
<radialGradient id="paint14_radial_2010_6967" cx="0" cy="0" r="1" gradientUnits="userSpaceOnUse" gradientTransform="translate(181.718 137.543) rotate(-88.59) scale(137.78 186.124)">
<stop stop-color="white"/>
<stop offset="1" stop-color="white" stop-opacity="0"/>
</radialGradient>
<linearGradient id="paint15_linear_2010_6967" x1="177.89" y1="324.22" x2="177.89" y2="389.93" gradientUnits="userSpaceOnUse">
<stop stop-color="white" stop-opacity="0"/>
<stop offset="1" stop-color="white"/>
</linearGradient>
<linearGradient id="paint16_linear_2010_6967" x1="177.89" y1="100.75" x2="177.89" y2="35.04" gradientUnits="userSpaceOnUse">
<stop stop-color="white" stop-opacity="0"/>
<stop offset="1" stop-color="white"/>
</linearGradient>
<linearGradient id="paint17_linear_2010_6967" x1="179.2" y1="443.78" x2="179.2" y2="348.3" gradientUnits="userSpaceOnUse">
<stop/>
<stop offset="0.09" stop-color="#0C0C0C"/>
<stop offset="0.24" stop-color="#2C2C2C"/>
<stop offset="0.46" stop-color="#616161"/>
<stop offset="0.71" stop-color="#AAAAAA"/>
<stop offset="0.98" stop-color="white"/>
</linearGradient>
<radialGradient id="paint18_radial_2010_6967" cx="0" cy="0" r="1" gradientUnits="userSpaceOnUse" gradientTransform="translate(177.689 252.674) scale(192.044 198.666)">
<stop offset="0.37" stop-color="white"/>
<stop offset="0.42" stop-color="white" stop-opacity="0.96"/>
<stop offset="0.51" stop-color="white" stop-opacity="0.86"/>
<stop offset="0.62" stop-color="white" stop-opacity="0.7"/>
<stop offset="0.76" stop-color="white" stop-opacity="0.47"/>
<stop offset="0.91" stop-color="white" stop-opacity="0.19"/>
<stop offset="1" stop-color="white" stop-opacity="0"/>
</radialGradient>
</defs>
</svg>
