<svg width="162" height="173" viewBox="0 0 162 173" fill="none" xmlns="http://www.w3.org/2000/svg">
<path d="M46.0913 107.202C50.5573 102.7 50.399 95.3373 45.7378 90.7578C41.0766 86.1783 33.6775 86.1159 29.2115 90.6185C24.7455 95.121 24.9037 102.483 29.565 107.063C34.2262 111.642 41.6253 111.705 46.0913 107.202Z" fill="url(#paint0_radial_473_10872)"/>
<path opacity="0.15" d="M30.2229 100.81C30.0836 100.762 29.95 100.731 29.8256 100.716C28.8363 100.607 27.9193 100.552 27.0264 100.637L26.1132 100.439C25.547 96.9436 26.5698 93.2839 29.2112 90.6237C32.5042 87.3058 37.3879 86.4689 41.596 88.0928L41.609 88.1002C41.609 88.1002 34.7205 87.3132 32.6007 93.4742C31.1083 97.8137 31.3477 100.112 31.6225 101.093C31.1955 100.984 30.7315 100.886 30.2229 100.812V100.81Z" fill="white"/>
<path d="M33.0669 92.2277C34.3453 91.4184 35.0146 90.1879 34.5618 89.4794C34.109 88.7709 32.7055 88.8526 31.427 89.662C30.1485 90.4713 29.4792 91.7018 29.932 92.4103C30.3849 93.1188 31.7884 93.0371 33.0669 92.2277Z" fill="white"/>
<path d="M29.4748 95.5514C29.9104 94.9369 29.9796 94.2395 29.6294 93.9937C29.2792 93.7478 28.6423 94.0467 28.2068 94.6611C27.7713 95.2756 27.7021 95.973 28.0522 96.2188C28.4024 96.4646 29.0393 96.1658 29.4748 95.5514Z" fill="white"/>
<path opacity="0.5" d="M35.0417 104.98C35.4538 106.58 37.93 110.182 41.6109 109.92C41.6109 109.92 41.5552 109.955 41.4531 110.02C37.4473 111.267 32.8327 110.28 29.5639 107.069C27.743 105.281 26.6125 103.066 26.1744 100.764C27.3402 100.522 28.5189 100.572 29.8275 100.716C31.6763 100.921 35.0435 104.98 35.0435 104.98H35.0417Z" fill="url(#paint1_linear_473_10872)"/>
<path d="M27.8469 100.655C27.8469 100.655 24.7823 103.982 21.5487 106.17L25.9721 111.021C25.9721 111.021 29.963 108.63 35.8343 106.524C35.8343 106.524 34.8783 105.045 34.9117 102.53C34.9117 102.53 32.4782 100.607 27.8451 100.657L27.8469 100.655Z" fill="#344077"/>
<path d="M30.0874 107.358C30.0874 107.358 28.723 106.7 29.304 106.445C29.885 106.19 31.6819 105.968 31.6819 105.968C31.6819 105.968 28.9848 104.01 29.085 103.526C29.1871 103.042 32.404 103.892 32.404 103.892C32.404 103.892 32.4002 103.454 29.9853 102.565C28.7806 102.122 27.6446 101.867 26.8074 101.723C27.4552 101.08 27.845 100.655 27.845 100.655C32.4801 100.607 34.9117 102.528 34.9117 102.528C34.8783 105.043 35.8343 106.523 35.8343 106.523C29.963 108.629 25.9721 111.019 25.9721 111.019L24.6226 109.539L30.0855 107.356L30.0874 107.358Z" fill="#28315A"/>
<path d="M24.1069 115.141C27.1706 114.65 29.1135 110.911 28.4466 106.79C27.7797 102.669 24.7554 99.7266 21.6917 100.218C18.628 100.709 16.6851 104.448 17.352 108.568C18.0189 112.689 21.0432 115.632 24.1069 115.141Z" fill="url(#paint2_radial_473_10872)"/>
<path style="mix-blend-mode:multiply" opacity="0.3" d="M22.9334 112.776C25.5489 112.392 27.1898 109.34 26.5958 105.959C26.0315 102.745 23.6518 100.395 21.17 100.504C18.5119 101.141 16.8505 104.317 17.2533 107.956C18.0311 111.017 20.4758 113.138 22.9334 112.776Z" fill="url(#paint3_radial_473_10872)"/>
<g opacity="0.4">
<path d="M17.2998 107.943C18.1035 109.742 19.3899 111.412 21.3129 111.978C22.629 112.318 23.8671 111.908 24.7395 110.864C27.0079 107.987 25.8904 102.708 22.6234 100.999C22.1817 100.773 21.6953 100.618 21.1737 100.548L21.17 100.456C22.7886 100.385 24.2848 101.333 25.2259 102.593C26.8167 104.682 27.277 107.657 26.2598 110.093C24.7098 113.624 20.8136 113.74 18.5601 110.794C17.9067 109.962 17.4724 108.979 17.2088 107.967L17.2979 107.945L17.2998 107.943Z" fill="#5E5E5E"/>
</g>
<path d="M14.9424 97.0749C14.6324 99.1052 15.1985 99.4248 16.3642 99.9051C17.5299 100.385 22.0462 101.749 22.0462 101.749C22.0462 101.749 24.8361 104.171 22.5102 107.18C20.1862 110.19 17.9587 108.357 17.9587 108.357C17.9587 108.357 13.0935 105.765 9.00055 102.019L12.223 95.7559L14.9405 97.0749H14.9424Z" fill="url(#paint4_linear_473_10872)"/>
<path d="M9.88599 102.798C13.7637 106.118 17.9625 108.357 17.9625 108.357C17.9625 108.357 19.841 109.898 21.9478 107.821C20.0266 107.254 15.3582 105.547 10.7027 101.324L9.88784 102.8L9.88599 102.798Z" fill="url(#paint5_linear_473_10872)"/>
<path d="M13.1659 98.9204L19.6665 103.118L12.507 99.6113L13.1659 98.9204Z" fill="#5E5E5E"/>
<path d="M7.32992 103.461C8.20235 103.421 11.2763 103.465 13.1678 101.616C14.6249 100.053 15.5753 97.5809 14.7846 95.5507C13.7822 92.9772 1.35099 87.98 3.76966 92.5209C3.81421 92.7334 3.68613 92.944 3.48009 93.0271C2.70604 93.3449 1.12639 93.7827 1.98211 95.6153C2.10091 95.8703 1.95055 96.1566 1.66841 96.2139C-0.0727399 96.5649 -0.397581 98.3291 0.610354 99.6833C1.43638 100.492 4.4936 103.541 7.32806 103.461H7.32992Z" fill="#B45F28"/>
<path d="M2.74133 98.6267C4.30985 99.0313 5.86723 99.4082 7.47102 99.3897C7.61209 99.3804 7.89609 99.3712 8.03902 99.3675C9.00055 99.2973 10.0864 99.7518 10.4633 100.679C10.6285 101.063 10.7046 101.472 10.6582 101.865C10.4131 101.124 9.94538 100.504 9.32911 100.265C8.65529 99.9827 7.89609 100.182 7.18887 100.167C5.58323 100.132 4.00914 99.5929 2.74133 98.6267Z" fill="#84471F"/>
<path d="M8.72582 91.4033L8.78707 91.3682C9.55556 90.9138 9.80429 89.9384 9.34395 89.1902L8.44367 87.727C7.98333 86.9788 6.98653 86.7387 6.21805 87.1931L6.15679 87.2282C5.38831 87.6827 5.13957 88.6581 5.59992 89.4063L6.50019 90.8694C6.96054 91.6176 7.95734 91.8578 8.72582 91.4033Z" fill="#D17735"/>
<path d="M11.8313 93.5684L10.7009 97.2817L5.01893 99.2325L3.09216 99.1198L4.06854 95.2422L5.88394 92.4434L11.2169 92.9551L11.8313 93.5684Z" fill="#84471F"/>
<path d="M7.09977 93.9732L7.15546 93.9307C7.86454 93.3931 7.99633 92.3955 7.44874 91.7046L6.37955 90.3541C5.83196 89.6632 4.81289 89.5394 4.10381 90.077L4.04812 90.1195C3.33904 90.6571 3.20725 91.6547 3.75484 92.3456L4.82403 93.6961C5.37162 94.387 6.39069 94.5108 7.09977 93.9732Z" fill="#D17735"/>
<path d="M5.96191 96.8272L6.00646 96.7736C6.58003 96.0993 6.48908 95.0999 5.80227 94.5401L4.45836 93.4483C3.77155 92.8904 2.74691 92.9846 2.17334 93.6589L2.12879 93.7125C1.55521 94.3868 1.64617 95.3862 2.33297 95.946L3.67688 97.0378C4.36369 97.5957 5.38833 97.5015 5.96191 96.8272Z" fill="#D17735"/>
<path d="M4.59755 99.4451L4.63096 99.3841C5.05418 98.6101 4.75718 97.6513 3.96643 97.2412L2.42204 96.4394C1.63129 96.0293 0.64934 96.3249 0.226118 97.0989L0.192706 97.1599C-0.230515 97.9339 0.0664821 98.8927 0.857238 99.3029L2.40162 100.105C3.19238 100.515 4.17433 100.219 4.59755 99.4451Z" fill="#D17735"/>
<path d="M14.7864 95.5507C14.7864 95.5507 14.0903 93.2931 14.2537 92.0295C14.4152 90.7659 12.6072 89.9734 10.9552 90.3133C9.5704 90.5978 7.8274 91.0966 6.98095 91.346C6.67282 91.4365 6.4872 91.7395 6.54845 92.0462C6.69324 92.7629 7.11832 93.9065 8.33601 93.7328C10.6192 93.4058 11.3134 93.816 11.3134 93.816C11.3134 93.816 9.76531 97.2576 10.6396 98.3347C11.5139 99.4136 14.9683 100.751 14.7864 95.5488V95.5507Z" fill="url(#paint6_linear_473_10872)"/>
<path d="M6.97908 91.346C7.445 91.2093 8.18564 90.995 8.98567 90.7844C7.94061 91.1742 6.85657 91.6268 6.85472 91.8245C6.85286 92.2069 6.99022 93.4447 7.8775 93.4908C8.7258 93.5352 10.2015 93.3357 11.1667 93.7569C10.866 93.6571 10.0474 93.4872 8.33228 93.7329C7.11459 93.9065 6.69137 92.763 6.54473 92.0462C6.48161 91.7395 6.66909 91.4365 6.97723 91.346H6.97908Z" fill="#B45F28"/>
<path d="M117.263 65.394L99.6126 112.551C99.6126 112.551 45.1729 110.648 36.3168 104.658C36.3168 104.658 33.5585 76.7702 33.978 68.3553C34.4458 58.9539 39.6377 20.8921 39.6377 20.8921L105.974 35.6953L117.265 65.3958L117.263 65.394Z" fill="#D17735"/>
<path d="M117.264 65.3939L99.0613 113.014L86.335 111.856L106.386 36.7815L117.264 65.3939Z" fill="url(#paint7_linear_473_10872)"/>
<path d="M84.4564 111.791C84.4843 111.671 84.5047 111.568 84.5344 111.446C89.1249 91.5291 100.431 53.5061 100.431 53.5061L105.41 52.405L88.943 112.052C87.5396 111.974 86.0361 111.889 84.4546 111.791H84.4564Z" fill="#783A19"/>
<path d="M40.6289 42.4844L42.5093 26.3862L69.2483 28.5643L65.1832 45.0541L40.6289 42.4844Z" fill="#B45F28"/>
<path d="M67.7874 45.5142L71.3941 29.8889L101.697 43.9254L98.6436 54.692L67.7874 45.5142Z" fill="#B45F28"/>
<path d="M99.5476 46.9552L100.656 47.5981L100.533 48.0286L98.6436 54.6921L98.0997 54.5314L67.7874 45.5143L68.0714 44.2876L97.7582 53.3066L99.5476 46.9552Z" fill="#693919"/>
<path d="M64.8193 45.0153L40.6289 42.4825L40.7347 41.5717L63.817 43.5965L67.5684 28.5476L69.1184 29.0907L65.1832 45.0541L64.8193 45.0153Z" fill="#693919"/>
<path d="M34.6629 66.0498L29.9258 69.9885L33.0592 77.6071C33.0592 77.6071 33.8276 77.5757 35.1381 77.4261C34.8356 70.9657 34.6629 66.0498 34.6629 66.0498Z" fill="#666666"/>
<path d="M38.858 26.6892L40.7477 27.1548C40.7477 27.1548 35.4388 63.4099 35.4704 70.3708C35.4982 76.4802 37.1503 99.737 37.5531 105.335C37.0798 105.115 36.6603 104.889 36.3168 104.658C36.3168 104.658 33.5585 76.7702 33.978 68.3553C34.3325 61.2392 37.3916 37.7126 38.858 26.6911V26.6892Z" fill="#783A19"/>
<path d="M119.058 65.3276C119.058 65.3276 127.664 50.0441 117.442 28.8711C112.942 19.551 95.6681 -0.912594 64.7376 6.88156C56.7893 8.88413 40.2019 21.4298 40.2019 21.4298C38.7522 21.4187 37.4566 33.2457 37.8427 33.8849C37.8427 33.8849 55.1502 26.9332 69.4451 31.2745C82.4981 35.2372 100.934 50.3489 113.111 75.0134L119.058 65.3313V65.3276Z" fill="url(#paint8_radial_473_10872)"/>
<path style="mix-blend-mode:multiply" opacity="0.35" d="M114.565 64.8692C114.565 64.8692 115.042 64.0213 115.632 62.451C117.507 57.4612 120.521 45.1779 113 29.5988C108.647 20.5817 91.9352 0.783137 62.009 8.32235C54.3205 10.2603 38.2715 22.3976 38.2715 22.3976C36.8682 22.3884 35.6152 33.8293 35.9883 34.4482C35.9883 34.4482 52.7334 27.7237 66.5642 31.921C79.1922 35.7543 114.565 64.8692 114.565 64.8692Z" fill="url(#paint9_radial_473_10872)"/>
<path d="M105.2 60.4004L103.641 74.544L96.7948 80.2359L97.5744 87.7381C97.5744 87.7381 104.507 87.7381 112.653 84.4608C120.798 81.1836 121.924 78.3386 121.924 78.3386C121.924 78.3386 118.199 75.4917 116.205 70.7495C114.212 66.0054 113.607 63.2472 113.607 63.2472L105.202 60.4004H105.2Z" fill="url(#paint10_linear_473_10872)"/>
<path style="mix-blend-mode:multiply" opacity="0.25" d="M118.401 78.4531C118.401 78.4531 115.153 75.222 113.013 70.1306C110.986 65.3071 110.295 62.3956 110.228 62.1018L105.202 60.4004L103.642 74.544L96.7966 80.2359L97.5001 87.001C111.828 85.5065 118.403 78.4531 118.403 78.4531H118.401Z" fill="url(#paint11_linear_473_10872)"/>
<path d="M103.641 74.5442L96.7948 80.236L97.5744 87.7383C97.5744 87.7383 97.9921 87.7383 98.7383 87.6902L98.2222 80.5704L104.864 75.7228L106.989 61.2688L105.155 60.7996L103.639 74.5423L103.641 74.5442Z" fill="#454545"/>
<path d="M121.895 68.8608C124.594 62.8153 124.112 56.7335 120.818 55.2767C117.524 53.8199 112.666 57.5397 109.967 63.5852C107.267 69.6307 107.749 75.7125 111.043 77.1693C114.337 78.6261 119.195 74.9062 121.895 68.8608Z" fill="#454545"/>
<path d="M110.746 67.2136C110.746 67.2136 91.7421 47.5297 64.7321 43.4968C40.4692 39.8741 36.9164 46.3436 36.9164 46.3436L33.6235 45.7395C33.6235 45.7395 32.4967 36.5986 33.9706 25.2132C44.6291 12.5363 60.0525 4.60179 71.6651 0.118164C97.0547 13.4859 111.526 40.8236 117.505 58.8486L110.746 67.2136Z" fill="url(#paint12_linear_473_10872)"/>
<path d="M121.898 68.8616C124.597 62.8161 124.592 56.9453 121.887 55.7487C119.181 54.552 114.799 58.4828 112.1 64.5283C109.401 70.5738 109.406 76.4447 112.111 77.6413C114.817 78.8379 119.198 74.9071 121.898 68.8616Z" fill="url(#paint13_radial_473_10872)"/>
<mask id="mask0_473_10872" style="mask-type:luminance" maskUnits="userSpaceOnUse" x="33" y="0" width="85" height="68">
<path d="M110.746 67.2136C110.746 67.2136 91.7161 47.5223 64.7321 43.4968C40.1648 39.8316 36.9164 46.3436 36.9164 46.3436L33.6235 45.7395C33.6235 45.7395 32.4967 36.5986 33.9706 25.2132C44.6291 12.5363 60.0525 4.60179 71.6651 0.118164C97.0547 13.4859 111.526 40.8236 117.505 58.8486L110.746 67.2136Z" fill="white"/>
</mask>
<g mask="url(#mask0_473_10872)">
<g style="mix-blend-mode:multiply">
<path d="M33.1037 47.8954C33.1037 47.8954 32.4114 37.5463 57.2812 39.7022C82.151 41.8581 99.5254 54.1045 112.003 65.6618L108.06 71.4404L33.1037 47.8972V47.8954Z" fill="#B3B3B3"/>
</g>
</g>
<path d="M58.974 77.8972L37.8872 74.7068L37.7684 66.9477L40.3282 45.0505L64.5446 47.6406L59.6386 67.5389L58.974 77.8972Z" fill="#B45F28"/>
<path d="M58.7643 81.1651L57.0658 107.697L38.355 105.312L37.9392 78.1853L58.7643 81.1651Z" fill="#B45F28"/>
<path d="M57.322 80.9583L58.7643 81.1652L57.0658 107.697L55.772 107.533L57.322 80.9583Z" fill="#693919"/>
<path d="M58.1814 66.2031L62.8536 47.4595L64.5446 47.6405L59.6386 67.5388L58.974 77.8971L57.5132 77.6773L58.1814 66.2031Z" fill="#693919"/>
<path d="M90.7138 82.7022L61.9181 78.3442L62.7868 67.186L67.1768 48.1597L97.9235 57.2285L90.8271 82.2459L90.7138 82.7022Z" fill="#B45F28"/>
<path d="M89.9806 85.6321L83.7566 110.517L59.6256 107.751L61.6656 81.5808L89.9806 85.6321Z" fill="#B45F28"/>
<path d="M89.9806 85.6321L83.7566 110.517L59.6256 107.751L61.6656 81.5808L89.9806 85.6321Z" fill="#B45F28"/>
<path d="M88.7016 85.4492L89.9806 85.6321L83.7566 110.517L82.4684 110.369L88.7016 85.4492Z" fill="#693919"/>
<path d="M81.3379 52.6267C81.3379 52.6267 74.1784 45.9428 71.9361 45.6047L74.9283 43.1052C74.9283 43.1052 79.9847 49.3069 81.3361 52.6267H81.3379Z" fill="#231F20"/>
<path d="M57.673 59.1914C58.2833 56.0282 57.1033 53.1438 55.0374 52.749C52.9715 52.3542 50.802 54.5984 50.1917 57.7617C49.5813 60.9249 50.7613 63.8093 52.8272 64.2041C54.8931 64.599 57.0626 62.3547 57.673 59.1914Z" fill="#231F20"/>
<path d="M57.1854 57.6017C57.3594 56.3598 56.9161 55.2719 56.1952 55.1719C55.4743 55.0718 54.7488 55.9974 54.5748 57.2394C54.4007 58.4813 54.844 59.5692 55.5649 59.6692C56.2858 59.7693 57.0113 58.8436 57.1854 57.6017Z" fill="white"/>
<path d="M76.2002 59.7422C76.8106 56.579 75.6306 53.6946 73.5647 53.2998C71.4988 52.9049 69.3293 55.1492 68.7189 58.3125C68.1086 61.4757 69.2886 64.3601 71.3545 64.7549C73.4204 65.1497 75.5899 62.9055 76.2002 59.7422Z" fill="#231F20"/>
<path d="M75.7143 58.1518C75.8884 56.9099 75.4451 55.822 74.7242 55.7219C74.0033 55.6218 73.2778 56.5475 73.1038 57.7894C72.9297 59.0313 73.373 60.1192 74.0939 60.2193C74.8148 60.3193 75.5403 59.3937 75.7143 58.1518Z" fill="white"/>
<path d="M90.0789 82.6062L78.3643 80.8659L78.5165 80.3117L89.7894 81.5919L96.7503 56.8831L97.9234 57.2285L90.827 82.2459L90.7138 82.7022L90.0789 82.6062Z" fill="#693919"/>
<path d="M53.2568 77.0326L37.8872 74.7067L37.8687 73.5281L53.2197 76.0405L53.2568 77.0326Z" fill="#80441E"/>
<path d="M81.4568 69.0592C79.6024 68.2038 78.316 66.8146 76.7828 65.5122C78.7597 65.2147 80.9426 67.2616 81.4568 69.0592Z" fill="#4E2A15"/>
<path d="M79.2887 68.0098C79.2887 68.0098 79.6804 87.2966 72.454 89.9919C65.2277 92.6872 46.7508 86.8236 45.4161 84.7619C45.4161 84.7619 47.7791 78.8355 46.9995 74.4738C46.2199 70.1121 46.4649 71.1577 46.4649 71.1577C46.4649 71.1577 67.6408 73.6979 79.2887 68.0098Z" fill="#45220F"/>
<path d="M47.1907 76.2789C47.2668 75.6822 47.0088 71.3999 47.0088 71.3999C47.0088 71.3999 56.9675 75.9759 79.3258 68.0469C79.3258 68.0469 79.3889 71.2059 78.988 75.1446C73.5399 76.846 57.2162 81.2225 47.1926 76.2789H47.1907Z" fill="white"/>
<path d="M66.579 86.8404C70.6646 83.5354 74.726 83.8919 76.9572 84.4794C75.9493 87.1101 74.5126 89.2253 72.454 89.992C68.903 91.3166 62.6382 90.5739 57.0231 89.2309C60.8395 84.0656 66.579 86.8404 66.579 86.8404Z" fill="#F27A7C"/>
<path d="M42.7097 69.4952C50.7119 73.7553 62.202 72.5249 70.7723 70.5464C73.4248 69.8647 76.1368 69.1775 78.5517 67.8787C78.7689 67.7476 78.9768 67.6183 79.129 67.4483C79.1661 67.4132 79.1513 67.3836 79.1364 67.4816L80.1871 67.513C80.2131 69.8056 80.0961 72.0649 79.8511 74.3317C79.155 80.2692 77.3415 90.3708 70.0687 91.3185C67.7633 91.4737 65.4467 91.2243 63.1617 90.9416C58.6343 90.319 54.1849 89.2161 49.9082 87.6108C48.0427 86.8626 46.0992 86.1328 44.5325 84.8267C44.2782 84.5755 44.0388 84.3501 43.9478 83.9529L43.7585 83.0329L44.4935 83.6185L45.6129 84.509L45.1785 84.5441C47.0292 82.0076 47.0551 77.6644 46.8565 74.6217C46.7711 73.4653 46.6394 72.3088 46.463 71.1579C47.3132 75.0984 48.1076 81.5088 45.6518 84.9819L45.4606 85.1999C45.2342 85.0373 44.3042 84.3242 44.074 84.1561L44.6198 83.8218C44.6291 83.8716 44.6792 83.9622 44.7497 84.0471C45.3808 84.7288 46.2662 85.1352 47.0997 85.5528C48.1039 86.0294 49.1471 86.4432 50.2015 86.8219C55.4917 88.6582 61.0456 89.8609 66.6421 90.199C67.7373 90.2414 68.8473 90.3172 69.9388 90.2174C73.2726 89.8627 75.3386 86.7924 76.4913 83.9123C78.5239 78.7396 79.0473 73.0551 79.1309 67.5351L80.1815 67.5665C80.1537 67.8159 80.0608 67.9563 79.9253 68.1263C78.3587 69.6818 73.2392 70.9177 70.9764 71.4387C62.3041 73.2898 50.5653 74.2264 42.706 69.4971L42.7097 69.4952Z" fill="#4E2A15"/>
<path d="M46.1957 52.2017C46.1957 52.2017 54.7326 47.2969 56.9935 47.4687L54.6657 44.3669C54.6657 44.3669 48.2896 49.2718 46.1976 52.2017H46.1957Z" fill="#231F20"/>
<path d="M36.0477 25.7842L36.2779 37.602C37.3155 37.1106 38.5574 36.6118 40.0182 36.1628L40.6995 21.6848C38.4256 23.4768 36.9536 24.8494 36.0477 25.7842Z" fill="#666666"/>
<path d="M50.3482 14.951C48.5161 16.1111 46.8974 17.1882 45.4533 18.1876L44.2003 35.1614C45.7206 34.8917 47.3986 34.6848 49.2437 34.5758L51.0164 14.5334C50.7937 14.672 50.5728 14.8069 50.3482 14.951Z" fill="#666666"/>
<path d="M60.0729 34.9951L64.9771 7.67773C62.9501 8.38713 60.292 9.46232 57.1345 11.0732L54.2592 34.5241C56.0709 34.5869 58.007 34.7384 60.0748 34.997L60.0729 34.9951Z" fill="#666666"/>
<path d="M95.7609 26.8721C94.3334 25.3794 92.7408 23.8073 90.9607 22.1668C90.1588 21.4278 89.3792 20.7258 88.62 20.0515L79.9476 39.8242C82.706 40.8199 85.2008 41.8655 87.4153 42.8964L95.7609 26.8721Z" fill="#666666"/>
<g style="mix-blend-mode:multiply" opacity="0.5">
<path d="M93.0007 27.1788C92.4679 26.6763 91.9129 26.1646 91.3356 25.6454C90.0418 24.4834 88.7833 23.4175 87.573 22.4365L79.9476 39.8242C82.0767 40.5927 84.0443 41.3908 85.8505 42.1889L93.0007 27.1788Z" fill="#666666"/>
</g>
<path d="M104.747 38.0414C103.78 36.5321 102.369 34.5166 100.409 32.115L92.5979 45.5308C94.6639 46.6743 96.3122 47.7125 97.5262 48.5254L104.747 38.0433V38.0414Z" fill="#666666"/>
<path d="M72.9737 8.24867L65.4189 35.8506C68.8622 36.5101 72.0716 37.3156 75.0379 38.2042L83.2721 15.5182C78.7615 11.888 75.3052 9.61205 72.9737 8.24683V8.24867Z" fill="#666666"/>
<g style="mix-blend-mode:multiply" opacity="0.5">
<path d="M46.1827 34.8641C47.1498 34.7403 48.1652 34.6405 49.2437 34.5759L50.7064 18.0325C49.3959 18.753 48.1541 19.5011 46.9958 20.2456L46.1827 34.8622V34.8641Z" fill="#666666"/>
</g>
<g style="mix-blend-mode:multiply" opacity="0.5">
<path d="M60.073 34.9951L64.0193 13.0093C62.241 13.3603 60.5055 13.8351 58.8293 14.4059L56.5888 34.6533C57.7081 34.7346 58.8645 34.8455 60.0711 34.997L60.073 34.9951Z" fill="#666666"/>
</g>
<g style="mix-blend-mode:multiply" opacity="0.5">
<path d="M40.5454 24.9639C38.4515 26.6912 37.2635 27.8883 37.2635 27.8883L37.555 37.0421C38.2938 36.7392 39.1142 36.4436 40.0182 36.1646L40.5454 24.9657V24.9639Z" fill="#666666"/>
</g>
<g style="mix-blend-mode:multiply" opacity="0.5">
<path d="M75.0398 38.2059L82.2234 18.4129C77.9058 15.4109 75.0453 14.0032 75.0453 14.0032L67.9638 36.3751C70.4567 36.9219 72.816 37.5408 75.0398 38.2077V38.2059Z" fill="#666666"/>
</g>
<g style="mix-blend-mode:multiply" opacity="0.5">
<path d="M92.5979 45.529C93.9604 46.2846 95.1391 46.9903 96.134 47.6184L102.516 37.8032C102.516 37.8032 101.456 36.2698 99.3917 33.8608L92.5979 45.5271V45.529Z" fill="#666666"/>
</g>
<path d="M112.346 28.5278C113.431 27.7455 112.933 25.2197 111.235 22.8863C109.537 20.553 107.28 19.2956 106.195 20.0779C105.11 20.8602 105.607 23.386 107.306 25.7193C109.004 28.0527 111.26 29.3101 112.346 28.5278Z" fill="white"/>
<path d="M115.847 36.7166C116.46 36.4671 116.519 35.1969 115.977 33.8795C115.436 32.562 114.5 31.6963 113.887 31.9458C113.274 32.1952 113.216 33.4654 113.757 34.7829C114.299 36.1003 115.234 36.966 115.847 36.7166Z" fill="white"/>
<path d="M122.302 61.3716C122.463 59.9574 122.06 58.7506 121.402 58.6762C120.744 58.6018 120.08 59.688 119.919 61.1022C119.757 62.5164 120.16 63.7231 120.818 63.7975C121.476 63.8719 122.14 62.7858 122.302 61.3716Z" fill="white"/>
<path d="M120.95 67.6167C121.16 66.8603 120.959 66.1454 120.501 66.0199C120.044 65.8944 119.503 66.4058 119.293 67.1622C119.084 67.9186 119.285 68.6335 119.743 68.759C120.2 68.8845 120.741 68.3731 120.95 67.6167Z" fill="white"/>
<path d="M33.9224 25.1763C36.3336 22.2131 39.0994 19.5621 41.9803 17.0551C46.3201 13.316 51.0238 9.99625 55.9967 7.14572C60.9807 4.27672 66.245 1.89543 71.6763 0C88.2376 9.20926 101.577 23.6485 109.98 40.5318C112.82 46.1276 115.181 51.9524 117.219 57.8807L117.102 57.9195C116.527 56.46 115.934 55.0098 115.333 53.5652C113.254 48.5107 110.861 43.58 108.198 38.8137C99.4307 23.0758 86.8621 9.98701 71.1473 1.029L72.0123 1.10844C66.6422 2.91888 61.4317 5.22443 56.4663 7.95672C51.486 10.7001 46.7545 13.8924 42.3292 17.456C39.3853 19.8558 36.5545 22.42 34.0207 25.252L33.9242 25.1781L33.9224 25.1763Z" fill="white"/>
<path d="M33.5492 45.7193C34.1803 43.9292 35.8955 42.8023 37.5011 41.9469C42.5018 39.5195 48.2543 39.1574 53.7153 39.1001C64.7507 39.1149 75.6932 41.8638 85.7038 46.4084C95.6458 50.9807 104.767 57.4613 112.055 65.6084L111.947 65.7174C108.691 62.5989 105.215 59.7115 101.547 57.0863C87.6176 47.1954 70.8502 40.9013 53.6819 40.2806C47.9128 40.1974 40.2038 40.312 35.385 43.7537C34.6927 44.2857 34.017 44.9489 33.6959 45.7618L33.5474 45.7212L33.5492 45.7193Z" fill="#5E5E5E"/>
<path d="M59.8822 143.11C61.9351 143.006 63.5545 142.047 63.4994 140.968C63.4443 139.889 61.7355 139.099 59.6826 139.203C57.6298 139.306 56.0104 140.265 56.0655 141.344C56.1206 142.424 57.8294 143.214 59.8822 143.11Z" fill="url(#paint14_radial_473_10872)"/>
<path d="M59.8558 142.432C61.9099 142.358 63.5486 141.57 63.5158 140.673C63.4831 139.776 61.7914 139.108 59.7372 139.183C57.6831 139.257 56.0445 140.045 56.0772 140.942C56.11 141.839 57.8017 142.506 59.8558 142.432Z" fill="#595959"/>
<path d="M73.5102 142.798C73.41 142.798 75.8026 145.229 76.9869 147.598C78.1712 149.966 79.0529 151.534 79.9643 152.129C80.8776 152.724 83.8364 152.541 85.7335 151.292C87.2055 150.323 87.2946 148.728 87.2946 148.728C87.2946 148.728 86.7284 144.354 84.5845 139.116C82.4405 133.879 80.7309 131.39 80.7309 131.39C80.7309 131.39 77.5698 131.32 74.791 133.467C74.791 133.467 73.5937 142.8 73.5102 142.8V142.798Z" fill="url(#paint15_linear_473_10872)"/>
<mask id="mask1_473_10872" style="mask-type:luminance" maskUnits="userSpaceOnUse" x="73" y="131" width="15" height="22">
<path d="M73.5102 142.798C73.41 142.798 75.8026 145.229 76.9869 147.598C78.1712 149.966 79.0529 151.534 79.9643 152.129C80.8776 152.724 83.8364 152.541 85.7335 151.292C87.2055 150.323 87.2946 148.728 87.2946 148.728C87.2946 148.728 86.7284 144.354 84.5845 139.116C82.4405 133.879 80.7309 131.39 80.7309 131.39C80.7309 131.39 77.5698 131.32 74.791 133.467C74.791 133.467 73.5937 142.8 73.5102 142.8V142.798Z" fill="white"/>
</mask>
<g mask="url(#mask1_473_10872)">
<path style="mix-blend-mode:multiply" opacity="0.3" d="M74.0039 142.562C74.8986 143.482 76.1702 144.889 77.0946 146.587C78.019 148.285 78.9137 150.295 79.6654 151.1C80.4172 151.906 81.4567 152.05 83.0159 151.732C84.5752 151.416 85.6741 150.801 86.4815 149.748C87.0885 148.957 87.2612 147.463 87.2612 147.463C87.2612 147.463 86.0472 141.354 85.1228 138.392C84.1984 135.431 84.1111 133.735 83.1013 133.534C82.0897 133.332 80.2706 133.591 78.7689 134.367L74.0021 142.56L74.0039 142.562Z" fill="url(#paint16_linear_473_10872)"/>
<g style="mix-blend-mode:multiply" opacity="0.2">
<path d="M84.1056 137.274C84.1056 137.274 83.1905 138.664 80.8071 140.347C77.3823 142.765 74.2917 143.508 74.2917 143.508C74.2917 143.508 73.9093 143.79 75.2346 145.724C76.7326 147.912 76.7865 148.265 79.1717 147.616C81.3936 147.01 83.4967 145.961 84.772 144.603C85.9637 143.332 86.1586 142.416 86.1586 142.416C86.1586 142.416 85.1599 139.255 84.1074 137.274H84.1056Z" fill="#595959"/>
</g>
<path opacity="0.7" d="M79.7156 131.171C80.6827 132.767 82.9529 136.402 84.4323 140.838C86.2755 146.365 86.9326 150.001 86.515 150.886" stroke="#595959" stroke-width="1.92" stroke-miterlimit="10"/>
</g>
<path d="M83.5506 136.883C83.5506 136.883 82.6355 138.272 80.2521 139.955C76.8273 142.373 73.7367 143.116 73.7367 143.116C73.7367 143.116 73.3543 143.398 74.6796 145.333C76.1776 147.52 76.2315 147.873 78.6167 147.224C80.8386 146.618 82.9417 145.569 84.217 144.211C85.4087 142.94 85.6036 142.024 85.6036 142.024C85.6036 142.024 84.6049 138.863 83.5524 136.883H83.5506Z" fill="url(#paint17_linear_473_10872)"/>
<path style="mix-blend-mode:multiply" opacity="0.5" d="M76.7178 142.547C79.6673 141.176 82.3496 139.399 83.8865 137.557C83.7752 137.322 83.6638 137.095 83.5506 136.883C83.5506 136.883 82.6354 138.272 80.252 139.955C76.8273 142.373 73.7366 143.116 73.7366 143.116C73.7366 143.116 73.642 143.186 73.7107 143.496C74.4346 143.518 75.2773 143.214 76.7196 142.543L76.7178 142.547Z" fill="url(#paint18_linear_473_10872)"/>
<path opacity="0.3" d="M85.4161 141.462C85.3344 141.73 85.0355 142.524 84.1093 143.55C82.8823 144.909 80.8572 145.957 78.7188 146.563C76.4245 147.213 76.3706 146.858 74.9302 144.671C74.5924 144.159 74.3715 143.764 74.2285 143.459C74.0466 143.489 73.874 143.502 73.7107 143.498C73.6494 143.226 73.7144 143.138 73.7329 143.121C73.6958 143.16 73.4378 143.52 74.6796 145.334C76.1776 147.522 76.2314 147.874 78.6167 147.226C80.8386 146.62 82.9417 145.571 84.2169 144.213C85.4086 142.942 85.6036 142.026 85.6036 142.026C85.6036 142.026 85.5367 141.811 85.4179 141.462H85.4161Z" fill="white"/>
<path d="M79.7639 133.912C79.7639 133.912 80.6196 136.581 80.4191 138.905L75.8138 139.953L75.8472 138.399L79.7639 133.912Z" fill="url(#paint19_linear_473_10872)"/>
<path d="M61.3556 141.756C61.3556 141.756 69.9592 141.411 73.4842 143.079C75.7377 142.159 76.1813 138.867 76.1813 138.867L80.4451 137.875C80.4451 137.875 80.562 133.908 78.626 131.867C78.626 131.867 76.031 131.738 70.8521 132.357C67.0375 132.811 63.2693 133.607 62.1073 134.052C61.4075 134.32 61.4521 134.599 61.3017 135.072C60.8024 136.648 61.3556 141.756 61.3556 141.756Z" fill="url(#paint20_linear_473_10872)"/>
<path d="M39.9495 122.495L32.0642 138.019L42.4331 139.284L56.9916 125.312L39.9495 122.495Z" fill="url(#paint21_linear_473_10872)"/>
<path d="M33.2095 138.072L42.4331 139.284L56.9915 125.312L43.5543 123.092L33.2095 138.072Z" fill="#5E5E5E"/>
<path d="M50.5208 124.047C51.3004 131.377 54.5933 139.571 55.8073 140.518C57.0213 141.468 62.0758 140.892 62.0758 140.892C62.0758 140.892 62.9427 137.442 61.9886 135.028L60.4869 135.085C60.4869 135.085 60.1398 131.119 61.0939 125.253L50.5226 124.045L50.5208 124.047Z" fill="#333F7A"/>
<path d="M61.9886 135.03L60.4869 135.087C60.4869 135.087 60.1639 131.383 61.0011 125.842C58.2854 125.658 53.3979 125.405 50.673 125.266C50.7973 126.142 50.9514 127.023 51.1315 127.899L57.8436 129.395C57.8436 129.395 55.4602 131.163 55.4602 131.723C55.4602 132.283 58.3633 131.119 58.3633 131.119C58.3633 131.119 57.3239 132.541 57.3239 132.973C57.3239 133.406 59.2302 132.543 59.2302 132.543C59.2302 132.543 59.3601 138.536 60.0098 139.399C60.6595 140.261 61.0939 137.027 61.0939 137.027C61.0939 137.027 61.8141 137.158 62.4248 137.278C62.3895 136.515 62.2652 135.728 61.9904 135.03H61.9886Z" fill="#293258"/>
<path d="M71.0971 126.903L64.3386 141.996L70.1449 144.928C70.1449 144.928 74.3047 136.046 86.4352 129.146L71.0971 126.903Z" fill="#333F7A"/>
<path d="M72.3092 136.822C71.4479 138.144 69.5285 142.138 68.1438 143.919L70.143 144.93C70.143 144.93 74.223 136.23 86.0676 129.362L70.9746 127.178L69.7012 130.02L76.1219 132.423C76.1219 132.423 72.9162 133.027 72.5691 133.458C72.2219 133.888 75.0824 134.492 75.0824 134.492C75.0824 134.492 73.2633 135.355 72.3092 136.82V136.822Z" fill="#28315A"/>
<path d="M99.6126 113.199C99.6126 113.199 91.2595 110.025 60.4163 107.359C44.139 105.954 36.1368 106.343 36.1368 106.343L38.5759 125.065L93.6429 131.291L99.6144 113.199H99.6126Z" fill="url(#paint22_linear_473_10872)"/>
<path opacity="0.3" d="M38.5685 125.009L41.7482 125.423L43.1051 125.576L42.6875 116.286L37.3545 115.693L38.5685 125.009Z" fill="white"/>
<path d="M84.2466 130.088L93.641 131.291L99.6125 113.199C99.6125 113.199 97.0157 112.212 89.3791 110.879L84.2466 130.088Z" fill="#5E5E5E"/>
<path d="M93.0192 131.211L93.6429 131.29L99.6144 113.199C99.6144 113.199 99.1374 113.018 97.9995 112.708L93.0192 131.211Z" fill="url(#paint23_linear_473_10872)"/>
<path d="M34.9024 104.215C34.9024 104.215 34.7706 111.719 36.8607 118.468L57.4167 119.486L58.9592 106.545L56.509 105.017C56.509 105.017 47.7513 103.696 34.9024 104.215Z" fill="url(#paint24_linear_473_10872)"/>
<path d="M56.509 105.017C56.509 105.017 47.7513 103.696 34.9024 104.215C34.9024 104.215 34.7706 111.719 36.8607 118.468L38.4868 118.549C38.4868 118.549 37.3062 111.974 38.6928 107.23C47.7921 104.599 57.1067 106.196 57.1067 106.196L57.2218 105.462L56.5071 105.017H56.509Z" fill="url(#paint25_linear_473_10872)"/>
<path d="M36.5897 117.538C36.677 117.849 36.7661 118.159 36.8607 118.468L57.4167 119.486L58.9592 106.545L56.509 105.017L55.9001 118.069L36.5897 117.538Z" fill="#5E5E5E"/>
<path d="M59.1281 105.542C59.1281 105.542 57.2793 112.578 57.6264 119.506L82.9287 123.186L86.2792 109.547C86.2792 109.547 75.0713 105.974 59.1281 105.542Z" fill="url(#paint26_linear_473_10872)"/>
<path d="M84.217 108.965C80.2817 107.934 71.0266 105.865 59.1281 105.542C59.1281 105.542 57.2793 112.578 57.6264 119.506L58.9016 119.691C58.9016 119.691 59.0706 114.302 61.092 108.093C72.0679 106.827 84.0555 109.774 84.0555 109.774L84.217 108.965Z" fill="url(#paint27_linear_473_10872)"/>
<path d="M80.3875 121.128L57.5856 118.211C57.5911 118.641 57.6041 119.074 57.6264 119.504L82.9287 123.184L86.2792 109.545C86.2792 109.545 85.2267 109.211 83.3148 108.734L80.3875 121.128Z" fill="#5E5E5E"/>
<path d="M77.0203 128.547L89.1137 145.719L99.5179 142.351L94.0197 130.062L77.0203 128.547Z" fill="url(#paint28_linear_473_10872)"/>
<path d="M89.1137 145.719L99.5179 142.351L99.2803 141.821L89.574 144.573L80.111 128.822L77.0203 128.547L89.1137 145.719Z" fill="#666666"/>
<path d="M37.0853 119.763L96.3048 125.667L94.5933 131.35L36.8013 124.9L37.0853 119.763Z" fill="url(#paint29_linear_473_10872)"/>
<mask id="mask2_473_10872" style="mask-type:luminance" maskUnits="userSpaceOnUse" x="36" y="119" width="61" height="13">
<path d="M37.0853 119.763L96.3048 125.667L94.5933 131.35L36.8013 124.9L37.0853 119.763Z" fill="white"/>
</mask>
<g mask="url(#mask2_473_10872)">
<path opacity="0.1" d="M40.2911 126.881L36.5582 126.785L36.7568 119.026L41.0521 119.234L40.2911 126.881Z" fill="white"/>
<path opacity="0.1" d="M45.7985 127.206L43.4819 127.147L43.6824 119.388L44.9242 119.652L45.7985 127.206Z" fill="white"/>
</g>
<path d="M63.3195 167.128C63.3195 167.128 66.2152 167.911 66.3303 166.934C66.4472 165.948 64.2068 164.303 64.2068 164.303L63.3176 167.128H63.3195Z" fill="url(#paint30_linear_473_10872)"/>
<path d="M55.8871 154.704C55.8871 154.704 54.1348 155.791 49.9583 155.344C45.7818 154.895 43.2889 153.607 40.3542 154.207C37.4194 154.808 34.9841 161.194 34.9841 161.194L61.8345 172.844C61.8345 172.844 64.0323 169.064 64.6318 165.674C65.2295 162.284 63.7835 158.37 62.3078 157.08C59.5402 154.664 55.8853 154.706 55.8853 154.706L55.8871 154.704Z" fill="url(#paint31_linear_473_10872)"/>
<path style="mix-blend-mode:multiply" opacity="0.5" d="M36.0867 161.388C36.0867 161.388 37.9782 157.182 39.3054 156.099C40.6345 155.017 42.4907 154.577 44.2207 154.969C45.9507 155.36 49.8692 156.345 51.5862 156.434C53.3033 156.522 57.2311 155.277 58.0107 154.328C58.0107 154.328 60.9194 155.249 63.1227 158.468C65.3261 161.686 63.6778 168.833 61.0103 172.076L36.0848 161.388H36.0867Z" fill="url(#paint32_linear_473_10872)"/>
<mask id="mask3_473_10872" style="mask-type:luminance" maskUnits="userSpaceOnUse" x="34" y="154" width="31" height="19">
<path d="M55.8871 154.704C55.8871 154.704 54.1348 155.791 49.9583 155.344C45.7818 154.895 43.2889 153.607 40.3542 154.207C37.4194 154.808 34.9841 161.194 34.9841 161.194L61.8345 172.844C61.8345 172.844 64.0323 169.064 64.6318 165.674C65.2295 162.284 63.7835 158.37 62.3078 157.08C59.5402 154.664 55.8853 154.706 55.8853 154.706L55.8871 154.704Z" fill="white"/>
</mask>
<g mask="url(#mask3_473_10872)">
<path opacity="0.7" d="M34.5924 159.962C34.5924 159.962 37.0668 159.432 39.5968 159.905C42.2178 160.393 45.2955 161.706 47.7884 162.87C50.4428 164.108 59.401 168.94 60.8637 169.838C62.3283 170.736 62.7255 171.399 62.6995 171.802" stroke="#595959" stroke-width="1.93" stroke-miterlimit="10"/>
</g>
<path d="M64.2587 140.677C64.2587 140.677 65.7233 140.057 68.1494 141.176C70.5755 142.297 71.7022 143.849 71.7022 143.849C71.7022 143.849 70.2284 147.686 68.6691 154.069C67.1099 160.452 66.3303 166.919 66.3303 166.919C64.4666 164.159 60.4386 162.866 60.4386 162.866C60.4386 162.866 61.2609 159.244 61.2609 157.304C58.7476 154.285 55.4991 154.847 55.4991 154.847C55.4991 154.847 57.9345 152.316 60.0915 148.724C62.0851 145.405 64.2587 140.679 64.2587 140.679V140.677Z" fill="url(#paint33_linear_473_10872)"/>
<path d="M67.9912 143.803C68.9515 141.739 68.4729 139.487 66.9221 138.772C65.3714 138.057 63.3358 139.151 62.3755 141.214C61.4152 143.278 61.8938 145.53 63.4446 146.245C64.9953 146.96 67.0309 145.866 67.9912 143.803Z" fill="#595959"/>
<path d="M67.4855 143.57C68.4458 141.506 68.0803 139.306 66.6691 138.656C65.2579 138.005 63.3354 139.151 62.3751 141.214C61.4148 143.278 61.7804 145.478 63.1915 146.129C64.6027 146.779 66.5252 145.633 67.4855 143.57Z" fill="url(#paint34_radial_473_10872)"/>
<path opacity="0.3" d="M66.3043 138.523C65.7196 138.383 65.0755 138.51 64.4592 138.848C64.4443 138.857 64.4276 138.865 64.4128 138.872C64.346 138.911 64.2791 138.954 64.2123 138.996C64.1845 139.014 64.1585 139.031 64.1306 139.05C64.0712 139.09 64.0137 139.133 63.9561 139.177C63.9227 139.203 63.8893 139.229 63.8559 139.256C63.8039 139.299 63.752 139.343 63.7018 139.388C63.6647 139.421 63.6257 139.456 63.5886 139.491C63.5422 139.535 63.4958 139.58 63.4512 139.626C63.4104 139.668 63.3714 139.711 63.3306 139.753C63.2898 139.798 63.2489 139.844 63.2081 139.892C63.1654 139.942 63.1246 139.994 63.0837 140.045C63.0466 140.091 63.0113 140.136 62.9761 140.184C62.9334 140.243 62.8907 140.304 62.8498 140.365C62.8201 140.409 62.7886 140.454 62.7589 140.5C62.7125 140.572 62.6698 140.646 62.6252 140.721C62.6029 140.76 62.5788 140.799 62.5565 140.84C62.4934 140.954 62.4322 141.074 62.3765 141.196C62.3765 141.196 62.3765 141.2 62.3746 141.202C62.3022 141.357 62.241 141.512 62.1834 141.669C62.1667 141.714 62.1519 141.758 62.137 141.802C62.0962 141.92 62.0609 142.039 62.0294 142.157C62.0182 142.198 62.0071 142.238 61.996 142.279C61.918 142.597 61.8697 142.911 61.8512 143.215C61.8512 143.238 61.8512 143.26 61.8493 143.282C61.8437 143.422 61.8419 143.559 61.8493 143.694C61.8493 143.709 61.8493 143.723 61.8493 143.738C61.8753 144.202 61.9718 144.631 62.1407 145C62.3449 145.451 62.6531 145.811 63.054 146.038C63.0707 146.003 63.0819 145.983 63.0819 145.983C63.0819 145.983 61.2275 144.736 62.7199 141.363C63.5793 139.419 64.9715 138.311 66.67 138.643L66.3043 138.521V138.523Z" fill="white"/>
<path d="M65.048 140.527C65.4016 140.098 65.46 139.564 65.1785 139.334C64.897 139.104 64.3823 139.266 64.0287 139.695C63.6752 140.125 63.6168 140.659 63.8983 140.888C64.1797 141.118 64.6945 140.956 65.048 140.527Z" fill="white"/>
<path d="M41.5802 156.874C42.5471 156.535 43.179 155.831 42.9916 155.302C42.8042 154.773 41.8685 154.619 40.9016 154.958C39.9347 155.297 39.3028 156.001 39.4902 156.53C39.6775 157.059 40.6133 157.213 41.5802 156.874Z" fill="white"/>
<path d="M38.6507 158.469C39.022 158.087 39.1523 157.613 38.9415 157.41C38.7308 157.207 38.2589 157.352 37.8876 157.734C37.5162 158.116 37.386 158.59 37.5967 158.793C37.8074 158.996 38.2793 158.851 38.6507 158.469Z" fill="white"/>
<path d="M63.4747 142.092C63.6026 141.842 63.5744 141.573 63.4118 141.49C63.2492 141.408 63.0137 141.544 62.8858 141.794C62.7579 142.044 62.786 142.313 62.9486 142.396C63.1112 142.478 63.3468 142.342 63.4747 142.092Z" fill="white"/>
<path d="M66.4918 165.708C64.6727 163.267 61.5654 162.349 61.5654 162.349L62.215 157.261C60.5296 154.677 57.8789 154.145 56.1767 154.097C55.7591 154.577 55.501 154.847 55.501 154.847C55.501 154.847 58.7513 154.287 61.2628 157.304C61.2628 159.244 60.4405 162.866 60.4405 162.866C60.4405 162.866 64.4704 164.159 66.3322 166.919C66.3322 166.919 66.386 166.474 66.4918 165.708Z" fill="#595959"/>
<path d="M60.2549 172.981C61.4169 173.064 63.1487 172.934 60.7709 171.453C58.3931 169.971 47.484 163.696 42.68 162.092C39.0492 160.88 35.2458 160.403 34.9859 161.192C34.7261 161.981 37.0445 163.609 38.8024 164.542C40.5602 165.475 54.2518 171.141 55.7294 171.75C57.2069 172.36 59.1968 172.905 60.2549 172.981Z" fill="#595959"/>
<path d="M51.4155 166.145C51.4155 166.145 52.9895 162.573 52.4605 160.062C51.9315 157.551 49.5778 155.719 47.1554 154.839C47.1554 154.839 47.1907 154.337 48.2005 154.409C49.2102 154.481 52.028 154.782 52.9858 154.85C53.9436 154.919 56.082 155.525 57.4426 157.742C58.8051 159.958 59.0316 162.447 58.3652 165.377C57.6988 168.307 57.2236 169.282 57.2236 169.282L51.4136 166.144L51.4155 166.145Z" fill="url(#paint35_linear_473_10872)"/>
<path style="mix-blend-mode:multiply" opacity="0.5" d="M52.054 166.491C53.9697 162.101 53.8323 159.999 51.7997 157.241C50.4744 155.443 48.685 154.74 47.5564 154.464C47.174 154.584 47.1536 154.841 47.1536 154.841C49.5759 155.721 51.9278 157.553 52.4587 160.064C52.9877 162.574 51.4136 166.147 51.4136 166.147L52.054 166.493V166.491Z" fill="url(#paint36_linear_473_10872)"/>
<path opacity="0.3" d="M47.3484 154.564C47.3707 154.549 47.393 154.535 47.4208 154.52C47.3949 154.535 47.3707 154.547 47.3484 154.564Z" fill="white"/>
<path opacity="0.3" d="M57.4426 157.742C56.0802 155.525 53.9436 154.919 52.9858 154.85C52.028 154.782 49.2084 154.481 48.2005 154.409C47.9146 154.389 47.7104 154.416 47.5601 154.462C47.9573 154.558 48.4362 154.712 48.9485 154.943C50.8159 155.105 53.2364 155.331 53.6541 155.451C54.3502 155.652 56.5535 156.389 57.5949 159.541C58.4599 162.161 58.2724 164.222 56.5776 168.931L57.2255 169.28C57.2255 169.28 57.7007 168.305 58.3671 165.375C59.0334 162.445 58.807 159.957 57.4445 157.74L57.4426 157.742Z" fill="white"/>
<path opacity="0.3" d="M47.1795 154.758C47.174 154.771 47.1684 154.784 47.1647 154.795C47.1684 154.784 47.1721 154.771 47.1795 154.758Z" fill="white"/>
<path opacity="0.3" d="M47.1814 154.753C47.187 154.74 47.1962 154.723 47.2074 154.708C47.1981 154.725 47.1888 154.74 47.1814 154.753Z" fill="white"/>
<path opacity="0.3" d="M47.2148 154.693C47.2259 154.679 47.2389 154.662 47.2519 154.645C47.2371 154.662 47.2241 154.677 47.2148 154.693Z" fill="white"/>
<path d="M64.4592 138.848C64.4443 138.857 64.4276 138.865 64.4128 138.872C64.4276 138.863 64.4443 138.856 64.4592 138.848Z" fill="white"/>
<path d="M62.7607 140.501C62.7143 140.574 62.6716 140.647 62.6271 140.723C62.6698 140.647 62.7143 140.574 62.7607 140.501Z" fill="white"/>
<path d="M63.5905 139.493C63.6276 139.458 63.6647 139.423 63.7037 139.389C63.6666 139.423 63.6276 139.458 63.5905 139.493Z" fill="white"/>
<path d="M62.5584 140.842C62.4953 140.956 62.434 141.076 62.3784 141.198C62.4359 141.076 62.4953 140.958 62.5584 140.842Z" fill="white"/>
<path d="M63.4512 139.628C63.4104 139.668 63.3714 139.713 63.3306 139.755C63.3695 139.711 63.4104 139.668 63.4512 139.628Z" fill="white"/>
<path d="M61.996 142.281C62.0053 142.24 62.0182 142.199 62.0294 142.159C62.0182 142.199 62.0071 142.24 61.996 142.281Z" fill="white"/>
<path opacity="0.1" d="M62.1389 145.002C61.5004 146.239 60.7839 147.566 60.0896 148.722C58.6306 151.152 57.0473 153.091 56.173 154.096C56.7076 154.111 57.335 154.174 57.9977 154.333C60.86 151.299 62.8239 146.988 63.0522 146.04C62.6494 145.813 62.3431 145.452 62.1389 145.002Z" fill="white"/>
<path d="M62.1742 145.02C61.4372 148.514 59.1912 152.109 56.2045 154.122L56.147 154.072C57.9048 151.99 59.4678 149.75 60.7987 147.374C61.2423 146.583 61.6767 145.785 62.1073 144.985L62.176 145.02H62.1742Z" fill="white"/>
<path d="M61.8493 143.284C61.8493 143.262 61.8493 143.239 61.8512 143.217C61.8512 143.239 61.8512 143.262 61.8493 143.284Z" fill="white"/>
<path d="M79.4053 150.167C79.6916 150.02 79.7412 149.549 79.5161 149.113C79.291 148.678 78.8765 148.443 78.5902 148.59C78.304 148.736 78.2544 149.208 78.4794 149.644C78.7045 150.079 79.119 150.314 79.4053 150.167Z" fill="white"/>
<path d="M80.2937 151.46C80.4178 151.358 80.3897 151.12 80.231 150.929C80.0722 150.738 79.843 150.666 79.7189 150.768C79.5949 150.87 79.623 151.108 79.7817 151.299C79.9404 151.49 80.1697 151.562 80.2937 151.46Z" fill="white"/>
<path d="M91.9426 131.004L97.8918 141.411L89.342 144.285L89.5741 144.573L99.2803 141.821L94.5933 131.35L91.9426 131.004Z" fill="url(#paint37_linear_473_10872)"/>
<path d="M122.905 123.496C122.905 123.496 125.921 123.465 127.937 121.948C129.307 120.917 130.292 119.053 130.784 117.965C130.992 117.505 131.531 117.298 131.993 117.503C134.059 118.414 139.544 120.673 144.947 121.544C151.788 122.646 159.088 122.827 161.28 122.857C161.652 122.863 161.954 123.153 161.976 123.522C161.997 123.892 161.73 124.215 161.36 124.261C159.092 124.54 151.35 125.602 144.741 127.777C139.369 129.545 135.364 131.845 133.689 132.89C133.218 133.186 132.6 133.071 132.262 132.63C131.065 131.071 127.95 127.847 122.71 127.982L122.906 123.496H122.905Z" fill="url(#paint38_radial_473_10872)"/>
<mask id="mask4_473_10872" style="mask-type:luminance" maskUnits="userSpaceOnUse" x="124" y="117" width="38" height="17">
<path d="M124.59 123.306C125.607 123.114 126.903 122.726 127.937 121.948C129.307 120.917 130.292 119.053 130.784 117.965C130.992 117.505 131.531 117.298 131.993 117.503C134.059 118.414 139.544 120.673 144.947 121.544C151.788 122.646 159.088 122.827 161.28 122.857C161.652 122.863 161.954 123.153 161.976 123.522C161.997 123.892 161.73 124.215 161.36 124.261C159.092 124.54 151.35 125.602 144.741 127.777C139.369 129.545 135.364 131.845 133.689 132.89C133.218 133.186 132.6 133.071 132.262 132.63C131.297 131.372 129.084 129.033 125.518 128.244C125.704 128.264 125.505 128.12 125.505 128.12L125.836 128.057C125.836 128.057 125.102 124.498 124.594 123.304L124.59 123.306Z" fill="white"/>
</mask>
<g mask="url(#mask4_473_10872)">
<path d="M132.863 113.02C132.863 113.02 137.422 119.046 137.58 126.177C137.738 133.308 135.258 138.458 135.258 138.458L131.79 138.538C131.79 138.538 134.15 133.847 133.997 126.256C133.845 118.665 129.27 114.019 129.27 114.019L132.861 113.022L132.863 113.02Z" fill="url(#paint39_linear_473_10872)"/>
<path opacity="0.3" d="M133.415 121.95C133.546 122.471 133.661 123.012 133.754 123.578L144.134 123.504L133.415 121.95Z" fill="white"/>
<path d="M118.723 112.887C118.723 112.887 123.281 118.913 123.439 126.044C123.597 133.175 121.117 138.325 121.117 138.325L131.79 138.538C131.79 138.538 134.15 133.847 133.997 126.256C133.845 118.665 129.27 114.019 129.27 114.019L118.723 112.889V112.887Z" fill="url(#paint40_linear_473_10872)"/>
<path opacity="0.3" d="M130.023 114.91C130.844 115.972 132.156 117.95 133.047 120.675C134.95 121.204 140.028 122.441 148.148 123.192C156.863 123.997 167.308 122.658 167.308 122.658L130.023 114.91Z" fill="white"/>
<g style="mix-blend-mode:multiply" opacity="0.2">
<path d="M133.875 129.931C133.418 135.146 131.902 138.316 131.798 138.527L131.568 142.654L164.373 123.945C153.081 123.537 139.394 127.816 133.875 129.931Z" fill="#595959"/>
</g>
</g>
<path d="M161.999 123.52C162.012 123.734 161.924 123.954 161.763 124.098C161.607 124.254 161.379 124.289 161.171 124.309L159.929 124.475C159.101 124.592 158.277 124.717 157.453 124.852C149.228 126.167 141.018 128.405 133.886 132.807C133.543 133.06 133.079 133.182 132.676 132.994C132.271 132.825 132.08 132.41 131.792 132.109C131.248 131.481 130.643 130.904 129.986 130.394C128.676 129.367 127.137 128.63 125.509 128.266L125.518 128.222C127.174 128.501 128.759 129.21 130.133 130.204C130.818 130.707 131.447 131.283 132.019 131.913C132.191 132.103 132.355 132.306 132.524 132.502C132.858 132.853 133.337 132.796 133.697 132.502C137.957 129.807 142.666 127.814 147.546 126.541C150.783 125.663 154.093 125.076 157.414 124.61C158.659 124.451 159.909 124.313 161.158 124.2C161.572 124.22 161.958 123.964 161.952 123.52L161.999 123.518V123.52Z" fill="#5E5E5E"/>
<path d="M130.762 117.956C130.974 117.461 131.612 117.256 132.082 117.514L132.548 117.716C134.415 118.51 136.318 119.223 138.25 119.844C145.348 122.157 152.898 122.534 160.31 122.815L161.327 122.837C161.501 122.85 161.67 122.929 161.793 123.053C161.915 123.177 161.989 123.347 161.999 123.52H161.952C161.919 123.191 161.622 122.936 161.318 122.942L160.306 122.966C156.913 123.033 153.512 122.914 150.134 122.595C147.422 122.338 144.708 122.02 142.059 121.346C138.755 120.531 135.551 119.323 132.486 117.856L132.028 117.634C131.948 117.596 131.885 117.562 131.811 117.542C131.428 117.429 130.996 117.605 130.803 117.976L130.76 117.958L130.762 117.956Z" fill="white"/>
<path d="M110.507 107.917C113.6 102.171 111.565 95.0907 105.962 92.1029C100.358 89.1151 93.308 91.3511 90.2149 97.097C87.1218 102.843 89.1569 109.923 94.7605 112.911C100.364 115.899 107.414 113.663 110.507 107.917Z" fill="url(#paint41_radial_473_10872)"/>
<path opacity="0.15" d="M108.021 102.141C108.14 102.054 108.257 101.984 108.374 101.934C109.287 101.538 110.147 101.217 111.025 101.036L111.84 100.578C111.342 97.0731 109.278 93.8771 105.966 92.111C101.836 89.9089 96.9211 90.5463 93.3831 93.334L93.3719 93.3451C93.3719 93.3451 99.7184 90.5685 103.572 95.8298C106.288 99.5375 106.739 101.802 106.768 102.82C107.143 102.591 107.559 102.36 108.021 102.141Z" fill="white"/>
<path d="M105.802 94.0299C106.025 93.2198 105.02 92.241 103.558 91.8436C102.097 91.4462 100.732 91.7807 100.509 92.5907C100.287 93.4007 101.291 94.3795 102.753 94.7769C104.215 95.1744 105.58 94.8399 105.802 94.0299Z" fill="white"/>
<path d="M108.732 97.1262C108.993 96.7884 108.72 96.1425 108.122 95.6835C107.523 95.2245 106.826 95.1262 106.565 95.464C106.303 95.8018 106.576 96.4478 107.175 96.9068C107.773 97.3658 108.47 97.4641 108.732 97.1262Z" fill="white"/>
<path opacity="0.5" d="M104.656 107.54C104.736 109.19 103.442 113.36 99.8464 114.191C99.8464 114.191 99.9095 114.209 100.026 114.239C104.223 114.254 108.341 111.954 110.509 107.925C111.717 105.68 112.14 103.232 111.877 100.905C110.691 101.017 109.579 101.411 108.374 101.934C106.668 102.672 104.656 107.54 104.656 107.54Z" fill="url(#paint42_linear_473_10872)"/>
<path d="M110.245 101.294C110.245 101.294 114.16 103.57 117.898 104.71L115.112 110.646C115.112 110.646 110.589 109.536 104.355 109.249C104.355 109.249 104.829 107.555 104.051 105.163C104.051 105.163 105.805 102.612 110.247 101.294H110.245Z" fill="#344077"/>
<path d="M110.095 108.355C110.095 108.355 111.203 107.324 110.572 107.252C109.941 107.18 108.159 107.496 108.159 107.496C108.159 107.496 110.154 104.832 109.915 104.4C109.673 103.968 106.854 105.726 106.854 105.726C106.854 105.726 106.728 105.307 108.769 103.748C109.788 102.97 110.798 102.392 111.556 102.009C110.746 101.584 110.247 101.294 110.247 101.294C105.805 102.612 104.051 105.163 104.051 105.163C104.829 107.555 104.355 109.249 104.355 109.249C110.59 109.536 115.112 110.646 115.112 110.646L115.962 108.835L110.095 108.355Z" fill="#28315A"/>
<path d="M122.983 111.79C126.033 108.925 126.778 104.782 124.648 102.536C122.518 100.29 118.318 100.792 115.269 103.657C112.219 106.523 111.474 110.666 113.604 112.912C115.734 115.158 119.933 114.656 122.983 111.79Z" fill="url(#paint43_radial_473_10872)"/>
<path style="mix-blend-mode:multiply" opacity="0.3" d="M123.346 104.84C121.557 102.902 118.099 103.267 115.623 105.656C113.267 107.927 112.653 111.206 114.138 113.188C116.161 115.019 119.734 114.601 122.531 112.224C124.638 109.863 125.028 106.659 123.346 104.84Z" fill="url(#paint44_radial_473_10872)"/>
<g opacity="0.4">
<path d="M122.498 112.194C123.59 110.441 124.302 108.27 123.471 106.319C123.252 105.837 122.918 105.408 122.502 105.08C121.984 104.718 121.392 104.487 120.746 104.429C117.08 104.178 113.321 108.067 113.735 111.715C113.796 112.205 113.941 112.693 114.177 113.162L114.102 113.217C113.133 111.924 113.081 110.16 113.599 108.676C114.44 106.195 116.658 104.139 119.252 103.611C123.057 102.903 125.344 106.046 124.159 109.556C123.835 110.561 123.263 111.472 122.569 112.257L122.5 112.196L122.498 112.194Z" fill="#5E5E5E"/>
</g>
<path d="M122.374 120.679C122.626 120.927 122.828 121.163 123.014 121.348C125.113 123.493 125.659 128.623 125.639 129.826C125.542 130.374 125.316 130.845 125.004 131.198C124.794 131.538 124.458 131.797 124.033 131.896C124.033 131.896 122.379 131.778 122.272 132.046C121.913 132.944 121.405 133.223 120.883 133.23C120.82 133.24 119.521 132.314 118.912 132.628C118.607 132.822 118.437 133.308 118.322 133.482C117.986 134.058 117.521 134.551 116.833 134.274C116.41 134.104 115.765 133.589 115.617 132.905C115.617 132.905 114.871 134.91 113.935 134.708C112.972 134.501 112.068 133.871 111.916 132.811L111.168 130.385C111.932 128.946 112.667 129.512 113.193 129.711C112.716 129.397 112.235 129.072 111.808 128.763C110.362 127.716 109.664 125.765 110.737 125.015C111.81 124.265 113.02 122.163 113.02 122.163C113.98 120.164 116.493 119.19 118.706 119.216C122.01 111.81 123.14 117.465 122.372 120.681L122.374 120.679Z" fill="#B45F28"/>
<path d="M122.374 120.679C122.626 120.927 122.828 121.163 123.014 121.348C125.113 123.493 125.659 128.623 125.639 129.825C125.542 130.374 125.316 130.845 125.004 131.198C124.794 131.538 124.458 131.797 124.033 131.896C124.033 131.896 122.379 131.778 122.272 132.046C122.01 132.7 121.67 133.021 121.303 133.154C121.735 132.347 122.082 131.311 122.238 129.979C122.864 124.612 120.664 120.625 120.664 120.625C120.64 115.181 122.318 118.614 122.374 120.679Z" fill="#84471F"/>
<path d="M114.329 126.17C113.913 127.867 112.69 131.209 112.69 131.209L114.329 126.17Z" fill="#B45F28"/>
<path d="M114.329 126.17C114.158 127.939 113.544 129.656 112.69 131.209C113.013 129.464 113.616 127.794 114.329 126.17Z" fill="#84471F"/>
<path d="M111.537 128.071C111.886 127.587 114.392 125.989 114.392 125.989L113.161 129.6L112.911 129.519C112.53 129.266 112.153 129.009 111.81 128.761C111.682 128.669 111.563 128.567 111.448 128.462C111.427 128.329 111.448 128.194 111.537 128.069V128.071Z" fill="#84471F"/>
<path d="M114.791 120.241C116.653 119.355 116.599 118.71 116.343 117.479C116.087 116.249 114.682 111.765 114.682 111.765C114.682 111.765 115.127 108.108 118.934 108.331C122.741 108.553 122.47 111.416 122.47 111.416C122.47 111.416 123.049 116.879 122.238 122.353L115.222 123.221L114.791 120.241Z" fill="url(#paint45_linear_473_10872)"/>
<path d="M122.389 121.189C122.968 116.131 122.47 111.418 122.47 111.418C122.47 111.418 122.697 109.005 119.784 108.438C120.393 110.337 121.598 115.142 120.703 121.348L122.389 121.189Z" fill="url(#paint46_linear_473_10872)"/>
<path d="M125.81 128.041C125.81 128.041 125.054 123.021 123.081 120.402L114.668 120.437L113.339 127.701C113.339 127.701 120.92 129.05 125.808 128.041H125.81Z" fill="url(#paint47_linear_473_10872)"/>
<path d="M114.047 127.851C115.381 128.094 122.164 128.793 125.811 128.041C125.811 128.041 125.262 123.555 123.083 120.402H122.671C122.671 120.402 123.415 122.909 123.662 126.378C121.956 127.374 113.984 127.405 113.984 127.405L114.047 127.851Z" fill="url(#paint48_linear_473_10872)"/>
<path d="M115.723 121.337L123.538 121.072C123.393 120.873 123.242 120.574 123.081 120.402L114.668 120.437L113.339 127.701C113.339 127.701 113.705 127.797 114.349 127.904L115.721 121.338L115.723 121.337Z" fill="#5E5E5E"/>
<path d="M117.323 120.666L117.156 112.957L118.266 120.821L117.323 120.666Z" fill="#5E5E5E"/>
<path d="M113.826 124.849C113.826 124.849 111.327 124.954 107.704 122.266C104.606 119.968 102.87 117.609 102.133 116.449C101.862 116.022 101.337 115.833 100.854 115.985C96.6463 117.306 77.2097 123.059 52.0095 124.971C31.3236 126.541 8.56803 127.254 5.02819 127.359C4.74233 127.369 4.49545 127.553 4.40635 127.823C4.26342 128.259 4.58827 128.708 5.05047 128.708C9.98991 128.697 33.5214 128.743 52.5311 130.428C70.1839 131.993 96.4199 137.232 101.348 138.235C101.823 138.331 102.306 138.115 102.545 137.695C103.748 135.584 107.691 129.476 112.951 129.626L113.828 124.847L113.826 124.849Z" fill="url(#paint49_radial_473_10872)"/>
<mask id="mask5_473_10872" style="mask-type:luminance" maskUnits="userSpaceOnUse" x="4" y="115" width="110" height="24">
<path d="M113.826 124.849C113.826 124.849 111.327 124.954 107.704 122.266C104.606 119.968 102.87 117.609 102.133 116.449C101.862 116.022 101.337 115.833 100.854 115.985C96.6463 117.306 77.2097 123.059 52.0095 124.971C31.3236 126.541 8.56803 127.254 5.02819 127.359C4.74233 127.369 4.49545 127.553 4.40635 127.823C4.26342 128.259 4.58827 128.708 5.05047 128.708C9.98991 128.697 33.5214 128.743 52.5311 130.428C70.1839 131.993 96.4199 137.232 101.348 138.235C101.823 138.331 102.306 138.115 102.545 137.695C103.748 135.584 107.691 129.476 112.951 129.626L113.828 124.847L113.826 124.849Z" fill="white"/>
</mask>
<g mask="url(#mask5_473_10872)">
<path d="M101.339 115.34C101.339 115.34 104.895 121.23 104.814 127.055C104.712 134.269 102.091 138.571 102.091 138.571L114.178 131.418L114.973 120.711L101.339 115.34Z" fill="url(#paint50_linear_473_10872)"/>
<path d="M100.875 114.383C100.875 114.383 105.04 120.685 104.743 127.812C104.446 134.939 101.643 139.922 101.643 139.922L98.1777 139.781C98.1777 139.781 100.832 135.25 101.163 127.664C101.495 120.079 97.2255 115.152 97.2255 115.152L100.875 114.383Z" fill="url(#paint51_linear_473_10872)"/>
<path opacity="0.3" d="M101.339 115.34L0.150024 124.494L1.96728 127.978C1.96728 127.978 23.3028 128.285 52.9654 126.342C76.2222 124.817 94.8922 121.939 103.629 120.426C102.622 117.467 101.339 115.34 101.339 115.34Z" fill="white"/>
<g style="mix-blend-mode:multiply" opacity="0.2">
<path d="M102.091 138.571C102.091 138.571 102.757 137.476 103.433 135.464C96.4106 134.585 70.0744 131.326 53.734 129.826C34.7465 128.084 3.67133 128.449 3.67133 128.449L3.27966 130.611L102.093 138.57L102.091 138.571Z" fill="#595959"/>
</g>
</g>
<path d="M5.05044 128.678C23.223 128.752 41.4586 129.031 59.529 131.119C73.5585 132.898 87.4951 135.425 101.354 138.205L101.341 138.264L95.3692 137.222C93.3793 136.877 91.3876 136.539 89.394 136.21C77.4677 134.219 65.4875 132.214 53.4424 131.067C37.4584 129.53 20.9769 129.299 5.04858 128.675L5.05044 128.678Z" fill="#5E5E5E"/>
<path d="M100.866 116.022C92.2805 118.978 83.3835 121.062 74.4643 122.754C70.6293 123.452 66.3563 124.114 62.4749 124.598C47.4357 126.391 32.261 126.85 17.1364 127.282C15.308 127.306 9.8674 127.391 8.05572 127.4H5.0282V127.324C20.6354 126.816 36.2742 126.075 51.8517 124.91C54.1868 124.712 57.0621 124.476 59.3806 124.211C73.3766 122.761 87.4858 119.846 100.866 116.024V116.022Z" fill="white"/>
<path opacity="0.3" d="M104.235 122.482L68.2552 126.166L104.663 124.705C104.561 123.945 104.413 123.201 104.235 122.482Z" fill="white"/>
<defs>
<radialGradient id="paint0_radial_473_10872" cx="0" cy="0" r="1" gradientUnits="userSpaceOnUse" gradientTransform="translate(31.449 100.51) rotate(134.767) scale(14.4413 12.8912)">
<stop offset="0.06" stop-color="#B3B3B3"/>
<stop offset="0.25" stop-color="#ADADAD"/>
<stop offset="0.49" stop-color="#9E9E9E"/>
<stop offset="0.75" stop-color="#858585"/>
<stop offset="1" stop-color="#666666"/>
</radialGradient>
<linearGradient id="paint1_linear_473_10872" x1="39.0248" y1="103.357" x2="28.5915" y2="107.468" gradientUnits="userSpaceOnUse">
<stop offset="0.46" stop-color="#1A1A1A"/>
<stop offset="0.74" stop-color="#2B2B2B"/>
<stop offset="0.85" stop-color="#333333"/>
</linearGradient>
<radialGradient id="paint2_radial_473_10872" cx="0" cy="0" r="1" gradientUnits="userSpaceOnUse" gradientTransform="translate(27.9473 112.253) rotate(170.893) scale(9.42189 10.9211)">
<stop stop-color="#B3B3B3"/>
<stop offset="0.2" stop-color="#ADADAD"/>
<stop offset="0.45" stop-color="#9E9E9E"/>
<stop offset="0.73" stop-color="#858585"/>
<stop offset="1" stop-color="#666666"/>
</radialGradient>
<radialGradient id="paint3_radial_473_10872" cx="0" cy="0" r="1" gradientUnits="userSpaceOnUse" gradientTransform="translate(18.6624 113.311) rotate(128.553) scale(4.89216 6.46258)">
<stop offset="0.06" stop-color="#B3B3B3"/>
<stop offset="0.25" stop-color="#ADADAD"/>
<stop offset="0.49" stop-color="#9E9E9E"/>
<stop offset="0.75" stop-color="#858585"/>
<stop offset="1" stop-color="#666666"/>
</radialGradient>
<linearGradient id="paint4_linear_473_10872" x1="22.5789" y1="107.114" x2="11.4282" y2="99.0247" gradientUnits="userSpaceOnUse">
<stop stop-color="#B3B3B3"/>
<stop offset="0.22" stop-color="#A7A7A7"/>
<stop offset="0.62" stop-color="#898989"/>
<stop offset="1" stop-color="#666666"/>
</linearGradient>
<linearGradient id="paint5_linear_473_10872" x1="10.8098" y1="101.295" x2="19.4702" y2="108.197" gradientUnits="userSpaceOnUse">
<stop offset="0.04" stop-color="white" stop-opacity="0.4"/>
<stop offset="0.37" stop-color="white" stop-opacity="0.25"/>
<stop offset="0.79" stop-color="white" stop-opacity="0.07"/>
<stop offset="1" stop-color="white" stop-opacity="0"/>
</linearGradient>
<linearGradient id="paint6_linear_473_10872" x1="12.9081" y1="99.4584" x2="9.91629" y2="90.4481" gradientUnits="userSpaceOnUse">
<stop stop-color="#B45F28"/>
<stop offset="0.88" stop-color="#C77235"/>
</linearGradient>
<linearGradient id="paint7_linear_473_10872" x1="117.605" y1="74.391" x2="84.9461" y2="75.6402" gradientUnits="userSpaceOnUse">
<stop stop-color="#8C4420"/>
<stop offset="1" stop-color="#3E180E"/>
</linearGradient>
<radialGradient id="paint8_radial_473_10872" cx="0" cy="0" r="1" gradientUnits="userSpaceOnUse" gradientTransform="translate(116.097 14.7315) rotate(42.7836) scale(62.7727 28.8651)">
<stop offset="0.25" stop-color="#B3B3B3"/>
<stop offset="0.39" stop-color="#ABABAB"/>
<stop offset="0.61" stop-color="#969696"/>
<stop offset="0.87" stop-color="#757575"/>
<stop offset="0.97" stop-color="#666666"/>
</radialGradient>
<radialGradient id="paint9_radial_473_10872" cx="0" cy="0" r="1" gradientUnits="userSpaceOnUse" gradientTransform="translate(111.701 14.6357) rotate(42.7836) scale(52.4137 24.1017)">
<stop offset="0.25" stop-color="#B3B3B3"/>
<stop offset="0.39" stop-color="#ABABAB"/>
<stop offset="0.61" stop-color="#969696"/>
<stop offset="0.87" stop-color="#757575"/>
<stop offset="0.97" stop-color="#666666"/>
</radialGradient>
<linearGradient id="paint10_linear_473_10872" x1="115.611" y1="67.4168" x2="80.6891" y2="103.375" gradientUnits="userSpaceOnUse">
<stop offset="0.09" stop-color="#666666"/>
<stop offset="0.81" stop-color="#B3B3B3"/>
</linearGradient>
<linearGradient id="paint11_linear_473_10872" x1="113.674" y1="67.5166" x2="81.1931" y2="100.96" gradientUnits="userSpaceOnUse">
<stop offset="0.09" stop-color="#666666"/>
<stop offset="0.81" stop-color="#B3B3B3"/>
</linearGradient>
<linearGradient id="paint12_linear_473_10872" x1="26.4584" y1="17.6592" x2="122.721" y2="41.6853" gradientUnits="userSpaceOnUse">
<stop stop-color="#666666"/>
<stop offset="0.05" stop-color="#7C7C7C"/>
<stop offset="0.12" stop-color="#9A9A9A"/>
<stop offset="0.18" stop-color="#ACACAC"/>
<stop offset="0.23" stop-color="#B3B3B3"/>
<stop offset="0.64" stop-color="#B3B3B3"/>
<stop offset="0.72" stop-color="#A6A6A6"/>
<stop offset="0.88" stop-color="#858585"/>
<stop offset="1" stop-color="#666666"/>
</linearGradient>
<radialGradient id="paint13_radial_473_10872" cx="0" cy="0" r="1" gradientUnits="userSpaceOnUse" gradientTransform="translate(117.249 67.1072) rotate(23.8587) scale(7.58536 15.8892)">
<stop offset="0.2" stop-color="#B3B3B3"/>
<stop offset="0.36" stop-color="#ADADAD"/>
<stop offset="0.56" stop-color="#9E9E9E"/>
<stop offset="0.78" stop-color="#858585"/>
<stop offset="1" stop-color="#666666"/>
</radialGradient>
<radialGradient id="paint14_radial_473_10872" cx="0" cy="0" r="1" gradientUnits="userSpaceOnUse" gradientTransform="translate(60.3937 146.664) rotate(-92.5421) scale(2.78632 4.94397)">
<stop offset="0.2" stop-color="#B3B3B3"/>
<stop offset="0.36" stop-color="#ADADAD"/>
<stop offset="0.56" stop-color="#9E9E9E"/>
<stop offset="0.78" stop-color="#858585"/>
<stop offset="1" stop-color="#666666"/>
</radialGradient>
<linearGradient id="paint15_linear_473_10872" x1="90.6265" y1="144.666" x2="75.993" y2="140.534" gradientUnits="userSpaceOnUse">
<stop offset="0.25" stop-color="#B3B3B3"/>
<stop offset="0.64" stop-color="#8A8A8A"/>
<stop offset="0.95" stop-color="#666666"/>
</linearGradient>
<linearGradient id="paint16_linear_473_10872" x1="77.0147" y1="143.973" x2="86.4052" y2="141.494" gradientUnits="userSpaceOnUse">
<stop offset="0.25" stop-color="#B3B3B3"/>
<stop offset="0.64" stop-color="#8A8A8A"/>
<stop offset="0.95" stop-color="#666666"/>
</linearGradient>
<linearGradient id="paint17_linear_473_10872" x1="74.4365" y1="144.764" x2="86.638" y2="139.85" gradientUnits="userSpaceOnUse">
<stop offset="0.28" stop-color="#B3B3B3"/>
<stop offset="0.65" stop-color="#8A8A8A"/>
<stop offset="0.95" stop-color="#666666"/>
</linearGradient>
<linearGradient id="paint18_linear_473_10872" x1="84.8852" y1="137.034" x2="73.0137" y2="143.983" gradientUnits="userSpaceOnUse">
<stop stop-color="#666666"/>
<stop offset="0.44" stop-color="#8E8E8E"/>
<stop offset="0.79" stop-color="#A9A9A9"/>
<stop offset="1" stop-color="#B3B3B3"/>
</linearGradient>
<linearGradient id="paint19_linear_473_10872" x1="75.7735" y1="136.96" x2="80.4377" y2="136.888" gradientUnits="userSpaceOnUse">
<stop offset="0.15" stop-color="#1A1A1A"/>
<stop offset="0.58" stop-color="#333333"/>
</linearGradient>
<linearGradient id="paint20_linear_473_10872" x1="70.3769" y1="132.562" x2="71.2778" y2="144.98" gradientUnits="userSpaceOnUse">
<stop stop-color="#B3B3B3"/>
<stop offset="0.52" stop-color="#8A8A8A"/>
<stop offset="0.94" stop-color="#666666"/>
</linearGradient>
<linearGradient id="paint21_linear_473_10872" x1="38.2325" y1="142.007" x2="50.0393" y2="120.93" gradientUnits="userSpaceOnUse">
<stop offset="0.25" stop-color="#B3B3B3"/>
<stop offset="0.95" stop-color="#666666"/>
</linearGradient>
<linearGradient id="paint22_linear_473_10872" x1="28.7824" y1="109.113" x2="107.502" y2="128.76" gradientUnits="userSpaceOnUse">
<stop offset="0.19" stop-color="#B3B3B3"/>
<stop offset="0.31" stop-color="#A4A4A4"/>
<stop offset="0.71" stop-color="#777777"/>
<stop offset="0.91" stop-color="#666666"/>
</linearGradient>
<linearGradient id="paint23_linear_473_10872" x1="93.0192" y1="121.998" x2="99.6126" y2="121.998" gradientUnits="userSpaceOnUse">
<stop offset="0.09" stop-color="white" stop-opacity="0"/>
<stop offset="0.25" stop-color="white" stop-opacity="0.07"/>
<stop offset="0.56" stop-color="white" stop-opacity="0.25"/>
<stop offset="0.81" stop-color="white" stop-opacity="0.4"/>
</linearGradient>
<linearGradient id="paint24_linear_473_10872" x1="31.2993" y1="107.76" x2="74.367" y2="118.49" gradientUnits="userSpaceOnUse">
<stop offset="0.25" stop-color="#B3B3B3"/>
<stop offset="0.95" stop-color="#666666"/>
</linearGradient>
<linearGradient id="paint25_linear_473_10872" x1="46.0621" y1="103.953" x2="46.0621" y2="120.533" gradientUnits="userSpaceOnUse">
<stop offset="0.19" stop-color="white" stop-opacity="0.4"/>
<stop offset="0.31" stop-color="white" stop-opacity="0.35"/>
<stop offset="0.77" stop-color="white" stop-opacity="0.17"/>
<stop offset="1" stop-color="white" stop-opacity="0.1"/>
</linearGradient>
<linearGradient id="paint26_linear_473_10872" x1="55.0555" y1="110.308" x2="89.1151" y2="118.81" gradientUnits="userSpaceOnUse">
<stop offset="0.19" stop-color="#B3B3B3"/>
<stop offset="1" stop-color="#666666"/>
</linearGradient>
<linearGradient id="paint27_linear_473_10872" x1="71.4257" y1="105.835" x2="70.2526" y2="120.927" gradientUnits="userSpaceOnUse">
<stop offset="0.04" stop-color="white" stop-opacity="0.4"/>
<stop offset="0.37" stop-color="white" stop-opacity="0.25"/>
<stop offset="0.79" stop-color="white" stop-opacity="0.07"/>
<stop offset="1" stop-color="white" stop-opacity="0"/>
</linearGradient>
<linearGradient id="paint28_linear_473_10872" x1="88.167" y1="147.64" x2="88.338" y2="126.857" gradientUnits="userSpaceOnUse">
<stop offset="0.25" stop-color="#B3B3B3"/>
<stop offset="0.95" stop-color="#666666"/>
</linearGradient>
<linearGradient id="paint29_linear_473_10872" x1="36.8013" y1="125.556" x2="96.3048" y2="125.556" gradientUnits="userSpaceOnUse">
<stop offset="0.42" stop-color="#454545"/>
<stop offset="0.85"/>
</linearGradient>
<linearGradient id="paint30_linear_473_10872" x1="63.3195" y1="165.865" x2="66.3359" y2="165.865" gradientUnits="userSpaceOnUse">
<stop offset="0.42" stop-color="#454545"/>
<stop offset="0.85"/>
</linearGradient>
<linearGradient id="paint31_linear_473_10872" x1="48.6654" y1="166.338" x2="58.0065" y2="149.325" gradientUnits="userSpaceOnUse">
<stop offset="0.29" stop-color="#B3B3B3"/>
<stop offset="0.42" stop-color="#A9A9A9"/>
<stop offset="0.63" stop-color="#8E8E8E"/>
<stop offset="0.89" stop-color="#666666"/>
</linearGradient>
<linearGradient id="paint32_linear_473_10872" x1="70.9128" y1="167.847" x2="42.8558" y2="156.312" gradientUnits="userSpaceOnUse">
<stop stop-color="#666666"/>
<stop offset="0.44" stop-color="#8E8E8E"/>
<stop offset="0.79" stop-color="#A9A9A9"/>
<stop offset="1" stop-color="#B3B3B3"/>
</linearGradient>
<linearGradient id="paint33_linear_473_10872" x1="52.0818" y1="151.608" x2="71.3454" y2="154.536" gradientUnits="userSpaceOnUse">
<stop offset="0.25" stop-color="#B3B3B3"/>
<stop offset="0.64" stop-color="#8A8A8A"/>
<stop offset="0.95" stop-color="#666666"/>
</linearGradient>
<radialGradient id="paint34_radial_473_10872" cx="0" cy="0" r="1" gradientUnits="userSpaceOnUse" gradientTransform="translate(56.5281 137.256) rotate(-155.254) scale(3.98557 5.48687)">
<stop offset="0.2" stop-color="#B3B3B3"/>
<stop offset="0.36" stop-color="#ADADAD"/>
<stop offset="0.56" stop-color="#9E9E9E"/>
<stop offset="0.78" stop-color="#858585"/>
<stop offset="1" stop-color="#666666"/>
</radialGradient>
<linearGradient id="paint35_linear_473_10872" x1="52.7528" y1="179.564" x2="53.0417" y2="145.873" gradientUnits="userSpaceOnUse">
<stop offset="0.11" stop-color="#666666"/>
<stop offset="0.37" stop-color="#8E8E8E"/>
<stop offset="0.58" stop-color="#A9A9A9"/>
<stop offset="0.71" stop-color="#B3B3B3"/>
</linearGradient>
<linearGradient id="paint36_linear_473_10872" x1="50.1319" y1="174.832" x2="50.3651" y2="147.545" gradientUnits="userSpaceOnUse">
<stop offset="0.11" stop-color="#666666"/>
<stop offset="0.37" stop-color="#8E8E8E"/>
<stop offset="0.58" stop-color="#A9A9A9"/>
<stop offset="0.71" stop-color="#B3B3B3"/>
</linearGradient>
<linearGradient id="paint37_linear_473_10872" x1="90.7788" y1="131.654" x2="94.3283" y2="143.221" gradientUnits="userSpaceOnUse">
<stop offset="0.09" stop-color="white" stop-opacity="0"/>
<stop offset="0.25" stop-color="white" stop-opacity="0.07"/>
<stop offset="0.56" stop-color="white" stop-opacity="0.25"/>
<stop offset="0.81" stop-color="white" stop-opacity="0.4"/>
</linearGradient>
<radialGradient id="paint38_radial_473_10872" cx="0" cy="0" r="1" gradientUnits="userSpaceOnUse" gradientTransform="translate(147.277 125.153) rotate(-1.91086) scale(25.2261 16.5701)">
<stop offset="0.25" stop-color="#B3B3B3"/>
<stop offset="0.4" stop-color="#ABABAB"/>
<stop offset="0.61" stop-color="#969696"/>
<stop offset="0.87" stop-color="#757575"/>
<stop offset="0.98" stop-color="#666666"/>
</radialGradient>
<linearGradient id="paint39_linear_473_10872" x1="133.579" y1="115.674" x2="132.68" y2="144.645" gradientUnits="userSpaceOnUse">
<stop offset="0.05" stop-color="#FDE800"/>
<stop offset="0.99" stop-color="#F68E1E"/>
</linearGradient>
<linearGradient id="paint40_linear_473_10872" x1="119.465" y1="126.017" x2="142.317" y2="124.835" gradientUnits="userSpaceOnUse">
<stop offset="0.23" stop-color="#1A1A1A"/>
<stop offset="0.38" stop-color="#1D1D1D" stop-opacity="0.87"/>
<stop offset="0.5" stop-color="#262626" stop-opacity="0.48"/>
<stop offset="0.58" stop-color="#333333" stop-opacity="0"/>
</linearGradient>
<radialGradient id="paint41_radial_473_10872" cx="0" cy="0" r="1" gradientUnits="userSpaceOnUse" gradientTransform="translate(105.169 99.7862) rotate(28.0663) scale(14.4608 12.8738)">
<stop offset="0.06" stop-color="#B3B3B3"/>
<stop offset="0.25" stop-color="#ADADAD"/>
<stop offset="0.49" stop-color="#9E9E9E"/>
<stop offset="0.75" stop-color="#858585"/>
<stop offset="1" stop-color="#666666"/>
</radialGradient>
<linearGradient id="paint42_linear_473_10872" x1="100.365" y1="107.168" x2="111.555" y2="108" gradientUnits="userSpaceOnUse">
<stop offset="0.46" stop-color="#1A1A1A"/>
<stop offset="0.74" stop-color="#2B2B2B"/>
<stop offset="0.85" stop-color="#333333"/>
</linearGradient>
<radialGradient id="paint43_radial_473_10872" cx="0" cy="0" r="1" gradientUnits="userSpaceOnUse" gradientTransform="translate(121.497 103.717) rotate(46.5135) scale(9.39931 10.9473)">
<stop stop-color="#B3B3B3"/>
<stop offset="0.2" stop-color="#ADADAD"/>
<stop offset="0.45" stop-color="#9E9E9E"/>
<stop offset="0.73" stop-color="#858585"/>
<stop offset="1" stop-color="#666666"/>
</radialGradient>
<radialGradient id="paint44_radial_473_10872" cx="0" cy="0" r="1" gradientUnits="userSpaceOnUse" gradientTransform="translate(119.524 106.972) rotate(4.20993) scale(4.90636 6.44387)">
<stop offset="0.06" stop-color="#B3B3B3"/>
<stop offset="0.25" stop-color="#ADADAD"/>
<stop offset="0.49" stop-color="#9E9E9E"/>
<stop offset="0.75" stop-color="#858585"/>
<stop offset="1" stop-color="#666666"/>
</radialGradient>
<linearGradient id="paint45_linear_473_10872" x1="118.843" y1="108.303" x2="118.452" y2="122.03" gradientUnits="userSpaceOnUse">
<stop stop-color="#B3B3B3"/>
<stop offset="0.22" stop-color="#A7A7A7"/>
<stop offset="0.62" stop-color="#898989"/>
<stop offset="1" stop-color="#666666"/>
</linearGradient>
<linearGradient id="paint46_linear_473_10872" x1="120.62" y1="121.262" x2="121.431" y2="110.249" gradientUnits="userSpaceOnUse">
<stop offset="0.04" stop-color="white" stop-opacity="0.4"/>
<stop offset="0.37" stop-color="white" stop-opacity="0.25"/>
<stop offset="0.79" stop-color="white" stop-opacity="0.07"/>
<stop offset="1" stop-color="white" stop-opacity="0"/>
</linearGradient>
<linearGradient id="paint47_linear_473_10872" x1="124.324" y1="125.922" x2="108.607" y2="127.711" gradientUnits="userSpaceOnUse">
<stop offset="0.19" stop-color="#B3B3B3"/>
<stop offset="1" stop-color="#666666"/>
</linearGradient>
<linearGradient id="paint48_linear_473_10872" x1="117.733" y1="129.516" x2="116.763" y2="121.083" gradientUnits="userSpaceOnUse">
<stop offset="0.04" stop-color="white" stop-opacity="0.4"/>
<stop offset="0.37" stop-color="white" stop-opacity="0.25"/>
<stop offset="0.79" stop-color="white" stop-opacity="0.07"/>
<stop offset="1" stop-color="white" stop-opacity="0"/>
</linearGradient>
<radialGradient id="paint49_radial_473_10872" cx="0" cy="0" r="1" gradientUnits="userSpaceOnUse" gradientTransform="translate(45.6142 129.376) rotate(176.387) scale(63.8286 22.7696)">
<stop offset="0.3" stop-color="#B3B3B3"/>
<stop offset="0.44" stop-color="#ABABAB"/>
<stop offset="0.63" stop-color="#969696"/>
<stop offset="0.87" stop-color="#757575"/>
<stop offset="0.97" stop-color="#666666"/>
</radialGradient>
<linearGradient id="paint50_linear_473_10872" x1="116.89" y1="127.83" x2="103.653" y2="127.065" gradientUnits="userSpaceOnUse">
<stop offset="0.15" stop-color="#1A1A1A"/>
<stop offset="0.58" stop-color="#333333" stop-opacity="0"/>
</linearGradient>
<linearGradient id="paint51_linear_473_10872" x1="101.423" y1="117.076" x2="98.6958" y2="145.933" gradientUnits="userSpaceOnUse">
<stop offset="0.05" stop-color="#FDE800"/>
<stop offset="0.99" stop-color="#F68E1E"/>
</linearGradient>
</defs>
</svg>
