<svg width="359" height="491" viewBox="0 0 359 491" fill="none" xmlns="http://www.w3.org/2000/svg">
<path d="M358.648 308.813C358.628 317.803 358.538 326.813 358.378 335.813C358.088 353.563 357.548 371.293 356.788 389.043C356.358 399.013 355.868 408.983 355.278 418.953C354.258 436.433 351.278 463.063 332.228 478.133C310.678 495.183 202.498 489.283 154.568 489.283C95.3778 489.283 112.028 490.223 53.0578 484.303C39.7778 482.973 28.0178 475.033 19.5278 463.063C10.4278 451.893 4.39777 436.413 3.38777 418.943C3.00777 412.353 2.65777 405.753 2.33777 399.163C1.39777 379.733 0.747773 360.323 0.377773 340.913C0.167773 329.883 0.0477724 318.863 0.0277724 307.833C-0.0122276 299.973 0.0177721 292.113 0.0977721 284.273V283.973C0.207772 272.643 0.397773 181.503 0.707773 170.193C0.937773 161.153 1.22777 152.113 1.59777 143.063C2.08777 130.853 2.67777 118.623 3.38777 106.413C3.92777 97.2125 5.84777 88.5725 8.88777 80.8025C11.5978 73.8225 15.2278 67.5725 19.5278 62.2825C28.0178 50.3125 39.7778 42.3725 53.0578 41.0325C112.028 35.1125 246.648 35.1125 305.598 41.0325C318.878 42.3725 330.638 50.3125 339.128 62.2825C344.618 69.0025 348.978 77.2925 351.798 86.6525C353.668 92.8125 354.878 99.4525 355.278 106.403C356.018 119.253 356.648 132.123 357.138 144.973C357.518 154.623 357.828 164.293 358.058 173.943C358.298 183.723 358.458 273.303 358.558 283.083V283.163C358.648 291.713 358.668 300.253 358.648 308.803V308.813Z" fill="url(#paint0_radial_2011_9937)"/>
<path d="M358.398 319.943C358.248 329.333 358.038 338.732 357.738 348.123C357.248 364.142 356.578 380.173 355.708 396.213V396.233C355.578 398.763 355.428 401.293 355.278 403.823C354.258 421.283 348.228 436.763 339.128 447.933C330.638 459.903 318.878 467.843 305.598 469.183C246.648 475.103 112.028 475.103 53.0577 469.183C39.7777 467.843 28.0177 459.903 19.5277 447.933C10.8877 437.323 5.01773 422.843 3.57773 406.453C3.48773 405.593 3.42773 404.713 3.38773 403.833C2.41773 387.143 1.65773 370.453 1.11773 353.773C0.757734 342.733 0.477732 331.693 0.307732 320.643V320.623C0.0477322 306.232 -0.0222661 212.043 0.0477339 197.653V197.463C0.0677339 193.912 0.0977321 190.373 0.137732 186.823C0.237732 176.823 0.417733 166.823 0.677733 156.813C1.13773 138.443 1.85773 120.053 2.82773 101.663C3.00773 98.2025 3.18773 94.7325 3.39773 91.2725C4.40773 73.7925 10.4377 58.3225 19.5377 47.1525C28.0277 35.2025 39.7877 27.2425 53.0677 25.9125C112.038 19.9925 246.658 19.9925 305.608 25.9125C318.888 27.2425 330.648 35.1925 339.138 47.1525C348.238 58.3225 354.268 73.8025 355.288 91.2725C355.558 95.8325 355.798 100.413 356.028 104.973C356.928 122.333 357.588 139.703 358.038 157.063C358.308 167.853 358.488 178.633 358.588 189.423C358.598 191.163 358.628 192.893 358.638 194.643V195.253C358.728 210.213 358.648 304.983 358.408 319.953L358.398 319.943Z" fill="url(#paint1_radial_2011_9937)"/>
<g style="mix-blend-mode:hard-light" opacity="0.2">
<path d="M355.288 82.8925C354.278 65.3325 348.238 49.7725 339.148 38.5425C330.658 26.5125 318.898 18.5325 305.618 17.1925C246.658 11.2425 112.038 11.2425 53.0777 17.1925C39.7977 18.5325 28.0377 26.5125 19.5477 38.5425C10.4477 49.7725 4.41772 65.3225 3.40771 82.8925C-1.09229 160.863 -1.09229 318.642 3.40771 396.622C4.41772 414.182 10.4577 429.742 19.5477 440.973C28.0377 453.003 39.7977 460.983 53.0777 462.323C112.038 468.273 246.658 468.273 305.618 462.323C318.898 460.983 330.658 453.003 339.148 440.973C348.248 429.742 354.278 414.193 355.288 396.622C359.788 318.652 359.788 160.873 355.288 82.8925Z" fill="white"/>
</g>
<path d="M357.388 344.062C356.858 359.392 356.158 374.713 355.288 390.043C354.278 407.963 348.248 423.833 339.148 435.293C330.658 447.573 318.898 455.713 305.618 457.073C246.658 463.163 112.038 463.163 53.0777 457.073C39.7977 455.713 28.0377 447.573 19.5477 435.293C10.4477 423.842 4.41774 407.973 3.40774 390.043C2.60774 375.863 1.94774 361.663 1.42774 347.483C-0.952259 282.113 -0.29226 136.953 3.40774 71.5925C4.41774 53.6825 10.4477 37.8125 19.5477 26.3425C28.0377 14.0825 39.7977 5.94251 53.0777 4.56251C112.038 -1.50749 246.658 -1.50749 305.618 4.56251C318.898 5.94251 330.658 14.0825 339.148 26.3425C348.248 37.8125 354.278 53.6825 355.288 71.5925C358.918 135.813 359.628 279.842 357.388 344.073V344.062Z" fill="url(#paint2_radial_2011_9937)"/>
<path style="mix-blend-mode:overlay" opacity="0.6" d="M358.598 170.803C358.338 137.143 357.238 103.483 355.288 69.8125C354.278 52.3525 348.248 36.8725 339.148 25.6925C330.658 13.7325 318.898 5.80251 305.618 4.45251C246.658 -1.46749 112.038 -1.46749 53.0778 4.45251C39.7978 5.79251 28.0378 13.7325 19.5478 25.6925C10.4478 36.8725 4.41777 52.3525 3.40777 69.8125C1.41777 104.063 0.317769 138.303 0.0877686 172.543C1.14777 172.843 2.21777 173.163 3.27777 173.453C12.8778 176.153 22.4878 178.543 32.0778 180.623C35.4778 181.373 38.8878 182.073 42.2878 182.743C106.368 195.333 249.708 194.853 313.638 181.943C317.388 181.183 321.158 180.383 324.908 179.543C335.548 177.143 346.188 174.413 356.838 171.333C357.428 171.163 358.018 170.983 358.608 170.813L358.598 170.803Z" fill="url(#paint3_radial_2011_9937)"/>
<g style="mix-blend-mode:overlay">
<path d="M303.888 18.9889C305.428 15.419 303.179 11.0155 298.863 9.15347C294.548 7.29141 289.801 8.67592 288.261 12.2458C286.72 15.8158 288.97 20.2193 293.285 22.0813C297.6 23.9434 302.347 22.5589 303.888 18.9889Z" fill="url(#paint4_radial_2011_9937)"/>
<path d="M315.87 21.2969C316.699 19.3751 315.493 17.0064 313.175 16.0065C310.858 15.0065 308.307 15.7539 307.478 17.6758C306.649 19.5977 307.855 21.9663 310.172 22.9662C312.49 23.9662 315.041 23.2188 315.87 21.2969Z" fill="url(#paint5_radial_2011_9937)"/>
<path d="M352.708 336.062C352.708 347.682 348.658 357.113 346.298 357.113C343.938 357.113 347.008 350.212 347.008 338.592C347.008 326.972 343.938 315.023 346.298 315.023C348.658 315.023 352.708 324.443 352.708 336.073V336.062Z" fill="url(#paint6_radial_2011_9937)"/>
<path d="M344.895 78.3121C348.251 77.9576 350.398 72.2428 349.691 65.5477C348.984 58.8526 345.69 53.7125 342.334 54.067C338.978 54.4215 336.831 60.1363 337.539 66.8314C338.246 73.5265 341.54 78.6666 344.895 78.3121Z" fill="url(#paint7_radial_2011_9937)"/>
<path d="M347.033 95.6993C348.834 95.509 349.987 92.4385 349.607 88.841C349.227 85.2436 347.458 82.4815 345.657 82.6718C343.855 82.8621 342.703 85.9327 343.083 89.5301C343.463 93.1276 345.232 95.8896 347.033 95.6993Z" fill="url(#paint8_radial_2011_9937)"/>
<path d="M128.528 11.5625C128.758 14.5225 78.4277 15.4825 60.4977 19.6225C24.0877 28.0125 25.9777 52.2925 20.7277 52.2525C15.3677 52.2025 17.4377 20.1325 59.6177 13.1625C96.9877 6.9825 128.288 8.6125 128.528 11.5725V11.5625Z" fill="url(#paint9_radial_2011_9937)"/>
<path d="M19.5497 69.0348C20.5743 62.1463 19.6733 56.3045 17.5374 55.9868C15.4015 55.6691 12.8393 60.9958 11.8148 67.8843C10.7902 74.7729 11.6911 80.6147 13.8271 80.9324C15.963 81.25 18.5251 75.9233 19.5497 69.0348Z" fill="url(#paint10_radial_2011_9937)"/>
</g>
<g style="mix-blend-mode:overlay" opacity="0.4" filter="url(#filter0_f_2011_9937)">
<path d="M26.1678 58.1825C34.1978 48.2825 45.3178 41.7025 57.8778 40.5925C113.628 35.6925 245.048 35.6925 300.798 40.5925C313.358 41.7025 324.478 48.2825 332.508 58.1825C338.358 64.4825 342.858 72.4225 345.448 81.4025C345.238 77.7125 345.048 74.0325 344.808 70.3425C343.878 55.8825 338.298 43.0625 329.888 33.7925C322.038 23.8925 311.178 17.3125 298.898 16.2025C244.418 11.3025 114.268 11.3025 59.7778 16.2025C47.4978 17.3125 36.6378 23.8925 28.7878 33.7925C20.3778 43.0525 14.8078 55.8725 13.8678 70.3425C13.6278 74.0225 13.4378 77.7125 13.2278 81.3925C15.8178 72.4125 20.3178 64.4725 26.1678 58.1825Z" fill="url(#paint11_linear_2011_9937)"/>
</g>
<g style="mix-blend-mode:soft-light" opacity="0.3">
<path d="M292.248 53.3925C292.318 76.2025 63.3078 77.0425 63.2378 54.2325C63.1678 31.4225 23.4278 12.6225 184.738 12.5125C324.338 12.4125 292.178 30.5825 292.248 53.3925Z" fill="white"/>
</g>
<g style="mix-blend-mode:soft-light" opacity="0.75" filter="url(#filter1_f_2011_9937)">
<path d="M337.108 348.993C328.758 360.763 317.198 368.573 304.138 369.883C246.158 375.713 112.518 375.713 54.5378 369.883C41.4778 368.573 29.9078 360.763 21.5678 348.993C20.2078 347.323 18.9278 345.543 17.7078 343.683C18.1678 356.203 18.7578 368.713 19.4878 381.233C20.3878 396.673 25.7178 410.343 33.7478 420.213C41.2478 430.783 51.6378 437.803 63.3778 438.983C115.468 444.213 243.218 444.213 295.308 438.983C307.038 437.803 317.428 430.793 324.938 420.213C332.978 410.343 338.308 396.673 339.198 381.233C339.928 368.713 340.518 356.203 340.978 343.683C339.758 345.543 338.478 347.323 337.118 348.993H337.108Z" fill="url(#paint12_linear_2011_9937)"/>
</g>
<path d="M20.2077 340.693C20.6977 354.443 21.3277 368.183 22.1277 381.933C23.0477 398.003 28.5677 412.243 36.8777 422.513C44.6377 433.523 55.3777 440.823 67.5177 442.043C121.398 447.503 234.348 447.503 288.228 442.043C300.368 440.823 311.118 433.523 318.868 422.513C327.178 412.243 332.698 398.013 333.618 381.933C334.358 369.213 334.948 356.483 335.428 343.763C337.608 285.143 336.998 145.913 333.618 87.2925C332.698 71.2325 327.178 57.0025 318.868 46.7125C311.108 35.7125 300.368 28.4125 288.228 27.1825C234.348 21.7325 121.398 21.7325 67.5177 27.1825C55.3777 28.4225 44.6277 35.7225 36.8777 46.7125C28.5677 57.0025 23.0477 71.2325 22.1277 87.2925C18.8077 144.893 18.1677 283.103 20.2077 340.703V340.693Z" fill="url(#paint13_radial_2011_9937)"/>
<path style="mix-blend-mode:overlay" d="M28.3678 236.633C28.6278 215.643 29.6078 85.7025 31.3078 68.7325C32.2078 59.7025 37.6078 51.7025 45.7578 45.9225C53.3578 39.7425 63.8778 35.6425 75.7678 34.9425C128.528 31.8825 237.158 31.8825 289.928 34.9425C301.818 35.6425 312.338 39.7425 319.938 45.9225C328.078 51.7025 333.478 59.7025 334.388 68.7325C336.168 86.4325 337.148 221.293 337.358 238.993C336.408 239.153 335.458 239.313 334.498 239.463C325.898 240.853 317.308 242.093 308.728 243.173C305.678 243.563 302.638 243.923 299.588 244.263C242.248 250.773 125.818 250.523 68.6078 243.853C65.2478 243.463 61.8778 243.043 58.5178 242.613C48.9578 241.363 39.3778 239.953 29.7978 238.343L28.3778 236.643L28.3678 236.633Z" fill="url(#paint14_radial_2011_9937)"/>
<g style="mix-blend-mode:overlay" opacity="0.15" filter="url(#filter2_f_2011_9937)">
<path d="M315.458 346.393C308.018 355.843 297.708 362.113 286.068 363.173C234.398 367.853 121.408 367.853 69.7278 363.173C58.0878 362.113 47.7778 355.833 40.3378 346.393C34.9178 340.383 30.7478 332.813 28.3478 324.243C28.5478 327.763 28.7278 331.273 28.9478 334.793C29.8178 348.593 34.9778 360.823 42.7778 369.663C50.0478 379.113 60.1278 385.383 71.4978 386.443C121.998 391.123 233.808 391.123 284.308 386.443C295.688 385.383 305.758 379.103 313.028 369.663C320.818 360.823 325.988 348.593 326.858 334.793C327.078 331.273 327.258 327.763 327.448 324.253C325.048 332.823 320.878 340.393 315.458 346.403V346.393Z" fill="url(#paint15_linear_2011_9937)"/>
</g>
<g style="mix-blend-mode:overlay" opacity="0.38" filter="url(#filter3_f_2011_9937)">
<path d="M315.458 78.6125C308.018 69.1625 297.708 62.8925 286.068 61.8325C234.398 57.1525 121.408 57.1525 69.7278 61.8325C58.0878 62.8925 47.7778 69.1725 40.3378 78.6125C34.9178 84.6225 30.7478 92.1925 28.3478 100.763C28.5478 97.2425 28.7278 93.7325 28.9478 90.2125C29.8178 76.4125 34.9778 64.1825 42.7778 55.3425C50.0478 45.8925 60.1278 39.6225 71.4978 38.5625C121.998 33.8825 233.808 33.8825 284.308 38.5625C295.688 39.6225 305.758 45.9025 313.028 55.3425C320.818 64.1825 325.988 76.4125 326.858 90.2125C327.078 93.7325 327.258 97.2425 327.448 100.753C325.048 92.1825 320.878 84.6125 315.458 78.6025V78.6125Z" fill="url(#paint16_linear_2011_9937)"/>
</g>
<g style="mix-blend-mode:multiply" opacity="0.25" filter="url(#filter4_f_2011_9937)">
<path d="M333.538 365.872C325.288 375.752 313.868 382.303 300.968 383.403C243.698 388.293 114.728 388.293 57.4578 383.403C44.5578 382.303 33.1378 375.752 24.8878 365.872C23.5478 364.472 22.2778 362.973 21.0778 361.413C21.5378 371.913 22.1178 382.423 22.8378 392.923C23.7278 405.883 28.9878 417.353 36.9278 425.633C44.3378 434.503 54.5978 440.393 66.1878 441.383C117.638 445.773 240.798 445.773 292.248 441.383C303.838 440.393 314.098 434.503 321.508 425.633C329.448 417.353 334.708 405.873 335.598 392.923C336.318 382.423 336.898 371.913 337.358 361.413C336.158 362.973 334.888 364.472 333.548 365.872H333.538Z" fill="url(#paint17_linear_2011_9937)"/>
</g>
<path style="mix-blend-mode:overlay" opacity="0.15" d="M9.47777 267.853L177.458 251.673L8.83777 255.123L9.47777 267.853ZM14.6278 299.073L177.448 251.673L11.9478 286.663L14.6278 299.073ZM24.7378 328.853L177.458 251.673L20.0978 317.133L24.7378 328.853ZM39.4778 356.283L177.448 251.673L33.0178 345.603L39.4678 356.283H39.4778ZM58.4178 380.533L177.458 251.663L50.3478 371.223L58.4178 380.533ZM80.9778 400.872L177.458 251.673L71.5278 393.223L80.9778 400.872ZM106.458 416.683L177.448 251.673L95.9178 410.913L106.458 416.683ZM134.098 427.473L177.448 251.673L122.788 423.773L134.098 427.483V427.473ZM163.058 432.923L177.448 251.673L151.318 431.393L163.048 432.923H163.058ZM192.458 432.863L177.458 251.673L180.658 433.562L192.458 432.872V432.863ZM221.398 427.303L177.458 251.673L209.888 430.193L221.398 427.303ZM249.008 416.403L177.458 251.673L238.138 421.403L249.008 416.403ZM274.438 400.493L177.458 251.663L264.548 407.453L274.448 400.493H274.438ZM296.928 380.073L177.458 251.673L288.298 388.783L296.928 380.073ZM315.778 355.743L177.458 251.673L308.688 365.943L315.788 355.743H315.778ZM330.428 328.253L177.448 251.673L325.078 339.622L330.428 328.253ZM340.438 298.433L177.458 251.663L336.998 310.633L340.438 298.433ZM345.488 267.193L177.448 251.663L344.068 279.842L345.488 267.183V267.193ZM345.438 235.493L177.458 251.673L346.078 248.223L345.448 235.493H345.438ZM340.288 204.273L177.458 251.673L342.958 216.693L340.288 204.273ZM330.178 174.493L177.458 251.673L334.818 186.223L330.178 174.493ZM315.428 147.063L177.448 251.673L321.878 157.743L315.428 147.063ZM296.498 122.803L177.458 251.673L304.568 132.113L296.498 122.803ZM273.948 102.463L177.458 251.663L283.398 110.113L273.948 102.453V102.463ZM248.458 86.6625L177.458 251.673L258.998 92.4325L248.458 86.6625ZM220.808 75.8625L177.448 251.663L232.118 79.5625L220.808 75.8525V75.8625ZM191.858 70.4125L177.458 251.663L203.588 71.9425L191.858 70.4125ZM162.458 70.4725L177.458 251.673L174.258 69.7925L162.458 70.4825V70.4725ZM133.518 76.0325L177.458 251.663L145.028 73.1425L133.518 76.0325ZM105.908 86.9325L177.458 251.673L116.778 81.9325L105.908 86.9325ZM80.4778 102.833L177.458 251.663L90.3778 95.8725L80.4778 102.833ZM57.9878 123.263L177.458 251.663L66.6178 114.553L57.9878 123.263ZM39.1278 147.593L177.448 251.673L46.2178 137.403L39.1278 147.593ZM24.4778 175.083L177.458 251.673L29.8278 163.713L24.4878 175.083H24.4778ZM14.4678 204.903L177.448 251.673L17.8978 192.713L14.4578 204.903H14.4678ZM9.41777 236.133L177.458 251.663L10.8478 223.483L9.42777 236.133H9.41777Z" fill="url(#paint18_radial_2011_9937)"/>
<g style="mix-blend-mode:saturation">
<path d="M358.658 241.272C358.678 219.972 358.658 201.222 358.628 195.242V194.632C358.618 192.892 358.588 191.162 358.578 189.412C358.478 178.622 358.298 167.842 358.028 157.052C357.958 154.432 357.878 151.812 357.798 149.192C357.238 118.842 356.398 91.4025 355.268 71.5825C354.258 53.6725 348.228 37.8025 339.128 26.3325C330.638 14.0725 318.878 5.9325 305.598 4.5525C246.638 -1.5175 112.018 -1.5175 53.0578 4.5525C39.7779 5.9325 28.0178 14.0725 19.5278 26.3325C10.4278 37.8025 4.39785 53.6725 3.38785 71.5825C2.22785 92.1525 1.35785 120.622 0.797847 152.012C0.757847 153.602 0.697846 155.202 0.657846 156.792C0.397846 166.792 0.217847 176.792 0.117847 186.802C0.0778465 190.352 0.0578464 193.892 0.0278464 197.442V197.632C0.00784639 202.552 -0.00215407 216.792 0.00784593 233.982C-0.0121541 244.522 0.00784685 254.923 0.0478469 265.043C0.0878468 290.113 0.167847 313.932 0.287847 320.603V320.622C0.457847 331.663 0.737846 342.712 1.09785 353.753C1.64785 370.432 2.39785 387.122 3.36785 403.812C3.41785 404.693 3.47785 405.573 3.55785 406.433C4.99785 422.823 10.8678 437.303 19.5078 447.913C27.9978 459.883 39.7578 467.823 53.0378 469.163C112.008 475.083 246.628 475.083 305.578 469.163C318.858 467.823 330.618 459.883 339.108 447.913C348.208 436.742 354.238 421.263 355.258 403.803C355.408 401.273 355.548 398.743 355.688 396.213V396.193C356.568 380.152 357.228 364.122 357.718 348.103C358.008 338.712 358.228 329.313 358.378 319.923C358.498 312.683 358.578 286.793 358.608 260.283C358.628 254.033 358.638 247.682 358.628 241.262L358.658 241.272Z" fill="black"/>
</g>
<defs>
<filter id="filter0_f_2011_9937" x="5.22778" y="4.52751" width="348.22" height="84.875" filterUnits="userSpaceOnUse" color-interpolation-filters="sRGB">
<feFlood flood-opacity="0" result="BackgroundImageFix"/>
<feBlend mode="normal" in="SourceGraphic" in2="BackgroundImageFix" result="shape"/>
<feGaussianBlur stdDeviation="4" result="effect1_foregroundBlur_2011_9937"/>
</filter>
<filter id="filter1_f_2011_9937" x="9.70776" y="335.683" width="339.27" height="115.223" filterUnits="userSpaceOnUse" color-interpolation-filters="sRGB">
<feFlood flood-opacity="0" result="BackgroundImageFix"/>
<feBlend mode="normal" in="SourceGraphic" in2="BackgroundImageFix" result="shape"/>
<feGaussianBlur stdDeviation="4" result="effect1_foregroundBlur_2011_9937"/>
</filter>
<filter id="filter2_f_2011_9937" x="20.3478" y="316.243" width="315.1" height="81.71" filterUnits="userSpaceOnUse" color-interpolation-filters="sRGB">
<feFlood flood-opacity="0" result="BackgroundImageFix"/>
<feBlend mode="normal" in="SourceGraphic" in2="BackgroundImageFix" result="shape"/>
<feGaussianBlur stdDeviation="4" result="effect1_foregroundBlur_2011_9937"/>
</filter>
<filter id="filter3_f_2011_9937" x="20.3478" y="27.0525" width="315.1" height="81.71" filterUnits="userSpaceOnUse" color-interpolation-filters="sRGB">
<feFlood flood-opacity="0" result="BackgroundImageFix"/>
<feBlend mode="normal" in="SourceGraphic" in2="BackgroundImageFix" result="shape"/>
<feGaussianBlur stdDeviation="4" result="effect1_foregroundBlur_2011_9937"/>
</filter>
<filter id="filter4_f_2011_9937" x="13.0778" y="353.413" width="332.28" height="99.2625" filterUnits="userSpaceOnUse" color-interpolation-filters="sRGB">
<feFlood flood-opacity="0" result="BackgroundImageFix"/>
<feBlend mode="normal" in="SourceGraphic" in2="BackgroundImageFix" result="shape"/>
<feGaussianBlur stdDeviation="4" result="effect1_foregroundBlur_2011_9937"/>
</filter>
<radialGradient id="paint0_radial_2011_9937" cx="0" cy="0" r="1" gradientUnits="userSpaceOnUse" gradientTransform="translate(176.655 263.477) scale(200.339 265.384)">
<stop/>
<stop offset="0.84" stop-opacity="0.2"/>
</radialGradient>
<radialGradient id="paint1_radial_2011_9937" cx="0" cy="0" r="1" gradientUnits="userSpaceOnUse" gradientTransform="translate(176.671 247.575) scale(200.015 264.955)">
<stop stop-color="#7AF9E6"/>
<stop offset="1" stop-color="#469BA7"/>
</radialGradient>
<radialGradient id="paint2_radial_2011_9937" cx="0" cy="0" r="1" gradientUnits="userSpaceOnUse" gradientTransform="translate(179.929 191.083) rotate(-90.8) scale(289.538 220.6)">
<stop stop-color="#7AF9E6"/>
<stop offset="1" stop-color="#469BA7"/>
</radialGradient>
<radialGradient id="paint3_radial_2011_9937" cx="0" cy="0" r="1" gradientUnits="userSpaceOnUse" gradientTransform="translate(180.264 79.2836) rotate(-90.82) scale(208.1 163.216)">
<stop stop-color="white"/>
<stop offset="1" stop-color="white" stop-opacity="0"/>
</radialGradient>
<radialGradient id="paint4_radial_2011_9937" cx="0" cy="0" r="1" gradientUnits="userSpaceOnUse" gradientTransform="translate(-300.959 -128.602) rotate(-165.22) scale(4.1551 13.476)">
<stop offset="0.51" stop-color="white"/>
<stop offset="1" stop-color="white" stop-opacity="0"/>
</radialGradient>
<radialGradient id="paint5_radial_2011_9937" cx="0" cy="0" r="1" gradientUnits="userSpaceOnUse" gradientTransform="translate(-278.534 -123.397) rotate(-165.22) scale(2.2311 7.23602)">
<stop offset="0.51" stop-color="white"/>
<stop offset="1" stop-color="white" stop-opacity="0"/>
</radialGradient>
<radialGradient id="paint6_radial_2011_9937" cx="0" cy="0" r="1" gradientUnits="userSpaceOnUse" gradientTransform="translate(351.412 339.951) rotate(-90.95) scale(20.9949 6.2538)">
<stop stop-color="white"/>
<stop offset="1" stop-color="white" stop-opacity="0"/>
</radialGradient>
<radialGradient id="paint7_radial_2011_9937" cx="0" cy="0" r="1" gradientUnits="userSpaceOnUse" gradientTransform="translate(275.319 -406.939) rotate(-96.24) scale(6.0048 11.6343)">
<stop offset="0.51" stop-color="white"/>
<stop offset="1" stop-color="white" stop-opacity="0"/>
</radialGradient>
<radialGradient id="paint8_radial_2011_9937" cx="0" cy="0" r="1" gradientUnits="userSpaceOnUse" gradientTransform="translate(279.082 -378.524) rotate(-96.24) scale(3.2304 6.2589)">
<stop offset="0.51" stop-color="white"/>
<stop offset="1" stop-color="white" stop-opacity="0"/>
</radialGradient>
<radialGradient id="paint9_radial_2011_9937" cx="0" cy="0" r="1" gradientUnits="userSpaceOnUse" gradientTransform="translate(52.3227 6.67998) rotate(-96.54) scale(29.81 108.508)">
<stop offset="0.51" stop-color="white"/>
<stop offset="1" stop-color="white" stop-opacity="0"/>
</radialGradient>
<radialGradient id="paint10_radial_2011_9937" cx="0" cy="0" r="1" gradientUnits="userSpaceOnUse" gradientTransform="translate(16.299 69.1649) rotate(-84.43) scale(12.5424 3.5568)">
<stop offset="0.51" stop-color="white"/>
<stop offset="1" stop-color="white" stop-opacity="0"/>
</radialGradient>
<linearGradient id="paint11_linear_2011_9937" x1="179.338" y1="81.4025" x2="179.338" y2="12.5325" gradientUnits="userSpaceOnUse">
<stop stop-color="white" stop-opacity="0"/>
<stop offset="1" stop-color="white"/>
</linearGradient>
<linearGradient id="paint12_linear_2011_9937" x1="179.338" y1="441.843" x2="179.338" y2="328.073" gradientUnits="userSpaceOnUse">
<stop/>
<stop offset="0.09" stop-color="#0C0C0C"/>
<stop offset="0.24" stop-color="#2C2C2C"/>
<stop offset="0.46" stop-color="#616161"/>
<stop offset="0.71" stop-color="#AAAAAA"/>
<stop offset="0.98" stop-color="white"/>
</linearGradient>
<radialGradient id="paint13_radial_2011_9937" cx="0" cy="0" r="1" gradientUnits="userSpaceOnUse" gradientTransform="translate(177.438 199.883) rotate(-89.19) scale(258.116 201.892)">
<stop stop-color="#65BAB3"/>
<stop offset="1" stop-color="#2D6069"/>
</radialGradient>
<radialGradient id="paint14_radial_2011_9937" cx="0" cy="0" r="1" gradientUnits="userSpaceOnUse" gradientTransform="translate(181.733 133.059) rotate(-88.59) scale(137.78 186.124)">
<stop stop-color="white"/>
<stop offset="1" stop-color="white" stop-opacity="0"/>
</radialGradient>
<linearGradient id="paint15_linear_2011_9937" x1="177.898" y1="324.233" x2="177.898" y2="389.943" gradientUnits="userSpaceOnUse">
<stop stop-color="white" stop-opacity="0"/>
<stop offset="1" stop-color="white"/>
</linearGradient>
<linearGradient id="paint16_linear_2011_9937" x1="177.898" y1="100.763" x2="177.898" y2="35.0525" gradientUnits="userSpaceOnUse">
<stop stop-color="white" stop-opacity="0"/>
<stop offset="1" stop-color="white"/>
</linearGradient>
<linearGradient id="paint17_linear_2011_9937" x1="179.208" y1="443.793" x2="179.208" y2="348.313" gradientUnits="userSpaceOnUse">
<stop/>
<stop offset="0.09" stop-color="#0C0C0C"/>
<stop offset="0.24" stop-color="#2C2C2C"/>
<stop offset="0.46" stop-color="#616161"/>
<stop offset="0.71" stop-color="#AAAAAA"/>
<stop offset="0.98" stop-color="white"/>
</linearGradient>
<radialGradient id="paint18_radial_2011_9937" cx="0" cy="0" r="1" gradientUnits="userSpaceOnUse" gradientTransform="translate(177.616 252.687) scale(192.044 198.666)">
<stop offset="0.37" stop-color="white"/>
<stop offset="0.42" stop-color="white" stop-opacity="0.96"/>
<stop offset="0.51" stop-color="white" stop-opacity="0.86"/>
<stop offset="0.62" stop-color="white" stop-opacity="0.7"/>
<stop offset="0.76" stop-color="white" stop-opacity="0.47"/>
<stop offset="0.91" stop-color="white" stop-opacity="0.19"/>
<stop offset="1" stop-color="white" stop-opacity="0"/>
</radialGradient>
</defs>
</svg>
