<svg width="37" height="48" viewBox="0 0 37 48" fill="none" xmlns="http://www.w3.org/2000/svg">
<path d="M17.9 34.8C27.2336 34.8 34.8 27.2336 34.8 17.9C34.8 8.56639 27.2336 1 17.9 1C8.56639 1 1 8.56639 1 17.9C1 27.2336 8.56639 34.8 17.9 34.8Z" stroke="#2AFCFD" stroke-width="1.4" stroke-miterlimit="10"/>
<path d="M17.9001 30.94C25.1019 30.94 30.9401 25.1018 30.9401 17.9C30.9401 10.6982 25.1019 4.85999 17.9001 4.85999C10.6983 4.85999 4.86011 10.6982 4.86011 17.9C4.86011 25.1018 10.6983 30.94 17.9001 30.94Z" stroke="#2AFCFD" stroke-width="1.4" stroke-miterlimit="10"/>
<path d="M6.40015 30.4299L1.65015 40.6099L9.83015 38.8999L14.7301 45.9099L19.3501 34.9199" stroke="#2AFCFD" stroke-width="1.4" stroke-miterlimit="10"/>
<path d="M30.25 29.46L35.43 40.14L27.21 38.64L22.48 45.77L18.48 36.84" stroke="#2AFCFD" stroke-width="1.4" stroke-miterlimit="10"/>
<path d="M11.375 24.885C11.375 24.135 11.725 23.485 12.375 22.96L17.35 18.885C19.525 17.11 20.375 16.135 20.375 14.685C20.375 13.21 19.4 12.41 18.025 12.41C16.925 12.41 16.15 12.885 15.175 13.935C14.925 14.21 14.475 14.485 13.875 14.485C12.9 14.485 12.125 13.71 12.125 12.735C12.125 12.31 12.3 11.86 12.575 11.535C13.975 9.90996 15.625 8.95996 18.275 8.95996C21.9 8.95996 24.3 11.085 24.3 14.36V14.41C24.3 17.335 22.8 18.785 19.7 21.185L16.85 23.385H22.95C23.875 23.385 24.625 24.135 24.625 25.06C24.625 25.985 23.875 26.71 22.95 26.71H13.45C12.25 26.71 11.375 26.035 11.375 24.885Z" fill="#2AFCFD"/>
</svg>
