<svg width="37" height="48" viewBox="0 0 37 48" fill="none" xmlns="http://www.w3.org/2000/svg">
<path d="M17.9 34.8C27.2336 34.8 34.8 27.2336 34.8 17.9C34.8 8.5664 27.2336 1 17.9 1C8.56639 1 1 8.5664 1 17.9C1 27.2336 8.56639 34.8 17.9 34.8Z" stroke="#2AFCFD" stroke-width="1.4" stroke-miterlimit="10"/>
<path d="M17.9001 30.9401C25.1019 30.9401 30.9401 25.1019 30.9401 17.9001C30.9401 10.6983 25.1019 4.86011 17.9001 4.86011C10.6983 4.86011 4.86011 10.6983 4.86011 17.9001C4.86011 25.1019 10.6983 30.9401 17.9001 30.9401Z" stroke="#2AFCFD" stroke-width="1.4" stroke-miterlimit="10"/>
<path d="M6.40015 30.4401L1.65015 40.6101L9.83015 38.9001L14.7301 45.9101L19.3501 34.9201" stroke="#2AFCFD" stroke-width="1.4" stroke-miterlimit="10"/>
<path d="M30.25 29.4601L35.43 40.1401L27.21 38.6401L22.48 45.7701L18.48 36.8401" stroke="#2AFCFD" stroke-width="1.4" stroke-miterlimit="10"/>
<path d="M18.0951 27.0101C15.5951 27.0101 13.7201 26.2351 12.2951 25.0101C11.9451 24.7101 11.6451 24.1851 11.6451 23.6351C11.6451 22.6351 12.4951 21.7851 13.4951 21.7851C14.0451 21.7851 14.4201 22.0101 14.7201 22.2601C15.7201 23.1101 16.7701 23.5601 18.1451 23.5601C19.5951 23.5601 20.6201 22.7351 20.6201 21.4351V21.3851C20.6201 19.9601 19.3451 19.1601 17.1951 19.1601H16.5951C15.6951 19.1601 14.9451 18.4101 14.9451 17.5101C14.9451 16.9851 15.1701 16.5351 15.7701 15.9351L19.1701 12.5101H13.7951C12.8951 12.5101 12.1451 11.7601 12.1451 10.8601C12.1451 9.96008 12.8951 9.21008 13.7951 9.21008H22.3201C23.4451 9.21008 24.2701 9.86008 24.2701 10.9101C24.2701 11.8601 23.8201 12.3851 23.1201 13.0601L19.6951 16.3351C22.0701 16.7351 24.3951 17.9851 24.3951 21.2351V21.2851C24.3951 24.5851 21.9951 27.0101 18.0951 27.0101Z" fill="#2AFCFD"/>
</svg>
