<svg width="37" height="48" viewBox="0 0 37 48" fill="none" xmlns="http://www.w3.org/2000/svg">
<path d="M17.9 34.8C27.2336 34.8 34.8 27.2336 34.8 17.9C34.8 8.56639 27.2336 1 17.9 1C8.56639 1 1 8.56639 1 17.9C1 27.2336 8.56639 34.8 17.9 34.8Z" stroke="#2AFCFD" stroke-width="1.4" stroke-miterlimit="10"/>
<path d="M17.9001 30.9401C25.1019 30.9401 30.9401 25.1019 30.9401 17.9001C30.9401 10.6983 25.1019 4.86011 17.9001 4.86011C10.6983 4.86011 4.86011 10.6983 4.86011 17.9001C4.86011 25.1019 10.6983 30.9401 17.9001 30.9401Z" stroke="#2AFCFD" stroke-width="1.4" stroke-miterlimit="10"/>
<path d="M6.40015 30.4301L1.65015 40.6001L9.83015 38.9001L14.7301 45.9101L19.3501 34.9201" stroke="#2AFCFD" stroke-width="1.4" stroke-miterlimit="10"/>
<path d="M30.25 29.4601L35.43 40.1401L27.21 38.6401L22.48 45.7701L18.48 36.8401" stroke="#2AFCFD" stroke-width="1.4" stroke-miterlimit="10"/>
<path d="M16.6302 25.55V13.45L15.2802 13.8C15.0802 13.85 14.8052 13.9 14.6052 13.9C13.7052 13.9 12.9302 13.15 12.9302 12.25C12.9302 11.475 13.4302 10.825 14.2052 10.6L16.6802 9.87505C17.4052 9.67505 17.9552 9.55005 18.4802 9.55005H18.5302C19.5802 9.55005 20.4302 10.4 20.4302 11.45V25.55C20.4302 26.6 19.5802 27.45 18.5302 27.45C17.4802 27.45 16.6302 26.6 16.6302 25.55Z" fill="#2AFCFD"/>
</svg>
