<svg width="252" height="167" viewBox="0 0 252 167" fill="none" xmlns="http://www.w3.org/2000/svg">
<path d="M92.093 113.541C92.093 113.541 98.6635 117.094 106.164 112.803C113.57 108.568 108.305 99.4988 108.683 91.9844C108.897 87.7314 110.811 84.5672 113.116 82.7212C115.317 80.9568 117.18 80.9742 117.702 81.7018C119.13 83.692 117.232 85.3887 115.081 87.1913C112.453 89.3934 111.783 91.1404 111.912 92.3873C114.382 87.4205 118.41 85.9809 121.159 85.8576C124.547 85.7065 125.349 87.4049 125.081 88.5962C124.813 89.7858 123.477 90.4388 120.804 90.0585C119.008 89.8032 116.67 90.7827 115.11 92.0521C120.799 91.3488 122.94 92.8475 123.996 93.985C125.051 95.1225 124.691 96.3521 124.152 96.8105C123.293 97.5434 121.924 97.2082 120.585 96.0134C119.415 94.9679 117.587 94.8568 117.587 94.8568C117.587 94.8568 119.281 97.922 118.952 101.376C118.733 103.681 115.959 104.631 115.959 104.631C114.81 113.816 108.989 116.711 104.35 117.641C101.66 118.182 97.6391 118.301 95.2304 117.332C93.8026 118.682 90.3104 118.459 89.2583 115.457C88.6287 113.663 90.3626 112.895 92.0965 113.543L92.093 113.541Z" fill="url(#paint0_linear_473_10004)" stroke="#F9F1C7" stroke-width="1.07" stroke-miterlimit="10"/>
<path d="M109.813 93.0158C111.971 91.748 115.757 92.5972 117.236 94.6013L117.21 94.6274C115.709 93.3561 113.705 92.731 111.752 92.7136C111.102 92.7188 110.43 92.7917 109.83 93.0488L109.813 93.0158Z" fill="#F1C8A2"/>
<path d="M92.507 116.03C99.3452 119.142 108.78 118.202 113.417 111.836C114.888 109.743 115.679 107.171 115.747 104.625V104.479C116.218 104.328 116.686 104.102 117.1 103.814C117.937 103.25 118.547 102.378 118.705 101.378C118.884 100.11 118.648 98.8387 118.363 97.5883C118.14 96.6731 117.872 95.7631 117.557 94.8688L117.608 94.8462C118.03 95.7006 118.377 96.5932 118.66 97.5067C119.39 99.8772 119.782 102.673 117.37 104.214C116.947 104.486 116.507 104.698 116.008 104.832L116.164 104.632C115.923 107.256 114.985 109.743 113.583 111.95C112.173 114.159 110.069 115.929 107.636 116.931C104.017 118.506 99.8443 118.728 96.0652 117.603C94.8113 117.235 93.5887 116.752 92.4739 116.078L92.5017 116.03H92.507Z" fill="#F1C8A2"/>
<path d="M114.823 87.3753C116.185 86.3906 117.983 84.944 118.037 83.1657C117.815 80.7639 115.573 81.3075 114.057 82.2626C113.025 82.9017 112.074 83.7145 111.331 84.6679C110.945 85.1541 110.712 85.7307 110.401 86.2552C110.091 86.7987 109.796 87.3371 109.559 87.9067C108.597 90.2164 108.66 92.7936 108.921 95.2422C109.39 100.207 112.343 107.682 108.183 111.676C107.255 112.576 106.121 113.211 104.959 113.743C102.079 115.092 98.7539 115.389 95.653 114.75C94.42 114.498 93.2078 114.125 92.0791 113.567L92.1035 113.517C96.7365 115.326 102.109 115.045 106.335 112.35C107.359 111.716 108.274 110.895 108.876 109.849C110.57 106.89 109.663 102.262 109.215 98.9847C108.75 95.9004 108.309 92.738 108.792 89.6277C108.895 89.006 109.051 88.3895 109.27 87.7921C109.589 86.8995 110.076 86.0902 110.463 85.2375C111.363 83.3845 113.596 81.5958 115.589 81.0783C117.119 80.6719 118.399 81.5419 118.41 83.164C118.354 84.5185 117.366 85.5397 116.403 86.3542C115.914 86.7536 115.399 87.1148 114.85 87.4222L114.822 87.3736L114.823 87.3753Z" fill="#F1C8A2"/>
<path d="M111.895 92.3804C112.65 90.6489 113.737 89.053 115.187 87.813C115.926 87.193 116.801 86.7589 117.69 86.3994C119.7 85.6283 122.957 84.7982 124.688 86.5175C125.217 87.0888 125.524 87.9068 125.366 88.6883C124.89 90.4093 122.192 90.2652 120.799 90.0776L120.803 90.0411C121.267 90.0793 121.735 90.0845 122.199 90.062C123.097 89.996 124.123 89.8935 124.792 89.2336C125.457 88.5198 125.051 87.3719 124.455 86.745C122.839 85.1977 119.686 86.0364 117.815 86.7259C116.949 87.0628 116.095 87.4622 115.364 88.0405C114.634 88.6171 113.996 89.3048 113.425 90.0411C112.862 90.7827 112.35 91.5676 111.928 92.396L111.895 92.3804Z" fill="#F1C8A2"/>
<path d="M115.524 91.986C117.444 91.6456 119.547 91.4111 121.434 92.0954C122.693 92.5782 124.015 93.2138 124.768 94.3929C125.422 95.3672 124.923 96.8468 123.801 97.208C122.768 97.4998 121.747 96.9527 120.957 96.3449L120.978 96.3137C121.773 96.8051 122.775 97.281 123.716 96.9736C124.641 96.6297 125.043 95.3846 124.47 94.5753C123.745 93.4951 122.486 92.8994 121.31 92.4236C119.476 91.7237 117.45 91.8783 115.528 92.0242L115.524 91.9877V91.986Z" fill="#F1C8A2"/>
<path d="M110.117 97.7152C110.117 97.7152 108.124 94.7143 105.872 94.3618C103.025 93.9172 102.057 96.9824 103.02 98.304C105.258 98.1876 109.883 99.7176 110.199 102.936L110.117 97.7152Z" fill="#FEF7CE"/>
<path d="M109.897 102.625C109.37 99.6985 105.639 98.5627 103.036 98.5992L102.87 98.6062C102.203 97.7344 102.276 96.55 102.754 95.6296C103.783 93.6706 106.116 93.8964 107.697 94.9957C108.455 95.5097 109.124 96.1193 109.691 96.8487L109.446 96.8139C110.55 95.8935 112.166 95.97 113.354 96.6698C114.17 97.1005 114.883 97.8004 115.114 98.7173C115.463 100.022 115.147 101.425 114.592 102.607L114.54 102.587C114.778 101.758 114.923 100.902 114.9 100.061C114.881 99.2487 114.658 98.4151 114.097 97.8212C112.97 96.7289 111.05 96.0759 109.662 97.0588L109.507 97.1734L109.417 97.0241C108.97 96.286 108.349 95.6087 107.604 95.1398C106.183 94.1951 104.006 94.1517 103.21 95.8605C102.869 96.5482 102.804 97.5051 103.262 98.1303L103.008 98.0088C105.22 97.948 107.77 98.7468 109.185 100.513C109.662 101.116 109.942 101.871 109.956 102.618L109.9 102.623L109.897 102.625Z" fill="#F1C8A2"/>
<path d="M42.9591 62.6752C42.9591 62.6752 39.8687 46.6061 28.3765 42.1881C18.2148 38.2824 15.6339 42.1881 15.6339 42.1881L7.63391 38.2824C7.63391 38.2824 15.1243 31.2786 24.7609 32.7808C43.027 35.6271 46.7939 60.6711 46.7939 60.6711L42.9574 62.6752H42.9591Z" fill="url(#paint1_linear_473_10004)"/>
<path d="M18.3713 47.5368C18.3713 47.5368 16.6113 38.838 19.4409 35.3943C22.2687 31.9488 24.7626 32.7789 24.7626 32.7789C24.7626 32.7789 14.4965 30.8599 6.11565 38.2806C-2.9974 46.3524 0.77304 60.7335 0.77304 60.7335C0.77304 60.7335 4.03565 56.5916 8.25478 53.6203C7.05826 47.6202 8.94347 43.935 8.94347 43.935C8.94347 43.935 9.37478 48.6431 11.3609 51.5259C13.5296 50.1296 15.9122 48.7351 18.3713 47.5386V47.5368Z" fill="url(#paint2_linear_473_10004)"/>
<path d="M45.3226 57.9463C45.3226 57.9463 38.8965 33.8922 40.0374 17.9915C40.9261 5.59196 43.9696 0 43.9696 0C43.9696 0 47.0026 0.236182 50.7261 1.35978C48.3835 6.172 48.0687 10.8783 48.0687 10.8783C48.0687 10.8783 51.0548 5.33494 54.387 2.71089C55.6131 3.24403 56.5957 3.77371 57.7504 4.53609C56.3435 6.01397 55.507 9.04613 55.507 9.04613C55.507 9.04613 57.7591 6.69299 59.4948 5.83683C60.2757 6.49849 60.9991 7.23482 61.6357 8.05104C61.6357 8.05104 54.7574 12.3405 50.86 22.6961C47.6339 31.2698 47.7922 40.1649 48.0826 55.185L45.3209 57.9428L45.3226 57.9463Z" fill="url(#paint3_linear_473_10004)"/>
<path d="M52.933 58.0349C52.933 58.0349 51.2652 46.026 66.8739 30.4397C74.573 22.7517 79.8113 27.8765 79.8113 27.8765L80.5452 22.2793C80.5452 22.2793 69.2061 20.0303 63.9296 23.2205C48.2026 32.7321 48.4461 56.781 48.4461 56.781L52.9313 58.0331L52.933 58.0349Z" fill="url(#paint4_linear_473_10004)"/>
<path d="M49.1417 60.2525C49.1417 60.2525 52.3469 52.8023 56.7382 47.6202C61.6356 41.8407 65.9835 39.7498 65.9835 39.7498C65.9835 39.7498 69.1956 41.3093 71.2652 43.5009C69.9643 43.8812 68.3417 44.7183 68.3417 44.7183C68.3417 44.7183 70.9609 44.9805 72.7939 45.8697C69.1278 46.6442 63.1035 47.7782 56.1574 54.5719C54.2009 56.4857 52.3139 60.7318 52.3139 60.7318L49.1435 60.2507L49.1417 60.2525Z" fill="url(#paint5_linear_473_10004)"/>
<path d="M76.2756 34.3628C76.2756 34.3628 76.9922 26.8622 73.613 23.9551C70.2339 21.048 66.4687 22.1768 66.4687 22.1768C66.4687 22.1768 76.2843 19.1603 87.0391 24.3997C95.5765 28.5589 94.7122 37.8412 94.7122 37.8412C91.3591 35.8806 80.4426 33.814 76.2756 34.3628Z" fill="url(#paint6_linear_473_10004)"/>
<path d="M37.8043 57.1788C37.8043 57.1788 38.4026 56.4077 41.1069 55.8225C41.9087 56.4633 43.5835 58.7609 44.4026 60.6712C44.2461 57.2187 42.7782 53.1915 42.7782 53.1915C42.7782 53.1915 43.733 52.7295 46.4322 52.3892C50.4252 51.8838 51.7348 52.4604 51.7348 52.4604C51.7348 52.4604 50.5296 55.8607 51.42 60.4628C51.9452 58.9467 52.7296 56.5918 53.7487 55.6436C56.4896 56.2341 56.9713 57.1788 56.9713 57.1788C56.9713 57.1788 53.9504 59.9418 54.7539 61.6402C55.5574 63.3386 65.7713 67.1697 77.8704 72.001C89.9696 76.8323 96.2548 88.5997 97.8269 99.7402C99.3991 110.881 94.3696 122.178 84.1556 130.338C73.9417 138.498 61.6861 139.49 61.5278 147.466L45.8304 149.745C45.8304 149.745 45.3435 145.558 40.1574 143.205C25.4861 136.545 8.31216 135.359 4.33129 113.706C1.3139 97.2933 7.9626 86.0972 19.573 76.4485C32.6148 65.6102 40.1817 64.8877 40.413 60.732C40.5435 58.3788 37.8009 57.1771 37.8009 57.1771L37.8043 57.1788Z" fill="url(#paint7_radial_473_10004)"/>
<path d="M66.7696 139.266C66.7696 139.266 74.7313 142.753 74.94 147.468C75.0513 149.955 66.26 157.886 66.26 157.886C66.26 157.886 73.1574 161.028 81.9731 161.592C87.7626 161.962 89.9296 160.206 90.8687 159.003C91.8826 157.704 91.2774 156.7 89.6809 156.283C87.2704 155.653 82.1331 157.19 75.22 155.656C77.8322 152.367 79.6704 149.497 79.2809 147.149C78.6287 143.232 73.8583 140.419 68.9922 137.995C68.4722 137.736 66.7696 139.268 66.7696 139.268V139.266Z" fill="url(#paint8_linear_473_10004)"/>
<path d="M36.4096 139.653C36.4096 139.653 33.9452 147.468 18.6513 161.861C18.6513 161.861 24.2409 165.814 34.9939 166.887C42.1887 167.606 43.9713 164.721 42.467 163.047C40.9157 161.323 33.5974 162.908 26.4044 160.189C35.2043 150.425 38.8687 140.07 38.8687 140.07L36.4113 139.655L36.4096 139.653Z" fill="url(#paint9_linear_473_10004)"/>
<g style="mix-blend-mode:multiply" opacity="0.2">
<path d="M39.4165 56.26C42.1104 57.7014 42.6304 60.6346 41.3052 63.243C40.06 65.6413 37.9 67.3484 35.8148 68.9618C30.5591 72.798 24.9974 76.2435 20.4913 80.9654C13.9609 87.5281 10.6252 95.9091 10.2461 105.099C9.56608 117.251 15.3956 127.745 26.4548 133.056C29.9922 134.707 33.7035 136.038 37.2496 137.706C39.6252 138.851 41.9904 140.143 43.9017 141.996C45.8356 143.826 47.0583 146.334 47.4235 148.951L47.333 148.968C47.0948 147.69 46.693 146.436 46.0774 145.289C44.2183 141.758 40.5626 139.74 37.0478 138.153C34.0896 136.835 30.9783 135.675 27.9748 134.44C15.5156 129.527 8.60434 118.352 9.3226 105.059C9.80086 93.9936 14.3243 84.8693 22.8096 77.7439C26.773 74.3175 31.2635 71.5875 35.5174 68.5554C36.573 67.7878 37.6096 66.9907 38.5678 66.1067C39.5191 65.2228 40.4078 64.2433 41.0165 63.0937C42.3417 60.6537 41.9017 57.7952 39.373 56.3434L39.4148 56.26H39.4165Z" fill="#D4A981"/>
<path d="M42.8235 53.1758C44.2374 56.854 45.2843 61.1226 44.2426 65.0387C43.373 67.8417 41.5696 70.2313 39.6722 72.4177C37.3974 75.0105 34.9487 77.3654 32.733 79.9773C29.0583 84.1799 26.227 89.1606 25.1452 94.6657C23.907 101.048 24.2409 108.33 26.4687 114.456C30.5365 125.93 42.5296 130.017 46.9591 141.258C47.8426 143.38 48.4322 145.615 48.787 147.88L48.6965 147.897C46.6217 137.236 40.8757 132.844 33.42 125.937C26.053 119.118 23.3904 111.181 23.5296 101.293C23.6183 91.3123 27.5643 83.9229 34.493 76.9642C38.0826 73.1193 43.4078 68.677 44.2078 63.2535C44.5035 60.9941 44.2078 58.6931 43.7052 56.4823C43.4461 55.3744 43.1313 54.2751 42.7365 53.2088L42.8235 53.1758Z" fill="#D4A981"/>
<path d="M45.8513 53.0403C47.6287 61.1069 47.8235 69.804 44.8443 77.6276C43.7626 80.5607 42.3209 83.2977 41.1661 86.1718C39.1748 90.8468 38.507 95.9126 38.6478 101.001C38.7939 109.168 40.4635 117.277 44.7191 124.326C46.7713 127.898 49.1417 131.435 50.4426 135.398C51.74 139.382 52.067 143.592 51.813 147.746H51.7209C51.7522 145.681 51.6722 143.614 51.4026 141.57C51.0061 138.502 50.1296 135.499 48.7748 132.717C46.5 128.079 43.2148 123.989 41.2409 119.19C37.9035 111.454 36.7887 100.011 38.533 91.7638C39.5504 86.6494 42.3904 82.1845 44.3104 77.4157C46.693 71.6657 47.1974 65.3374 46.6357 59.1845C46.4548 57.1301 46.1817 55.0791 45.7609 53.0611L45.8513 53.0403Z" fill="#D4A981"/>
<path d="M49.74 52.8319C49.5174 56.8748 49.8652 60.9437 50.5174 64.9328C51.0148 67.9267 51.7209 70.853 52.8948 73.642C54.8356 78.3379 57.7852 82.4398 59.9469 87.1235C60.82 88.9887 61.5922 90.9094 62.2304 92.8752C64.1069 98.7798 64.7591 104.988 64.74 111.164C64.7174 115.295 64.2478 119.46 62.9435 123.4C61.3469 128.247 58.2061 132.424 57.2652 137.463C56.6513 140.429 56.6495 143.489 56.82 146.506L56.7278 146.516C56.2948 142.484 56.3139 138.321 57.5539 134.422C58.7713 130.534 61.0322 127.068 62.2043 123.166C62.8165 121.233 63.2287 119.241 63.4826 117.23C63.9817 113.203 63.9122 109.121 63.5939 105.08C63.1539 99.0125 61.7713 92.9951 59.2026 87.4639C56.6843 81.924 53.0617 76.8635 51.3852 70.9589C50.3139 67.0359 49.7782 62.9739 49.5643 58.9188C49.4722 56.887 49.4635 54.8499 49.6495 52.8232L49.7417 52.8337L49.74 52.8319Z" fill="#D4A981"/>
<path d="M54.7939 55.9336C52.9383 58.7244 53.0635 62.3939 54.8496 65.1794C56.613 67.9876 59.3678 69.877 61.9904 71.8724C65.5835 74.5312 69.2043 77.2838 72.1 80.7484C78.1052 87.6932 80.4252 97.1005 80.0739 106.129C79.6844 116.252 75.6878 123.008 68.653 129.998C64.8844 133.919 60.507 137.774 59.2165 143.265C58.9539 144.332 58.8044 145.431 58.7644 146.539H58.6722C58.6722 145.426 58.7783 144.311 59.0044 143.22C60.1365 137.637 64.46 133.568 68.2061 129.574C75.9835 121.61 79.6322 114.057 79.1539 102.771C78.8983 95.0356 76.5435 87.2295 71.4861 81.2555C68.66 77.8152 65.1574 75.0296 61.6322 72.3396C59.8774 70.978 58.0983 69.6269 56.5452 68.024C55.0096 66.4194 53.7504 64.4622 53.34 62.2515C52.9261 60.0546 53.427 57.6997 54.7278 55.8728L54.8009 55.9301L54.7939 55.9336Z" fill="#D4A981"/>
<path d="M61.1244 65.1846C77.0096 72.2093 91.0791 79.7862 94.1609 98.5662C96.4617 112.001 91.6148 121.375 80.9104 129.358C76.2496 132.908 71.1591 135.668 66.4774 139.096C64.6844 140.475 62.8617 142.012 61.933 144.115C61.4704 145.158 61.3435 146.336 61.5748 147.458L61.4844 147.478C61.2096 146.341 61.3017 145.124 61.74 144.038C63.4478 139.684 70.9452 135.595 74.827 132.856C82.42 127.815 90.2061 121.575 92.7887 112.456C95.1678 103.917 93.1591 93.2486 88.5365 85.7602C84.8913 79.8053 79.3748 75.2466 73.4026 71.7334C71.4096 70.549 69.3574 69.4636 67.2878 68.4164C65.22 67.3658 63.1261 66.3637 61.0791 65.2662L61.1226 65.1846H61.1244Z" fill="#D4A981"/>
</g>
<g opacity="0.3">
<path d="M48.1678 92.3542C43.3904 92.3542 40.2669 91.3783 38.8965 90.6298C39.8322 92.5991 42.9035 94.9939 48.0843 95.1155C56.5452 95.3152 58.0617 90.47 58.5869 89.0112C57.6322 90.0932 56.0791 92.3542 48.1678 92.3542Z" fill="#BF8060"/>
</g>
<path d="M38.2757 88.6726C38.2757 88.6726 36.7835 77.7266 46.027 77.7266C56.6513 77.7266 57.9817 87.8181 57.9817 87.8181C57.9817 87.8181 53.293 86.3576 48.4339 86.9029C43.5748 87.4482 38.2757 88.6743 38.2757 88.6743V88.6726Z" fill="#BF8060"/>
<path d="M39.2182 88.4972C39.2182 88.4972 38.4843 80.5469 47.18 80.2326C55.8756 79.9182 57.1313 87.7904 57.1313 87.7904C57.1313 87.7904 53.0461 86.7172 48.6461 87.1357C44.2461 87.5542 39.2182 88.4955 39.2182 88.4955V88.4972Z" fill="url(#paint10_radial_473_10004)"/>
<mask id="mask0_473_10004" style="mask-type:luminance" maskUnits="userSpaceOnUse" x="39" y="80" width="19" height="9">
<path d="M39.2182 88.4972C39.2182 88.4972 38.4843 80.5469 47.18 80.2326C55.8756 79.9182 57.1313 87.7904 57.1313 87.7904C57.1313 87.7904 53.0461 86.7172 48.6461 87.1357C44.2461 87.5542 39.2182 88.4955 39.2182 88.4955V88.4972Z" fill="white"/>
</mask>
<g mask="url(#mask0_473_10004)">
<path d="M49.4495 90.5169C48.6287 89.4193 48.5087 82.5596 51.7017 83.2473C54.373 83.8221 55.1069 87.3267 55.2113 89.0008C55.3035 90.4856 50.34 91.7099 49.4495 90.5169Z" fill="url(#paint11_linear_473_10004)"/>
</g>
<path d="M58.947 87.825L57.7522 91.2896L58.0391 87.6357L58.947 87.825Z" fill="#D4A981"/>
<path d="M38.3278 88.4659C42.2478 86.3593 47.4443 85.8905 51.8287 85.9113C52.6443 85.946 53.7956 85.9478 54.5974 86.0798C56.5087 86.3646 58.3556 86.9272 59.9574 88.0751L59.9174 88.2558C57.2583 87.7643 54.5504 87.6601 51.8513 87.7348C49.2287 87.7851 46.34 87.8424 43.7383 88.0404C41.947 88.1846 40.1383 88.3235 38.3713 88.6465L38.3296 88.4659H38.3278Z" fill="black"/>
<path d="M57.9817 81.5905C57.9817 81.5905 59.7104 90.067 69.0339 90.067C77.3835 90.067 76.4061 80.7881 76.4061 80.7881C76.4061 80.7881 73.4009 79.305 68.8095 79.6142C64.2182 79.9233 57.9817 81.5922 57.9817 81.5922V81.5905Z" fill="#BF8060"/>
<path d="M58.7139 81.278C58.7139 81.278 59.7609 87.8164 68.7174 87.8164C76.7313 87.8164 75.7365 80.5989 75.7365 80.5989C75.7365 80.5989 72.9609 79.3434 68.7174 79.6056C64.4739 79.8678 58.7139 81.2797 58.7139 81.2797V81.278Z" fill="url(#paint12_radial_473_10004)"/>
<mask id="mask1_473_10004" style="mask-type:luminance" maskUnits="userSpaceOnUse" x="58" y="79" width="18" height="9">
<path d="M58.7139 81.278C58.7139 81.278 59.7609 87.8164 68.7174 87.8164C76.7313 87.8164 75.7365 80.5989 75.7365 80.5989C75.7365 80.5989 72.9609 79.3434 68.7174 79.6056C64.4739 79.8678 58.7139 81.2797 58.7139 81.2797V81.278Z" fill="white"/>
</mask>
<g mask="url(#mask1_473_10004)">
<path d="M68.1956 88.4971C67.3748 87.3995 67.2548 80.5398 70.4478 81.2275C73.1191 81.8024 73.853 85.3069 73.9574 86.981C74.0496 88.4658 69.0861 89.6902 68.1956 88.4971Z" fill="url(#paint13_linear_473_10004)"/>
</g>
<path d="M73.5904 75.8389C75.1713 76.5509 76.3139 78.0583 76.82 79.6942C76.8965 79.9338 76.9487 80.1822 77.013 80.4271L76.093 80.5469C76.0513 79.8783 75.9383 79.1906 75.6965 78.5602C75.293 77.473 74.5678 76.4866 73.5887 75.8389H73.5904Z" fill="#D4A981"/>
<path d="M57.9383 81.5073C60.4948 79.2114 64.3974 78.3796 67.7348 78.1851C70.7817 78.1104 74.1122 78.133 76.6461 80.0485C77.0165 80.3281 77.3644 80.6459 77.6617 81.0384L77.5835 81.2068C76.8235 80.8977 76.0113 80.7015 75.2078 80.5174C72.7678 80.012 70.2548 80.0051 67.7748 80.0033C65.2861 80.0433 62.7939 80.2968 60.3765 80.9012C59.5748 81.1044 58.7713 81.3388 58.0252 81.674L57.94 81.509L57.9383 81.5073Z" fill="black"/>
<g style="mix-blend-mode:soft-light" opacity="0.6">
<path d="M65.7243 74.7777C61.8165 75.2206 58.7887 77.0336 57.7504 77.8984C58.2948 75.8701 60.6565 72.7632 64.8826 72.178C72.4252 71.1325 75.4165 77.1482 76.0096 78.5375C75.1069 77.5598 72.1956 74.0449 65.7243 74.7777Z" fill="white"/>
</g>
<g opacity="0.3">
<path d="M84.6009 91.6909C81.6669 91.6388 79.9835 91.0813 79.0217 90.4266C79.6791 92.1493 81.6391 93.7592 85.2756 93.8669C91.2148 94.0423 92.4739 90.2877 92.8426 89.0112C92.173 89.9577 90.1539 91.7916 84.6009 91.6909Z" fill="#BF8060"/>
</g>
<path d="M77.6235 87.8165C77.6235 87.8165 76.6148 77.8777 82.8756 78.1625C90.1209 78.4925 92.0565 87.8165 92.0565 87.8165C92.0565 87.8165 89.9765 87.2416 85.2165 87.1774C80.4583 87.1131 77.6235 87.8165 77.6235 87.8165Z" fill="#BF8060"/>
<path d="M78.4495 87.8165C78.4495 87.8165 77.7156 79.9895 83.373 80.2239C89.9208 80.4948 91.4913 87.8165 91.4913 87.8165C91.4913 87.8165 89.6113 87.3458 85.3104 87.2937C81.0095 87.2416 78.4495 87.8165 78.4495 87.8165Z" fill="url(#paint14_radial_473_10004)"/>
<mask id="mask2_473_10004" style="mask-type:luminance" maskUnits="userSpaceOnUse" x="74" y="81" width="19" height="9">
<path d="M74.9939 83.2995C74.9939 83.2995 76.0409 89.8379 84.9974 89.8379C93.0113 89.8379 92.0165 82.6204 92.0165 82.6204C92.0165 82.6204 89.2409 81.3649 84.9974 81.6271C80.7539 81.8893 74.9939 83.3012 74.9939 83.3012V83.2995Z" fill="white"/>
</mask>
<g mask="url(#mask2_473_10004)">
<mask id="mask3_473_10004" style="mask-type:luminance" maskUnits="userSpaceOnUse" x="78" y="80" width="14" height="8">
<path d="M78.4495 87.8165C78.4495 87.8165 77.7156 79.9895 83.373 80.2239C89.9208 80.4948 91.4913 87.8165 91.4913 87.8165C91.4913 87.8165 89.6113 87.3458 85.3104 87.2937C81.0095 87.2416 78.4495 87.8165 78.4495 87.8165Z" fill="white"/>
</mask>
<g mask="url(#mask3_473_10004)">
<path d="M84.4739 90.5169C83.653 89.4193 83.533 82.5596 86.7261 83.2473C89.3974 83.8221 90.1313 87.3267 90.2356 89.0008C90.3278 90.4856 85.3643 91.7099 84.4739 90.5169Z" fill="url(#paint15_linear_473_10004)"/>
</g>
</g>
<path d="M93.1522 88.3809L91.9574 91.8455L92.2443 88.1917L93.1522 88.3809Z" fill="#D4A981"/>
<path d="M77.6078 87.7384C80.7261 86.1303 84.7887 86.0869 88.2061 86.4221C88.573 86.4759 89.4339 86.5731 89.7904 86.6478C91.4652 86.9951 93.067 87.6933 94.2704 88.9558L94.2113 89.1034C93.5591 88.8707 92.8809 88.6988 92.2078 88.5355C90.8513 88.1969 89.4687 88.0823 88.0774 87.9746C86.053 87.8287 83.8252 87.6742 81.8061 87.6811C80.4183 87.6915 79.0113 87.7019 77.6391 87.893L77.6078 87.7384Z" fill="black"/>
<path d="M76.4565 92.4046C63.2426 91.9705 48.6235 99.0455 46.9852 111.414C45.3452 123.78 54.8183 123.384 58.14 122.636C64.2339 121.262 68.9382 115.432 76.9922 115.432C83.1956 115.432 82.8374 121.933 86.5435 122.561C90.2496 123.19 94.2409 116.759 94.2409 110.118C94.2409 103.477 90.3887 92.8648 76.4565 92.4081V92.4046Z" fill="url(#paint16_linear_473_10004)"/>
<path d="M76.4409 93.5872C63.493 93.1895 49.1713 99.655 47.5644 110.952C45.9574 122.249 55.2391 121.887 58.493 121.203C64.4652 119.948 69.0739 114.621 76.9644 114.621C83.0426 114.621 82.6913 120.559 86.3226 121.134C89.9539 121.707 93.8652 115.833 93.8652 109.766C93.8652 103.698 90.0913 94.0057 76.4391 93.5872H76.4409Z" fill="#414D49"/>
<mask id="mask4_473_10004" style="mask-type:luminance" maskUnits="userSpaceOnUse" x="47" y="93" width="47" height="29">
<path d="M76.4409 93.5872C63.493 93.1895 49.1713 99.655 47.5644 110.952C45.9574 122.249 55.2391 121.887 58.493 121.203C64.4652 119.948 69.0739 114.621 76.9644 114.621C83.0426 114.621 82.6913 120.559 86.3226 121.134C89.9539 121.707 93.8652 115.833 93.8652 109.766C93.8652 103.698 90.0913 94.0057 76.4391 93.5872H76.4409Z" fill="white"/>
</mask>
<g mask="url(#mask4_473_10004)">
<path d="M64.7974 122.441C74.5935 122.441 82.5348 117.019 82.5348 110.33C82.5348 103.641 74.5935 98.2188 64.7974 98.2188C55.0013 98.2188 47.06 103.641 47.06 110.33C47.06 117.019 55.0013 122.441 64.7974 122.441Z" fill="#36403C"/>
<path d="M56.4687 120.672C61.8302 120.672 66.1765 116.78 66.1765 111.98C66.1765 107.18 61.8302 103.288 56.4687 103.288C51.1072 103.288 46.7609 107.18 46.7609 111.98C46.7609 116.78 51.1072 120.672 56.4687 120.672Z" fill="#313634"/>
</g>
<path d="M74.9939 112.626C64.2426 112.88 56.773 113.253 56.773 109.696C56.773 106.977 59.9243 106.209 63.2078 106.07C66.4913 105.931 71.7974 107.187 71.7974 107.187C71.7974 107.187 74.2843 104.816 78.4183 104.955C82.5522 105.094 83.2409 106.907 83.5243 108.232C83.8078 109.557 83.9348 112.414 74.9939 112.626Z" fill="#BF8060"/>
<mask id="mask5_473_10004" style="mask-type:luminance" maskUnits="userSpaceOnUse" x="56" y="104" width="28" height="9">
<path d="M74.9939 112.626C64.2426 112.88 56.773 113.253 56.773 109.696C56.773 106.977 59.9243 106.209 63.2078 106.07C66.4913 105.931 71.7974 107.187 71.7974 107.187C71.7974 107.187 74.2843 104.816 78.4183 104.955C82.5522 105.094 83.2409 106.907 83.5243 108.232C83.8078 109.557 83.9348 112.414 74.9939 112.626Z" fill="white"/>
</mask>
<g mask="url(#mask5_473_10004)">
<path d="M62.3365 106.124C57.7522 106.419 60.3191 108.76 61.8113 109.557C64.8148 111.162 70.5052 111.581 75.1852 111.581C82.9922 111.581 83.5261 108.864 83.3313 107.529C82.9417 104.853 81.1209 104.844 78.2235 104.78C75.3261 104.716 71.4496 106.697 75.2896 107.848C75.2896 107.848 73.0183 107.352 70.1939 106.845C67.9191 106.437 65.4339 105.924 62.3365 106.124Z" fill="#E6A37A"/>
</g>
<mask id="mask6_473_10004" style="mask-type:luminance" maskUnits="userSpaceOnUse" x="47" y="93" width="47" height="29">
<path d="M76.4409 93.5872C63.493 93.1895 49.1713 99.655 47.5644 110.952C45.9574 122.249 55.2391 121.887 58.493 121.203C64.4652 119.948 69.0739 114.621 76.9644 114.621C83.0426 114.621 82.6913 120.559 86.3226 121.134C89.9539 121.707 93.8652 115.833 93.8652 109.766C93.8652 103.698 90.0913 94.0057 76.4391 93.5872H76.4409Z" fill="white"/>
</mask>
<g mask="url(#mask6_473_10004)">
<path d="M50.2183 103.75C57.133 101.449 74.1035 98.7294 87.0235 101.657L84.9557 95.171C84.9557 95.171 83.1817 93.0818 71.0304 93.0801C58.8791 93.0783 50.2183 103.748 50.2183 103.748V103.75Z" fill="url(#paint17_linear_473_10004)"/>
<mask id="mask7_473_10004" style="mask-type:luminance" maskUnits="userSpaceOnUse" x="50" y="93" width="38" height="11">
<path d="M50.2183 103.75C57.133 101.449 74.1035 98.7294 87.0235 101.657L84.9557 95.171C84.9557 95.171 83.1817 93.0818 71.0304 93.0801C58.8791 93.0783 50.2183 103.748 50.2183 103.748V103.75Z" fill="white"/>
</mask>
<g mask="url(#mask7_473_10004)">
<path d="M60.9087 95.7893L61.2948 95.7146L59.4565 102.135L57.9818 102.305L60.9087 95.7893Z" fill="#36403C"/>
<path d="M68.3313 96.4927L69.1 100.761L67.5417 100.918L68.3313 96.4927Z" fill="#36403C"/>
</g>
<path d="M46.5852 115.484C46.5852 115.484 59.3661 110.672 74.5904 110.672C90.733 110.672 96.2826 114.005 96.2826 114.005L92.6965 123.853L48.0826 125.666L46.5852 115.484Z" fill="url(#paint18_linear_473_10004)"/>
<mask id="mask8_473_10004" style="mask-type:luminance" maskUnits="userSpaceOnUse" x="46" y="110" width="51" height="16">
<path d="M46.5852 115.484C46.5852 115.484 59.3661 110.672 74.5904 110.672C90.733 110.672 96.2826 114.005 96.2826 114.005L92.6965 123.853L48.0826 125.666L46.5852 115.484Z" fill="white"/>
</mask>
<g mask="url(#mask8_473_10004)">
<path d="M57.8548 121.705L56.8948 121.997L52.74 113.032L55.8652 112.631L57.8548 121.705Z" fill="#313634"/>
<path d="M66.1748 114.719L64.6043 110.87L65.6443 110.594L66.1748 114.719Z" fill="#B78262"/>
<path d="M87.6513 114.428L87.853 111.197H89.0078L87.6513 114.428Z" fill="#414D49"/>
</g>
</g>
<g opacity="0.3">
<path d="M48.6513 124.659C44.0704 122.148 45.2374 115.198 44.6304 113.628C44.06 115.776 42.6461 123.475 47.2252 126.569C53.9156 131.093 58.9365 124.372 60.3504 123.685C58.9487 124.319 55.3417 128.327 48.6513 124.659Z" fill="#BF8060"/>
</g>
<path d="M75.7765 100.398C77.9069 100.77 77.2443 105.478 77.14 107.048C77.0356 108.618 76.58 110.474 75.5678 110.679L78.6774 110.735C78.6774 110.735 78.1539 110.5 77.8739 109.419C77.6217 108.443 77.5643 107.192 77.6409 104.794C77.7052 102.757 77.9087 100.911 79.2374 100.553C79.2374 100.553 77.1748 100.414 75.7782 100.398H75.7765Z" fill="white"/>
<path d="M59.6322 101.593C61.7626 101.965 61.1 106.673 60.9956 108.243C60.8913 109.813 60.1243 111.977 59.1122 112.181L62.6078 111.593C62.6078 111.593 62.0078 111.693 61.7278 110.613C61.4756 109.637 61.4182 108.387 61.4948 105.989C61.5591 103.952 61.7278 101.272 63.0913 101.091C63.0913 101.091 61.0878 101.362 59.6322 101.591V101.593Z" fill="white"/>
<path d="M62.6182 101.164C63.8843 101.536 63.4913 106.244 63.4287 107.814C63.3661 109.384 63.0913 111.423 62.3104 111.638L64.5887 111.317C64.5887 111.317 64.0304 111.266 63.8635 110.184C63.7139 109.208 63.6791 107.958 63.7243 105.56C63.7626 103.523 63.8635 101.088 64.6722 100.909C64.6722 100.909 63.4896 101.001 62.6165 101.164H62.6182Z" fill="white"/>
<path d="M80.5939 100.664C80.5939 100.664 81.2182 100.852 81.2148 101.503C81.2148 102.027 80.9939 102.477 80.8061 102.934C80.5922 103.455 80.8948 103.929 81.2217 103.931C81.5869 103.931 81.8809 103.436 81.7748 102.934C81.6252 102.236 81.4687 101.956 81.573 101.468C81.6774 100.98 82.1 100.819 82.58 100.883C81.5852 100.765 80.5922 100.664 80.5922 100.664H80.5939Z" fill="white"/>
<path d="M56.0983 102.206C56.0983 102.206 56.7313 102.284 56.7713 102.934C56.9591 105.985 56.6165 106.011 56.4496 106.763C56.2791 107.529 56.4757 108.026 56.7278 108.026C56.98 108.026 57.2617 107.527 57.1452 106.801C57.0322 106.098 56.7713 105.886 57.0652 102.852C57.1296 102.184 57.7139 101.767 58.1939 101.829C56.8948 102.027 56.0983 102.205 56.0983 102.205V102.206Z" fill="white"/>
<path d="M48.7417 148.958L47.3783 142.892L49.7278 148.592L53.2896 147.633V141.218L55.5244 147.355H58.587L59.1122 144.007L59.5748 148.051L48.7417 148.958Z" fill="#8C6554"/>
<path d="M53.9475 150.345C58.2814 149.706 61.6786 148.403 61.5354 147.433C61.3922 146.463 57.7627 146.195 53.4288 146.833C49.0949 147.471 45.6976 148.775 45.8409 149.745C45.9841 150.714 49.6135 150.983 53.9475 150.345Z" fill="url(#paint19_radial_473_10004)"/>
<path d="M16.067 117.679C16.987 119.037 18.6826 119.878 20.3 119.364L20.427 119.906C18.6304 120.262 16.9035 119.255 16.067 117.681V117.679Z" fill="#B78262"/>
<path d="M19.0165 114.908C19.0165 114.908 23.6026 120.797 32.1991 119.88C40.6844 118.973 39.5139 108.555 42.8844 101.826C44.7922 98.0158 47.8183 95.8884 50.6704 95.1225C53.5226 94.3567 55.0948 95.1538 55.2791 96.0291C55.7852 98.4256 53.3661 99.2175 50.6704 100.004C47.3783 100.965 46.0617 102.298 45.6774 103.491C49.9383 99.9348 54.2061 100.232 56.7731 101.223C59.9348 102.446 59.9852 104.321 59.2617 105.304C58.5383 106.287 57.053 106.348 54.7574 104.928C53.2148 103.972 50.6809 103.931 48.7417 104.467C54.2339 106.107 55.5904 108.338 56.1 109.802C56.6096 111.266 55.7835 112.247 55.107 112.452C54.0252 112.779 52.907 111.923 52.1609 110.29C51.5104 108.865 49.8809 108.027 49.8809 108.027C49.8809 108.027 50.1974 111.513 48.507 114.545C47.3783 116.568 44.4565 116.323 44.4565 116.323C39.707 124.274 33.2131 124.588 28.5887 123.579C25.907 122.994 22.1783 121.49 20.3626 119.637C18.5122 120.299 15.4044 118.696 15.6478 115.523C15.7939 113.628 17.6896 113.619 19.0165 114.91V114.908Z" fill="url(#paint20_linear_473_10004)"/>
<path d="M41.8774 104.196C42.0826 103.497 42.7818 102.729 43.5835 103.047C43.9087 103.182 44.1922 103.443 44.3035 103.781C44.5192 104.398 44.2774 105.044 44.0513 105.6L43.9139 105.494C44.9852 104.789 46.2531 104.587 47.2165 105.593C48.2548 106.694 48.6652 108.225 48.7661 109.689L48.7122 109.7C48.2235 108.545 47.7626 107.355 47.0826 106.322C46.7557 105.817 46.3157 105.431 45.7557 105.273C45.0739 105.075 44.3139 105.351 43.7922 105.81C43.9574 105.381 44.0635 104.882 43.9887 104.438C43.9418 103.832 43.4078 103.179 42.7591 103.507C42.4583 103.658 42.18 103.929 41.9261 104.217L41.8774 104.191V104.196Z" fill="#D4A981"/>
<path d="M18.3939 117.351C23.4026 122.945 32.42 125.871 39.2287 121.901C41.4183 120.575 43.1765 118.537 44.2652 116.233L44.3261 116.099C44.8183 116.15 45.3365 116.132 45.8339 116.033C46.827 115.853 47.7365 115.299 48.2843 114.448C48.9574 113.359 49.2548 112.1 49.4948 110.839C49.6583 109.912 49.78 108.97 49.853 108.026H49.9087C49.9522 108.979 49.9087 109.934 49.8009 110.884C49.5156 113.347 48.7487 116.065 45.9191 116.509C45.4235 116.589 44.9348 116.606 44.4235 116.528L44.6478 116.408C43.3696 118.713 41.5122 120.614 39.3383 122.073C37.1574 123.53 34.5191 124.307 31.8878 124.248C27.94 124.237 24.0304 122.766 21.0235 120.22C20.0235 119.381 19.0983 118.447 18.3487 117.383L18.3939 117.35V117.351Z" fill="#B78262"/>
<path d="M50.3609 100.068C51.9991 99.7176 54.2391 99.1046 54.9991 97.5034C55.7609 95.2128 53.4913 94.8134 51.7174 95.0791C50.5157 95.2493 49.3174 95.6122 48.2548 96.1888C47.7052 96.4788 47.2618 96.913 46.7644 97.269C46.2618 97.6424 45.7748 98.0175 45.3296 98.4429C43.5191 100.173 42.5383 102.557 41.7922 104.903C40.2235 109.639 39.9191 117.666 34.5035 119.656C33.2913 120.106 31.9974 120.234 30.7191 120.255C27.5383 120.335 24.3731 119.272 21.7922 117.442C20.7644 116.716 19.8044 115.887 18.9957 114.925L19.0374 114.889C22.5522 118.406 27.5835 120.304 32.5383 119.531C33.7313 119.362 34.9 118.977 35.8722 118.26C37.8496 116.789 38.7418 114.307 39.5174 112.036C40.4791 109.068 41.0844 105.98 42.2513 103.076C42.9435 101.327 43.7939 99.5943 45.1105 98.2224C45.7609 97.533 46.5331 96.9876 47.2304 96.3625C47.9609 95.7147 48.8705 95.3135 49.7818 95.0096C51.2739 94.5598 53.0861 94.2108 54.5487 94.9384C55.5244 95.4247 55.7957 96.7167 55.34 97.6528C55.0531 98.2762 54.5278 98.7208 53.9783 99.0456C52.8722 99.6812 51.62 99.9833 50.3661 100.122L50.3591 100.067L50.3609 100.068Z" fill="#D4A981"/>
<path d="M45.6652 103.476C47.053 102.192 48.6896 101.168 50.5174 100.615C51.4444 100.344 52.42 100.298 53.3783 100.325C55.5922 100.419 59.2774 101.058 59.8426 103.621C60.0078 104.495 59.7574 105.641 58.8391 105.992C57.507 106.456 55.867 105.612 54.747 104.94L54.7644 104.907C55.173 105.129 55.5991 105.322 56.0357 105.487C57.1817 105.942 59.2322 106.393 59.5313 104.714C60.0739 101.576 55.6791 100.793 53.3644 100.671C52.4357 100.631 51.493 100.654 50.5904 100.891C49.6896 101.126 48.827 101.499 48.0096 101.944C47.1957 102.397 46.4113 102.911 45.6896 103.5L45.6652 103.472V103.476Z" fill="#D4A981"/>
<path d="M49.147 104.572C51.0426 105.03 53.0618 105.66 54.5139 107.043C55.7087 108.206 57.5748 110.466 56.1452 112.076C54.707 113.489 53.0896 112.171 52.3678 110.742L52.3991 110.723C52.7557 111.261 53.1957 111.758 53.74 112.109C54.6026 112.709 55.7244 112.405 56.1818 111.468C56.7748 110.032 55.22 108.26 54.2722 107.293C52.8739 105.916 50.9557 105.245 49.1383 104.606L49.1487 104.572H49.147Z" fill="#D4A981"/>
<path d="M204.776 93.1233C204.776 93.1233 210.543 99.0574 220.681 95.0434C227.31 92.419 228.197 84.8918 228.197 84.8918C228.197 84.8918 237.459 86.3162 244.102 78.4638C251.783 69.3818 254.413 55.7762 249.518 44.9568C244.624 34.1374 235.886 32.7408 235.886 32.7408C235.886 32.7408 236.935 18.7787 228.197 11.6237C219.459 4.46702 203.636 0.141689 191.582 5.56618C180.834 10.4028 178.561 15.8117 178.561 15.8117C178.561 15.8117 168.948 12.4951 163.356 19.6518C157.697 26.892 161.259 33.4382 161.259 33.4382C161.259 33.4382 148.773 38.2001 149.677 52.6353C150.725 69.3888 164.404 71.1349 164.404 71.1349C164.404 71.1349 158.638 76.3698 163.88 83.5266C168.147 89.3493 176.114 88.4136 176.114 88.4136L204.776 93.1251V93.1233Z" fill="#4D994D"/>
<path d="M217.985 57.5988C217.985 57.5988 209.651 58.578 210.573 45.1985L195.626 44.3411C195.626 44.3411 194.755 52.1482 187.854 53.0335C180.954 53.917 176.971 45.5202 176.971 45.5202C176.971 45.5202 182.591 57.6162 170.788 62.4859C168.278 63.5207 171.707 62.4859 171.707 62.4859L192.461 78.8846L210.712 73.8062L217.984 57.6006L217.985 57.5988Z" fill="url(#paint21_linear_473_10004)"/>
<path d="M228.197 84.8936C228.197 84.8936 227.31 92.419 220.681 95.0452C210.545 99.0592 204.776 93.1251 204.776 93.1251L176.114 88.4137C176.114 88.4137 168.146 89.3494 163.88 83.5266C158.638 76.3716 164.404 71.135 164.404 71.135C164.404 71.135 150.725 69.3906 149.677 52.6353C149.576 51.0109 149.644 49.5083 149.846 48.1222C149.929 52.0458 151.169 59.3399 158.826 62.3121C166.792 65.4061 173.954 61.133 173.954 61.133L183.664 82.4031L210.714 78.8795C210.714 78.8795 217.074 84.8692 225.337 78.6673C230.68 74.6568 228.199 66.2879 228.199 66.2879C228.199 66.2879 240.559 68.7923 246.018 57.5955C251.925 45.4769 242.675 36.5845 239.676 34.1235C242.639 35.6436 246.711 38.748 249.52 44.9569C254.414 55.7763 251.783 69.3819 244.102 78.4656C237.461 86.3197 228.197 84.8936 228.197 84.8936Z" fill="url(#paint22_linear_473_10004)"/>
<path d="M171.472 97.1791C171.472 97.1791 157.378 101.527 152.26 88.3685C152.26 88.3685 154.726 85.464 151.687 80.6622C149.254 76.8186 147.984 79.5213 147.348 80.6674C146.841 81.5805 143.719 79.7039 143.29 80.4656C142.461 81.9457 145.943 85.0571 144.45 86.0101C142.947 86.9684 138.978 83.9057 138.255 85.4449C137.314 87.4484 139.634 87.9684 140.134 88.8763C142.301 92.826 144.811 93.3686 146.021 93.3129C146.808 93.2764 147.886 92.8903 147.681 92.6503C152.113 98.3253 160.278 104.03 171.023 100.294C174.255 99.1705 171.472 97.1809 171.472 97.1809V97.1791Z" fill="url(#paint23_linear_473_10004)"/>
<path d="M144.255 75.2342C143.311 75.1542 142.848 77.5194 142.848 77.5194L144.258 80.5874L141.911 84.457C141.911 84.457 142.689 87.7789 139.659 87.7997C141.212 91.1685 142.478 91.7181 142.478 91.7181C143.981 92.1094 147.353 91.0694 147 88.0606C146.611 84.7579 147.336 82.9387 149.95 80.1943C149.95 80.1943 146.333 75.4133 144.255 75.2376V75.2342Z" fill="#408040"/>
<path d="M143.437 79.4335C142.001 78.0281 141.493 76.2217 142.301 75.3986C143.109 74.5755 144.928 75.0474 146.363 76.4528C147.799 77.8581 148.308 79.6646 147.5 80.4877C146.692 81.3108 144.873 80.8388 143.437 79.4335Z" fill="url(#paint24_linear_473_10004)"/>
<path d="M138.828 88.7315C137.458 87.4789 136.932 85.8266 137.652 85.041C138.373 84.2554 140.067 84.634 141.437 85.8865C142.807 87.1391 143.333 88.7914 142.613 89.577C141.893 90.3626 140.198 89.9841 138.828 88.7315Z" fill="url(#paint25_linear_473_10004)"/>
<path d="M140.921 81.749C139.562 80.4855 139.048 78.829 139.775 78.0492C140.502 77.2694 142.193 77.6615 143.553 78.9251C144.913 80.1886 145.426 81.8451 144.699 82.6249C143.973 83.4047 142.281 83.0125 140.921 81.749Z" fill="url(#paint26_linear_473_10004)"/>
<path d="M144.258 84.1423C145.392 88.2433 150.722 83.8379 149.346 84.9841C150.133 84.3284 151.06 83.097 150.844 81.624C150.706 80.6813 150.49 79.9317 149.773 79.2117C149.483 78.923 148.933 78.7717 148.559 78.9787C147.963 79.3074 147.773 80.217 146.674 81.6309C145.843 82.7023 144.257 84.144 144.257 84.144L144.258 84.1423Z" fill="url(#paint27_linear_473_10004)"/>
<path d="M140.138 85.3582C138.758 84.1173 138.217 82.4696 138.931 81.6779C139.644 80.8861 141.342 81.2502 142.723 82.4911C144.103 83.7319 144.644 85.3796 143.93 86.1714C143.217 86.9631 141.519 86.599 140.138 85.3582Z" fill="url(#paint28_linear_473_10004)"/>
<path d="M228.197 55.7588C228.197 55.7588 216.487 67.1956 210.195 92.8363C204.097 117.682 202.329 127.331 202.329 127.331L167.724 124.564C167.724 124.564 172.094 92.2833 172.442 74.3906C172.791 56.498 170.169 43.9533 170.169 43.9533L176.286 41.5549C176.286 41.5549 180.656 60.3711 183.451 60.5555C186.248 60.7398 192.714 33.4399 192.714 33.4399L213.163 36.9444C213.163 36.9444 204.773 62.2164 207.046 63.3225C209.319 64.4286 223.649 49.1186 223.649 49.1186L228.193 55.7588H228.197Z" fill="url(#paint29_radial_473_10004)"/>
<mask id="mask9_473_10004" style="mask-type:luminance" maskUnits="userSpaceOnUse" x="167" y="33" width="62" height="95">
<path d="M228.197 55.7588C228.197 55.7588 216.487 67.1956 210.195 92.8363C204.097 117.682 202.329 127.331 202.329 127.331L167.724 124.564C167.724 124.564 172.094 92.2833 172.442 74.3906C172.791 56.498 170.169 43.9533 170.169 43.9533L176.286 41.5549C176.286 41.5549 180.656 60.3711 183.451 60.5555C186.248 60.7398 192.714 33.4399 192.714 33.4399L213.163 36.9444C213.163 36.9444 204.773 62.2164 207.046 63.3225C209.319 64.4286 223.649 49.1186 223.649 49.1186L228.193 55.7588H228.197Z" fill="white"/>
</mask>
<g mask="url(#mask9_473_10004)">
<path style="mix-blend-mode:soft-light" d="M201.265 31.8173C201.29 31.9581 200.781 41.3393 199.158 49.0977C196.592 61.3624 193.692 67.9591 190.939 58.8249C189.302 62.6424 187.56 68.7661 185.078 69.2357C179.374 70.3157 184.448 61.4772 188.004 49.4995C192.162 35.4991 193.301 28.8711 193.301 28.8711L201.267 31.8173H201.265Z" fill="url(#paint30_linear_473_10004)"/>
<path style="mix-blend-mode:soft-light" d="M173.135 42.1289C178.939 59.905 176.971 89.4676 170.843 124.248L163.99 128.413C163.99 128.413 167.236 44.7846 167.334 45.0786C167.431 45.3725 173.137 42.1289 173.137 42.1289H173.135Z" fill="url(#paint31_linear_473_10004)"/>
<path d="M221.777 51.2334C221.777 51.2334 213.295 59.6963 207.803 63.9555C204.109 66.8217 199.719 68.4669 201.009 71.5922C201.901 73.7523 205.788 75.2254 214.042 65.4042C219.448 58.9728 223.78 52.9309 223.78 52.9309L221.777 51.2317V51.2334Z" fill="url(#paint32_linear_473_10004)"/>
</g>
<path d="M175.495 105.181C175.495 105.181 183.889 110.353 200.212 100.174C200.212 100.174 194.051 116.508 182.642 116.508C175.833 116.508 175.494 105.181 175.494 105.181H175.495Z" fill="#415A55"/>
<path d="M201.239 99.5166C197.794 101.444 194.206 103.111 190.442 104.301C187.351 105.28 184.155 105.825 180.914 105.745C179.048 105.692 177.032 105.71 175.319 104.929C174.008 104.315 174.006 103.071 174.471 101.858L174.395 101.818C173.921 102.68 173.637 103.84 174.302 104.682C175.616 106.298 178.928 106.433 180.888 106.543C186.917 106.87 192.775 104.68 197.939 101.738C199.09 101.073 200.217 100.367 201.293 99.5862L201.241 99.5166H201.239Z" fill="#4D994D"/>
<path d="M201.763 100.828C202.288 100.398 202.115 99.6886 201.626 99.2956C201.286 99.0417 200.849 98.7773 200.448 98.6434C199.994 98.5669 199.55 98.6677 199.161 98.9477L199.151 99.0521C199.558 99.4782 199.921 99.6834 200.426 99.7339C200.703 99.7234 200.994 99.7791 201.248 99.8782C201.655 100.012 201.854 100.334 201.683 100.762L201.763 100.828Z" fill="#4D994D"/>
<path d="M184.833 128.791C175.305 127.984 167.691 126.036 167.826 124.441C167.962 122.845 175.796 122.207 185.324 123.014C194.852 123.821 202.466 125.769 202.33 127.364C202.195 128.96 194.361 129.599 184.833 128.791Z" fill="#4D994D"/>
<path d="M168.224 122.663C168.224 122.663 164.648 146.212 161.696 154.363C161.696 154.363 147.613 160.181 148.301 162.831C148.989 165.484 159.974 164.251 167.802 161.456C167.802 161.456 171.413 135.036 171.707 122.171L168.224 122.662V122.663Z" fill="url(#paint33_linear_473_10004)"/>
<path d="M198.014 84.8935C198.014 84.8935 196.887 100.32 185.233 100.174C173.58 100.028 176.054 83.377 176.054 83.377C176.054 83.377 178.594 85.4414 184.643 86.0309C191.141 86.664 198.014 84.8935 198.014 84.8935Z" fill="#679635"/>
<path d="M184.906 97.1402C179.715 96.2912 176.461 89.7815 177.639 82.6002C178.816 75.419 183.98 70.2856 189.171 71.1345C194.363 71.9834 197.616 78.4932 196.439 85.6744C195.261 92.8557 190.098 97.9891 184.906 97.1402Z" fill="url(#paint34_radial_473_10004)"/>
<path d="M184.932 93.5654C182.498 93.348 180.76 90.5357 181.051 87.2838C181.343 84.032 183.552 81.5721 185.987 81.7895C188.421 82.0069 190.159 84.8192 189.868 88.0711C189.576 91.3229 187.367 93.7828 184.932 93.5654Z" fill="url(#paint35_linear_473_10004)"/>
<path d="M198.806 83.9248C198.806 83.9248 192.261 86.704 185.454 86.0953C177.399 85.377 176.055 83.3752 176.055 83.3752C176.055 83.3752 179.184 68.7835 189.068 68.7922C198.668 68.8009 198.806 83.9231 198.806 83.9231V83.9248Z" fill="url(#paint36_linear_473_10004)"/>
<path d="M200.152 83.6641C195.659 84.5963 191.219 84.9511 186.661 85.0085C183.478 85.0276 180.006 84.9389 177.192 83.3215C176.26 82.7632 175.419 81.9927 174.94 80.9771L174.731 80.9962C174.919 82.2101 175.649 83.2449 176.532 84.0589C179.714 86.8033 184.373 87.0659 188.386 87.059C191.346 86.9598 194.309 86.4642 197.09 85.4293C198.202 85.0032 199.28 84.5024 200.273 83.8345L200.152 83.6641Z" fill="#344A44"/>
<mask id="mask10_473_10004" style="mask-type:luminance" maskUnits="userSpaceOnUse" x="175" y="100" width="26" height="17">
<path d="M175.495 105.181C175.495 105.181 183.889 110.353 200.212 100.174C200.212 100.174 194.051 116.508 182.642 116.508C175.833 116.508 175.494 105.181 175.494 105.181H175.495Z" fill="white"/>
</mask>
<g mask="url(#mask10_473_10004)">
<path d="M188.708 115.167C189.817 114.543 192.118 112.678 190.577 111.009C189.035 109.339 183.725 111.925 183.758 111.892C183.791 111.859 183.281 109.911 180.938 110.447C178.054 111.108 176.692 113.896 179.921 115.984C183.152 118.073 186.379 116.475 188.708 115.165V115.167Z" fill="#895999"/>
<path d="M186.775 114.675C188.687 113.635 189.276 111.965 188.48 111.124C187.381 109.962 183.415 111.992 182.676 112.531C182.791 111.762 182.168 110.164 180.748 110.494C177.693 111.205 177.887 114.162 180.217 115.132C182.102 115.919 184.939 115.673 186.775 114.673V114.675Z" fill="#A369BF"/>
<path d="M196.761 101.798C196.822 101.975 195.333 107.581 193.018 109.979C192.677 110.332 192.092 110.216 191.909 109.757C191.108 107.741 190.474 105.009 190.474 105.009C190.474 105.009 189.831 107.132 188.727 109.113C188.492 109.536 187.908 109.591 187.611 109.21C186.525 107.816 185.484 105.035 185.484 105.035C185.484 105.035 184.855 107.73 183.629 109.605C183.396 109.962 182.892 110.009 182.594 109.704C181.149 108.228 180.235 105.788 180.235 105.788C180.235 105.788 179.726 107.537 178.93 109.099C178.705 109.539 178.11 109.612 177.807 109.224C176.446 107.483 176.276 105.337 176.276 105.337L196.761 101.8V101.798Z" fill="url(#paint37_linear_473_10004)"/>
</g>
<path opacity="0.3" d="M188.823 117.36C188.823 117.36 186.66 118.834 182.626 118.54C178.594 118.246 176.971 116.51 176.971 116.51C176.971 116.51 178.569 120.454 182.896 120.602C187.222 120.75 188.821 117.36 188.821 117.36H188.823Z" fill="#4D994D"/>
<path d="M202.289 122.762C202.289 122.762 206.969 146.137 209.92 154.288C209.92 154.288 223.886 162.44 223.198 165.092C222.51 167.745 211.985 165.878 204.512 161.557C204.512 161.557 199.102 135.137 198.808 122.272L202.291 122.762H202.289Z" fill="url(#paint38_linear_473_10004)"/>
<path d="M211.832 112.926C213.251 112.252 215.27 110.899 216.475 109.503C214.246 106.098 204.797 101.09 206.069 98.4382C206.483 97.5738 207.922 96.9929 215.754 103.021C219.508 105.91 222.27 107.468 222.77 109.503C223.221 111.336 218.865 115.637 215.688 117.88C215.38 119.194 216.409 123.468 212.004 126.093C207.199 128.956 202.488 125.481 202.155 124.908C201.246 123.345 201.001 122.425 201.001 122.425C201.001 122.425 199.099 122.686 198.668 121.075C198.097 118.929 203.059 115.969 203.059 115.969C203.059 115.969 201.823 113.411 205.071 111.496C206.687 110.543 209.874 111.943 211.83 112.926H211.832Z" fill="url(#paint39_linear_473_10004)"/>
<path d="M207.433 119.458C205.501 120.613 203.467 121.741 201.237 122.174C198.756 122.634 198.003 120.825 199.531 119C200.382 117.941 201.466 117.094 202.565 116.301C204.047 115.256 205.607 114.313 207.227 113.496L207.203 113.446C206.339 113.755 205.511 114.148 204.693 114.56C203.88 114.983 203.08 115.435 202.309 115.941C200.63 117.035 196.862 119.795 198.641 122.058C200.152 123.759 203.618 121.948 205.189 121.051C205.978 120.58 206.746 120.079 207.462 119.505L207.433 119.458Z" fill="#4D8C4D"/>
<path d="M207.725 122.147C207.013 122.922 206.1 123.486 205.141 123.898C204.536 124.131 203.904 124.281 203.293 124.491C202.91 124.622 202.539 124.719 202.155 124.882L202.161 124.938C203.836 125.26 205.433 124.42 206.691 123.385C207.1 123.027 207.481 122.635 207.774 122.18L207.729 122.147H207.725Z" fill="#4D8C4D"/>
<path d="M205.276 126.747C206.215 127.091 207.208 126.716 207.964 126.14C208.166 125.99 208.378 125.79 208.547 125.608C208.772 125.335 208.991 125.016 209.126 124.688L209.241 124.404L209.19 124.382C208.779 125.055 208.197 125.601 207.483 125.924C206.741 126.209 206.034 126.376 205.278 126.691V126.747H205.276Z" fill="#4D8C4D"/>
<path d="M212.031 125.138C210.526 125.458 209.392 124.418 208.558 123.3C208.119 122.735 207.748 122.089 207.588 121.378C207.38 120.578 207.412 119.71 207.57 118.917L207.213 119.011C206.713 119.143 206.132 119.187 205.703 119.002C204.737 118.512 204.832 117.235 205.283 116.371C205.525 115.877 205.851 115.406 206.217 114.962L206.18 114.919C205.21 115.588 204.313 116.684 204.39 117.94C204.531 119.564 206.022 119.978 207.37 119.43L207.07 119.19C207.042 120.341 207.389 121.418 207.771 122.482C208.15 123.554 208.755 124.629 209.812 125.157C210.505 125.526 211.395 125.583 212.057 125.189L212.032 125.138H212.031Z" fill="#4D8C4D"/>
<path d="M210.719 3.79907C217.428 5.0565 223.736 7.97136 228.197 11.6236C236.935 18.7786 235.886 32.7407 235.886 32.7407C235.886 32.7407 236.945 32.9112 238.53 33.586C235.144 32.6659 228.517 31.8868 221.819 36.826C235.723 11.5454 211.116 3.91908 210.719 3.79907Z" fill="url(#paint40_linear_473_10004)"/>
<g opacity="0.6">
<path opacity="0.8" d="M191.625 17.8153C190.62 17.8153 189.805 17.0016 189.805 15.9979C189.805 14.9941 190.62 14.1804 191.625 14.1804C192.63 14.1804 193.445 14.9941 193.445 15.9979C193.445 17.0016 192.63 17.8153 191.625 17.8153Z" fill="#8CC63F"/>
<path opacity="0.8" d="M234.347 55.672C233.571 55.672 232.943 55.0444 232.943 54.2702C232.943 53.496 233.571 52.8684 234.347 52.8684C235.122 52.8684 235.75 53.496 235.75 54.2702C235.75 55.0444 235.122 55.672 234.347 55.672Z" fill="#8CC63F"/>
<path opacity="0.8" d="M231.753 45.2994C230.321 45.2994 229.16 44.14 229.16 42.7098C229.16 41.2795 230.321 40.1201 231.753 40.1201C233.186 40.1201 234.347 41.2795 234.347 42.7098C234.347 44.14 233.186 45.2994 231.753 45.2994Z" fill="#8CC63F"/>
<path opacity="0.8" d="M213.488 14.6221C212.153 14.6221 211.071 13.5414 211.071 12.2082C211.071 10.875 212.153 9.79419 213.488 9.79419C214.823 9.79419 215.906 10.875 215.906 12.2082C215.906 13.5414 214.823 14.6221 213.488 14.6221Z" fill="#8CC63F"/>
<path opacity="0.8" d="M171.686 38.3531C170.681 38.3531 169.866 37.5395 169.866 36.5357C169.866 35.532 170.681 34.7183 171.686 34.7183C172.692 34.7183 173.506 35.532 173.506 36.5357C173.506 37.5395 172.692 38.3531 171.686 38.3531Z" fill="#8CC63F"/>
<path opacity="0.8" d="M208.354 37.7584C207.349 37.7584 206.534 36.9447 206.534 35.941C206.534 34.9372 207.349 34.1235 208.354 34.1235C209.359 34.1235 210.174 34.9372 210.174 35.941C210.174 36.9447 209.359 37.7584 208.354 37.7584Z" fill="#8CC63F"/>
<path d="M199.621 20.8622C198.961 20.8622 198.426 20.3281 198.426 19.6692C198.426 19.0102 198.961 18.4761 199.621 18.4761C200.281 18.4761 200.816 19.0102 200.816 19.6692C200.816 20.3281 200.281 20.8622 199.621 20.8622Z" fill="#408040"/>
<path d="M214.713 31.8295C214.053 31.8295 213.518 31.2953 213.518 30.6364C213.518 29.9775 214.053 29.4434 214.713 29.4434C215.373 29.4434 215.908 29.9775 215.908 30.6364C215.908 31.2953 215.373 31.8295 214.713 31.8295Z" fill="#408040"/>
<path d="M223.296 49.5274C222.031 49.5274 221.005 48.5035 221.005 47.2404C221.005 45.9773 222.031 44.9534 223.296 44.9534C224.561 44.9534 225.586 45.9773 225.586 47.2404C225.586 48.5035 224.561 49.5274 223.296 49.5274Z" fill="#408040"/>
<path d="M241.178 45.0961C240.518 45.0961 239.983 44.562 239.983 43.903C239.983 43.2441 240.518 42.71 241.178 42.71C241.837 42.71 242.372 43.2441 242.372 43.903C242.372 44.562 241.837 45.0961 241.178 45.0961Z" fill="#408040"/>
<path d="M157.439 52.8684C156.476 52.8684 155.694 52.0882 155.694 51.1257C155.694 50.1633 156.476 49.3831 157.439 49.3831C158.403 49.3831 159.185 50.1633 159.185 51.1257C159.185 52.0882 158.403 52.8684 157.439 52.8684Z" fill="#408040"/>
<path opacity="0.8" d="M159.9 51.8561C159.042 51.8561 158.347 51.1615 158.347 50.3048C158.347 49.448 159.042 48.7534 159.9 48.7534C160.758 48.7534 161.454 49.448 161.454 50.3048C161.454 51.1615 160.758 51.8561 159.9 51.8561Z" fill="#8CC63F"/>
<g style="mix-blend-mode:overlay" opacity="0.5">
<path d="M199.621 19.104C198.365 19.104 197.347 18.0871 197.347 16.8326C197.347 15.5782 198.365 14.5613 199.621 14.5613C200.877 14.5613 201.896 15.5782 201.896 16.8326C201.896 18.0871 200.877 19.104 199.621 19.104Z" fill="#EBFF0D"/>
</g>
<g style="mix-blend-mode:overlay" opacity="0.5">
<path d="M168.952 24.2676C167.972 24.2676 167.177 23.4741 167.177 22.4954C167.177 21.5166 167.972 20.7231 168.952 20.7231C169.932 20.7231 170.727 21.5166 170.727 22.4954C170.727 23.4741 169.932 24.2676 168.952 24.2676Z" fill="#EBFF0D"/>
</g>
<g style="mix-blend-mode:overlay" opacity="0.5">
<path d="M231.285 40.762C230.456 40.762 229.783 40.0908 229.783 39.2628C229.783 38.4349 230.456 37.7637 231.285 37.7637C232.114 37.7637 232.786 38.4349 232.786 39.2628C232.786 40.0908 232.114 40.762 231.285 40.762Z" fill="#EBFF0D"/>
</g>
<g style="mix-blend-mode:overlay" opacity="0.5">
<path d="M156.083 47.5847C154.826 47.5847 153.808 46.5678 153.808 45.3134C153.808 44.0589 154.826 43.042 156.083 43.042C157.339 43.042 158.357 44.0589 158.357 45.3134C158.357 46.5678 157.339 47.5847 156.083 47.5847Z" fill="#EBFF0D"/>
</g>
<path opacity="0.6" d="M191.989 27.5877C190.581 27.5877 189.439 26.4477 189.439 25.0415C189.439 23.6353 190.581 22.4954 191.989 22.4954C193.397 22.4954 194.539 23.6353 194.539 25.0415C194.539 26.4477 193.397 27.5877 191.989 27.5877Z" fill="#EBFF0D"/>
<path opacity="0.6" d="M200.396 9.04634C199.783 9.04634 199.285 8.54956 199.285 7.93674C199.285 7.32393 199.783 6.82715 200.396 6.82715C201.01 6.82715 201.507 7.32393 201.507 7.93674C201.507 8.54956 201.01 9.04634 200.396 9.04634Z" fill="#EBFF0D"/>
<path opacity="0.6" d="M174.837 32.9793C174.133 32.9793 173.562 32.4093 173.562 31.7062C173.562 31.0031 174.133 30.4331 174.837 30.4331C175.541 30.4331 176.112 31.0031 176.112 31.7062C176.112 32.4093 175.541 32.9793 174.837 32.9793Z" fill="#EBFF0D"/>
</g>
<defs>
<linearGradient id="paint0_linear_473_10004" x1="94.22" y1="111.186" x2="113.164" y2="97.8755" gradientUnits="userSpaceOnUse">
<stop stop-color="#D9B489"/>
<stop offset="0.03" stop-color="#DCB98E"/>
<stop offset="0.23" stop-color="#EFDAAF"/>
<stop offset="0.39" stop-color="#FAEFC4"/>
<stop offset="0.5" stop-color="#FFF7CC"/>
</linearGradient>
<linearGradient id="paint1_linear_473_10004" x1="7.63391" y1="47.6203" x2="46.7956" y2="47.6203" gradientUnits="userSpaceOnUse">
<stop offset="0.19" stop-color="#485B52"/>
<stop offset="0.87" stop-color="#408050"/>
</linearGradient>
<linearGradient id="paint2_linear_473_10004" x1="15.9696" y1="53.8234" x2="7.44557" y2="34.9561" gradientUnits="userSpaceOnUse">
<stop offset="0.19" stop-color="#5F8870"/>
<stop offset="0.7" stop-color="#45AD57"/>
</linearGradient>
<linearGradient id="paint3_linear_473_10004" x1="46.9609" y1="53.2522" x2="52.0785" y2="-0.204581" gradientUnits="userSpaceOnUse">
<stop offset="0.19" stop-color="#4B735B"/>
<stop offset="0.7" stop-color="#45AD57"/>
</linearGradient>
<linearGradient id="paint4_linear_473_10004" x1="71.2148" y1="22.4929" x2="57.349" y2="49.7065" gradientUnits="userSpaceOnUse">
<stop offset="0.19" stop-color="#485B52"/>
<stop offset="0.87" stop-color="#408050"/>
</linearGradient>
<linearGradient id="paint5_linear_473_10004" x1="54.3087" y1="58.4498" x2="71.4603" y2="39.1782" gradientUnits="userSpaceOnUse">
<stop offset="0.19" stop-color="#4B735B"/>
<stop offset="0.7" stop-color="#45AD57"/>
</linearGradient>
<linearGradient id="paint6_linear_473_10004" x1="79.2809" y1="35.1157" x2="82.7438" y2="21.6398" gradientUnits="userSpaceOnUse">
<stop offset="0.19" stop-color="#5F8870"/>
<stop offset="0.7" stop-color="#45AD57"/>
</linearGradient>
<radialGradient id="paint7_radial_473_10004" cx="0" cy="0" r="1" gradientUnits="userSpaceOnUse" gradientTransform="translate(55.9952 85.9416) rotate(-70.9646) scale(67.9909 78.9587)">
<stop offset="0.42" stop-color="#F4E3AB"/>
<stop offset="0.5" stop-color="#F1DCA6"/>
<stop offset="0.61" stop-color="#E9CA98"/>
<stop offset="0.73" stop-color="#DCAD82"/>
<stop offset="0.86" stop-color="#CB8563"/>
<stop offset="0.95" stop-color="#BF694D"/>
</radialGradient>
<linearGradient id="paint8_linear_473_10004" x1="78.1157" y1="138.592" x2="79.2168" y2="169.108" gradientUnits="userSpaceOnUse">
<stop offset="0.21" stop-color="#CE9F79"/>
<stop offset="0.43" stop-color="#D5AE85"/>
<stop offset="0.87" stop-color="#EAD6A4"/>
<stop offset="1" stop-color="#F1E3AF"/>
</linearGradient>
<linearGradient id="paint9_linear_473_10004" x1="39.9365" y1="143.423" x2="24.4828" y2="177.034" gradientUnits="userSpaceOnUse">
<stop offset="0.21" stop-color="#C48B69"/>
<stop offset="0.39" stop-color="#CB9A75"/>
<stop offset="0.74" stop-color="#E0C294"/>
<stop offset="1" stop-color="#F1E3AF"/>
</linearGradient>
<radialGradient id="paint10_radial_473_10004" cx="0" cy="0" r="1" gradientUnits="userSpaceOnUse" gradientTransform="translate(49.4269 87.1899) scale(11.0452 9.92643)">
<stop offset="0.47" stop-color="#FFF266"/>
<stop offset="0.88" stop-color="#FFBA59"/>
</radialGradient>
<linearGradient id="paint11_linear_473_10004" x1="50.8861" y1="82.9174" x2="52.506" y2="90.7123" gradientUnits="userSpaceOnUse">
<stop offset="0.19" stop-color="#3B5B56"/>
<stop offset="0.7" stop-color="#2D805D"/>
</linearGradient>
<radialGradient id="paint12_radial_473_10004" cx="0" cy="0" r="1" gradientUnits="userSpaceOnUse" gradientTransform="translate(68.4339 84.3197) scale(9.92348 7.03556)">
<stop offset="0.47" stop-color="#FFF266"/>
<stop offset="0.89" stop-color="#FFBA59"/>
</radialGradient>
<linearGradient id="paint13_linear_473_10004" x1="69.6322" y1="80.8976" x2="71.2503" y2="88.6908" gradientUnits="userSpaceOnUse">
<stop offset="0.19" stop-color="#3B5B56"/>
<stop offset="0.7" stop-color="#2D805D"/>
</linearGradient>
<radialGradient id="paint14_radial_473_10004" cx="0" cy="0" r="1" gradientUnits="userSpaceOnUse" gradientTransform="translate(85.4843 85.1588) scale(8.30957 6.97001)">
<stop offset="0.47" stop-color="#FFF266"/>
<stop offset="0.89" stop-color="#FFBA59"/>
</radialGradient>
<linearGradient id="paint15_linear_473_10004" x1="85.9104" y1="-3.84611e-06" x2="87.5301" y2="90.7115" gradientUnits="userSpaceOnUse">
<stop offset="0.19" stop-color="#3B5B56"/>
<stop offset="0.7" stop-color="#2D805D"/>
</linearGradient>
<linearGradient id="paint16_linear_473_10004" x1="70.5191" y1="92.2622" x2="70.5191" y2="121.629" gradientUnits="userSpaceOnUse">
<stop offset="0.21" stop-color="#D4A981"/>
<stop offset="1" stop-color="#BF8060"/>
</linearGradient>
<linearGradient id="paint17_linear_473_10004" x1="45.453" y1="98.7693" x2="86.9365" y2="97.7905" gradientUnits="userSpaceOnUse">
<stop offset="0.18" stop-color="#FFBA59"/>
<stop offset="0.4" stop-color="#FFF266"/>
<stop offset="0.52" stop-color="#FFF37D"/>
<stop offset="0.75" stop-color="#FFF6A5"/>
<stop offset="0.87" stop-color="#FFF8B5"/>
</linearGradient>
<linearGradient id="paint18_linear_473_10004" x1="46.5852" y1="118.169" x2="96.2826" y2="118.169" gradientUnits="userSpaceOnUse">
<stop offset="0.09" stop-color="#FFBA59"/>
<stop offset="0.26" stop-color="#FFF266"/>
<stop offset="0.4" stop-color="#FFF37D"/>
<stop offset="0.68" stop-color="#FFF6A5"/>
<stop offset="0.82" stop-color="#FFF8B5"/>
</linearGradient>
<radialGradient id="paint19_radial_473_10004" cx="0" cy="0" r="1" gradientUnits="userSpaceOnUse" gradientTransform="translate(53.9032 150.212) rotate(-7.98868) scale(12.9596 4.14137)">
<stop offset="0.23" stop-color="#5C4E49"/>
<stop offset="0.42" stop-color="#6B554C"/>
<stop offset="0.74" stop-color="#8C6554"/>
</radialGradient>
<linearGradient id="paint20_linear_473_10004" x1="23.067" y1="125.442" x2="52.498" y2="97.3657" gradientUnits="userSpaceOnUse">
<stop stop-color="#DBB78C"/>
<stop offset="0.24" stop-color="#EAD2A7"/>
<stop offset="0.49" stop-color="#F5E6BB"/>
<stop offset="0.74" stop-color="#FCF2C7"/>
<stop offset="0.98" stop-color="#FFF7CC"/>
</linearGradient>
<linearGradient id="paint21_linear_473_10004" x1="195.655" y1="72.0288" x2="190.047" y2="33.7315" gradientUnits="userSpaceOnUse">
<stop offset="0.19" stop-color="#437457"/>
<stop offset="0.72" stop-color="#437457" stop-opacity="0"/>
</linearGradient>
<linearGradient id="paint22_linear_473_10004" x1="203.864" y1="108.15" x2="198.862" y2="18.8736" gradientUnits="userSpaceOnUse">
<stop offset="0.19" stop-color="#437457"/>
<stop offset="0.72" stop-color="#437457" stop-opacity="0"/>
</linearGradient>
<linearGradient id="paint23_linear_473_10004" x1="137.99" y1="89.8723" x2="172.705" y2="90.3456" gradientUnits="userSpaceOnUse">
<stop offset="0.39" stop-color="#98C44F"/>
<stop offset="1" stop-color="#4D994D"/>
</linearGradient>
<linearGradient id="paint24_linear_473_10004" x1="141.667" y1="76.8677" x2="148.111" y2="79.0772" gradientUnits="userSpaceOnUse">
<stop stop-color="#4D994D"/>
<stop offset="0.61" stop-color="#98C44F"/>
</linearGradient>
<linearGradient id="paint25_linear_473_10004" x1="137.113" y1="86.4186" x2="143.133" y2="88.2558" gradientUnits="userSpaceOnUse">
<stop stop-color="#4D994D"/>
<stop offset="0.61" stop-color="#98C44F"/>
</linearGradient>
<linearGradient id="paint26_linear_473_10004" x1="139.224" y1="79.4217" x2="145.229" y2="81.3072" gradientUnits="userSpaceOnUse">
<stop stop-color="#4D994D"/>
<stop offset="0.61" stop-color="#98C44F"/>
</linearGradient>
<linearGradient id="paint27_linear_473_10004" x1="150.973" y1="79.5022" x2="145.164" y2="86.6653" gradientUnits="userSpaceOnUse">
<stop stop-color="#98C44F"/>
<stop offset="1" stop-color="#4D994D"/>
</linearGradient>
<linearGradient id="paint28_linear_473_10004" x1="138.401" y1="82.8789" x2="144.41" y2="85.1359" gradientUnits="userSpaceOnUse">
<stop stop-color="#4D994D"/>
<stop offset="0.61" stop-color="#98C44F"/>
</linearGradient>
<radialGradient id="paint29_radial_473_10004" cx="0" cy="0" r="1" gradientUnits="userSpaceOnUse" gradientTransform="translate(183.224 103.761) rotate(-166.798) scale(43.6083 72.7323)">
<stop offset="0.61" stop-color="#8CC63F"/>
<stop offset="0.95" stop-color="#8CC63F" stop-opacity="0"/>
</radialGradient>
<linearGradient id="paint30_linear_473_10004" x1="197.824" y1="31.7251" x2="182.595" y2="89.2749" gradientUnits="userSpaceOnUse">
<stop offset="0.09" stop-color="#EBFF0D" stop-opacity="0"/>
<stop offset="0.2" stop-color="#EBFF0D" stop-opacity="0.02"/>
<stop offset="0.31" stop-color="#EBFF0D" stop-opacity="0.06"/>
<stop offset="0.42" stop-color="#EBFF0D" stop-opacity="0.14"/>
<stop offset="0.53" stop-color="#EBFF0D" stop-opacity="0.25"/>
<stop offset="0.63" stop-color="#EBFF0D" stop-opacity="0.39"/>
<stop offset="0.74" stop-color="#EBFF0D" stop-opacity="0.56"/>
<stop offset="0.85" stop-color="#EBFF0D" stop-opacity="0.77"/>
<stop offset="0.96" stop-color="#EBFF0D"/>
</linearGradient>
<linearGradient id="paint31_linear_473_10004" x1="171.51" y1="40.6941" x2="169.758" y2="126.432" gradientUnits="userSpaceOnUse">
<stop stop-color="#EBFF0D" stop-opacity="0"/>
<stop offset="0.14" stop-color="#EBFF0D" stop-opacity="0.07"/>
<stop offset="0.42" stop-color="#EBFF0D" stop-opacity="0.26"/>
<stop offset="0.74" stop-color="#EBFF0D" stop-opacity="0.5"/>
</linearGradient>
<linearGradient id="paint32_linear_473_10004" x1="220.648" y1="51.2508" x2="186.577" y2="93.2355" gradientUnits="userSpaceOnUse">
<stop offset="0.09" stop-color="#EBFF0D" stop-opacity="0"/>
<stop offset="0.2" stop-color="#EBFF0D" stop-opacity="0.02"/>
<stop offset="0.31" stop-color="#EBFF0D" stop-opacity="0.06"/>
<stop offset="0.42" stop-color="#EBFF0D" stop-opacity="0.14"/>
<stop offset="0.52" stop-color="#EBFF0D" stop-opacity="0.25"/>
<stop offset="0.63" stop-color="#EBFF0D" stop-opacity="0.39"/>
<stop offset="0.74" stop-color="#EBFF0D" stop-opacity="0.56"/>
<stop offset="0.85" stop-color="#EBFF0D" stop-opacity="0.77"/>
<stop offset="0.95" stop-color="#EBFF0D"/>
</linearGradient>
<linearGradient id="paint33_linear_473_10004" x1="161.086" y1="122.427" x2="158.277" y2="175.043" gradientUnits="userSpaceOnUse">
<stop offset="0.38" stop-color="#8CC63F"/>
<stop offset="0.61" stop-color="#75B544"/>
<stop offset="0.94" stop-color="#4D994D"/>
</linearGradient>
<radialGradient id="paint34_radial_473_10004" cx="0" cy="0" r="1" gradientUnits="userSpaceOnUse" gradientTransform="translate(185.001 88.8076) rotate(-158.198) scale(13.2864 20.9706)">
<stop offset="0.47" stop-color="#EBFF0D"/>
<stop offset="0.95" stop-color="#FFAD33"/>
</radialGradient>
<linearGradient id="paint35_linear_473_10004" x1="185.856" y1="83.8138" x2="184.624" y2="95.8341" gradientUnits="userSpaceOnUse">
<stop offset="0.19" stop-color="#2D5352"/>
<stop offset="0.7" stop-color="#1D785E"/>
</linearGradient>
<linearGradient id="paint36_linear_473_10004" x1="187.586" y1="71.7593" x2="187.353" y2="89.5528" gradientUnits="userSpaceOnUse">
<stop offset="0.19" stop-color="#437457"/>
<stop offset="0.7" stop-color="#2B993D"/>
</linearGradient>
<linearGradient id="paint37_linear_473_10004" x1="186.564" y1="103.946" x2="187.338" y2="112.205" gradientUnits="userSpaceOnUse">
<stop offset="0.18" stop-color="#FFCC78"/>
<stop offset="0.4" stop-color="#FFF985"/>
<stop offset="0.52" stop-color="#FFFA9C"/>
<stop offset="0.75" stop-color="#FFFCC4"/>
<stop offset="0.87" stop-color="#FFFDD4"/>
</linearGradient>
<linearGradient id="paint38_linear_473_10004" x1="209.874" y1="122.54" x2="212.816" y2="177.636" gradientUnits="userSpaceOnUse">
<stop offset="0.38" stop-color="#8CC63F"/>
<stop offset="0.61" stop-color="#75B544"/>
<stop offset="0.94" stop-color="#4D994D"/>
</linearGradient>
<linearGradient id="paint39_linear_473_10004" x1="219.17" y1="106.818" x2="192.232" y2="121.102" gradientUnits="userSpaceOnUse">
<stop offset="0.39" stop-color="#98C44F"/>
<stop offset="1" stop-color="#4D994D"/>
</linearGradient>
<linearGradient id="paint40_linear_473_10004" x1="226.45" y1="43.5132" x2="222.919" y2="-4.66103" gradientUnits="userSpaceOnUse">
<stop offset="0.12" stop-color="#437457"/>
<stop offset="0.78" stop-color="#437457" stop-opacity="0"/>
</linearGradient>
</defs>
</svg>
