<svg width="222" height="203" viewBox="0 0 222 203" fill="none" xmlns="http://www.w3.org/2000/svg">
<g filter="url(#filter0_f_2011_14116)">
<ellipse cx="124.5" cy="195.5" rx="49.5" ry="3.5" fill="black" fill-opacity="0.6"/>
</g>
<path d="M100.18 151.48L98.6299 168.94L108.93 168.96L118.41 147.44L100.18 151.48Z" fill="url(#paint0_linear_2011_14116)"/>
<path d="M99.9702 168.91L108.93 168.96L118.41 147.44L104.04 150.63L99.9702 168.91Z" fill="#5E5E5E"/>
<path d="M114.54 151.57L108.84 168.14L115.15 168.74C115.15 168.74 118.33 159.97 129.2 152.43L114.54 151.58V151.57Z" fill="#353F76"/>
<path d="M115.35 162.74C114.65 164.07 114.33 166.14 113.17 167.94L115.14 168.73C115.14 168.73 118.59 159.91 129.19 152.42L114.53 151.57L112.85 156.61L118.02 158.42C118.02 158.42 115.62 158.89 115.31 159.53C115.08 160 117.77 160.3 117.77 160.3C117.77 160.3 116.12 161.27 115.35 162.74Z" fill="#2A3157"/>
<path d="M103.73 180.89L101.55 184.65L105 186.02L106.01 181.22L103.73 180.89Z" fill="url(#paint1_linear_2011_14116)"/>
<path d="M115.57 195.1C115.57 195.1 115.58 195.02 115.57 194.98C115.62 194.1 115.75 190.63 115.01 187.89C114.16 184.73 111.39 181.45 109.67 180.95C106.44 180 103.79 181.29 103.79 181.29C103.79 181.29 103.19 183.35 98.8701 184.98C95.2801 186.34 92.7101 186.2 90.5301 187.91C88.3601 189.62 88.8901 196.1 88.8901 196.1C88.9901 196.88 91.5401 197.34 93.3501 197.43C95.1601 197.52 108.65 196.82 110.1 196.74C111.55 196.66 113.4 196.32 114.3 195.96C114.77 195.77 115.33 195.48 115.51 195.2H115.55C115.55 195.2 115.55 195.16 115.55 195.11L115.57 195.1Z" fill="url(#paint2_linear_2011_14116)"/>
<path style="mix-blend-mode:multiply" opacity="0.3" d="M110.92 182.31C107.84 180.44 105.08 180.83 105.08 180.83C104.82 181.96 102.09 184.63 100.64 185.25C99.1898 185.87 95.5898 186.62 94.0098 186.99C92.4298 187.36 91.0798 188.49 90.4198 189.96C89.7598 191.43 89.8898 195.45 89.8898 195.45C90.0298 196.22 92.3598 196.5 94.0598 196.57C95.7598 196.64 108.33 195.96 109.69 195.88C111.05 195.8 112.75 195.5 113.61 195.22C114.16 195.04 114.54 194.8 114.59 194.49C115.49 190.62 114 184.17 110.92 182.3V182.31Z" fill="url(#paint3_linear_2011_14116)"/>
<mask id="mask0_2011_14116" style="mask-type:luminance" maskUnits="userSpaceOnUse" x="88" y="180" width="28" height="18">
<path d="M115.57 195.1C115.57 195.1 115.58 195.02 115.57 194.98C115.62 194.1 115.75 190.63 115.01 187.89C114.16 184.73 111.4 181.18 109.68 180.67C106.45 179.72 103.79 181.29 103.79 181.29C103.79 181.29 103.19 183.52 98.8701 184.98C95.2401 186.21 92.7101 186.2 90.5301 187.91C88.3601 189.62 88.8901 196.1 88.8901 196.1C88.9901 196.88 91.5401 197.34 93.3501 197.43C95.1601 197.52 108.65 196.82 110.1 196.74C111.55 196.66 113.4 196.32 114.3 195.96C114.77 195.77 115.33 195.48 115.51 195.2H115.55C115.55 195.2 115.55 195.16 115.55 195.11L115.57 195.1Z" fill="white"/>
</mask>
<g mask="url(#mask0_2011_14116)">
<path opacity="0.7" d="M88.5801 194.89C88.5801 194.89 89.7801 195.82 92.0901 196.25C94.4801 196.7 99.5101 196.27 102.02 196.2C105.99 196.09 112.06 195.52 113.14 195.18C114.64 194.71 115.73 194.11 115.84 193.74" stroke="#211F20" stroke-width="0.33" stroke-miterlimit="10"/>
</g>
<path d="M92.6422 189.668C93.2895 188.973 93.5028 188.12 93.1188 187.762C92.7348 187.405 91.8988 187.679 91.2515 188.374C90.6043 189.069 90.3909 189.923 90.7749 190.28C91.159 190.638 91.995 190.364 92.6422 189.668Z" fill="white"/>
<path d="M90.8394 192.241C90.9875 191.761 90.898 191.307 90.6394 191.227C90.3808 191.148 90.0511 191.472 89.903 191.952C89.7548 192.433 89.8444 192.887 90.103 192.966C90.3616 193.046 90.6913 192.722 90.8394 192.241Z" fill="white"/>
<path d="M104.65 197.01C104.65 197.01 104.71 190.71 102.8 188.02C101.4 186.05 98.7099 185.46 96.3799 185.69C96.3799 185.69 96.2099 185.24 97.0699 184.9C97.9299 184.55 100.36 183.66 101.17 183.33C101.98 183 103.98 182.65 105.98 184C107.98 185.35 109.15 187.4 109.76 190.19C110.37 192.98 110.6 196.71 110.6 196.71L104.66 197.02L104.65 197.01Z" fill="url(#paint4_linear_2011_14116)"/>
<path style="mix-blend-mode:multiply" opacity="0.5" d="M105.32 196.98C105.15 192.43 104.76 187.83 101.46 186.06C99.6399 185.09 97.5799 184.98 96.5499 185.2C96.2799 185.46 96.3699 185.69 96.3699 185.69C98.7099 185.46 101.35 186.09 102.79 188.02C104.61 190.45 104.65 196.94 104.65 196.94L105.31 196.98H105.32Z" fill="url(#paint5_linear_2011_14116)"/>
<path opacity="0.3" d="M96.4199 185.37C96.4199 185.37 96.4499 185.33 96.4599 185.3C96.4399 185.32 96.4299 185.34 96.4199 185.37Z" fill="white"/>
<path opacity="0.3" d="M96.4099 185.4C96.4099 185.4 96.3899 185.44 96.3799 185.46C96.3799 185.44 96.3999 185.42 96.4099 185.4Z" fill="white"/>
<path opacity="0.3" d="M96.4902 185.28C96.4902 185.28 96.5302 185.23 96.5502 185.21C96.5302 185.23 96.5102 185.26 96.4902 185.28Z" fill="white"/>
<path opacity="0.3" d="M105.97 184C103.97 182.65 101.98 183 101.16 183.33C100.35 183.66 97.9101 184.55 97.0601 184.9C96.8201 185 96.6601 185.11 96.5601 185.21C96.9201 185.13 97.3801 185.07 97.8901 185.06C99.4901 184.44 101.56 183.65 101.95 183.58C102.6 183.47 104.87 183.19 106.97 185.47C108.72 187.37 109.78 191.11 110.01 196.74L110.58 196.71C110.58 196.71 110.36 192.98 109.74 190.19C109.13 187.4 107.95 185.35 105.96 184H105.97Z" fill="white"/>
<path opacity="0.3" d="M96.3701 185.54C96.3701 185.54 96.3701 185.5 96.3801 185.48C96.3801 185.5 96.3701 185.52 96.3701 185.54Z" fill="white"/>
<path d="M115.89 190.53C115.89 190.53 115.89 190.53 115.89 190.52C115.89 190.52 115.04 184.6 114.97 178.6C114.9 172.59 115.94 168.04 115.94 168.04C115.94 168.04 115.15 168.79 111.65 168.26C108.46 167.78 107.66 166.9 107.66 166.9C107.66 166.9 106.43 172.39 105.32 175.79C104.12 179.46 102.39 182.25 102.39 182.25C102.39 182.25 105.4 181.02 108.59 183.13C109.01 184.65 109.14 187.46 109.17 188.11L109.08 190.77C109.08 190.77 116.01 191.43 115.9 190.53H115.89Z" fill="url(#paint6_linear_2011_14116)"/>
<path d="M115.79 168.67C115.87 168.26 115.92 168.03 115.92 168.03C115.92 168.03 115.13 168.78 111.63 168.25C108.44 167.77 107.65 166.89 107.65 166.89C107.65 166.89 107.6 167.12 107.51 167.51C107.75 167.71 108.75 168.41 111.5 168.83C114.52 169.29 115.55 168.82 115.8 168.67H115.79Z" fill="#595959"/>
<path d="M111.674 169.934C112.231 167.916 111.353 165.913 109.713 165.461C108.074 165.008 106.293 166.277 105.736 168.295C105.179 170.312 106.057 172.315 107.697 172.768C109.336 173.22 111.117 171.951 111.674 169.934Z" fill="#595959"/>
<path d="M111.152 169.748C111.655 167.722 110.843 165.776 109.336 165.401C107.83 165.027 106.201 166.366 105.698 168.392C105.194 170.418 106.007 172.364 107.513 172.738C109.019 173.112 110.648 171.774 111.152 169.748Z" fill="url(#paint7_radial_2011_14116)"/>
<path opacity="0.3" d="M108.8 165.34C108.2 165.34 107.6 165.61 107.09 166.04C107.08 166.05 107.06 166.06 107.05 166.07C106.99 166.12 106.94 166.17 106.89 166.22C106.87 166.24 106.85 166.26 106.82 166.29C106.77 166.34 106.73 166.39 106.68 166.44C106.65 166.47 106.63 166.5 106.6 166.53C106.56 166.58 106.52 166.63 106.48 166.68C106.45 166.72 106.42 166.76 106.4 166.8C106.37 166.85 106.33 166.9 106.3 166.95C106.27 167 106.24 167.04 106.22 167.09C106.19 167.14 106.16 167.19 106.14 167.24C106.11 167.29 106.08 167.35 106.06 167.4C106.04 167.45 106.01 167.5 105.99 167.55C105.96 167.61 105.94 167.68 105.91 167.74C105.89 167.79 105.87 167.83 105.85 167.88C105.82 167.95 105.8 168.03 105.78 168.11C105.77 168.15 105.75 168.19 105.74 168.23C105.71 168.35 105.68 168.47 105.65 168.59C105.62 168.74 105.6 168.9 105.58 169.05C105.58 169.09 105.58 169.14 105.57 169.18C105.57 169.29 105.55 169.41 105.55 169.52C105.55 169.56 105.55 169.6 105.55 169.64C105.55 169.94 105.58 170.23 105.64 170.5C105.64 170.52 105.64 170.54 105.65 170.56C105.68 170.69 105.71 170.81 105.75 170.93C105.75 170.94 105.75 170.96 105.76 170.97C105.9 171.38 106.1 171.73 106.36 172.02C106.67 172.37 107.06 172.62 107.5 172.73C107.5 172.69 107.51 172.67 107.51 172.67C107.51 172.67 105.4 171.98 106.01 168.65C106.36 166.73 107.44 165.44 109.17 165.35L108.79 165.32L108.8 165.34Z" fill="white"/>
<path d="M108.037 167.496C108.304 167.05 108.271 166.54 107.963 166.355C107.656 166.17 107.19 166.381 106.922 166.826C106.655 167.271 106.688 167.782 106.996 167.967C107.304 168.152 107.77 167.941 108.037 167.496Z" fill="white"/>
<path d="M106.941 169.177C107.013 168.927 106.93 168.684 106.755 168.633C106.579 168.583 106.379 168.744 106.307 168.993C106.234 169.242 106.318 169.485 106.493 169.536C106.668 169.587 106.868 169.426 106.941 169.177Z" fill="white"/>
<path d="M109.89 190.84L109.48 182.88C107.2 180.97 104.5 181.09 102.83 181.43C102.54 181.95 102.36 182.25 102.36 182.25C102.36 182.25 105.37 181.02 108.56 183.13C109.04 184.85 109.03 190.84 109.03 190.84H109.88H109.89Z" fill="#595959"/>
<path d="M106.82 166.3C106.82 166.3 106.86 166.26 106.89 166.23C106.87 166.25 106.85 166.27 106.82 166.3Z" fill="white"/>
<path d="M106.61 166.54C106.61 166.54 106.66 166.48 106.69 166.45C106.66 166.48 106.64 166.51 106.61 166.54Z" fill="white"/>
<path d="M107.09 166.04C107.09 166.04 107.06 166.06 107.05 166.07C107.06 166.06 107.08 166.05 107.09 166.04Z" fill="white"/>
<path d="M105.76 170.93C105.76 170.93 105.76 170.96 105.77 170.97C105.77 170.96 105.77 170.94 105.76 170.93Z" fill="white"/>
<path d="M105.85 167.89C105.82 167.96 105.8 168.04 105.78 168.12C105.8 168.04 105.83 167.97 105.85 167.89Z" fill="white"/>
<path d="M106.41 166.81C106.41 166.81 106.47 166.73 106.49 166.69C106.46 166.73 106.43 166.77 106.41 166.81Z" fill="white"/>
<path d="M105.74 168.24C105.71 168.36 105.68 168.48 105.65 168.6C105.67 168.48 105.7 168.36 105.74 168.24Z" fill="white"/>
<path d="M106.31 166.96C106.31 166.96 106.25 167.05 106.23 167.1C106.26 167.05 106.29 167.01 106.31 166.96Z" fill="white"/>
<path opacity="0.1" d="M106.37 172.02C106.06 173.26 105.69 174.6 105.31 175.78C104.5 178.26 103.44 180.34 102.85 181.43C103.37 181.32 104 181.24 104.68 181.23C106.7 177.9 107.54 173.63 107.52 172.74C107.07 172.63 106.69 172.38 106.38 172.03L106.37 172.02Z" fill="white"/>
<path d="M106.41 172.03C106.38 175.38 105.32 179.18 102.82 181.41C104.44 178.51 105.47 175.21 106.34 172.01L106.41 172.03Z" fill="white"/>
<path d="M105.66 170.56C105.66 170.56 105.66 170.52 105.65 170.5C105.65 170.52 105.65 170.54 105.66 170.56Z" fill="white"/>
<path d="M105.57 169.19C105.57 169.19 105.57 169.1 105.58 169.06C105.58 169.1 105.58 169.15 105.57 169.19Z" fill="white"/>
<path d="M106.14 167.25C106.11 167.3 106.08 167.36 106.06 167.41C106.09 167.35 106.11 167.3 106.14 167.25Z" fill="white"/>
<path d="M142.7 153L148.97 169.36L142.69 170.18C142.69 170.18 139.21 161.53 128.08 154.36L142.7 153.01V153Z" fill="#353F76"/>
<path d="M142.27 164.19C143.02 165.49 143.41 167.55 144.63 169.32L142.69 170.18C142.69 170.18 138.94 161.48 128.08 154.36L142.7 153.01L144.55 157.99L139.45 159.98C139.45 159.98 141.86 160.37 142.2 161C142.45 161.46 139.77 161.86 139.77 161.86C139.77 161.86 141.45 162.77 142.27 164.21V164.19Z" fill="#2A3157"/>
<path d="M147.86 182.88L148.88 187.03L143.68 186.88L144.72 182.27L147.86 182.88Z" fill="url(#paint8_linear_2011_14116)"/>
<path d="M132.87 196.03C132.87 196.03 132.86 195.95 132.87 195.91C132.83 195.03 132.72 191.56 133.47 188.83C134.34 185.68 137.13 182.42 138.86 181.92C142.1 180.99 144.74 182.3 144.74 182.3C144.74 182.3 145.32 184.36 149.63 186.02C153.21 187.4 155.79 187.28 157.95 189C160.11 190.72 159.54 197.2 159.54 197.2C159.44 197.98 156.88 198.42 155.07 198.5C153.26 198.58 139.78 197.79 138.32 197.71C136.87 197.62 135.02 197.27 134.12 196.9C133.65 196.7 133.09 196.41 132.92 196.13H132.88C132.88 196.13 132.88 196.09 132.88 196.04L132.87 196.03Z" fill="url(#paint9_linear_2011_14116)"/>
<path style="mix-blend-mode:multiply" opacity="0.3" d="M137.6 183.27C140.7 181.42 143.45 181.83 143.45 181.83C143.71 182.96 146.42 185.65 147.86 186.28C149.3 186.91 152.9 187.68 154.48 188.06C156.05 188.44 157.4 189.58 158.05 191.05C158.7 192.53 158.55 196.54 158.55 196.54C158.41 197.31 156.07 197.57 154.37 197.64C152.67 197.71 140.1 196.94 138.74 196.85C137.38 196.76 135.68 196.45 134.83 196.17C134.28 195.99 133.91 195.75 133.86 195.44C132.98 191.56 134.51 185.13 137.61 183.28L137.6 183.27Z" fill="url(#paint10_linear_2011_14116)"/>
<mask id="mask1_2011_14116" style="mask-type:luminance" maskUnits="userSpaceOnUse" x="132" y="181" width="28" height="18">
<path d="M132.87 196.03C132.87 196.03 132.86 195.95 132.87 195.91C132.83 195.03 132.72 191.56 133.47 188.83C134.34 185.68 137.12 182.14 138.85 181.64C142.09 180.71 144.73 182.3 144.73 182.3C144.73 182.3 145.32 184.53 149.62 186.02C153.24 187.28 155.78 187.28 157.94 189C160.1 190.72 159.53 197.2 159.53 197.2C159.43 197.98 156.87 198.42 155.06 198.5C153.25 198.58 139.77 197.79 138.31 197.71C136.86 197.62 135.01 197.27 134.11 196.9C133.64 196.7 133.08 196.41 132.91 196.13H132.87C132.87 196.13 132.87 196.09 132.87 196.04V196.03Z" fill="white"/>
</mask>
<g mask="url(#mask1_2011_14116)">
<path opacity="0.7" d="M159.86 195.99C159.86 195.99 158.65 196.91 156.34 197.33C153.95 197.76 148.92 197.3 146.41 197.21C142.44 197.07 136.37 196.47 135.29 196.12C133.8 195.64 132.7 195.03 132.6 194.66" stroke="#211F20" stroke-width="0.33" stroke-miterlimit="10"/>
</g>
<path d="M157.691 191.365C158.077 191.01 157.869 190.155 157.226 189.456C156.584 188.756 155.749 188.477 155.363 188.832C154.977 189.187 155.185 190.042 155.827 190.741C156.47 191.441 157.304 191.72 157.691 191.365Z" fill="white"/>
<path d="M158.365 194.045C158.624 193.967 158.716 193.514 158.571 193.032C158.426 192.551 158.098 192.224 157.839 192.303C157.58 192.381 157.488 192.834 157.633 193.315C157.778 193.796 158.106 194.123 158.365 194.045Z" fill="white"/>
<path d="M143.78 198.01C143.78 198.01 143.76 191.71 145.69 189.03C147.1 187.07 149.79 186.5 152.13 186.74C152.13 186.74 152.3 186.29 151.45 185.94C150.6 185.59 148.17 184.68 147.36 184.35C146.55 184.01 144.56 183.65 142.55 184.99C140.54 186.33 139.36 188.37 138.73 191.15C138.1 193.94 137.85 197.66 137.85 197.66L143.79 198.01H143.78Z" fill="url(#paint11_linear_2011_14116)"/>
<path style="mix-blend-mode:multiply" opacity="0.5" d="M143.1 197.97C143.3 193.42 143.72 188.83 147.03 187.08C148.85 186.12 150.91 186.03 151.95 186.25C152.21 186.51 152.13 186.74 152.13 186.74C149.8 186.5 147.15 187.11 145.69 189.03C143.86 191.45 143.77 197.94 143.77 197.94L143.11 197.97H143.1Z" fill="url(#paint12_linear_2011_14116)"/>
<path opacity="0.3" d="M152.08 186.43C152.08 186.43 152.05 186.39 152.04 186.36C152.06 186.38 152.07 186.41 152.08 186.43Z" fill="white"/>
<path opacity="0.3" d="M152.09 186.45C152.09 186.45 152.11 186.49 152.11 186.51C152.11 186.49 152.1 186.47 152.09 186.45Z" fill="white"/>
<path opacity="0.3" d="M152.01 186.33C152.01 186.33 151.97 186.28 151.95 186.26C151.97 186.28 151.99 186.31 152.01 186.33Z" fill="white"/>
<path opacity="0.3" d="M142.54 184.99C144.55 183.65 146.54 184.01 147.35 184.35C148.16 184.69 150.59 185.59 151.44 185.94C151.68 186.04 151.84 186.15 151.94 186.25C151.58 186.17 151.12 186.1 150.61 186.09C149.02 185.46 146.95 184.66 146.56 184.59C145.91 184.48 143.64 184.18 141.53 186.45C139.77 188.34 138.69 192.08 138.41 197.7L137.84 197.67C137.84 197.67 138.09 193.94 138.72 191.16C139.35 188.37 140.54 186.34 142.54 185V184.99Z" fill="white"/>
<path opacity="0.3" d="M152.13 186.59C152.13 186.59 152.13 186.55 152.12 186.53C152.12 186.55 152.12 186.57 152.13 186.59Z" fill="white"/>
<path d="M132 186.94C132 186.94 132 186.94 132 186.93C132 186.93 135.18 182.01 137.64 176.74C140.11 171.47 140.92 167.09 140.92 167.09C140.92 167.09 141.38 168.03 144.97 168.79C148.24 169.49 149.35 168.99 149.35 168.99C149.35 168.99 148.35 174.27 148.07 177.65C147.76 181.31 148.32 184.38 148.32 184.38C148.32 184.38 145.9 182.24 141.99 182.99C140.98 184.18 139.73 186.61 139.45 187.18L138.48 189.55C138.48 189.55 131.53 187.7 131.99 186.95L132 186.94Z" fill="url(#paint13_linear_2011_14116)"/>
<path d="M140.8 167.7C140.89 167.31 140.93 167.09 140.93 167.09C140.93 167.09 141.39 168.03 144.98 168.79C148.25 169.49 149.36 168.99 149.36 168.99C149.36 168.99 149.32 169.21 149.25 169.59C148.94 169.68 147.7 169.95 144.88 169.35C141.78 168.69 140.98 167.92 140.8 167.7Z" fill="#595959"/>
<path d="M150.56 171.412C151.084 169.489 150.127 167.553 148.422 167.088C146.717 166.623 144.91 167.805 144.385 169.729C143.861 171.653 144.818 173.589 146.523 174.054C148.228 174.518 150.035 173.336 150.56 171.412Z" fill="#595959"/>
<path d="M150.572 171.31C151.042 169.373 150.156 167.495 148.594 167.117C147.032 166.738 145.385 168.002 144.916 169.94C144.447 171.878 145.332 173.755 146.894 174.134C148.456 174.512 150.103 173.248 150.572 171.31Z" fill="url(#paint14_radial_2011_14116)"/>
<path opacity="0.3" d="M148.88 167.21C149.46 167.43 149.93 167.86 150.25 168.43C150.25 168.44 150.27 168.46 150.27 168.47C150.3 168.53 150.34 168.6 150.37 168.66C150.38 168.69 150.4 168.71 150.41 168.74C150.44 168.8 150.46 168.86 150.48 168.92C150.49 168.96 150.51 168.99 150.52 169.03C150.54 169.09 150.56 169.15 150.57 169.21C150.58 169.25 150.59 169.3 150.6 169.34C150.61 169.4 150.63 169.45 150.64 169.51C150.64 169.56 150.66 169.61 150.67 169.66C150.67 169.71 150.69 169.77 150.69 169.82C150.69 169.88 150.7 169.93 150.7 169.99C150.7 170.04 150.7 170.09 150.7 170.14C150.7 170.2 150.7 170.27 150.7 170.33C150.7 170.38 150.7 170.42 150.7 170.47C150.7 170.54 150.69 170.62 150.68 170.7C150.68 170.74 150.68 170.78 150.67 170.82C150.66 170.93 150.64 171.05 150.61 171.16C150.58 171.31 150.54 171.45 150.5 171.59C150.49 171.63 150.47 171.67 150.46 171.71C150.42 171.81 150.38 171.92 150.34 172.02C150.33 172.05 150.31 172.09 150.29 172.12C150.17 172.38 150.02 172.63 149.86 172.85C149.85 172.87 149.84 172.88 149.82 172.9C149.74 173 149.66 173.1 149.58 173.19C149.58 173.19 149.56 173.21 149.55 173.22C149.25 173.53 148.92 173.77 148.56 173.94C148.12 174.14 147.65 174.23 147.17 174.17C147.17 174.14 147.17 174.12 147.17 174.12C147.17 174.12 149.48 174.25 150.22 171.1C150.65 169.29 150.13 167.77 148.49 167.08L148.87 167.19L148.88 167.21Z" fill="white"/>
<path d="M149.597 170.14C149.96 170.072 150.182 169.625 150.092 169.142C150.001 168.658 149.633 168.322 149.269 168.39C148.906 168.458 148.684 168.905 148.774 169.388C148.865 169.871 149.233 170.208 149.597 170.14Z" fill="white"/>
<path d="M149.821 171.332C149.862 171.087 149.746 170.863 149.561 170.831C149.376 170.8 149.192 170.973 149.15 171.218C149.108 171.463 149.225 171.687 149.41 171.719C149.595 171.75 149.779 171.577 149.821 171.332Z" fill="white"/>
<path d="M137.66 189.31L141.22 182.44C144.18 181.55 146.74 182.61 148.2 183.49C148.27 184.05 148.33 184.37 148.33 184.37C148.33 184.37 145.91 182.23 142 182.98C140.85 184.33 138.48 189.61 138.48 189.61L137.66 189.31Z" fill="#595959"/>
<path d="M150.4 168.75C150.4 168.75 150.38 168.7 150.36 168.67C150.37 168.7 150.39 168.72 150.4 168.75Z" fill="white"/>
<path d="M150.51 169.04C150.51 169.04 150.48 168.97 150.47 168.93C150.48 168.97 150.5 169 150.51 169.04Z" fill="white"/>
<path d="M150.24 168.43C150.24 168.43 150.26 168.46 150.26 168.47C150.26 168.46 150.24 168.44 150.24 168.43Z" fill="white"/>
<path d="M149.58 173.2C149.58 173.2 149.56 173.22 149.55 173.23C149.55 173.23 149.57 173.21 149.58 173.2Z" fill="white"/>
<path d="M150.7 170.49C150.7 170.56 150.69 170.64 150.68 170.72C150.68 170.64 150.7 170.57 150.7 170.49Z" fill="white"/>
<path d="M150.6 169.35C150.6 169.35 150.58 169.26 150.57 169.22C150.58 169.26 150.59 169.31 150.6 169.35Z" fill="white"/>
<path d="M150.67 170.84C150.66 170.95 150.64 171.07 150.61 171.18C150.63 171.06 150.65 170.95 150.67 170.84Z" fill="white"/>
<path d="M150.63 169.51C150.63 169.56 150.65 169.61 150.66 169.66C150.66 169.61 150.64 169.56 150.63 169.51Z" fill="white"/>
<path d="M150.29 172.14C150.29 172.14 150.32 172.07 150.34 172.04C150.33 172.07 150.31 172.11 150.29 172.14Z" fill="white"/>
<path opacity="0.1" d="M148.56 173.96C148.37 175.16 148.18 176.47 148.09 177.65C147.88 180.12 148.07 182.32 148.21 183.49C147.75 183.21 147.18 182.92 146.53 182.67C145.91 179.02 146.81 174.97 147.18 174.19C147.66 174.25 148.13 174.16 148.57 173.96H148.56Z" fill="white"/>
<path d="M148.59 173.96C148.89 175.58 148.72 177.14 148.67 178.74C148.52 180.25 148.65 182.03 148.17 183.49C147.68 180.35 148.01 177.07 148.52 173.95L148.59 173.96Z" fill="white"/>
<path d="M149.82 172.92C149.82 172.92 149.85 172.89 149.86 172.87C149.85 172.89 149.84 172.9 149.82 172.92Z" fill="white"/>
<path d="M150.46 171.73C150.46 171.73 150.49 171.65 150.5 171.61C150.49 171.65 150.47 171.69 150.46 171.73Z" fill="white"/>
<path d="M150.68 169.83C150.68 169.89 150.69 169.94 150.69 170C150.69 169.94 150.69 169.88 150.68 169.83Z" fill="white"/>
<path d="M141.27 152.57L149.93 174.47L162.83 174.38L160.24 159.74L141.27 152.57Z" fill="url(#paint15_linear_2011_14116)"/>
<path d="M149.93 174.47L162.83 174.38L162.72 173.75L150.8 173.43L144.72 153.88L141.27 152.57L149.93 174.47Z" fill="#666666"/>
<path d="M157.58 160.05L161.26 172.86L150.62 173.05L150.8 173.43L162.72 173.75L160.51 161.28L157.58 160.05Z" fill="url(#paint16_linear_2011_14116)"/>
<path d="M111.193 115.596C114.196 109.843 112.101 102.816 106.515 99.9004C100.928 96.9848 93.9653 99.2849 90.9628 105.038C87.9604 110.791 90.0551 117.818 95.6416 120.734C101.228 123.649 108.191 121.349 111.193 115.596Z" fill="url(#paint17_radial_2011_14116)"/>
<path opacity="0.15" d="M97.12 103.85C97.12 103.7 97.12 103.57 97.09 103.45C96.91 102.48 96.69 101.6 96.35 100.78L96.27 99.86C99.43 98.3 103.21 98.2 106.51 99.93C110.63 102.08 112.84 106.46 112.52 110.92V110.94C112.52 110.94 111.26 104.18 104.78 103.98C100.21 103.83 98.1 104.73 97.24 105.28C97.22 104.84 97.18 104.38 97.1 103.87L97.12 103.85Z" fill="white"/>
<path d="M109.168 104.654C109.709 104.019 109.221 102.715 108.079 101.74C106.936 100.765 105.571 100.489 105.029 101.123C104.488 101.757 104.976 103.062 106.119 104.037C107.261 105.012 108.627 105.288 109.168 104.654Z" fill="white"/>
<path d="M103.428 101.292C103.56 100.888 103.089 100.371 102.375 100.137C101.661 99.9036 100.975 100.042 100.843 100.446C100.711 100.85 101.182 101.367 101.896 101.601C102.61 101.835 103.296 101.696 103.428 101.292Z" fill="white"/>
<path opacity="0.5" d="M94.5501 109.63C93.1501 110.49 90.4401 113.89 91.7601 117.3C91.7601 117.3 91.7101 117.26 91.6201 117.18C89.2701 113.75 88.8601 109.09 90.9701 105.05C92.1401 102.8 93.9201 101.08 95.9901 100C96.5601 101.03 96.8501 102.17 97.1001 103.45C97.4401 105.26 94.5601 109.64 94.5601 109.64L94.5501 109.63Z" fill="url(#paint18_linear_2011_14116)"/>
<path d="M96.5702 101.55C96.5702 101.55 92.5102 99.62 89.4902 97.2L86.1602 102.81C86.1602 102.81 89.6002 105.89 93.3102 110.84C93.3102 110.84 94.4401 109.5 96.8401 108.8C96.8401 108.8 97.9602 105.93 96.5702 101.56V101.55Z" fill="#364073"/>
<path d="M90.8399 105.63C90.8399 105.63 91.0699 104.14 91.4799 104.62C91.8899 105.1 92.6299 106.73 92.6299 106.73C92.6299 106.73 93.7099 103.6 94.1999 103.56C94.6899 103.51 94.8199 106.81 94.8199 106.81C94.8199 106.81 95.2399 106.68 95.3799 104.13C95.4499 102.86 95.3599 101.71 95.2599 100.87C96.0599 101.3 96.5799 101.54 96.5799 101.54C97.9699 105.92 96.8499 108.78 96.8499 108.78C94.4499 109.48 93.3199 110.82 93.3199 110.82C89.6099 105.87 86.1699 102.79 86.1699 102.79L87.1899 101.08L90.8599 105.62L90.8399 105.63Z" fill="#2A3157"/>
<path d="M90.5225 100.083C91.0732 95.9611 89.0479 92.2892 85.9987 91.8818C82.9496 91.4744 80.0313 94.4858 79.4806 98.6079C78.9299 102.73 80.9552 106.402 84.0043 106.809C87.0535 107.217 89.9717 104.205 90.5225 100.083Z" fill="url(#paint19_radial_2011_14116)"/>
<path style="mix-blend-mode:multiply" opacity="0.3" d="M83.56 104.22C86.15 104.6 88.59 102.16 88.99 98.77C89.38 95.54 87.79 92.62 85.41 92.02C82.71 91.87 80.22 94.42 79.55 98.01C79.41 101.15 81.12 103.87 83.55 104.23L83.56 104.22Z" fill="url(#paint20_radial_2011_14116)"/>
<g opacity="0.4">
<path d="M79.5999 98C79.8399 101.83 83.4999 105.74 86.7899 102.02C89.2199 99.14 88.8699 93.82 85.4199 91.96C89.7099 93.31 90.0899 99.51 87.4799 102.6C83.7299 106.88 78.8799 102.4 79.5899 97.99L79.5999 98Z" fill="#5E5E5E"/>
</g>
<path d="M80.4902 86.96C79.6102 88.81 80.0602 89.27 81.0302 90.06C82.0002 90.85 85.8902 93.44 85.8902 93.44C85.8902 93.44 87.8402 96.55 84.7702 98.75C81.7002 100.95 80.1102 98.57 80.1102 98.57C80.1102 98.57 76.2402 94.71 73.4302 89.97L78.2902 84.92L80.4902 86.96Z" fill="url(#paint21_linear_2011_14116)"/>
<path d="M74.0498 90.97C76.7798 95.24 80.1198 98.58 80.1198 98.58C80.1198 98.58 81.4598 100.59 84.0598 99.21C82.3998 98.12 78.4598 95.16 75.2598 89.8L74.0598 90.97H74.0498Z" fill="url(#paint22_linear_2011_14116)"/>
<path d="M78.2702 88.22L83.2402 94.07L77.4502 88.68L78.2702 88.22Z" fill="#5E5E5E"/>
<path d="M71.5302 90.65C72.3702 90.87 75.2602 91.81 77.6002 90.6C79.4402 89.54 81.0702 87.47 80.9102 85.3C80.7202 82.56 70.4202 74.17 71.3702 79.19C71.3502 79.4 71.1702 79.57 70.9502 79.59C70.1202 79.67 68.5002 79.62 68.7702 81.61C68.8102 81.89 68.5802 82.12 68.3002 82.09C66.5502 81.91 65.7202 83.5 66.2802 85.08C66.8202 86.09 68.8202 89.89 71.5302 90.64V90.65Z" fill="#A86335"/>
<path d="M68.6001 84.71C69.8801 85.51 71.1701 86.28 72.6001 86.74C74.3701 87.07 75.8801 88.15 75.1501 90.11C75.1501 88.3 73.9901 87.78 72.3701 87.48C70.8401 86.97 69.5201 85.98 68.6101 84.71H68.6001Z" fill="#7C4A28"/>
<path d="M78.7 82.55L76.54 85.76L70.58 85.95L68.79 85.28L70.86 81.87L73.4 79.74L78.3 81.79L78.7 82.55Z" fill="#7C4A28"/>
<path d="M76.2199 79.78L76.2899 79.76C77.1499 79.55 77.6699 78.69 77.4399 77.84L77.0099 76.19C76.7899 75.34 75.9099 74.83 75.0499 75.04L74.9799 75.06C74.1199 75.27 73.5999 76.13 73.8299 76.98L74.2599 78.63C74.4799 79.48 75.3599 79.99 76.2199 79.78Z" fill="#C47B43"/>
<path d="M73.9398 81.76L74.0098 81.74C74.8398 81.43 75.2498 80.52 74.9298 79.7L74.2998 78.11C73.9798 77.29 73.0498 76.88 72.2198 77.19L72.1498 77.21C71.3198 77.52 70.9098 78.43 71.2298 79.25L71.8598 80.84C72.1798 81.66 73.1098 82.07 73.9398 81.76Z" fill="#C47B43"/>
<path d="M72.0401 84.16L72.1001 84.12C72.8401 83.64 73.0401 82.66 72.5501 81.93L71.5901 80.5C71.1001 79.77 70.1001 79.57 69.3601 80.05L69.3001 80.09C68.5601 80.57 68.3601 81.55 68.8501 82.28L69.8101 83.71C70.3001 84.44 71.3001 84.64 72.0401 84.16Z" fill="#C47B43"/>
<path d="M69.9899 86.27L70.0399 86.22C70.6599 85.6 70.6599 84.6 70.0299 83.99L68.7999 82.78C68.1699 82.16 67.1499 82.16 66.5299 82.78L66.4799 82.83C65.8599 83.45 65.8599 84.45 66.4899 85.06L67.7199 86.27C68.3499 86.89 69.3699 86.89 69.9899 86.27Z" fill="#C47B43"/>
<path d="M80.4052 59.0158L26.124 37.0958C23.0309 35.8468 19.5109 37.3417 18.2618 40.4348L9.12908 63.0504C7.88001 66.1435 9.37491 69.6635 12.468 70.9126L66.7492 92.8326C69.8423 94.0817 73.3623 92.5868 74.6114 89.4937L83.7441 66.8781C84.9932 63.7849 83.4983 60.2649 80.4052 59.0158Z" fill="#B7441D"/>
<path d="M79.2037 58.5311L25.9332 37.0192C22.9476 35.8136 19.55 37.2565 18.3443 40.2421L9.71338 61.6152C8.50773 64.6008 9.95065 67.9984 12.9362 69.2041L66.2067 90.7159C69.1923 91.9215 72.5899 90.4786 73.7956 87.4931L82.4265 66.12C83.6322 63.1344 82.1892 59.7367 79.2037 58.5311Z" fill="url(#paint23_linear_2011_14116)"/>
<g opacity="0.5">
<mask id="mask2_2011_14116" style="mask-type:luminance" maskUnits="userSpaceOnUse" x="9" y="36" width="74" height="56">
<path d="M79.2037 58.5311L25.9332 37.0192C22.9476 35.8136 19.55 37.2565 18.3443 40.2421L9.71338 61.6152C8.50773 64.6008 9.95065 67.9984 12.9362 69.2041L66.2067 90.7159C69.1923 91.9215 72.5899 90.4786 73.7956 87.4931L82.4265 66.12C83.6322 63.1344 82.1892 59.7367 79.2037 58.5311Z" fill="white"/>
</mask>
<g mask="url(#mask2_2011_14116)">
<path d="M39.5793 34.7929L30.1973 26.1445L-0.00437723 58.9081L9.37766 67.5566L39.5793 34.7929Z" fill="#FBFFBA"/>
<path d="M46.1735 40.5158L42.9897 37.581L12.7881 70.3446L15.9718 73.2794L46.1735 40.5158Z" fill="#FBFFBA"/>
<path d="M75.564 55.2412L71.895 51.8591L41.6934 84.6227L45.3624 88.0048L75.564 55.2412Z" fill="#FBFFBA"/>
</g>
</g>
<path d="M9.62988 61.58L17.9899 40.78C18.8299 38.01 21.7099 36.04 24.6099 36.52C33.6899 39.61 69.6399 54.73 79.2199 58.45L79.1599 58.6C75.5799 57.49 72.0699 56.21 68.5199 55.02C54.5899 50.04 39.0699 44.01 25.4499 38.23C22.9099 37.12 19.9999 38.69 19.1499 41.25C16.5099 47.3 12.6899 55.81 9.77988 61.64L9.62988 61.58Z" fill="white"/>
<path d="M75.7796 60.8948L26.487 40.9893C24.1416 40.0422 21.4724 41.1757 20.5253 43.5212L13.5269 60.8514C12.5798 63.1969 13.7133 65.8661 16.0587 66.8132L65.3513 86.7187C67.6968 87.6658 70.3659 86.5323 71.3131 84.1868L78.3114 66.8566C79.2586 64.5111 78.125 61.8419 75.7796 60.8948Z" stroke="#B7441D" stroke-width="0.7" stroke-miterlimit="10"/>
<path d="M19.9327 64.042L26.3582 48.1303L24.213 47.264L25.1886 44.8481L32.1761 47.6698L31.2004 50.0857L29.1386 49.2531L22.7131 65.1648L19.9327 64.042ZM26.4307 66.6661L33.8318 48.3384L36.6226 49.4654L29.2215 67.7931L26.4307 66.6661ZM41.8304 67.0713C41.1155 68.8416 40.2698 70.0261 39.2932 70.6249C38.3195 71.2167 37.1557 71.2393 35.802 70.6927C34.4482 70.146 33.6169 69.2854 33.3079 68.111C33.0087 66.9324 33.2025 65.4927 33.8894 63.7918L37.1147 55.8047C38.2165 53.0764 39.6198 51.6608 41.3247 51.558C41.9532 51.5211 42.6424 51.6541 43.3921 51.9569C45.9677 52.9969 46.5995 55.1415 45.2875 58.3905L44.2698 60.9105L41.5727 59.8214L42.5189 57.4784C42.9002 56.5342 43.0923 55.8286 43.0952 55.3614C43.1009 54.8874 42.8712 54.5564 42.4061 54.3686C41.941 54.1807 41.5313 54.2656 41.1769 54.6231C40.8226 54.9807 40.466 55.6037 40.1072 56.4923L36.6505 65.0522C36.2524 66.038 36.0547 66.7777 36.0572 67.2713C36.0598 67.7648 36.2901 68.1041 36.7483 68.2891C37.2065 68.4742 37.6093 68.3865 37.9567 68.0262C38.304 67.6659 38.6782 66.9893 39.0791 65.9966L40.1388 63.3724L42.8775 64.4783L41.8304 67.0713ZM42.0925 72.9907L49.4936 54.663L52.2844 55.79L48.8782 64.2249L55.0752 56.917L57.9597 58.0818L51.2689 65.8928L50.7981 76.5062L47.8511 75.3161L48.3608 65.5662L44.9041 74.1261L42.0925 72.9907ZM52.1935 77.0697L59.5946 58.7421L65.7386 61.2231L64.7672 63.6286L61.4141 62.2745L59.261 67.6062L62.4475 68.893L61.4971 71.2465L58.3106 69.9597L55.9557 75.7912L59.4338 77.1957L58.4624 79.6012L52.1935 77.0697ZM61.6281 80.8796L68.0536 64.9679L65.9085 64.1016L66.8841 61.6857L73.8715 64.5074L72.8959 66.9233L70.834 66.0907L64.4085 82.0024L61.6281 80.8796Z" fill="#B7441D"/>
<path d="M80.7799 85.46C80.7799 85.46 80.7699 83.11 81.2899 81.95C81.8099 80.79 80.3199 79.52 78.6499 79.37C77.2499 79.25 75.4599 79.22 74.5799 79.22C74.2599 79.22 73.9999 79.45 73.9699 79.76C73.8999 80.48 73.9699 81.7 75.1799 81.88C77.4399 82.22 77.9799 82.81 77.9799 82.81C77.9799 82.81 75.5199 85.65 76.0399 86.93C76.5599 88.21 79.4499 90.47 80.7799 85.46Z" fill="url(#paint24_linear_2011_14116)"/>
<path d="M74.5802 79.22C75.0602 79.22 75.8302 79.23 76.6502 79.26C75.5502 79.33 74.3902 79.45 74.3302 79.64C74.2202 80 73.9902 81.22 74.8202 81.52C75.6102 81.81 77.0702 82.04 77.8702 82.71C77.6102 82.53 76.8902 82.13 75.1902 81.88C73.9802 81.7 73.9102 80.49 73.9802 79.76C74.0102 79.45 74.2702 79.21 74.5902 79.22H74.5802Z" fill="#A86335"/>
<path d="M188.56 104.08L163.15 148.36C163.15 148.36 106.3 143.74 97.7202 136.11C97.7202 136.11 98.8102 105.68 100.06 96.49C101.45 86.32 112.34 45.83 112.34 45.83L180.55 70.45L188.56 104.08Z" fill="#C47B43"/>
<path d="M188.56 104.08L163.15 148.36L149.68 150.38L180.85 71.69L188.56 104.08Z" fill="url(#paint25_linear_2011_14116)"/>
<path d="M147.7 150.07L147.82 149.71C155.32 128.77 172.32 89.04 172.32 89.04L177.73 88.49L152.4 150.94L147.7 150.07Z" fill="#703D21"/>
<path d="M110.53 69.35L114.65 52.17L142.64 57.98L136.16 75.31L110.53 69.35Z" fill="#A86335"/>
<path d="M138.85 76.15L144.74 59.7L174.94 78.82L170.28 90.08L138.85 76.15Z" fill="#A86335"/>
<path d="M172.26 81.82L173.35 82.66L173.16 83.11L170.28 90.08L169.73 89.84L138.85 76.15L139.31 74.86L169.53 88.47L172.26 81.82Z" fill="#623B20"/>
<path d="M110.74 52.02L112.68 52.77C112.68 52.77 102.26 91.34 101.37 98.88C100.59 105.5 99.2502 130.89 98.9402 137.01C98.5102 136.74 98.1102 136.44 97.7202 136.12C97.7202 136.12 98.5002 105.56 100.06 96.5C101.38 88.87 107.74 63.76 110.74 52.02Z" fill="#703D21"/>
<path d="M125.24 110.07L103.36 103.89L104.25 95.47L109.86 72.09L135.14 78.03L127.31 98.95L125.24 110.07Z" fill="#A86335"/>
<path d="M124.59 113.58L119.27 142.09L99.79 137.08L102.95 107.66L124.59 113.58Z" fill="#A86335"/>
<path d="M123.09 113.18L124.59 113.58L119.27 142.09L117.92 141.74L123.09 113.18Z" fill="#623B20"/>
<path d="M125.95 97.31L133.38 77.61L135.14 78.03L127.31 98.95L125.24 110.07L123.72 109.64L125.95 97.31Z" fill="#623B20"/>
<path d="M158.18 119.38L128.29 110.94L130.7 98.97L137.86 78.93L169.18 92.73L158.36 118.91L158.18 119.38Z" fill="#A86335"/>
<path d="M157.01 122.46L147.13 148.6L121.97 142.48L127.59 114.4L157.01 122.46Z" fill="#A86335"/>
<path d="M157.01 122.46L147.13 148.6L121.97 142.48L127.59 114.4L157.01 122.46Z" fill="#A86335"/>
<path d="M155.69 122.1L157.01 122.46L147.13 148.6L145.79 148.27L155.69 122.1Z" fill="#623B20"/>
<path d="M123.295 87.8222C124.411 84.4918 123.593 81.2143 121.467 80.5017C119.341 79.7891 116.712 81.9112 115.596 85.2417C114.48 88.5721 115.298 91.8496 117.424 92.5622C119.55 93.2748 122.179 91.1526 123.295 87.8222Z" fill="#221F20"/>
<path d="M119.594 85.438C119.966 84.12 119.661 82.8798 118.911 82.6681C118.162 82.4563 117.252 83.3531 116.88 84.6712C116.508 85.9892 116.813 87.2294 117.562 87.4411C118.312 87.6529 119.221 86.7561 119.594 85.438Z" fill="white"/>
<path d="M146.8 93.2261C147.917 89.8957 147.098 86.6182 144.972 85.9056C142.846 85.193 140.218 87.3151 139.101 90.6456C137.985 93.976 138.804 97.2535 140.93 97.9661C143.056 98.6787 145.684 96.5565 146.8 93.2261Z" fill="#221F20"/>
<path d="M142.817 90.5246C143.189 89.2066 142.884 87.9664 142.134 87.7546C141.385 87.5429 140.476 88.4397 140.103 89.7577C139.731 91.0758 140.036 92.3159 140.786 92.5277C141.535 92.7395 142.444 91.8427 142.817 90.5246Z" fill="white"/>
<path d="M157.52 119.2L147.77 116.47L148.01 115.89L157.35 118.06L167.99 92.21L169.18 92.73L158.36 118.91L158.18 119.38L157.52 119.2Z" fill="#623B20"/>
<path d="M158.33 147.02C158.33 147.22 158.36 147.43 158.39 147.63" stroke="#4B569C" stroke-width="0.3" stroke-miterlimit="10"/>
<path d="M154.03 167.49C153.85 167.54 153.64 167.58 153.44 167.62" stroke="#4B569C" stroke-width="0.3" stroke-miterlimit="10"/>
<path d="M119.31 108.39L103.36 103.89L103.49 102.61L119.4 107.32L119.31 108.39Z" fill="#784726"/>
<path d="M116.58 139.43L116.65 140.04" stroke="#D8BD97" stroke-width="0.3" stroke-miterlimit="10"/>
<path d="M123.34 157.36L123.91 157.57" stroke="#D8BD97" stroke-width="0.3" stroke-miterlimit="10"/>
<path d="M141.78 165.25L142.07 165.79" stroke="#463B9B" stroke-width="0.3" stroke-miterlimit="10"/>
<path d="M153.04 187.79L153.33 188.33" stroke="#463B9B" stroke-width="0.3" stroke-miterlimit="10"/>
<path d="M135.78 75.23L110.53 69.35L110.76 68.38L134.91 73.56L140.87 57.75L142.44 58.54L136.16 75.31L135.78 75.23Z" fill="#623B20"/>
<path d="M149.97 106.83C149.93 106.25 149.78 105.69 149.54 105.17C149.32 104.65 149.03 104.16 148.68 103.72C148.33 103.27 147.91 102.87 147.44 102.54C146.96 102.19 146.38 101.98 145.78 101.95C146.15 102.42 146.44 102.85 146.76 103.26C147.08 103.67 147.37 104.09 147.69 104.5C148.35 105.37 149.11 106.15 149.97 106.82V106.83Z" fill="#492C19"/>
<path d="M115.21 118.82C115.94 120.21 116.86 121.57 118.3 122.55C120.27 123.89 123.03 124.35 125.62 124.14C128.21 123.93 130.65 123.1 132.94 122.12C140.04 119.08 146.19 114.18 148.37 108.02C148.68 107.14 148.91 106.19 148.55 105.31C145.45 106.11 138.15 107.27 125.43 105.93C118.61 105.21 114.04 101.79 112.33 100.3C112.32 102.19 112.35 104 112.38 105.89C112.41 107.96 112.56 110.04 112.95 112.09C113.38 114.39 114.1 116.67 115.23 118.82H115.21Z" fill="#492C19"/>
<path d="M115.92 117.43C116.61 118.65 117.48 119.85 118.84 120.71C120.7 121.89 123.31 122.3 125.76 122.11C128.21 121.92 130.52 121.2 132.68 120.34C139.39 117.67 145.21 113.35 147.26 107.94C147.55 107.16 147.77 106.33 147.43 105.56C145.21 106.34 137.72 107.8 124.94 106.02C121.35 105.52 115.41 102.95 113.19 101.15C113.18 102.81 113.21 104.4 113.24 106.06C113.27 107.88 113.41 109.71 113.78 111.51C114.19 113.54 114.87 115.54 115.93 117.43H115.92Z" fill="url(#paint26_linear_2011_14116)"/>
<path d="M109.9 94.85C110.07 96.7 110.78 98.45 111.94 99.89C113.13 101.32 114.59 102.5 116.24 103.35C119.54 105.03 123.1 106.13 126.77 106.59C130.41 107.12 134.1 107.34 137.78 107.25C139.63 107.22 141.47 107.1 143.3 106.88C144.21 106.77 145.13 106.63 146.06 106.43C146.53 106.34 147 106.22 147.46 106.08C147.71 106 147.95 105.91 148.18 105.8C148.32 105.74 148.45 105.66 148.58 105.58C148.82 105.43 148.99 105.2 149.08 104.94L147.69 104.79C147.75 109.37 149.18 107.18 149.13 104.72L147.74 104.57C147.82 104.36 147.85 104.42 147.76 104.43C147.7 104.47 147.63 104.51 147.57 104.54C147.39 104.63 147.21 104.7 147.02 104.75C146.63 104.88 146.24 104.99 145.77 105.08C144.9 105.26 144.02 105.41 143.12 105.55C141.34 105.78 139.54 105.91 137.76 106.03C134.15 106.21 130.52 106.1 126.93 105.67C125.14 105.45 123.36 105.12 121.61 104.68C119.85 104.26 118.13 103.66 116.5 102.88C114.87 102.12 113.4 101.04 112.19 99.71C110.97 98.34 110.18 96.65 109.91 94.84L109.9 94.85Z" fill="#492C19"/>
<path d="M116.38 102.78L113.29 112.89L113.68 113.58L117.77 103L116.38 102.78Z" fill="#492C19"/>
<path d="M121.57 104.7L118.45 121.15L119.43 121.62L123.13 104.85L121.57 104.7Z" fill="#492C19"/>
<path d="M129.66 106.09L127.23 122.47L128.59 122.31L131.42 105.93L129.66 106.09Z" fill="#492C19"/>
<path d="M137.37 106.4L136.98 118.91L137.95 118.6L138.51 106.36L137.37 106.4Z" fill="#492C19"/>
<path d="M144.19 106.24L144.29 113.27L145.26 112.58L145.17 106.01L144.19 106.24Z" fill="#492C19"/>
<path d="M116.63 71.33C116.63 71.33 126.12 69.64 129.17 70.16L127.6 65.53C127.6 65.53 120.64 67.67 116.63 71.32V71.33Z" fill="#221F20"/>
<path d="M167.28 143.09C167.28 143.09 158.39 139.3 125.18 135.14C107.65 132.95 98.9902 133.04 98.9902 133.04L100.85 153.46L160.08 162.48L167.28 143.09Z" fill="url(#paint27_linear_2011_14116)"/>
<path opacity="0.3" d="M100.85 153.4L104.27 153.98L105.73 154.2L105.66 144.1L99.9199 143.24L100.85 153.4Z" fill="white"/>
<path d="M149.98 160.79L160.08 162.48L167.28 143.09C167.28 143.09 164.52 141.91 156.32 140.15L149.98 160.79Z" fill="#5E5E5E"/>
<path d="M159.41 162.37L160.08 162.48L167.28 143.09C167.28 143.09 166.77 142.87 165.56 142.49L159.42 162.37H159.41Z" fill="url(#paint28_linear_2011_14116)"/>
<path d="M97.75 130.68C97.75 130.68 97.3 138.82 99.28 146.23L121.44 148.18L123.64 134.2L121.06 132.44C121.06 132.44 111.65 130.65 97.75 130.68Z" fill="url(#paint29_linear_2011_14116)"/>
<path d="M121.05 132.44C121.05 132.44 111.64 130.65 97.7402 130.68C97.7402 130.68 97.2902 138.82 99.2702 146.23L101.02 146.38C101.02 146.38 100.02 139.2 101.71 134.1C111.65 131.62 121.64 133.73 121.64 133.73L121.79 132.94L121.04 132.43L121.05 132.44Z" fill="url(#paint30_linear_2011_14116)"/>
<path d="M99.0198 145.21C99.0998 145.55 99.1798 145.89 99.2698 146.23L121.43 148.18L123.63 134.2L121.05 132.44L119.85 146.58L99.0098 145.21H99.0198Z" fill="#5E5E5E"/>
<path d="M123.86 133.11C123.86 133.11 121.57 140.67 121.66 148.2L148.84 153.23L153.02 138.56C153.02 138.56 141.06 134.22 123.86 133.1V133.11Z" fill="url(#paint31_linear_2011_14116)"/>
<path d="M150.82 137.86C146.61 136.58 136.7 133.95 123.86 133.11C123.86 133.11 121.57 140.67 121.66 148.2L123.03 148.45C123.03 148.45 123.43 142.61 125.87 135.95C137.78 135.03 150.61 138.72 150.61 138.72L150.82 137.85V137.86Z" fill="url(#paint32_linear_2011_14116)"/>
<path d="M146.18 150.9L121.67 146.8C121.66 147.27 121.65 147.74 121.67 148.21L148.85 153.24L153.03 138.57C153.03 138.57 151.91 138.16 149.86 137.57L146.19 150.9H146.18Z" fill="#5E5E5E"/>
<path d="M99.4702 147.65L163.19 156.48L161.11 162.58L98.9502 153.21L99.4702 147.65Z" fill="url(#paint33_linear_2011_14116)"/>
<mask id="mask3_2011_14116" style="mask-type:luminance" maskUnits="userSpaceOnUse" x="98" y="147" width="66" height="16">
<path d="M99.4702 147.65L163.19 156.48L161.11 162.58L98.9502 153.21L99.4702 147.65Z" fill="white"/>
</mask>
<g mask="url(#mask3_2011_14116)">
<path opacity="0.1" d="M102.63 155.5L98.6001 155.25L99.1401 146.83L103.77 147.23L102.63 155.5Z" fill="white"/>
<path opacity="0.1" d="M108.57 156.08L106.07 155.92L106.61 147.51L107.94 147.85L108.57 156.08Z" fill="white"/>
</g>
<path d="M190.45 98.11C190.45 98.11 202.38 83.73 195.78 59.56C192.88 48.92 178.79 24.15 145 26.4C136.32 26.98 116.59 36.96 116.59 36.96C115.08 36.67 111.45 48.83 111.73 49.57C111.73 49.57 131.13 45.6 145.22 52.89C158.08 59.55 174.42 78.93 182.38 107.13L190.45 98.11Z" fill="url(#paint34_radial_2011_14116)"/>
<path style="mix-blend-mode:multiply" opacity="0.35" d="M185.85 96.77C185.85 96.77 186.51 95.97 187.43 94.44C190.35 89.57 195.86 77.26 191.01 59.48C188.2 49.19 174.57 25.22 141.88 27.39C133.48 27.95 114.39 37.6 114.39 37.6C112.93 37.32 109.42 49.08 109.69 49.8C109.69 49.8 128.46 45.95 142.09 53.01C154.53 59.45 185.85 96.77 185.85 96.77Z" fill="url(#paint35_radial_2011_14116)"/>
<path d="M176.93 90.29L172.58 104.83L164.34 109.49L163.71 117.51C163.71 117.51 170.95 118.84 180.08 116.96C189.21 115.08 190.94 112.31 190.94 112.31C190.94 112.31 187.6 108.61 186.43 103.25C185.26 97.89 185.16 94.88 185.16 94.88L176.93 90.28V90.29Z" fill="url(#paint36_linear_2011_14116)"/>
<path style="mix-blend-mode:multiply" opacity="0.25" d="M187.23 111.75C187.23 111.75 184.46 107.74 183.21 101.99C182.02 96.54 181.86 93.36 181.85 93.04L176.93 90.29L172.58 104.83L164.34 109.49L163.77 116.72C179.01 117.9 187.24 111.76 187.24 111.76L187.23 111.75Z" fill="url(#paint37_linear_2011_14116)"/>
<path d="M172.58 104.82L164.34 109.48L163.71 117.5C163.71 117.5 164.15 117.58 164.93 117.67L165.76 110.1L173.63 106.29L178.63 91.54L176.81 90.7L172.58 104.82Z" fill="#454545"/>
<path d="M192.73 102.352C196.711 96.5296 197.376 90.0588 194.217 87.8987C191.057 85.7386 185.269 88.7072 181.289 94.5292C177.308 100.351 176.643 106.822 179.802 108.982C182.962 111.142 188.75 108.174 192.73 102.352Z" fill="#454545"/>
<path d="M181.41 98.49C181.41 98.49 165.36 74.2 137.94 64.8C113.31 56.35 108.36 62.46 108.36 62.46L105.04 61.2C105.04 61.2 105.62 51.4 109.35 39.74C122.92 28.49 140.55 23.12 153.53 20.64C177.46 39.53 187.3 70.97 190.07 91.02L181.4 98.5L181.41 98.49Z" fill="url(#paint38_linear_2011_14116)"/>
<path d="M192.73 102.355C196.711 96.5328 197.835 90.3754 195.241 88.6018C192.646 86.8282 187.317 90.1101 183.336 95.9321C179.356 101.754 178.232 107.912 180.826 109.685C183.42 111.459 188.75 108.177 192.73 102.355Z" fill="url(#paint39_radial_2011_14116)"/>
<mask id="mask4_2011_14116" style="mask-type:luminance" maskUnits="userSpaceOnUse" x="105" y="20" width="86" height="79">
<path d="M181.41 98.49C181.41 98.49 165.34 74.19 137.94 64.8C113 56.25 108.36 62.46 108.36 62.46L105.04 61.2C105.04 61.2 105.62 51.4 109.35 39.74C122.92 28.49 140.55 23.12 153.53 20.64C177.46 39.53 187.3 70.97 190.07 91.02L181.4 98.5L181.41 98.49Z" fill="white"/>
</mask>
<g mask="url(#mask4_2011_14116)">
<g style="mix-blend-mode:multiply">
<path d="M104.08 63.35C104.08 63.35 105.35 52.36 130.89 59.39C156.44 66.42 172.21 82.59 183.01 97.1L177.78 102.41L104.07 63.35H104.08Z" fill="#B2B2B2"/>
</g>
</g>
<path d="M111.41 40.73L109.37 53.17C110.55 52.85 111.94 52.57 113.55 52.38L117.05 37.32C114.33 38.76 112.53 39.92 111.4 40.73H111.41Z" fill="#666666"/>
<path d="M128.42 32.1C126.28 32.97 124.39 33.79 122.69 34.56L118.11 52.12C119.75 52.12 121.54 52.23 123.49 52.47L129.2 31.79C128.94 31.89 128.68 31.99 128.42 32.1Z" fill="#666666"/>
<path d="M134.72 54.99L145.1 27.28C142.85 27.63 139.87 28.25 136.26 29.34L128.74 53.39C130.62 53.8 132.61 54.33 134.72 55V54.99Z" fill="#666666"/>
<path d="M173.53 53.31C172.33 51.47 170.97 49.52 169.43 47.45C168.73 46.52 168.06 45.64 167.39 44.78L154.53 63.86C157.22 65.43 159.62 67.01 161.73 68.51L173.53 53.3V53.31Z" fill="#666666"/>
<g style="mix-blend-mode:multiply" opacity="0.5">
<path d="M170.59 53.1C170.13 52.47 169.65 51.83 169.15 51.17C168.02 49.7 166.92 48.34 165.84 47.08L154.53 63.86C156.6 65.07 158.51 66.29 160.24 67.47L170.59 53.1Z" fill="#666666"/>
</g>
<path d="M180.76 66.75C180.04 64.98 178.96 62.6 177.37 59.7L166.63 72.27C168.57 73.87 170.09 75.27 171.2 76.36L180.76 66.75Z" fill="#666666"/>
<path d="M153.33 29.41L140.13 56.91C143.6 58.26 146.79 59.72 149.72 61.22L162.68 39C158.67 34.33 155.5 31.28 153.33 29.4V29.41Z" fill="#666666"/>
<g style="mix-blend-mode:multiply" opacity="0.5">
<path d="M120.24 52.19C121.27 52.25 122.35 52.34 123.49 52.47L128.2 35.4C126.69 35.91 125.25 36.45 123.9 37.01L120.24 52.18V52.19Z" fill="#666666"/>
</g>
<g style="mix-blend-mode:multiply" opacity="0.5">
<path d="M134.72 54.99L143.07 32.69C141.15 32.72 139.24 32.88 137.38 33.16L131.14 53.97C132.29 54.27 133.48 54.61 134.71 55L134.72 54.99Z" fill="#666666"/>
</g>
<g style="mix-blend-mode:multiply" opacity="0.5">
<path d="M116.26 40.73C113.74 42.14 112.27 43.17 112.27 43.17L110.81 52.83C111.64 52.65 112.55 52.5 113.55 52.38L116.26 40.73Z" fill="#666666"/>
</g>
<g style="mix-blend-mode:multiply" opacity="0.5">
<path d="M149.72 61.23L161.03 41.85C157.1 37.87 154.39 35.85 154.39 35.85L142.69 57.96C145.19 59.01 147.53 60.11 149.72 61.24V61.23Z" fill="#666666"/>
</g>
<g style="mix-blend-mode:multiply" opacity="0.5">
<path d="M166.64 72.27C167.92 73.32 169.01 74.29 169.93 75.14L178.48 66.07C178.48 66.07 177.67 64.26 175.98 61.34L166.64 72.27Z" fill="#666666"/>
</g>
<path d="M109.31 39.68C121.89 29.37 137.54 23.13 153.52 20.52C163.78 29.05 172.39 39.77 178.42 51.73C184.36 63.59 188.32 77.05 189.84 89.97C187.34 76.94 183.61 64.01 177.42 52.24C174.4 46.36 170.76 40.8 166.6 35.68C162.42 30.57 157.86 25.78 152.85 21.46L153.71 21.7C137.8 24.06 122.21 30.42 109.32 39.69L109.31 39.68Z" fill="white"/>
<path d="M104.96 61.16C109.25 55.34 121.01 57.12 127.28 58.1C142.6 60.99 156.88 68.73 168.33 79.21C174.01 84.48 179.06 90.45 183.07 97.06L182.94 97.15C178.46 90.92 173.29 85.19 167.49 80.16C155.93 70.14 142.01 62.6 127.02 59.3C120.58 58.13 113.46 56.71 107.25 59.44C106.42 59.88 105.59 60.43 105.1 61.22L104.95 61.15L104.96 61.16Z" fill="#5E5E5E"/>
<path d="M153.52 77.56C153.52 77.56 147.33 69.18 145.06 68.39L148.67 66.34C148.67 66.34 152.75 73.81 153.53 77.55L153.52 77.56Z" fill="#221F20"/>
<path d="M190.53 58.2488C191.816 57.6352 191.786 54.8911 190.464 52.1197C189.141 49.3484 187.027 47.5993 185.741 48.2129C184.455 48.8266 184.484 51.5707 185.807 54.342C187.129 57.1133 189.244 58.8625 190.53 58.2488Z" fill="white"/>
<path d="M192.602 67.4804C193.288 67.3365 193.592 66.0148 193.281 64.5283C192.969 63.0419 192.16 61.9535 191.473 62.0974C190.787 62.2413 190.483 63.563 190.795 65.0495C191.106 66.536 191.915 67.6243 192.602 67.4804Z" fill="white"/>
<path d="M194.585 94.5757C195.026 93.1224 194.839 91.7791 194.168 91.5754C193.497 91.3718 192.595 92.3848 192.154 93.8382C191.713 95.2915 191.9 96.6348 192.571 96.8385C193.242 97.0421 194.144 96.0291 194.585 94.5757Z" fill="white"/>
<path d="M191.979 100.865C192.344 100.109 192.274 99.3188 191.822 99.1C191.369 98.8812 190.706 99.3165 190.341 100.072C189.975 100.828 190.045 101.618 190.498 101.837C190.95 102.056 191.613 101.62 191.979 100.865Z" fill="white"/>
<path d="M187.648 127.722C187.924 121.239 183.044 115.765 176.748 115.497C170.452 115.229 165.125 120.267 164.848 126.751C164.572 133.234 169.452 138.707 175.748 138.976C182.044 139.244 187.371 134.206 187.648 127.722Z" fill="url(#paint40_radial_2011_14116)"/>
<path opacity="0.15" d="M182.92 123.6C182.99 123.47 183.06 123.36 183.15 123.26C183.79 122.51 184.42 121.85 185.13 121.31L185.66 120.55C183.7 117.62 180.48 115.64 176.76 115.48C172.12 115.28 168.01 117.97 166.06 121.99C166.06 121.99 170.52 116.78 176.24 119.84C180.27 122 181.65 123.83 182.12 124.73C182.36 124.36 182.63 123.98 182.95 123.58L182.92 123.6Z" fill="white"/>
<path d="M175.031 119.27C176.508 118.998 177.583 118.112 177.432 117.292C177.28 116.471 175.96 116.028 174.483 116.3C173.006 116.573 171.931 117.459 172.082 118.279C172.234 119.099 173.554 119.543 175.031 119.27Z" fill="white"/>
<path d="M181.384 118.777C181.471 118.36 180.946 117.898 180.211 117.743C179.476 117.589 178.809 117.801 178.722 118.217C178.634 118.633 179.159 119.096 179.894 119.25C180.629 119.405 181.296 119.193 181.384 118.777Z" fill="white"/>
<path opacity="0.5" d="M182.25 129.89C183.03 131.33 183.68 135.63 180.83 137.93C180.83 137.93 180.89 137.92 181.01 137.9C184.76 136.11 187.44 132.27 187.64 127.72C187.75 125.19 187.07 122.81 185.82 120.83C184.81 121.44 183.99 122.27 183.14 123.26C181.94 124.66 182.25 129.89 182.25 129.89Z" fill="url(#paint41_linear_2011_14116)"/>
<path d="M184.54 121.88C184.54 121.88 189.02 122.24 192.85 121.65L192.93 128.17C192.93 128.17 188.41 129.12 182.72 131.55C182.72 131.55 182.41 129.83 180.68 128.02C180.68 128.02 181.14 124.98 184.54 121.88Z" fill="#364073"/>
<path d="M187.46 128.28C187.46 128.28 188 126.88 187.41 127.09C186.82 127.3 185.36 128.35 185.36 128.35C185.36 128.35 185.99 125.1 185.59 124.82C185.19 124.54 183.43 127.33 183.43 127.33C183.43 127.33 183.14 127.01 184.28 124.73C184.85 123.59 185.51 122.64 186.01 121.97C185.1 121.94 184.53 121.89 184.53 121.89C181.13 124.98 180.67 128.03 180.67 128.03C182.4 129.84 182.71 131.56 182.71 131.56C188.4 129.13 192.92 128.18 192.92 128.18L192.9 126.19L187.45 128.28H187.46Z" fill="#2A3157"/>
<path d="M200.821 127.88C202.405 124.034 201.384 119.967 198.539 118.796C195.695 117.624 192.105 119.791 190.521 123.636C188.937 127.482 189.959 131.549 192.803 132.72C195.647 133.892 199.237 131.725 200.821 127.88Z" fill="url(#paint42_radial_2011_14116)"/>
<path style="mix-blend-mode:multiply" opacity="0.3" d="M194.48 130.7C192.04 129.73 191.16 126.4 192.5 123.26C193.78 120.27 196.61 118.54 198.98 119.2C201.4 120.42 202.28 123.88 201.06 127.31C199.61 130.1 196.77 131.6 194.48 130.69V130.7Z" fill="url(#paint43_radial_2011_14116)"/>
<g opacity="0.4">
<path d="M201.09 127.34C199.44 132.47 192.33 133.49 191.16 127.48C190.33 123.16 194.38 117.55 198.99 119.17C194.8 118.49 191.3 123.28 192.06 127.32C192.34 129.37 194.13 131.14 196.28 130.88C198.35 130.65 200.06 129.1 201.01 127.3L201.09 127.34Z" fill="#5E5E5E"/>
</g>
<path d="M205.77 117.3C205.61 119.34 204.99 119.52 203.75 119.72C202.51 119.92 197.85 120.22 197.85 120.22C197.85 120.22 194.61 121.93 196.16 125.38C197.72 128.82 200.28 127.55 200.28 127.55C200.28 127.55 205.56 126.14 210.37 123.44L208.69 116.64L205.77 117.3Z" fill="url(#paint44_linear_2011_14116)"/>
<path d="M209.34 123.99C204.84 126.33 200.28 127.55 200.28 127.55C200.28 127.55 198.12 128.62 196.56 126.13C198.54 126.02 203.44 125.42 208.89 122.38L209.34 124V123.99Z" fill="url(#paint45_linear_2011_14116)"/>
<path d="M207.06 119.49L199.83 122.08L207.54 120.31L207.06 119.49Z" fill="#5E5E5E"/>
<path d="M211.68 124.97C210.85 124.74 207.87 124.1 206.45 121.89C205.39 120.05 205.02 117.44 206.23 115.65C207.77 113.37 220.89 111.26 217.54 115.13C217.45 115.33 217.53 115.56 217.71 115.69C218.39 116.17 219.82 116.94 218.58 118.53C218.41 118.75 218.49 119.06 218.75 119.18C220.36 119.9 220.28 121.69 219.01 122.78C218.03 123.38 214.41 125.67 211.68 124.97Z" fill="#A86335"/>
<path d="M217.19 121.28C215.77 121.92 214.13 122.12 212.55 121.8C210.99 121.25 209.73 121.12 208.82 122.69C209.17 120.63 211.01 120.45 212.71 121.04C214.17 121.36 215.67 121.33 217.18 121.28H217.19Z" fill="#7C4A28"/>
<path d="M209.52 114.37L209.79 118.23L214.85 121.37L216.74 121.68L216.65 117.71L215.52 114.59L210.25 113.91L209.52 114.37Z" fill="#7C4A28"/>
<path d="M210.26 118.76C210.26 118.76 210.7 121.72 209.52 123.93C208.72 125.43 207.04 126.69 206.05 127.34C205.63 127.62 205.51 128.17 205.78 128.6C207 130.48 210.08 135.49 211.78 140.64C213.93 147.16 215.25 154.28 215.62 156.42C215.68 156.78 216.02 157.03 216.38 157C216.75 156.96 217.02 156.65 217.01 156.28C216.93 154.02 216.77 146.27 217.87 139.46C218.77 133.93 220.41 129.64 221.17 127.84C221.39 127.33 221.17 126.75 220.69 126.48C218.97 125.55 215.31 123.01 214.63 117.86L210.25 118.76H210.26Z" fill="url(#paint46_radial_2011_14116)"/>
<mask id="mask5_2011_14116" style="mask-type:luminance" maskUnits="userSpaceOnUse" x="205" y="113" width="17" height="44">
<path d="M209.45 113.5C209.77 115.06 210.12 122.79 209.52 123.92C208.72 125.42 207.04 126.68 206.05 127.33C205.63 127.61 205.51 128.16 205.78 128.59C207 130.47 210.08 135.48 211.78 140.63C213.93 147.15 215.25 154.27 215.62 156.41C215.68 156.77 216.02 157.02 216.38 156.99C216.75 156.95 217.02 156.64 217.01 156.27C216.93 154.01 216.77 146.26 217.87 139.45C218.77 133.92 220.41 129.63 221.17 127.83C221.39 127.32 221.17 126.74 220.69 126.47C219.3 125.72 214.95 123.22 213.77 113.63C213.82 113.81 210.69 113.81 209.44 113.5H209.45Z" fill="white"/>
</mask>
<g mask="url(#mask5_2011_14116)">
<path d="M201.51 130.15C201.51 130.15 208.15 133.67 215.19 132.7C222.23 131.74 226.9 128.5 226.9 128.5L226.44 125.09C226.44 125.09 222.2 128.13 214.71 129.18C207.22 130.23 201.94 126.47 201.94 126.47L201.52 130.14L201.51 130.15Z" fill="url(#paint47_linear_2011_14116)"/>
<path opacity="0.3" d="M210.38 129.29C210.91 129.34 211.46 129.37 212.03 129.37L213.58 139.54L210.38 129.29Z" fill="white"/>
<path d="M199.17 116.33C199.17 116.33 205.07 111.9 212.11 110.93C219.15 109.97 224.56 114.68 224.56 114.68L226.44 125.09C226.44 125.09 222.2 128.13 214.71 129.18C207.22 130.23 201.94 126.47 201.94 126.47L199.18 116.32L199.17 116.33Z" fill="url(#paint48_linear_2011_14116)"/>
<path opacity="0.3" d="M202.93 127.07C204.1 127.71 206.25 128.68 209.07 129.13C209.89 130.91 211.9 135.69 213.9 143.51C216.05 151.91 216.37 162.35 216.37 162.35L202.93 127.08V127.07Z" fill="white"/>
<g style="mix-blend-mode:multiply" opacity="0.2">
<path d="M218.3 128.48C223.36 127.22 226.24 125.23 226.43 125.1L230.45 124.23L217.18 159.27C215.02 148.28 217.08 134.22 218.3 128.48Z" fill="#595959"/>
</g>
</g>
<path d="M216.38 156.97C216.8 156.94 217.07 156.5 216.98 156.09L216.95 154.85C216.92 152.44 216.93 149.82 217.05 147.42C217.32 140.82 218.48 134.22 221.03 128.11C221.22 127.74 221.32 127.32 221.12 126.95C220.95 126.57 220.52 126.44 220.18 126.21C218.08 124.88 216.46 122.85 215.55 120.54C216.29 121.9 217.19 123.43 218.42 124.49C219.16 125.19 219.97 125.79 220.87 126.25C221.59 126.63 221.74 127.56 221.36 128.24C218.29 135.9 217.38 144.17 217.17 152.37L217.09 154.84L217.07 156.08C217.15 156.5 216.83 157.01 216.38 157.01V156.96V156.97Z" fill="#5E5E5E"/>
<path d="M206.06 127.35C205.37 127.84 205.72 128.53 206.12 129.07C207.2 130.77 208.2 132.52 209.12 134.31C212.68 141.18 214.22 148.9 215.65 156.45C215.72 156.77 216.05 157.01 216.38 156.97V157.02C216.04 157.08 215.66 156.84 215.56 156.48C213.75 149.03 212.21 141.4 208.8 134.48C207.94 132.67 206.97 130.9 205.99 129.15C205.85 128.86 205.59 128.59 205.56 128.21C205.48 127.87 205.91 127.23 206.05 127.36L206.06 127.35Z" fill="white"/>
<path d="M209.29 112.04C209.29 112.04 208.82 109.36 205.74 106.11C203.11 103.33 200.57 101.9 199.34 101.31C198.89 101.09 198.64 100.6 198.73 100.11C199.55 95.81 202.96 76.01 201.91 50.99C201.05 30.45 199.1 7.97 198.79 4.47C198.77 4.19 198.92 3.92 199.18 3.8C199.6 3.61 200.08 3.88 200.13 4.33C200.7 9.19 203.49 32.35 207.37 50.86C210.98 68.05 219.22 93.25 220.79 97.99C220.94 98.45 220.79 98.95 220.4 99.23C218.45 100.66 213.28 106.76 213.81 113.35L209.29 112.04Z" fill="url(#paint49_radial_2011_14116)"/>
<mask id="mask6_2011_14116" style="mask-type:luminance" maskUnits="userSpaceOnUse" x="198" y="3" width="23" height="111">
<path d="M209.41 112.36C209.41 112.36 208.83 109.36 205.75 106.11C203.12 103.33 200.58 101.9 199.35 101.31C198.9 101.09 198.65 100.6 198.74 100.11C199.56 95.81 202.97 76.01 201.92 50.99C201.06 30.45 199.11 7.97 198.8 4.47C198.78 4.19 198.93 3.92 199.19 3.8C199.61 3.61 200.09 3.88 200.14 4.33C200.71 9.19 203.5 32.35 207.38 50.86C210.99 68.05 219.23 93.25 220.8 97.99C220.95 98.45 220.8 98.95 220.41 99.23C218.46 100.66 213.06 106.46 214.03 113.27L209.41 112.37V112.36Z" fill="white"/>
</mask>
<g mask="url(#mask6_2011_14116)">
<path d="M198.149 100.66C198.149 100.66 204.389 103.47 210.139 102.71C217.259 101.76 221.209 98.68 221.209 98.68L215.669 111.91L205.049 113.46L198.149 100.67V100.66Z" fill="url(#paint50_linear_2011_14116)"/>
<path d="M197.149 100.31C197.149 100.31 203.869 103.67 210.879 102.54C217.889 101.41 222.489 98.07 222.489 98.07L221.949 94.68C221.949 94.68 217.779 97.82 210.319 99.04C202.859 100.26 197.489 96.63 197.489 96.63L197.159 100.31H197.149Z" fill="url(#paint51_linear_2011_14116)"/>
<path opacity="0.3" d="M198.15 100.66L195.39 0L199.05 1.38C199.05 1.38 201.84 22.34 203.38 51.76C204.59 74.83 203.92 93.54 203.44 102.31C200.4 101.67 198.14 100.65 198.14 100.65L198.15 100.66Z" fill="white"/>
<g style="mix-blend-mode:multiply" opacity="0.2">
<path d="M221.209 98.67C221.209 98.67 220.199 99.46 218.289 100.35C216.599 93.54 210.299 68.01 206.909 52.1C202.969 33.62 199.709 2.99 199.709 2.99L201.799 2.35L221.199 98.66L221.209 98.67Z" fill="#595959"/>
</g>
</g>
<path d="M200.16 4.32C202.09 20.22 204.33 36.1 207.64 51.77C211.11 67.41 215.89 82.73 220.82 97.96L220.76 97.98C215.43 82.86 210.68 67.53 207.04 51.9C203.95 36.21 201.49 20.14 200.16 4.32Z" fill="#5E5E5E"/>
<path d="M198.7 100.1C200.5 88.26 201.26 76.28 201.46 64.31C201.5 45.64 199.69 23.27 198.76 4.47H198.84C201.34 36.18 204.85 68.75 198.7 100.11V100.1Z" fill="white"/>
<path opacity="0.3" d="M205.55 102.67L204.99 66.83L207.8 102.83C207.04 102.82 206.28 102.76 205.55 102.67Z" fill="white"/>
<path d="M213.06 113.21L213.01 113.16C212.37 112.55 212.35 111.54 212.97 110.92L214.17 109.71C214.79 109.09 215.8 109.08 216.44 109.7L216.49 109.75C217.13 110.36 217.15 111.37 216.53 111.99L215.33 113.2C214.71 113.82 213.7 113.83 213.06 113.21Z" fill="#C47B43"/>
<path d="M214.04 116.07L214 116.02C213.44 115.34 213.54 114.34 214.22 113.8L215.56 112.73C216.25 112.18 217.26 112.29 217.82 112.98L217.86 113.03C218.42 113.71 218.32 114.71 217.64 115.25L216.3 116.32C215.61 116.87 214.6 116.76 214.04 116.07Z" fill="#C47B43"/>
<path d="M214.48 119.09L214.45 119.03C214.05 118.25 214.37 117.3 215.16 116.91L216.71 116.16C217.5 115.77 218.47 116.1 218.87 116.88L218.9 116.94C219.3 117.72 218.98 118.67 218.19 119.06L216.64 119.81C215.85 120.2 214.88 119.87 214.48 119.09Z" fill="#C47B43"/>
<path d="M215.2 121.94L215.18 121.87C214.95 121.02 215.45 120.16 216.31 119.94L217.98 119.51C218.84 119.29 219.72 119.8 219.95 120.65L219.97 120.72C220.2 121.57 219.7 122.43 218.84 122.65L217.17 123.08C216.31 123.3 215.43 122.79 215.2 121.94Z" fill="#C47B43"/>
<path d="M206.26 115.85C206.26 115.85 207.45 113.82 207.58 112.56C207.71 111.3 209.64 110.94 211.15 111.64C212.42 112.23 213.99 113.11 214.75 113.54C215.03 113.7 215.14 114.03 215.01 114.32C214.71 114.98 214.04 115.99 212.9 115.55C210.77 114.72 210.01 114.95 210.01 114.95C210.01 114.95 210.72 118.64 209.63 119.48C208.54 120.33 204.9 120.84 206.26 115.84V115.85Z" fill="url(#paint52_linear_2011_14116)"/>
<path d="M214.75 113.55C214.33 113.31 213.67 112.94 212.94 112.55C213.86 113.17 214.8 113.85 214.76 114.04C214.68 114.41 214.26 115.58 213.39 115.42C212.56 115.27 211.18 114.74 210.16 114.93C210.47 114.9 211.3 114.93 212.9 115.55C214.03 116 214.7 114.98 215.01 114.32C215.14 114.04 215.03 113.7 214.75 113.54V113.55Z" fill="#A86335"/>
<defs>
<filter id="filter0_f_2011_14116" x="71" y="188" width="107" height="15" filterUnits="userSpaceOnUse" color-interpolation-filters="sRGB">
<feFlood flood-opacity="0" result="BackgroundImageFix"/>
<feBlend mode="normal" in="SourceGraphic" in2="BackgroundImageFix" result="shape"/>
<feGaussianBlur stdDeviation="2" result="effect1_foregroundBlur_2011_14116"/>
</filter>
<linearGradient id="paint0_linear_2011_14116" x1="106.552" y1="170.451" x2="109.761" y2="145.864" gradientUnits="userSpaceOnUse">
<stop offset="0.25" stop-color="#B2B2B2"/>
<stop offset="0.95" stop-color="#666666"/>
</linearGradient>
<linearGradient id="paint1_linear_2011_14116" x1="102.177" y1="182.623" x2="105.722" y2="183.683" gradientUnits="userSpaceOnUse">
<stop offset="0.42" stop-color="#454545"/>
<stop offset="0.85"/>
</linearGradient>
<linearGradient id="paint2_linear_2011_14116" x1="89.0817" y1="188.511" x2="115.816" y2="189.678" gradientUnits="userSpaceOnUse">
<stop offset="0.29" stop-color="#B2B2B2"/>
<stop offset="0.42" stop-color="#A8A8A8"/>
<stop offset="0.63" stop-color="#8D8D8D"/>
<stop offset="0.89" stop-color="#666666"/>
</linearGradient>
<linearGradient id="paint3_linear_2011_14116" x1="90.1335" y1="188.257" x2="114.99" y2="189.342" gradientUnits="userSpaceOnUse">
<stop stop-color="#B2B2B2"/>
<stop offset="0.21" stop-color="#A8A8A8"/>
<stop offset="0.57" stop-color="#8D8D8D"/>
<stop offset="1" stop-color="#666666"/>
</linearGradient>
<linearGradient id="paint4_linear_2011_14116" x1="113.006" y1="208.213" x2="97.1672" y2="174.328" gradientUnits="userSpaceOnUse">
<stop offset="0.11" stop-color="#666666"/>
<stop offset="0.37" stop-color="#8D8D8D"/>
<stop offset="0.58" stop-color="#A8A8A8"/>
<stop offset="0.71" stop-color="#B2B2B2"/>
</linearGradient>
<linearGradient id="paint5_linear_2011_14116" x1="109.295" y1="206.179" x2="95.4304" y2="176.525" gradientUnits="userSpaceOnUse">
<stop offset="0.11" stop-color="#666666"/>
<stop offset="0.37" stop-color="#8D8D8D"/>
<stop offset="0.58" stop-color="#A8A8A8"/>
<stop offset="0.71" stop-color="#B2B2B2"/>
</linearGradient>
<linearGradient id="paint6_linear_2011_14116" x1="103.57" y1="177.223" x2="118.238" y2="180.809" gradientUnits="userSpaceOnUse">
<stop offset="0.25" stop-color="#B2B2B2"/>
<stop offset="0.64" stop-color="#898989"/>
<stop offset="0.95" stop-color="#666666"/>
</linearGradient>
<radialGradient id="paint7_radial_2011_14116" cx="0" cy="0" r="1" gradientUnits="userSpaceOnUse" gradientTransform="translate(-10.7719 136.077) rotate(-170.39) scale(4.02001 5.04)">
<stop offset="0.2" stop-color="#B2B2B2"/>
<stop offset="0.36" stop-color="#ACACAC"/>
<stop offset="0.57" stop-color="#9D9D9D"/>
<stop offset="0.79" stop-color="#848484"/>
<stop offset="1" stop-color="#666666"/>
</radialGradient>
<linearGradient id="paint8_linear_2011_14116" x1="150.916" y1="185.139" x2="145.765" y2="184.66" gradientUnits="userSpaceOnUse">
<stop offset="0.42" stop-color="#454545"/>
<stop offset="0.85"/>
</linearGradient>
<linearGradient id="paint9_linear_2011_14116" x1="159.413" y1="189.58" x2="132.662" y2="190.575" gradientUnits="userSpaceOnUse">
<stop offset="0.29" stop-color="#B2B2B2"/>
<stop offset="0.42" stop-color="#A8A8A8"/>
<stop offset="0.63" stop-color="#8D8D8D"/>
<stop offset="0.89" stop-color="#666666"/>
</linearGradient>
<linearGradient id="paint10_linear_2011_14116" x1="158.353" y1="189.309" x2="133.49" y2="190.234" gradientUnits="userSpaceOnUse">
<stop stop-color="#B2B2B2"/>
<stop offset="0.21" stop-color="#A8A8A8"/>
<stop offset="0.57" stop-color="#8D8D8D"/>
<stop offset="1" stop-color="#666666"/>
</linearGradient>
<linearGradient id="paint11_linear_2011_14116" x1="135.585" y1="209.273" x2="151.629" y2="175.496" gradientUnits="userSpaceOnUse">
<stop offset="0.11" stop-color="#666666"/>
<stop offset="0.37" stop-color="#8D8D8D"/>
<stop offset="0.58" stop-color="#A8A8A8"/>
<stop offset="0.71" stop-color="#B2B2B2"/>
</linearGradient>
<linearGradient id="paint12_linear_2011_14116" x1="139.309" y1="207.263" x2="153.351" y2="177.705" gradientUnits="userSpaceOnUse">
<stop offset="0.11" stop-color="#666666"/>
<stop offset="0.37" stop-color="#8D8D8D"/>
<stop offset="0.58" stop-color="#A8A8A8"/>
<stop offset="0.71" stop-color="#B2B2B2"/>
</linearGradient>
<linearGradient id="paint13_linear_2011_14116" x1="149.017" y1="179.67" x2="133.379" y2="177.414" gradientUnits="userSpaceOnUse">
<stop offset="0.25" stop-color="#B2B2B2"/>
<stop offset="0.64" stop-color="#898989"/>
<stop offset="0.95" stop-color="#666666"/>
</linearGradient>
<radialGradient id="paint14_radial_2011_14116" cx="0" cy="0" r="1" gradientUnits="userSpaceOnUse" gradientTransform="translate(100.355 158.858) rotate(11.02) scale(4.13999 4.8)">
<stop offset="0.2" stop-color="#B2B2B2"/>
<stop offset="0.36" stop-color="#ACACAC"/>
<stop offset="0.57" stop-color="#9D9D9D"/>
<stop offset="0.79" stop-color="#848484"/>
<stop offset="1" stop-color="#666666"/>
</radialGradient>
<linearGradient id="paint15_linear_2011_14116" x1="148.326" y1="176.049" x2="154.732" y2="154.406" gradientUnits="userSpaceOnUse">
<stop offset="0.25" stop-color="#B2B2B2"/>
<stop offset="0.95" stop-color="#666666"/>
</linearGradient>
<linearGradient id="paint16_linear_2011_14116" x1="156.107" y1="160.223" x2="156.017" y2="173.456" gradientUnits="userSpaceOnUse">
<stop offset="0.09" stop-color="white" stop-opacity="0"/>
<stop offset="0.25" stop-color="white" stop-opacity="0.07"/>
<stop offset="0.56" stop-color="white" stop-opacity="0.25"/>
<stop offset="0.81" stop-color="white" stop-opacity="0.4"/>
</linearGradient>
<radialGradient id="paint17_radial_2011_14116" cx="0" cy="0" r="1" gradientUnits="userSpaceOnUse" gradientTransform="translate(98.4139 105.209) rotate(-152.44) scale(14.3487 12.8079)">
<stop offset="0.06" stop-color="#B2B2B2"/>
<stop offset="0.26" stop-color="#ACACAC"/>
<stop offset="0.49" stop-color="#9D9D9D"/>
<stop offset="0.75" stop-color="#848484"/>
<stop offset="1" stop-color="#666666"/>
</radialGradient>
<linearGradient id="paint18_linear_2011_14116" x1="97.2885" y1="112.924" x2="90.3692" y2="104.219" gradientUnits="userSpaceOnUse">
<stop offset="0.46" stop-color="#1A1A1A"/>
<stop offset="0.74" stop-color="#2B2B2B"/>
<stop offset="0.85" stop-color="#333333"/>
</linearGradient>
<radialGradient id="paint19_radial_2011_14116" cx="0" cy="0" r="1" gradientUnits="userSpaceOnUse" gradientTransform="translate(88.3155 103.93) rotate(-172.39) scale(9.3367 10.8715)">
<stop stop-color="#B2B2B2"/>
<stop offset="0.21" stop-color="#ACACAC"/>
<stop offset="0.46" stop-color="#9D9D9D"/>
<stop offset="0.73" stop-color="#848484"/>
<stop offset="1" stop-color="#666666"/>
</radialGradient>
<radialGradient id="paint20_radial_2011_14116" cx="0" cy="0" r="1" gradientUnits="userSpaceOnUse" gradientTransform="translate(79.7512 101.54) rotate(145.19) scale(4.8597 6.4128)">
<stop offset="0.06" stop-color="#B2B2B2"/>
<stop offset="0.26" stop-color="#ACACAC"/>
<stop offset="0.49" stop-color="#9D9D9D"/>
<stop offset="0.75" stop-color="#848484"/>
<stop offset="1" stop-color="#666666"/>
</radialGradient>
<linearGradient id="paint21_linear_2011_14116" x1="84.8467" y1="98.784" x2="76.5398" y2="87.9224" gradientUnits="userSpaceOnUse">
<stop stop-color="#B2B2B2"/>
<stop offset="0.22" stop-color="#A6A6A6"/>
<stop offset="0.62" stop-color="#888888"/>
<stop offset="1" stop-color="#666666"/>
</linearGradient>
<linearGradient id="paint22_linear_2011_14116" x1="75.3486" y1="89.8709" x2="81.628" y2="98.9024" gradientUnits="userSpaceOnUse">
<stop offset="0.04" stop-color="white" stop-opacity="0.4"/>
<stop offset="0.37" stop-color="white" stop-opacity="0.25"/>
<stop offset="0.79" stop-color="white" stop-opacity="0.07"/>
<stop offset="1" stop-color="white" stop-opacity="0"/>
</linearGradient>
<linearGradient id="paint23_linear_2011_14116" x1="51.9535" y1="49.2847" x2="36.0695" y2="88.6186" gradientUnits="userSpaceOnUse">
<stop offset="0.32" stop-color="#F8E84E"/>
<stop offset="0.44" stop-color="#F6E14C"/>
<stop offset="0.6" stop-color="#F3CF49"/>
<stop offset="0.79" stop-color="#EDB143"/>
<stop offset="0.95" stop-color="#E7923D"/>
</linearGradient>
<linearGradient id="paint24_linear_2011_14116" x1="77.9175" y1="88.4373" x2="77.6367" y2="78.9913" gradientUnits="userSpaceOnUse">
<stop stop-color="#A86335"/>
<stop offset="0.88" stop-color="#BA7642"/>
</linearGradient>
<linearGradient id="paint25_linear_2011_14116" x1="187.83" y1="112.654" x2="153.072" y2="109.742" gradientUnits="userSpaceOnUse">
<stop stop-color="#824829"/>
<stop offset="1" stop-color="#391A11"/>
</linearGradient>
<linearGradient id="paint26_linear_2011_14116" x1="113.16" y1="111.67" x2="147.58" y2="111.67" gradientUnits="userSpaceOnUse">
<stop offset="0.42" stop-color="white"/>
<stop offset="0.59" stop-color="#FBFBFB"/>
<stop offset="0.73" stop-color="#F0F0F0"/>
<stop offset="0.86" stop-color="#DFDEDE"/>
<stop offset="0.98" stop-color="#C7C6C6"/>
<stop offset="1" stop-color="#C3C2C2"/>
</linearGradient>
<linearGradient id="paint27_linear_2011_14116" x1="90.8978" y1="135.748" x2="175.172" y2="160.121" gradientUnits="userSpaceOnUse">
<stop offset="0.19" stop-color="#B2B2B2"/>
<stop offset="0.3" stop-color="#A4A4A4"/>
<stop offset="0.71" stop-color="#777777"/>
<stop offset="0.91" stop-color="#666666"/>
</linearGradient>
<linearGradient id="paint28_linear_2011_14116" x1="159.755" y1="152.379" x2="166.88" y2="152.651" gradientUnits="userSpaceOnUse">
<stop offset="0.09" stop-color="white" stop-opacity="0"/>
<stop offset="0.25" stop-color="white" stop-opacity="0.07"/>
<stop offset="0.56" stop-color="white" stop-opacity="0.25"/>
<stop offset="0.81" stop-color="white" stop-opacity="0.4"/>
</linearGradient>
<linearGradient id="paint29_linear_2011_14116" x1="93.7432" y1="134.098" x2="139.854" y2="147.402" gradientUnits="userSpaceOnUse">
<stop offset="0.25" stop-color="#B2B2B2"/>
<stop offset="0.95" stop-color="#666666"/>
</linearGradient>
<linearGradient id="paint30_linear_2011_14116" x1="109.778" y1="130.853" x2="109.093" y2="148.85" gradientUnits="userSpaceOnUse">
<stop offset="0.19" stop-color="white" stop-opacity="0.4"/>
<stop offset="0.31" stop-color="white" stop-opacity="0.35"/>
<stop offset="0.77" stop-color="white" stop-opacity="0.17"/>
<stop offset="1" stop-color="white" stop-opacity="0.1"/>
</linearGradient>
<linearGradient id="paint31_linear_2011_14116" x1="119.227" y1="138.127" x2="155.693" y2="148.672" gradientUnits="userSpaceOnUse">
<stop offset="0.19" stop-color="#B2B2B2"/>
<stop offset="1" stop-color="#666666"/>
</linearGradient>
<linearGradient id="paint32_linear_2011_14116" x1="137.099" y1="133.944" x2="135.197" y2="150.274" gradientUnits="userSpaceOnUse">
<stop offset="0.04" stop-color="white" stop-opacity="0.4"/>
<stop offset="0.37" stop-color="white" stop-opacity="0.25"/>
<stop offset="0.79" stop-color="white" stop-opacity="0.07"/>
<stop offset="1" stop-color="white" stop-opacity="0"/>
</linearGradient>
<linearGradient id="paint33_linear_2011_14116" x1="98.8821" y1="153.925" x2="163.156" y2="156.372" gradientUnits="userSpaceOnUse">
<stop offset="0.42" stop-color="#454545"/>
<stop offset="0.85"/>
</linearGradient>
<radialGradient id="paint34_radial_2011_14116" cx="0" cy="0" r="1" gradientUnits="userSpaceOnUse" gradientTransform="translate(196.972 44.5613) rotate(53.32) scale(66.77 30.7142)">
<stop offset="0.25" stop-color="#B2B2B2"/>
<stop offset="0.4" stop-color="#AAAAAA"/>
<stop offset="0.61" stop-color="#959595"/>
<stop offset="0.87" stop-color="#747474"/>
<stop offset="0.97" stop-color="#666666"/>
</radialGradient>
<radialGradient id="paint35_radial_2011_14116" cx="0" cy="0" r="1" gradientUnits="userSpaceOnUse" gradientTransform="translate(192.403 43.6158) rotate(53.32) scale(55.75 25.645)">
<stop offset="0.25" stop-color="#B2B2B2"/>
<stop offset="0.4" stop-color="#AAAAAA"/>
<stop offset="0.61" stop-color="#959595"/>
<stop offset="0.87" stop-color="#747474"/>
<stop offset="0.97" stop-color="#666666"/>
</radialGradient>
<linearGradient id="paint36_linear_2011_14116" x1="186.459" y1="99.6372" x2="142.931" y2="130.456" gradientUnits="userSpaceOnUse">
<stop offset="0.09" stop-color="#666666"/>
<stop offset="0.81" stop-color="#B2B2B2"/>
</linearGradient>
<linearGradient id="paint37_linear_2011_14116" x1="184.414" y1="99.3736" x2="143.936" y2="128.027" gradientUnits="userSpaceOnUse">
<stop offset="0.09" stop-color="#666666"/>
<stop offset="0.81" stop-color="#B2B2B2"/>
</linearGradient>
<linearGradient id="paint38_linear_2011_14116" x1="102.972" y1="30.3682" x2="198.93" y2="73.7938" gradientUnits="userSpaceOnUse">
<stop stop-color="#666666"/>
<stop offset="0.05" stop-color="#7B7B7B"/>
<stop offset="0.12" stop-color="#999999"/>
<stop offset="0.18" stop-color="#ABABAB"/>
<stop offset="0.23" stop-color="#B2B2B2"/>
<stop offset="0.64" stop-color="#B2B2B2"/>
<stop offset="0.73" stop-color="#A5A5A5"/>
<stop offset="0.88" stop-color="#848484"/>
<stop offset="1" stop-color="#666666"/>
</linearGradient>
<radialGradient id="paint39_radial_2011_14116" cx="0" cy="0" r="1" gradientUnits="userSpaceOnUse" gradientTransform="translate(185.081 97.0591) rotate(34.36) scale(8.0592 16.936)">
<stop offset="0.2" stop-color="#B2B2B2"/>
<stop offset="0.36" stop-color="#ACACAC"/>
<stop offset="0.57" stop-color="#9D9D9D"/>
<stop offset="0.79" stop-color="#848484"/>
<stop offset="1" stop-color="#666666"/>
</radialGradient>
<radialGradient id="paint40_radial_2011_14116" cx="0" cy="0" r="1" gradientUnits="userSpaceOnUse" gradientTransform="translate(182.432 124.067) rotate(2.44) scale(14.3487 12.8079)">
<stop offset="0.06" stop-color="#B2B2B2"/>
<stop offset="0.26" stop-color="#ACACAC"/>
<stop offset="0.49" stop-color="#9D9D9D"/>
<stop offset="0.75" stop-color="#848484"/>
<stop offset="1" stop-color="#666666"/>
</radialGradient>
<linearGradient id="paint41_linear_2011_14116" x1="178.32" y1="131.51" x2="188.665" y2="127.431" gradientUnits="userSpaceOnUse">
<stop offset="0.46" stop-color="#1A1A1A"/>
<stop offset="0.74" stop-color="#2B2B2B"/>
<stop offset="0.85" stop-color="#333333"/>
</linearGradient>
<radialGradient id="paint42_radial_2011_14116" cx="0" cy="0" r="1" gradientUnits="userSpaceOnUse" gradientTransform="translate(189.125 127.32) rotate(22.39) scale(9.3367 10.8715)">
<stop stop-color="#B2B2B2"/>
<stop offset="0.21" stop-color="#ACACAC"/>
<stop offset="0.46" stop-color="#9D9D9D"/>
<stop offset="0.73" stop-color="#848484"/>
<stop offset="1" stop-color="#666666"/>
</radialGradient>
<radialGradient id="paint43_radial_2011_14116" cx="0" cy="0" r="1" gradientUnits="userSpaceOnUse" gradientTransform="translate(200.778 131.4) rotate(64.82) scale(4.8597 6.4128)">
<stop offset="0.06" stop-color="#B2B2B2"/>
<stop offset="0.26" stop-color="#ACACAC"/>
<stop offset="0.49" stop-color="#9D9D9D"/>
<stop offset="0.75" stop-color="#848484"/>
<stop offset="1" stop-color="#666666"/>
</radialGradient>
<linearGradient id="paint44_linear_2011_14116" x1="196.135" y1="125.134" x2="208.76" y2="119.883" gradientUnits="userSpaceOnUse">
<stop stop-color="#B2B2B2"/>
<stop offset="0.22" stop-color="#A6A6A6"/>
<stop offset="0.62" stop-color="#888888"/>
<stop offset="1" stop-color="#666666"/>
</linearGradient>
<linearGradient id="paint45_linear_2011_14116" x1="208.817" y1="122.166" x2="198.871" y2="126.842" gradientUnits="userSpaceOnUse">
<stop offset="0.04" stop-color="white" stop-opacity="0.4"/>
<stop offset="0.37" stop-color="white" stop-opacity="0.25"/>
<stop offset="0.79" stop-color="white" stop-opacity="0.07"/>
<stop offset="1" stop-color="white" stop-opacity="0"/>
</linearGradient>
<radialGradient id="paint46_radial_2011_14116" cx="0" cy="0" r="1" gradientUnits="userSpaceOnUse" gradientTransform="translate(220.989 141.734) rotate(82.86) scale(25 16.5)">
<stop offset="0.25" stop-color="#B2B2B2"/>
<stop offset="0.4" stop-color="#AAAAAA"/>
<stop offset="0.62" stop-color="#959595"/>
<stop offset="0.88" stop-color="#747474"/>
<stop offset="0.98" stop-color="#666666"/>
</radialGradient>
<linearGradient id="paint47_linear_2011_14116" x1="203.789" y1="130.629" x2="232.14" y2="125.199" gradientUnits="userSpaceOnUse">
<stop offset="0.05" stop-color="#F8E84E"/>
<stop offset="0.99" stop-color="#E7923D"/>
</linearGradient>
<linearGradient id="paint48_linear_2011_14116" x1="211.459" y1="111.185" x2="214.538" y2="139.968" gradientUnits="userSpaceOnUse">
<stop offset="0.23" stop-color="#1A1A1A"/>
<stop offset="0.38" stop-color="#1D1D1D" stop-opacity="0.87"/>
<stop offset="0.5" stop-color="#262626" stop-opacity="0.48"/>
<stop offset="0.58" stop-color="#333333" stop-opacity="0"/>
</linearGradient>
<radialGradient id="paint49_radial_2011_14116" cx="0" cy="0" r="1" gradientUnits="userSpaceOnUse" gradientTransform="translate(204.439 36.5621) rotate(-93.13) scale(63.891 22.9)">
<stop offset="0.3" stop-color="#B2B2B2"/>
<stop offset="0.44" stop-color="#AAAAAA"/>
<stop offset="0.64" stop-color="#959595"/>
<stop offset="0.88" stop-color="#747474"/>
<stop offset="0.97" stop-color="#666666"/>
</radialGradient>
<linearGradient id="paint50_linear_2011_14116" x1="212.327" y1="114.907" x2="209.977" y2="101.652" gradientUnits="userSpaceOnUse">
<stop offset="0.15" stop-color="#1A1A1A"/>
<stop offset="0.58" stop-color="#333333" stop-opacity="0"/>
</linearGradient>
<linearGradient id="paint51_linear_2011_14116" x1="199.822" y1="100.558" x2="228.028" y2="94.4692" gradientUnits="userSpaceOnUse">
<stop offset="0.05" stop-color="#F8E84E"/>
<stop offset="0.99" stop-color="#E7923D"/>
</linearGradient>
<linearGradient id="paint52_linear_2011_14116" x1="207.216" y1="119.977" x2="212.173" y2="111.934" gradientUnits="userSpaceOnUse">
<stop stop-color="#A86335"/>
<stop offset="0.88" stop-color="#BA7642"/>
</linearGradient>
</defs>
</svg>
