<svg width="157" height="93" viewBox="0 0 157 93" fill="none" xmlns="http://www.w3.org/2000/svg">
<path d="M146.968 59.3064L147.098 59.2364C148.718 58.3164 149.278 56.2764 148.338 54.6864L146.508 51.5864C145.578 49.9964 143.498 49.4564 141.878 50.3864L141.748 50.4564C140.128 51.3764 139.568 53.4164 140.508 55.0064L142.338 58.1064C143.268 59.6964 145.348 60.2364 146.968 59.3064Z" fill="#C47B43"/>
<path d="M143.478 64.6264L143.598 64.5364C145.098 63.4364 145.408 61.3464 144.298 59.8764L142.118 57.0064C140.998 55.5364 138.878 55.2364 137.378 56.3364L137.258 56.4264C135.758 57.5264 135.448 59.6164 136.558 61.0864L138.738 63.9564C139.858 65.4264 141.978 65.7264 143.478 64.6264Z" fill="#C47B43"/>
<path d="M140.998 70.5764L141.098 70.4664C142.318 69.0764 142.168 66.9764 140.758 65.7764L137.998 63.4364C136.588 62.2364 134.448 62.3964 133.218 63.7964L133.118 63.9064C131.898 65.2964 132.048 67.3964 133.458 68.5964L136.218 70.9364C137.628 72.1364 139.768 71.9764 140.998 70.5764Z" fill="#C47B43"/>
<path d="M138.048 76.0164L138.118 75.8864C139.028 74.2764 138.448 72.2564 136.808 71.3664L133.618 69.6264C131.988 68.7364 129.918 69.3164 129.008 70.9264L128.938 71.0564C128.028 72.6664 128.608 74.6864 130.248 75.5764L133.438 77.3164C135.068 78.2064 137.138 77.6264 138.048 76.0164Z" fill="#C47B43"/>
<path d="M143.586 14.8092L21.0186 1.38588C14.0298 0.620478 7.74378 5.66554 6.97838 12.6543L1.38589 63.719C0.620493 70.7078 5.66556 76.9938 12.6544 77.7592L135.221 91.1825C142.21 91.9479 148.496 86.9028 149.262 79.914L154.854 28.8494C155.62 21.8606 150.575 15.5746 143.586 14.8092Z" fill="#B7441D"/>
<path d="M140.868 14.5158L20.5676 1.3407C13.8259 0.602358 7.76205 5.46908 7.02371 12.2108L1.73822 60.4723C0.999882 67.214 5.8666 73.2778 12.6083 74.0162L132.909 87.1912C139.651 87.9296 145.715 83.0629 146.453 76.3211L151.738 28.0597C152.477 21.3179 147.61 15.2541 140.868 14.5158Z" fill="url(#paint0_linear_2011_9168)"/>
<g opacity="0.5">
<mask id="mask0_2011_9168" style="mask-type:luminance" maskUnits="userSpaceOnUse" x="1" y="1" width="151" height="87">
<path d="M140.868 14.5158L20.5676 1.3407C13.8259 0.602358 7.76205 5.46908 7.02371 12.2108L1.73822 60.4723C0.999882 67.214 5.8666 73.2778 12.6083 74.0162L132.909 87.1912C139.651 87.9296 145.715 83.0629 146.453 76.3211L151.738 28.0597C152.477 21.3179 147.61 15.2541 140.868 14.5158Z" fill="white"/>
</mask>
<g mask="url(#mask0_2011_9168)">
<path d="M46.9845 -10.9551L23.0283 -23.1246L-19.481 60.5573L4.47521 72.7268L46.9845 -10.9551Z" fill="#FBFFBA"/>
<path d="M63.6264 -3.14644L55.4954 -7.2769L12.986 76.405L21.117 80.5354L63.6264 -3.14644Z" fill="#FBFFBA"/>
<path d="M131.604 9.92874L122.242 5.17327L79.7328 88.8551L89.0942 93.6106L131.604 9.92874Z" fill="#FBFFBA"/>
</g>
</g>
<path d="M1.56836 60.4564L6.62836 13.5164C6.80836 9.50643 8.67836 5.54643 12.0584 3.26643C14.5184 1.49643 17.6384 0.756427 20.6384 1.05643L23.5684 1.37643L47.0384 3.90643C46.9784 4.22643 141.648 13.8364 140.848 14.6964L134.938 14.4864C131.358 14.2964 120.988 13.7264 117.228 13.5264C85.7884 11.4964 51.6584 8.03643 20.2984 4.18643C14.4984 3.36643 9.52836 8.10643 9.28836 13.8164C8.23836 21.6164 7.07836 29.4064 5.88836 37.1864C5.27836 40.9364 3.58836 51.0264 2.98836 54.6764L1.90836 60.4964L1.56836 60.4564Z" fill="white"/>
<path d="M135.294 21.2578L23.9899 9.06794C18.692 8.48773 13.9269 12.3121 13.3467 17.61L9.06165 56.7361C8.48144 62.0339 12.3059 66.7991 17.6037 67.3793L128.908 79.5691C134.206 80.1493 138.971 76.3249 139.551 71.027L143.836 31.901C144.417 26.6031 140.592 21.838 135.294 21.2578Z" stroke="#B7441D" stroke-width="1.47" stroke-miterlimit="10"/>
<path d="M23.2146 60.106L27.1133 24.5063L22.3139 23.9807L22.9059 18.5755L38.539 20.2876L37.947 25.6928L33.334 25.1876L29.4352 60.7872L23.2146 60.106ZM37.7526 61.6981L42.2434 20.6933L48.4873 21.3771L43.9965 62.382L37.7526 61.6981ZM68.9156 53.7938C68.4818 57.7545 67.4536 60.6126 65.8309 62.3683C64.21 64.1084 61.8851 64.8126 58.8564 64.4809C55.8276 64.1492 53.6705 62.8913 52.385 60.7071C51.1167 58.5091 50.691 55.5074 51.1077 51.702L53.0648 33.8323C53.7333 27.7282 55.7507 24.0903 59.117 22.9185C60.3587 22.4887 61.8183 22.3656 63.4958 22.5493C69.2582 23.1804 71.7414 27.1304 70.9453 34.3995L70.3278 40.0376L64.2936 39.3768L64.8677 34.1347C65.099 32.0223 65.0854 30.4961 64.8268 29.5562C64.5699 28.6006 63.9212 28.0659 62.8805 27.9519C61.8399 27.8379 61.0649 28.2403 60.5556 29.1591C60.0463 30.0779 59.6828 31.5313 59.465 33.5194L57.3676 52.6705C57.1261 54.8761 57.1476 56.4739 57.4321 57.4639C57.7167 58.4539 58.3715 59.005 59.3966 59.1172C60.4217 59.2295 61.1812 58.8254 61.675 57.905C62.1687 56.9845 62.5372 55.4137 62.7805 53.1926L63.4235 47.3215L69.5509 47.9925L68.9156 53.7938ZM72.7931 65.5357L77.2839 24.5309L83.5278 25.2147L81.461 44.0862L89.7717 25.8985L96.2253 26.6053L87.2075 46.0831L92.2704 67.6688L85.677 66.9467L81.181 47.0735L79.0836 66.2246L72.7931 65.5357ZM95.3924 68.0107L99.8831 27.0059L113.629 28.5113L113.04 33.8932L105.538 33.0716L104.231 45.0003L111.36 45.7811L110.784 51.0465L103.655 50.2657L102.226 63.3127L110.007 64.1649L109.418 69.5468L95.3924 68.0107ZM116.501 70.3224L120.399 34.7228L115.6 34.1972L116.192 28.792L131.825 30.5041L131.233 35.9093L126.62 35.4041L122.721 71.0037L116.501 70.3224Z" fill="#B7441D"/>
<defs>
<linearGradient id="paint0_linear_2011_9168" x1="80.3545" y1="11.3389" x2="70.6261" y2="100.168" gradientUnits="userSpaceOnUse">
<stop offset="0.32" stop-color="#F8E84E"/>
<stop offset="0.44" stop-color="#F6E14C"/>
<stop offset="0.6" stop-color="#F3CF49"/>
<stop offset="0.79" stop-color="#EDB143"/>
<stop offset="0.95" stop-color="#E7923D"/>
</linearGradient>
</defs>
</svg>
