<svg width="85" height="89" viewBox="0 0 85 89" fill="none" xmlns="http://www.w3.org/2000/svg">
<path d="M42.5024 89C63.2117 89 79.9998 72.21 79.9998 51.4985C79.9998 30.787 63.2117 13.9969 42.5024 13.9969C21.7931 13.9969 5.00488 30.787 5.00488 51.4985C5.00488 72.21 21.7931 89 42.5024 89Z" fill="url(#paint0_radial_234_1060)"/>
<path d="M79.995 47.7468C79.995 49.1198 79.9246 50.4776 79.7737 51.8103C79.7083 52.4238 79.6279 53.0323 79.5323 53.6358C79.3714 54.6517 79.1703 55.6625 78.9239 56.6482C78.7529 57.3523 78.5618 58.0413 78.3506 58.7302C77.702 60.8525 76.8723 62.8943 75.8716 64.8405C75.6604 65.2529 75.4442 65.6603 75.2179 66.0626C68.8015 77.5087 56.5471 85.2433 42.4925 85.2433C28.4378 85.2433 16.465 77.6847 9.98827 66.4498C9.75696 66.0525 9.5357 65.6502 9.32451 65.2479C8.30875 63.3268 7.44888 61.3051 6.78009 59.203C6.55883 58.519 6.35769 57.83 6.1817 57.131C5.87999 55.9643 5.63359 54.7774 5.44754 53.5654C5.33691 52.8915 5.25645 52.2025 5.18605 51.5136C5.06034 50.2764 5 49.0192 5 47.7519C5 46.8718 5.03017 45.9967 5.09051 45.1317C5.1408 44.4176 5.20617 43.7135 5.29165 43.0145C5.44251 41.8276 5.64365 40.6609 5.90513 39.5143C6.26215 37.905 6.71975 36.341 7.28294 34.8272C7.64499 33.8415 8.04224 32.876 8.48475 31.9355C10.3604 27.9073 12.9249 24.2713 16.0426 21.1784C17.1991 20.0217 18.4361 18.9355 19.7435 17.9397C26.0543 13.1169 33.939 10.2503 42.4925 10.2503C51.0459 10.2503 59.5994 13.3633 66.0359 18.5633C67.3433 19.6194 68.5803 20.761 69.7318 21.9831C72.7087 25.1312 75.1475 28.7974 76.8924 32.8257C77.2544 33.6705 77.5964 34.5305 77.8981 35.4056C78.4713 37.045 78.934 38.7348 79.2709 40.4698C79.4821 41.5259 79.643 42.5971 79.7586 43.6834C79.8089 44.1611 79.8542 44.6439 79.8843 45.1267C79.9447 45.9917 79.9749 46.8667 79.9749 47.7468H79.995Z" fill="url(#paint1_radial_234_1060)"/>
<g style="mix-blend-mode:hard-light" opacity="0.2">
<path d="M42.5024 81.5017C63.2117 81.5017 79.9998 64.7117 79.9998 44.0002C79.9998 23.2887 63.2117 6.49866 42.5024 6.49866C21.7931 6.49866 5.00488 23.2887 5.00488 44.0002C5.00488 64.7117 21.7931 81.5017 42.5024 81.5017Z" fill="white"/>
</g>
<path d="M79.9998 42.4965C79.9998 46.7259 79.3009 50.7894 78.0086 54.5863C72.9801 69.3666 58.9807 79.998 42.5024 79.998C26.024 79.998 11.8889 69.261 6.92074 54.365C5.67367 50.6335 5.00488 46.6455 5.00488 42.4965C5.00488 21.7869 21.795 5 42.5024 5C63.2097 5 79.9998 21.7869 79.9998 42.5015V42.4965Z" fill="url(#paint2_radial_234_1060)"/>
<g style="mix-blend-mode:overlay" opacity="0.8" filter="url(#filter0_f_234_1060)">
<path d="M42.502 13.6248C59.267 13.6248 73.2965 25.0508 76.8819 40.3642C75.7806 22.3301 60.8108 8.04759 42.502 8.04759C24.1933 8.04759 9.22346 22.3301 8.11719 40.3642C11.7025 25.0508 25.732 13.6248 42.497 13.6248H42.502Z" fill="url(#paint3_linear_234_1060)"/>
</g>
<g style="mix-blend-mode:soft-light" opacity="0.75" filter="url(#filter1_f_234_1060)">
<path d="M42.5023 63.4978C29.6746 63.4978 18.0538 58.343 9.59082 49.9948C13.0001 65.0266 26.4413 76.2464 42.5023 76.2464C58.5633 76.2464 72.0045 65.0266 75.4138 49.9948C66.9509 58.343 55.33 63.4978 42.5023 63.4978Z" fill="url(#paint4_linear_234_1060)"/>
</g>
<path style="mix-blend-mode:overlay" opacity="0.6" d="M79.9947 42.4965C79.9947 42.9541 79.9897 43.4067 79.9695 43.8594C79.9545 44.2818 79.9343 44.7042 79.9042 45.1317C79.7634 47.1634 79.4617 49.1499 79.0091 51.076C78.8834 51.6192 78.7476 52.1522 78.5968 52.6853C78.4157 53.329 78.2196 53.9627 78.0084 54.5964C77.6464 54.7472 77.2843 54.8931 76.9223 55.0389C76.0624 55.3809 75.1975 55.7178 74.3427 56.0397C70.5763 57.4378 66.8049 58.5944 63.0386 59.4997C61.2283 59.9372 59.4281 60.3144 57.6179 60.6362C47.4352 62.4517 37.2474 62.4517 27.0497 60.5658C25.2545 60.2339 23.4593 59.8416 21.6591 59.389C18.0537 58.4888 14.4432 57.3472 10.8328 55.9592C10.0232 55.6525 9.21359 55.3306 8.404 54.9936C7.91121 54.7925 7.41842 54.5813 6.92562 54.37C6.71945 53.7515 6.52837 53.1279 6.35237 52.4942C6.19146 51.9159 6.04564 51.3225 5.90987 50.729C5.50759 48.9085 5.23102 47.0427 5.10028 45.1317C5.06005 44.5232 5.02988 43.9097 5.01982 43.2911C5.01479 43.0296 5.00977 42.7681 5.00977 42.5015C5.00977 41.7321 5.03491 40.9677 5.08016 40.2133C5.15056 39.0063 5.2813 37.8195 5.46736 36.6477C5.60816 35.7224 5.78918 34.8071 6.00038 33.9069C6.90551 30.0345 8.41406 26.3935 10.4255 23.0894C11.1797 21.8422 12.0044 20.6453 12.8944 19.5037C19.7483 10.6728 30.464 5 42.5022 5C54.5404 5 66.0607 11.1103 72.8693 20.5045C73.704 21.6511 74.4734 22.8531 75.1724 24.0953C76.9876 27.3038 78.3403 30.809 79.1398 34.5154C79.3108 35.2999 79.4566 36.0945 79.5773 36.8941C79.7785 38.2419 79.9092 39.6149 79.9595 41.0079C79.9846 41.5007 79.9947 41.9986 79.9947 42.4965Z" fill="url(#paint5_radial_234_1060)"/>
<g style="mix-blend-mode:soft-light" opacity="0.6">
<path d="M57.5375 17.6933C57.5576 21.807 50.1305 19.1718 41.7782 19.207C33.4258 19.2422 27.3112 21.9378 27.2911 17.824C27.2709 13.7103 34.0292 10.3459 42.3816 10.3056C50.7339 10.2704 57.5173 13.5745 57.5375 17.6883V17.6933Z" fill="white"/>
</g>
<g style="mix-blend-mode:overlay" opacity="0.7">
<path d="M26.5665 18.794C29.9356 16.4834 31.8291 13.3884 30.7956 11.8812C29.7622 10.374 26.1932 11.0252 22.824 13.3358C19.4549 15.6464 17.5614 18.7414 18.5949 20.2486C19.6283 21.7559 23.1973 21.1046 26.5665 18.794Z" fill="url(#paint6_radial_234_1060)"/>
<path d="M17.7916 24.7182C18.8781 23.5554 19.1437 22.0379 18.3848 21.3286C17.6259 20.6194 16.1299 20.9871 15.0434 22.1499C13.9569 23.3127 13.6914 24.8303 14.4503 25.5395C15.2091 26.2487 16.7051 25.881 17.7916 24.7182Z" fill="url(#paint7_radial_234_1060)"/>
<path d="M12.8449 28.9829C13.429 28.3578 13.5718 27.5422 13.1639 27.161C12.7561 26.7798 11.952 26.9775 11.368 27.6025C10.784 28.2276 10.6412 29.0433 11.049 29.4244C11.4569 29.8056 12.2609 29.6079 12.8449 28.9829Z" fill="url(#paint8_radial_234_1060)"/>
<path d="M57.5802 15.0668C58.1098 14.1732 57.4295 12.7909 56.0607 11.9794C54.6918 11.1678 53.1527 11.2343 52.6231 12.1278C52.0934 13.0214 52.7737 14.4036 54.1426 15.2152C55.5115 16.0268 57.0505 15.9603 57.5802 15.0668Z" fill="url(#paint9_radial_234_1060)"/>
<path d="M61.0676 17.3016C61.3523 16.8213 60.9866 16.0784 60.2508 15.6422C59.515 15.2059 58.6878 15.2416 58.4031 15.7218C58.1185 16.202 58.4842 16.945 59.22 17.3812C59.9558 17.8174 60.783 17.7818 61.0676 17.3016Z" fill="url(#paint10_radial_234_1060)"/>
<path d="M72.5424 30.2526C73.0028 29.9369 72.9838 29.109 72.5001 28.4035C72.0163 27.698 71.251 27.382 70.7906 27.6977C70.3302 28.0134 70.3492 28.8413 70.8329 29.5468C71.3167 30.2523 72.082 30.5683 72.5424 30.2526Z" fill="url(#paint11_radial_234_1060)"/>
<path d="M75.1731 52.982C74.4691 55.9492 72.5382 58.0312 71.7487 57.8401C70.9592 57.649 72.4074 56.1353 73.1064 53.1732C73.8053 50.2111 73.4986 46.917 74.2931 47.1031C75.0876 47.2892 75.8771 50.0149 75.1731 52.982Z" fill="url(#paint12_radial_234_1060)"/>
</g>
<path d="M18.512 50.614V40.786C18.512 40.012 19.124 39.4 19.898 39.4H24.362C25.802 39.4 26.936 39.796 27.656 40.516C28.232 41.092 28.52 41.794 28.52 42.658V42.694C28.52 44.116 27.764 44.908 26.864 45.412C28.322 45.97 29.222 46.816 29.222 48.508V48.544C29.222 50.848 27.35 52 24.506 52H19.898C19.124 52 18.512 51.388 18.512 50.614ZM21.212 44.494H23.768C24.992 44.494 25.766 44.098 25.766 43.162V43.126C25.766 42.298 25.118 41.83 23.948 41.83H21.212V44.494ZM21.212 49.57H24.506C25.73 49.57 26.468 49.138 26.468 48.202V48.166C26.468 47.32 25.838 46.798 24.416 46.798H21.212V49.57ZM31.5022 50.614V40.678C31.5022 39.904 32.1142 39.292 32.8882 39.292C33.6622 39.292 34.2742 39.904 34.2742 40.678V49.48H39.4042C40.1062 49.48 40.6642 50.038 40.6642 50.74C40.6642 51.442 40.1062 52 39.4042 52H32.8882C32.1142 52 31.5022 51.388 31.5022 50.614ZM48.0461 52.216C44.1581 52.216 41.3681 49.318 41.3681 45.736V45.7C41.3681 42.118 44.1941 39.184 48.0821 39.184C51.9701 39.184 54.7601 42.082 54.7601 45.664V45.7C54.7601 49.282 51.9341 52.216 48.0461 52.216ZM48.0821 49.66C50.3141 49.66 51.8621 47.896 51.8621 45.736V45.7C51.8621 43.54 50.2781 41.74 48.0461 41.74C45.8141 41.74 44.2661 43.504 44.2661 45.664V45.7C44.2661 47.86 45.8501 49.66 48.0821 49.66ZM63.285 52.216C59.361 52.216 56.661 49.462 56.661 45.736V45.7C56.661 42.118 59.451 39.184 63.267 39.184C65.175 39.184 66.435 39.616 67.569 40.408C67.839 40.606 68.145 40.984 68.145 41.524C68.145 42.28 67.533 42.892 66.777 42.892C66.381 42.892 66.129 42.748 65.931 42.604C65.175 42.064 64.365 41.74 63.177 41.74C61.161 41.74 59.559 43.522 59.559 45.664V45.7C59.559 48.004 61.143 49.696 63.375 49.696C64.383 49.696 65.283 49.444 65.985 48.94V47.14H64.113C63.447 47.14 62.907 46.618 62.907 45.952C62.907 45.286 63.447 44.746 64.113 44.746H67.281C68.055 44.746 68.667 45.358 68.667 46.132V49.192C68.667 50.002 68.361 50.56 67.695 50.956C66.669 51.586 65.175 52.216 63.285 52.216Z" fill="black"/>
<defs>
<filter id="filter0_f_234_1060" x="0.117188" y="0.0475922" width="84.7646" height="48.3166" filterUnits="userSpaceOnUse" color-interpolation-filters="sRGB">
<feFlood flood-opacity="0" result="BackgroundImageFix"/>
<feBlend mode="normal" in="SourceGraphic" in2="BackgroundImageFix" result="shape"/>
<feGaussianBlur stdDeviation="4" result="effect1_foregroundBlur_234_1060"/>
</filter>
<filter id="filter1_f_234_1060" x="1.59082" y="41.9948" width="81.8232" height="42.2516" filterUnits="userSpaceOnUse" color-interpolation-filters="sRGB">
<feFlood flood-opacity="0" result="BackgroundImageFix"/>
<feBlend mode="normal" in="SourceGraphic" in2="BackgroundImageFix" result="shape"/>
<feGaussianBlur stdDeviation="4" result="effect1_foregroundBlur_234_1060"/>
</filter>
<radialGradient id="paint0_radial_234_1060" cx="0" cy="0" r="1" gradientUnits="userSpaceOnUse" gradientTransform="translate(42.5024 51.4985) scale(37.4975 37.5015)">
<stop/>
<stop offset="0.84" stop-opacity="0.2"/>
</radialGradient>
<radialGradient id="paint1_radial_234_1060" cx="0" cy="0" r="1" gradientUnits="userSpaceOnUse" gradientTransform="translate(42.5025 47.7518) scale(37.4975 37.5015)">
<stop stop-color="#21E2DC"/>
<stop offset="0.1" stop-color="#20E1DB"/>
<stop offset="0.98" stop-color="#05A7AF"/>
</radialGradient>
<radialGradient id="paint2_radial_234_1060" cx="0" cy="0" r="1" gradientUnits="userSpaceOnUse" gradientTransform="translate(42.716 40.0279) rotate(-91.1499) scale(41.0822 39.0239)">
<stop stop-color="#21E3DC"/>
<stop offset="0.1" stop-color="#25E9E0"/>
<stop offset="0.98" stop-color="#05B2B9"/>
</radialGradient>
<linearGradient id="paint3_linear_234_1060" x1="42.502" y1="40.3642" x2="42.502" y2="8.04759" gradientUnits="userSpaceOnUse">
<stop stop-color="white" stop-opacity="0"/>
<stop offset="1" stop-color="white"/>
</linearGradient>
<linearGradient id="paint4_linear_234_1060" x1="42.5023" y1="76.2514" x2="42.5023" y2="49.9948" gradientUnits="userSpaceOnUse">
<stop/>
<stop offset="0.09" stop-color="#0C0C0C"/>
<stop offset="0.24" stop-color="#2C2C2C"/>
<stop offset="0.46" stop-color="#616161"/>
<stop offset="0.71" stop-color="#AAAAAA"/>
<stop offset="0.98" stop-color="white"/>
</linearGradient>
<radialGradient id="paint5_radial_234_1060" cx="0" cy="0" r="1" gradientUnits="userSpaceOnUse" gradientTransform="translate(41.7228 26.3181) scale(41.0275 41.0319)">
<stop stop-color="white"/>
<stop offset="1" stop-color="white" stop-opacity="0"/>
</radialGradient>
<radialGradient id="paint6_radial_234_1060" cx="0" cy="0" r="1" gradientUnits="userSpaceOnUse" gradientTransform="translate(6.3386 19.633) rotate(-32.9328) scale(5.43557 4.09914)">
<stop offset="0.51" stop-color="white"/>
<stop offset="1" stop-color="white" stop-opacity="0"/>
</radialGradient>
<radialGradient id="paint7_radial_234_1060" cx="0" cy="0" r="1" gradientUnits="userSpaceOnUse" gradientTransform="translate(-56.7803 93.1364) rotate(-44.7431) scale(1.41102 3.57259)">
<stop offset="0.51" stop-color="white"/>
<stop offset="1" stop-color="white" stop-opacity="0"/>
</radialGradient>
<radialGradient id="paint8_radial_234_1060" cx="0" cy="0" r="1" gradientUnits="userSpaceOnUse" gradientTransform="translate(-61.4304 98.4314) rotate(-44.7431) scale(0.758689 1.92094)">
<stop offset="0.51" stop-color="white"/>
<stop offset="1" stop-color="white" stop-opacity="0"/>
</radialGradient>
<radialGradient id="paint9_radial_234_1060" cx="0" cy="0" r="1" gradientUnits="userSpaceOnUse" gradientTransform="translate(-83.651 -79.6248) rotate(-147.137) scale(1.41099 3.57266)">
<stop offset="0.51" stop-color="white"/>
<stop offset="1" stop-color="white" stop-opacity="0"/>
</radialGradient>
<radialGradient id="paint10_radial_234_1060" cx="0" cy="0" r="1" gradientUnits="userSpaceOnUse" gradientTransform="translate(-78.584 -76.5264) rotate(-147.137) scale(0.758673 1.92098)">
<stop offset="0.51" stop-color="white"/>
<stop offset="1" stop-color="white" stop-opacity="0"/>
</radialGradient>
<radialGradient id="paint11_radial_234_1060" cx="0" cy="0" r="1" gradientUnits="userSpaceOnUse" gradientTransform="translate(-1.97916 -92.6182) rotate(-122.237) scale(0.758707 1.9209)">
<stop offset="0.51" stop-color="white"/>
<stop offset="1" stop-color="white" stop-opacity="0"/>
</radialGradient>
<radialGradient id="paint12_radial_234_1060" cx="0" cy="0" r="1" gradientUnits="userSpaceOnUse" gradientTransform="translate(74.9243 52.7) rotate(-77.9213) scale(5.49188 2.14879)">
<stop stop-color="white"/>
<stop offset="1" stop-color="white" stop-opacity="0"/>
</radialGradient>
</defs>
</svg>
