<svg width="155" height="74" viewBox="0 0 155 74" fill="none" xmlns="http://www.w3.org/2000/svg">
<path d="M149.995 43.6617C149.99 45.1521 149.963 46.6526 149.919 48.1431C149.838 51.094 149.691 54.0349 149.474 56.9758C149.355 58.6263 149.219 60.2869 149.056 61.9374C148.774 64.8383 147.09 67.4091 144.548 69.2597C142.181 71.2503 138.901 72.5607 135.197 72.7808C118.753 73.7611 36.2507 73.7611 19.8012 72.7808C16.0975 72.5607 12.8174 71.2403 10.4497 69.2597C7.91356 67.4091 6.23006 64.8383 5.94767 61.9374C5.84449 60.847 5.74673 59.7467 5.65441 58.6563C5.39374 55.4353 5.2091 52.2043 5.10592 48.9833C5.04618 47.1527 5.0136 45.3222 5.00817 43.4916C4.99731 42.1912 5.00817 40.8808 5.02989 39.5804V39.5304C5.06247 37.6498 5.11678 35.7692 5.19824 33.8886C5.26341 32.3881 5.34487 30.8877 5.44805 29.3872C5.58381 27.3566 5.75216 25.3259 5.94767 23.3053C6.0943 21.7748 6.63193 20.3444 7.47911 19.054C8.23397 17.8936 9.2495 16.8533 10.4497 15.983C12.8174 13.9924 16.0975 12.682 19.8012 12.4519C36.2507 11.4716 118.753 11.4716 135.197 12.4519C138.901 12.672 142.181 13.9924 144.548 15.983C146.08 17.1034 147.296 18.4738 148.084 20.0343C148.605 21.0546 148.942 22.1649 149.056 23.3153C149.262 25.446 149.442 27.5866 149.577 29.7173C149.68 31.3178 149.773 32.9283 149.833 34.5288C149.898 36.1493 149.947 37.7798 149.974 39.4003C149.995 40.8308 150.006 42.2512 149.995 43.6717V43.6617Z" fill="url(#paint0_radial_420_8922)"/>
<path d="M149.919 45.3922C149.876 46.9527 149.816 48.5132 149.735 50.0737C149.599 52.7345 149.414 55.3954 149.17 58.0562C149.132 58.4763 149.094 58.8964 149.05 59.3166C148.768 62.2175 147.085 64.7883 144.543 66.6389C142.175 68.6295 138.895 69.9399 135.191 70.17C118.747 71.1503 36.2451 71.1503 19.7957 70.17C16.092 69.9499 12.8119 68.6295 10.4441 66.6389C8.03293 64.8783 6.39831 62.4776 5.99644 59.7567C5.97472 59.6167 5.95843 59.4666 5.94213 59.3166C5.6706 56.5457 5.45881 53.7748 5.30675 51.004C5.20357 49.1734 5.12754 47.3328 5.07866 45.5023C5.00806 43.1115 4.98634 40.7208 5.00806 38.33V38.3C5.01349 37.7098 5.02436 37.1196 5.02979 36.5295C5.05694 34.8689 5.10581 33.2084 5.17641 31.5479C5.30675 28.4969 5.50768 25.446 5.77921 22.395C5.82809 21.8249 5.8824 21.2447 5.9367 20.6745C6.2191 17.7736 7.90259 15.2028 10.4387 13.3522C12.8065 11.3716 16.0866 10.0512 19.7903 9.83112C36.2397 8.85081 118.742 8.85081 135.186 9.83112C138.89 10.0512 142.17 11.3716 144.538 13.3522C147.074 15.2028 148.757 17.7736 149.045 20.6745C149.121 21.4347 149.186 22.195 149.251 22.9452C149.501 25.8261 149.686 28.707 149.811 31.5979C149.887 33.3885 149.936 35.179 149.963 36.9696C149.963 37.2597 149.974 37.5498 149.979 37.8399V37.9399C150.001 40.4207 149.979 42.9115 149.914 45.3922H149.919Z" fill="url(#paint1_radial_420_8922)"/>
<g style="mix-blend-mode:hard-light" opacity="0.2">
<path d="M149.051 18.0637C148.768 15.1628 147.085 12.5919 144.549 10.7414C142.181 8.75075 138.901 7.44034 135.197 7.21027C118.753 6.22996 36.2453 6.22996 19.8013 7.21027C16.0976 7.43034 12.8175 8.75075 10.4497 10.7414C7.91359 12.5919 6.23009 15.1628 5.94769 18.0637C4.69322 30.9477 4.69322 43.8217 5.94769 56.7057C6.23009 59.6066 7.91359 62.1774 10.4497 64.028C12.8175 66.0186 16.0976 67.3291 19.8013 67.5591C36.2453 68.5394 118.753 68.5394 135.197 67.5591C138.901 67.3391 142.181 66.0186 144.549 64.028C147.085 62.1774 148.768 59.6066 149.051 56.7057C150.305 43.8217 150.305 30.9477 149.051 18.0637Z" fill="white"/>
</g>
<path d="M149.637 48.3031C149.491 50.7839 149.295 53.2647 149.051 55.7454C148.768 58.6463 147.085 61.2171 144.549 63.0677C142.181 65.0583 138.901 66.3688 135.192 66.5988C118.748 67.5891 36.2401 67.5891 19.7961 66.5988C16.0924 66.3788 12.8123 65.0583 10.4445 63.0677C7.90842 61.2171 6.22492 58.6463 5.94253 55.7454C5.71987 53.4447 5.53523 51.154 5.3886 48.8533C4.72607 38.27 4.91071 27.6867 5.94253 17.1034C6.22492 14.2025 7.90842 11.6317 10.4445 9.78108C12.8123 7.80046 16.0924 6.48005 19.7961 6.24998C36.2455 5.26967 118.748 5.26967 135.197 6.25998C138.901 6.48005 142.181 7.80046 144.554 9.79108C147.09 11.6517 148.774 14.2125 149.056 17.1134C150.066 27.5166 150.267 37.9099 149.643 48.3131L149.637 48.3031Z" fill="url(#paint2_radial_420_8922)"/>
<g style="mix-blend-mode:overlay" opacity="0.8" filter="url(#filter0_f_420_8922)">
<path d="M12.2964 16.5932C14.5338 14.7626 17.6401 13.5422 21.1429 13.3322C36.6962 12.4219 118.302 12.4219 133.856 13.3322C137.359 13.5422 140.46 14.7526 142.702 16.5932C144.332 17.7636 145.591 19.234 146.314 20.8945C146.254 20.2143 146.2 19.5341 146.135 18.8439C145.874 16.1631 144.321 13.7923 141.975 12.0718C139.786 10.2412 136.756 9.02083 133.329 8.81077C118.129 7.90048 36.8755 7.90048 21.6751 8.81077C18.2484 9.02083 15.2181 10.2312 13.0295 12.0718C10.6835 13.7923 9.13031 16.1631 8.86964 18.8439C8.80447 19.5241 8.75017 20.2043 8.69043 20.8945C9.41271 19.234 10.6672 17.7636 12.3018 16.5932H12.2964Z" fill="url(#paint3_linear_420_8922)"/>
</g>
<g style="mix-blend-mode:soft-light" opacity="0.75" filter="url(#filter1_f_420_8922)">
<path d="M143.984 48.1431C141.654 50.0937 138.428 51.3941 134.784 51.6142C118.612 52.5845 36.3808 52.5845 20.2084 51.6142C16.5644 51.3941 13.3386 50.1037 11.0089 48.1431C10.6287 47.863 10.2703 47.5729 9.93359 47.2628C10.0639 49.3435 10.2268 51.4241 10.4278 53.4948C10.6776 56.0556 12.1656 58.3263 14.4084 59.9668C16.4992 61.7173 19.3992 62.8877 22.6739 63.0778C37.2063 63.948 117.792 63.948 132.324 63.0778C135.599 62.8777 138.493 61.7173 140.589 59.9668C142.832 58.3263 144.32 56.0556 144.57 53.4948C144.771 51.4141 144.939 49.3335 145.064 47.2628C144.728 47.5729 144.369 47.863 143.989 48.1431H143.984Z" fill="url(#paint4_linear_420_8922)"/>
</g>
<path style="mix-blend-mode:overlay" opacity="0.6" d="M149.99 36.9796C149.99 37.2597 149.99 37.5498 149.99 37.8299V37.9299C149.99 38.4201 149.979 38.9002 149.974 39.3904C149.952 40.7808 149.92 42.1712 149.871 43.5517C149.849 44.1218 149.827 44.692 149.806 45.2622C149.768 46.1525 149.719 47.0427 149.664 47.933C149.659 48.0531 149.654 48.1831 149.643 48.3031C149.089 48.4532 148.54 48.6132 147.986 48.7533C145.081 49.5335 142.17 50.2237 139.265 50.8239C138.238 51.034 137.212 51.2341 136.186 51.4341C118.731 54.6951 35.1973 54.8152 17.6998 51.6342C16.7711 51.4641 15.8425 51.2841 14.9084 51.104C12.2909 50.5738 9.66785 49.9737 7.04485 49.2934C6.49093 49.1534 5.94243 49.0034 5.38851 48.8533C5.38851 48.8033 5.38307 48.7433 5.37764 48.6933C5.31248 47.5829 5.24731 46.4626 5.20386 45.3522C5.17128 44.692 5.14956 44.0418 5.12784 43.3816C5.08439 42.1212 5.05181 40.8508 5.03008 39.5904V39.5404C5.02465 39.1403 5.01922 38.7402 5.01379 38.33V38.3C5.00836 37.7198 5.00293 37.1397 5.00293 36.5595C5.00293 35.7192 5.00836 34.8689 5.01922 34.0287C5.03008 33.2484 5.04094 32.4582 5.06267 31.6779C5.07353 31.0077 5.09525 30.3475 5.1224 29.6773C5.20386 27.3166 5.32334 24.9558 5.49169 22.5951C5.55142 21.7548 5.61116 20.9146 5.68176 20.0743C5.75779 19.084 5.85011 18.0937 5.94786 17.1034C6.23025 14.2025 7.91375 11.6317 10.4499 9.78111C12.8176 7.80049 16.0977 6.48007 19.8014 6.26001C36.2454 5.2697 118.748 5.2697 135.192 6.26001C138.901 6.48007 142.181 7.80049 144.549 9.78111C147.085 11.6417 148.768 14.2125 149.051 17.1034C149.17 18.3238 149.279 19.5342 149.371 20.7545C149.431 21.5448 149.491 22.335 149.539 23.1253C149.697 25.406 149.806 27.6767 149.882 29.9474C149.903 30.5276 149.914 31.1078 149.93 31.688C149.952 32.6683 149.968 33.6386 149.979 34.6289C149.985 35.4091 149.985 36.1894 149.979 36.9796H149.99Z" fill="url(#paint5_radial_420_8922)"/>
<g style="mix-blend-mode:soft-light" opacity="0.6">
<path d="M126.644 15.4829C126.666 19.2741 115.223 16.8733 74.2384 16.8733C40.6227 16.8733 27.8987 19.3841 27.877 15.5929C27.8553 11.8018 40.1339 8.68079 74.8846 8.68079C114.735 8.68079 126.622 11.6917 126.644 15.4829Z" fill="white"/>
</g>
<path d="M132.394 11.4667C132.41 10.8043 131.387 10.1868 130.111 10.0874C128.834 9.98803 127.787 10.4444 127.772 11.1068C127.756 11.7691 128.779 12.3866 130.056 12.486C131.332 12.5854 132.379 12.129 132.394 11.4667Z" fill="url(#paint6_radial_420_8922)"/>
<path d="M135.679 12.0282C135.687 11.675 135.138 11.3453 134.452 11.2919C133.765 11.2385 133.202 11.4815 133.194 11.8348C133.186 12.188 133.736 12.5177 134.422 12.5712C135.108 12.6246 135.671 12.3815 135.679 12.0282Z" fill="url(#paint7_radial_420_8922)"/>
<path d="M145.156 51.2341C145.156 53.1647 144.027 54.7252 143.37 54.7252C142.713 54.7252 143.571 53.5848 143.571 51.6542C143.571 49.7236 142.713 47.743 143.37 47.743C144.027 47.743 145.156 49.3035 145.156 51.2341Z" fill="url(#paint8_radial_420_8922)"/>
<path d="M144.34 20.178C144.433 19.0976 143.737 17.9971 142.786 17.72C141.835 17.4428 140.989 18.0941 140.897 19.1745C140.804 20.2549 141.499 21.3554 142.45 21.6326C143.401 21.9097 144.247 21.2584 144.34 20.178Z" fill="url(#paint9_radial_420_8922)"/>
<path d="M144.308 23.7621C144.358 23.1837 143.983 22.5937 143.47 22.4444C142.958 22.295 142.502 22.6428 142.452 23.2213C142.403 23.7997 142.778 24.3896 143.29 24.539C143.803 24.6883 144.259 24.3405 144.308 23.7621Z" fill="url(#paint10_radial_420_8922)"/>
<path d="M125.677 10.3013C125.704 10.7914 29.5818 11.1316 25.3839 11.6517C16.8632 12.702 18.7531 16.7433 17.5366 16.6833C16.3201 16.6233 15.3969 11.3316 25.2427 10.5714C33.9643 9.90117 125.65 9.81114 125.677 10.3013Z" fill="url(#paint11_radial_420_8922)"/>
<path d="M17.3332 21.8769C17.7012 20.8948 17.6093 19.6026 17.1279 18.9907C16.6466 18.3788 15.9581 18.6789 15.5901 19.6611C15.2221 20.6432 15.314 21.9354 15.7954 22.5473C16.2768 23.1592 16.9653 22.8591 17.3332 21.8769Z" fill="url(#paint12_radial_420_8922)"/>
<defs>
<filter id="filter0_f_420_8922" x="0.69043" y="0.128052" width="153.623" height="28.7665" filterUnits="userSpaceOnUse" color-interpolation-filters="sRGB">
<feFlood flood-opacity="0" result="BackgroundImageFix"/>
<feBlend mode="normal" in="SourceGraphic" in2="BackgroundImageFix" result="shape"/>
<feGaussianBlur stdDeviation="4" result="effect1_foregroundBlur_420_8922"/>
</filter>
<filter id="filter1_f_420_8922" x="1.93359" y="39.2628" width="151.131" height="32.4677" filterUnits="userSpaceOnUse" color-interpolation-filters="sRGB">
<feFlood flood-opacity="0" result="BackgroundImageFix"/>
<feBlend mode="normal" in="SourceGraphic" in2="BackgroundImageFix" result="shape"/>
<feGaussianBlur stdDeviation="4" result="effect1_foregroundBlur_420_8922"/>
</filter>
<radialGradient id="paint0_radial_420_8922" cx="0" cy="0" r="1" gradientUnits="userSpaceOnUse" gradientTransform="translate(77.4631 42.5269) scale(66.8705 52.1467)">
<stop/>
<stop offset="0.84" stop-opacity="0.2"/>
</radialGradient>
<radialGradient id="paint1_radial_420_8922" cx="0" cy="0" r="1" gradientUnits="userSpaceOnUse" gradientTransform="translate(77.463 39.8987) scale(66.8705 52.1467)">
<stop stop-color="#F99F03"/>
<stop offset="0.02" stop-color="#F89D02"/>
<stop offset="0.98" stop-color="#D66100"/>
</radialGradient>
<radialGradient id="paint2_radial_420_8922" cx="0" cy="0" r="1" gradientUnits="userSpaceOnUse" gradientTransform="translate(77.7687 31.0039) rotate(-91.3742) scale(53.2994 70.9407)">
<stop stop-color="#F99F03"/>
<stop offset="0.02" stop-color="#F89D02"/>
<stop offset="0.98" stop-color="#D66100"/>
</radialGradient>
<linearGradient id="paint3_linear_420_8922" x1="77.4967" y1="20.8945" x2="77.4967" y2="8.13055" gradientUnits="userSpaceOnUse">
<stop stop-color="white" stop-opacity="0"/>
<stop offset="1" stop-color="white"/>
</linearGradient>
<linearGradient id="paint4_linear_420_8922" x1="77.4962" y1="63.738" x2="77.4962" y2="47.2628" gradientUnits="userSpaceOnUse">
<stop/>
<stop offset="0.09" stop-color="#0C0C0C"/>
<stop offset="0.24" stop-color="#2C2C2C"/>
<stop offset="0.46" stop-color="#616161"/>
<stop offset="0.71" stop-color="#AAAAAA"/>
<stop offset="0.98" stop-color="white"/>
</linearGradient>
<radialGradient id="paint5_radial_420_8922" cx="0" cy="0" r="1" gradientUnits="userSpaceOnUse" gradientTransform="translate(78.0213 18.5364) scale(69.1993 53.9627)">
<stop stop-color="white"/>
<stop offset="1" stop-color="white" stop-opacity="0"/>
</radialGradient>
<radialGradient id="paint6_radial_420_8922" cx="0" cy="0" r="1" gradientUnits="userSpaceOnUse" gradientTransform="translate(663.05 72.6783) rotate(-171.063) scale(1.14282 2.26321)">
<stop offset="0.51" stop-color="white"/>
<stop offset="1" stop-color="white" stop-opacity="0"/>
</radialGradient>
<radialGradient id="paint7_radial_420_8922" cx="0" cy="0" r="1" gradientUnits="userSpaceOnUse" gradientTransform="translate(665.976 73.1121) rotate(-171.063) scale(0.613477 1.21491)">
<stop offset="0.51" stop-color="white"/>
<stop offset="1" stop-color="white" stop-opacity="0"/>
</radialGradient>
<radialGradient id="paint8_radial_420_8922" cx="0" cy="0" r="1" gradientUnits="userSpaceOnUse" gradientTransform="translate(133.179 5.88545) rotate(-91.5971) scale(3.49974 1.69202)">
<stop stop-color="white"/>
<stop offset="1" stop-color="white" stop-opacity="0"/>
</radialGradient>
<radialGradient id="paint9_radial_420_8922" cx="0" cy="0" r="1" gradientUnits="userSpaceOnUse" gradientTransform="translate(334.227 1051.8) rotate(-100.424) scale(1.01406 3.19345)">
<stop offset="0.51" stop-color="white"/>
<stop offset="1" stop-color="white" stop-opacity="0"/>
</radialGradient>
<radialGradient id="paint10_radial_420_8922" cx="0" cy="0" r="1" gradientUnits="userSpaceOnUse" gradientTransform="translate(334.07 1050.24) rotate(-100.424) scale(0.544741 1.71549)">
<stop offset="0.51" stop-color="white"/>
<stop offset="1" stop-color="white" stop-opacity="0"/>
</radialGradient>
<radialGradient id="paint11_radial_420_8922" cx="0" cy="0" r="1" gradientUnits="userSpaceOnUse" gradientTransform="translate(-80.8688 -1245.43) rotate(-95.8292) scale(15.5114 81.3585)">
<stop offset="0.51" stop-color="white"/>
<stop offset="1" stop-color="white" stop-opacity="0"/>
</radialGradient>
<radialGradient id="paint12_radial_420_8922" cx="0" cy="0" r="1" gradientUnits="userSpaceOnUse" gradientTransform="translate(16.2025 35.4134) rotate(-91.7603) scale(2.09269 1.00558)">
<stop offset="0.51" stop-color="white"/>
<stop offset="1" stop-color="white" stop-opacity="0"/>
</radialGradient>
</defs>
</svg>
