<svg width="155" height="74" viewBox="0 0 155 74" fill="none" xmlns="http://www.w3.org/2000/svg">
<path d="M149.995 44.1457C149.99 45.6361 149.963 47.1366 149.919 48.6271C149.838 51.578 149.691 54.5189 149.474 57.4598C149.355 59.1103 149.219 60.7709 149.056 62.4214C148.774 65.3223 147.09 67.8931 144.548 69.7437C142.181 71.7343 138.901 73.0447 135.197 73.2648C118.753 74.2451 36.2507 74.2451 19.8012 73.2648C16.0975 73.0447 12.8174 71.7243 10.4497 69.7437C7.91356 67.8931 6.23006 65.3223 5.94767 62.4214C5.84449 61.331 5.74673 60.2307 5.65441 59.1404C5.39374 55.9193 5.2091 52.6883 5.10592 49.4673C5.04618 47.6368 5.0136 45.8062 5.00817 43.9756C4.99731 42.6752 5.00817 41.3648 5.02989 40.0644V40.0144C5.06247 38.1338 5.11678 36.2532 5.19824 34.3726C5.26341 32.8721 5.34487 31.3717 5.44805 29.8712C5.58381 27.8406 5.75216 25.8099 5.94767 23.7893C6.0943 22.2588 6.63193 20.8284 7.47911 19.538C8.23397 18.3776 9.2495 17.3373 10.4497 16.467C12.8174 14.4764 16.0975 13.166 19.8012 12.9359C36.2507 11.9556 118.753 11.9556 135.197 12.9359C138.901 13.156 142.181 14.4764 144.548 16.467C146.08 17.5874 147.296 18.9578 148.084 20.5183C148.605 21.5386 148.942 22.6489 149.056 23.7993C149.262 25.93 149.442 28.0706 149.577 30.2013C149.68 31.8018 149.773 33.4123 149.833 35.0128C149.898 36.6333 149.947 38.2638 149.974 39.8843C149.995 41.3148 150.006 42.7352 149.995 44.1557V44.1457Z" fill="url(#paint0_radial_420_8798)"/>
<path d="M149.919 45.8762C149.876 47.4367 149.816 48.9972 149.735 50.5577C149.599 53.2185 149.414 55.8794 149.17 58.5402C149.132 58.9603 149.094 59.3805 149.05 59.8006C148.768 62.7015 147.085 65.2723 144.543 67.1229C142.175 69.1135 138.895 70.4239 135.191 70.654C118.747 71.6343 36.2451 71.6343 19.7957 70.654C16.092 70.4339 12.8119 69.1135 10.4441 67.1229C8.03293 65.3623 6.39831 62.9616 5.99644 60.2407C5.97472 60.1007 5.95843 59.9506 5.94213 59.8006C5.6706 57.0297 5.45881 54.2589 5.30675 51.488C5.20357 49.6574 5.12754 47.8168 5.07866 45.9863C5.00806 43.5955 4.98634 41.2048 5.00806 38.814V38.784C5.01349 38.1938 5.02436 37.6037 5.02979 37.0135C5.05694 35.3529 5.10581 33.6924 5.17641 32.0319C5.30675 28.981 5.50768 25.93 5.77921 22.8791C5.82809 22.3089 5.8824 21.7287 5.9367 21.1585C6.2191 18.2576 7.90259 15.6868 10.4387 13.8362C12.8065 11.8556 16.0866 10.5352 19.7903 10.3151C36.2397 9.33482 118.742 9.33482 135.186 10.3151C138.89 10.5352 142.17 11.8556 144.538 13.8362C147.074 15.6868 148.757 18.2576 149.045 21.1585C149.121 21.9188 149.186 22.679 149.251 23.4292C149.501 26.3101 149.686 29.191 149.811 32.0819C149.887 33.8725 149.936 35.663 149.963 37.4536C149.963 37.7437 149.974 38.0338 149.979 38.3239V38.4239C150.001 40.9047 149.979 43.3955 149.914 45.8762H149.919Z" fill="url(#paint1_radial_420_8798)"/>
<g style="mix-blend-mode:hard-light" opacity="0.2">
<path d="M149.051 18.5477C148.768 15.6468 147.085 13.076 144.549 11.2254C142.181 9.23476 138.901 7.92435 135.197 7.69428C118.753 6.71397 36.2453 6.71397 19.8013 7.69428C16.0976 7.91434 12.8175 9.23476 10.4497 11.2254C7.91359 13.076 6.23009 15.6468 5.94769 18.5477C4.69322 31.4317 4.69322 44.3057 5.94769 57.1897C6.23009 60.0906 7.91359 62.6614 10.4497 64.512C12.8175 66.5027 16.0976 67.8131 19.8013 68.0431C36.2453 69.0234 118.753 69.0234 135.197 68.0431C138.901 67.8231 142.181 66.5027 144.549 64.512C147.085 62.6614 148.768 60.0906 149.051 57.1897C150.305 44.3057 150.305 31.4317 149.051 18.5477Z" fill="white"/>
</g>
<path d="M149.637 48.7871C149.491 51.2679 149.295 53.7487 149.051 56.2294C148.768 59.1304 147.085 61.7012 144.549 63.5517C142.181 65.5424 138.901 66.8528 135.192 67.0828C118.748 68.0732 36.2401 68.0732 19.7961 67.0828C16.0924 66.8628 12.8123 65.5424 10.4445 63.5517C7.90842 61.7012 6.22492 59.1304 5.94253 56.2294C5.71987 53.9287 5.53523 51.638 5.3886 49.3373C4.72607 38.754 4.91071 28.1707 5.94253 17.5874C6.22492 14.6865 7.90842 12.1157 10.4445 10.2651C12.8123 8.28447 16.0924 6.96406 19.7961 6.73398C36.2455 5.75368 118.748 5.75368 135.197 6.74399C138.901 6.96406 142.181 8.28447 144.554 10.2751C147.09 12.1357 148.774 14.6965 149.056 17.5974C150.066 28.0006 150.267 38.3939 149.643 48.7971L149.637 48.7871Z" fill="url(#paint2_radial_420_8798)"/>
<g style="mix-blend-mode:overlay" opacity="0.8" filter="url(#filter0_f_420_8798)">
<path d="M12.2964 17.0772C14.5338 15.2466 17.6401 14.0263 21.1429 13.8162C36.6962 12.9059 118.302 12.9059 133.856 13.8162C137.359 14.0263 140.46 15.2366 142.702 17.0772C144.332 18.2476 145.591 19.718 146.314 21.3785C146.254 20.6983 146.2 20.0181 146.135 19.3279C145.874 16.6471 144.321 14.2763 141.975 12.5558C139.786 10.7252 136.756 9.50484 133.329 9.29477C118.129 8.38449 36.8755 8.38449 21.6751 9.29477C18.2484 9.50484 15.2181 10.7152 13.0295 12.5558C10.6835 14.2763 9.13031 16.6471 8.86964 19.3279C8.80447 20.0081 8.75017 20.6883 8.69043 21.3785C9.41271 19.718 10.6672 18.2476 12.3018 17.0772H12.2964Z" fill="url(#paint3_linear_420_8798)"/>
</g>
<g style="mix-blend-mode:soft-light" opacity="0.75" filter="url(#filter1_f_420_8798)">
<path d="M143.984 48.6271C141.654 50.5777 138.428 51.8781 134.784 52.0982C118.612 53.0685 36.3808 53.0685 20.2084 52.0982C16.5644 51.8781 13.3386 50.5877 11.0089 48.6271C10.6287 48.347 10.2703 48.0569 9.93359 47.7468C10.0639 49.8275 10.2268 51.9081 10.4278 53.9788C10.6776 56.5396 12.1656 58.8103 14.4084 60.4508C16.4992 62.2013 19.3992 63.3717 22.6739 63.5618C37.2063 64.432 117.792 64.432 132.324 63.5618C135.599 63.3617 138.493 62.2013 140.589 60.4508C142.832 58.8103 144.32 56.5396 144.57 53.9788C144.771 51.8981 144.939 49.8175 145.064 47.7468C144.728 48.0569 144.369 48.347 143.989 48.6271H143.984Z" fill="url(#paint4_linear_420_8798)"/>
</g>
<path style="mix-blend-mode:overlay" opacity="0.6" d="M149.99 37.4636C149.99 37.7437 149.99 38.0338 149.99 38.3139V38.4139C149.99 38.9041 149.979 39.3842 149.974 39.8744C149.952 41.2648 149.92 42.6552 149.871 44.0357C149.849 44.6058 149.827 45.176 149.806 45.7462C149.768 46.6365 149.719 47.5268 149.664 48.417C149.659 48.5371 149.654 48.6671 149.643 48.7872C149.089 48.9372 148.54 49.0972 147.986 49.2373C145.081 50.0175 142.17 50.7078 139.265 51.3079C138.238 51.518 137.212 51.7181 136.186 51.9181C118.731 55.1791 35.1973 55.2992 17.6998 52.1182C16.7711 51.9481 15.8425 51.7681 14.9084 51.588C12.2909 51.0579 9.66785 50.4577 7.04485 49.7775C6.49093 49.6374 5.94243 49.4874 5.38851 49.3373C5.38851 49.2873 5.38307 49.2273 5.37764 49.1773C5.31248 48.0669 5.24731 46.9466 5.20386 45.8362C5.17128 45.176 5.14956 44.5258 5.12784 43.8656C5.08439 42.6052 5.05181 41.3348 5.03008 40.0744V40.0244C5.02465 39.6243 5.01922 39.2242 5.01379 38.814V38.784C5.00836 38.2038 5.00293 37.6237 5.00293 37.0435C5.00293 36.2032 5.00836 35.353 5.01922 34.5127C5.03008 33.7324 5.04094 32.9422 5.06267 32.162C5.07353 31.4917 5.09525 30.8315 5.1224 30.1613C5.20386 27.8006 5.32334 25.4399 5.49169 23.0791C5.55142 22.2389 5.61116 21.3986 5.68176 20.5583C5.75779 19.568 5.85011 18.5777 5.94786 17.5874C6.23025 14.6865 7.91375 12.1157 10.4499 10.2651C12.8176 8.2845 16.0977 6.96408 19.8014 6.74401C36.2454 5.7537 118.748 5.7537 135.192 6.74401C138.901 6.96408 142.181 8.2845 144.549 10.2651C147.085 12.1257 148.768 14.6965 149.051 17.5874C149.17 18.8078 149.279 20.0182 149.371 21.2385C149.431 22.0288 149.491 22.819 149.539 23.6093C149.697 25.89 149.806 28.1607 149.882 30.4314C149.903 31.0116 149.914 31.5918 149.93 32.172C149.952 33.1523 149.968 34.1226 149.979 35.1129C149.985 35.8931 149.985 36.6734 149.979 37.4636H149.99Z" fill="url(#paint5_radial_420_8798)"/>
<g style="mix-blend-mode:soft-light" opacity="0.6">
<path d="M126.644 15.9669C126.666 19.7581 115.223 17.3574 74.2384 17.3574C40.6227 17.3574 27.8987 19.8681 27.877 16.077C27.8553 12.2858 40.1339 9.16479 74.8846 9.16479C114.735 9.16479 126.622 12.1757 126.644 15.9669Z" fill="white"/>
</g>
<path d="M132.394 11.9507C132.41 11.2883 131.387 10.6708 130.111 10.5714C128.834 10.472 127.787 10.9284 127.772 11.5908C127.756 12.2532 128.779 12.8707 130.056 12.97C131.332 13.0694 132.379 12.613 132.394 11.9507Z" fill="url(#paint6_radial_420_8798)"/>
<path d="M135.679 12.5122C135.687 12.159 135.138 11.8293 134.452 11.7759C133.765 11.7225 133.202 11.9655 133.194 12.3188C133.186 12.672 133.736 13.0017 134.422 13.0552C135.108 13.1086 135.671 12.8655 135.679 12.5122Z" fill="url(#paint7_radial_420_8798)"/>
<path d="M145.156 51.7181C145.156 53.6487 144.027 55.2092 143.37 55.2092C142.713 55.2092 143.571 54.0688 143.571 52.1382C143.571 50.2076 142.713 48.227 143.37 48.227C144.027 48.227 145.156 49.7875 145.156 51.7181Z" fill="url(#paint8_radial_420_8798)"/>
<path d="M144.34 20.662C144.433 19.5816 143.737 18.4811 142.786 18.204C141.835 17.9269 140.989 18.5781 140.897 19.6585C140.804 20.7389 141.499 21.8395 142.45 22.1166C143.401 22.3937 144.247 21.7425 144.34 20.662Z" fill="url(#paint9_radial_420_8798)"/>
<path d="M144.308 24.2461C144.358 23.6677 143.983 23.0777 143.47 22.9284C142.958 22.779 142.502 23.1268 142.452 23.7053C142.403 24.2837 142.778 24.8736 143.29 25.023C143.803 25.1723 144.259 24.8245 144.308 24.2461Z" fill="url(#paint10_radial_420_8798)"/>
<path d="M125.677 10.7853C125.704 11.2755 29.5818 11.6156 25.3839 12.1357C16.8632 13.1861 18.7531 17.2273 17.5366 17.1673C16.3201 17.1073 15.3969 11.8156 25.2427 11.0554C33.9643 10.3852 125.65 10.2951 125.677 10.7853Z" fill="url(#paint11_radial_420_8798)"/>
<path d="M17.3332 22.3609C17.7012 21.3788 17.6093 20.0866 17.1279 19.4747C16.6466 18.8628 15.9581 19.1629 15.5901 20.1451C15.2221 21.1272 15.314 22.4194 15.7954 23.0313C16.2768 23.6432 16.9653 23.3431 17.3332 22.3609Z" fill="url(#paint12_radial_420_8798)"/>
<defs>
<filter id="filter0_f_420_8798" x="0.69043" y="0.612061" width="153.623" height="28.7665" filterUnits="userSpaceOnUse" color-interpolation-filters="sRGB">
<feFlood flood-opacity="0" result="BackgroundImageFix"/>
<feBlend mode="normal" in="SourceGraphic" in2="BackgroundImageFix" result="shape"/>
<feGaussianBlur stdDeviation="4" result="effect1_foregroundBlur_420_8798"/>
</filter>
<filter id="filter1_f_420_8798" x="1.93359" y="39.7468" width="151.131" height="32.4677" filterUnits="userSpaceOnUse" color-interpolation-filters="sRGB">
<feFlood flood-opacity="0" result="BackgroundImageFix"/>
<feBlend mode="normal" in="SourceGraphic" in2="BackgroundImageFix" result="shape"/>
<feGaussianBlur stdDeviation="4" result="effect1_foregroundBlur_420_8798"/>
</filter>
<radialGradient id="paint0_radial_420_8798" cx="0" cy="0" r="1" gradientUnits="userSpaceOnUse" gradientTransform="translate(77.4631 43.0109) scale(66.8705 52.1467)">
<stop/>
<stop offset="0.84" stop-opacity="0.2"/>
</radialGradient>
<radialGradient id="paint1_radial_420_8798" cx="0" cy="0" r="1" gradientUnits="userSpaceOnUse" gradientTransform="translate(77.463 40.3827) scale(66.8705 52.1467)">
<stop stop-color="#CF3101"/>
<stop offset="0.04" stop-color="#F79422"/>
<stop offset="0.98" stop-color="#CF3101"/>
</radialGradient>
<radialGradient id="paint2_radial_420_8798" cx="0" cy="0" r="1" gradientUnits="userSpaceOnUse" gradientTransform="translate(77.7687 31.4879) rotate(-91.3742) scale(53.2994 70.9407)">
<stop stop-color="#CF3101"/>
<stop offset="0.0001" stop-color="#F89D02"/>
<stop offset="0.98" stop-color="#CF3101"/>
</radialGradient>
<linearGradient id="paint3_linear_420_8798" x1="77.4967" y1="21.3785" x2="77.4967" y2="8.61456" gradientUnits="userSpaceOnUse">
<stop stop-color="white" stop-opacity="0"/>
<stop offset="1" stop-color="white"/>
</linearGradient>
<linearGradient id="paint4_linear_420_8798" x1="77.4962" y1="64.222" x2="77.4962" y2="47.7468" gradientUnits="userSpaceOnUse">
<stop/>
<stop offset="0.09" stop-color="#0C0C0C"/>
<stop offset="0.24" stop-color="#2C2C2C"/>
<stop offset="0.46" stop-color="#616161"/>
<stop offset="0.71" stop-color="#AAAAAA"/>
<stop offset="0.98" stop-color="white"/>
</linearGradient>
<radialGradient id="paint5_radial_420_8798" cx="0" cy="0" r="1" gradientUnits="userSpaceOnUse" gradientTransform="translate(78.0213 19.0205) scale(69.1993 53.9627)">
<stop stop-color="white"/>
<stop offset="1" stop-color="white" stop-opacity="0"/>
</radialGradient>
<radialGradient id="paint6_radial_420_8798" cx="0" cy="0" r="1" gradientUnits="userSpaceOnUse" gradientTransform="translate(663.05 73.1623) rotate(-171.063) scale(1.14282 2.26321)">
<stop offset="0.51" stop-color="white"/>
<stop offset="1" stop-color="white" stop-opacity="0"/>
</radialGradient>
<radialGradient id="paint7_radial_420_8798" cx="0" cy="0" r="1" gradientUnits="userSpaceOnUse" gradientTransform="translate(665.976 73.5961) rotate(-171.063) scale(0.613477 1.21491)">
<stop offset="0.51" stop-color="white"/>
<stop offset="1" stop-color="white" stop-opacity="0"/>
</radialGradient>
<radialGradient id="paint8_radial_420_8798" cx="0" cy="0" r="1" gradientUnits="userSpaceOnUse" gradientTransform="translate(133.179 6.36945) rotate(-91.5971) scale(3.49974 1.69202)">
<stop stop-color="white"/>
<stop offset="1" stop-color="white" stop-opacity="0"/>
</radialGradient>
<radialGradient id="paint9_radial_420_8798" cx="0" cy="0" r="1" gradientUnits="userSpaceOnUse" gradientTransform="translate(334.227 1052.28) rotate(-100.424) scale(1.01406 3.19345)">
<stop offset="0.51" stop-color="white"/>
<stop offset="1" stop-color="white" stop-opacity="0"/>
</radialGradient>
<radialGradient id="paint10_radial_420_8798" cx="0" cy="0" r="1" gradientUnits="userSpaceOnUse" gradientTransform="translate(334.07 1050.72) rotate(-100.424) scale(0.544741 1.71549)">
<stop offset="0.51" stop-color="white"/>
<stop offset="1" stop-color="white" stop-opacity="0"/>
</radialGradient>
<radialGradient id="paint11_radial_420_8798" cx="0" cy="0" r="1" gradientUnits="userSpaceOnUse" gradientTransform="translate(-80.8688 -1244.94) rotate(-95.8292) scale(15.5114 81.3585)">
<stop offset="0.51" stop-color="white"/>
<stop offset="1" stop-color="white" stop-opacity="0"/>
</radialGradient>
<radialGradient id="paint12_radial_420_8798" cx="0" cy="0" r="1" gradientUnits="userSpaceOnUse" gradientTransform="translate(16.2025 35.8975) rotate(-91.7603) scale(2.09269 1.00558)">
<stop offset="0.51" stop-color="white"/>
<stop offset="1" stop-color="white" stop-opacity="0"/>
</radialGradient>
</defs>
</svg>
