<svg width="62" height="60" viewBox="0 0 62 60" fill="none" xmlns="http://www.w3.org/2000/svg">
<g id="GAME VIEW">
<g id="Group">
<g id="Group_2">
<path id="Vector" d="M30.8404 59.99C45.0286 59.99 56.5304 47.9912 56.5304 33.19C56.5304 18.3888 45.0286 6.39001 30.8404 6.39001C16.6522 6.39001 5.15039 18.3888 5.15039 33.19C5.15039 47.9912 16.6522 59.99 30.8404 59.99Z" fill="url(#paint0_radial_473_11338)"/>
<path id="Vector_2" d="M56.5304 30.06C56.5304 30.92 56.4804 31.77 56.3804 32.6C56.3404 32.98 56.2804 33.37 56.2204 33.74C56.1104 34.38 55.9704 35.01 55.8004 35.62C55.6804 36.06 55.5504 36.49 55.4104 36.92C54.9604 38.25 54.4004 39.52 53.7104 40.74C53.5704 41 53.4204 41.25 53.2604 41.51C48.8604 48.67 40.4704 53.51 30.8404 53.51C21.2104 53.51 13.0104 48.78 8.57039 41.76C8.41039 41.51 8.26039 41.26 8.11039 41.01C7.41039 39.81 6.83039 38.54 6.37039 37.23C6.22039 36.8 6.08039 36.37 5.96039 35.93C5.75039 35.2 5.58039 34.46 5.46039 33.7C5.39039 33.28 5.33039 32.85 5.28039 32.42C5.19039 31.65 5.15039 30.86 5.15039 30.07C5.15039 29.52 5.17039 28.97 5.21039 28.43C5.24039 27.98 5.29039 27.54 5.35039 27.11C5.45039 26.37 5.59039 25.64 5.77039 24.92C6.01039 23.91 6.33039 22.94 6.71039 21.99C6.96039 21.37 7.23039 20.77 7.53039 20.18C8.81039 17.66 10.5704 15.39 12.7104 13.45C13.5004 12.73 14.3504 12.05 15.2504 11.42C19.5704 8.39999 24.9704 6.60999 30.8304 6.60999C36.6904 6.60999 42.5504 8.55999 46.9604 11.81C47.8604 12.47 48.7004 13.18 49.4904 13.95C51.5304 15.92 53.2004 18.21 54.4004 20.73C54.6504 21.26 54.8804 21.8 55.0904 22.34C55.4804 23.36 55.8004 24.42 56.0304 25.51C56.1704 26.17 56.2904 26.84 56.3604 27.52C56.4004 27.82 56.4304 28.12 56.4504 28.42C56.4904 28.96 56.5104 29.51 56.5104 30.06H56.5304Z" fill="url(#paint1_radial_473_11338)"/>
<g id="Vector_3" style="mix-blend-mode:hard-light" opacity="0.2">
<path d="M30.8404 51.16C45.0286 51.16 56.5304 40.6611 56.5304 27.71C56.5304 14.7589 45.0286 4.26001 30.8404 4.26001C16.6522 4.26001 5.15039 14.7589 5.15039 27.71C5.15039 40.6611 16.6522 51.16 30.8404 51.16Z" fill="white"/>
</g>
<path id="Vector_4" d="M56.5299 26.77C56.5299 29.42 56.0499 31.96 55.1699 34.33C51.7299 43.57 42.1399 50.22 30.8499 50.22C19.5599 50.22 9.87993 43.51 6.47993 34.19C5.62993 31.86 5.16993 29.36 5.16993 26.77C5.15993 13.82 16.6599 3.32001 30.8399 3.32001C45.0199 3.32001 56.5299 13.82 56.5299 26.77Z" fill="url(#paint2_radial_473_11338)"/>
<path id="Vector_5" style="mix-blend-mode:overlay" opacity="0.2" d="M30.84 8.95997C42.33 8.95997 51.94 17.13 54.39 28.07C53.63 15.18 43.38 4.96997 30.84 4.96997C18.3 4.96997 8.04004 15.18 7.29004 28.07C9.75004 17.13 19.36 8.95997 30.84 8.95997Z" fill="url(#paint3_linear_473_11338)"/>
<g id="Group_3" style="mix-blend-mode:overlay" filter="url(#filter0_f_473_11338)">
<path id="Vector_6" d="M30.84 41.55C22.05 41.55 14.09 38.36 8.29004 33.19C10.63 42.5 19.83 49.45 30.84 49.45C41.85 49.45 51.05 42.5 53.39 33.19C47.59 38.36 39.63 41.55 30.84 41.55Z" fill="url(#paint4_linear_473_11338)"/>
</g>
<path id="Vector_7" style="mix-blend-mode:overlay" opacity="0.6" d="M56.5304 28.33C56.5304 28.63 56.5304 28.94 56.5104 29.24C56.5104 29.52 56.4904 29.8 56.4704 30.09C56.3704 31.44 56.1704 32.77 55.8604 34.05C55.7704 34.41 55.6804 34.77 55.5804 35.12C55.4604 35.55 55.3204 35.97 55.1804 36.39C54.9304 36.49 54.6804 36.59 54.4404 36.69C53.8504 36.92 53.2604 37.14 52.6704 37.36C50.0904 38.29 47.5104 39.06 44.9304 39.67C43.6904 39.96 42.4604 40.21 41.2204 40.43C34.2504 41.64 27.2604 41.64 20.2804 40.38C19.0504 40.16 17.8204 39.9 16.5904 39.6C14.1204 39 11.6504 38.24 9.17043 37.31C8.62043 37.1 8.06043 36.89 7.51043 36.67C7.17043 36.53 6.83043 36.4 6.50043 36.25C6.36043 35.84 6.23043 35.42 6.11043 35C6.00043 34.61 5.90043 34.22 5.81043 33.82C5.53043 32.61 5.34043 31.36 5.25043 30.09C5.22043 29.68 5.20043 29.27 5.19043 28.86C5.19043 28.68 5.19043 28.51 5.19043 28.33C5.19043 27.82 5.21043 27.31 5.24043 26.8C5.29043 25.99 5.38043 25.2 5.51043 24.42C5.61043 23.8 5.73043 23.19 5.88043 22.59C6.50043 20.01 7.53043 17.58 8.91043 15.38C9.43043 14.55 9.99043 13.75 10.6004 12.99C15.2604 7.10001 22.6004 3.32001 30.8404 3.32001C39.0804 3.32001 46.9804 7.39001 51.6404 13.66C52.2104 14.43 52.7404 15.23 53.2204 16.06C54.4704 18.2 55.3904 20.54 55.9404 23.01C56.0604 23.53 56.1604 24.06 56.2404 24.6C56.3804 25.5 56.4704 26.41 56.5004 27.34C56.5204 27.67 56.5204 28 56.5204 28.33H56.5304Z" fill="url(#paint5_radial_473_11338)"/>
<g id="Group_4" style="mix-blend-mode:overlay" opacity="0.7">
<g id="Group_5">
<path id="Vector_8" d="M20.0129 12.1936C22.3045 10.5182 23.5466 8.31794 22.7871 7.27913C22.0277 6.24031 19.5543 6.75635 17.2626 8.43173C14.971 10.1071 13.7289 12.3074 14.4884 13.3462C15.2479 14.385 17.7213 13.869 20.0129 12.1936Z" fill="url(#paint6_radial_473_11338)"/>
<path id="Vector_9" d="M13.9801 16.4169C14.6984 15.5633 14.8319 14.4937 14.2783 14.0279C13.7247 13.5621 12.6937 13.8764 11.9754 14.73C11.2571 15.5836 11.1236 16.6533 11.6771 17.1191C12.2307 17.5849 13.2618 17.2706 13.9801 16.4169Z" fill="url(#paint7_radial_473_11338)"/>
<path id="Vector_10" d="M10.5598 19.5096C10.9474 19.049 11.0184 18.471 10.7183 18.2185C10.4183 17.966 9.86088 18.1348 9.47329 18.5954C9.08569 19.056 9.01471 19.634 9.31474 19.8865C9.61477 20.139 10.1722 19.9703 10.5598 19.5096Z" fill="url(#paint8_radial_473_11338)"/>
</g>
<g id="Group_6">
<path id="Vector_11" d="M41.1376 9.64658C41.5421 9.0335 41.1227 8.04331 40.2008 7.43495C39.2788 6.82658 38.2035 6.83041 37.7989 7.4435C37.3944 8.05658 37.8138 9.04677 38.7357 9.65513C39.6577 10.2635 40.733 10.2597 41.1376 9.64658Z" fill="url(#paint9_radial_473_11338)"/>
<path id="Vector_12" d="M43.5385 11.2157C43.7545 10.8885 43.5297 10.3593 43.0365 10.0338C42.5433 9.70834 41.9683 9.70981 41.7524 10.0371C41.5364 10.3644 41.7612 10.8936 42.2544 11.219C42.7476 11.5445 43.3226 11.543 43.5385 11.2157Z" fill="url(#paint10_radial_473_11338)"/>
</g>
<path id="Vector_13" d="M51.3932 20.464C51.7221 20.2607 51.732 19.6808 51.4154 19.1688C51.0988 18.6568 50.5756 18.4065 50.2467 18.6098C49.9179 18.8131 49.908 19.393 50.2246 19.9051C50.5412 20.4171 51.0644 20.6673 51.3932 20.464Z" fill="url(#paint11_radial_473_11338)"/>
<path id="Vector_14" d="M53.2197 36.7C52.7397 38.82 51.4197 40.31 50.8697 40.17C50.3197 40.03 51.3197 38.95 51.7997 36.83C52.2797 34.71 52.0697 32.36 52.6097 32.49C53.1497 32.62 53.6897 34.57 53.2097 36.69L53.2197 36.7Z" fill="url(#paint12_radial_473_11338)"/>
</g>
<path id="Vector_15" opacity="0.2" d="M57.31 18.3C55.91 15 53.92 12.04 51.38 9.50002C48.84 6.96002 45.88 4.96001 42.58 3.57001C39.16 2.12001 35.54 1.39001 31.8 1.39001H30.98C27.24 1.39001 23.61 2.12001 20.2 3.57001C16.9 4.96001 13.94 6.96002 11.4 9.50002C8.86004 12.04 6.86004 15 5.47004 18.3C4.02004 21.72 3.29004 25.34 3.29004 29.08C3.29004 32.82 4.02004 36.45 5.47004 39.86C6.86004 43.16 8.86004 46.12 11.4 48.66C13.94 51.2 16.9 53.2 20.2 54.59C23.62 56.03 27.24 56.77 30.98 56.77H31.8C35.54 56.77 39.17 56.04 42.58 54.59C45.88 53.19 48.84 51.2 51.38 48.66C53.92 46.12 55.92 43.16 57.31 39.86C58.75 36.44 59.49 32.82 59.49 29.08C59.49 25.34 58.76 21.72 57.31 18.3ZM56.29 29.08C56.29 42.61 45.32 53.58 31.79 53.58H30.97C17.44 53.58 6.47004 42.61 6.47004 29.08C6.46004 15.55 17.44 4.58001 30.97 4.58001H31.79C45.32 4.58001 56.29 15.55 56.29 29.08Z" fill="black"/>
<path id="Vector_16" d="M57.37 17.33C55.94 13.95 53.89 10.91 51.29 8.31C48.68 5.7 45.65 3.66 42.27 2.23C38.77 0.75 35.05 0 31.22 0H30.38C26.55 0 22.83 0.75 19.33 2.23C15.95 3.66 12.91 5.71 10.31 8.31C7.7 10.92 5.66 13.95 4.23 17.33C2.75 20.83 2 24.55 2 28.38C2 32.21 2.75 35.93 4.23 39.43C5.66 42.81 7.71 45.85 10.31 48.45C12.92 51.06 15.95 53.1 19.33 54.53C22.83 56.01 26.55 56.76 30.38 56.76H31.22C35.05 56.76 38.77 56.01 42.27 54.53C45.65 53.1 48.69 51.05 51.29 48.45C53.9 45.84 55.94 42.81 57.37 39.43C58.85 35.93 59.6 32.21 59.6 28.38C59.6 24.55 58.85 20.83 57.37 17.33ZM56.33 28.38C56.33 42.26 45.08 53.5 31.21 53.5H30.37C16.49 53.5 5.25 42.25 5.25 28.38C5.24 14.51 16.49 3.26 30.36 3.26H31.2C45.08 3.26 56.32 14.51 56.32 28.38H56.33Z" fill="#FFF1D8"/>
</g>
<g id="Group_7">
<g id="Group_8" opacity="0.2">
<path id="Vector_17" d="M42.3002 18.79C43.1902 19.69 43.0202 21.31 41.9102 22.41L23.9702 40.33C22.8602 41.44 21.2402 41.6 20.3402 40.71C19.4502 39.81 19.6202 38.19 20.7302 37.09L38.6702 19.17C39.7802 18.06 41.4002 17.9 42.3002 18.79Z" fill="black"/>
</g>
<g id="Group_9" opacity="0.2">
<path id="Vector_18" d="M20.3598 18.77C21.2598 17.88 22.8798 18.05 23.9798 19.16L41.8998 37.1C43.0098 38.21 43.1698 39.83 42.2798 40.73C41.3798 41.62 39.7598 41.45 38.6598 40.34L20.7398 22.4C19.6298 21.29 19.4698 19.67 20.3598 18.77Z" fill="black"/>
</g>
<path id="Vector_19" d="M19.2699 39.19C18.3799 38.29 18.5499 36.67 19.6599 35.56L37.6599 17.59C38.7699 16.48 40.3999 16.31 41.2899 17.21C42.1799 18.11 42.0099 19.73 40.8999 20.84L22.8999 38.81C21.7899 39.92 20.1599 40.09 19.2699 39.19Z" fill="white"/>
<path id="Vector_20" d="M41.2697 39.21C40.3697 40.1 38.7497 39.93 37.6397 38.82L19.6697 20.82C18.5597 19.71 18.3897 18.08 19.2897 17.19C20.1897 16.3 21.8097 16.47 22.9197 17.58L40.8897 35.58C41.9997 36.69 42.1697 38.32 41.2697 39.21Z" fill="white"/>
</g>
</g>
</g>
<defs>
<filter id="filter0_f_473_11338" x="0.290039" y="25.19" width="61.0996" height="32.26" filterUnits="userSpaceOnUse" color-interpolation-filters="sRGB">
<feFlood flood-opacity="0" result="BackgroundImageFix"/>
<feBlend mode="normal" in="SourceGraphic" in2="BackgroundImageFix" result="shape"/>
<feGaussianBlur stdDeviation="4" result="effect1_foregroundBlur_473_11338"/>
</filter>
<radialGradient id="paint0_radial_473_11338" cx="0" cy="0" r="1" gradientUnits="userSpaceOnUse" gradientTransform="translate(30.4744 33.19) scale(25.728 26.8)">
<stop/>
<stop offset="0.84" stop-opacity="0.2"/>
</radialGradient>
<radialGradient id="paint1_radial_473_11338" cx="0" cy="0" r="1" gradientUnits="userSpaceOnUse" gradientTransform="translate(30.4744 28.1512) scale(25.728 23.584)">
<stop stop-color="#F97E10"/>
<stop offset="0.1" stop-color="#F5760E"/>
<stop offset="0.98" stop-color="#D63A00"/>
</radialGradient>
<radialGradient id="paint2_radial_473_11338" cx="0" cy="0" r="1" gradientUnits="userSpaceOnUse" gradientTransform="translate(29.8449 27.6842) rotate(-91.25) scale(25.8368 26.7176)">
<stop stop-color="#F97E10"/>
<stop offset="0.1" stop-color="#F5760E"/>
<stop offset="0.98" stop-color="#D63A00"/>
</radialGradient>
<linearGradient id="paint3_linear_473_11338" x1="30.84" y1="28.07" x2="30.84" y2="4.96997" gradientUnits="userSpaceOnUse">
<stop stop-color="white" stop-opacity="0"/>
<stop offset="1" stop-color="white"/>
</linearGradient>
<linearGradient id="paint4_linear_473_11338" x1="30.84" y1="49.45" x2="30.84" y2="33.19" gradientUnits="userSpaceOnUse">
<stop/>
<stop offset="0.09" stop-color="#0C0C0C"/>
<stop offset="0.24" stop-color="#2C2C2C"/>
<stop offset="0.46" stop-color="#616161"/>
<stop offset="0.71" stop-color="#AAAAAA"/>
<stop offset="0.98" stop-color="white"/>
</linearGradient>
<radialGradient id="paint5_radial_473_11338" cx="0" cy="0" r="1" gradientUnits="userSpaceOnUse" gradientTransform="translate(29.9464 18.1301) scale(28.1472 27.2676)">
<stop stop-color="white"/>
<stop offset="1" stop-color="white" stop-opacity="0"/>
</radialGradient>
<radialGradient id="paint6_radial_473_11338" cx="0" cy="0" r="1" gradientUnits="userSpaceOnUse" gradientTransform="translate(104.431 -58.4887) rotate(-34.05) scale(3.7642 2.9029)">
<stop offset="0.51" stop-color="white"/>
<stop offset="1" stop-color="white" stop-opacity="0"/>
</radialGradient>
<radialGradient id="paint7_radial_473_11338" cx="0" cy="0" r="1" gradientUnits="userSpaceOnUse" gradientTransform="translate(144.882 -60.5899) rotate(-45.96) scale(0.9844 2.5038)">
<stop offset="0.51" stop-color="white"/>
<stop offset="1" stop-color="white" stop-opacity="0"/>
</radialGradient>
<radialGradient id="paint8_radial_473_11338" cx="0" cy="0" r="1" gradientUnits="userSpaceOnUse" gradientTransform="translate(142.083 -57.1131) rotate(-45.96) scale(0.529 1.3455)">
<stop offset="0.51" stop-color="white"/>
<stop offset="1" stop-color="white" stop-opacity="0"/>
</radialGradient>
<radialGradient id="paint9_radial_473_11338" cx="0" cy="0" r="1" gradientUnits="userSpaceOnUse" gradientTransform="translate(-891.704 -541.987) rotate(-146.03) scale(0.9844 2.5252)">
<stop offset="0.51" stop-color="white"/>
<stop offset="1" stop-color="white" stop-opacity="0"/>
</radialGradient>
<radialGradient id="paint10_radial_473_11338" cx="0" cy="0" r="1" gradientUnits="userSpaceOnUse" gradientTransform="translate(-887.896 -539.577) rotate(-146.03) scale(0.529 1.357)">
<stop offset="0.51" stop-color="white"/>
<stop offset="1" stop-color="white" stop-opacity="0"/>
</radialGradient>
<radialGradient id="paint11_radial_473_11338" cx="0" cy="0" r="1" gradientUnits="userSpaceOnUse" gradientTransform="translate(-335.101 -713.589) rotate(-121.16) scale(0.5405 1.3225)">
<stop offset="0.51" stop-color="white"/>
<stop offset="1" stop-color="white" stop-opacity="0"/>
</radialGradient>
<radialGradient id="paint12_radial_473_11338" cx="0" cy="0" r="1" gradientUnits="userSpaceOnUse" gradientTransform="translate(49.7173 26.8472) rotate(-78.4) scale(3.9238 1.4501)">
<stop stop-color="white"/>
<stop offset="1" stop-color="white" stop-opacity="0"/>
</radialGradient>
</defs>
</svg>
