<svg width="62" height="60" viewBox="0 0 62 60" fill="none" xmlns="http://www.w3.org/2000/svg">
<g id="GAME VIEW">
<g id="Group">
<g id="Group_2">
<path id="Vector" d="M30.8404 59.98C45.0286 59.98 56.5304 47.9812 56.5304 33.18C56.5304 18.3788 45.0286 6.38 30.8404 6.38C16.6522 6.38 5.15039 18.3788 5.15039 33.18C5.15039 47.9812 16.6522 59.98 30.8404 59.98Z" fill="url(#paint0_radial_473_11403)"/>
<path id="Vector_2" d="M56.5304 30.05C56.5304 30.91 56.4804 31.76 56.3804 32.59C56.3404 32.97 56.2804 33.36 56.2204 33.73C56.1104 34.37 55.9704 35 55.8004 35.61C55.6804 36.05 55.5504 36.48 55.4104 36.91C54.9604 38.24 54.4004 39.51 53.7104 40.73C53.5704 40.99 53.4204 41.24 53.2604 41.5C48.8604 48.66 40.4704 53.5 30.8404 53.5C21.2104 53.5 13.0104 48.77 8.57039 41.75C8.41039 41.5 8.26039 41.25 8.11039 41C7.41039 39.8 6.83039 38.53 6.37039 37.22C6.22039 36.79 6.08039 36.36 5.96039 35.92C5.75039 35.19 5.58039 34.45 5.46039 33.69C5.39039 33.27 5.33039 32.84 5.28039 32.41C5.19039 31.64 5.15039 30.85 5.15039 30.06C5.15039 29.51 5.17039 28.96 5.21039 28.42C5.24039 27.97 5.29039 27.53 5.35039 27.1C5.45039 26.36 5.59039 25.63 5.77039 24.91C6.01039 23.9 6.33039 22.93 6.71039 21.98C6.96039 21.36 7.23039 20.76 7.53039 20.17C8.81039 17.65 10.5704 15.38 12.7104 13.44C13.5004 12.72 14.3504 12.04 15.2504 11.41C19.5704 8.38998 24.9704 6.59998 30.8304 6.59998C36.6904 6.59998 42.5504 8.54998 46.9604 11.8C47.8604 12.46 48.7004 13.17 49.4904 13.94C51.5304 15.91 53.2004 18.2 54.4004 20.72C54.6504 21.25 54.8804 21.79 55.0904 22.33C55.4804 23.35 55.8004 24.41 56.0304 25.5C56.1704 26.16 56.2904 26.83 56.3604 27.51C56.4004 27.81 56.4304 28.11 56.4504 28.41C56.4904 28.95 56.5104 29.5 56.5104 30.05H56.5304Z" fill="url(#paint1_radial_473_11403)"/>
<g id="Vector_3" style="mix-blend-mode:hard-light" opacity="0.2">
<path d="M30.8404 51.15C45.0286 51.15 56.5304 40.6511 56.5304 27.7C56.5304 14.7489 45.0286 4.25 30.8404 4.25C16.6522 4.25 5.15039 14.7489 5.15039 27.7C5.15039 40.6511 16.6522 51.15 30.8404 51.15Z" fill="white"/>
</g>
<path id="Vector_4" d="M56.5299 26.76C56.5299 29.41 56.0499 31.95 55.1699 34.32C51.7299 43.56 42.1399 50.21 30.8499 50.21C19.5599 50.21 9.87993 43.5 6.47993 34.18C5.62993 31.85 5.16993 29.35 5.16993 26.76C5.15993 13.81 16.6599 3.31 30.8399 3.31C45.0199 3.31 56.5299 13.81 56.5299 26.76Z" fill="url(#paint2_radial_473_11403)"/>
<path id="Vector_5" style="mix-blend-mode:overlay" opacity="0.2" d="M30.84 8.94996C42.33 8.94996 51.94 17.12 54.39 28.06C53.63 15.17 43.38 4.95996 30.84 4.95996C18.3 4.95996 8.04004 15.17 7.29004 28.06C9.75004 17.12 19.36 8.94996 30.84 8.94996Z" fill="url(#paint3_linear_473_11403)"/>
<g id="Group_3" style="mix-blend-mode:overlay" filter="url(#filter0_f_473_11403)">
<path id="Vector_6" d="M30.84 41.54C22.05 41.54 14.09 38.35 8.29004 33.18C10.63 42.49 19.83 49.44 30.84 49.44C41.85 49.44 51.05 42.49 53.39 33.18C47.59 38.35 39.63 41.54 30.84 41.54Z" fill="url(#paint4_linear_473_11403)"/>
</g>
<path id="Vector_7" style="mix-blend-mode:overlay" opacity="0.6" d="M56.5304 28.32C56.5304 28.62 56.5304 28.93 56.5104 29.23C56.5104 29.51 56.4904 29.79 56.4704 30.08C56.3704 31.43 56.1704 32.76 55.8604 34.04C55.7704 34.4 55.6804 34.76 55.5804 35.11C55.4604 35.54 55.3204 35.96 55.1804 36.38C54.9304 36.48 54.6804 36.58 54.4404 36.68C53.8504 36.91 53.2604 37.13 52.6704 37.35C50.0904 38.28 47.5104 39.05 44.9304 39.66C43.6904 39.95 42.4604 40.2 41.2204 40.42C34.2504 41.63 27.2604 41.63 20.2804 40.37C19.0504 40.15 17.8204 39.89 16.5904 39.59C14.1204 38.99 11.6504 38.23 9.17043 37.3C8.62043 37.09 8.06043 36.88 7.51043 36.66C7.17043 36.52 6.83043 36.39 6.50043 36.24C6.36043 35.83 6.23043 35.41 6.11043 34.99C6.00043 34.6 5.90043 34.21 5.81043 33.81C5.53043 32.6 5.34043 31.35 5.25043 30.08C5.22043 29.67 5.20043 29.26 5.19043 28.85C5.19043 28.67 5.19043 28.5 5.19043 28.32C5.19043 27.81 5.21043 27.3 5.24043 26.79C5.29043 25.98 5.38043 25.19 5.51043 24.41C5.61043 23.79 5.73043 23.18 5.88043 22.58C6.50043 20 7.53043 17.57 8.91043 15.37C9.43043 14.54 9.99043 13.74 10.6004 12.98C15.2604 7.09 22.6004 3.31 30.8404 3.31C39.0804 3.31 46.9804 7.38 51.6404 13.65C52.2104 14.42 52.7404 15.22 53.2204 16.05C54.4704 18.19 55.3904 20.53 55.9404 23C56.0604 23.52 56.1604 24.05 56.2404 24.59C56.3804 25.49 56.4704 26.4 56.5004 27.33C56.5204 27.66 56.5204 27.99 56.5204 28.32H56.5304Z" fill="url(#paint5_radial_473_11403)"/>
<g id="Group_4" style="mix-blend-mode:overlay" opacity="0.7">
<g id="Group_5">
<path id="Vector_8" d="M20.0129 12.1836C22.3045 10.5082 23.5466 8.30793 22.7871 7.26912C22.0277 6.2303 19.5543 6.74634 17.2626 8.42172C14.971 10.0971 13.7289 12.2974 14.4884 13.3362C15.2479 14.375 17.7213 13.859 20.0129 12.1836Z" fill="url(#paint6_radial_473_11403)"/>
<path id="Vector_9" d="M13.9801 16.4069C14.6984 15.5533 14.8319 14.4837 14.2783 14.0179C13.7247 13.5521 12.6937 13.8664 11.9754 14.72C11.2571 15.5736 11.1236 16.6433 11.6771 17.1091C12.2307 17.5749 13.2618 17.2605 13.9801 16.4069Z" fill="url(#paint7_radial_473_11403)"/>
<path id="Vector_10" d="M10.5598 19.4996C10.9474 19.039 11.0184 18.461 10.7183 18.2085C10.4183 17.956 9.86088 18.1248 9.47329 18.5854C9.08569 19.046 9.01471 19.624 9.31474 19.8765C9.61477 20.129 10.1722 19.9603 10.5598 19.4996Z" fill="url(#paint8_radial_473_11403)"/>
</g>
<g id="Group_6">
<path id="Vector_11" d="M41.1376 9.63657C41.5421 9.02349 41.1227 8.0333 40.2008 7.42494C39.2788 6.81657 38.2035 6.8204 37.7989 7.43349C37.3944 8.04657 37.8138 9.03676 38.7357 9.64512C39.6577 10.2535 40.733 10.2497 41.1376 9.63657Z" fill="url(#paint9_radial_473_11403)"/>
<path id="Vector_12" d="M43.5385 11.2057C43.7545 10.8785 43.5297 10.3493 43.0365 10.0238C42.5433 9.69833 41.9683 9.6998 41.7524 10.0271C41.5364 10.3544 41.7612 10.8835 42.2544 11.209C42.7476 11.5345 43.3226 11.533 43.5385 11.2057Z" fill="url(#paint10_radial_473_11403)"/>
</g>
<path id="Vector_13" d="M51.3932 20.454C51.7221 20.2507 51.732 19.6708 51.4154 19.1588C51.0988 18.6467 50.5756 18.3965 50.2467 18.5998C49.9179 18.8031 49.908 19.383 50.2246 19.895C50.5412 20.4071 51.0644 20.6573 51.3932 20.454Z" fill="url(#paint11_radial_473_11403)"/>
<path id="Vector_14" d="M53.2197 36.69C52.7397 38.81 51.4197 40.3 50.8697 40.16C50.3197 40.02 51.3197 38.94 51.7997 36.82C52.2797 34.7 52.0697 32.35 52.6097 32.48C53.1497 32.61 53.6897 34.56 53.2097 36.68L53.2197 36.69Z" fill="url(#paint12_radial_473_11403)"/>
</g>
<path id="Vector_15" opacity="0.2" d="M57.31 18.29C55.91 14.99 53.92 12.03 51.38 9.49001C48.84 6.95001 45.88 4.95 42.58 3.56C39.16 2.11 35.54 1.38 31.8 1.38H30.98C27.24 1.38 23.61 2.11 20.2 3.56C16.9 4.95 13.94 6.95001 11.4 9.49001C8.86004 12.03 6.86004 14.99 5.47004 18.29C4.02004 21.71 3.29004 25.33 3.29004 29.07C3.29004 32.81 4.02004 36.44 5.47004 39.85C6.86004 43.15 8.86004 46.11 11.4 48.65C13.94 51.19 16.9 53.19 20.2 54.58C23.62 56.02 27.24 56.76 30.98 56.76H31.8C35.54 56.76 39.17 56.03 42.58 54.58C45.88 53.18 48.84 51.19 51.38 48.65C53.92 46.11 55.92 43.15 57.31 39.85C58.75 36.43 59.49 32.81 59.49 29.07C59.49 25.33 58.76 21.71 57.31 18.29ZM56.29 29.07C56.29 42.6 45.32 53.57 31.79 53.57H30.97C17.44 53.57 6.47004 42.6 6.47004 29.07C6.46004 15.54 17.44 4.57 30.97 4.57H31.79C45.32 4.57 56.29 15.54 56.29 29.07Z" fill="black"/>
<path id="Vector_16" d="M57.37 17.32C55.94 13.94 53.89 10.9 51.29 8.29999C48.68 5.68999 45.65 3.64999 42.27 2.21999C38.77 0.73999 35.05 -0.0100098 31.22 -0.0100098H30.38C26.55 -0.0100098 22.83 0.73999 19.33 2.21999C15.95 3.64999 12.91 5.69999 10.31 8.29999C7.7 10.91 5.66 13.94 4.23 17.32C2.75 20.82 2 24.54 2 28.37C2 32.2 2.75 35.92 4.23 39.42C5.66 42.8 7.71 45.84 10.31 48.44C12.92 51.05 15.95 53.09 19.33 54.52C22.83 56 26.55 56.75 30.38 56.75H31.22C35.05 56.75 38.77 56 42.27 54.52C45.65 53.09 48.69 51.04 51.29 48.44C53.9 45.83 55.94 42.8 57.37 39.42C58.85 35.92 59.6 32.2 59.6 28.37C59.6 24.54 58.85 20.82 57.37 17.32ZM56.33 28.37C56.33 42.25 45.08 53.49 31.21 53.49H30.37C16.49 53.49 5.25 42.24 5.25 28.37C5.24 14.5 16.49 3.24999 30.36 3.24999H31.2C45.08 3.24999 56.32 14.5 56.32 28.37H56.33Z" fill="#FFF1D8"/>
</g>
<g id="Group_7">
<g id="Group_8" opacity="0.2">
<path id="Vector_17" d="M42.3002 18.78C43.1902 19.68 43.0202 21.3 41.9102 22.4L23.9702 40.32C22.8602 41.43 21.2402 41.59 20.3402 40.7C19.4502 39.8 19.6202 38.18 20.7302 37.08L38.6702 19.16C39.7802 18.05 41.4002 17.89 42.3002 18.78Z" fill="black"/>
</g>
<g id="Group_9" opacity="0.2">
<path id="Vector_18" d="M20.3598 18.76C21.2598 17.87 22.8798 18.04 23.9798 19.15L41.8998 37.09C43.0098 38.2 43.1698 39.82 42.2798 40.72C41.3798 41.61 39.7598 41.44 38.6598 40.33L20.7398 22.39C19.6298 21.28 19.4698 19.66 20.3598 18.76Z" fill="black"/>
</g>
<path id="Vector_19" d="M19.2699 39.18C18.3799 38.28 18.5499 36.66 19.6599 35.55L37.6599 17.58C38.7699 16.47 40.3999 16.3 41.2899 17.2C42.1799 18.1 42.0099 19.72 40.8999 20.83L22.8999 38.8C21.7899 39.91 20.1599 40.08 19.2699 39.18Z" fill="white"/>
<path id="Vector_20" d="M41.2697 39.2C40.3697 40.09 38.7497 39.92 37.6397 38.81L19.6697 20.81C18.5597 19.7 18.3897 18.07 19.2897 17.18C20.1897 16.29 21.8097 16.46 22.9197 17.57L40.8897 35.57C41.9997 36.68 42.1697 38.31 41.2697 39.2Z" fill="white"/>
</g>
</g>
</g>
<defs>
<filter id="filter0_f_473_11403" x="0.290039" y="25.18" width="61.0996" height="32.26" filterUnits="userSpaceOnUse" color-interpolation-filters="sRGB">
<feFlood flood-opacity="0" result="BackgroundImageFix"/>
<feBlend mode="normal" in="SourceGraphic" in2="BackgroundImageFix" result="shape"/>
<feGaussianBlur stdDeviation="4" result="effect1_foregroundBlur_473_11403"/>
</filter>
<radialGradient id="paint0_radial_473_11403" cx="0" cy="0" r="1" gradientUnits="userSpaceOnUse" gradientTransform="translate(30.4744 33.18) scale(25.728 26.8)">
<stop/>
<stop offset="0.84" stop-opacity="0.2"/>
</radialGradient>
<radialGradient id="paint1_radial_473_11403" cx="0" cy="0" r="1" gradientUnits="userSpaceOnUse" gradientTransform="translate(30.4744 28.1412) scale(25.728 23.584)">
<stop stop-color="#ECB400"/>
<stop offset="0.1" stop-color="#E49F00"/>
<stop offset="0.98" stop-color="#CD6700"/>
</radialGradient>
<radialGradient id="paint2_radial_473_11403" cx="0" cy="0" r="1" gradientUnits="userSpaceOnUse" gradientTransform="translate(29.8449 27.6742) rotate(-91.25) scale(25.8368 26.7176)">
<stop stop-color="#EDB700"/>
<stop offset="0.1" stop-color="#E5A200"/>
<stop offset="0.98" stop-color="#CE6800"/>
</radialGradient>
<linearGradient id="paint3_linear_473_11403" x1="30.84" y1="28.06" x2="30.84" y2="4.95996" gradientUnits="userSpaceOnUse">
<stop stop-color="white" stop-opacity="0"/>
<stop offset="1" stop-color="white"/>
</linearGradient>
<linearGradient id="paint4_linear_473_11403" x1="30.84" y1="49.44" x2="30.84" y2="33.18" gradientUnits="userSpaceOnUse">
<stop/>
<stop offset="0.09" stop-color="#0C0C0C"/>
<stop offset="0.24" stop-color="#2C2C2C"/>
<stop offset="0.46" stop-color="#616161"/>
<stop offset="0.71" stop-color="#AAAAAA"/>
<stop offset="0.98" stop-color="white"/>
</linearGradient>
<radialGradient id="paint5_radial_473_11403" cx="0" cy="0" r="1" gradientUnits="userSpaceOnUse" gradientTransform="translate(29.9464 18.1201) scale(28.1472 27.2676)">
<stop stop-color="white"/>
<stop offset="1" stop-color="white" stop-opacity="0"/>
</radialGradient>
<radialGradient id="paint6_radial_473_11403" cx="0" cy="0" r="1" gradientUnits="userSpaceOnUse" gradientTransform="translate(104.431 -58.4987) rotate(-34.05) scale(3.7642 2.9029)">
<stop offset="0.51" stop-color="white"/>
<stop offset="1" stop-color="white" stop-opacity="0"/>
</radialGradient>
<radialGradient id="paint7_radial_473_11403" cx="0" cy="0" r="1" gradientUnits="userSpaceOnUse" gradientTransform="translate(144.882 -60.5999) rotate(-45.96) scale(0.9844 2.5038)">
<stop offset="0.51" stop-color="white"/>
<stop offset="1" stop-color="white" stop-opacity="0"/>
</radialGradient>
<radialGradient id="paint8_radial_473_11403" cx="0" cy="0" r="1" gradientUnits="userSpaceOnUse" gradientTransform="translate(142.083 -57.1231) rotate(-45.96) scale(0.529 1.3455)">
<stop offset="0.51" stop-color="white"/>
<stop offset="1" stop-color="white" stop-opacity="0"/>
</radialGradient>
<radialGradient id="paint9_radial_473_11403" cx="0" cy="0" r="1" gradientUnits="userSpaceOnUse" gradientTransform="translate(-891.704 -541.997) rotate(-146.03) scale(0.9844 2.5252)">
<stop offset="0.51" stop-color="white"/>
<stop offset="1" stop-color="white" stop-opacity="0"/>
</radialGradient>
<radialGradient id="paint10_radial_473_11403" cx="0" cy="0" r="1" gradientUnits="userSpaceOnUse" gradientTransform="translate(-887.896 -539.587) rotate(-146.03) scale(0.529 1.357)">
<stop offset="0.51" stop-color="white"/>
<stop offset="1" stop-color="white" stop-opacity="0"/>
</radialGradient>
<radialGradient id="paint11_radial_473_11403" cx="0" cy="0" r="1" gradientUnits="userSpaceOnUse" gradientTransform="translate(-335.101 -713.599) rotate(-121.16) scale(0.5405 1.3225)">
<stop offset="0.51" stop-color="white"/>
<stop offset="1" stop-color="white" stop-opacity="0"/>
</radialGradient>
<radialGradient id="paint12_radial_473_11403" cx="0" cy="0" r="1" gradientUnits="userSpaceOnUse" gradientTransform="translate(49.7173 26.8372) rotate(-78.4) scale(3.9238 1.4501)">
<stop stop-color="white"/>
<stop offset="1" stop-color="white" stop-opacity="0"/>
</radialGradient>
</defs>
</svg>
