<svg width="85" height="89" viewBox="0 0 85 89" fill="none" xmlns="http://www.w3.org/2000/svg">
<path d="M42.5024 89C63.2117 89 79.9998 72.21 79.9998 51.4985C79.9998 30.787 63.2117 13.9969 42.5024 13.9969C21.7931 13.9969 5.00488 30.787 5.00488 51.4985C5.00488 72.21 21.7931 89 42.5024 89Z" fill="url(#paint0_radial_371_2224)"/>
<path d="M79.995 47.7468C79.995 49.1197 79.9246 50.4776 79.7737 51.8103C79.7083 52.4238 79.6279 53.0323 79.5323 53.6358C79.3714 54.6517 79.1703 55.6625 78.9239 56.6482C78.7529 57.3523 78.5618 58.0412 78.3506 58.7302C77.702 60.8525 76.8723 62.8943 75.8716 64.8405C75.6604 65.2529 75.4442 65.6602 75.2179 66.0626C68.8015 77.5086 56.5471 85.2433 42.4925 85.2433C28.4378 85.2433 16.465 77.6847 9.98827 66.4498C9.75696 66.0525 9.5357 65.6502 9.32451 65.2479C8.30875 63.3268 7.44888 61.3051 6.78009 59.203C6.55883 58.519 6.35769 57.83 6.1817 57.131C5.87999 55.9643 5.63359 54.7774 5.44754 53.5654C5.33691 52.8915 5.25645 52.2025 5.18605 51.5136C5.06034 50.2764 5 49.0191 5 47.7518C5 46.8718 5.03017 45.9967 5.09051 45.1317C5.1408 44.4176 5.20617 43.7135 5.29165 43.0145C5.44251 41.8276 5.64365 40.6609 5.90513 39.5143C6.26215 37.905 6.71975 36.3409 7.28294 34.8272C7.64499 33.8415 8.04224 32.8759 8.48475 31.9355C10.3604 27.9073 12.9249 24.2713 16.0426 21.1784C17.1991 20.0217 18.4361 18.9355 19.7435 17.9397C26.0543 13.1169 33.939 10.2503 42.4925 10.2503C51.0459 10.2503 59.5994 13.3633 66.0359 18.5633C67.3433 19.6194 68.5803 20.761 69.7318 21.983C72.7087 25.1312 75.1475 28.7974 76.8924 32.8257C77.2544 33.6705 77.5964 34.5305 77.8981 35.4055C78.4713 37.045 78.934 38.7348 79.2709 40.4698C79.4821 41.5259 79.643 42.5971 79.7586 43.6833C79.8089 44.1611 79.8542 44.6439 79.8843 45.1267C79.9447 45.9917 79.9749 46.8667 79.9749 47.7468H79.995Z" fill="url(#paint1_radial_371_2224)"/>
<g style="mix-blend-mode:hard-light" opacity="0.2">
<path d="M42.5024 81.5017C63.2117 81.5017 79.9998 64.7117 79.9998 44.0002C79.9998 23.2887 63.2117 6.49866 42.5024 6.49866C21.7931 6.49866 5.00488 23.2887 5.00488 44.0002C5.00488 64.7117 21.7931 81.5017 42.5024 81.5017Z" fill="white"/>
</g>
<path d="M79.9998 42.4965C79.9998 46.7259 79.3009 50.7894 78.0086 54.5863C72.9801 69.3666 58.9807 79.998 42.5024 79.998C26.024 79.998 11.8889 69.261 6.92074 54.365C5.67367 50.6335 5.00488 46.6455 5.00488 42.4965C5.00488 21.7869 21.795 5 42.5024 5C63.2097 5 79.9998 21.7869 79.9998 42.5015V42.4965Z" fill="url(#paint2_radial_371_2224)"/>
<g style="mix-blend-mode:overlay" opacity="0.8" filter="url(#filter0_f_371_2224)">
<path d="M42.502 13.6248C59.267 13.6248 73.2965 25.0508 76.8819 40.3642C75.7806 22.3301 60.8108 8.04761 42.502 8.04761C24.1933 8.04761 9.22346 22.3301 8.11719 40.3642C11.7025 25.0508 25.732 13.6248 42.497 13.6248H42.502Z" fill="url(#paint3_linear_371_2224)"/>
</g>
<g style="mix-blend-mode:soft-light" opacity="0.75" filter="url(#filter1_f_371_2224)">
<path d="M42.5023 63.4977C29.6746 63.4977 18.0538 58.343 9.59082 49.9948C13.0001 65.0266 26.4413 76.2463 42.5023 76.2463C58.5633 76.2463 72.0045 65.0266 75.4138 49.9948C66.9509 58.343 55.33 63.4977 42.5023 63.4977Z" fill="url(#paint4_linear_371_2224)"/>
</g>
<path style="mix-blend-mode:overlay" opacity="0.6" d="M79.9947 42.4965C79.9947 42.9541 79.9897 43.4067 79.9695 43.8594C79.9545 44.2818 79.9343 44.7042 79.9042 45.1317C79.7634 47.1634 79.4617 49.1499 79.0091 51.076C78.8834 51.6192 78.7476 52.1522 78.5968 52.6853C78.4157 53.329 78.2196 53.9627 78.0084 54.5964C77.6464 54.7472 77.2843 54.8931 76.9223 55.0389C76.0624 55.3809 75.1975 55.7178 74.3427 56.0397C70.5763 57.4378 66.8049 58.5944 63.0386 59.4997C61.2283 59.9372 59.4281 60.3144 57.6179 60.6362C47.4352 62.4517 37.2474 62.4517 27.0497 60.5658C25.2545 60.2339 23.4593 59.8416 21.6591 59.389C18.0537 58.4888 14.4432 57.3472 10.8328 55.9592C10.0232 55.6525 9.21359 55.3306 8.404 54.9936C7.91121 54.7925 7.41842 54.5813 6.92562 54.37C6.71945 53.7515 6.52837 53.1279 6.35237 52.4942C6.19146 51.9159 6.04564 51.3225 5.90987 50.729C5.50759 48.9085 5.23102 47.0427 5.10028 45.1317C5.06005 44.5232 5.02988 43.9097 5.01982 43.2911C5.01479 43.0296 5.00977 42.7681 5.00977 42.5015C5.00977 41.7321 5.03491 40.9677 5.08016 40.2133C5.15056 39.0063 5.2813 37.8195 5.46736 36.6477C5.60816 35.7224 5.78918 34.8071 6.00038 33.9069C6.90551 30.0345 8.41406 26.3935 10.4255 23.0894C11.1797 21.8422 12.0044 20.6453 12.8944 19.5037C19.7483 10.6728 30.464 5 42.5022 5C54.5404 5 66.0607 11.1103 72.8693 20.5045C73.704 21.6511 74.4734 22.8531 75.1724 24.0953C76.9876 27.3038 78.3403 30.809 79.1398 34.5154C79.3108 35.2999 79.4566 36.0945 79.5773 36.8941C79.7785 38.2419 79.9092 39.6149 79.9595 41.0079C79.9846 41.5007 79.9947 41.9986 79.9947 42.4965Z" fill="url(#paint5_radial_371_2224)"/>
<g style="mix-blend-mode:soft-light" opacity="0.6">
<path d="M57.5375 17.6933C57.5576 21.807 50.1305 19.1718 41.7782 19.207C33.4258 19.2422 27.3112 21.9378 27.2911 17.824C27.2709 13.7103 34.0292 10.3459 42.3816 10.3056C50.7339 10.2704 57.5173 13.5745 57.5375 17.6883V17.6933Z" fill="white"/>
</g>
<g style="mix-blend-mode:overlay" opacity="0.7">
<path d="M26.5665 18.794C29.9356 16.4834 31.8291 13.3884 30.7956 11.8812C29.7622 10.374 26.1932 11.0252 22.824 13.3358C19.4549 15.6464 17.5614 18.7414 18.5949 20.2486C19.6283 21.7559 23.1973 21.1046 26.5665 18.794Z" fill="url(#paint6_radial_371_2224)"/>
<path d="M17.7916 24.7182C18.8781 23.5554 19.1437 22.0379 18.3848 21.3286C17.6259 20.6194 16.1299 20.9871 15.0434 22.1499C13.9569 23.3127 13.6914 24.8303 14.4503 25.5395C15.2091 26.2487 16.7051 25.881 17.7916 24.7182Z" fill="url(#paint7_radial_371_2224)"/>
<path d="M12.8449 28.9829C13.429 28.3578 13.5718 27.5421 13.1639 27.161C12.7561 26.7798 11.952 26.9775 11.368 27.6025C10.784 28.2276 10.6412 29.0432 11.049 29.4244C11.4569 29.8056 12.2609 29.6079 12.8449 28.9829Z" fill="url(#paint8_radial_371_2224)"/>
<path d="M57.5802 15.0667C58.1098 14.1732 57.4295 12.7909 56.0607 11.9793C54.6918 11.1678 53.1527 11.2342 52.6231 12.1278C52.0934 13.0214 52.7737 14.4036 54.1426 15.2152C55.5115 16.0268 57.0505 15.9603 57.5802 15.0667Z" fill="url(#paint9_radial_371_2224)"/>
<path d="M61.0676 17.3016C61.3523 16.8213 60.9866 16.0784 60.2508 15.6422C59.515 15.2059 58.6878 15.2416 58.4031 15.7218C58.1185 16.202 58.4842 16.945 59.22 17.3812C59.9558 17.8174 60.783 17.7818 61.0676 17.3016Z" fill="url(#paint10_radial_371_2224)"/>
<path d="M72.5424 30.2526C73.0028 29.9369 72.9838 29.109 72.5001 28.4035C72.0163 27.698 71.251 27.382 70.7906 27.6977C70.3302 28.0135 70.3492 28.8413 70.8329 29.5469C71.3167 30.2524 72.082 30.5683 72.5424 30.2526Z" fill="url(#paint11_radial_371_2224)"/>
<path d="M75.1731 52.982C74.4691 55.9492 72.5382 58.0312 71.7487 57.8401C70.9592 57.649 72.4074 56.1352 73.1064 53.1731C73.8053 50.211 73.4986 46.917 74.2931 47.1031C75.0876 47.2892 75.8771 50.0149 75.1731 52.982Z" fill="url(#paint12_radial_371_2224)"/>
</g>
<path d="M42.9999 42.371C49.1775 42.371 54.1854 37.3631 54.1854 31.1855C54.1854 25.0079 49.1775 20 42.9999 20C36.8224 20 31.8145 25.0079 31.8145 31.1855C31.8145 37.3631 36.8224 42.371 42.9999 42.371Z" fill="#333333"/>
<path d="M43.6138 59.9707L43.51 59.9307L43.4781 59.9219L42.8786 59.8044V59.8032L42.8467 59.7982V59.7969C42.5135 59.7431 42.2628 59.52 42.2628 59.2499C42.2628 58.9567 42.556 58.7185 42.9292 58.6916H43.0724C43.4194 58.7172 43.6926 58.9273 43.7282 59.1911H44.1064C44.0695 58.7748 43.6375 58.439 43.0943 58.4034V58.0883H42.9036V58.4034C42.3347 58.4403 41.8877 58.8054 41.8877 59.2499C41.8877 59.5443 42.0852 59.8032 42.3847 59.9557L42.4347 59.9776V59.9763L42.5754 60.0263L42.6648 60.0482L43.1349 60.1239C43.4769 60.1726 43.7369 60.4008 43.7369 60.6759C43.7369 60.9691 43.4425 61.2073 43.068 61.2342H42.9261C42.5816 61.2073 42.3097 61.0022 42.2703 60.7384H41.8921C41.9321 61.1535 42.3634 61.4867 42.9042 61.5224V61.8374H43.0949V61.5224C43.6625 61.4842 44.1108 61.1204 44.1108 60.6759C44.1108 60.3821 43.9132 60.1232 43.6138 59.9707Z" fill="#333333"/>
<path d="M49.1854 43.0187H36.814C28.6324 43.0187 22 49.6505 22 57.832V67.4571H64V57.832C64 49.6505 57.3676 43.0187 49.1854 43.0187ZM38.5957 53.4727C40.8763 53.4727 42.4955 54.2979 42.6374 55.0794V55.2995C42.4955 56.0809 40.8769 56.9061 38.5957 56.9061C36.2076 56.9061 34.5434 56.0015 34.5434 55.1894C34.5434 54.3773 36.2076 53.4727 38.5957 53.4727ZM34.5434 56.5473C35.3773 57.2337 36.8646 57.6814 38.5957 57.6814C39.104 57.6814 39.586 57.6388 40.0405 57.5663C39.5091 58.2209 39.1884 59.0548 39.1884 59.9632C39.1884 59.9707 39.1896 59.9788 39.1896 59.9863C38.9964 59.9988 38.8001 60.0082 38.5963 60.0082C36.2094 60.0082 34.5459 59.1049 34.544 58.294L34.5434 56.5473ZM38.5957 63.0603C36.2088 63.0603 34.5452 62.1569 34.5434 61.3461V59.59C35.3773 60.2764 36.8646 60.7234 38.5957 60.7234C38.8226 60.7234 39.0439 60.7134 39.2609 60.6978C39.4284 61.5486 39.8785 62.2976 40.51 62.8434C39.9523 62.9771 39.3078 63.0603 38.5957 63.0603ZM43 63.0759C41.2845 63.0759 39.8873 61.6805 39.8873 59.9632C39.8873 58.2459 41.2839 56.8505 43 56.8505C44.7167 56.8505 46.1127 58.2459 46.1127 59.9632C46.1127 61.6805 44.7167 63.0759 43 63.0759ZM51.4566 61.3436C51.4566 62.1557 49.7924 63.0603 47.4043 63.0603C46.6922 63.0603 46.0477 62.9771 45.4894 62.8427C46.1133 62.3032 46.5628 61.5655 46.7348 60.7278C46.9536 60.7422 47.1755 60.7534 47.4037 60.7534C49.1354 60.7534 50.622 60.3052 51.456 59.6194L51.4566 61.3436ZM51.4566 58.3234C51.4541 59.1355 49.7912 60.0376 47.4043 60.0376C47.1993 60.0376 47.0023 60.0289 46.8085 60.0157C46.8098 59.9988 46.8123 59.9801 46.8123 59.9632C46.8123 59.0655 46.4984 58.2415 45.977 57.5895C46.4278 57.6588 46.9035 57.702 47.4043 57.702C49.136 57.702 50.6227 57.2537 51.4566 56.5679V58.3234ZM51.4566 55.2726C51.4541 56.0847 49.7912 56.9868 47.4043 56.9868C45.0918 56.9868 43.4576 56.1384 43.3563 55.347C43.3601 55.3151 43.3638 55.282 43.3638 55.2495H43.3601C43.3613 55.2301 43.3638 55.2101 43.3638 55.1894C43.3638 55.1344 43.3588 55.0807 43.3513 55.0281V53.5165C44.1853 54.2029 45.6726 54.6505 47.4037 54.6505C49.1348 54.6505 50.622 54.2023 51.456 53.5165L51.4566 55.2726ZM51.4566 52.2211C51.4541 53.032 49.7912 53.9354 47.4043 53.9354C45.0187 53.9354 43.3551 53.032 43.352 52.2211V50.4738C44.1859 51.1602 45.6732 51.6079 47.4043 51.6079C49.1354 51.6079 50.6227 51.1596 51.4566 50.4738V52.2211ZM47.4043 50.8326C45.0162 50.8326 43.352 49.928 43.352 49.1159C43.352 48.3038 45.0162 47.3992 47.4043 47.3992C49.7924 47.3992 51.4566 48.3038 51.4566 49.1159C51.4566 49.928 49.7924 50.8326 47.4043 50.8326Z" fill="#333333"/>
<defs>
<filter id="filter0_f_371_2224" x="0.117188" y="0.0476074" width="84.7646" height="48.3166" filterUnits="userSpaceOnUse" color-interpolation-filters="sRGB">
<feFlood flood-opacity="0" result="BackgroundImageFix"/>
<feBlend mode="normal" in="SourceGraphic" in2="BackgroundImageFix" result="shape"/>
<feGaussianBlur stdDeviation="4" result="effect1_foregroundBlur_371_2224"/>
</filter>
<filter id="filter1_f_371_2224" x="1.59082" y="41.9948" width="81.8232" height="42.2516" filterUnits="userSpaceOnUse" color-interpolation-filters="sRGB">
<feFlood flood-opacity="0" result="BackgroundImageFix"/>
<feBlend mode="normal" in="SourceGraphic" in2="BackgroundImageFix" result="shape"/>
<feGaussianBlur stdDeviation="4" result="effect1_foregroundBlur_371_2224"/>
</filter>
<radialGradient id="paint0_radial_371_2224" cx="0" cy="0" r="1" gradientUnits="userSpaceOnUse" gradientTransform="translate(42.5024 51.4985) scale(37.4975 37.5015)">
<stop/>
<stop offset="0.84" stop-opacity="0.2"/>
</radialGradient>
<radialGradient id="paint1_radial_371_2224" cx="0" cy="0" r="1" gradientUnits="userSpaceOnUse" gradientTransform="translate(42.5025 47.7518) scale(37.4975 37.5015)">
<stop stop-color="#F9AC10"/>
<stop offset="0.06" stop-color="#F6A70E"/>
<stop offset="0.98" stop-color="#D66B00"/>
</radialGradient>
<radialGradient id="paint2_radial_371_2224" cx="0" cy="0" r="1" gradientUnits="userSpaceOnUse" gradientTransform="translate(42.716 40.0279) rotate(-91.1499) scale(41.0822 39.0239)">
<stop stop-color="#F9AC10"/>
<stop offset="0.06" stop-color="#F6A70E"/>
<stop offset="0.98" stop-color="#D66B00"/>
</radialGradient>
<linearGradient id="paint3_linear_371_2224" x1="42.502" y1="40.3642" x2="42.502" y2="8.04761" gradientUnits="userSpaceOnUse">
<stop stop-color="white" stop-opacity="0"/>
<stop offset="1" stop-color="white"/>
</linearGradient>
<linearGradient id="paint4_linear_371_2224" x1="42.5023" y1="76.2514" x2="42.5023" y2="49.9948" gradientUnits="userSpaceOnUse">
<stop/>
<stop offset="0.09" stop-color="#0C0C0C"/>
<stop offset="0.24" stop-color="#2C2C2C"/>
<stop offset="0.46" stop-color="#616161"/>
<stop offset="0.71" stop-color="#AAAAAA"/>
<stop offset="0.98" stop-color="white"/>
</linearGradient>
<radialGradient id="paint5_radial_371_2224" cx="0" cy="0" r="1" gradientUnits="userSpaceOnUse" gradientTransform="translate(41.7228 26.3181) scale(41.0275 41.0319)">
<stop stop-color="white"/>
<stop offset="1" stop-color="white" stop-opacity="0"/>
</radialGradient>
<radialGradient id="paint6_radial_371_2224" cx="0" cy="0" r="1" gradientUnits="userSpaceOnUse" gradientTransform="translate(5.30885 19.825) rotate(-32.9328) scale(5.43557 4.09914)">
<stop offset="0.51" stop-color="white"/>
<stop offset="1" stop-color="white" stop-opacity="0"/>
</radialGradient>
<radialGradient id="paint7_radial_371_2224" cx="0" cy="0" r="1" gradientUnits="userSpaceOnUse" gradientTransform="translate(-61.8232 97.9596) rotate(-44.7431) scale(1.41102 3.57259)">
<stop offset="0.51" stop-color="white"/>
<stop offset="1" stop-color="white" stop-opacity="0"/>
</radialGradient>
<radialGradient id="paint8_radial_371_2224" cx="0" cy="0" r="1" gradientUnits="userSpaceOnUse" gradientTransform="translate(-66.4699 103.251) rotate(-44.7431) scale(0.758689 1.92094)">
<stop offset="0.51" stop-color="white"/>
<stop offset="1" stop-color="white" stop-opacity="0"/>
</radialGradient>
<radialGradient id="paint9_radial_371_2224" cx="0" cy="0" r="1" gradientUnits="userSpaceOnUse" gradientTransform="translate(-90.8695 -84.4838) rotate(-147.137) scale(1.41099 3.57266)">
<stop offset="0.51" stop-color="white"/>
<stop offset="1" stop-color="white" stop-opacity="0"/>
</radialGradient>
<radialGradient id="paint10_radial_371_2224" cx="0" cy="0" r="1" gradientUnits="userSpaceOnUse" gradientTransform="translate(-85.8067 -81.3879) rotate(-147.137) scale(0.758673 1.92098)">
<stop offset="0.51" stop-color="white"/>
<stop offset="1" stop-color="white" stop-opacity="0"/>
</radialGradient>
<radialGradient id="paint11_radial_371_2224" cx="0" cy="0" r="1" gradientUnits="userSpaceOnUse" gradientTransform="translate(-5.20622 -97.9417) rotate(-122.237) scale(0.758707 1.9209)">
<stop offset="0.51" stop-color="white"/>
<stop offset="1" stop-color="white" stop-opacity="0"/>
</radialGradient>
<radialGradient id="paint12_radial_371_2224" cx="0" cy="0" r="1" gradientUnits="userSpaceOnUse" gradientTransform="translate(75.0457 52.6741) rotate(-77.9213) scale(5.49188 2.14879)">
<stop stop-color="white"/>
<stop offset="1" stop-color="white" stop-opacity="0"/>
</radialGradient>
</defs>
</svg>
