<svg width="130" height="43" viewBox="0 0 130 43" fill="none" xmlns="http://www.w3.org/2000/svg">
<path d="M124.997 24.9509C124.992 25.6523 124.97 26.3584 124.934 27.0598C124.867 28.4485 124.745 29.8324 124.565 31.2164C124.467 31.9931 124.354 32.7745 124.219 33.5512C123.986 34.9164 122.592 36.1262 120.489 36.997C118.53 37.9338 115.815 38.5504 112.75 38.654C99.1411 39.1153 30.8633 39.1153 17.25 38.654C14.1848 38.5504 11.4703 37.9291 9.51075 36.997C7.4119 36.1262 6.01866 34.9164 5.78495 33.5512C5.69956 33.0381 5.61866 32.5203 5.54226 32.0072C5.32653 30.4915 5.17372 28.971 5.08833 27.4552C5.03889 26.5938 5.01193 25.7323 5.00743 24.8709C4.99844 24.2589 5.00743 23.6423 5.02541 23.0303V23.0068C5.05238 22.1218 5.09732 21.2368 5.16473 20.3518C5.21867 19.6457 5.28608 18.9396 5.37147 18.2335C5.48383 17.2779 5.62315 16.3223 5.78495 15.3714C5.9063 14.6512 6.35124 13.9781 7.05235 13.3708C7.67706 12.8248 8.5175 12.3352 9.51075 11.9257C11.4703 10.9889 14.1848 10.3722 17.25 10.264C30.8633 9.80264 99.1411 9.80264 112.75 10.264C115.815 10.3675 118.53 10.9889 120.489 11.9257C121.756 12.4529 122.763 13.0978 123.415 13.8321C123.846 14.3123 124.125 14.8348 124.219 15.3761C124.39 16.3788 124.538 17.3862 124.651 18.3889C124.736 19.142 124.813 19.8999 124.862 20.6531C124.916 21.4157 124.956 22.183 124.979 22.9456C124.997 23.6187 125.006 24.2872 124.997 24.9556V24.9509Z" fill="url(#paint0_radial_420_9227)"/>
<path d="M124.933 25.7653C124.897 26.4996 124.848 27.234 124.78 27.9683C124.668 29.2205 124.515 30.4726 124.313 31.7248C124.282 31.9225 124.25 32.1202 124.214 32.3179C123.98 33.683 122.587 34.8928 120.484 35.7637C118.524 36.7005 115.81 37.3171 112.745 37.4254C99.1358 37.8867 30.858 37.8867 17.2447 37.4254C14.1796 37.3218 11.465 36.7005 9.50549 35.7637C7.51001 34.9352 6.15722 33.8054 5.82464 32.525C5.80666 32.4591 5.79318 32.3885 5.7797 32.3179C5.55498 31.014 5.3797 29.71 5.25386 28.4061C5.16847 27.5447 5.10555 26.6785 5.0651 25.8171C5.00667 24.692 4.9887 23.5669 5.00667 22.4419V22.4278C5.01117 22.15 5.02016 21.8723 5.02465 21.5946C5.04712 20.8131 5.08757 20.0317 5.146 19.2503C5.25386 17.8146 5.42015 16.3788 5.64487 14.9431C5.68532 14.6748 5.73026 14.4017 5.7752 14.1334C6.00891 12.7683 7.40215 11.5585 9.501 10.6876C11.4605 9.75557 14.1751 9.1342 17.2402 9.03064C30.8535 8.56932 99.1313 8.56932 112.74 9.03064C115.805 9.1342 118.52 9.75557 120.479 10.6876C122.578 11.5585 123.971 12.7683 124.21 14.1334C124.273 14.4912 124.326 14.8489 124.38 15.202C124.587 16.5577 124.74 17.9134 124.843 19.2738C124.906 20.1165 124.947 20.9591 124.969 21.8017C124.969 21.9382 124.978 22.0747 124.983 22.2112V22.2583C125.001 23.4257 124.983 24.5979 124.929 25.7653H124.933Z" fill="url(#paint1_radial_420_9227)"/>
<g style="mix-blend-mode:hard-light" opacity="0.2">
<path d="M124.214 12.9048C123.981 11.5397 122.587 10.3299 120.489 9.459C118.529 8.52224 115.815 7.90558 112.749 7.79731C99.1406 7.33599 30.8583 7.33599 17.2495 7.79731C14.1844 7.90087 11.4698 8.52224 9.5103 9.459C7.41145 10.3299 6.01821 11.5397 5.7845 12.9048C4.74631 18.9679 4.74631 25.0262 5.7845 31.0893C6.01821 32.4544 7.41145 33.6642 9.5103 34.5351C11.4698 35.4718 14.1844 36.0885 17.2495 36.1968C30.8583 36.6581 99.1406 36.6581 112.749 36.1968C115.815 36.0932 118.529 35.4718 120.489 34.5351C122.587 33.6642 123.981 32.4544 124.214 31.0893C125.253 25.0262 125.253 18.9679 124.214 12.9048Z" fill="white"/>
</g>
<path d="M124.7 27.1351C124.579 28.3025 124.417 29.47 124.214 30.6374C123.981 32.0025 122.588 33.2123 120.489 34.0832C118.529 35.0199 115.815 35.6366 112.745 35.7449C99.1361 36.2109 30.8539 36.2109 17.245 35.7449C14.1799 35.6413 11.4653 35.0199 9.50582 34.0832C7.40697 33.2123 6.01373 32.0025 5.78002 30.6374C5.59576 29.5547 5.44295 28.4767 5.3216 27.394C4.7733 22.4136 4.9261 17.4333 5.78002 12.4529C6.01373 11.0877 7.40697 9.87796 9.50582 9.0071C11.4653 8.07504 14.1799 7.45367 17.245 7.3454C30.8584 6.88408 99.1361 6.88408 112.749 7.35011C115.815 7.45367 118.529 8.07504 120.493 9.01181C122.592 9.88737 123.985 11.0925 124.219 12.4576C125.055 17.3532 125.221 22.2442 124.704 27.1398L124.7 27.1351Z" fill="url(#paint2_radial_420_9227)"/>
<g style="mix-blend-mode:overlay" opacity="0.8" filter="url(#filter0_f_420_9227)">
<path d="M11.0379 12.2128C12.8896 11.3514 15.4604 10.7771 18.3592 10.6782C31.2309 10.2498 98.7672 10.2498 111.639 10.6782C114.538 10.7771 117.104 11.3467 118.96 12.2128C120.308 12.7636 121.351 13.4555 121.949 14.237C121.899 13.9169 121.854 13.5968 121.801 13.272C121.585 12.0104 120.299 10.8947 118.358 10.0851C116.547 9.22364 114.039 8.64934 111.203 8.55049C98.6233 8.12212 31.3793 8.12212 18.7996 8.55049C15.9637 8.64934 13.4559 9.21893 11.6447 10.0851C9.70313 10.8947 8.41775 12.0104 8.20202 13.272C8.14809 13.5921 8.10315 13.9122 8.05371 14.237C8.65146 13.4555 9.68964 12.7636 11.0424 12.2128H11.0379Z" fill="url(#paint3_linear_420_9227)"/>
</g>
<g style="mix-blend-mode:soft-light" opacity="0.75" filter="url(#filter1_f_420_9227)">
<path d="M120.021 27.0598C118.093 27.9777 115.423 28.5897 112.408 28.6933C99.0234 29.1499 30.9704 29.1499 17.5863 28.6933C14.5706 28.5897 11.9009 27.9824 9.97288 27.0598C9.65828 26.928 9.36166 26.7915 9.08301 26.6456C9.19087 27.6247 9.3257 28.6038 9.49199 29.5782C9.69873 30.7833 10.9302 31.8519 12.7863 32.6239C14.5166 33.4477 16.9166 33.9984 19.6267 34.0879C31.6535 34.4974 98.3448 34.4974 110.372 34.0879C113.082 33.9937 115.477 33.4477 117.212 32.6239C119.068 31.8519 120.3 30.7833 120.506 29.5782C120.673 28.5991 120.812 27.62 120.915 26.6456C120.637 26.7915 120.34 26.928 120.025 27.0598H120.021Z" fill="url(#paint4_linear_420_9227)"/>
</g>
<path style="mix-blend-mode:overlay" opacity="0.6" d="M124.992 21.8064C124.992 21.9382 124.992 22.0747 124.992 22.2065V22.2536C124.992 22.4842 124.983 22.7102 124.979 22.9409C124.961 23.5952 124.934 24.2495 124.894 24.8991C124.876 25.1674 124.858 25.4358 124.84 25.7041C124.808 26.123 124.768 26.542 124.723 26.9609C124.718 27.0174 124.714 27.0786 124.705 27.1351C124.246 27.2057 123.792 27.281 123.334 27.3469C120.93 27.7141 118.521 28.0389 116.116 28.3214C115.267 28.4202 114.417 28.5144 113.568 28.6085C99.1231 30.1431 29.9914 30.1996 15.5107 28.7027C14.7421 28.6226 13.9736 28.5379 13.2006 28.4532C11.0343 28.2037 8.86355 27.9212 6.6928 27.6011C6.23437 27.5352 5.78045 27.4646 5.32203 27.394C5.32203 27.3705 5.31753 27.3422 5.31304 27.3187C5.25911 26.7962 5.20517 26.269 5.16922 25.7464C5.14225 25.4358 5.12428 25.1298 5.1063 24.8191C5.07035 24.226 5.04338 23.6281 5.0254 23.035V23.0115C5.02091 22.8232 5.01641 22.6349 5.01192 22.4419V22.4278C5.00742 22.1547 5.00293 21.8817 5.00293 21.6087C5.00293 21.2133 5.00742 20.8131 5.01641 20.4177C5.0254 20.0505 5.03439 19.6787 5.05237 19.3115C5.06136 18.9961 5.07933 18.6854 5.10181 18.37C5.16922 17.2591 5.26809 16.1482 5.40742 15.0372C5.45686 14.6418 5.50629 14.2464 5.56472 13.851C5.62764 13.3849 5.70404 12.9189 5.78494 12.4529C6.01865 11.0877 7.41189 9.87796 9.51074 9.0071C11.4703 8.07504 14.1848 7.45367 17.25 7.35011C30.8588 6.88408 99.1366 6.88408 112.745 7.35011C115.815 7.45367 118.53 8.07504 120.489 9.0071C122.588 9.88266 123.981 11.0925 124.215 12.4529C124.314 13.0272 124.404 13.5968 124.48 14.1711C124.529 14.5429 124.579 14.9148 124.619 15.2867C124.75 16.36 124.84 17.4286 124.903 18.4971C124.921 18.7701 124.929 19.0432 124.943 19.3162C124.961 19.7775 124.974 20.2341 124.983 20.7002C124.988 21.0673 124.988 21.4345 124.983 21.8064H124.992Z" fill="url(#paint5_radial_420_9227)"/>
<g style="mix-blend-mode:soft-light" opacity="0.6">
<path d="M105.671 11.6903C105.689 13.4744 96.2194 12.3446 62.3007 12.3446C34.4808 12.3446 23.9506 13.5262 23.9326 11.7421C23.9147 9.95798 34.0763 8.48929 62.8355 8.48929C95.8149 8.48929 105.653 9.9062 105.671 11.6903Z" fill="white"/>
</g>
<path d="M110.431 9.80031C110.443 9.48861 109.597 9.19801 108.54 9.15125C107.484 9.10448 106.617 9.31926 106.605 9.63096C106.592 9.94266 107.438 10.2332 108.495 10.28C109.551 10.3268 110.418 10.112 110.431 9.80031Z" fill="url(#paint6_radial_420_9227)"/>
<path d="M113.15 10.0646C113.156 9.89834 112.702 9.7432 112.134 9.71807C111.566 9.69293 111.1 9.8073 111.093 9.97354C111.086 10.1398 111.541 10.2949 112.109 10.3201C112.677 10.3452 113.143 10.2308 113.15 10.0646Z" fill="url(#paint7_radial_420_9227)"/>
<path d="M120.992 28.5144C120.992 29.4229 120.057 30.1572 119.514 30.1572C118.97 30.1572 119.68 29.6206 119.68 28.7121C119.68 27.8036 118.97 26.8715 119.514 26.8715C120.057 26.8715 120.992 27.6058 120.992 28.5144Z" fill="url(#paint8_radial_420_9227)"/>
<path d="M120.316 13.8998C120.393 13.3913 119.817 12.8734 119.03 12.743C118.243 12.6126 117.543 12.9191 117.466 13.4275C117.389 13.936 117.965 14.4539 118.752 14.5843C119.539 14.7147 120.239 14.4082 120.316 13.8998Z" fill="url(#paint9_radial_420_9227)"/>
<path d="M120.29 15.5864C120.331 15.3142 120.021 15.0366 119.597 14.9663C119.172 14.896 118.795 15.0597 118.754 15.3319C118.713 15.6041 119.024 15.8817 119.448 15.952C119.872 16.0223 120.249 15.8586 120.29 15.5864Z" fill="url(#paint10_radial_420_9227)"/>
<path d="M104.871 9.25188C104.894 9.48254 25.3441 9.64259 21.87 9.88737C14.8184 10.3816 16.3825 12.2834 15.3757 12.2552C14.369 12.2269 13.605 9.73674 21.7532 9.37898C28.9711 9.06359 104.849 9.02122 104.871 9.25188Z" fill="url(#paint11_radial_420_9227)"/>
<path d="M15.2069 14.6993C15.5114 14.2371 15.4353 13.629 15.037 13.341C14.6386 13.0531 14.0688 13.1943 13.7643 13.6565C13.4598 14.1187 13.5358 14.7268 13.9342 15.0147C14.3326 15.3027 14.9024 15.1614 15.2069 14.6993Z" fill="url(#paint12_radial_420_9227)"/>
<path d="M23.4561 29.332C23.2281 29.74 22.8861 30.022 22.4301 30.178C21.9861 30.346 21.4761 30.43 20.9001 30.43C20.3361 30.43 19.9221 30.418 19.6581 30.394C19.3941 30.382 19.1121 30.334 18.8121 30.25C18.5241 30.178 18.2961 30.076 18.1281 29.944C17.7441 29.62 17.5521 29.116 17.5521 28.432C17.5521 27.448 17.8041 26.956 18.3081 26.956C18.4641 26.956 18.5841 26.932 18.6681 26.884C18.8961 26.776 19.0101 26.404 19.0101 25.768V16.39C19.0101 16.126 19.3521 15.868 20.0361 15.616C20.7321 15.352 21.4701 15.22 22.2501 15.22C23.4381 15.22 24.0321 15.502 24.0321 16.066V26.02C24.0321 26.848 23.9961 27.508 23.9241 28C23.8521 28.492 23.6961 28.936 23.4561 29.332ZM31.5589 28.162C30.5629 28.162 29.7049 28.072 28.9849 27.892C28.2769 27.7 27.6229 27.364 27.0229 26.884C25.8109 25.936 25.2049 24.118 25.2049 21.43C25.2049 20.302 25.3669 19.318 25.6909 18.478C26.0269 17.638 26.4889 16.972 27.0769 16.48C28.2289 15.52 29.7229 15.04 31.5589 15.04C32.5069 15.04 33.3289 15.124 34.0249 15.292C34.7329 15.46 35.3989 15.766 36.0229 16.21C37.2829 17.122 37.9129 18.862 37.9129 21.43C37.9129 23.734 37.3429 25.432 36.2029 26.524C35.0629 27.616 33.5149 28.162 31.5589 28.162ZM30.9649 25.084C31.1089 25.252 31.3069 25.336 31.5589 25.336C31.8109 25.336 32.0089 25.252 32.1529 25.084C32.2969 24.904 32.4169 24.532 32.5129 23.968C32.6089 23.392 32.6569 22.594 32.6569 21.574C32.6569 20.554 32.6089 19.768 32.5129 19.216C32.4169 18.664 32.2969 18.304 32.1529 18.136C32.0089 17.968 31.8109 17.884 31.5589 17.884C31.3069 17.884 31.1089 17.968 30.9649 18.136C30.8209 18.304 30.7009 18.664 30.6049 19.216C30.5089 19.768 30.4609 20.554 30.4609 21.574C30.4609 22.594 30.5089 23.392 30.6049 23.968C30.7009 24.532 30.8209 24.904 30.9649 25.084ZM44.1024 27.568C44.1024 27.7 43.7364 27.808 43.0044 27.892C42.2724 27.964 41.5344 28 40.7904 28C40.0584 28 39.5904 27.97 39.3864 27.91C39.1824 27.838 39.0804 27.724 39.0804 27.568V16.372C39.0804 16.108 39.4284 15.85 40.1244 15.598C40.8204 15.334 41.6004 15.202 42.4644 15.202C43.2324 15.202 43.7364 15.364 43.9764 15.688C44.0604 15.808 44.1024 15.928 44.1024 16.048V27.568ZM50.5711 27.478C50.5711 27.634 50.1991 27.76 49.4551 27.856C48.7231 27.952 47.9911 28 47.2591 28C46.5271 28 46.0591 27.958 45.8551 27.874C45.6511 27.79 45.5491 27.658 45.5491 27.478V16.426C45.5491 16.126 45.8911 15.85 46.5751 15.598C47.2711 15.346 48.0571 15.22 48.9331 15.22C49.2451 15.22 49.4791 15.232 49.6351 15.256C50.0431 15.316 50.3311 15.574 50.4991 16.03L52.2271 20.674H52.2991V16.426C52.2991 16.126 52.6411 15.85 53.3251 15.598C54.0091 15.346 54.7891 15.22 55.6651 15.22C56.4211 15.22 56.9011 15.364 57.1051 15.652C57.2491 15.856 57.3211 16.042 57.3211 16.21V27.478C57.3211 27.634 56.9491 27.76 56.2051 27.856C55.4731 27.952 54.6631 28 53.7751 28C52.8991 28 52.4191 27.886 52.3351 27.658L50.6611 23.23H50.5711V27.478ZM67.8328 27.478C67.8328 27.634 67.4608 27.76 66.7168 27.856C65.9848 27.952 65.2528 28 64.5208 28C63.7888 28 63.3208 27.958 63.1168 27.874C62.9128 27.79 62.8108 27.658 62.8108 27.478V16.426C62.8108 16.126 63.1528 15.85 63.8368 15.598C64.5328 15.346 65.3188 15.22 66.1948 15.22C66.5068 15.22 66.7408 15.232 66.8968 15.256C67.3048 15.316 67.5928 15.574 67.7608 16.03L69.4888 20.674H69.5608V16.426C69.5608 16.126 69.9028 15.85 70.5868 15.598C71.2708 15.346 72.0508 15.22 72.9268 15.22C73.6828 15.22 74.1628 15.364 74.3668 15.652C74.5108 15.856 74.5828 16.042 74.5828 16.21V27.478C74.5828 27.634 74.2108 27.76 73.4668 27.856C72.7348 27.952 71.9248 28 71.0368 28C70.1608 28 69.6808 27.886 69.5968 27.658L67.9228 23.23H67.8328V27.478ZM82.1136 28.162C81.1176 28.162 80.2596 28.072 79.5396 27.892C78.8316 27.7 78.1776 27.364 77.5776 26.884C76.3656 25.936 75.7596 24.118 75.7596 21.43C75.7596 20.302 75.9216 19.318 76.2456 18.478C76.5816 17.638 77.0436 16.972 77.6316 16.48C78.7836 15.52 80.2776 15.04 82.1136 15.04C83.0616 15.04 83.8836 15.124 84.5796 15.292C85.2876 15.46 85.9536 15.766 86.5776 16.21C87.8376 17.122 88.4676 18.862 88.4676 21.43C88.4676 23.734 87.8976 25.432 86.7576 26.524C85.6176 27.616 84.0696 28.162 82.1136 28.162ZM81.5196 25.084C81.6636 25.252 81.8616 25.336 82.1136 25.336C82.3656 25.336 82.5636 25.252 82.7076 25.084C82.8516 24.904 82.9716 24.532 83.0676 23.968C83.1636 23.392 83.2116 22.594 83.2116 21.574C83.2116 20.554 83.1636 19.768 83.0676 19.216C82.9716 18.664 82.8516 18.304 82.7076 18.136C82.5636 17.968 82.3656 17.884 82.1136 17.884C81.8616 17.884 81.6636 17.968 81.5196 18.136C81.3756 18.304 81.2556 18.664 81.1596 19.216C81.0636 19.768 81.0156 20.554 81.0156 21.574C81.0156 22.594 81.0636 23.392 81.1596 23.968C81.2556 24.532 81.3756 24.904 81.5196 25.084ZM94.0401 28C93.4641 28 93.0861 27.958 92.9061 27.874C92.7261 27.79 92.6001 27.646 92.5281 27.442L88.5501 16.462C88.5501 16.234 88.9761 15.97 89.8281 15.67C90.6921 15.37 91.5621 15.22 92.4381 15.22C93.5661 15.22 94.1661 15.574 94.2381 16.282L94.8501 21.988H95.1021L95.6061 16.282C95.6661 15.574 96.4761 15.22 98.0361 15.22C98.6361 15.22 99.0381 15.304 99.2421 15.472C99.4461 15.628 99.5601 15.838 99.5841 16.102L100.178 21.988H100.43L100.898 16.282C100.934 15.934 101.342 15.67 102.122 15.49C102.914 15.31 103.694 15.22 104.462 15.22C105.242 15.22 105.77 15.334 106.046 15.562C106.334 15.79 106.478 16.03 106.478 16.282L102.626 27.442C102.494 27.814 101.606 28 99.9621 28C99.4701 28 99.1401 27.958 98.9721 27.874C98.8041 27.79 98.6901 27.646 98.6301 27.442L97.6941 24.31H97.4781L96.5241 27.442C96.4161 27.814 95.5881 28 94.0401 28ZM107.209 15.4C107.197 15.268 107.539 15.166 108.235 15.094C108.931 15.01 109.747 14.968 110.683 14.968C111.619 14.968 112.087 15.106 112.087 15.382C112.087 15.73 111.979 18.622 111.763 24.058C111.751 24.358 111.535 24.628 111.115 24.868C110.695 25.108 110.101 25.228 109.333 25.228C108.289 25.228 107.743 24.946 107.695 24.382L107.209 15.4ZM111.889 27.838C111.889 28.45 111.691 28.87 111.295 29.098C110.911 29.338 110.365 29.458 109.657 29.458C108.961 29.458 108.427 29.35 108.055 29.134C107.683 28.93 107.497 28.498 107.497 27.838C107.497 26.758 108.229 26.218 109.693 26.218C111.157 26.218 111.889 26.758 111.889 27.838Z" fill="white"/>
<defs>
<filter id="filter0_f_420_9227" x="0.0537109" y="0.22921" width="129.896" height="22.0078" filterUnits="userSpaceOnUse" color-interpolation-filters="sRGB">
<feFlood flood-opacity="0" result="BackgroundImageFix"/>
<feBlend mode="normal" in="SourceGraphic" in2="BackgroundImageFix" result="shape"/>
<feGaussianBlur stdDeviation="4" result="effect1_foregroundBlur_420_9227"/>
</filter>
<filter id="filter1_f_420_9227" x="1.08301" y="18.6456" width="127.832" height="23.7495" filterUnits="userSpaceOnUse" color-interpolation-filters="sRGB">
<feFlood flood-opacity="0" result="BackgroundImageFix"/>
<feBlend mode="normal" in="SourceGraphic" in2="BackgroundImageFix" result="shape"/>
<feGaussianBlur stdDeviation="4" result="effect1_foregroundBlur_420_9227"/>
</filter>
<radialGradient id="paint0_radial_420_9227" cx="0" cy="0" r="1" gradientUnits="userSpaceOnUse" gradientTransform="translate(64.9702 24.4169) scale(55.3411 24.5396)">
<stop/>
<stop offset="0.84" stop-opacity="0.2"/>
</radialGradient>
<radialGradient id="paint1_radial_420_9227" cx="0" cy="0" r="1" gradientUnits="userSpaceOnUse" gradientTransform="translate(64.9694 23.1801) scale(55.3411 24.5396)">
<stop stop-color="#F99F03"/>
<stop offset="0.02" stop-color="#F89D02"/>
<stop offset="0.98" stop-color="#D66100"/>
</radialGradient>
<radialGradient id="paint2_radial_420_9227" cx="0" cy="0" r="1" gradientUnits="userSpaceOnUse" gradientTransform="translate(65.2223 18.9943) rotate(-92.4156) scale(25.0972 58.6742)">
<stop stop-color="#F99F03"/>
<stop offset="0.02" stop-color="#F89D02"/>
<stop offset="0.98" stop-color="#D66100"/>
</radialGradient>
<linearGradient id="paint3_linear_420_9227" x1="64.9968" y1="14.237" x2="64.9968" y2="8.23039" gradientUnits="userSpaceOnUse">
<stop stop-color="white" stop-opacity="0"/>
<stop offset="1" stop-color="white"/>
</linearGradient>
<linearGradient id="paint4_linear_420_9227" x1="64.9969" y1="34.3986" x2="64.9969" y2="26.6456" gradientUnits="userSpaceOnUse">
<stop/>
<stop offset="0.09" stop-color="#0C0C0C"/>
<stop offset="0.24" stop-color="#2C2C2C"/>
<stop offset="0.46" stop-color="#616161"/>
<stop offset="0.71" stop-color="#AAAAAA"/>
<stop offset="0.98" stop-color="white"/>
</linearGradient>
<radialGradient id="paint5_radial_420_9227" cx="0" cy="0" r="1" gradientUnits="userSpaceOnUse" gradientTransform="translate(65.432 13.1273) scale(57.2684 25.3942)">
<stop stop-color="white"/>
<stop offset="1" stop-color="white" stop-opacity="0"/>
</radialGradient>
<radialGradient id="paint6_radial_420_9227" cx="0" cy="0" r="1" gradientUnits="userSpaceOnUse" gradientTransform="translate(549.593 38.6058) rotate(-174.89) scale(0.938024 1.07384)">
<stop offset="0.51" stop-color="white"/>
<stop offset="1" stop-color="white" stop-opacity="0"/>
</radialGradient>
<radialGradient id="paint7_radial_420_9227" cx="0" cy="0" r="1" gradientUnits="userSpaceOnUse" gradientTransform="translate(552.015 38.8099) rotate(-174.89) scale(0.503541 0.576448)">
<stop offset="0.51" stop-color="white"/>
<stop offset="1" stop-color="white" stop-opacity="0"/>
</radialGradient>
<radialGradient id="paint8_radial_420_9227" cx="0" cy="0" r="1" gradientUnits="userSpaceOnUse" gradientTransform="translate(111.079 7.17384) rotate(-92.8072) scale(1.64828 1.39916)">
<stop stop-color="white"/>
<stop offset="1" stop-color="white" stop-opacity="0"/>
</radialGradient>
<radialGradient id="paint9_radial_420_9227" cx="0" cy="0" r="1" gradientUnits="userSpaceOnUse" gradientTransform="translate(277.464 499.369) rotate(-107.928) scale(0.493282 2.55672)">
<stop offset="0.51" stop-color="white"/>
<stop offset="1" stop-color="white" stop-opacity="0"/>
</radialGradient>
<radialGradient id="paint10_radial_420_9227" cx="0" cy="0" r="1" gradientUnits="userSpaceOnUse" gradientTransform="translate(277.334 498.634) rotate(-107.928) scale(0.264985 1.37344)">
<stop offset="0.51" stop-color="white"/>
<stop offset="1" stop-color="white" stop-opacity="0"/>
</radialGradient>
<radialGradient id="paint11_radial_420_9227" cx="0" cy="0" r="1" gradientUnits="userSpaceOnUse" gradientTransform="translate(-66.0632 -581.68) rotate(-100.178) scale(7.37787 66.616)">
<stop offset="0.51" stop-color="white"/>
<stop offset="1" stop-color="white" stop-opacity="0"/>
</radialGradient>
<radialGradient id="paint12_radial_420_9227" cx="0" cy="0" r="1" gradientUnits="userSpaceOnUse" gradientTransform="translate(14.2711 21.0694) rotate(-93.0937) scale(0.985769 0.831388)">
<stop offset="0.51" stop-color="white"/>
<stop offset="1" stop-color="white" stop-opacity="0"/>
</radialGradient>
</defs>
</svg>
