<svg width="275" height="105" viewBox="0 0 275 105" fill="none" xmlns="http://www.w3.org/2000/svg">
<path d="M272.992 61.0966C272.982 63.2884 272.931 65.495 272.85 67.6869C272.698 72.0264 272.424 76.3513 272.018 80.6762C271.794 83.1034 271.541 85.5454 271.236 87.9726C270.708 92.2386 267.562 96.0192 262.812 98.7407C258.387 101.668 252.256 103.595 245.334 103.919C214.601 105.36 60.4069 105.36 29.6635 103.919C22.7414 103.595 16.611 101.653 12.1858 98.7407C7.44586 96.0192 4.29945 92.2386 3.77167 87.9726C3.57883 86.3692 3.39613 84.751 3.22359 83.1476C2.7364 78.4108 2.39131 73.6593 2.19847 68.9225C2.08682 66.2305 2.02593 63.5385 2.01578 60.8465C1.99548 58.9341 2.01578 57.007 2.05638 55.0947V55.0211C2.11727 52.2556 2.21877 49.49 2.37102 46.7244C2.49281 44.5179 2.64506 42.3113 2.8379 40.1047C3.09164 37.1185 3.40628 34.1323 3.77167 31.1607C4.04571 28.91 5.05053 26.8064 6.63388 24.9088C8.04469 23.2024 9.94268 21.6725 12.1858 20.3927C16.611 17.4653 22.7414 15.5382 29.6635 15.1999C60.4069 13.7582 214.601 13.7582 245.334 15.1999C252.256 15.5235 258.387 17.4653 262.812 20.3927C265.674 22.0402 267.948 24.0556 269.419 26.3504C270.394 27.8509 271.023 29.4837 271.236 31.1755C271.622 34.3088 271.957 37.4568 272.21 40.5902C272.403 42.9438 272.576 45.3122 272.688 47.6659C272.809 50.049 272.901 52.4468 272.951 54.8299C272.992 56.9335 273.012 59.0224 272.992 61.1113V61.0966Z" fill="url(#paint0_radial_420_9730)"/>
<path d="M272.85 63.6415C272.769 65.9363 272.657 68.2312 272.505 70.526C272.251 74.439 271.906 78.352 271.45 82.265C271.379 82.8828 271.307 83.5006 271.226 84.1185C270.698 88.3845 267.552 92.1651 262.802 94.8866C258.377 97.8139 252.246 99.741 245.324 100.079C214.591 101.521 60.397 101.521 29.6536 100.079C22.7316 99.7557 16.6011 97.8139 12.1759 94.8866C7.66942 92.2975 4.61436 88.767 3.86329 84.7658C3.82269 84.5598 3.79224 84.3391 3.76179 84.1185C3.25431 80.0437 2.85847 75.9689 2.57428 71.8941C2.38144 69.2021 2.23934 66.4953 2.14799 63.8033C2.01605 60.2875 1.97545 56.7717 2.01605 53.2559V53.2118C2.0262 52.3439 2.0465 51.4759 2.05665 50.608C2.10739 48.1661 2.19874 45.7241 2.33069 43.2822C2.57428 38.7955 2.94982 34.3088 3.4573 29.8221C3.54865 28.9836 3.65015 28.1304 3.75164 27.2919C4.27943 23.0259 7.42583 19.2453 12.1657 16.5238C16.591 13.6112 22.7214 11.6694 29.6435 11.3457C60.3869 9.90412 214.581 9.90412 245.314 11.3457C252.236 11.6694 258.367 13.6112 262.792 16.5238C267.532 19.2453 270.678 23.0259 271.216 27.2919C271.358 28.4099 271.48 29.5279 271.602 30.6312C272.069 34.8678 272.414 39.1044 272.647 43.3558C272.789 45.9889 272.881 48.6221 272.931 51.2553C272.931 51.6819 272.952 52.1085 272.962 52.5351V52.6822C273.002 56.3304 272.962 59.9933 272.84 63.6415H272.85Z" fill="url(#paint1_radial_420_9730)"/>
<g style="mix-blend-mode:hard-light" opacity="0.2">
<path d="M271.226 23.4525C270.699 19.1865 267.552 15.4059 262.812 12.6844C258.387 9.75703 252.257 7.82996 245.335 7.49162C214.601 6.04999 60.3972 6.04999 29.6639 7.49162C22.7419 7.81525 16.6115 9.75703 12.1862 12.6844C7.44629 15.4059 4.29989 19.1865 3.7721 23.4525C1.42753 42.3996 1.42753 61.332 3.7721 80.2791C4.29989 84.5451 7.44629 88.3257 12.1862 91.0471C16.6115 93.9745 22.7419 95.9016 29.6639 96.2399C60.3972 97.6816 214.601 97.6816 245.335 96.2399C252.257 95.9163 258.387 93.9745 262.812 91.0471C267.552 88.3257 270.699 84.5451 271.226 80.2791C273.571 61.332 273.571 42.3996 271.226 23.4525Z" fill="white"/>
</g>
<path d="M272.322 67.9222C272.048 71.5704 271.683 75.2186 271.226 78.8668C270.698 83.1329 267.552 86.9135 262.812 89.6349C258.387 92.5623 252.256 94.4894 245.324 94.8277C214.591 96.284 60.3866 96.284 29.6534 94.8277C22.7313 94.5041 16.6009 92.5623 12.1756 89.6349C7.43574 86.9135 4.28934 83.1329 3.76156 78.8668C3.34542 75.4834 3.00033 72.1147 2.72629 68.7313C1.48803 53.1676 1.83312 37.6039 3.76156 22.0403C4.28934 17.7742 7.43574 13.9936 12.1756 11.2722C16.6009 8.35951 22.7313 6.41773 29.6534 6.07939C60.3968 4.63776 214.591 4.63776 245.334 6.0941C252.256 6.41773 258.387 8.35951 262.822 11.2869C267.562 14.023 270.708 17.7889 271.236 22.055C273.124 37.3539 273.5 52.6381 272.332 67.9369L272.322 67.9222Z" fill="url(#paint2_radial_420_9730)"/>
<g style="mix-blend-mode:overlay" opacity="0.8" filter="url(#filter0_f_420_9730)">
<path d="M15.6368 21.2901C19.8185 18.598 25.6241 16.8034 32.1707 16.4944C61.2394 15.1558 213.759 15.1558 242.827 16.4944C249.374 16.8034 255.169 18.5833 259.361 21.2901C262.406 23.0112 264.761 25.1736 266.111 27.6156C265.999 26.6152 265.898 25.6149 265.776 24.5999C265.289 20.6575 262.386 17.1711 258.001 14.6409C253.911 11.9489 248.247 10.1542 241.843 9.8453C213.434 8.50665 61.5743 8.50665 33.1653 9.8453C26.7609 10.1542 21.0974 11.9342 17.0071 14.6409C12.6224 17.1711 9.71959 20.6575 9.2324 24.5999C9.1106 25.6002 9.00911 26.6005 8.89746 27.6156C10.2474 25.1736 12.5919 23.0112 15.647 21.2901H15.6368Z" fill="url(#paint3_linear_420_9730)"/>
</g>
<g style="mix-blend-mode:soft-light" opacity="0.75" filter="url(#filter1_f_420_9730)">
<path d="M261.756 67.6869C257.402 70.5554 251.373 72.4678 244.563 72.7914C214.337 74.2183 60.6506 74.2183 30.4249 72.7914C23.6144 72.4678 17.5855 70.5701 13.2313 67.6869C12.5208 67.275 11.851 66.8484 11.2217 66.3923C11.4653 69.4521 11.7698 72.5119 12.1453 75.557C12.6122 79.3228 15.3932 82.6621 19.585 85.0746C23.4926 87.649 28.9126 89.3701 35.0328 89.6496C62.1934 90.9294 212.805 90.9294 239.965 89.6496C246.085 89.3554 251.495 87.649 255.413 85.0746C259.605 82.6621 262.386 79.3228 262.853 75.557C263.228 72.4972 263.543 69.4374 263.776 66.3923C263.147 66.8484 262.477 67.275 261.767 67.6869H261.756Z" fill="url(#paint4_linear_420_9730)"/>
</g>
<path style="mix-blend-mode:overlay" opacity="0.6" d="M272.982 51.27C272.982 51.6819 272.982 52.1085 272.982 52.5204V52.6675C272.982 53.3883 272.962 54.0944 272.952 54.8152C272.911 56.8599 272.85 58.9047 272.759 60.9347C272.718 61.7732 272.678 62.6117 272.637 63.4502C272.566 64.7595 272.475 66.0687 272.373 67.3779C272.363 67.5545 272.353 67.7457 272.333 67.9222C271.297 68.1429 270.272 68.3783 269.237 68.5842C263.807 69.7316 258.367 70.7466 252.936 71.6293C251.018 71.9382 249.1 72.2324 247.182 72.5266C214.561 77.3222 58.4381 77.4987 25.7358 72.8208C24.0002 72.5707 22.2646 72.3059 20.5189 72.0412C15.6267 71.2615 10.7244 70.3789 5.82214 69.3786C4.78687 69.1726 3.76176 68.952 2.72649 68.7313C2.72649 68.6577 2.71634 68.5695 2.70619 68.4959C2.58439 66.8631 2.4626 65.2155 2.3814 63.5826C2.3205 62.6117 2.2799 61.6556 2.2393 60.6847C2.15811 58.8311 2.09721 56.9629 2.05661 55.1094V55.0358C2.04646 54.4474 2.03631 53.859 2.02616 53.2559V53.2117C2.01601 52.3585 2.00586 51.5053 2.00586 50.6521C2.00586 49.4164 2.01601 48.1661 2.03631 46.9304C2.05661 45.783 2.07691 44.6208 2.11751 43.4734C2.13781 42.4878 2.17841 41.5169 2.22915 40.5313C2.3814 37.0596 2.60469 33.588 2.91933 30.1163C3.03098 28.8806 3.14262 27.6449 3.27457 26.4093C3.41667 24.9529 3.58921 23.4966 3.7719 22.0402C4.29969 17.7742 7.44609 13.9936 12.186 11.2722C16.6113 8.3595 22.7417 6.41771 29.6637 6.09408C60.397 4.63775 214.591 4.63775 245.324 6.09408C252.256 6.41771 258.387 8.3595 262.812 11.2722C267.552 14.0083 270.698 17.7889 271.226 22.0402C271.449 23.8349 271.652 25.6149 271.825 27.4096C271.937 28.5717 272.048 29.7338 272.14 30.896C272.434 34.2499 272.637 37.5892 272.779 40.9285C272.82 41.7817 272.84 42.6349 272.87 43.4881C272.911 44.9297 272.941 46.3567 272.962 47.813C272.972 48.9604 272.972 50.1078 272.962 51.27H272.982Z" fill="url(#paint5_radial_420_9730)"/>
<g style="mix-blend-mode:soft-light" opacity="0.6">
<path d="M229.348 19.6571C229.389 25.2324 208.003 21.7019 131.404 21.7019C68.5772 21.7019 44.7965 25.3942 44.7559 19.8189C44.7153 14.2437 67.6638 9.65399 132.612 9.65399C207.09 9.65399 229.308 14.0818 229.348 19.6571Z" fill="white"/>
</g>
<path d="M240.097 13.751C240.125 12.777 238.214 11.8688 235.828 11.7227C233.442 11.5766 231.485 12.2477 231.457 13.2218C231.428 14.1959 233.339 15.1039 235.725 15.2501C238.111 15.3962 240.068 14.7251 240.097 13.751Z" fill="url(#paint6_radial_420_9730)"/>
<path d="M246.236 14.5768C246.251 14.0573 245.224 13.5725 243.942 13.494C242.659 13.4154 241.607 13.7728 241.592 14.2923C241.577 14.8118 242.604 15.2967 243.887 15.3752C245.169 15.4538 246.221 15.0963 246.236 14.5768Z" fill="url(#paint7_radial_420_9730)"/>
<path d="M263.949 72.2324C263.949 75.0715 261.838 77.3664 260.609 77.3664C259.381 77.3664 260.985 75.6894 260.985 72.8502C260.985 70.0111 259.381 67.0984 260.609 67.0984C261.838 67.0984 263.949 69.3933 263.949 72.2324Z" fill="url(#paint8_radial_420_9730)"/>
<path d="M262.422 26.5618C262.595 24.9729 261.295 23.3545 259.518 22.947C257.741 22.5395 256.159 23.4972 255.986 25.086C255.812 26.6749 257.113 28.2933 258.89 28.7008C260.667 29.1084 262.249 28.1507 262.422 26.5618Z" fill="url(#paint9_radial_420_9730)"/>
<path d="M262.362 31.8325C262.455 30.9819 261.754 30.1143 260.796 29.8947C259.838 29.6751 258.987 30.1866 258.894 31.0372C258.801 31.8878 259.502 32.7554 260.46 32.975C261.418 33.1946 262.269 32.6831 262.362 31.8325Z" fill="url(#paint10_radial_420_9730)"/>
<path d="M227.542 12.0371C227.592 12.7579 47.943 13.2581 40.0973 14.023C24.1725 15.5676 27.7046 21.5107 25.431 21.4224C23.1575 21.3341 21.4321 13.5523 39.8334 12.4343C56.1338 11.4487 227.491 11.3163 227.542 12.0371Z" fill="url(#paint11_radial_420_9730)"/>
<path d="M25.05 29.0602C25.7377 27.6159 25.5659 25.7155 24.6663 24.8157C23.7666 23.9159 22.4798 24.3573 21.7921 25.8016C21.1044 27.2459 21.2762 29.1462 22.1758 30.046C23.0755 30.9459 24.3623 30.5045 25.05 29.0602Z" fill="url(#paint12_radial_420_9730)"/>
<defs>
<filter id="filter0_f_420_9730" x="0.897461" y="0.841309" width="273.213" height="34.7742" filterUnits="userSpaceOnUse" color-interpolation-filters="sRGB">
<feFlood flood-opacity="0" result="BackgroundImageFix"/>
<feBlend mode="normal" in="SourceGraphic" in2="BackgroundImageFix" result="shape"/>
<feGaussianBlur stdDeviation="4" result="effect1_foregroundBlur_420_9730"/>
</filter>
<filter id="filter1_f_420_9730" x="3.22168" y="58.3923" width="268.555" height="40.2171" filterUnits="userSpaceOnUse" color-interpolation-filters="sRGB">
<feFlood flood-opacity="0" result="BackgroundImageFix"/>
<feBlend mode="normal" in="SourceGraphic" in2="BackgroundImageFix" result="shape"/>
<feGaussianBlur stdDeviation="4" result="effect1_foregroundBlur_420_9730"/>
</filter>
<radialGradient id="paint0_radial_420_9730" cx="0" cy="0" r="1" gradientUnits="userSpaceOnUse" gradientTransform="translate(137.432 59.4278) scale(124.979 76.6863)">
<stop/>
<stop offset="0.84" stop-opacity="0.2"/>
</radialGradient>
<radialGradient id="paint1_radial_420_9730" cx="0" cy="0" r="1" gradientUnits="userSpaceOnUse" gradientTransform="translate(137.432 55.5628) scale(124.979 76.6863)">
<stop stop-color="#CF3101"/>
<stop offset="0.04" stop-color="#F79422"/>
<stop offset="0.98" stop-color="#CF3101"/>
</radialGradient>
<radialGradient id="paint2_radial_420_9730" cx="0" cy="0" r="1" gradientUnits="userSpaceOnUse" gradientTransform="translate(138.002 42.4822) rotate(-91.7462) scale(78.3953 132.562)">
<stop stop-color="#CF3101"/>
<stop offset="0.0001" stop-color="#F89D02"/>
<stop offset="0.98" stop-color="#CF3101"/>
</radialGradient>
<linearGradient id="paint3_linear_420_9730" x1="137.494" y1="27.6156" x2="137.494" y2="8.84499" gradientUnits="userSpaceOnUse">
<stop stop-color="white" stop-opacity="0"/>
<stop offset="1" stop-color="white"/>
</linearGradient>
<linearGradient id="paint4_linear_420_9730" x1="137.494" y1="90.6205" x2="137.494" y2="66.3923" gradientUnits="userSpaceOnUse">
<stop/>
<stop offset="0.09" stop-color="#0C0C0C"/>
<stop offset="0.24" stop-color="#2C2C2C"/>
<stop offset="0.46" stop-color="#616161"/>
<stop offset="0.71" stop-color="#AAAAAA"/>
<stop offset="0.98" stop-color="white"/>
</linearGradient>
<radialGradient id="paint5_radial_420_9730" cx="0" cy="0" r="1" gradientUnits="userSpaceOnUse" gradientTransform="translate(138.475 24.1477) scale(129.331 79.3569)">
<stop stop-color="white"/>
<stop offset="1" stop-color="white" stop-opacity="0"/>
</radialGradient>
<radialGradient id="paint6_radial_420_9730" cx="0" cy="0" r="1" gradientUnits="userSpaceOnUse" gradientTransform="translate(1231.87 103.768) rotate(-172.946) scale(2.12605 3.34365)">
<stop offset="0.51" stop-color="white"/>
<stop offset="1" stop-color="white" stop-opacity="0"/>
</radialGradient>
<radialGradient id="paint7_radial_420_9730" cx="0" cy="0" r="1" gradientUnits="userSpaceOnUse" gradientTransform="translate(1237.34 104.406) rotate(-172.946) scale(1.14128 1.7949)">
<stop offset="0.51" stop-color="white"/>
<stop offset="1" stop-color="white" stop-opacity="0"/>
</radialGradient>
<radialGradient id="paint8_radial_420_9730" cx="0" cy="0" r="1" gradientUnits="userSpaceOnUse" gradientTransform="translate(241.562 5.54325) rotate(-92.0294) scale(5.14791 3.16158)">
<stop stop-color="white"/>
<stop offset="1" stop-color="white" stop-opacity="0"/>
</radialGradient>
<radialGradient id="paint9_radial_420_9730" cx="0" cy="0" r="1" gradientUnits="userSpaceOnUse" gradientTransform="translate(617.315 1543.65) rotate(-103.16) scale(1.50621 5.90925)">
<stop offset="0.51" stop-color="white"/>
<stop offset="1" stop-color="white" stop-opacity="0"/>
</radialGradient>
<radialGradient id="paint10_radial_420_9730" cx="0" cy="0" r="1" gradientUnits="userSpaceOnUse" gradientTransform="translate(617.019 1541.36) rotate(-103.16) scale(0.809117 3.17437)">
<stop offset="0.51" stop-color="white"/>
<stop offset="1" stop-color="white" stop-opacity="0"/>
</radialGradient>
<radialGradient id="paint11_radial_420_9730" cx="0" cy="0" r="1" gradientUnits="userSpaceOnUse" gradientTransform="translate(-158.485 -1834.62) rotate(-97.3926) scale(22.8832 151.576)">
<stop offset="0.51" stop-color="white"/>
<stop offset="1" stop-color="white" stop-opacity="0"/>
</radialGradient>
<radialGradient id="paint12_radial_420_9730" cx="0" cy="0" r="1" gradientUnits="userSpaceOnUse" gradientTransform="translate(22.9367 48.9668) rotate(-92.2367) scale(3.07838 1.87886)">
<stop offset="0.51" stop-color="white"/>
<stop offset="1" stop-color="white" stop-opacity="0"/>
</radialGradient>
</defs>
</svg>
