<svg width="59" height="61" viewBox="0 0 59 61" fill="none" xmlns="http://www.w3.org/2000/svg">
<path d="M29.32 60.71C45.502 60.71 58.62 48.5769 58.62 33.61C58.62 18.6431 45.502 6.51001 29.32 6.51001C13.1381 6.51001 0.0200195 18.6431 0.0200195 33.61C0.0200195 48.5769 13.1381 60.71 29.32 60.71Z" fill="url(#paint0_radial_2012_24099)"/>
<path d="M58.61 30.9C58.61 31.89 58.55 32.8701 58.44 33.84C58.39 34.2801 58.33 34.72 58.25 35.16C58.12 35.9001 57.97 36.62 57.78 37.34C57.65 37.85 57.5 38.35 57.33 38.84C56.82 40.37 56.17 41.85 55.39 43.26C55.23 43.56 55.05 43.85 54.88 44.14C49.87 52.41 40.29 58 29.31 58C18.33 58 8.97 52.54 3.91 44.42C3.73 44.13 3.56 43.84 3.39 43.55C2.6 42.16 1.93 40.7001 1.4 39.18C1.23 38.69 1.07 38.19 0.93 37.68C0.69 36.84 0.5 35.98 0.36 35.1C0.28 34.61 0.21 34.12 0.15 33.62C0.05 32.73 0 31.82 0 30.9C0 30.26 0.02 29.6301 0.07 29.01C0.11 28.5 0.16 27.99 0.23 27.48C0.35 26.62 0.51 25.7801 0.71 24.9501C0.99 23.7901 1.35 22.66 1.79 21.56C2.07 20.85 2.38 20.15 2.73 19.47C4.19 16.56 6.2 13.93 8.63 11.7C9.53 10.86 10.5 10.08 11.52 9.36005C16.45 5.87005 22.61 3.80005 29.29 3.80005C35.97 3.80005 42.66 6.05005 47.69 9.81005C48.71 10.57 49.68 11.4 50.58 12.28C52.91 14.55 54.81 17.2001 56.18 20.1201C56.46 20.7301 56.73 21.35 56.96 21.99C57.41 23.17 57.77 24.4 58.03 25.65C58.19 26.41 58.32 27.19 58.41 27.97C58.45 28.32 58.48 28.66 58.51 29.01C58.56 29.6301 58.58 30.2701 58.58 30.9H58.61Z" fill="url(#paint1_radial_2012_24099)"/>
<g style="mix-blend-mode:hard-light" opacity="0.2">
<path d="M29.32 55.77C45.502 55.77 58.62 43.5294 58.62 28.43C58.62 13.3305 45.502 1.08997 29.32 1.08997C13.1381 1.08997 0.0200195 13.3305 0.0200195 28.43C0.0200195 43.5294 13.1381 55.77 29.32 55.77Z" fill="white"/>
</g>
<path d="M58.61 27.1C58.61 30.16 58.06 33.1 57.05 35.84C53.12 46.52 42.18 54.2 29.31 54.2C16.44 54.2 5.40002 46.45 1.52002 35.68C0.54002 32.98 0.0200195 30.1 0.0200195 27.1C0.0200195 12.13 13.14 0 29.32 0C45.5 0 58.62 12.13 58.62 27.1H58.61Z" fill="url(#paint2_radial_2012_24099)"/>
<g style="mix-blend-mode:overlay" opacity="0.7">
<path d="M16.6825 10.09C19.3453 8.46331 20.9322 6.20855 20.2268 5.05386C19.5214 3.89917 16.7909 4.2818 14.1281 5.90849C11.4652 7.53519 9.87834 9.78994 10.5837 10.9446C11.2891 12.0993 14.0196 11.7167 16.6825 10.09Z" fill="url(#paint3_radial_2012_24099)"/>
<path d="M9.87301 14.3774C10.7718 13.5847 11.0829 12.4686 10.5679 11.8846C10.0528 11.3005 8.90658 11.4697 8.00774 12.2624C7.1089 13.0551 6.7978 14.1712 7.31288 14.7552C7.82796 15.3393 8.97417 15.1701 9.87301 14.3774Z" fill="url(#paint4_radial_2012_24099)"/>
<path d="M6.07387 17.409C6.55849 16.9815 6.7263 16.3799 6.44867 16.0651C6.17103 15.7503 5.5531 15.8416 5.06847 16.269C4.58385 16.6964 4.41604 17.298 4.69368 17.6128C4.97131 17.9276 5.58924 17.8364 6.07387 17.409Z" fill="url(#paint5_radial_2012_24099)"/>
<path d="M41.141 7.18315C41.4776 6.49936 40.8627 5.50804 39.7677 4.96897C38.6726 4.4299 37.512 4.54722 37.1754 5.23101C36.8388 5.91479 37.4536 6.90612 38.5487 7.44519C39.6437 7.98426 40.8043 7.86694 41.141 7.18315Z" fill="url(#paint6_radial_2012_24099)"/>
<path d="M43.8477 8.84672C44.0282 8.48005 43.6965 7.94749 43.1069 7.65722C42.5172 7.36695 41.8929 7.42889 41.7124 7.79556C41.5319 8.16223 41.8636 8.69478 42.4532 8.98505C43.0428 9.27532 43.6672 9.21339 43.8477 8.84672Z" fill="url(#paint7_radial_2012_24099)"/>
<path d="M52.8456 18.2042C53.1718 17.9314 53.106 17.3152 52.6986 16.828C52.2912 16.3408 51.6965 16.1669 51.3703 16.4397C51.044 16.7125 51.1098 17.3286 51.5172 17.8158C51.9246 18.3031 52.5193 18.4769 52.8456 18.2042Z" fill="url(#paint8_radial_2012_24099)"/>
<path d="M54.84 34.68C54.29 36.82 52.78 38.33 52.16 38.19C51.54 38.05 52.67 36.96 53.22 34.82C53.77 32.68 53.53 30.3 54.15 30.43C54.77 30.56 55.39 32.54 54.84 34.68Z" fill="url(#paint9_radial_2012_24099)"/>
</g>
<g style="mix-blend-mode:overlay" opacity="0.8">
<g filter="url(#filter0_f_2012_24099)">
<path d="M29.32 8.60996C42.42 8.60996 53.38 16.87 56.18 27.94C55.32 14.91 43.62 4.57996 29.32 4.57996C15.02 4.57996 3.32001 14.91 2.45001 27.94C5.25001 16.87 16.21 8.60996 29.31 8.60996H29.32Z" fill="url(#paint10_linear_2012_24099)"/>
</g>
</g>
<g style="mix-blend-mode:soft-light" opacity="0.75">
<g filter="url(#filter1_f_2012_24099)">
<path d="M29.32 42.28C19.3 42.28 10.22 38.55 3.60999 32.52C6.26999 43.38 16.77 51.49 29.32 51.49C41.87 51.49 52.37 43.38 55.03 32.52C48.42 38.55 39.34 42.28 29.32 42.28Z" fill="url(#paint11_linear_2012_24099)"/>
</g>
</g>
<path style="mix-blend-mode:overlay" opacity="0.6" d="M58.61 27.1C58.61 27.43 58.61 27.76 58.59 28.08C58.58 28.39 58.56 28.69 58.54 29C58.43 30.47 58.19 31.9 57.84 33.29C57.74 33.68 57.63 34.07 57.52 34.45C57.38 34.91 57.23 35.37 57.06 35.83C56.78 35.94 56.49 36.05 56.21 36.15C55.54 36.4 54.86 36.64 54.19 36.87C51.25 37.88 48.3 38.72 45.36 39.37C43.95 39.69 42.54 39.96 41.13 40.19C33.18 41.5 25.21 41.5 17.25 40.14C15.85 39.9 14.44 39.62 13.04 39.29C10.22 38.64 7.40003 37.81 4.58003 36.81C3.95003 36.59 3.32003 36.35 2.68003 36.11C2.30003 35.96 1.91003 35.81 1.52003 35.66C1.36003 35.21 1.21003 34.76 1.07003 34.31C0.940029 33.89 0.830029 33.46 0.720029 33.03C0.400029 31.71 0.190029 30.36 0.0900293 28.98C0.0600293 28.54 0.0300293 28.1 0.0300293 27.65C0.0300293 27.46 0.0300293 27.27 0.0300293 27.08C0.0300293 26.52 0.0500293 25.97 0.0900293 25.42C0.150029 24.55 0.250029 23.69 0.390029 22.84C0.500029 22.17 0.640029 21.51 0.810029 20.86C1.52003 18.06 2.70003 15.43 4.27003 13.04C4.86003 12.14 5.51003 11.27 6.20003 10.45C11.54 4.1 19.91 0 29.32 0C38.73 0 47.73 4.42 53.05 11.21C53.7 12.04 54.3 12.91 54.85 13.81C56.27 16.13 57.33 18.66 57.95 21.34C58.08 21.91 58.2 22.48 58.29 23.06C58.45 24.03 58.55 25.03 58.59 26.03C58.61 26.39 58.62 26.75 58.62 27.11L58.61 27.1Z" fill="url(#paint12_radial_2012_24099)"/>
<g style="mix-blend-mode:soft-light" opacity="0.6">
<path d="M41.07 9.16996C41.08 12.14 35.28 10.24 28.76 10.26C22.23 10.29 17.45 12.24 17.44 9.25996C17.43 6.28996 22.7 3.84996 29.23 3.82996C35.76 3.80996 41.06 6.18996 41.07 9.16996Z" fill="white"/>
</g>
<path d="M29.15 39.14C38.4836 39.14 46.05 31.5736 46.05 22.24C46.05 12.9064 38.4836 5.33997 29.15 5.33997C19.8164 5.33997 12.25 12.9064 12.25 22.24C12.25 31.5736 19.8164 39.14 29.15 39.14Z" stroke="#731F0D" stroke-width="1.4" stroke-miterlimit="10"/>
<path d="M29.15 35.2799C36.3518 35.2799 42.19 29.4417 42.19 22.24C42.19 15.0382 36.3518 9.19995 29.15 9.19995C21.9482 9.19995 16.11 15.0382 16.11 22.24C16.11 29.4417 21.9482 35.2799 29.15 35.2799Z" stroke="#731F0D" stroke-width="1.4" stroke-miterlimit="10"/>
<path d="M29.15 12.85L32.04 18.7L38.5 19.64L33.83 24.2L34.93 30.63L29.15 27.59L23.38 30.63L24.48 24.2L19.81 19.64L26.27 18.7L29.15 12.85Z" stroke="#731F0D" stroke-width="1.4" stroke-miterlimit="10"/>
<path d="M17.66 34.78L12.9 44.95L21.09 43.24L25.98 50.25L30.6 39.26" stroke="#731F0D" stroke-width="1.4" stroke-miterlimit="10"/>
<path d="M41.5 33.8101L46.68 44.4801L38.46 42.9901L33.74 50.1101L29.73 41.1801" stroke="#731F0D" stroke-width="1.4" stroke-miterlimit="10"/>
<defs>
<filter id="filter0_f_2012_24099" x="0.450012" y="2.57996" width="57.73" height="27.36" filterUnits="userSpaceOnUse" color-interpolation-filters="sRGB">
<feFlood flood-opacity="0" result="BackgroundImageFix"/>
<feBlend mode="normal" in="SourceGraphic" in2="BackgroundImageFix" result="shape"/>
<feGaussianBlur stdDeviation="1" result="effect1_foregroundBlur_2012_24099"/>
</filter>
<filter id="filter1_f_2012_24099" x="1.60999" y="30.52" width="55.42" height="22.97" filterUnits="userSpaceOnUse" color-interpolation-filters="sRGB">
<feFlood flood-opacity="0" result="BackgroundImageFix"/>
<feBlend mode="normal" in="SourceGraphic" in2="BackgroundImageFix" result="shape"/>
<feGaussianBlur stdDeviation="1" result="effect1_foregroundBlur_2012_24099"/>
</filter>
<radialGradient id="paint0_radial_2012_24099" cx="0" cy="0" r="1" gradientUnits="userSpaceOnUse" gradientTransform="translate(29.47 33.5948) scale(29.176 27.092)">
<stop/>
<stop offset="0.84" stop-opacity="0.2"/>
</radialGradient>
<radialGradient id="paint1_radial_2012_24099" cx="0" cy="0" r="1" gradientUnits="userSpaceOnUse" gradientTransform="translate(29.47 30.8908) scale(29.176 27.092)">
<stop stop-color="#ECAD3F"/>
<stop offset="0.98" stop-color="#C77129"/>
</radialGradient>
<radialGradient id="paint2_radial_2012_24099" cx="0" cy="0" r="1" gradientUnits="userSpaceOnUse" gradientTransform="translate(29.2419 25.2025) rotate(-91.24) scale(29.6816 30.2524)">
<stop stop-color="#ECAD3F"/>
<stop offset="0.98" stop-color="#C77129"/>
</radialGradient>
<radialGradient id="paint3_radial_2012_24099" cx="0" cy="0" r="1" gradientUnits="userSpaceOnUse" gradientTransform="translate(-37.4753 37.6761) rotate(-30.93) scale(4.154 3.038)">
<stop offset="0.51" stop-color="white"/>
<stop offset="1" stop-color="white" stop-opacity="0"/>
</radialGradient>
<radialGradient id="paint4_radial_2012_24099" cx="0" cy="0" r="1" gradientUnits="userSpaceOnUse" gradientTransform="translate(-256.104 273.524) rotate(-42.51) scale(1.0608 2.6832)">
<stop offset="0.51" stop-color="white"/>
<stop offset="1" stop-color="white" stop-opacity="0"/>
</radialGradient>
<radialGradient id="paint5_radial_2012_24099" cx="0" cy="0" r="1" gradientUnits="userSpaceOnUse" gradientTransform="translate(-260.411 278.042) rotate(-42.51) scale(0.5712 1.4448)">
<stop offset="0.51" stop-color="white"/>
<stop offset="1" stop-color="white" stop-opacity="0"/>
</radialGradient>
<radialGradient id="paint6_radial_2012_24099" cx="0" cy="0" r="1" gradientUnits="userSpaceOnUse" gradientTransform="translate(250.078 157.253) rotate(-149.15) scale(1.0816 2.6416)">
<stop offset="0.51" stop-color="white"/>
<stop offset="1" stop-color="white" stop-opacity="0"/>
</radialGradient>
<radialGradient id="paint7_radial_2012_24099" cx="0" cy="0" r="1" gradientUnits="userSpaceOnUse" gradientTransform="translate(253.424 159.09) rotate(-149.15) scale(0.5824 1.4224)">
<stop offset="0.51" stop-color="white"/>
<stop offset="1" stop-color="white" stop-opacity="0"/>
</radialGradient>
<radialGradient id="paint8_radial_2012_24099" cx="0" cy="0" r="1" gradientUnits="userSpaceOnUse" gradientTransform="translate(166.973 201.183) rotate(-124.29) scale(0.5712 1.4672)">
<stop offset="0.51" stop-color="white"/>
<stop offset="1" stop-color="white" stop-opacity="0"/>
</radialGradient>
<radialGradient id="paint9_radial_2012_24099" cx="0" cy="0" r="1" gradientUnits="userSpaceOnUse" gradientTransform="translate(50.7959 49.3564) rotate(-76.97) scale(3.984 1.66)">
<stop stop-color="white"/>
<stop offset="1" stop-color="white" stop-opacity="0"/>
</radialGradient>
<linearGradient id="paint10_linear_2012_24099" x1="29.32" y1="27.94" x2="29.32" y2="4.57996" gradientUnits="userSpaceOnUse">
<stop stop-color="white" stop-opacity="0"/>
<stop offset="1" stop-color="white"/>
</linearGradient>
<linearGradient id="paint11_linear_2012_24099" x1="29.32" y1="51.49" x2="29.32" y2="26" gradientUnits="userSpaceOnUse">
<stop/>
<stop offset="0.98" stop-color="white" stop-opacity="0"/>
</linearGradient>
<radialGradient id="paint12_radial_2012_24099" cx="0" cy="0" r="1" gradientUnits="userSpaceOnUse" gradientTransform="translate(28.8652 15.4052) scale(31.9312 29.6504)">
<stop stop-color="white"/>
<stop offset="1" stop-color="white" stop-opacity="0"/>
</radialGradient>
</defs>
</svg>
