<svg width="62" height="60" viewBox="0 0 62 60" fill="none" xmlns="http://www.w3.org/2000/svg">
<path d="M30.84 59.99C45.0282 59.99 56.53 47.9912 56.53 33.19C56.53 18.3888 45.0282 6.39001 30.84 6.39001C16.6518 6.39001 5.15002 18.3888 5.15002 33.19C5.15002 47.9912 16.6518 59.99 30.84 59.99Z" fill="url(#paint0_radial_2012_24356)"/>
<path d="M56.53 30.06C56.53 30.92 56.48 31.77 56.38 32.6C56.34 32.98 56.28 33.37 56.22 33.74C56.11 34.38 55.97 35.01 55.8 35.62C55.68 36.06 55.55 36.49 55.41 36.92C54.96 38.25 54.4 39.52 53.71 40.74C53.57 41 53.42 41.25 53.26 41.51C48.86 48.67 40.47 53.51 30.84 53.51C21.21 53.51 13.01 48.78 8.57002 41.76C8.41002 41.51 8.26002 41.26 8.11002 41.01C7.41002 39.81 6.83002 38.54 6.37002 37.23C6.22002 36.8 6.08002 36.37 5.96002 35.93C5.75002 35.2 5.58002 34.46 5.46002 33.7C5.39002 33.28 5.33002 32.85 5.28002 32.42C5.19002 31.65 5.15002 30.86 5.15002 30.07C5.15002 29.52 5.17002 28.97 5.21002 28.43C5.24002 27.98 5.29002 27.54 5.35002 27.11C5.45002 26.37 5.59002 25.64 5.77002 24.92C6.01002 23.91 6.33002 22.94 6.71002 21.99C6.96002 21.37 7.23002 20.77 7.53002 20.18C8.81002 17.66 10.57 15.39 12.71 13.45C13.5 12.73 14.35 12.05 15.25 11.42C19.57 8.39999 24.97 6.60999 30.83 6.60999C36.69 6.60999 42.55 8.55999 46.96 11.81C47.86 12.47 48.7 13.18 49.49 13.95C51.53 15.92 53.2 18.21 54.4 20.73C54.65 21.26 54.88 21.8 55.09 22.34C55.48 23.36 55.8 24.42 56.03 25.51C56.17 26.17 56.29 26.84 56.36 27.52C56.4 27.82 56.43 28.12 56.45 28.42C56.49 28.96 56.51 29.51 56.51 30.06H56.53Z" fill="url(#paint1_radial_2012_24356)"/>
<g style="mix-blend-mode:hard-light" opacity="0.2">
<path d="M30.84 51.16C45.0282 51.16 56.53 40.6611 56.53 27.71C56.53 14.7589 45.0282 4.26001 30.84 4.26001C16.6518 4.26001 5.15002 14.7589 5.15002 27.71C5.15002 40.6611 16.6518 51.16 30.84 51.16Z" fill="white"/>
</g>
<path d="M56.5301 26.7699C56.5301 29.4199 56.0501 31.9599 55.1701 34.3299C51.7301 43.5699 42.14 50.2199 30.85 50.2199C19.5601 50.2199 9.88005 43.5099 6.48005 34.1899C5.63005 31.8599 5.17005 29.3599 5.17005 26.7699C5.16005 13.8199 16.6601 3.31995 30.8401 3.31995C45.0201 3.31995 56.5301 13.8199 56.5301 26.7699Z" fill="url(#paint2_radial_2012_24356)"/>
<path style="mix-blend-mode:overlay" opacity="0.15" d="M30.84 8.95997C42.33 8.95997 51.94 17.13 54.39 28.07C53.63 15.18 43.38 4.96997 30.84 4.96997C18.3 4.96997 8.04004 15.18 7.29004 28.07C9.75004 17.13 19.36 8.95997 30.84 8.95997Z" fill="url(#paint3_linear_2012_24356)"/>
<g style="mix-blend-mode:soft-light" opacity="0.75" filter="url(#filter0_f_2012_24356)">
<path d="M30.84 41.5499C22.05 41.5499 14.09 38.3599 8.29004 33.1899C10.63 42.4999 19.83 49.4499 30.84 49.4499C41.85 49.4499 51.05 42.4999 53.39 33.1899C47.59 38.3599 39.63 41.5499 30.84 41.5499Z" fill="url(#paint4_linear_2012_24356)"/>
</g>
<path style="mix-blend-mode:overlay" opacity="0.6" d="M56.5299 28.3299C56.5299 28.6299 56.5299 28.9399 56.5099 29.2399C56.5099 29.5199 56.4899 29.7999 56.4699 30.0899C56.3699 31.4399 56.1699 32.7699 55.8599 34.0499C55.7699 34.4099 55.6799 34.7699 55.5799 35.1199C55.4599 35.5499 55.3199 35.9699 55.1799 36.3899C54.9299 36.4899 54.6799 36.59 54.4399 36.6899C53.8499 36.9199 53.2599 37.1399 52.6699 37.3599C50.0899 38.2899 47.5099 39.0599 44.9299 39.6699C43.6899 39.9599 42.4599 40.2099 41.2199 40.4299C34.2499 41.6399 27.2599 41.6399 20.2799 40.3799C19.0499 40.1599 17.8199 39.8999 16.5899 39.5999C14.1199 38.9999 11.6499 38.2399 9.16994 37.3099C8.61994 37.0999 8.05994 36.8899 7.50994 36.6699C7.16994 36.5299 6.82994 36.3999 6.49994 36.2499C6.35994 35.8399 6.22994 35.4199 6.10994 34.9999C5.99994 34.6099 5.89994 34.2199 5.80994 33.8199C5.52994 32.6099 5.33994 31.3599 5.24994 30.0899C5.21994 29.6799 5.19994 29.2699 5.18994 28.8599C5.18994 28.6799 5.18994 28.5099 5.18994 28.3299C5.18994 27.8199 5.20994 27.3099 5.23994 26.7999C5.28994 25.9899 5.37994 25.1999 5.50994 24.4199C5.60994 23.7999 5.72994 23.1899 5.87994 22.5899C6.49994 20.0099 7.52994 17.5799 8.90994 15.3799C9.42994 14.5499 9.98994 13.7499 10.5999 12.9899C15.2599 7.09995 22.5999 3.31995 30.8399 3.31995C39.0799 3.31995 46.9799 7.38995 51.6399 13.6599C52.2099 14.4299 52.7399 15.2299 53.2199 16.0599C54.4699 18.1999 55.3899 20.5399 55.9399 23.0099C56.0599 23.5299 56.1599 24.0599 56.2399 24.5999C56.3799 25.4999 56.4699 26.4099 56.4999 27.3399C56.5199 27.6699 56.5199 27.9999 56.5199 28.3299H56.5299Z" fill="url(#paint5_radial_2012_24356)"/>
<g style="mix-blend-mode:overlay" opacity="0.7">
<path d="M20.0131 12.1937C22.3047 10.5183 23.5468 8.318 22.7873 7.27919C22.0278 6.24037 19.5544 6.75641 17.2628 8.43179C14.9712 10.1072 13.7291 12.3075 14.4886 13.3463C15.248 14.3851 17.7214 13.869 20.0131 12.1937Z" fill="url(#paint6_radial_2012_24356)"/>
<path d="M13.9799 16.4169C14.6982 15.5633 14.8317 14.4937 14.2781 14.0279C13.7246 13.5621 12.6935 13.8764 11.9752 14.73C11.2569 15.5836 11.1234 16.6533 11.677 17.1191C12.2305 17.5849 13.2616 17.2706 13.9799 16.4169Z" fill="url(#paint7_radial_2012_24356)"/>
<path d="M10.56 19.5096C10.9476 19.049 11.0186 18.4709 10.7186 18.2184C10.4186 17.966 9.86113 18.1347 9.47353 18.5953C9.08594 19.0559 9.01495 19.634 9.31498 19.8865C9.61501 20.1389 10.1724 19.9702 10.56 19.5096Z" fill="url(#paint8_radial_2012_24356)"/>
<path d="M41.138 9.64658C41.5425 9.0335 41.1231 8.04331 40.2012 7.43495C39.2793 6.82658 38.2039 6.83041 37.7993 7.4435C37.3948 8.05658 37.8142 9.04677 38.7361 9.65513C39.6581 10.2635 40.7334 10.2597 41.138 9.64658Z" fill="url(#paint9_radial_2012_24356)"/>
<path d="M43.5393 11.2158C43.7553 10.8885 43.5305 10.3594 43.0372 10.0339C42.544 9.7084 41.9691 9.70987 41.7531 10.0372C41.5371 10.3644 41.7619 10.8936 42.2552 11.2191C42.7484 11.5446 43.3233 11.5431 43.5393 11.2158Z" fill="url(#paint10_radial_2012_24356)"/>
<path d="M51.3937 20.4641C51.7225 20.2607 51.7324 19.6808 51.4158 19.1688C51.0992 18.6568 50.576 18.4066 50.2472 18.6099C49.9183 18.8132 49.9084 19.3931 50.225 19.9051C50.5416 20.4171 51.0648 20.6674 51.3937 20.4641Z" fill="url(#paint11_radial_2012_24356)"/>
<path d="M53.2201 36.7C52.7401 38.82 51.4201 40.31 50.8701 40.17C50.3201 40.03 51.3201 38.95 51.8001 36.83C52.2801 34.71 52.0701 32.36 52.6101 32.49C53.1501 32.62 53.6901 34.57 53.2101 36.69L53.2201 36.7Z" fill="url(#paint12_radial_2012_24356)"/>
</g>
<path opacity="0.2" d="M57.31 18.3C55.91 15 53.92 12.04 51.38 9.50002C48.84 6.96002 45.88 4.96001 42.58 3.57001C39.16 2.12001 35.54 1.39001 31.8 1.39001H30.98C27.24 1.39001 23.61 2.12001 20.2 3.57001C16.9 4.96001 13.94 6.96002 11.4 9.50002C8.86004 12.04 6.86004 15 5.47004 18.3C4.02004 21.72 3.29004 25.34 3.29004 29.08C3.29004 32.82 4.02004 36.45 5.47004 39.86C6.86004 43.16 8.86004 46.12 11.4 48.66C13.94 51.2 16.9 53.2 20.2 54.59C23.62 56.03 27.24 56.77 30.98 56.77H31.8C35.54 56.77 39.17 56.04 42.58 54.59C45.88 53.19 48.84 51.2 51.38 48.66C53.92 46.12 55.92 43.16 57.31 39.86C58.75 36.44 59.49 32.82 59.49 29.08C59.49 25.34 58.76 21.72 57.31 18.3ZM56.29 29.08C56.29 42.61 45.32 53.58 31.79 53.58H30.97C17.44 53.58 6.47004 42.61 6.47004 29.08C6.46004 15.55 17.44 4.58001 30.97 4.58001H31.79C45.32 4.58001 56.29 15.55 56.29 29.08Z" fill="black"/>
<path d="M57.37 17.33C55.94 13.95 53.89 10.91 51.29 8.31C48.68 5.7 45.65 3.66 42.27 2.23C38.77 0.75 35.05 0 31.22 0H30.38C26.55 0 22.83 0.75 19.33 2.23C15.95 3.66 12.91 5.71 10.31 8.31C7.7 10.92 5.66 13.95 4.23 17.33C2.75 20.83 2 24.55 2 28.38C2 32.21 2.75 35.93 4.23 39.43C5.66 42.81 7.71 45.85 10.31 48.45C12.92 51.06 15.95 53.1 19.33 54.53C22.83 56.01 26.55 56.76 30.38 56.76H31.22C35.05 56.76 38.77 56.01 42.27 54.53C45.65 53.1 48.69 51.05 51.29 48.45C53.9 45.84 55.94 42.81 57.37 39.43C58.85 35.93 59.6 32.21 59.6 28.38C59.6 24.55 58.85 20.83 57.37 17.33ZM56.33 28.38C56.33 42.26 45.08 53.5 31.21 53.5H30.37C16.49 53.5 5.25 42.25 5.25 28.38C5.24 14.51 16.49 3.26 30.36 3.26H31.2C45.08 3.26 56.32 14.51 56.32 28.38H56.33Z" fill="#FCF0DA"/>
<g opacity="0.2">
<path d="M39.59 42.1601C38.79 43.3101 37.37 43.7101 36.42 43.0501L20.99 32.3401C20.04 31.6801 19.91 30.2101 20.71 29.0601C21.51 27.9101 22.93 27.5101 23.88 28.1701L39.31 38.8801C40.26 39.5401 40.39 41.0101 39.59 42.1601Z" fill="black"/>
<path d="M40.42 17.81C41.26 18.93 41.19 20.4 40.26 21.1L25.23 32.36C24.3 33.05 22.87 32.71 22.03 31.59C21.19 30.47 21.26 29 22.19 28.3L37.22 17.04C38.15 16.35 39.58 16.69 40.42 17.81Z" fill="black"/>
</g>
<path d="M39.33 40.06C38.53 41.21 37.11 41.61 36.16 40.95L20.73 30.24C19.78 29.58 19.65 28.11 20.45 26.96C21.25 25.81 22.67 25.41 23.62 26.07L39.05 36.78C40 37.44 40.13 38.91 39.33 40.06Z" fill="white"/>
<path d="M39.01 15.93C39.85 17.05 39.78 18.52 38.85 19.22L23.82 30.48C22.89 31.17 21.46 30.83 20.62 29.71C19.78 28.59 19.85 27.12 20.78 26.42L35.81 15.16C36.74 14.47 38.17 14.81 39.01 15.93Z" fill="white"/>
<defs>
<filter id="filter0_f_2012_24356" x="0.290039" y="25.1899" width="61.1" height="32.26" filterUnits="userSpaceOnUse" color-interpolation-filters="sRGB">
<feFlood flood-opacity="0" result="BackgroundImageFix"/>
<feBlend mode="normal" in="SourceGraphic" in2="BackgroundImageFix" result="shape"/>
<feGaussianBlur stdDeviation="4" result="effect1_foregroundBlur_2012_24356"/>
</filter>
<radialGradient id="paint0_radial_2012_24356" cx="0" cy="0" r="1" gradientUnits="userSpaceOnUse" gradientTransform="translate(30.7796 33.19) scale(25.728 26.8)">
<stop/>
<stop offset="0.84" stop-opacity="0.2"/>
</radialGradient>
<radialGradient id="paint1_radial_2012_24356" cx="0" cy="0" r="1" gradientUnits="userSpaceOnUse" gradientTransform="translate(30.5578 30.113) scale(23.6155 39.7598)">
<stop stop-color="#F79D06"/>
<stop offset="0.98" stop-color="#D36101"/>
</radialGradient>
<radialGradient id="paint2_radial_2012_24356" cx="0" cy="0" r="1" gradientUnits="userSpaceOnUse" gradientTransform="translate(30.5679 26.8229) scale(23.6063 39.7598)">
<stop stop-color="#F79D06"/>
<stop offset="0.98" stop-color="#D36101"/>
</radialGradient>
<linearGradient id="paint3_linear_2012_24356" x1="30.84" y1="28.07" x2="30.84" y2="4.96997" gradientUnits="userSpaceOnUse">
<stop stop-color="white" stop-opacity="0"/>
<stop offset="1" stop-color="white"/>
</linearGradient>
<linearGradient id="paint4_linear_2012_24356" x1="30.84" y1="49.4499" x2="30.84" y2="33.1899" gradientUnits="userSpaceOnUse">
<stop/>
<stop offset="0.09" stop-color="#0C0C0C"/>
<stop offset="0.24" stop-color="#2C2C2C"/>
<stop offset="0.46" stop-color="#616161"/>
<stop offset="0.71" stop-color="#AAAAAA"/>
<stop offset="0.98" stop-color="white"/>
</linearGradient>
<radialGradient id="paint5_radial_2012_24356" cx="0" cy="0" r="1" gradientUnits="userSpaceOnUse" gradientTransform="translate(30.2515 17.9455) scale(28.1472 27.2676)">
<stop stop-color="white"/>
<stop offset="1" stop-color="white" stop-opacity="0"/>
</radialGradient>
<radialGradient id="paint6_radial_2012_24356" cx="0" cy="0" r="1" gradientUnits="userSpaceOnUse" gradientTransform="translate(37.6937 -5.13704) rotate(-34.05) scale(3.7642 2.9029)">
<stop offset="0.51" stop-color="white"/>
<stop offset="1" stop-color="white" stop-opacity="0"/>
</radialGradient>
<radialGradient id="paint7_radial_2012_24356" cx="0" cy="0" r="1" gradientUnits="userSpaceOnUse" gradientTransform="translate(51.9273 -6.96765) rotate(-45.96) scale(0.9844 2.5038)">
<stop offset="0.51" stop-color="white"/>
<stop offset="1" stop-color="white" stop-opacity="0"/>
</radialGradient>
<radialGradient id="paint8_radial_2012_24356" cx="0" cy="0" r="1" gradientUnits="userSpaceOnUse" gradientTransform="translate(49.1209 -3.49906) rotate(-45.96) scale(0.529 1.3455)">
<stop offset="0.51" stop-color="white"/>
<stop offset="1" stop-color="white" stop-opacity="0"/>
</radialGradient>
<radialGradient id="paint9_radial_2012_24356" cx="0" cy="0" r="1" gradientUnits="userSpaceOnUse" gradientTransform="translate(-312.159 -199.289) rotate(-146.03) scale(0.9844 2.5252)">
<stop offset="0.51" stop-color="white"/>
<stop offset="1" stop-color="white" stop-opacity="0"/>
</radialGradient>
<radialGradient id="paint10_radial_2012_24356" cx="0" cy="0" r="1" gradientUnits="userSpaceOnUse" gradientTransform="translate(-308.341 -196.885) rotate(-146.03) scale(0.529 1.357)">
<stop offset="0.51" stop-color="white"/>
<stop offset="1" stop-color="white" stop-opacity="0"/>
</radialGradient>
<radialGradient id="paint11_radial_2012_24356" cx="0" cy="0" r="1" gradientUnits="userSpaceOnUse" gradientTransform="translate(-108.566 -283.194) rotate(-121.16) scale(0.5405 1.3225)">
<stop offset="0.51" stop-color="white"/>
<stop offset="1" stop-color="white" stop-opacity="0"/>
</radialGradient>
<radialGradient id="paint12_radial_2012_24356" cx="0" cy="0" r="1" gradientUnits="userSpaceOnUse" gradientTransform="translate(50.9696 28.5243) rotate(-78.4) scale(3.9238 1.4501)">
<stop stop-color="white"/>
<stop offset="1" stop-color="white" stop-opacity="0"/>
</radialGradient>
</defs>
</svg>
