<svg width="230" height="104" viewBox="0 0 230 104" fill="none" xmlns="http://www.w3.org/2000/svg">
<path d="M226.994 60.5356C226.985 62.7055 226.943 64.89 226.876 67.06C226.75 71.3562 226.524 75.6378 226.188 79.9194C226.004 82.3224 225.794 84.7399 225.542 87.1429C225.106 91.3663 222.505 95.109 218.579 97.8033C214.921 100.701 209.854 102.609 204.133 102.93C178.73 104.357 51.2777 104.357 25.8662 102.93C20.1446 102.609 15.0774 100.687 11.4196 97.8033C7.50175 95.109 4.90103 91.3663 4.46478 87.1429C4.30539 85.5555 4.15438 83.9535 4.01176 82.3661C3.60907 77.6767 3.32383 72.9727 3.16443 68.2833C3.07214 65.6182 3.02181 62.9531 3.01342 60.288C2.99664 58.3948 3.01342 56.487 3.04698 54.5937V54.5209C3.09731 51.783 3.18121 49.0451 3.30705 46.3072C3.40772 44.1227 3.53356 41.9382 3.69296 39.7537C3.90269 36.7973 4.16277 33.8409 4.46478 30.8991C4.6913 28.6709 5.52185 26.5884 6.8306 24.7097C7.99673 23.0203 9.56554 21.5058 11.4196 20.2387C15.0774 17.3406 20.1446 15.4328 25.8662 15.0979C51.2777 13.6707 178.73 13.6707 204.133 15.0979C209.854 15.4183 214.921 17.3406 218.579 20.2387C220.945 21.8698 222.824 23.865 224.041 26.1369C224.846 27.6224 225.366 29.2389 225.542 30.9137C225.861 34.0157 226.138 37.1323 226.348 40.2343C226.507 42.5644 226.65 44.9091 226.742 47.2392C226.843 49.5985 226.918 51.9723 226.96 54.3316C226.994 56.4142 227.011 58.4822 226.994 60.5502V60.5356Z" fill="url(#paint0_radial_473_9038)"/>
<path d="M226.876 63.0551C226.809 65.3269 226.717 67.5988 226.591 69.8707C226.381 73.7446 226.096 77.6184 225.719 81.4923C225.66 82.104 225.601 82.7156 225.534 83.3273C225.098 87.5507 222.497 91.2934 218.571 93.9877C214.913 96.8858 209.846 98.7936 204.124 99.1285C178.721 100.556 51.2693 100.556 25.8578 99.1285C20.1362 98.8081 15.069 96.8858 11.4112 93.9877C7.68633 91.4245 5.16112 87.9293 4.5403 83.9681C4.50675 83.7642 4.48158 83.5457 4.45641 83.3273C4.03694 79.2932 3.70975 75.2592 3.47485 71.2251C3.31545 68.56 3.198 65.8804 3.1225 63.2153C3.01343 59.7346 2.97987 56.254 3.01343 52.7733V52.7296C3.02182 51.8704 3.0386 51.0111 3.04699 50.1519C3.08894 47.7344 3.16444 45.3169 3.2735 42.8993C3.47485 38.4575 3.78526 34.0157 4.20473 29.5739C4.28023 28.7437 4.36413 27.8991 4.44802 27.069C4.88427 22.8456 7.48499 19.1028 11.4028 16.4086C15.0606 13.525 20.1278 11.6027 25.8494 11.2823C51.2609 9.85505 178.713 9.85505 204.116 11.2823C209.837 11.6027 214.905 13.525 218.562 16.4086C222.48 19.1028 225.081 22.8456 225.526 27.069C225.643 28.1758 225.744 29.2826 225.844 30.3748C226.23 34.5691 226.516 38.7633 226.709 42.9722C226.826 45.579 226.902 48.1859 226.943 50.7927C226.943 51.215 226.96 51.6374 226.969 52.0597V52.2053C227.002 55.8171 226.969 59.4433 226.868 63.0551H226.876Z" fill="url(#paint1_radial_473_9038)"/>
<g style="mix-blend-mode:hard-light" opacity="0.2">
<path d="M225.533 23.2679C225.097 19.0445 222.496 15.3017 218.579 12.6075C214.921 9.70941 209.854 7.80161 204.132 7.46665C178.729 6.03944 51.2687 6.03944 25.8656 7.46665C20.144 7.78704 15.0768 9.70941 11.419 12.6075C7.50117 15.3017 4.90046 19.0445 4.46421 23.2679C2.52625 42.0255 2.52625 60.7686 4.46421 79.5262C4.90046 83.7496 7.50117 87.4924 11.419 90.1866C15.0768 93.0847 20.144 94.9925 25.8656 95.3275C51.2687 96.7547 178.729 96.7547 204.132 95.3275C209.854 95.0071 214.921 93.0847 218.579 90.1866C222.496 87.4924 225.097 83.7496 225.533 79.5262C227.471 60.7686 227.471 42.0255 225.533 23.2679Z" fill="white"/>
</g>
<path d="M226.44 67.293C226.213 70.9047 225.911 74.5164 225.534 78.1282C225.097 82.3515 222.497 86.0943 218.579 88.7886C214.921 91.6867 209.854 93.5945 204.124 93.9294C178.721 95.3712 51.2605 95.3712 25.8574 93.9294C20.1358 93.609 15.0686 91.6867 11.4109 88.7886C7.49301 86.0943 4.8923 82.3515 4.45605 78.1282C4.11208 74.7786 3.82684 71.4436 3.60033 68.094C2.57682 52.686 2.86206 37.2779 4.45605 21.8699C4.8923 17.6465 7.49301 13.9037 11.4109 11.2095C15.0686 8.32592 20.1358 6.40355 25.8574 6.06859C51.2689 4.64138 178.721 4.64138 204.132 6.08316C209.854 6.40355 214.921 8.32592 218.587 11.224C222.505 13.9328 225.106 17.661 225.542 21.8844C227.103 37.0303 227.413 52.1617 226.448 67.3076L226.44 67.293Z" fill="url(#paint2_radial_473_9038)"/>
<g style="mix-blend-mode:overlay" opacity="0.8" filter="url(#filter0_f_473_9038)">
<path d="M14.2717 21.1271C17.7282 18.462 22.5269 16.6853 27.9381 16.3795C51.9653 15.0542 178.033 15.0542 202.06 16.3795C207.471 16.6853 212.262 18.4475 215.727 21.1271C218.243 22.831 220.19 24.9718 221.305 27.3894C221.213 26.3991 221.129 25.4087 221.029 24.4039C220.626 20.5009 218.227 17.0494 214.602 14.5445C211.221 11.8794 206.54 10.1026 201.246 9.79681C177.764 8.47154 52.2422 8.47154 28.7602 9.79681C23.4665 10.1026 18.7852 11.8648 15.4043 14.5445C11.7801 17.0494 9.38071 20.5009 8.97802 24.4039C8.87735 25.3942 8.79346 26.3845 8.70117 27.3894C9.81696 24.9718 11.7549 22.831 14.2801 21.1271H14.2717Z" fill="url(#paint3_linear_473_9038)"/>
</g>
<g style="mix-blend-mode:soft-light" opacity="0.75" filter="url(#filter1_f_473_9038)">
<path d="M217.706 67.06C214.107 69.8999 209.124 71.7931 203.495 72.1135C178.511 73.5262 51.4785 73.5262 26.4948 72.1135C20.8655 71.7931 15.8822 69.9144 12.2832 67.06C11.6959 66.6522 11.1422 66.2299 10.6221 65.7784C10.8234 68.8076 11.0751 71.8368 11.3855 74.8514C11.7714 78.5796 14.0701 81.8855 17.5349 84.2739C20.7649 86.8225 25.2448 88.5264 30.3036 88.8031C52.7537 90.0701 177.244 90.0701 199.694 88.8031C204.753 88.5119 209.224 86.8225 212.463 84.2739C215.928 81.8855 218.226 78.5796 218.612 74.8514C218.923 71.8222 219.183 68.7931 219.376 65.7784C218.856 66.2299 218.302 66.6522 217.715 67.06H217.706Z" fill="url(#paint4_linear_473_9038)"/>
</g>
<path style="mix-blend-mode:overlay" opacity="0.6" d="M226.985 50.8073C226.985 51.2151 226.985 51.6374 226.985 52.0452V52.1908C226.985 52.9044 226.968 53.6034 226.96 54.317C226.927 56.3414 226.876 58.3657 226.801 60.3754C226.767 61.2055 226.734 62.0356 226.7 62.8657C226.641 64.1619 226.566 65.458 226.482 66.7542C226.473 66.9289 226.465 67.1183 226.448 67.293C225.593 67.5115 224.745 67.7445 223.89 67.9484C219.401 69.0843 214.904 70.0892 210.416 70.963C208.831 71.2688 207.245 71.5601 205.659 71.8513C178.696 76.599 49.65 76.7738 22.6193 72.1426C21.1847 71.895 19.7501 71.6329 18.3072 71.3708C14.2635 70.5989 10.2114 69.7251 6.1593 68.7348C5.30358 68.5309 4.45625 68.3124 3.60053 68.094C3.60053 68.0212 3.59214 67.9338 3.58375 67.861C3.48308 66.2444 3.38241 64.6133 3.31529 62.9968C3.26496 62.0356 3.2314 61.089 3.19784 60.1278C3.13073 58.2928 3.08039 56.4433 3.04683 54.6083V54.5355C3.03844 53.953 3.03005 53.3704 3.02166 52.7733V52.7296C3.01327 51.885 3.00488 51.0403 3.00488 50.1956C3.00488 48.9723 3.01327 47.7344 3.03005 46.5111C3.04683 45.3751 3.06361 44.2246 3.09717 43.0887C3.11395 42.1129 3.1475 41.1518 3.18945 40.176C3.31529 36.7391 3.49986 33.3021 3.75993 29.8651C3.85221 28.6418 3.9445 27.4185 4.05356 26.1952C4.17101 24.7534 4.31363 23.3116 4.46464 21.8699C4.90089 17.6465 7.5016 13.9037 11.4195 11.2095C15.0772 8.32592 20.1444 6.40356 25.866 6.08316C51.2691 4.64139 178.721 4.64139 204.124 6.08316C209.854 6.40356 214.921 8.32592 218.579 11.2095C222.497 13.9183 225.098 17.661 225.534 21.8699C225.718 23.6466 225.886 25.4088 226.029 27.1855C226.121 28.336 226.213 29.4865 226.289 30.637C226.532 33.9575 226.7 37.2633 226.817 40.5692C226.851 41.4139 226.868 42.2586 226.893 43.1033C226.926 44.5305 226.952 45.9431 226.968 47.3849C226.977 48.5208 226.977 49.6568 226.968 50.8073H226.985Z" fill="url(#paint5_radial_473_9038)"/>
<g style="mix-blend-mode:soft-light" opacity="0.6">
<path d="M190.919 19.5106C190.953 25.0301 173.276 21.5349 109.961 21.5349C58.0308 21.5349 38.3744 25.1903 38.3409 19.6708C38.3073 14.1513 57.2758 9.60748 110.96 9.60748C172.521 9.60748 190.885 13.9911 190.919 19.5106Z" fill="white"/>
</g>
<path d="M199.803 13.6635C199.827 12.6992 198.247 11.8002 196.275 11.6555C194.303 11.5108 192.685 12.1753 192.662 13.1396C192.638 14.1039 194.218 15.0029 196.19 15.1476C198.162 15.2923 199.78 14.6278 199.803 13.6635Z" fill="url(#paint6_radial_473_9038)"/>
<path d="M204.878 14.4811C204.891 13.9668 204.041 13.4868 202.981 13.409C201.921 13.3313 201.052 13.6851 201.039 14.1994C201.027 14.7137 201.876 15.1937 202.936 15.2715C203.996 15.3493 204.866 14.9954 204.878 14.4811Z" fill="url(#paint7_radial_473_9038)"/>
<path d="M219.519 71.5601C219.519 74.3708 217.774 76.6427 216.759 76.6427C215.744 76.6427 217.069 74.9825 217.069 72.1718C217.069 69.361 215.744 66.4775 216.759 66.4775C217.774 66.4775 219.519 68.7494 219.519 71.5601Z" fill="url(#paint8_radial_473_9038)"/>
<path d="M218.256 26.3462C218.4 24.7732 217.325 23.171 215.856 22.7676C214.387 22.3641 213.08 23.3122 212.936 24.8852C212.793 26.4582 213.868 28.0604 215.337 28.4638C216.806 28.8673 218.113 27.9192 218.256 26.3462Z" fill="url(#paint9_radial_473_9038)"/>
<path d="M218.207 31.5642C218.284 30.7221 217.704 29.8632 216.913 29.6458C216.121 29.4283 215.417 29.9347 215.34 30.7768C215.263 31.6189 215.843 32.4778 216.635 32.6953C217.426 32.9127 218.13 32.4063 218.207 31.5642Z" fill="url(#paint10_radial_473_9038)"/>
<path d="M189.426 11.9667C189.468 12.6803 40.9753 13.1755 34.4903 13.9328C21.3274 15.462 24.2469 21.3456 22.3676 21.2582C20.4884 21.1708 19.0622 13.4668 34.2722 12.36C47.7456 11.3842 189.384 11.2531 189.426 11.9667Z" fill="url(#paint11_radial_473_9038)"/>
<path d="M22.0522 28.8195C22.6206 27.3897 22.4786 25.5084 21.735 24.6175C20.9914 23.7267 19.9278 24.1637 19.3593 25.5935C18.7909 27.0234 18.9329 28.9047 19.6765 29.7956C20.4201 30.6864 21.4838 30.2494 22.0522 28.8195Z" fill="url(#paint12_radial_473_9038)"/>
<path d="M84.5946 49.568C84.5946 49.7 84.2226 49.808 83.4786 49.892C82.7466 49.964 82.0086 50 81.2646 50C80.5326 50 80.0646 49.97 79.8606 49.91C79.6686 49.838 79.5726 49.724 79.5726 49.568V41.828H77.0706C76.9386 41.828 76.8246 41.66 76.7286 41.324C76.6326 40.988 76.5846 40.49 76.5846 39.83C76.5846 39.158 76.6566 38.558 76.8006 38.03C76.9446 37.49 77.1366 37.22 77.3766 37.22H87.1146C87.2946 37.22 87.4146 37.388 87.4746 37.724C87.5466 38.06 87.5826 38.546 87.5826 39.182C87.5826 39.818 87.5166 40.418 87.3846 40.982C87.2526 41.546 87.0726 41.828 86.8446 41.828H84.5946V49.568ZM94.7532 50.162C93.7572 50.162 92.8992 50.072 92.1792 49.892C91.4712 49.7 90.8172 49.364 90.2172 48.884C89.0052 47.936 88.3992 46.118 88.3992 43.43C88.3992 42.302 88.5612 41.318 88.8852 40.478C89.2212 39.638 89.6832 38.972 90.2712 38.48C91.4232 37.52 92.9172 37.04 94.7532 37.04C95.7012 37.04 96.5232 37.124 97.2192 37.292C97.9272 37.46 98.5932 37.766 99.2172 38.21C100.477 39.122 101.107 40.862 101.107 43.43C101.107 45.734 100.537 47.432 99.3972 48.524C98.2572 49.616 96.7092 50.162 94.7532 50.162ZM94.1592 47.084C94.3032 47.252 94.5012 47.336 94.7532 47.336C95.0052 47.336 95.2032 47.252 95.3472 47.084C95.4912 46.904 95.6112 46.532 95.7072 45.968C95.8032 45.392 95.8512 44.594 95.8512 43.574C95.8512 42.554 95.8032 41.768 95.7072 41.216C95.6112 40.664 95.4912 40.304 95.3472 40.136C95.2032 39.968 95.0052 39.884 94.7532 39.884C94.5012 39.884 94.3032 39.968 94.1592 40.136C94.0152 40.304 93.8952 40.664 93.7992 41.216C93.7032 41.768 93.6552 42.554 93.6552 43.574C93.6552 44.594 93.7032 45.392 93.7992 45.968C93.8952 46.532 94.0152 46.904 94.1592 47.084ZM113.903 44.978C113.903 46.706 113.405 48.002 112.409 48.866C111.425 49.718 109.991 50.144 108.107 50.144C106.235 50.144 104.795 49.718 103.787 48.866C102.779 48.002 102.275 46.706 102.275 44.978V38.372C102.275 38.072 102.611 37.802 103.283 37.562C103.967 37.322 104.759 37.202 105.659 37.202C106.379 37.202 106.847 37.34 107.063 37.616C107.219 37.832 107.297 38.018 107.297 38.174V43.538C107.297 44.894 107.345 45.794 107.441 46.238C107.549 46.67 107.771 46.886 108.107 46.886C108.443 46.886 108.653 46.676 108.737 46.256C108.833 45.824 108.881 44.912 108.881 43.52V38.372C108.881 38.072 109.217 37.802 109.889 37.562C110.573 37.322 111.359 37.202 112.247 37.202C113.003 37.202 113.483 37.34 113.687 37.616C113.831 37.832 113.903 38.018 113.903 38.174V44.978ZM120.375 49.478C120.375 49.634 120.009 49.76 119.277 49.856C118.545 49.952 117.807 50 117.063 50C116.331 50 115.857 49.958 115.641 49.874C115.437 49.79 115.335 49.658 115.335 49.478V37.904C115.335 37.592 115.725 37.37 116.505 37.238C117.297 37.106 118.293 37.04 119.493 37.04C120.693 37.04 121.467 37.046 121.815 37.058C122.175 37.058 122.595 37.076 123.075 37.112C123.555 37.148 123.933 37.208 124.209 37.292C124.497 37.376 124.809 37.484 125.145 37.616C125.493 37.748 125.763 37.922 125.955 38.138C126.147 38.342 126.333 38.588 126.513 38.876C126.837 39.392 126.999 40.13 126.999 41.09C126.999 42.038 126.837 42.842 126.513 43.502C126.201 44.15 125.781 44.642 125.253 44.978C126.633 47.15 127.323 48.53 127.323 49.118C127.323 49.706 126.141 50 123.777 50C123.093 50 122.619 49.97 122.355 49.91C122.091 49.85 121.923 49.718 121.851 49.514L120.681 45.806L120.375 45.788V49.478ZM120.375 43.016H120.843C121.539 43.016 121.887 42.476 121.887 41.396C121.887 40.844 121.791 40.454 121.599 40.226C121.419 39.998 121.209 39.884 120.969 39.884H120.375V43.016ZM133.242 49.478C133.242 49.634 132.87 49.76 132.126 49.856C131.394 49.952 130.662 50 129.93 50C129.198 50 128.73 49.958 128.526 49.874C128.322 49.79 128.22 49.658 128.22 49.478V38.426C128.22 38.126 128.562 37.85 129.246 37.598C129.942 37.346 130.728 37.22 131.604 37.22C131.916 37.22 132.15 37.232 132.306 37.256C132.714 37.316 133.002 37.574 133.17 38.03L134.898 42.674H134.97V38.426C134.97 38.126 135.312 37.85 135.996 37.598C136.68 37.346 137.46 37.22 138.336 37.22C139.092 37.22 139.572 37.364 139.776 37.652C139.92 37.856 139.992 38.042 139.992 38.21V49.478C139.992 49.634 139.62 49.76 138.876 49.856C138.144 49.952 137.334 50 136.446 50C135.57 50 135.09 49.886 135.006 49.658L133.332 45.23H133.242V49.478ZM146.407 49.082C146.383 49.43 146.197 49.67 145.849 49.802C145.513 49.934 144.901 50 144.013 50C143.125 50 142.381 49.922 141.781 49.766C141.193 49.598 140.899 49.388 140.899 49.136C140.899 48.848 141.433 47.012 142.501 43.628C143.569 40.232 144.181 38.276 144.337 37.76C144.397 37.604 144.877 37.478 145.777 37.382C146.689 37.274 147.661 37.22 148.693 37.22C149.737 37.22 150.313 37.4 150.421 37.76C152.689 45.296 153.823 49.124 153.823 49.244C153.823 49.364 153.751 49.484 153.607 49.604C153.271 49.868 152.605 50 151.609 50C149.485 50 148.399 49.748 148.351 49.244L148.225 48.074H146.497L146.407 49.082ZM147.847 44.654L147.577 41.414H147.181L146.875 44.654H147.847ZM157.5 50C157.2 50 156.762 50 156.186 50C155.622 50 155.238 49.958 155.034 49.874C154.83 49.79 154.728 49.658 154.728 49.478V38.12C154.728 37.844 155.094 37.628 155.826 37.472C156.57 37.304 157.362 37.22 158.202 37.22C159.042 37.22 159.642 37.328 160.002 37.544C160.362 37.76 160.572 37.988 160.632 38.228L161.856 42.98H162.018L163.17 38.444C163.254 38.12 163.644 37.838 164.34 37.598C165.048 37.346 165.822 37.22 166.662 37.22C167.502 37.22 168.12 37.286 168.516 37.418C168.924 37.55 169.128 37.718 169.128 37.922V49.478C169.128 49.634 168.786 49.76 168.102 49.856C167.418 49.952 166.584 50 165.6 50C164.616 50 164.124 49.826 164.124 49.478C164.124 48.53 164.226 46.844 164.43 44.42H164.268L163.332 49.118C163.296 49.298 163.146 49.43 162.882 49.514C162.63 49.598 162.246 49.64 161.73 49.64C161.214 49.64 160.896 49.604 160.776 49.532C160.668 49.46 160.596 49.322 160.56 49.118L159.588 44.42H159.426C159.642 46.892 159.75 48.578 159.75 49.478C159.75 49.79 159 49.964 157.5 50ZM179.692 50H172.06C171.472 50 171.076 49.958 170.872 49.874C170.668 49.79 170.566 49.658 170.566 49.478V38.084C170.566 37.772 170.704 37.55 170.98 37.418C171.268 37.286 171.778 37.22 172.51 37.22H179.746C179.998 37.22 180.124 37.64 180.124 38.48C180.124 39.308 180.07 39.944 179.962 40.388C179.854 40.82 179.71 41.036 179.53 41.036C178.75 41.036 177.436 40.958 175.588 40.802V42.008C177.364 41.936 178.522 41.9 179.062 41.9C179.386 41.9 179.548 42.278 179.548 43.034C179.548 43.79 179.482 44.366 179.35 44.762C179.23 45.146 179.062 45.338 178.846 45.338L175.588 45.266V46.418C177.676 46.262 179.116 46.184 179.908 46.184C180.16 46.184 180.286 46.604 180.286 47.444C180.286 48.284 180.232 48.92 180.124 49.352C180.016 49.784 179.872 50 179.692 50ZM186.574 49.478C186.574 49.634 186.202 49.76 185.458 49.856C184.726 49.952 183.994 50 183.262 50C182.53 50 182.062 49.958 181.858 49.874C181.654 49.79 181.552 49.658 181.552 49.478V38.426C181.552 38.126 181.894 37.85 182.578 37.598C183.274 37.346 184.06 37.22 184.936 37.22C185.248 37.22 185.482 37.232 185.638 37.256C186.046 37.316 186.334 37.574 186.502 38.03L188.23 42.674H188.302V38.426C188.302 38.126 188.644 37.85 189.328 37.598C190.012 37.346 190.792 37.22 191.668 37.22C192.424 37.22 192.904 37.364 193.108 37.652C193.252 37.856 193.324 38.042 193.324 38.21V49.478C193.324 49.634 192.952 49.76 192.208 49.856C191.476 49.952 190.666 50 189.778 50C188.902 50 188.422 49.886 188.338 49.658L186.664 45.23H186.574V49.478ZM202.421 49.568C202.421 49.7 202.049 49.808 201.305 49.892C200.573 49.964 199.835 50 199.091 50C198.359 50 197.891 49.97 197.687 49.91C197.495 49.838 197.399 49.724 197.399 49.568V41.828H194.897C194.765 41.828 194.651 41.66 194.555 41.324C194.459 40.988 194.411 40.49 194.411 39.83C194.411 39.158 194.483 38.558 194.627 38.03C194.771 37.49 194.963 37.22 195.203 37.22H204.941C205.121 37.22 205.241 37.388 205.301 37.724C205.373 38.06 205.409 38.546 205.409 39.182C205.409 39.818 205.343 40.418 205.211 40.982C205.079 41.546 204.899 41.828 204.671 41.828H202.421V49.568ZM112.515 75C112.148 75 111.613 75 110.909 75C110.22 75 109.75 74.9487 109.501 74.846C109.252 74.7433 109.127 74.582 109.127 74.362V60.48C109.127 60.1427 109.574 59.8787 110.469 59.688C111.378 59.4827 112.346 59.38 113.373 59.38C114.4 59.38 115.133 59.512 115.573 59.776C116.013 60.04 116.27 60.3187 116.343 60.612L117.839 66.42H118.037L119.445 60.876C119.548 60.48 120.024 60.1353 120.875 59.842C121.74 59.534 122.686 59.38 123.713 59.38C124.74 59.38 125.495 59.4607 125.979 59.622C126.478 59.7833 126.727 59.9887 126.727 60.238V74.362C126.727 74.5527 126.309 74.7067 125.473 74.824C124.637 74.9413 123.618 75 122.415 75C121.212 75 120.611 74.7873 120.611 74.362C120.611 73.2033 120.736 71.1427 120.985 68.18H120.787L119.643 73.922C119.599 74.142 119.416 74.3033 119.093 74.406C118.785 74.5087 118.316 74.56 117.685 74.56C117.054 74.56 116.666 74.516 116.519 74.428C116.387 74.34 116.299 74.1713 116.255 73.922L115.067 68.18H114.869C115.133 71.2013 115.265 73.262 115.265 74.362C115.265 74.7433 114.348 74.956 112.515 75ZM135.92 75.198C134.703 75.198 133.654 75.088 132.774 74.868C131.909 74.6333 131.11 74.2227 130.376 73.636C128.895 72.4773 128.154 70.2553 128.154 66.97C128.154 65.5913 128.352 64.3887 128.748 63.362C129.159 62.3353 129.724 61.5213 130.442 60.92C131.85 59.7467 133.676 59.16 135.92 59.16C137.079 59.16 138.084 59.2627 138.934 59.468C139.8 59.6733 140.614 60.0473 141.376 60.59C142.916 61.7047 143.686 63.8313 143.686 66.97C143.686 69.786 142.99 71.8613 141.596 73.196C140.203 74.5307 138.311 75.198 135.92 75.198ZM135.194 71.436C135.37 71.6413 135.612 71.744 135.92 71.744C136.228 71.744 136.47 71.6413 136.646 71.436C136.822 71.216 136.969 70.7613 137.086 70.072C137.204 69.368 137.262 68.3927 137.262 67.146C137.262 65.8993 137.204 64.9387 137.086 64.264C136.969 63.5893 136.822 63.1493 136.646 62.944C136.47 62.7387 136.228 62.636 135.92 62.636C135.612 62.636 135.37 62.7387 135.194 62.944C135.018 63.1493 134.872 63.5893 134.754 64.264C134.637 64.9387 134.578 65.8993 134.578 67.146C134.578 68.3927 134.637 69.368 134.754 70.072C134.872 70.7613 135.018 71.216 135.194 71.436ZM152.131 75H146.939C146.221 75 145.737 74.9487 145.487 74.846C145.238 74.7433 145.113 74.5747 145.113 74.34V60.458C145.113 60.0767 145.275 59.8053 145.597 59.644C145.92 59.468 146.477 59.38 147.269 59.38H152.219C155.035 59.38 156.979 59.9373 158.049 61.052C159.12 62.152 159.655 64.1613 159.655 67.08C159.655 69.9987 159.098 72.052 157.983 73.24C156.869 74.4133 154.918 75 152.131 75ZM151.955 62.658C151.603 62.658 151.369 62.6873 151.251 62.746V71.634L152.087 71.722C152.527 71.722 152.857 71.37 153.077 70.666C153.312 69.962 153.429 68.7447 153.429 67.014C153.429 65.2833 153.312 64.1247 153.077 63.538C152.843 62.9513 152.469 62.658 151.955 62.658ZM172.359 75H163.031C162.313 75 161.829 74.9487 161.579 74.846C161.33 74.7433 161.205 74.582 161.205 74.362V60.436C161.205 60.0547 161.374 59.7833 161.711 59.622C162.063 59.4607 162.687 59.38 163.581 59.38H172.425C172.733 59.38 172.887 59.8933 172.887 60.92C172.887 61.932 172.821 62.7093 172.689 63.252C172.557 63.78 172.381 64.044 172.161 64.044C171.208 64.044 169.602 63.9487 167.343 63.758V65.232C169.514 65.144 170.929 65.1 171.589 65.1C171.985 65.1 172.183 65.562 172.183 66.486C172.183 67.41 172.103 68.114 171.941 68.598C171.795 69.0673 171.589 69.302 171.325 69.302L167.343 69.214V70.622C169.895 70.4313 171.655 70.336 172.623 70.336C172.931 70.336 173.085 70.8493 173.085 71.876C173.085 72.9027 173.019 73.68 172.887 74.208C172.755 74.736 172.579 75 172.359 75Z" fill="#1C5E79"/>
<path d="M49.3963 63.323H44.8477V66.3554H49.3963V63.323Z" stroke="#1C5E79" stroke-width="2" stroke-miterlimit="10" stroke-linecap="round" stroke-linejoin="round"/>
<path d="M43.9515 63.323H50.292C51.2569 63.323 52.015 62.5649 52.015 61.6C52.015 60.6351 51.2569 59.877 50.292 59.877H43.9515C42.9866 59.877 42.2285 60.6351 42.2285 61.6C42.2285 62.5649 42.9866 63.323 43.9515 63.323Z" stroke="#1C5E79" stroke-width="2" stroke-miterlimit="10" stroke-linecap="round" stroke-linejoin="round"/>
<path d="M33.5449 31V45.1284C33.5449 51.6757 37.3355 57.4649 42.9868 60.2216C43.2625 60.0149 43.6071 59.9459 43.9517 59.9459H50.2922C50.6368 59.9459 50.9814 60.0838 51.2571 60.2216C56.9084 57.4649 60.699 51.6757 60.699 45.1284V31H33.5449Z" stroke="#1C5E79" stroke-width="2" stroke-miterlimit="10" stroke-linecap="round" stroke-linejoin="round"/>
<path d="M60.6987 32.723V35.6865H68.2109C67.7974 41.8203 64.5582 47.2649 59.7339 50.7108C59.1136 52.5027 58.1487 54.1567 56.9082 55.673C65.5231 52.1581 71.2433 43.75 71.2433 34.2392V32.723H60.6987Z" stroke="#1C5E79" stroke-width="2" stroke-miterlimit="10" stroke-linecap="round" stroke-linejoin="round"/>
<path d="M26.0324 35.7554H33.5446V32.723H23V34.2392C23 43.75 28.7203 52.1581 37.3351 55.7419C36.1635 54.2946 35.1986 52.6405 34.5095 50.7797C29.6851 47.3338 26.5149 41.8892 26.0324 35.7554Z" stroke="#1C5E79" stroke-width="2" stroke-miterlimit="10" stroke-linecap="round" stroke-linejoin="round"/>
<path d="M60.699 75.246H33.5449V79.2433H60.699V75.246Z" stroke="#1C5E79" stroke-width="2" stroke-miterlimit="10" stroke-linecap="round" stroke-linejoin="round"/>
<path d="M58.9753 68.8365C58.9753 67.4581 57.8726 66.3554 56.4942 66.3554H37.6793C36.3009 66.3554 35.1982 67.4581 35.1982 68.8365V75.177H58.9753V68.8365Z" stroke="#1C5E79" stroke-width="2" stroke-miterlimit="10" stroke-linecap="round" stroke-linejoin="round"/>
<path d="M47.1221 35.9622L48.9829 39.7527L53.2558 40.373L50.1545 43.4054L50.9126 47.6095L47.1221 45.6108L43.3315 47.6095L44.0896 43.4054L40.9883 40.373L45.2613 39.7527L47.1221 35.9622Z" stroke="#1C5E79" stroke-width="2" stroke-miterlimit="10" stroke-linecap="round" stroke-linejoin="round"/>
<defs>
<filter id="filter0_f_473_9038" x="0.701172" y="0.802856" width="228.604" height="34.5865" filterUnits="userSpaceOnUse" color-interpolation-filters="sRGB">
<feFlood flood-opacity="0" result="BackgroundImageFix"/>
<feBlend mode="normal" in="SourceGraphic" in2="BackgroundImageFix" result="shape"/>
<feGaussianBlur stdDeviation="4" result="effect1_foregroundBlur_473_9038"/>
</filter>
<filter id="filter1_f_473_9038" x="2.62207" y="57.7784" width="224.754" height="39.975" filterUnits="userSpaceOnUse" color-interpolation-filters="sRGB">
<feFlood flood-opacity="0" result="BackgroundImageFix"/>
<feBlend mode="normal" in="SourceGraphic" in2="BackgroundImageFix" result="shape"/>
<feGaussianBlur stdDeviation="4" result="effect1_foregroundBlur_473_9038"/>
</filter>
<radialGradient id="paint0_radial_473_9038" cx="0" cy="0" r="1" gradientUnits="userSpaceOnUse" gradientTransform="translate(114.944 58.8835) scale(103.303 75.9194)">
<stop/>
<stop offset="0.84" stop-opacity="0.2"/>
</radialGradient>
<radialGradient id="paint1_radial_473_9038" cx="0" cy="0" r="1" gradientUnits="userSpaceOnUse" gradientTransform="translate(114.944 55.0571) scale(103.303 75.9194)">
<stop stop-color="#2F929F"/>
<stop offset="0.04" stop-color="#55E4DE"/>
<stop offset="0.98" stop-color="#3298A6"/>
</radialGradient>
<radialGradient id="paint2_radial_473_9038" cx="0" cy="0" r="1" gradientUnits="userSpaceOnUse" gradientTransform="translate(115.415 42.1073) rotate(-91.4581) scale(77.6005 109.587)">
<stop stop-color="#339AA7"/>
<stop offset="0.0001" stop-color="#5BEEE5"/>
<stop offset="0.98" stop-color="#3196A3"/>
</radialGradient>
<linearGradient id="paint3_linear_473_9038" x1="114.995" y1="27.3894" x2="114.995" y2="8.8065" gradientUnits="userSpaceOnUse">
<stop stop-color="white" stop-opacity="0"/>
<stop offset="1" stop-color="white"/>
</linearGradient>
<linearGradient id="paint4_linear_473_9038" x1="114.995" y1="89.7643" x2="114.995" y2="65.7784" gradientUnits="userSpaceOnUse">
<stop/>
<stop offset="0.09" stop-color="#0C0C0C"/>
<stop offset="0.24" stop-color="#2C2C2C"/>
<stop offset="0.46" stop-color="#616161"/>
<stop offset="0.71" stop-color="#AAAAAA"/>
<stop offset="0.98" stop-color="white"/>
</linearGradient>
<radialGradient id="paint5_radial_473_9038" cx="0" cy="0" r="1" gradientUnits="userSpaceOnUse" gradientTransform="translate(115.806 23.9562) scale(106.901 78.5633)">
<stop stop-color="white"/>
<stop offset="1" stop-color="white" stop-opacity="0"/>
</radialGradient>
<radialGradient id="paint6_radial_473_9038" cx="0" cy="0" r="1" gradientUnits="userSpaceOnUse" gradientTransform="translate(1019.57 102.78) rotate(-171.57) scale(1.76307 3.29942)">
<stop offset="0.51" stop-color="white"/>
<stop offset="1" stop-color="white" stop-opacity="0"/>
</radialGradient>
<radialGradient id="paint7_radial_473_9038" cx="0" cy="0" r="1" gradientUnits="userSpaceOnUse" gradientTransform="translate(1024.09 103.412) rotate(-171.57) scale(0.946434 1.77115)">
<stop offset="0.51" stop-color="white"/>
<stop offset="1" stop-color="white" stop-opacity="0"/>
</radialGradient>
<radialGradient id="paint8_radial_473_9038" cx="0" cy="0" r="1" gradientUnits="userSpaceOnUse" gradientTransform="translate(201.015 5.53784) rotate(-91.6946) scale(5.09546 2.61376)">
<stop stop-color="white"/>
<stop offset="1" stop-color="white" stop-opacity="0"/>
</radialGradient>
<radialGradient id="paint9_radial_473_9038" cx="0" cy="0" r="1" gradientUnits="userSpaceOnUse" gradientTransform="translate(511.598 1528.27) rotate(-101.046) scale(1.4794 4.92318)">
<stop offset="0.51" stop-color="white"/>
<stop offset="1" stop-color="white" stop-opacity="0"/>
</radialGradient>
<radialGradient id="paint10_radial_473_9038" cx="0" cy="0" r="1" gradientUnits="userSpaceOnUse" gradientTransform="translate(511.355 1525.99) rotate(-101.046) scale(0.794712 2.64468)">
<stop offset="0.51" stop-color="white"/>
<stop offset="1" stop-color="white" stop-opacity="0"/>
</radialGradient>
<radialGradient id="paint11_radial_473_9038" cx="0" cy="0" r="1" gradientUnits="userSpaceOnUse" gradientTransform="translate(-129.652 -1816.23) rotate(-96.1826) scale(22.5975 125.603)">
<stop offset="0.51" stop-color="white"/>
<stop offset="1" stop-color="white" stop-opacity="0"/>
</radialGradient>
<radialGradient id="paint12_radial_473_9038" cx="0" cy="0" r="1" gradientUnits="userSpaceOnUse" gradientTransform="translate(20.3054 48.5271) rotate(-91.8678) scale(3.0469 1.55336)">
<stop offset="0.51" stop-color="white"/>
<stop offset="1" stop-color="white" stop-opacity="0"/>
</radialGradient>
</defs>
</svg>
