<svg width="230" height="113" viewBox="0 0 230 113" fill="none" xmlns="http://www.w3.org/2000/svg">
<path d="M226.993 69.5356C226.985 71.7055 226.943 73.89 226.876 76.06C226.75 80.3562 226.523 84.6378 226.188 88.9194C226.003 91.3224 225.794 93.7399 225.542 96.1429C225.106 100.366 222.505 104.109 218.579 106.803C214.921 109.701 209.854 111.609 204.132 111.93C178.729 113.357 51.2772 113.357 25.8657 111.93C20.1441 111.609 15.0769 109.687 11.4191 106.803C7.50126 104.109 4.90055 100.366 4.4643 96.1429C4.3049 94.5555 4.15389 92.9535 4.01127 91.3661C3.60858 86.6767 3.32334 81.9727 3.16394 77.2833C3.07166 74.6182 3.02132 71.9531 3.01293 69.288C2.99615 67.3948 3.01293 65.487 3.04649 63.5937V63.5209C3.09682 60.783 3.18072 58.0451 3.30656 55.3072C3.40723 53.1227 3.53307 50.9382 3.69247 48.7537C3.90221 45.7973 4.16228 42.8409 4.4643 39.8991C4.69081 37.6709 5.52136 35.5884 6.83011 33.7097C7.99624 32.0203 9.56506 30.5058 11.4191 29.2387C15.0769 26.3406 20.1441 24.4328 25.8657 24.0979C51.2772 22.6707 178.729 22.6707 204.132 24.0979C209.854 24.4183 214.921 26.3406 218.579 29.2387C220.945 30.8698 222.824 32.865 224.04 35.1369C224.846 36.6224 225.366 38.2389 225.542 39.9137C225.861 43.0157 226.138 46.1323 226.347 49.2343C226.507 51.5644 226.649 53.9091 226.742 56.2392C226.842 58.5985 226.918 60.9723 226.96 63.3316C226.993 65.4142 227.01 67.4822 226.993 69.5502V69.5356Z" fill="url(#paint0_radial_473_9316)"/>
<path d="M226.876 72.0551C226.809 74.3269 226.716 76.5988 226.591 78.8707C226.381 82.7446 226.096 86.6184 225.718 90.4923C225.659 91.104 225.601 91.7156 225.534 92.3273C225.097 96.5507 222.497 100.293 218.57 102.988C214.913 105.886 209.845 107.794 204.124 108.129C178.721 109.556 51.2688 109.556 25.8573 108.129C20.1357 107.808 15.0685 105.886 11.4107 102.988C7.68584 100.425 5.16063 96.9293 4.53982 92.9681C4.50626 92.7642 4.48109 92.5457 4.45592 92.3273C4.03645 88.2932 3.70927 84.2592 3.47436 80.2251C3.31496 77.56 3.19751 74.8804 3.12201 72.2153C3.01295 68.7346 2.97939 65.254 3.01294 61.7733V61.7296C3.02133 60.8704 3.03811 60.0111 3.0465 59.1519C3.08845 56.7344 3.16395 54.3169 3.27302 51.8993C3.47436 47.4575 3.78477 43.0157 4.20424 38.5739C4.27974 37.7437 4.36364 36.8991 4.44753 36.069C4.88378 31.8456 7.4845 28.1028 11.4023 25.4086C15.0601 22.525 20.1273 20.6027 25.8489 20.2823C51.2604 18.8551 178.712 18.8551 204.115 20.2823C209.837 20.6027 214.904 22.525 218.562 25.4086C222.48 28.1028 225.081 31.8456 225.525 36.069C225.643 37.1758 225.743 38.2826 225.844 39.3748C226.23 43.5691 226.515 47.7633 226.708 51.9722C226.826 54.579 226.901 57.1859 226.943 59.7927C226.943 60.215 226.96 60.6374 226.968 61.0597V61.2053C227.002 64.8171 226.968 68.4433 226.867 72.0551H226.876Z" fill="url(#paint1_radial_473_9316)"/>
<g style="mix-blend-mode:hard-light" opacity="0.2">
<path d="M225.533 32.2679C225.097 28.0445 222.496 24.3017 218.579 21.6075C214.921 18.7094 209.854 16.8016 204.132 16.4666C178.729 15.0394 51.2687 15.0394 25.8656 16.4666C20.144 16.787 15.0768 18.7094 11.419 21.6075C7.50117 24.3017 4.90046 28.0445 4.46421 32.2679C2.52625 51.0255 2.52625 69.7686 4.46421 88.5262C4.90046 92.7496 7.50117 96.4924 11.419 99.1866C15.0768 102.085 20.144 103.993 25.8656 104.327C51.2687 105.755 178.729 105.755 204.132 104.327C209.854 104.007 214.921 102.085 218.579 99.1866C222.496 96.4924 225.097 92.7496 225.533 88.5262C227.471 69.7686 227.471 51.0255 225.533 32.2679Z" fill="white"/>
</g>
<path d="M226.44 76.293C226.213 79.9047 225.911 83.5164 225.534 87.1282C225.097 91.3515 222.497 95.0943 218.579 97.7886C214.921 100.687 209.854 102.594 204.124 102.929C178.721 104.371 51.2605 104.371 25.8574 102.929C20.1358 102.609 15.0686 100.687 11.4109 97.7886C7.49301 95.0943 4.8923 91.3515 4.45605 87.1282C4.11208 83.7786 3.82684 80.4436 3.60033 77.094C2.57682 61.686 2.86206 46.2779 4.45605 30.8699C4.8923 26.6465 7.49301 22.9037 11.4109 20.2095C15.0686 17.3259 20.1358 15.4036 25.8574 15.0686C51.2689 13.6414 178.721 13.6414 204.132 15.0832C209.854 15.4036 214.921 17.3259 218.587 20.224C222.505 22.9328 225.106 26.661 225.542 30.8844C227.103 46.0303 227.413 61.1617 226.448 76.3076L226.44 76.293Z" fill="url(#paint2_radial_473_9316)"/>
<g style="mix-blend-mode:overlay" opacity="0.8" filter="url(#filter0_f_473_9316)">
<path d="M14.2717 30.1271C17.7282 27.462 22.5269 25.6853 27.9381 25.3795C51.9653 24.0542 178.033 24.0542 202.06 25.3795C207.471 25.6853 212.262 27.4475 215.727 30.1271C218.243 31.831 220.19 33.9718 221.305 36.3894C221.213 35.3991 221.129 34.4087 221.029 33.4039C220.626 29.5009 218.227 26.0494 214.602 23.5445C211.221 20.8794 206.54 19.1026 201.246 18.7968C177.764 17.4715 52.2422 17.4715 28.7602 18.7968C23.4665 19.1026 18.7852 20.8648 15.4043 23.5445C11.7801 26.0494 9.38071 29.5009 8.97802 33.4039C8.87735 34.3942 8.79346 35.3845 8.70117 36.3894C9.81696 33.9718 11.7549 31.831 14.2801 30.1271H14.2717Z" fill="url(#paint3_linear_473_9316)"/>
</g>
<g style="mix-blend-mode:soft-light" opacity="0.75" filter="url(#filter1_f_473_9316)">
<path d="M217.706 76.06C214.107 78.8999 209.124 80.7931 203.495 81.1135C178.511 82.5262 51.4785 82.5262 26.4948 81.1135C20.8655 80.7931 15.8822 78.9144 12.2832 76.06C11.6959 75.6522 11.1422 75.2299 10.6221 74.7784C10.8234 77.8076 11.0751 80.8368 11.3855 83.8514C11.7714 87.5796 14.0701 90.8855 17.5349 93.2739C20.7649 95.8225 25.2448 97.5264 30.3036 97.8031C52.7537 99.0701 177.244 99.0701 199.694 97.8031C204.753 97.5119 209.224 95.8225 212.463 93.2739C215.928 90.8855 218.226 87.5796 218.612 83.8514C218.923 80.8222 219.183 77.7931 219.376 74.7784C218.856 75.2299 218.302 75.6522 217.715 76.06H217.706Z" fill="url(#paint4_linear_473_9316)"/>
</g>
<path style="mix-blend-mode:overlay" opacity="0.6" d="M226.985 59.8073C226.985 60.2151 226.985 60.6374 226.985 61.0452V61.1908C226.985 61.9044 226.968 62.6034 226.96 63.317C226.927 65.3414 226.876 67.3657 226.801 69.3754C226.767 70.2055 226.734 71.0356 226.7 71.8657C226.641 73.1619 226.566 74.458 226.482 75.7542C226.473 75.9289 226.465 76.1183 226.448 76.293C225.593 76.5115 224.745 76.7445 223.89 76.9484C219.401 78.0843 214.904 79.0892 210.416 79.963C208.831 80.2688 207.245 80.5601 205.659 80.8513C178.696 85.599 49.65 85.7738 22.6193 81.1426C21.1847 80.895 19.7501 80.6329 18.3072 80.3708C14.2635 79.5989 10.2114 78.7251 6.1593 77.7348C5.30358 77.5309 4.45625 77.3124 3.60053 77.094C3.60053 77.0212 3.59214 76.9338 3.58375 76.861C3.48308 75.2444 3.38241 73.6133 3.31529 71.9968C3.26496 71.0356 3.2314 70.089 3.19784 69.1278C3.13073 67.2928 3.08039 65.4433 3.04683 63.6083V63.5355C3.03844 62.953 3.03005 62.3704 3.02166 61.7733V61.7296C3.01327 60.885 3.00488 60.0403 3.00488 59.1956C3.00488 57.9723 3.01327 56.7344 3.03005 55.5111C3.04683 54.3751 3.06361 53.2246 3.09717 52.0887C3.11395 51.1129 3.1475 50.1518 3.18945 49.176C3.31529 45.7391 3.49986 42.3021 3.75993 38.8651C3.85221 37.6418 3.9445 36.4185 4.05356 35.1952C4.17101 33.7534 4.31363 32.3116 4.46464 30.8699C4.90089 26.6465 7.5016 22.9037 11.4195 20.2095C15.0772 17.3259 20.1444 15.4036 25.866 15.0832C51.2691 13.6414 178.721 13.6414 204.124 15.0832C209.854 15.4036 214.921 17.3259 218.579 20.2095C222.497 22.9183 225.098 26.661 225.534 30.8699C225.718 32.6466 225.886 34.4088 226.029 36.1855C226.121 37.336 226.213 38.4865 226.289 39.637C226.532 42.9575 226.7 46.2633 226.817 49.5692C226.851 50.4139 226.868 51.2586 226.893 52.1033C226.926 53.5305 226.952 54.9431 226.968 56.3849C226.977 57.5208 226.977 58.6568 226.968 59.8073H226.985Z" fill="url(#paint5_radial_473_9316)"/>
<g style="mix-blend-mode:soft-light" opacity="0.6">
<path d="M190.919 28.5106C190.953 34.0301 173.276 30.5349 109.961 30.5349C58.0308 30.5349 38.3744 34.1903 38.3409 28.6708C38.3073 23.1513 57.2758 18.6075 110.96 18.6075C172.521 18.6075 190.885 22.9911 190.919 28.5106Z" fill="white"/>
</g>
<path d="M199.803 22.6635C199.827 21.6992 198.247 20.8002 196.275 20.6555C194.303 20.5108 192.685 21.1753 192.662 22.1396C192.638 23.1039 194.218 24.0029 196.19 24.1476C198.162 24.2923 199.78 23.6278 199.803 22.6635Z" fill="url(#paint6_radial_473_9316)"/>
<path d="M204.878 23.4811C204.891 22.9668 204.041 22.4868 202.981 22.409C201.921 22.3313 201.052 22.6851 201.039 23.1994C201.027 23.7137 201.876 24.1937 202.936 24.2715C203.996 24.3493 204.866 23.9954 204.878 23.4811Z" fill="url(#paint7_radial_473_9316)"/>
<path d="M219.519 80.5601C219.519 83.3708 217.774 85.6427 216.759 85.6427C215.744 85.6427 217.069 83.9825 217.069 81.1718C217.069 78.361 215.744 75.4775 216.759 75.4775C217.774 75.4775 219.519 77.7494 219.519 80.5601Z" fill="url(#paint8_radial_473_9316)"/>
<path d="M218.256 35.3462C218.4 33.7732 217.325 32.171 215.856 31.7676C214.387 31.3641 213.08 32.3122 212.936 33.8852C212.793 35.4582 213.868 37.0604 215.337 37.4638C216.806 37.8673 218.113 36.9192 218.256 35.3462Z" fill="url(#paint9_radial_473_9316)"/>
<path d="M218.207 40.5642C218.284 39.7221 217.704 38.8632 216.913 38.6458C216.121 38.4283 215.417 38.9347 215.34 39.7768C215.263 40.6189 215.843 41.4778 216.635 41.6953C217.426 41.9127 218.13 41.4063 218.207 40.5642Z" fill="url(#paint10_radial_473_9316)"/>
<path d="M189.426 20.9667C189.468 21.6803 40.9753 22.1755 34.4903 22.9328C21.3274 24.462 24.2469 30.3456 22.3676 30.2582C20.4884 30.1708 19.0622 22.4668 34.2722 21.36C47.7456 20.3842 189.384 20.2531 189.426 20.9667Z" fill="url(#paint11_radial_473_9316)"/>
<path d="M22.0527 37.8195C22.6211 36.3897 22.4791 34.5084 21.7355 33.6175C20.9919 32.7267 19.9283 33.1637 19.3598 34.5935C18.7914 36.0234 18.9334 37.9047 19.677 38.7956C20.4206 39.6864 21.4843 39.2494 22.0527 37.8195Z" fill="url(#paint12_radial_473_9316)"/>
<path d="M134.169 58.568C134.169 58.7 133.803 58.808 133.071 58.892C132.339 58.964 131.607 59 130.875 59C130.143 59 129.669 58.97 129.453 58.91C129.249 58.838 129.147 58.724 129.147 58.568V50.792H127.311C127.107 50.792 127.005 50.354 127.005 49.478C127.005 48.602 127.107 47.81 127.311 47.102C127.371 46.874 128.007 46.664 129.219 46.472C130.431 46.28 131.361 46.184 132.009 46.184C132.657 46.184 133.089 46.208 133.305 46.256C133.521 46.304 133.683 46.364 133.791 46.436C133.899 46.496 133.983 46.568 134.043 46.652C134.127 46.784 134.169 46.91 134.169 47.03V58.568ZM134.982 49.838C134.982 49.718 135.156 49.562 135.504 49.37C135.852 49.166 136.326 48.98 136.926 48.812C137.526 48.644 138.114 48.56 138.69 48.56C139.854 48.56 140.454 48.842 140.49 49.406L140.94 55.13H141.174L141.57 49.694C141.594 49.394 142.008 49.13 142.812 48.902C143.616 48.674 144.324 48.56 144.936 48.56C145.548 48.56 146.004 48.614 146.304 48.722C146.616 48.83 146.814 48.944 146.898 49.064C146.982 49.172 147.024 49.268 147.024 49.352C147.024 49.436 146.766 50.054 146.25 51.206C145.746 52.358 144.732 54.812 143.208 58.568C143.088 58.856 142.11 59 140.274 59C139.698 59 139.32 58.97 139.14 58.91C138.96 58.838 138.84 58.724 138.78 58.568C137.952 56.48 137.112 54.518 136.26 52.682C135.408 50.834 134.982 49.886 134.982 49.838ZM154.542 58.568C154.542 58.7 154.176 58.808 153.444 58.892C152.712 58.964 151.98 59 151.248 59C150.516 59 150.042 58.97 149.826 58.91C149.622 58.838 149.52 58.724 149.52 58.568V50.792H147.684C147.48 50.792 147.378 50.354 147.378 49.478C147.378 48.602 147.48 47.81 147.684 47.102C147.744 46.874 148.38 46.664 149.592 46.472C150.804 46.28 151.734 46.184 152.382 46.184C153.03 46.184 153.462 46.208 153.678 46.256C153.894 46.304 154.056 46.364 154.164 46.436C154.272 46.496 154.356 46.568 154.416 46.652C154.5 46.784 154.542 46.91 154.542 47.03V58.568ZM112.515 84C112.148 84 111.613 84 110.909 84C110.22 84 109.75 83.9487 109.501 83.846C109.252 83.7433 109.127 83.582 109.127 83.362V69.48C109.127 69.1427 109.574 68.8787 110.469 68.688C111.378 68.4827 112.346 68.38 113.373 68.38C114.4 68.38 115.133 68.512 115.573 68.776C116.013 69.04 116.27 69.3187 116.343 69.612L117.839 75.42H118.037L119.445 69.876C119.548 69.48 120.024 69.1353 120.875 68.842C121.74 68.534 122.686 68.38 123.713 68.38C124.74 68.38 125.495 68.4607 125.979 68.622C126.478 68.7833 126.727 68.9887 126.727 69.238V83.362C126.727 83.5527 126.309 83.7067 125.473 83.824C124.637 83.9413 123.618 84 122.415 84C121.212 84 120.611 83.7873 120.611 83.362C120.611 82.2033 120.736 80.1427 120.985 77.18H120.787L119.643 82.922C119.599 83.142 119.416 83.3033 119.093 83.406C118.785 83.5087 118.316 83.56 117.685 83.56C117.054 83.56 116.666 83.516 116.519 83.428C116.387 83.34 116.299 83.1713 116.255 82.922L115.067 77.18H114.869C115.133 80.2013 115.265 82.262 115.265 83.362C115.265 83.7433 114.348 83.956 112.515 84ZM135.92 84.198C134.703 84.198 133.654 84.088 132.774 83.868C131.909 83.6333 131.11 83.2227 130.376 82.636C128.895 81.4773 128.154 79.2553 128.154 75.97C128.154 74.5913 128.352 73.3887 128.748 72.362C129.159 71.3353 129.724 70.5213 130.442 69.92C131.85 68.7467 133.676 68.16 135.92 68.16C137.079 68.16 138.084 68.2627 138.934 68.468C139.8 68.6733 140.614 69.0473 141.376 69.59C142.916 70.7047 143.686 72.8313 143.686 75.97C143.686 78.786 142.99 80.8613 141.596 82.196C140.203 83.5307 138.311 84.198 135.92 84.198ZM135.194 80.436C135.37 80.6413 135.612 80.744 135.92 80.744C136.228 80.744 136.47 80.6413 136.646 80.436C136.822 80.216 136.969 79.7613 137.086 79.072C137.204 78.368 137.262 77.3927 137.262 76.146C137.262 74.8993 137.204 73.9387 137.086 73.264C136.969 72.5893 136.822 72.1493 136.646 71.944C136.47 71.7387 136.228 71.636 135.92 71.636C135.612 71.636 135.37 71.7387 135.194 71.944C135.018 72.1493 134.872 72.5893 134.754 73.264C134.637 73.9387 134.578 74.8993 134.578 76.146C134.578 77.3927 134.637 78.368 134.754 79.072C134.872 79.7613 135.018 80.216 135.194 80.436ZM152.131 84H146.939C146.221 84 145.737 83.9487 145.487 83.846C145.238 83.7433 145.113 83.5747 145.113 83.34V69.458C145.113 69.0767 145.275 68.8053 145.597 68.644C145.92 68.468 146.477 68.38 147.269 68.38H152.219C155.035 68.38 156.979 68.9373 158.049 70.052C159.12 71.152 159.655 73.1613 159.655 76.08C159.655 78.9987 159.098 81.052 157.983 82.24C156.869 83.4133 154.918 84 152.131 84ZM151.955 71.658C151.603 71.658 151.369 71.6873 151.251 71.746V80.634L152.087 80.722C152.527 80.722 152.857 80.37 153.077 79.666C153.312 78.962 153.429 77.7447 153.429 76.014C153.429 74.2833 153.312 73.1247 153.077 72.538C152.843 71.9513 152.469 71.658 151.955 71.658ZM172.359 84H163.031C162.313 84 161.829 83.9487 161.579 83.846C161.33 83.7433 161.205 83.582 161.205 83.362V69.436C161.205 69.0547 161.374 68.7833 161.711 68.622C162.063 68.4607 162.687 68.38 163.581 68.38H172.425C172.733 68.38 172.887 68.8933 172.887 69.92C172.887 70.932 172.821 71.7093 172.689 72.252C172.557 72.78 172.381 73.044 172.161 73.044C171.208 73.044 169.602 72.9487 167.343 72.758V74.232C169.514 74.144 170.929 74.1 171.589 74.1C171.985 74.1 172.183 74.562 172.183 75.486C172.183 76.41 172.103 77.114 171.941 77.598C171.795 78.0673 171.589 78.302 171.325 78.302L167.343 78.214V79.622C169.895 79.4313 171.655 79.336 172.623 79.336C172.931 79.336 173.085 79.8493 173.085 80.876C173.085 81.9027 173.019 82.68 172.887 83.208C172.755 83.736 172.579 84 172.359 84Z" fill="#444444"/>
<path d="M49.3958 72.323H44.8472V75.3554H49.3958V72.323Z" stroke="#444444" stroke-width="2" stroke-miterlimit="10" stroke-linecap="round" stroke-linejoin="round"/>
<path d="M43.9515 72.323H50.292C51.2569 72.323 52.015 71.5649 52.015 70.6C52.015 69.6351 51.2569 68.877 50.292 68.877H43.9515C42.9866 68.877 42.2285 69.6351 42.2285 70.6C42.2285 71.5649 42.9866 72.323 43.9515 72.323Z" stroke="#444444" stroke-width="2" stroke-miterlimit="10" stroke-linecap="round" stroke-linejoin="round"/>
<path d="M33.5444 40V54.1284C33.5444 60.6757 37.335 66.4649 42.9863 69.2216C43.262 69.0149 43.6066 68.9459 43.9512 68.9459H50.2917C50.6363 68.9459 50.9809 69.0838 51.2566 69.2216C56.9079 66.4649 60.6985 60.6757 60.6985 54.1284V40H33.5444Z" stroke="#444444" stroke-width="2" stroke-miterlimit="10" stroke-linecap="round" stroke-linejoin="round"/>
<path d="M60.6987 41.723V44.6865H68.2109C67.7974 50.8203 64.5582 56.2649 59.7339 59.7108C59.1136 61.5027 58.1487 63.1567 56.9082 64.673C65.5231 61.1581 71.2433 52.75 71.2433 43.2392V41.723H60.6987Z" stroke="#444444" stroke-width="2" stroke-miterlimit="10" stroke-linecap="round" stroke-linejoin="round"/>
<path d="M26.0324 44.7554H33.5446V41.723H23V43.2392C23 52.75 28.7203 61.1581 37.3351 64.7419C36.1635 63.2946 35.1986 61.6405 34.5095 59.7797C29.6851 56.3338 26.5149 50.8892 26.0324 44.7554Z" stroke="#444444" stroke-width="2" stroke-miterlimit="10" stroke-linecap="round" stroke-linejoin="round"/>
<path d="M60.6985 84.246H33.5444V88.2433H60.6985V84.246Z" stroke="#444444" stroke-width="2" stroke-miterlimit="10" stroke-linecap="round" stroke-linejoin="round"/>
<path d="M58.9758 77.8365C58.9758 76.4581 57.8731 75.3554 56.4947 75.3554H37.6798C36.3014 75.3554 35.1987 76.4581 35.1987 77.8365V84.177H58.9758V77.8365Z" stroke="#444444" stroke-width="2" stroke-miterlimit="10" stroke-linecap="round" stroke-linejoin="round"/>
<path d="M47.1216 44.9622L48.9824 48.7527L53.2554 49.373L50.154 52.4054L50.9121 56.6095L47.1216 54.6108L43.331 56.6095L44.0891 52.4054L40.9878 49.373L45.2608 48.7527L47.1216 44.9622Z" stroke="#444444" stroke-width="2" stroke-miterlimit="10" stroke-linecap="round" stroke-linejoin="round"/>
<rect x="37" width="156" height="27" rx="13.5" fill="url(#paint13_linear_473_9316)"/>
<path d="M57.0886 20.874C56.6086 20.982 56.1166 21.054 55.6126 21.09C55.1206 21.138 54.6346 21.162 54.1546 21.162C53.6866 21.162 53.3206 21.15 53.0566 21.126C52.8046 21.102 52.4686 21.042 52.0486 20.946C51.6286 20.85 51.2446 20.718 50.8966 20.55C50.5486 20.382 50.1766 20.136 49.7806 19.812C49.3966 19.488 49.0726 19.104 48.8086 18.66C48.1966 17.628 47.8906 16.296 47.8906 14.664C47.8906 13.572 48.0586 12.606 48.3946 11.766C48.7426 10.926 49.1566 10.278 49.6366 9.822C50.1286 9.366 50.6866 9 51.3106 8.724C52.3186 8.268 53.3326 8.04 54.3526 8.04C55.8166 8.04 56.8666 8.16 57.5026 8.4C57.7906 8.508 58.0486 8.676 58.2766 8.904C58.5046 9.132 58.6186 9.462 58.6186 9.894C58.6186 10.326 58.5106 10.872 58.2946 11.532C58.0906 12.192 57.7906 12.522 57.3946 12.522C57.2746 12.522 56.8306 12.426 56.0626 12.234C55.2946 12.042 54.7726 11.946 54.4966 11.946C54.0766 11.946 53.7166 12.18 53.4166 12.648C53.1286 13.116 52.9846 13.782 52.9846 14.646C52.9846 15.51 53.1106 16.182 53.3626 16.662C53.6266 17.142 53.9686 17.382 54.3886 17.382C54.6886 17.382 55.2286 17.262 56.0086 17.022C56.8006 16.77 57.2626 16.644 57.3946 16.644C57.7666 16.644 58.0546 16.986 58.2586 17.67C58.4746 18.354 58.5826 18.906 58.5826 19.326C58.5826 19.746 58.4506 20.082 58.1866 20.334C57.9346 20.574 57.5686 20.754 57.0886 20.874ZM65.9671 21.162C64.9711 21.162 64.1131 21.072 63.3931 20.892C62.6851 20.7 62.0311 20.364 61.4311 19.884C60.2191 18.936 59.6131 17.118 59.6131 14.43C59.6131 13.302 59.7751 12.318 60.0991 11.478C60.4351 10.638 60.8971 9.972 61.4851 9.48C62.6371 8.52 64.1311 8.04 65.9671 8.04C66.9151 8.04 67.7371 8.124 68.4331 8.292C69.1411 8.46 69.8071 8.766 70.4311 9.21C71.6911 10.122 72.3211 11.862 72.3211 14.43C72.3211 16.734 71.7511 18.432 70.6111 19.524C69.4711 20.616 67.9231 21.162 65.9671 21.162ZM65.3731 18.084C65.5171 18.252 65.7151 18.336 65.9671 18.336C66.2191 18.336 66.4171 18.252 66.5611 18.084C66.7051 17.904 66.8251 17.532 66.9211 16.968C67.0171 16.392 67.0651 15.594 67.0651 14.574C67.0651 13.554 67.0171 12.768 66.9211 12.216C66.8251 11.664 66.7051 11.304 66.5611 11.136C66.4171 10.968 66.2191 10.884 65.9671 10.884C65.7151 10.884 65.5171 10.968 65.3731 11.136C65.2291 11.304 65.1091 11.664 65.0131 12.216C64.9171 12.768 64.8691 13.554 64.8691 14.574C64.8691 15.594 64.9171 16.392 65.0131 16.968C65.1091 17.532 65.2291 17.904 65.3731 18.084ZM76.2606 21C75.9606 21 75.5226 21 74.9466 21C74.3826 21 73.9986 20.958 73.7946 20.874C73.5906 20.79 73.4886 20.658 73.4886 20.478V9.12C73.4886 8.844 73.8546 8.628 74.5866 8.472C75.3306 8.304 76.1226 8.22 76.9626 8.22C77.8026 8.22 78.4026 8.328 78.7626 8.544C79.1226 8.76 79.3326 8.988 79.3926 9.228L80.6166 13.98H80.7786L81.9306 9.444C82.0146 9.12 82.4046 8.838 83.1006 8.598C83.8086 8.346 84.5826 8.22 85.4226 8.22C86.2626 8.22 86.8806 8.286 87.2766 8.418C87.6846 8.55 87.8886 8.718 87.8886 8.922V20.478C87.8886 20.634 87.5466 20.76 86.8626 20.856C86.1786 20.952 85.3446 21 84.3606 21C83.3766 21 82.8846 20.826 82.8846 20.478C82.8846 19.53 82.9866 17.844 83.1906 15.42H83.0286L82.0926 20.118C82.0566 20.298 81.9066 20.43 81.6426 20.514C81.3906 20.598 81.0066 20.64 80.4906 20.64C79.9746 20.64 79.6566 20.604 79.5366 20.532C79.4286 20.46 79.3566 20.322 79.3206 20.118L78.3486 15.42H78.1866C78.4026 17.892 78.5106 19.578 78.5106 20.478C78.5106 20.79 77.7606 20.964 76.2606 21ZM94.3484 20.568C94.3484 20.7 93.9824 20.808 93.2504 20.892C92.5184 20.964 91.7804 21 91.0364 21C90.3044 21 89.8364 20.97 89.6324 20.91C89.4284 20.838 89.3264 20.724 89.3264 20.568V9.372C89.3264 9.108 89.6744 8.85 90.3704 8.598C91.0664 8.334 91.8464 8.202 92.7104 8.202C93.4784 8.202 93.9824 8.364 94.2224 8.688C94.3064 8.808 94.3484 8.928 94.3484 9.048V20.568ZM100.817 20.478C100.817 20.634 100.445 20.76 99.7012 20.856C98.9692 20.952 98.2372 21 97.5052 21C96.7732 21 96.3052 20.958 96.1012 20.874C95.8972 20.79 95.7952 20.658 95.7952 20.478V9.426C95.7952 9.126 96.1372 8.85 96.8212 8.598C97.5172 8.346 98.3032 8.22 99.1792 8.22C99.4912 8.22 99.7252 8.232 99.8812 8.256C100.289 8.316 100.577 8.574 100.745 9.03L102.473 13.674H102.545V9.426C102.545 9.126 102.887 8.85 103.571 8.598C104.255 8.346 105.035 8.22 105.911 8.22C106.667 8.22 107.147 8.364 107.351 8.652C107.495 8.856 107.567 9.042 107.567 9.21V20.478C107.567 20.634 107.195 20.76 106.451 20.856C105.719 20.952 104.909 21 104.021 21C103.145 21 102.665 20.886 102.581 20.658L100.907 16.23H100.817V20.478ZM112.92 21.144C112.512 21.144 112.134 21.102 111.786 21.018C111.438 20.934 111.072 20.76 110.688 20.496C110.316 20.22 109.998 19.86 109.734 19.416C109.134 18.408 108.834 16.89 108.834 14.862C108.834 13.746 108.984 12.762 109.284 11.91C109.584 11.058 109.962 10.398 110.418 9.93C110.874 9.45 111.42 9.06 112.056 8.76C112.692 8.46 113.286 8.268 113.838 8.184C114.39 8.088 114.978 8.04 115.602 8.04C117.042 8.04 118.056 8.166 118.644 8.418C119.232 8.658 119.526 9.126 119.526 9.822C119.526 10.374 119.424 10.974 119.22 11.622C119.016 12.258 118.716 12.576 118.32 12.576C118.224 12.576 117.816 12.486 117.096 12.306C116.376 12.114 115.836 12.018 115.476 12.018C114.444 12.018 113.928 12.888 113.928 14.628C113.928 15.504 114.048 16.158 114.288 16.59C114.528 17.01 114.828 17.244 115.188 17.292V15.672C115.188 15.372 115.494 15.096 116.106 14.844C116.718 14.592 117.306 14.466 117.87 14.466C118.434 14.466 118.842 14.502 119.094 14.574C119.358 14.646 119.538 14.748 119.634 14.88C119.802 15.096 119.886 15.288 119.886 15.456V20.442C119.886 20.598 119.568 20.724 118.932 20.82C118.308 20.916 117.654 20.964 116.97 20.964C116.298 20.964 115.872 20.934 115.692 20.874C115.512 20.802 115.41 20.616 115.386 20.316L115.26 19.254H115.116C115.032 19.77 114.816 20.214 114.468 20.586C114.132 20.958 113.616 21.144 112.92 21.144ZM134.348 20.244C133.988 20.508 133.484 20.73 132.836 20.91C132.2 21.078 131.372 21.162 130.352 21.162C129.344 21.162 128.384 21.078 127.472 20.91C126.56 20.742 125.906 20.556 125.51 20.352C125.114 20.148 124.916 19.95 124.916 19.758C124.916 19.086 125.012 18.39 125.204 17.67C125.396 16.938 125.624 16.572 125.888 16.572C125.936 16.572 126.434 16.734 127.382 17.058C128.33 17.382 129.044 17.544 129.524 17.544C130.004 17.544 130.316 17.496 130.46 17.4C130.604 17.292 130.676 17.142 130.676 16.95C130.676 16.758 130.544 16.59 130.28 16.446C130.016 16.29 129.686 16.158 129.29 16.05C128.894 15.93 128.462 15.762 127.994 15.546C127.538 15.33 127.112 15.09 126.716 14.826C126.32 14.562 125.99 14.19 125.726 13.71C125.462 13.218 125.33 12.66 125.33 12.036C125.33 9.372 126.92 8.04 130.1 8.04C131.288 8.04 132.314 8.118 133.178 8.274C134.042 8.418 134.648 8.586 134.996 8.778C135.356 8.958 135.536 9.138 135.536 9.318C135.536 9.942 135.386 10.614 135.086 11.334C134.798 12.054 134.516 12.414 134.24 12.414C134.192 12.414 134.036 12.36 133.772 12.252C132.98 11.904 132.32 11.73 131.792 11.73C131.276 11.73 130.922 11.778 130.73 11.874C130.55 11.97 130.46 12.12 130.46 12.324C130.46 12.516 130.592 12.678 130.856 12.81C131.12 12.93 131.444 13.044 131.828 13.152C132.224 13.248 132.65 13.404 133.106 13.62C133.574 13.824 134.006 14.07 134.402 14.358C134.798 14.634 135.128 15.03 135.392 15.546C135.656 16.062 135.788 16.662 135.788 17.346C135.788 18.066 135.602 18.72 135.23 19.308C135.002 19.668 134.708 19.98 134.348 20.244ZM143.047 21.162C142.051 21.162 141.193 21.072 140.473 20.892C139.765 20.7 139.111 20.364 138.511 19.884C137.299 18.936 136.693 17.118 136.693 14.43C136.693 13.302 136.855 12.318 137.179 11.478C137.515 10.638 137.977 9.972 138.565 9.48C139.717 8.52 141.211 8.04 143.047 8.04C143.995 8.04 144.817 8.124 145.513 8.292C146.221 8.46 146.887 8.766 147.511 9.21C148.771 10.122 149.401 11.862 149.401 14.43C149.401 16.734 148.831 18.432 147.691 19.524C146.551 20.616 145.003 21.162 143.047 21.162ZM142.453 18.084C142.597 18.252 142.795 18.336 143.047 18.336C143.299 18.336 143.497 18.252 143.641 18.084C143.785 17.904 143.905 17.532 144.001 16.968C144.097 16.392 144.145 15.594 144.145 14.574C144.145 13.554 144.097 12.768 144.001 12.216C143.905 11.664 143.785 11.304 143.641 11.136C143.497 10.968 143.299 10.884 143.047 10.884C142.795 10.884 142.597 10.968 142.453 11.136C142.309 11.304 142.189 11.664 142.093 12.216C141.997 12.768 141.949 13.554 141.949 14.574C141.949 15.594 141.997 16.392 142.093 16.968C142.189 17.532 142.309 17.904 142.453 18.084ZM156.653 21.162C155.657 21.162 154.799 21.072 154.079 20.892C153.371 20.7 152.717 20.364 152.117 19.884C150.905 18.936 150.299 17.118 150.299 14.43C150.299 13.302 150.461 12.318 150.785 11.478C151.121 10.638 151.583 9.972 152.171 9.48C153.323 8.52 154.817 8.04 156.653 8.04C157.601 8.04 158.423 8.124 159.119 8.292C159.827 8.46 160.493 8.766 161.117 9.21C162.377 10.122 163.007 11.862 163.007 14.43C163.007 16.734 162.437 18.432 161.297 19.524C160.157 20.616 158.609 21.162 156.653 21.162ZM156.059 18.084C156.203 18.252 156.401 18.336 156.653 18.336C156.905 18.336 157.103 18.252 157.247 18.084C157.391 17.904 157.511 17.532 157.607 16.968C157.703 16.392 157.751 15.594 157.751 14.574C157.751 13.554 157.703 12.768 157.607 12.216C157.511 11.664 157.391 11.304 157.247 11.136C157.103 10.968 156.905 10.884 156.653 10.884C156.401 10.884 156.203 10.968 156.059 11.136C155.915 11.304 155.795 11.664 155.699 12.216C155.603 12.768 155.555 13.554 155.555 14.574C155.555 15.594 155.603 16.392 155.699 16.968C155.795 17.532 155.915 17.904 156.059 18.084ZM169.196 20.478C169.196 20.634 168.824 20.76 168.08 20.856C167.348 20.952 166.616 21 165.884 21C165.152 21 164.684 20.958 164.48 20.874C164.276 20.79 164.174 20.658 164.174 20.478V9.426C164.174 9.126 164.516 8.85 165.2 8.598C165.896 8.346 166.682 8.22 167.558 8.22C167.87 8.22 168.104 8.232 168.26 8.256C168.668 8.316 168.956 8.574 169.124 9.03L170.852 13.674H170.924V9.426C170.924 9.126 171.266 8.85 171.95 8.598C172.634 8.346 173.414 8.22 174.29 8.22C175.046 8.22 175.526 8.364 175.73 8.652C175.874 8.856 175.946 9.042 175.946 9.21V20.478C175.946 20.634 175.574 20.76 174.83 20.856C174.098 20.952 173.288 21 172.4 21C171.524 21 171.044 20.886 170.96 20.658L169.286 16.23H169.196V20.478ZM177.231 8.4C177.219 8.268 177.561 8.166 178.257 8.094C178.953 8.01 179.769 7.968 180.705 7.968C181.641 7.968 182.109 8.106 182.109 8.382C182.109 8.73 182.001 11.622 181.785 17.058C181.773 17.358 181.557 17.628 181.137 17.868C180.717 18.108 180.123 18.228 179.355 18.228C178.311 18.228 177.765 17.946 177.717 17.382L177.231 8.4ZM181.911 20.838C181.911 21.45 181.713 21.87 181.317 22.098C180.933 22.338 180.387 22.458 179.679 22.458C178.983 22.458 178.449 22.35 178.077 22.134C177.705 21.93 177.519 21.498 177.519 20.838C177.519 19.758 178.251 19.218 179.715 19.218C181.179 19.218 181.911 19.758 181.911 20.838Z" fill="white"/>
<defs>
<filter id="filter0_f_473_9316" x="0.701172" y="9.80286" width="228.604" height="34.5865" filterUnits="userSpaceOnUse" color-interpolation-filters="sRGB">
<feFlood flood-opacity="0" result="BackgroundImageFix"/>
<feBlend mode="normal" in="SourceGraphic" in2="BackgroundImageFix" result="shape"/>
<feGaussianBlur stdDeviation="4" result="effect1_foregroundBlur_473_9316"/>
</filter>
<filter id="filter1_f_473_9316" x="2.62207" y="66.7784" width="224.753" height="39.975" filterUnits="userSpaceOnUse" color-interpolation-filters="sRGB">
<feFlood flood-opacity="0" result="BackgroundImageFix"/>
<feBlend mode="normal" in="SourceGraphic" in2="BackgroundImageFix" result="shape"/>
<feGaussianBlur stdDeviation="4" result="effect1_foregroundBlur_473_9316"/>
</filter>
<radialGradient id="paint0_radial_473_9316" cx="0" cy="0" r="1" gradientUnits="userSpaceOnUse" gradientTransform="translate(114.943 67.8835) scale(103.303 75.9194)">
<stop/>
<stop offset="0.84" stop-opacity="0.2"/>
</radialGradient>
<radialGradient id="paint1_radial_473_9316" cx="0" cy="0" r="1" gradientUnits="userSpaceOnUse" gradientTransform="translate(114.943 64.0571) scale(103.303 75.9194)">
<stop stop-color="#696969"/>
<stop offset="0.04" stop-color="#B9B9B9"/>
<stop offset="0.98" stop-color="#696969"/>
</radialGradient>
<radialGradient id="paint2_radial_473_9316" cx="0" cy="0" r="1" gradientUnits="userSpaceOnUse" gradientTransform="translate(115.415 51.1073) rotate(-91.4581) scale(77.6005 109.587)">
<stop stop-color="#696969"/>
<stop offset="0.0001" stop-color="#C1C1C1"/>
<stop offset="0.98" stop-color="#6C6C6C"/>
</radialGradient>
<linearGradient id="paint3_linear_473_9316" x1="114.995" y1="36.3894" x2="114.995" y2="17.8065" gradientUnits="userSpaceOnUse">
<stop stop-color="white" stop-opacity="0"/>
<stop offset="1" stop-color="white"/>
</linearGradient>
<linearGradient id="paint4_linear_473_9316" x1="114.995" y1="98.7643" x2="114.995" y2="74.7784" gradientUnits="userSpaceOnUse">
<stop/>
<stop offset="0.09" stop-color="#0C0C0C"/>
<stop offset="0.24" stop-color="#2C2C2C"/>
<stop offset="0.46" stop-color="#616161"/>
<stop offset="0.71" stop-color="#AAAAAA"/>
<stop offset="0.98" stop-color="white"/>
</linearGradient>
<radialGradient id="paint5_radial_473_9316" cx="0" cy="0" r="1" gradientUnits="userSpaceOnUse" gradientTransform="translate(115.806 32.9562) scale(106.901 78.5633)">
<stop stop-color="white"/>
<stop offset="1" stop-color="white" stop-opacity="0"/>
</radialGradient>
<radialGradient id="paint6_radial_473_9316" cx="0" cy="0" r="1" gradientUnits="userSpaceOnUse" gradientTransform="translate(1019.57 111.78) rotate(-171.57) scale(1.76307 3.29942)">
<stop offset="0.51" stop-color="white"/>
<stop offset="1" stop-color="white" stop-opacity="0"/>
</radialGradient>
<radialGradient id="paint7_radial_473_9316" cx="0" cy="0" r="1" gradientUnits="userSpaceOnUse" gradientTransform="translate(1024.09 112.412) rotate(-171.57) scale(0.946434 1.77115)">
<stop offset="0.51" stop-color="white"/>
<stop offset="1" stop-color="white" stop-opacity="0"/>
</radialGradient>
<radialGradient id="paint8_radial_473_9316" cx="0" cy="0" r="1" gradientUnits="userSpaceOnUse" gradientTransform="translate(201.015 14.5378) rotate(-91.6946) scale(5.09546 2.61376)">
<stop stop-color="white"/>
<stop offset="1" stop-color="white" stop-opacity="0"/>
</radialGradient>
<radialGradient id="paint9_radial_473_9316" cx="0" cy="0" r="1" gradientUnits="userSpaceOnUse" gradientTransform="translate(511.598 1537.27) rotate(-101.046) scale(1.4794 4.92318)">
<stop offset="0.51" stop-color="white"/>
<stop offset="1" stop-color="white" stop-opacity="0"/>
</radialGradient>
<radialGradient id="paint10_radial_473_9316" cx="0" cy="0" r="1" gradientUnits="userSpaceOnUse" gradientTransform="translate(511.355 1534.99) rotate(-101.046) scale(0.794712 2.64468)">
<stop offset="0.51" stop-color="white"/>
<stop offset="1" stop-color="white" stop-opacity="0"/>
</radialGradient>
<radialGradient id="paint11_radial_473_9316" cx="0" cy="0" r="1" gradientUnits="userSpaceOnUse" gradientTransform="translate(-129.652 -1807.23) rotate(-96.1826) scale(22.5975 125.603)">
<stop offset="0.51" stop-color="white"/>
<stop offset="1" stop-color="white" stop-opacity="0"/>
</radialGradient>
<radialGradient id="paint12_radial_473_9316" cx="0" cy="0" r="1" gradientUnits="userSpaceOnUse" gradientTransform="translate(20.3059 57.5271) rotate(-91.8678) scale(3.0469 1.55336)">
<stop offset="0.51" stop-color="white"/>
<stop offset="1" stop-color="white" stop-opacity="0"/>
</radialGradient>
<linearGradient id="paint13_linear_473_9316" x1="115" y1="0" x2="115" y2="27" gradientUnits="userSpaceOnUse">
<stop stop-color="#56CBFE"/>
<stop offset="1" stop-color="#1E5C99"/>
</linearGradient>
</defs>
</svg>
