<svg width="168" height="61" viewBox="0 0 168 61" fill="none" xmlns="http://www.w3.org/2000/svg">
<path d="M167.157 34.2168C167.157 35.5541 167.118 36.8915 167.071 38.24C166.978 40.8812 166.806 43.5225 166.556 46.1638C166.415 47.646 166.259 49.1282 166.072 50.6105C165.744 53.2072 163.807 55.5141 160.878 57.1747C158.145 58.9578 154.365 60.1391 150.093 60.3397C131.138 61.2201 36.036 61.2201 17.0735 60.3397C12.8014 60.1391 9.02141 58.9578 6.28793 57.1747C3.3592 55.5141 1.42233 53.2072 1.09431 50.6105C0.969354 49.6298 0.860014 48.649 0.758485 47.6683C0.453897 44.7819 0.243027 41.8843 0.125878 38.9978C0.0555882 37.3595 0.0165387 35.7101 0.00872879 34.0719C-0.00689111 32.9017 0.00872933 31.7315 0.0321592 30.5613V30.5168C0.0712089 28.8339 0.133689 27.1399 0.227408 25.4571C0.305507 24.1086 0.399226 22.7601 0.516375 21.4228C0.672574 19.6062 0.867824 17.7896 1.09431 15.9731C1.26613 14.6023 1.88312 13.3206 2.85936 12.1616C3.73407 11.1251 4.89776 10.189 6.28012 9.40888C9.0136 7.62574 12.7936 6.44442 17.0657 6.24381C36.0282 5.36339 131.13 5.36339 150.085 6.24381C154.357 6.44442 158.137 7.62574 160.87 9.40888C162.635 10.4119 164.041 11.6378 164.947 13.042C165.548 13.9559 165.939 14.9477 166.064 15.9842C166.306 17.9011 166.509 19.8068 166.665 21.7237C166.79 23.1613 166.892 24.599 166.962 26.0366C167.04 27.4966 167.095 28.9454 167.126 30.4053C167.157 31.6869 167.165 32.9574 167.157 34.2279V34.2168Z" fill="url(#paint0_radial_2012_24772)"/>
<path d="M167.079 35.7549C167.032 37.148 166.962 38.5522 166.868 39.9453C166.712 42.3302 166.493 44.7152 166.212 47.1001C166.165 47.479 166.118 47.8579 166.072 48.2369C165.743 50.8335 163.807 53.1405 160.878 54.801C158.144 56.5842 154.364 57.7655 150.092 57.9661C131.138 58.8465 36.0359 58.8465 17.0733 57.9661C12.8013 57.7655 9.02124 56.5842 6.28776 54.801C3.50741 53.2185 1.62522 51.0676 1.15662 48.6269C1.12538 48.4932 1.10976 48.3706 1.09414 48.2369C0.781742 45.7516 0.539632 43.2664 0.360003 40.7811C0.242854 39.1429 0.149134 37.4935 0.0944648 35.8552C0.00855536 33.7154 -0.0148735 31.5757 0.00855637 29.4248V29.3913C0.0163663 28.8675 0.0241755 28.3326 0.0397954 27.8088C0.0710352 26.3154 0.133516 24.8332 0.211615 23.3398C0.360004 20.6094 0.594302 17.8678 0.9067 15.1374C0.96918 14.6247 1.02385 14.1009 1.09414 13.5883C1.42216 10.9916 3.35902 8.68466 6.28776 7.02411C9.02124 5.24098 12.8013 4.05965 17.0733 3.85905C36.0359 2.97862 131.138 2.97862 150.092 3.85905C154.364 4.05965 158.144 5.24098 160.878 7.02411C163.807 8.68466 165.743 10.9916 166.072 13.5883C166.157 14.2681 166.236 14.9479 166.314 15.6277C166.603 18.2133 166.813 20.7988 166.962 23.3844C167.048 24.9892 167.11 26.594 167.141 28.1989C167.141 28.4552 167.157 28.7115 167.157 28.979V29.0681C167.188 31.2971 167.157 33.526 167.079 35.7438V35.7549Z" fill="url(#paint1_radial_2012_24772)"/>
<g style="mix-blend-mode:hard-light" opacity="0.2">
<path d="M166.072 11.4481C165.744 8.80684 163.807 6.45533 160.878 4.76135C158.145 2.94478 154.365 1.74116 150.093 1.54056C131.138 0.637847 36.0283 0.637847 17.0735 1.54056C12.8015 1.74116 9.02147 2.94478 6.28799 4.76135C3.36707 6.45533 1.42239 8.7957 1.09437 11.4481C-0.350468 23.1945 -0.350468 34.9521 1.09437 46.6985C1.42239 49.3398 3.35926 51.6913 6.28799 53.3853C9.02147 55.2018 12.8015 56.4054 17.0735 56.606C36.0283 57.5088 131.138 57.5088 150.093 56.606C154.365 56.4054 158.145 55.2018 160.878 53.3853C163.799 51.6913 165.744 49.3509 166.072 46.6985C167.517 34.9521 167.517 23.1945 166.072 11.4481Z" fill="white"/>
</g>
<path d="M166.751 38.7415C166.58 40.9927 166.353 43.2328 166.08 45.484C165.752 48.1141 163.815 50.4322 160.886 52.115C158.153 53.9093 154.373 55.1018 150.101 55.3024C131.146 56.194 36.0363 56.194 17.0816 55.3024C12.8095 55.1018 9.02952 53.9093 6.29604 52.115C3.36731 50.4322 1.43044 48.1141 1.10242 45.484C0.844694 43.4111 0.633824 41.327 0.469816 39.243C-0.29556 29.6698 -0.0846897 20.0854 1.10242 10.5122C1.43044 7.89324 3.36731 5.56402 6.29604 3.88118C9.02952 2.0869 12.8095 0.894426 17.0816 0.693823C36.0363 -0.197746 131.146 -0.197746 150.101 0.693823C154.373 0.894426 158.153 2.0869 160.886 3.88118C163.815 5.56402 165.752 7.88209 166.08 10.5122C167.243 19.9183 167.478 29.3355 166.751 38.7415Z" fill="url(#paint2_radial_2012_24772)"/>
<g style="mix-blend-mode:soft-light" opacity="0.75">
<path d="M166.751 38.7415C166.58 40.9927 166.353 43.2328 166.08 45.484C165.752 48.1141 163.815 50.4322 160.886 52.115C158.153 53.9093 154.373 55.1018 150.101 55.3024C131.146 56.194 36.0363 56.194 17.0816 55.3024C12.8095 55.1018 9.02952 53.9093 6.29604 52.115C3.36731 50.4322 1.43044 48.1141 1.10242 45.484C0.844694 43.4111 0.633824 41.327 0.469816 39.243C-0.29556 29.6698 -0.0846897 20.0854 1.10242 10.5122C1.43044 7.89324 3.36731 5.56402 6.29604 3.88118C9.02952 2.0869 12.8095 0.894426 17.0816 0.693823C36.0363 -0.197746 131.146 -0.197746 150.101 0.693823C154.373 0.894426 158.153 2.0869 160.886 3.88118C163.815 5.56402 165.752 7.88209 166.08 10.5122C167.243 19.9183 167.478 29.3355 166.751 38.7415Z" fill="url(#paint3_linear_2012_24772)"/>
</g>
<path style="mix-blend-mode:overlay" opacity="0.6" d="M167.157 28.2209C167.157 28.4773 167.157 28.7336 167.157 28.9899V29.0791C167.157 29.5137 167.142 29.9483 167.134 30.3941C167.11 31.6423 167.071 32.8794 167.009 34.1164C166.986 34.6291 166.954 35.1306 166.931 35.6432C166.884 36.4345 166.829 37.2369 166.767 38.0393C166.759 38.1508 166.751 38.2622 166.743 38.3737C166.103 38.5074 165.47 38.6523 164.838 38.7749C161.487 39.477 158.137 40.0899 154.786 40.636C153.607 40.8255 152.42 41.0038 151.241 41.1821C131.122 44.102 34.8255 44.2134 14.6603 41.3604C13.5903 41.2155 12.5203 41.0484 11.4426 40.8812C8.4201 40.4131 5.39765 39.867 2.3752 39.2541C1.73479 39.1315 1.10218 38.9978 0.469572 38.864C0.469572 38.8194 0.469575 38.7637 0.453955 38.7191C0.375856 37.7161 0.305564 36.7243 0.250895 35.7212C0.211845 35.1306 0.188416 34.5399 0.157176 33.9604C0.102506 32.8237 0.0634556 31.698 0.0400257 30.5613V30.5167C0.0400257 30.1601 0.0244068 29.7923 0.0165968 29.4357V29.4023C0.0165968 28.8785 0.000976562 28.3658 0.000976562 27.842C0.000976562 27.0842 0.0009771 26.3263 0.0244069 25.5685C0.0400268 24.8664 0.055645 24.1643 0.0790749 23.4622C0.0946948 22.8604 0.118125 22.2697 0.149365 21.6679C0.243084 19.5504 0.383665 17.433 0.578914 15.3155C0.649204 14.5576 0.719492 13.811 0.797592 13.0531C0.891311 12.1727 0.99284 11.2811 1.10218 10.3896C1.4302 7.79286 3.36707 5.48593 6.2958 3.82539C9.02928 2.04225 12.8093 0.860921 17.0813 0.660318C36.0439 -0.220106 131.146 -0.220106 150.1 0.660318C154.372 0.860921 158.16 2.04225 160.886 3.82539C163.815 5.48593 165.752 7.79286 166.08 10.3896C166.22 11.4817 166.345 12.5739 166.454 13.6549C166.525 14.3682 166.595 15.0703 166.65 15.7835C166.829 17.823 166.962 19.8625 167.048 21.9019C167.071 22.4257 167.087 22.9384 167.103 23.4622C167.134 24.3426 167.15 25.2119 167.165 26.0923C167.165 26.7944 167.165 27.4965 167.165 28.1986L167.157 28.2209Z" fill="url(#paint4_radial_2012_24772)"/>
<g style="mix-blend-mode:soft-light" opacity="0.6">
<path d="M140.244 8.95181C140.267 12.3509 127.076 10.2 79.834 10.2C41.0889 10.2 26.4218 12.4512 26.3983 9.05211C26.3749 5.65301 40.5265 2.85571 80.5838 2.85571C126.522 2.85571 140.221 5.5527 140.244 8.95181Z" fill="white"/>
</g>
<path d="M53.3967 34.341C52.8367 34.467 52.2627 34.551 51.6747 34.593C51.1007 34.649 50.5337 34.677 49.9737 34.677C49.4277 34.677 49.0007 34.663 48.6927 34.635C48.3987 34.607 48.0067 34.537 47.5167 34.425C47.0267 34.313 46.5787 34.159 46.1727 33.963C45.7667 33.767 45.3327 33.48 44.8707 33.102C44.4227 32.724 44.0447 32.276 43.7367 31.758C43.0227 30.554 42.6657 29 42.6657 27.096C42.6657 25.822 42.8617 24.695 43.2537 23.715C43.6597 22.735 44.1427 21.979 44.7027 21.447C45.2767 20.915 45.9277 20.488 46.6557 20.166C47.8317 19.634 49.0147 19.368 50.2047 19.368C51.9127 19.368 53.1377 19.508 53.8797 19.788C54.2157 19.914 54.5167 20.11 54.7827 20.376C55.0487 20.642 55.1817 21.027 55.1817 21.531C55.1817 22.035 55.0557 22.672 54.8037 23.442C54.5657 24.212 54.2157 24.597 53.7537 24.597C53.6137 24.597 53.0957 24.485 52.1997 24.261C51.3037 24.037 50.6947 23.925 50.3727 23.925C49.8827 23.925 49.4627 24.198 49.1127 24.744C48.7767 25.29 48.6087 26.067 48.6087 27.075C48.6087 28.083 48.7557 28.867 49.0497 29.427C49.3577 29.987 49.7567 30.267 50.2467 30.267C50.5967 30.267 51.2267 30.127 52.1367 29.847C53.0607 29.553 53.5997 29.406 53.7537 29.406C54.1877 29.406 54.5237 29.805 54.7617 30.603C55.0137 31.401 55.1397 32.045 55.1397 32.535C55.1397 33.025 54.9857 33.417 54.6777 33.711C54.3837 33.991 53.9567 34.201 53.3967 34.341ZM63.377 33.984V28.146C63.377 27.096 63.335 26.333 63.251 25.857C63.167 25.381 62.964 25.143 62.642 25.143C62.362 25.143 62.222 25.332 62.222 25.71V33.984C62.222 34.138 61.816 34.264 61.004 34.362C60.192 34.446 59.359 34.488 58.505 34.488C57.651 34.488 57.112 34.453 56.888 34.383C56.664 34.299 56.552 34.166 56.552 33.984V19.431C56.552 19.137 56.958 18.843 57.77 18.549C58.582 18.255 59.436 18.108 60.332 18.108C61.27 18.108 61.865 18.283 62.117 18.633C62.201 18.745 62.243 18.864 62.243 18.99V22.077L62.012 23.526H62.159C62.355 23.232 62.663 22.973 63.083 22.749C63.867 22.329 64.721 22.119 65.645 22.119C66.975 22.119 67.871 22.546 68.333 23.4C68.809 24.24 69.047 25.612 69.047 27.516V33.984C69.047 34.138 68.634 34.264 67.808 34.362C66.996 34.446 66.163 34.488 65.309 34.488C64.469 34.488 63.937 34.453 63.713 34.383C63.489 34.299 63.377 34.166 63.377 33.984ZM74.5078 34.677C73.2338 34.677 72.2328 34.376 71.5048 33.774C71.2108 33.522 70.9518 33.151 70.7278 32.661C70.5178 32.171 70.4128 31.597 70.4128 30.939C70.4128 30.281 70.5668 29.707 70.8748 29.217C71.1968 28.727 71.5818 28.349 72.0298 28.083C72.4778 27.817 73.0028 27.6 73.6048 27.432C74.5148 27.194 75.5158 27.075 76.6078 27.075H77.3008C77.3008 26.501 77.1048 26.095 76.7128 25.857C76.5448 25.759 76.2858 25.71 75.9358 25.71C75.5998 25.71 75.1868 25.801 74.6968 25.983C74.2208 26.165 73.8218 26.354 73.4998 26.55C73.1778 26.732 72.9608 26.823 72.8488 26.823C72.5968 26.823 72.2538 26.494 71.8198 25.836C71.3858 25.164 71.1688 24.555 71.1688 24.009C71.1688 23.827 71.4278 23.589 71.9458 23.295C72.4638 23.001 73.1918 22.735 74.1298 22.497C75.0818 22.245 76.0058 22.119 76.9018 22.119C77.7978 22.119 78.5678 22.196 79.2118 22.35C79.8698 22.49 80.4018 22.665 80.8078 22.875C81.2278 23.085 81.5778 23.365 81.8578 23.715C82.1518 24.065 82.3688 24.38 82.5088 24.66C82.6628 24.94 82.7748 25.304 82.8448 25.752C82.9428 26.27 82.9918 26.907 82.9918 27.663V33.984C82.9918 34.138 82.6138 34.264 81.8578 34.362C81.1158 34.446 80.3738 34.488 79.6318 34.488C78.9038 34.488 78.4278 34.467 78.2038 34.425C77.9938 34.383 77.8678 34.334 77.8258 34.278C77.7838 34.222 77.7488 34.124 77.7208 33.984L77.5528 32.787H77.3848C77.0348 34.047 76.0758 34.677 74.5078 34.677ZM77.3218 31.191V28.734C76.9578 28.734 76.6638 28.888 76.4398 29.196C76.2158 29.504 76.1038 29.854 76.1038 30.246C76.1038 31.17 76.3138 31.632 76.7338 31.632C76.9158 31.632 77.0558 31.59 77.1538 31.506C77.2658 31.408 77.3218 31.303 77.3218 31.191ZM97.1261 27.516V33.984C97.1261 34.138 96.7271 34.264 95.9291 34.362C95.1311 34.446 94.3051 34.488 93.4511 34.488C92.6111 34.488 92.0651 34.453 91.8131 34.383C91.5751 34.299 91.4561 34.166 91.4561 33.984V27.306C91.4561 26.676 91.4281 26.263 91.3721 26.067C91.3301 25.871 91.2881 25.696 91.2461 25.542C91.1481 25.276 90.9731 25.143 90.7211 25.143C90.3291 25.143 90.1331 25.332 90.1331 25.71V33.984C90.1331 34.138 89.7341 34.264 88.9361 34.362C88.1521 34.446 87.3331 34.488 86.4791 34.488C85.6391 34.488 85.0931 34.453 84.8411 34.383C84.5891 34.299 84.4631 34.166 84.4631 33.984V23.631C84.4631 23.337 84.8621 23.043 85.6601 22.749C86.4721 22.455 87.3261 22.308 88.2221 22.308C89.1181 22.308 89.6221 22.567 89.7341 23.085L89.9231 24.009H90.0701C90.4761 23.197 91.1761 22.63 92.1701 22.308C92.5761 22.182 93.0241 22.119 93.5141 22.119C94.9281 22.119 95.8801 22.546 96.3701 23.4C96.8741 24.24 97.1261 25.612 97.1261 27.516ZM105.607 33.102V31.884H105.439C105.383 31.954 105.285 32.045 105.145 32.157C105.005 32.255 104.655 32.395 104.095 32.577C103.549 32.759 102.926 32.85 102.226 32.85C101.54 32.85 100.959 32.745 100.483 32.535C100.007 32.325 99.636 32.066 99.37 31.758C99.104 31.436 98.894 31.009 98.74 30.477C98.502 29.651 98.383 28.531 98.383 27.117C98.383 25.493 98.726 24.247 99.412 23.379C99.678 23.029 100.07 22.735 100.588 22.497C101.12 22.245 101.687 22.119 102.289 22.119C102.891 22.119 103.388 22.189 103.78 22.329C104.172 22.455 104.466 22.609 104.662 22.791C105.054 23.183 105.278 23.526 105.334 23.82L105.355 24.009H105.523L105.712 23.19C105.852 22.602 106.958 22.308 109.03 22.308C109.954 22.308 110.514 22.448 110.71 22.728C110.822 22.896 110.892 23.057 110.92 23.211C110.948 23.351 110.962 23.568 110.962 23.862V32.661C110.962 34.313 110.423 35.573 109.345 36.441C108.267 37.309 106.685 37.743 104.599 37.743C102.387 37.743 100.882 37.526 100.084 37.092C99.734 36.896 99.559 36.693 99.559 36.483C99.559 36.147 99.692 35.58 99.958 34.782C100.238 33.984 100.497 33.585 100.735 33.585C100.791 33.585 100.987 33.634 101.323 33.732C102.387 34.012 103.248 34.152 103.906 34.152C104.578 34.152 105.026 34.068 105.25 33.9C105.488 33.732 105.607 33.466 105.607 33.102ZM104.767 30.456C104.921 30.456 105.047 30.4 105.145 30.288C105.243 30.176 105.292 30.05 105.292 29.91V25.584C105.236 25.29 105.082 25.143 104.83 25.143C104.298 25.143 104.032 26.018 104.032 27.768C104.032 28.58 104.095 29.231 104.221 29.721C104.361 30.211 104.543 30.456 104.767 30.456ZM117.959 29.742C117.959 30.652 118.393 31.107 119.261 31.107C119.765 31.107 120.423 30.939 121.235 30.603C122.047 30.253 122.474 30.078 122.516 30.078C122.782 30.078 123.132 30.477 123.566 31.275C124 32.073 124.217 32.661 124.217 33.039C124.217 33.585 123.657 33.998 122.537 34.278C121.417 34.558 120.318 34.698 119.24 34.698C118.176 34.698 117.28 34.614 116.552 34.446C115.838 34.278 115.25 34.068 114.788 33.816C114.34 33.55 113.941 33.228 113.591 32.85C113.255 32.472 113.003 32.115 112.835 31.779C112.667 31.429 112.534 31.044 112.436 30.624C112.296 30.008 112.226 29.371 112.226 28.713C112.226 26.165 112.891 24.408 114.221 23.442C114.879 22.952 115.614 22.609 116.426 22.413C117.238 22.217 118.197 22.119 119.303 22.119C122.845 22.119 124.616 23.351 124.616 25.815C124.616 28.433 122.628 29.742 118.652 29.742H117.959ZM117.917 26.676V28.062C118.323 28.062 118.652 27.901 118.904 27.579C119.17 27.257 119.303 26.865 119.303 26.403C119.303 25.563 119.086 25.143 118.652 25.143C118.162 25.143 117.917 25.654 117.917 26.676Z" fill="#731F0D"/>
<defs>
<radialGradient id="paint0_radial_2012_24772" cx="0" cy="0" r="1" gradientUnits="userSpaceOnUse" gradientTransform="translate(82.6664 33.3401) scale(76.8349 46.9892)">
<stop/>
<stop offset="0.84" stop-opacity="0.2"/>
</radialGradient>
<radialGradient id="paint1_radial_2012_24772" cx="0" cy="0" r="1" gradientUnits="userSpaceOnUse" gradientTransform="translate(82.6663 30.9752) scale(76.8349 46.9892)">
<stop stop-color="#F79D06"/>
<stop offset="0.98" stop-color="#D36101"/>
</radialGradient>
<radialGradient id="paint2_radial_2012_24772" cx="0" cy="0" r="1" gradientUnits="userSpaceOnUse" gradientTransform="translate(83.1078 6.83344) rotate(-91.7455) scale(48.9208 179.066)">
<stop stop-color="#F79D06"/>
<stop offset="0.98" stop-color="#D36101"/>
</radialGradient>
<linearGradient id="paint3_linear_2012_24772" x1="84.5979" y1="55.7316" x2="84.5979" y2="42.475" gradientUnits="userSpaceOnUse">
<stop/>
<stop offset="1" stop-opacity="0"/>
</linearGradient>
<radialGradient id="paint4_radial_2012_24772" cx="0" cy="0" r="1" gradientUnits="userSpaceOnUse" gradientTransform="translate(83.316 11.7231) scale(79.5017 48.6201)">
<stop stop-color="white"/>
<stop offset="1" stop-color="white" stop-opacity="0"/>
</radialGradient>
</defs>
</svg>
