<svg width="359" height="618" viewBox="0 0 359 618" fill="none" xmlns="http://www.w3.org/2000/svg">
<path d="M358.64 436.16C358.62 445.15 358.53 454.16 358.37 463.16C358.08 480.91 357.54 498.64 356.78 516.39C356.35 526.36 355.86 536.33 355.27 546.3C354.25 563.78 351.27 590.41 332.22 605.48C310.67 622.53 202.49 616.63 154.56 616.63C95.37 616.63 112.02 617.57 53.05 611.65C39.77 610.32 28.01 602.38 19.52 590.41C10.42 579.24 4.38999 563.76 3.37999 546.29C2.99999 539.7 2.64999 533.1 2.32999 526.51C1.38999 507.08 0.739991 487.67 0.369991 468.26C0.159991 457.23 0.0399904 446.21 0.0199904 435.18C-0.0200096 427.32 0.00999008 419.46 0.0899901 411.62V411.32C0.19999 399.99 0.389991 182.34 0.699991 171.03C0.929991 161.99 1.21999 152.95 1.58999 143.9C2.07999 131.69 2.66999 119.46 3.37999 107.25C3.91999 98.0502 5.83999 89.4102 8.87999 81.6402C11.59 74.6602 15.22 68.4102 19.52 63.1202C28.01 51.1502 39.77 43.2102 53.05 41.8702C112.02 35.9502 246.64 35.9502 305.59 41.8702C318.87 43.2102 330.63 51.1502 339.12 63.1202C344.61 69.8402 348.97 78.1302 351.79 87.4902C353.66 93.6502 354.87 100.29 355.27 107.24C356.01 120.09 356.64 132.96 357.13 145.81C357.51 155.46 357.82 165.13 358.05 174.78C358.29 184.56 358.45 400.65 358.55 410.43V410.51C358.64 419.06 358.66 427.6 358.64 436.15V436.16Z" fill="url(#paint0_radial_2011_20455)"/>
<path d="M358.39 447.29C358.24 456.68 358.03 466.08 357.73 475.47C357.24 491.49 356.57 507.52 355.7 523.56V523.58C355.57 526.11 355.42 528.64 355.27 531.17C354.25 548.63 348.22 564.11 339.12 575.28C330.63 587.25 318.87 595.19 305.59 596.53C246.64 602.45 112.02 602.45 53.05 596.53C39.77 595.19 28.01 587.25 19.52 575.28C10.88 564.67 5.00998 550.19 3.56998 533.8C3.47998 532.94 3.41998 532.06 3.37998 531.18C2.40998 514.49 1.64998 497.8 1.10998 481.12C0.749982 470.08 0.469981 459.04 0.299981 447.99V447.97C0.0399807 433.58 -0.0300176 212.88 0.0399824 198.49V198.3C0.0599824 194.75 0.0899807 191.21 0.129981 187.66C0.229981 177.66 0.409982 167.66 0.669982 157.65C1.12998 139.28 1.84998 120.89 2.81998 102.5C2.99998 99.0401 3.17998 95.5701 3.38998 92.1101C4.39998 74.6301 10.43 59.1601 19.53 47.9901C28.02 36.0401 39.78 28.0801 53.06 26.7501C112.03 20.8301 246.65 20.8301 305.6 26.7501C318.88 28.0801 330.64 36.0301 339.13 47.9901C348.23 59.1601 354.26 74.6401 355.28 92.1101C355.55 96.6701 355.79 101.25 356.02 105.81C356.92 123.17 357.58 140.54 358.03 157.9C358.3 168.69 358.48 179.47 358.58 190.26C358.59 192 358.62 193.73 358.63 195.48V196.09C358.72 211.05 358.64 432.33 358.4 447.3L358.39 447.29Z" fill="url(#paint1_radial_2011_20455)"/>
<g style="mix-blend-mode:hard-light" opacity="0.2">
<path d="M355.28 83.7301C354.27 66.1701 348.23 50.6101 339.14 39.3801C330.65 27.3501 318.89 19.3701 305.61 18.0301C246.65 12.0801 112.03 12.0801 53.07 18.0301C39.79 19.3701 28.03 27.3501 19.54 39.3801C10.44 50.6101 4.40999 66.1601 3.39999 83.7301C-1.10001 161.7 -1.10001 445.99 3.39999 523.97C4.40999 541.53 10.45 557.09 19.54 568.32C28.03 580.35 39.79 588.33 53.07 589.67C112.03 595.62 246.65 595.62 305.61 589.67C318.89 588.33 330.65 580.35 339.14 568.32C348.24 557.09 354.27 541.54 355.28 523.97C359.78 446 359.78 161.71 355.28 83.7301Z" fill="white"/>
</g>
<path d="M357.38 471.42C356.85 486.75 356.15 502.07 355.28 517.4C354.27 535.32 348.24 551.19 339.14 562.65C330.65 574.93 318.89 583.07 305.61 584.43C246.65 590.52 112.03 590.52 53.07 584.43C39.79 583.07 28.03 574.93 19.54 562.65C10.44 551.2 4.40999 535.33 3.39999 517.4C2.59999 503.22 1.93999 489.02 1.41999 474.84C-0.960011 409.47 -0.300011 137.8 3.39999 72.4402C4.40999 54.5302 10.44 38.6602 19.54 27.1902C28.03 14.9302 39.79 6.79017 53.07 5.41017C112.03 -0.659834 246.65 -0.659834 305.61 5.41017C318.89 6.79017 330.65 14.9302 339.14 27.1902C348.24 38.6602 354.27 54.5302 355.28 72.4402C358.91 136.66 359.62 407.2 357.38 471.43V471.42Z" fill="url(#paint2_radial_2011_20455)"/>
<path style="mix-blend-mode:overlay" opacity="0.6" d="M358.59 171.64C358.33 137.98 357.23 104.32 355.28 70.6501C354.27 53.1901 348.24 37.7101 339.14 26.5301C330.65 14.5701 318.89 6.6401 305.61 5.2901C246.65 -0.629902 112.03 -0.629902 53.07 5.2901C39.79 6.6301 28.03 14.5701 19.54 26.5301C10.44 37.7101 4.40999 53.1901 3.39999 70.6501C1.40999 104.9 0.309987 139.14 0.0799866 173.38C1.13999 173.68 2.20999 174 3.26999 174.29C12.87 176.99 22.48 179.38 32.07 181.46C35.47 182.21 38.88 182.91 42.28 183.58C106.36 196.17 249.7 195.69 313.63 182.78C317.38 182.02 321.15 181.22 324.9 180.38C335.54 177.98 346.18 175.25 356.83 172.17C357.42 172 358.01 171.82 358.6 171.65L358.59 171.64Z" fill="url(#paint3_radial_2011_20455)"/>
<g style="mix-blend-mode:overlay">
<path d="M303.889 19.8324C305.429 16.2625 303.179 11.859 298.864 9.99692C294.549 8.13487 289.802 9.51938 288.261 13.0893C286.721 16.6592 288.97 21.0627 293.286 22.9248C297.601 24.7868 302.348 23.4023 303.889 19.8324Z" fill="url(#paint4_radial_2011_20455)"/>
<path d="M315.862 22.1366C316.691 20.2148 315.485 17.8461 313.167 16.8462C310.85 15.8462 308.299 16.5936 307.47 18.5155C306.64 20.4374 307.847 22.806 310.164 23.8059C312.481 24.8059 315.032 24.0585 315.862 22.1366Z" fill="url(#paint5_radial_2011_20455)"/>
<path d="M352.7 463.41C352.7 475.03 348.65 484.46 346.29 484.46C343.93 484.46 347 477.56 347 465.94C347 454.32 343.93 442.37 346.29 442.37C348.65 442.37 352.7 451.79 352.7 463.42V463.41Z" fill="url(#paint6_radial_2011_20455)"/>
<path d="M344.884 79.1609C348.24 78.8064 350.387 73.0916 349.68 66.3965C348.972 59.7014 345.679 54.5613 342.323 54.9158C338.967 55.2703 336.82 60.9851 337.527 67.6802C338.234 74.3753 341.528 79.5154 344.884 79.1609Z" fill="url(#paint7_radial_2011_20455)"/>
<path d="M347.02 96.5282C348.822 96.3379 349.974 93.2673 349.594 89.6698C349.214 86.0724 347.446 83.3104 345.644 83.5007C343.843 83.6909 342.69 86.7615 343.07 90.359C343.45 93.9564 345.219 96.7185 347.02 96.5282Z" fill="url(#paint8_radial_2011_20455)"/>
<path d="M128.52 12.4101C128.75 15.3701 78.42 16.3301 60.49 20.4701C24.08 28.8601 25.97 53.1401 20.72 53.1001C15.36 53.0501 17.43 20.9801 59.61 14.0101C96.98 7.83011 128.28 9.46011 128.52 12.4201V12.4101Z" fill="url(#paint9_radial_2011_20455)"/>
<path d="M19.5476 69.8701C20.5722 62.9815 19.6713 57.1397 17.5353 56.822C15.3994 56.5043 12.8373 61.8311 11.8127 68.7196C10.7881 75.6081 11.689 81.4499 13.825 81.7676C15.9609 82.0853 18.523 76.7586 19.5476 69.8701Z" fill="url(#paint10_radial_2011_20455)"/>
</g>
<g style="mix-blend-mode:overlay" opacity="0.4" filter="url(#filter0_f_2011_20455)">
<path d="M26.16 59.02C34.19 49.12 45.31 42.54 57.87 41.43C113.62 36.53 245.04 36.53 300.79 41.43C313.35 42.54 324.47 49.12 332.5 59.02C338.35 65.32 342.85 73.26 345.44 82.24C345.23 78.55 345.04 74.87 344.8 71.18C343.87 56.72 338.29 43.9 329.88 34.63C322.03 24.73 311.17 18.15 298.89 17.04C244.41 12.14 114.26 12.14 59.77 17.04C47.49 18.15 36.63 24.73 28.78 34.63C20.37 43.89 14.8 56.71 13.86 71.18C13.62 74.86 13.43 78.55 13.22 82.23C15.81 73.25 20.31 65.31 26.16 59.02Z" fill="url(#paint11_linear_2011_20455)"/>
</g>
<g style="mix-blend-mode:soft-light" opacity="0.3">
<path d="M292.24 54.24C292.31 77.05 63.3 77.89 63.23 55.08C63.16 32.27 23.42 13.47 184.73 13.36C324.33 13.26 292.17 31.43 292.24 54.24Z" fill="white"/>
</g>
<g style="mix-blend-mode:soft-light" opacity="0.75" filter="url(#filter1_f_2011_20455)">
<path d="M337.1 476.34C328.75 488.11 317.19 495.92 304.13 497.23C246.15 503.06 112.51 503.06 54.53 497.23C41.47 495.92 29.9 488.11 21.56 476.34C20.2 474.67 18.92 472.89 17.7 471.03C18.16 483.55 18.75 496.06 19.48 508.58C20.38 524.02 25.71 537.69 33.74 547.56C41.24 558.13 51.63 565.15 63.37 566.33C115.46 571.56 243.21 571.56 295.3 566.33C307.03 565.15 317.42 558.14 324.93 547.56C332.97 537.69 338.3 524.02 339.19 508.58C339.92 496.06 340.51 483.55 340.97 471.03C339.75 472.89 338.47 474.67 337.11 476.34H337.1Z" fill="url(#paint12_linear_2011_20455)"/>
</g>
<path d="M20.2 468.04C20.69 481.79 21.32 495.53 22.12 509.28C23.04 525.35 28.56 539.59 36.87 549.86C44.63 560.87 55.37 568.17 67.51 569.39C121.39 574.85 234.34 574.85 288.22 569.39C300.36 568.17 311.11 560.87 318.86 549.86C327.17 539.59 332.69 525.36 333.61 509.28C334.35 496.56 334.94 483.83 335.42 471.11C337.6 412.49 336.99 146.75 333.61 88.1301C332.69 72.0701 327.17 57.8401 318.86 47.5501C311.1 36.5501 300.36 29.2501 288.22 28.0201C234.34 22.5701 121.39 22.5701 67.51 28.0201C55.37 29.2601 44.62 36.5601 36.87 47.5501C28.56 57.8401 23.04 72.0701 22.12 88.1301C18.8 145.73 18.16 410.45 20.2 468.05V468.04Z" fill="url(#paint13_radial_2011_20455)"/>
<path style="mix-blend-mode:overlay" d="M28.36 237.47C28.62 216.48 29.6 86.5401 31.3 69.5701C32.2 60.5401 37.6 52.5401 45.75 46.7601C53.35 40.5801 63.87 36.4801 75.76 35.7801C128.52 32.7201 237.15 32.7201 289.92 35.7801C301.81 36.4801 312.33 40.5801 319.93 46.7601C328.07 52.5401 333.47 60.5401 334.38 69.5701C336.16 87.2701 337.14 222.13 337.35 239.83C336.4 239.99 335.45 240.15 334.49 240.3C325.89 241.69 317.3 242.93 308.72 244.01C305.67 244.4 302.63 244.76 299.58 245.1C242.24 251.61 125.81 251.36 68.6 244.69C65.24 244.3 61.87 243.88 58.51 243.45C48.95 242.2 39.37 240.79 29.79 239.18L28.37 237.48L28.36 237.47Z" fill="url(#paint14_radial_2011_20455)"/>
<g style="mix-blend-mode:overlay" opacity="0.15" filter="url(#filter2_f_2011_20455)">
<path d="M315.45 473.74C308.01 483.19 297.7 489.46 286.06 490.52C234.39 495.2 121.4 495.2 69.72 490.52C58.08 489.46 47.77 483.18 40.33 473.74C34.91 467.73 30.74 460.16 28.34 451.59C28.54 455.11 28.72 458.62 28.94 462.14C29.81 475.94 34.97 488.17 42.77 497.01C50.04 506.46 60.12 512.73 71.49 513.79C121.99 518.47 233.8 518.47 284.3 513.79C295.68 512.73 305.75 506.45 313.02 497.01C320.81 488.17 325.98 475.94 326.85 462.14C327.07 458.62 327.25 455.11 327.44 451.6C325.04 460.17 320.87 467.74 315.45 473.75V473.74Z" fill="url(#paint15_linear_2011_20455)"/>
</g>
<g style="mix-blend-mode:overlay" opacity="0.38" filter="url(#filter3_f_2011_20455)">
<path d="M315.45 79.4501C308.01 70.0001 297.7 63.7301 286.06 62.6701C234.39 57.9901 121.4 57.9901 69.72 62.6701C58.08 63.7301 47.77 70.0101 40.33 79.4501C34.91 85.4601 30.74 93.0301 28.34 101.6C28.54 98.0801 28.72 94.5701 28.94 91.0501C29.81 77.2501 34.97 65.0201 42.77 56.1801C50.04 46.7301 60.12 40.4601 71.49 39.4001C121.99 34.7201 233.8 34.7201 284.3 39.4001C295.68 40.4601 305.75 46.7401 313.02 56.1801C320.81 65.0201 325.98 77.2501 326.85 91.0501C327.07 94.5701 327.25 98.0801 327.44 101.59C325.04 93.0201 320.87 85.4501 315.45 79.4401V79.4501Z" fill="url(#paint16_linear_2011_20455)"/>
</g>
<g style="mix-blend-mode:multiply" opacity="0.25" filter="url(#filter4_f_2011_20455)">
<path d="M333.53 493.22C325.28 503.1 313.86 509.65 300.96 510.75C243.69 515.64 114.72 515.64 57.45 510.75C44.55 509.65 33.13 503.1 24.88 493.22C23.54 491.82 22.27 490.32 21.07 488.76C21.53 499.26 22.11 509.77 22.83 520.27C23.72 533.23 28.98 544.7 36.92 552.98C44.33 561.85 54.59 567.74 66.18 568.73C117.63 573.12 240.79 573.12 292.24 568.73C303.83 567.74 314.09 561.85 321.5 552.98C329.44 544.7 334.7 533.22 335.59 520.27C336.31 509.77 336.89 499.26 337.35 488.76C336.15 490.32 334.88 491.82 333.54 493.22H333.53Z" fill="url(#paint17_linear_2011_20455)"/>
</g>
<path style="mix-blend-mode:overlay" opacity="0.15" d="M9.46999 268.69L177.45 252.51L8.82999 255.96L9.46999 268.69ZM14.62 299.91L177.44 252.51L11.94 287.5L14.62 299.91ZM24.73 329.69L177.45 252.51L20.09 317.97L24.73 329.69ZM39.47 357.12L177.44 252.51L33.01 346.44L39.46 357.12H39.47ZM58.41 381.38L177.45 252.51L50.34 372.07L58.41 381.38ZM80.97 401.71L177.45 252.51L71.52 394.06L80.97 401.71ZM106.45 417.52L177.44 252.51L95.91 411.75L106.45 417.52ZM134.09 428.31L177.44 252.51L122.78 424.61L134.09 428.32V428.31ZM163.05 433.76L177.44 252.51L151.31 432.23L163.04 433.76H163.05ZM192.45 433.7L177.45 252.51L180.65 434.4L192.45 433.71V433.7ZM221.39 428.14L177.45 252.51L209.88 431.03L221.39 428.14ZM249 417.24L177.45 252.51L238.13 422.24L249 417.24ZM274.43 401.34L177.45 252.51L264.54 408.3L274.44 401.34H274.43ZM296.92 380.91L177.45 252.51L288.29 389.62L296.92 380.91ZM315.77 356.58L177.45 252.51L308.68 366.78L315.78 356.58H315.77ZM330.42 329.09L177.44 252.51L325.07 340.46L330.42 329.09ZM340.43 299.28L177.45 252.51L336.99 311.48L340.43 299.28ZM345.48 268.04L177.44 252.51L344.06 280.69L345.48 268.03V268.04ZM345.43 236.33L177.45 252.51L346.07 249.06L345.44 236.33H345.43ZM340.28 205.11L177.45 252.51L342.95 217.53L340.28 205.11ZM330.17 175.33L177.45 252.51L334.81 187.06L330.17 175.33ZM315.42 147.9L177.44 252.51L321.87 158.58L315.42 147.9ZM296.49 123.64L177.45 252.51L304.56 132.95L296.49 123.64ZM273.94 103.3L177.45 252.5L283.39 110.95L273.94 103.29V103.3ZM248.45 87.5001L177.45 252.51L258.99 93.2701L248.45 87.5001ZM220.8 76.7101L177.44 252.51L232.11 80.4101L220.8 76.7001V76.7101ZM191.85 71.2601L177.45 252.51L203.58 72.7901L191.85 71.2601ZM162.45 71.3101L177.45 252.51L174.25 70.6301L162.45 71.3201V71.3101ZM133.51 76.8701L177.45 252.5L145.02 73.9801L133.51 76.8701ZM105.9 87.7701L177.45 252.51L116.77 82.7701L105.9 87.7701ZM80.47 103.68L177.45 252.51L90.37 96.7201L80.47 103.68ZM57.98 124.1L177.45 252.5L66.61 115.39L57.98 124.1ZM39.12 148.43L177.44 252.51L46.21 138.24L39.12 148.43ZM24.47 175.92L177.45 252.51L29.82 164.55L24.48 175.92H24.47ZM14.46 205.74L177.44 252.51L17.89 193.55L14.45 205.74H14.46ZM9.40999 236.98L177.45 252.51L10.84 224.33L9.41999 236.98H9.40999Z" fill="url(#paint18_radial_2011_20455)"/>
<defs>
<filter id="filter0_f_2011_20455" x="5.22" y="5.36499" width="348.22" height="84.875" filterUnits="userSpaceOnUse" color-interpolation-filters="sRGB">
<feFlood flood-opacity="0" result="BackgroundImageFix"/>
<feBlend mode="normal" in="SourceGraphic" in2="BackgroundImageFix" result="shape"/>
<feGaussianBlur stdDeviation="4" result="effect1_foregroundBlur_2011_20455"/>
</filter>
<filter id="filter1_f_2011_20455" x="9.69998" y="463.03" width="339.27" height="115.222" filterUnits="userSpaceOnUse" color-interpolation-filters="sRGB">
<feFlood flood-opacity="0" result="BackgroundImageFix"/>
<feBlend mode="normal" in="SourceGraphic" in2="BackgroundImageFix" result="shape"/>
<feGaussianBlur stdDeviation="4" result="effect1_foregroundBlur_2011_20455"/>
</filter>
<filter id="filter2_f_2011_20455" x="20.34" y="443.59" width="315.1" height="81.71" filterUnits="userSpaceOnUse" color-interpolation-filters="sRGB">
<feFlood flood-opacity="0" result="BackgroundImageFix"/>
<feBlend mode="normal" in="SourceGraphic" in2="BackgroundImageFix" result="shape"/>
<feGaussianBlur stdDeviation="4" result="effect1_foregroundBlur_2011_20455"/>
</filter>
<filter id="filter3_f_2011_20455" x="20.34" y="27.8901" width="315.1" height="81.71" filterUnits="userSpaceOnUse" color-interpolation-filters="sRGB">
<feFlood flood-opacity="0" result="BackgroundImageFix"/>
<feBlend mode="normal" in="SourceGraphic" in2="BackgroundImageFix" result="shape"/>
<feGaussianBlur stdDeviation="4" result="effect1_foregroundBlur_2011_20455"/>
</filter>
<filter id="filter4_f_2011_20455" x="13.07" y="480.76" width="332.28" height="99.2625" filterUnits="userSpaceOnUse" color-interpolation-filters="sRGB">
<feFlood flood-opacity="0" result="BackgroundImageFix"/>
<feBlend mode="normal" in="SourceGraphic" in2="BackgroundImageFix" result="shape"/>
<feGaussianBlur stdDeviation="4" result="effect1_foregroundBlur_2011_20455"/>
</filter>
<radialGradient id="paint0_radial_2011_20455" cx="0" cy="0" r="1" gradientUnits="userSpaceOnUse" gradientTransform="translate(176.655 327.612) scale(228.875 303.185)">
<stop/>
<stop offset="0.84" stop-opacity="0.2"/>
</radialGradient>
<radialGradient id="paint1_radial_2011_20455" cx="0" cy="0" r="1" gradientUnits="userSpaceOnUse" gradientTransform="translate(179.901 261.024) rotate(-90.6383) scale(362.927 220.618)">
<stop stop-color="#26DAFD"/>
<stop offset="1" stop-color="#0A4DB1"/>
</radialGradient>
<radialGradient id="paint2_radial_2011_20455" cx="0" cy="0" r="1" gradientUnits="userSpaceOnUse" gradientTransform="translate(179.901 243.482) rotate(-90.6279) scale(368.872 220.608)">
<stop stop-color="#26DAFD"/>
<stop offset="1" stop-color="#0A4DB1"/>
</radialGradient>
<radialGradient id="paint3_radial_2011_20455" cx="0" cy="0" r="1" gradientUnits="userSpaceOnUse" gradientTransform="translate(180.202 80.2614) rotate(-90.82) scale(208.1 163.216)">
<stop stop-color="white"/>
<stop offset="1" stop-color="white" stop-opacity="0"/>
</radialGradient>
<radialGradient id="paint4_radial_2011_20455" cx="0" cy="0" r="1" gradientUnits="userSpaceOnUse" gradientTransform="translate(-300.004 -127.529) rotate(-165.22) scale(4.1551 13.476)">
<stop offset="0.51" stop-color="white"/>
<stop offset="1" stop-color="white" stop-opacity="0"/>
</radialGradient>
<radialGradient id="paint5_radial_2011_20455" cx="0" cy="0" r="1" gradientUnits="userSpaceOnUse" gradientTransform="translate(-277.582 -122.315) rotate(-165.22) scale(2.2311 7.23602)">
<stop offset="0.51" stop-color="white"/>
<stop offset="1" stop-color="white" stop-opacity="0"/>
</radialGradient>
<radialGradient id="paint6_radial_2011_20455" cx="0" cy="0" r="1" gradientUnits="userSpaceOnUse" gradientTransform="translate(351.987 467.55) rotate(-90.95) scale(20.9949 6.2538)">
<stop stop-color="white"/>
<stop offset="1" stop-color="white" stop-opacity="0"/>
</radialGradient>
<radialGradient id="paint7_radial_2011_20455" cx="0" cy="0" r="1" gradientUnits="userSpaceOnUse" gradientTransform="translate(275.543 -404.436) rotate(-96.24) scale(6.0048 11.6343)">
<stop offset="0.51" stop-color="white"/>
<stop offset="1" stop-color="white" stop-opacity="0"/>
</radialGradient>
<radialGradient id="paint8_radial_2011_20455" cx="0" cy="0" r="1" gradientUnits="userSpaceOnUse" gradientTransform="translate(279.305 -376.03) rotate(-96.24) scale(3.2304 6.2589)">
<stop offset="0.51" stop-color="white"/>
<stop offset="1" stop-color="white" stop-opacity="0"/>
</radialGradient>
<radialGradient id="paint9_radial_2011_20455" cx="0" cy="0" r="1" gradientUnits="userSpaceOnUse" gradientTransform="translate(52.2609 7.50447) rotate(-96.54) scale(29.81 108.508)">
<stop offset="0.51" stop-color="white"/>
<stop offset="1" stop-color="white" stop-opacity="0"/>
</radialGradient>
<radialGradient id="paint10_radial_2011_20455" cx="0" cy="0" r="1" gradientUnits="userSpaceOnUse" gradientTransform="translate(16.212 70.1194) rotate(-84.43) scale(12.5424 3.5568)">
<stop offset="0.51" stop-color="white"/>
<stop offset="1" stop-color="white" stop-opacity="0"/>
</radialGradient>
<linearGradient id="paint11_linear_2011_20455" x1="179.33" y1="82.24" x2="179.33" y2="13.37" gradientUnits="userSpaceOnUse">
<stop stop-color="white" stop-opacity="0"/>
<stop offset="1" stop-color="white"/>
</linearGradient>
<linearGradient id="paint12_linear_2011_20455" x1="179.33" y1="569.2" x2="179.33" y2="455.43" gradientUnits="userSpaceOnUse">
<stop/>
<stop offset="0.09" stop-color="#0C0C0C"/>
<stop offset="0.24" stop-color="#2C2C2C"/>
<stop offset="0.46" stop-color="#616161"/>
<stop offset="0.71" stop-color="#AAAAAA"/>
<stop offset="0.98" stop-color="white"/>
</linearGradient>
<radialGradient id="paint13_radial_2011_20455" cx="0" cy="0" r="1" gradientUnits="userSpaceOnUse" gradientTransform="translate(177.473 253.326) rotate(-89.3764) scale(335.291 201.901)">
<stop stop-color="#0093B0"/>
<stop offset="1" stop-color="#00317B"/>
</radialGradient>
<radialGradient id="paint14_radial_2011_20455" cx="0" cy="0" r="1" gradientUnits="userSpaceOnUse" gradientTransform="translate(181.806 133.743) rotate(-88.59) scale(137.78 186.124)">
<stop stop-color="white"/>
<stop offset="1" stop-color="white" stop-opacity="0"/>
</radialGradient>
<linearGradient id="paint15_linear_2011_20455" x1="177.89" y1="451.59" x2="177.89" y2="517.3" gradientUnits="userSpaceOnUse">
<stop stop-color="white" stop-opacity="0"/>
<stop offset="1" stop-color="white"/>
</linearGradient>
<linearGradient id="paint16_linear_2011_20455" x1="177.89" y1="101.6" x2="177.89" y2="35.8901" gradientUnits="userSpaceOnUse">
<stop stop-color="white" stop-opacity="0"/>
<stop offset="1" stop-color="white"/>
</linearGradient>
<linearGradient id="paint17_linear_2011_20455" x1="179.2" y1="571.14" x2="179.2" y2="475.67" gradientUnits="userSpaceOnUse">
<stop/>
<stop offset="0.09" stop-color="#0C0C0C"/>
<stop offset="0.24" stop-color="#2C2C2C"/>
<stop offset="0.46" stop-color="#616161"/>
<stop offset="0.71" stop-color="#AAAAAA"/>
<stop offset="0.98" stop-color="white"/>
</linearGradient>
<radialGradient id="paint18_radial_2011_20455" cx="0" cy="0" r="1" gradientUnits="userSpaceOnUse" gradientTransform="translate(177.611 253.589) scale(192.044 198.666)">
<stop offset="0.37" stop-color="white"/>
<stop offset="0.42" stop-color="white" stop-opacity="0.96"/>
<stop offset="0.51" stop-color="white" stop-opacity="0.86"/>
<stop offset="0.62" stop-color="white" stop-opacity="0.7"/>
<stop offset="0.76" stop-color="white" stop-opacity="0.47"/>
<stop offset="0.91" stop-color="white" stop-opacity="0.19"/>
<stop offset="1" stop-color="white" stop-opacity="0"/>
</radialGradient>
</defs>
</svg>
