<svg width="168" height="61" viewBox="0 0 168 61" fill="none" xmlns="http://www.w3.org/2000/svg">
<path d="M167.157 34.2168C167.157 35.5541 167.118 36.8915 167.071 38.24C166.978 40.8812 166.806 43.5225 166.556 46.1638C166.415 47.646 166.259 49.1282 166.072 50.6105C165.744 53.2072 163.807 55.5141 160.878 57.1747C158.145 58.9578 154.365 60.1391 150.093 60.3397C131.138 61.2201 36.036 61.2201 17.0735 60.3397C12.8014 60.1391 9.02141 58.9578 6.28793 57.1747C3.3592 55.5141 1.42233 53.2072 1.09431 50.6105C0.969354 49.6298 0.860014 48.649 0.758485 47.6683C0.453897 44.7819 0.243027 41.8843 0.125878 38.9978C0.0555882 37.3595 0.0165387 35.7101 0.00872879 34.0719C-0.00689111 32.9017 0.00872933 31.7315 0.0321592 30.5613V30.5168C0.0712089 28.8339 0.133689 27.1399 0.227408 25.4571C0.305507 24.1086 0.399226 22.7601 0.516375 21.4228C0.672574 19.6062 0.867824 17.7896 1.09431 15.9731C1.26613 14.6023 1.88312 13.3206 2.85936 12.1616C3.73407 11.1251 4.89776 10.189 6.28012 9.40888C9.0136 7.62574 12.7936 6.44442 17.0657 6.24381C36.0282 5.36339 131.13 5.36339 150.085 6.24381C154.357 6.44442 158.137 7.62574 160.87 9.40888C162.635 10.4119 164.041 11.6378 164.947 13.042C165.548 13.9559 165.939 14.9477 166.064 15.9842C166.306 17.9011 166.509 19.8068 166.665 21.7237C166.79 23.1613 166.892 24.599 166.962 26.0366C167.04 27.4966 167.095 28.9454 167.126 30.4053C167.157 31.6869 167.165 32.9574 167.157 34.2279V34.2168Z" fill="url(#paint0_radial_2012_24753)"/>
<path d="M167.079 35.7549C167.032 37.148 166.962 38.5522 166.868 39.9453C166.712 42.3302 166.493 44.7152 166.212 47.1001C166.165 47.479 166.118 47.8579 166.072 48.2369C165.743 50.8335 163.807 53.1405 160.878 54.801C158.144 56.5842 154.364 57.7655 150.092 57.9661C131.138 58.8465 36.0359 58.8465 17.0733 57.9661C12.8013 57.7655 9.02124 56.5842 6.28776 54.801C3.50741 53.2185 1.62522 51.0676 1.15662 48.6269C1.12538 48.4932 1.10976 48.3706 1.09414 48.2369C0.781742 45.7516 0.539632 43.2664 0.360003 40.7811C0.242854 39.1429 0.149134 37.4935 0.0944648 35.8552C0.00855536 33.7154 -0.0148735 31.5757 0.00855637 29.4248V29.3913C0.0163663 28.8675 0.0241755 28.3326 0.0397954 27.8088C0.0710352 26.3154 0.133516 24.8332 0.211615 23.3398C0.360004 20.6094 0.594302 17.8678 0.9067 15.1374C0.96918 14.6247 1.02385 14.1009 1.09414 13.5883C1.42216 10.9916 3.35902 8.68466 6.28776 7.02411C9.02124 5.24098 12.8013 4.05965 17.0733 3.85905C36.0359 2.97862 131.138 2.97862 150.092 3.85905C154.364 4.05965 158.144 5.24098 160.878 7.02411C163.807 8.68466 165.743 10.9916 166.072 13.5883C166.157 14.2681 166.236 14.9479 166.314 15.6277C166.603 18.2133 166.813 20.7988 166.962 23.3844C167.048 24.9892 167.11 26.594 167.141 28.1989C167.141 28.4552 167.157 28.7115 167.157 28.979V29.0681C167.188 31.2971 167.157 33.526 167.079 35.7438V35.7549Z" fill="url(#paint1_radial_2012_24753)"/>
<g style="mix-blend-mode:hard-light" opacity="0.2">
<path d="M166.072 11.4481C165.744 8.80684 163.807 6.45533 160.878 4.76135C158.145 2.94478 154.365 1.74116 150.093 1.54056C131.138 0.637847 36.0283 0.637847 17.0735 1.54056C12.8015 1.74116 9.02147 2.94478 6.28799 4.76135C3.36707 6.45533 1.42239 8.7957 1.09437 11.4481C-0.350468 23.1945 -0.350468 34.9521 1.09437 46.6985C1.42239 49.3398 3.35926 51.6913 6.28799 53.3853C9.02147 55.2018 12.8015 56.4054 17.0735 56.606C36.0283 57.5088 131.138 57.5088 150.093 56.606C154.365 56.4054 158.145 55.2018 160.878 53.3853C163.799 51.6913 165.744 49.3509 166.072 46.6985C167.517 34.9521 167.517 23.1945 166.072 11.4481Z" fill="white"/>
</g>
<path d="M166.751 38.7415C166.58 40.9927 166.353 43.2328 166.08 45.484C165.752 48.1141 163.815 50.4322 160.886 52.115C158.153 53.9093 154.373 55.1018 150.101 55.3024C131.146 56.194 36.0363 56.194 17.0816 55.3024C12.8095 55.1018 9.02952 53.9093 6.29604 52.115C3.36731 50.4322 1.43044 48.1141 1.10242 45.484C0.844694 43.4111 0.633824 41.327 0.469816 39.243C-0.29556 29.6698 -0.0846897 20.0854 1.10242 10.5122C1.43044 7.89324 3.36731 5.56402 6.29604 3.88118C9.02952 2.0869 12.8095 0.894426 17.0816 0.693823C36.0363 -0.197746 131.146 -0.197746 150.101 0.693823C154.373 0.894426 158.153 2.0869 160.886 3.88118C163.815 5.56402 165.752 7.88209 166.08 10.5122C167.243 19.9183 167.478 29.3355 166.751 38.7415Z" fill="url(#paint2_radial_2012_24753)"/>
<g style="mix-blend-mode:soft-light" opacity="0.75">
<path d="M166.751 38.7415C166.58 40.9927 166.353 43.2328 166.08 45.484C165.752 48.1141 163.815 50.4322 160.886 52.115C158.153 53.9093 154.373 55.1018 150.101 55.3024C131.146 56.194 36.0363 56.194 17.0816 55.3024C12.8095 55.1018 9.02952 53.9093 6.29604 52.115C3.36731 50.4322 1.43044 48.1141 1.10242 45.484C0.844694 43.4111 0.633824 41.327 0.469816 39.243C-0.29556 29.6698 -0.0846897 20.0854 1.10242 10.5122C1.43044 7.89324 3.36731 5.56402 6.29604 3.88118C9.02952 2.0869 12.8095 0.894426 17.0816 0.693823C36.0363 -0.197746 131.146 -0.197746 150.101 0.693823C154.373 0.894426 158.153 2.0869 160.886 3.88118C163.815 5.56402 165.752 7.88209 166.08 10.5122C167.243 19.9183 167.478 29.3355 166.751 38.7415Z" fill="url(#paint3_linear_2012_24753)"/>
</g>
<path style="mix-blend-mode:overlay" opacity="0.6" d="M167.157 28.2209C167.157 28.4773 167.157 28.7336 167.157 28.9899V29.0791C167.157 29.5137 167.142 29.9483 167.134 30.3941C167.11 31.6423 167.071 32.8794 167.009 34.1164C166.986 34.6291 166.954 35.1306 166.931 35.6432C166.884 36.4345 166.829 37.2369 166.767 38.0393C166.759 38.1508 166.751 38.2622 166.743 38.3737C166.103 38.5074 165.47 38.6523 164.838 38.7749C161.487 39.477 158.137 40.0899 154.786 40.636C153.607 40.8255 152.42 41.0038 151.241 41.1821C131.122 44.102 34.8255 44.2134 14.6603 41.3604C13.5903 41.2155 12.5203 41.0484 11.4426 40.8812C8.4201 40.4131 5.39765 39.867 2.3752 39.2541C1.73479 39.1315 1.10218 38.9978 0.469572 38.864C0.469572 38.8194 0.469575 38.7637 0.453955 38.7191C0.375856 37.7161 0.305564 36.7243 0.250895 35.7212C0.211845 35.1306 0.188416 34.5399 0.157176 33.9604C0.102506 32.8237 0.0634556 31.698 0.0400257 30.5613V30.5167C0.0400257 30.1601 0.0244068 29.7923 0.0165968 29.4357V29.4023C0.0165968 28.8785 0.000976562 28.3658 0.000976562 27.842C0.000976562 27.0842 0.0009771 26.3263 0.0244069 25.5685C0.0400268 24.8664 0.055645 24.1643 0.0790749 23.4622C0.0946948 22.8604 0.118125 22.2697 0.149365 21.6679C0.243084 19.5504 0.383665 17.433 0.578914 15.3155C0.649204 14.5576 0.719492 13.811 0.797592 13.0531C0.891311 12.1727 0.99284 11.2811 1.10218 10.3896C1.4302 7.79286 3.36707 5.48593 6.2958 3.82539C9.02928 2.04225 12.8093 0.860921 17.0813 0.660318C36.0439 -0.220106 131.146 -0.220106 150.1 0.660318C154.372 0.860921 158.16 2.04225 160.886 3.82539C163.815 5.48593 165.752 7.79286 166.08 10.3896C166.22 11.4817 166.345 12.5739 166.454 13.6549C166.525 14.3682 166.595 15.0703 166.65 15.7835C166.829 17.823 166.962 19.8625 167.048 21.9019C167.071 22.4257 167.087 22.9384 167.103 23.4622C167.134 24.3426 167.15 25.2119 167.165 26.0923C167.165 26.7944 167.165 27.4965 167.165 28.1986L167.157 28.2209Z" fill="url(#paint4_radial_2012_24753)"/>
<g style="mix-blend-mode:soft-light" opacity="0.6">
<path d="M140.244 8.95181C140.267 12.3509 127.076 10.2 79.834 10.2C41.0889 10.2 26.4218 12.4512 26.3983 9.05211C26.3749 5.65301 40.5265 2.85571 80.5838 2.85571C126.522 2.85571 140.221 5.5527 140.244 8.95181Z" fill="white"/>
</g>
<path d="M40.4906 34.488C40.1406 34.488 39.6296 34.488 38.9576 34.488C38.2996 34.488 37.8516 34.439 37.6136 34.341C37.3756 34.243 37.2566 34.089 37.2566 33.879V20.628C37.2566 20.306 37.6836 20.054 38.5376 19.872C39.4056 19.676 40.3296 19.578 41.3096 19.578C42.2896 19.578 42.9896 19.704 43.4096 19.956C43.8296 20.208 44.0746 20.474 44.1446 20.754L45.5726 26.298H45.7616L47.1056 21.006C47.2036 20.628 47.6586 20.299 48.4706 20.019C49.2966 19.725 50.1996 19.578 51.1796 19.578C52.1596 19.578 52.8806 19.655 53.3426 19.809C53.8186 19.963 54.0566 20.159 54.0566 20.397V33.879C54.0566 34.061 53.6576 34.208 52.8596 34.32C52.0616 34.432 51.0886 34.488 49.9406 34.488C48.7926 34.488 48.2186 34.285 48.2186 33.879C48.2186 32.773 48.3376 30.806 48.5756 27.978H48.3866L47.2946 33.459C47.2526 33.669 47.0776 33.823 46.7696 33.921C46.4756 34.019 46.0276 34.068 45.4256 34.068C44.8236 34.068 44.4526 34.026 44.3126 33.942C44.1866 33.858 44.1026 33.697 44.0606 33.459L42.9266 27.978H42.7376C42.9896 30.862 43.1156 32.829 43.1156 33.879C43.1156 34.243 42.2406 34.446 40.4906 34.488ZM59.6191 34.677C58.3451 34.677 57.3441 34.376 56.6161 33.774C56.3221 33.522 56.0631 33.151 55.8391 32.661C55.6291 32.171 55.5241 31.597 55.5241 30.939C55.5241 30.281 55.6781 29.707 55.9861 29.217C56.3081 28.727 56.6931 28.349 57.1411 28.083C57.5891 27.817 58.1141 27.6 58.7161 27.432C59.6261 27.194 60.6271 27.075 61.7191 27.075H62.4121C62.4121 26.501 62.2161 26.095 61.8241 25.857C61.6561 25.759 61.3971 25.71 61.0471 25.71C60.7111 25.71 60.2981 25.801 59.8081 25.983C59.3321 26.165 58.9331 26.354 58.6111 26.55C58.2891 26.732 58.0721 26.823 57.9601 26.823C57.7081 26.823 57.3651 26.494 56.9311 25.836C56.4971 25.164 56.2801 24.555 56.2801 24.009C56.2801 23.827 56.5391 23.589 57.0571 23.295C57.5751 23.001 58.3031 22.735 59.2411 22.497C60.1931 22.245 61.1171 22.119 62.0131 22.119C62.9091 22.119 63.6791 22.196 64.3231 22.35C64.9811 22.49 65.5131 22.665 65.9191 22.875C66.3391 23.085 66.6891 23.365 66.9691 23.715C67.2631 24.065 67.4801 24.38 67.6201 24.66C67.7741 24.94 67.8861 25.304 67.9561 25.752C68.0541 26.27 68.1031 26.907 68.1031 27.663V33.984C68.1031 34.138 67.7251 34.264 66.9691 34.362C66.2271 34.446 65.4851 34.488 64.7431 34.488C64.0151 34.488 63.5391 34.467 63.3151 34.425C63.1051 34.383 62.9791 34.334 62.9371 34.278C62.8951 34.222 62.8601 34.124 62.8321 33.984L62.6641 32.787H62.4961C62.1461 34.047 61.1871 34.677 59.6191 34.677ZM62.4331 31.191V28.734C62.0691 28.734 61.7751 28.888 61.5511 29.196C61.3271 29.504 61.2151 29.854 61.2151 30.246C61.2151 31.17 61.4251 31.632 61.8451 31.632C62.0271 31.632 62.1671 31.59 62.2651 31.506C62.3771 31.408 62.4331 31.303 62.4331 31.191ZM77.8274 34.299C77.5754 34.537 77.0014 34.656 76.1054 34.656C75.2094 34.656 74.4674 34.6 73.8794 34.488C73.2914 34.362 72.7314 34.124 72.1994 33.774C71.1774 33.088 70.6664 31.66 70.6664 29.49V26.214H69.6164C69.4624 26.214 69.3294 26.053 69.2174 25.731C69.1054 25.409 69.0494 24.968 69.0494 24.408C69.0494 23.848 69.1334 23.358 69.3014 22.938C69.4834 22.504 69.7144 22.287 69.9944 22.287H70.6664V19.746C70.6664 19.312 71.0864 18.962 71.9264 18.696C72.7804 18.43 73.6134 18.297 74.4254 18.297C75.6994 18.297 76.3364 18.612 76.3364 19.242V22.287H77.8904C78.2544 22.287 78.4364 22.812 78.4364 23.862C78.4364 24.548 78.3524 25.115 78.1844 25.563C78.0304 25.997 77.8274 26.214 77.5754 26.214H76.3364V30.057C76.3364 30.435 76.4974 30.708 76.8194 30.876C77.1414 31.03 77.4214 31.107 77.6594 31.107C77.9114 31.107 78.0654 31.226 78.1214 31.464C78.1774 31.702 78.2054 32.059 78.2054 32.535C78.2054 33.473 78.0794 34.061 77.8274 34.299ZM82.4143 34.131C82.0783 33.977 81.7143 33.746 81.3223 33.438C80.9443 33.13 80.6293 32.766 80.3773 32.346C79.7893 31.338 79.4953 30.022 79.4953 28.398C79.4953 27.39 79.6563 26.494 79.9783 25.71C80.3003 24.912 80.6923 24.296 81.1543 23.862C81.6163 23.428 82.1483 23.071 82.7503 22.791C83.7163 22.343 84.6823 22.119 85.6483 22.119C87.2723 22.119 88.3993 22.245 89.0293 22.497C89.6733 22.749 89.9953 23.176 89.9953 23.778C89.9953 24.38 89.8833 25.024 89.6593 25.71C89.4493 26.382 89.1693 26.718 88.8193 26.718C88.7073 26.718 88.3643 26.599 87.7903 26.361C87.2303 26.123 86.7403 26.004 86.3203 26.004C85.9143 26.004 85.5993 26.172 85.3753 26.508C85.1653 26.83 85.0603 27.467 85.0603 28.419C85.0603 29.357 85.1583 30.001 85.3543 30.351C85.5503 30.687 85.8513 30.855 86.2573 30.855C86.6773 30.855 87.1953 30.715 87.8113 30.435C88.4273 30.155 88.7703 30.015 88.8403 30.015C89.1063 30.015 89.3583 30.33 89.5963 30.96C89.8483 31.59 89.9743 32.15 89.9743 32.64C89.9743 33.396 89.5823 33.928 88.7983 34.236C88.0143 34.53 86.9503 34.677 85.6063 34.677C84.2763 34.677 83.2123 34.495 82.4143 34.131ZM98.0762 33.984V28.146C98.0762 27.096 98.0342 26.333 97.9502 25.857C97.8662 25.381 97.6632 25.143 97.3412 25.143C97.0612 25.143 96.9212 25.332 96.9212 25.71V33.984C96.9212 34.138 96.5152 34.264 95.7032 34.362C94.8912 34.446 94.0582 34.488 93.2042 34.488C92.3502 34.488 91.8112 34.453 91.5872 34.383C91.3632 34.299 91.2512 34.166 91.2512 33.984V19.431C91.2512 19.137 91.6572 18.843 92.4692 18.549C93.2812 18.255 94.1352 18.108 95.0312 18.108C95.9692 18.108 96.5642 18.283 96.8162 18.633C96.9002 18.745 96.9422 18.864 96.9422 18.99V22.077L96.7112 23.526H96.8582C97.0542 23.232 97.3622 22.973 97.7822 22.749C98.5662 22.329 99.4202 22.119 100.344 22.119C101.674 22.119 102.57 22.546 103.032 23.4C103.508 24.24 103.746 25.612 103.746 27.516V33.984C103.746 34.138 103.333 34.264 102.507 34.362C101.695 34.446 100.862 34.488 100.008 34.488C99.1682 34.488 98.6362 34.453 98.4122 34.383C98.1882 34.299 98.0762 34.166 98.0762 33.984ZM110.74 29.742C110.74 30.652 111.174 31.107 112.042 31.107C112.546 31.107 113.204 30.939 114.016 30.603C114.828 30.253 115.255 30.078 115.297 30.078C115.563 30.078 115.913 30.477 116.347 31.275C116.781 32.073 116.998 32.661 116.998 33.039C116.998 33.585 116.438 33.998 115.318 34.278C114.198 34.558 113.099 34.698 112.021 34.698C110.957 34.698 110.061 34.614 109.333 34.446C108.619 34.278 108.031 34.068 107.569 33.816C107.121 33.55 106.722 33.228 106.372 32.85C106.036 32.472 105.784 32.115 105.616 31.779C105.448 31.429 105.315 31.044 105.217 30.624C105.077 30.008 105.007 29.371 105.007 28.713C105.007 26.165 105.672 24.408 107.002 23.442C107.66 22.952 108.395 22.609 109.207 22.413C110.019 22.217 110.978 22.119 112.084 22.119C115.626 22.119 117.397 23.351 117.397 25.815C117.397 28.433 115.409 29.742 111.433 29.742H110.74ZM110.698 26.676V28.062C111.104 28.062 111.433 27.901 111.685 27.579C111.951 27.257 112.084 26.865 112.084 26.403C112.084 25.563 111.867 25.143 111.433 25.143C110.943 25.143 110.698 25.654 110.698 26.676ZM124.362 34.677C122.038 34.677 120.337 34.453 119.259 34.005C118.713 33.767 118.44 33.536 118.44 33.312C118.44 32.738 118.608 32.066 118.944 31.296C119.28 30.526 119.574 30.141 119.826 30.141C119.966 30.141 120.435 30.295 121.233 30.603C122.045 30.911 122.724 31.065 123.27 31.065C123.83 31.065 124.194 31.03 124.362 30.96C124.544 30.89 124.635 30.757 124.635 30.561C124.635 30.351 124.495 30.19 124.215 30.078C123.935 29.952 123.585 29.868 123.165 29.826C122.745 29.784 122.29 29.7 121.8 29.574C121.324 29.448 120.876 29.287 120.456 29.091C120.036 28.895 119.686 28.573 119.406 28.125C119.126 27.663 118.986 27.173 118.986 26.655C118.986 26.123 119 25.731 119.028 25.479C119.056 25.213 119.168 24.849 119.364 24.387C119.574 23.911 119.861 23.526 120.225 23.232C120.603 22.938 121.177 22.672 121.947 22.434C122.731 22.196 123.606 22.077 124.572 22.077C125.538 22.077 126.343 22.112 126.987 22.182C127.645 22.238 128.156 22.315 128.52 22.413C128.898 22.511 129.206 22.623 129.444 22.749C129.85 22.959 130.053 23.19 130.053 23.442C130.053 23.988 129.857 24.618 129.465 25.332C129.073 26.046 128.758 26.403 128.52 26.403C128.296 26.403 127.799 26.284 127.029 26.046C126.259 25.794 125.692 25.668 125.328 25.668C124.74 25.668 124.446 25.836 124.446 26.172C124.446 26.382 124.642 26.543 125.034 26.655C125.44 26.753 125.923 26.858 126.483 26.97C127.043 27.082 127.603 27.243 128.163 27.453C128.737 27.649 129.22 28.013 129.612 28.545C130.018 29.077 130.221 29.749 130.221 30.561C130.221 33.305 128.268 34.677 124.362 34.677Z" fill="#731F0D"/>
<defs>
<radialGradient id="paint0_radial_2012_24753" cx="0" cy="0" r="1" gradientUnits="userSpaceOnUse" gradientTransform="translate(82.6664 33.3401) scale(76.8349 46.9892)">
<stop/>
<stop offset="0.84" stop-opacity="0.2"/>
</radialGradient>
<radialGradient id="paint1_radial_2012_24753" cx="0" cy="0" r="1" gradientUnits="userSpaceOnUse" gradientTransform="translate(82.6663 30.9752) scale(76.8349 46.9892)">
<stop stop-color="#F79D06"/>
<stop offset="0.98" stop-color="#D36101"/>
</radialGradient>
<radialGradient id="paint2_radial_2012_24753" cx="0" cy="0" r="1" gradientUnits="userSpaceOnUse" gradientTransform="translate(83.1078 6.83344) rotate(-91.7455) scale(48.9208 179.066)">
<stop stop-color="#F79D06"/>
<stop offset="0.98" stop-color="#D36101"/>
</radialGradient>
<linearGradient id="paint3_linear_2012_24753" x1="84.5979" y1="55.7316" x2="84.5979" y2="42.475" gradientUnits="userSpaceOnUse">
<stop/>
<stop offset="1" stop-opacity="0"/>
</linearGradient>
<radialGradient id="paint4_radial_2012_24753" cx="0" cy="0" r="1" gradientUnits="userSpaceOnUse" gradientTransform="translate(83.316 11.7231) scale(79.5017 48.6201)">
<stop stop-color="white"/>
<stop offset="1" stop-color="white" stop-opacity="0"/>
</radialGradient>
</defs>
</svg>
