<svg width="168" height="61" viewBox="0 0 168 61" fill="none" xmlns="http://www.w3.org/2000/svg">
<path d="M167.157 34.2168C167.157 35.5541 167.118 36.8915 167.071 38.24C166.978 40.8812 166.806 43.5225 166.556 46.1638C166.415 47.646 166.259 49.1282 166.072 50.6105C165.744 53.2072 163.807 55.5141 160.878 57.1747C158.145 58.9578 154.365 60.1391 150.093 60.3397C131.138 61.2201 36.036 61.2201 17.0735 60.3397C12.8014 60.1391 9.02141 58.9578 6.28793 57.1747C3.3592 55.5141 1.42233 53.2072 1.09431 50.6105C0.969354 49.6298 0.860014 48.649 0.758485 47.6683C0.453897 44.7819 0.243027 41.8843 0.125878 38.9978C0.0555882 37.3595 0.0165387 35.7101 0.00872879 34.0719C-0.00689111 32.9017 0.00872933 31.7315 0.0321592 30.5613V30.5168C0.0712089 28.8339 0.133689 27.1399 0.227408 25.4571C0.305507 24.1086 0.399226 22.7601 0.516375 21.4228C0.672574 19.6062 0.867824 17.7896 1.09431 15.9731C1.26613 14.6023 1.88312 13.3206 2.85936 12.1616C3.73407 11.1251 4.89776 10.189 6.28012 9.40888C9.0136 7.62574 12.7936 6.44442 17.0657 6.24381C36.0282 5.36339 131.13 5.36339 150.085 6.24381C154.357 6.44442 158.137 7.62574 160.87 9.40888C162.635 10.4119 164.041 11.6378 164.947 13.042C165.548 13.9559 165.939 14.9477 166.064 15.9842C166.306 17.9011 166.509 19.8068 166.665 21.7237C166.79 23.1613 166.892 24.599 166.962 26.0366C167.04 27.4966 167.095 28.9454 167.126 30.4053C167.157 31.6869 167.165 32.9574 167.157 34.2279V34.2168Z" fill="url(#paint0_radial_2012_24818)"/>
<path d="M167.079 35.7549C167.032 37.148 166.962 38.5522 166.868 39.9453C166.712 42.3302 166.493 44.7152 166.212 47.1001C166.165 47.479 166.118 47.8579 166.072 48.2369C165.743 50.8335 163.807 53.1405 160.878 54.801C158.144 56.5842 154.364 57.7655 150.092 57.9661C131.138 58.8465 36.0359 58.8465 17.0733 57.9661C12.8013 57.7655 9.02124 56.5842 6.28776 54.801C3.50741 53.2185 1.62522 51.0676 1.15662 48.6269C1.12538 48.4932 1.10976 48.3706 1.09414 48.2369C0.781742 45.7516 0.539632 43.2664 0.360003 40.7811C0.242854 39.1429 0.149134 37.4935 0.0944648 35.8552C0.00855536 33.7154 -0.0148735 31.5757 0.00855637 29.4248V29.3913C0.0163663 28.8675 0.0241755 28.3326 0.0397954 27.8088C0.0710352 26.3154 0.133516 24.8332 0.211615 23.3398C0.360004 20.6094 0.594302 17.8678 0.9067 15.1374C0.96918 14.6247 1.02385 14.1009 1.09414 13.5883C1.42216 10.9916 3.35902 8.68466 6.28776 7.02411C9.02124 5.24098 12.8013 4.05965 17.0733 3.85905C36.0359 2.97862 131.138 2.97862 150.092 3.85905C154.364 4.05965 158.144 5.24098 160.878 7.02411C163.807 8.68466 165.743 10.9916 166.072 13.5883C166.157 14.2681 166.236 14.9479 166.314 15.6277C166.603 18.2133 166.813 20.7988 166.962 23.3844C167.048 24.9892 167.11 26.594 167.141 28.1989C167.141 28.4552 167.157 28.7115 167.157 28.979V29.0681C167.188 31.2971 167.157 33.526 167.079 35.7438V35.7549Z" fill="url(#paint1_radial_2012_24818)"/>
<g style="mix-blend-mode:hard-light" opacity="0.2">
<path d="M166.072 11.4481C165.744 8.80684 163.807 6.45533 160.878 4.76135C158.145 2.94478 154.365 1.74116 150.093 1.54056C131.138 0.637847 36.0283 0.637847 17.0735 1.54056C12.8015 1.74116 9.02147 2.94478 6.28799 4.76135C3.36707 6.45533 1.42239 8.7957 1.09437 11.4481C-0.350468 23.1945 -0.350468 34.9521 1.09437 46.6985C1.42239 49.3398 3.35926 51.6913 6.28799 53.3853C9.02147 55.2018 12.8015 56.4054 17.0735 56.606C36.0283 57.5088 131.138 57.5088 150.093 56.606C154.365 56.4054 158.145 55.2018 160.878 53.3853C163.799 51.6913 165.744 49.3509 166.072 46.6985C167.517 34.9521 167.517 23.1945 166.072 11.4481Z" fill="white"/>
</g>
<path d="M166.751 38.7415C166.58 40.9927 166.353 43.2328 166.08 45.484C165.752 48.1141 163.815 50.4322 160.886 52.115C158.153 53.9093 154.373 55.1018 150.101 55.3024C131.146 56.194 36.0363 56.194 17.0816 55.3024C12.8095 55.1018 9.02952 53.9093 6.29604 52.115C3.36731 50.4322 1.43044 48.1141 1.10242 45.484C0.844694 43.4111 0.633824 41.327 0.469816 39.243C-0.29556 29.6698 -0.0846897 20.0854 1.10242 10.5122C1.43044 7.89324 3.36731 5.56402 6.29604 3.88118C9.02952 2.0869 12.8095 0.894426 17.0816 0.693823C36.0363 -0.197746 131.146 -0.197746 150.101 0.693823C154.373 0.894426 158.153 2.0869 160.886 3.88118C163.815 5.56402 165.752 7.88209 166.08 10.5122C167.243 19.9183 167.478 29.3355 166.751 38.7415Z" fill="url(#paint2_radial_2012_24818)"/>
<g style="mix-blend-mode:soft-light" opacity="0.75">
<path d="M166.751 38.7415C166.58 40.9927 166.353 43.2328 166.08 45.484C165.752 48.1141 163.815 50.4322 160.886 52.115C158.153 53.9093 154.373 55.1018 150.101 55.3024C131.146 56.194 36.0363 56.194 17.0816 55.3024C12.8095 55.1018 9.02952 53.9093 6.29604 52.115C3.36731 50.4322 1.43044 48.1141 1.10242 45.484C0.844694 43.4111 0.633824 41.327 0.469816 39.243C-0.29556 29.6698 -0.0846897 20.0854 1.10242 10.5122C1.43044 7.89324 3.36731 5.56402 6.29604 3.88118C9.02952 2.0869 12.8095 0.894426 17.0816 0.693823C36.0363 -0.197746 131.146 -0.197746 150.101 0.693823C154.373 0.894426 158.153 2.0869 160.886 3.88118C163.815 5.56402 165.752 7.88209 166.08 10.5122C167.243 19.9183 167.478 29.3355 166.751 38.7415Z" fill="url(#paint3_linear_2012_24818)"/>
</g>
<path style="mix-blend-mode:overlay" opacity="0.6" d="M167.157 28.2209C167.157 28.4773 167.157 28.7336 167.157 28.9899V29.0791C167.157 29.5137 167.142 29.9483 167.134 30.3941C167.11 31.6423 167.071 32.8794 167.009 34.1164C166.986 34.6291 166.954 35.1306 166.931 35.6432C166.884 36.4345 166.829 37.2369 166.767 38.0393C166.759 38.1508 166.751 38.2622 166.743 38.3737C166.103 38.5074 165.47 38.6523 164.838 38.7749C161.487 39.477 158.137 40.0899 154.786 40.636C153.607 40.8255 152.42 41.0038 151.241 41.1821C131.122 44.102 34.8255 44.2134 14.6603 41.3604C13.5903 41.2155 12.5203 41.0484 11.4426 40.8812C8.4201 40.4131 5.39765 39.867 2.3752 39.2541C1.73479 39.1315 1.10218 38.9978 0.469572 38.864C0.469572 38.8194 0.469575 38.7637 0.453955 38.7191C0.375856 37.7161 0.305564 36.7243 0.250895 35.7212C0.211845 35.1306 0.188416 34.5399 0.157176 33.9604C0.102506 32.8237 0.0634556 31.698 0.0400257 30.5613V30.5167C0.0400257 30.1601 0.0244068 29.7923 0.0165968 29.4357V29.4023C0.0165968 28.8785 0.000976562 28.3658 0.000976562 27.842C0.000976562 27.0842 0.0009771 26.3263 0.0244069 25.5685C0.0400268 24.8664 0.055645 24.1643 0.0790749 23.4622C0.0946948 22.8604 0.118125 22.2697 0.149365 21.6679C0.243084 19.5504 0.383665 17.433 0.578914 15.3155C0.649204 14.5576 0.719492 13.811 0.797592 13.0531C0.891311 12.1727 0.99284 11.2811 1.10218 10.3896C1.4302 7.79286 3.36707 5.48593 6.2958 3.82539C9.02928 2.04225 12.8093 0.860921 17.0813 0.660318C36.0439 -0.220106 131.146 -0.220106 150.1 0.660318C154.372 0.860921 158.16 2.04225 160.886 3.82539C163.815 5.48593 165.752 7.79286 166.08 10.3896C166.22 11.4817 166.345 12.5739 166.454 13.6549C166.525 14.3682 166.595 15.0703 166.65 15.7835C166.829 17.823 166.962 19.8625 167.048 21.9019C167.071 22.4257 167.087 22.9384 167.103 23.4622C167.134 24.3426 167.15 25.2119 167.165 26.0923C167.165 26.7944 167.165 27.4965 167.165 28.1986L167.157 28.2209Z" fill="url(#paint4_radial_2012_24818)"/>
<g style="mix-blend-mode:soft-light" opacity="0.6">
<path d="M140.244 8.95181C140.267 12.3509 127.076 10.2 79.834 10.2C41.0889 10.2 26.4218 12.4512 26.3983 9.05211C26.3749 5.65301 40.5265 2.85571 80.5838 2.85571C126.522 2.85571 140.221 5.5527 140.244 8.95181Z" fill="white"/>
</g>
<path d="M30.2874 33.879C30.2874 34.061 29.8604 34.208 29.0064 34.32C28.1524 34.432 27.2984 34.488 26.4444 34.488C25.5904 34.488 25.0444 34.439 24.8064 34.341C24.5684 34.243 24.4494 34.089 24.4494 33.879V20.376C24.4494 19.704 26.4654 19.368 30.4974 19.368C32.9334 19.368 34.5434 19.536 35.3274 19.872C36.2794 20.264 36.9234 20.796 37.2594 21.468C37.7074 22.336 37.9314 23.449 37.9314 24.807C37.9314 26.669 37.6094 28.02 36.9654 28.86C36.5034 29.476 36.0414 29.875 35.5794 30.057C35.1174 30.239 34.7324 30.372 34.4244 30.456C34.1304 30.526 33.7594 30.582 33.3114 30.624C32.6954 30.68 31.8554 30.708 30.7914 30.708L30.2874 30.687V33.879ZM30.3084 27.201H30.8124C31.0784 27.201 31.2884 27.166 31.4424 27.096C31.5964 27.012 31.7294 26.802 31.8414 26.466C31.9674 26.116 32.0304 25.633 32.0304 25.017C32.0304 24.387 31.9604 23.911 31.8204 23.589C31.6944 23.253 31.5614 23.057 31.4214 23.001C31.2954 22.931 31.1414 22.896 30.9594 22.896H30.3084V27.201ZM43.4131 34.677C41.8451 34.677 40.7461 34.271 40.1161 33.459C39.5001 32.647 39.1921 31.233 39.1921 29.217V23.505C39.1921 23.225 39.6051 22.959 40.4311 22.707C41.2571 22.441 42.1251 22.308 43.0351 22.308C44.2531 22.308 44.8621 22.623 44.8621 23.253V28.587C44.8621 29.651 44.9041 30.428 44.9881 30.918C45.0721 31.394 45.2821 31.632 45.6181 31.632C46.0661 31.632 46.2901 31.443 46.2901 31.065V23.505C46.2901 23.211 46.7241 22.938 47.5921 22.686C48.4601 22.434 49.4051 22.308 50.4271 22.308C51.4491 22.308 51.9601 22.581 51.9601 23.127V33.942C51.9601 34.138 51.5191 34.278 50.6371 34.362C49.7551 34.446 48.8871 34.488 48.0331 34.488C47.1791 34.488 46.7451 34.376 46.7311 34.152L46.5211 32.787H46.3531C46.2271 33.291 45.9751 33.704 45.5971 34.026C45.4011 34.194 45.1071 34.348 44.7151 34.488C44.3371 34.614 43.9031 34.677 43.4131 34.677ZM59.0945 27.852V33.984C59.0945 34.138 58.6955 34.264 57.8975 34.362C57.1135 34.446 56.2945 34.488 55.4405 34.488C54.6005 34.488 54.0545 34.453 53.8025 34.383C53.5505 34.299 53.4245 34.166 53.4245 33.984V23.631C53.4245 23.365 53.8095 23.078 54.5795 22.77C55.3635 22.462 56.2105 22.308 57.1205 22.308C58.0445 22.308 58.5625 22.56 58.6745 23.064L58.8845 24.03H59.0315C59.2275 23.498 59.6965 23.05 60.4385 22.686C61.1805 22.308 61.9225 22.119 62.6645 22.119C63.4065 22.119 63.9245 22.238 64.2185 22.476C64.5265 22.714 64.6805 23.022 64.6805 23.4C64.6805 23.764 64.6525 24.233 64.5965 24.807C64.5405 25.381 64.4005 26.004 64.1765 26.676C63.9665 27.348 63.6865 27.684 63.3365 27.684C63.1965 27.684 62.7555 27.579 62.0135 27.369C61.2715 27.159 60.6555 27.054 60.1655 27.054C59.6895 27.054 59.3885 27.124 59.2625 27.264C59.1505 27.404 59.0945 27.6 59.0945 27.852ZM68.4382 34.131C68.1022 33.977 67.7382 33.746 67.3462 33.438C66.9682 33.13 66.6532 32.766 66.4012 32.346C65.8132 31.338 65.5192 30.022 65.5192 28.398C65.5192 27.39 65.6802 26.494 66.0022 25.71C66.3242 24.912 66.7162 24.296 67.1782 23.862C67.6402 23.428 68.1722 23.071 68.7742 22.791C69.7402 22.343 70.7062 22.119 71.6722 22.119C73.2962 22.119 74.4232 22.245 75.0532 22.497C75.6972 22.749 76.0192 23.176 76.0192 23.778C76.0192 24.38 75.9072 25.024 75.6832 25.71C75.4732 26.382 75.1932 26.718 74.8432 26.718C74.7312 26.718 74.3882 26.599 73.8142 26.361C73.2542 26.123 72.7642 26.004 72.3442 26.004C71.9382 26.004 71.6232 26.172 71.3992 26.508C71.1892 26.83 71.0842 27.467 71.0842 28.419C71.0842 29.357 71.1822 30.001 71.3782 30.351C71.5742 30.687 71.8752 30.855 72.2812 30.855C72.7012 30.855 73.2192 30.715 73.8352 30.435C74.4512 30.155 74.7942 30.015 74.8642 30.015C75.1302 30.015 75.3822 30.33 75.6202 30.96C75.8722 31.59 75.9982 32.15 75.9982 32.64C75.9982 33.396 75.6062 33.928 74.8222 34.236C74.0382 34.53 72.9742 34.677 71.6302 34.677C70.3002 34.677 69.2362 34.495 68.4382 34.131ZM84.1001 33.984V28.146C84.1001 27.096 84.0581 26.333 83.9741 25.857C83.8901 25.381 83.6871 25.143 83.3651 25.143C83.0851 25.143 82.9451 25.332 82.9451 25.71V33.984C82.9451 34.138 82.5391 34.264 81.7271 34.362C80.9151 34.446 80.0821 34.488 79.2281 34.488C78.3741 34.488 77.8351 34.453 77.6111 34.383C77.3871 34.299 77.2751 34.166 77.2751 33.984V19.431C77.2751 19.137 77.6811 18.843 78.4931 18.549C79.3051 18.255 80.1591 18.108 81.0551 18.108C81.9931 18.108 82.5881 18.283 82.8401 18.633C82.9241 18.745 82.9661 18.864 82.9661 18.99V22.077L82.7351 23.526H82.8821C83.0781 23.232 83.3861 22.973 83.8061 22.749C84.5901 22.329 85.4441 22.119 86.3681 22.119C87.6981 22.119 88.5941 22.546 89.0561 23.4C89.5321 24.24 89.7701 25.612 89.7701 27.516V33.984C89.7701 34.138 89.3571 34.264 88.5311 34.362C87.7191 34.446 86.8861 34.488 86.0321 34.488C85.1921 34.488 84.6601 34.453 84.4361 34.383C84.2121 34.299 84.1001 34.166 84.1001 33.984ZM95.2309 34.677C93.9569 34.677 92.9559 34.376 92.2279 33.774C91.9339 33.522 91.6749 33.151 91.4509 32.661C91.2409 32.171 91.1359 31.597 91.1359 30.939C91.1359 30.281 91.2899 29.707 91.5979 29.217C91.9199 28.727 92.3049 28.349 92.7529 28.083C93.2009 27.817 93.7259 27.6 94.3279 27.432C95.2379 27.194 96.2389 27.075 97.3309 27.075H98.0239C98.0239 26.501 97.8279 26.095 97.4359 25.857C97.2679 25.759 97.0089 25.71 96.6589 25.71C96.3229 25.71 95.9099 25.801 95.4199 25.983C94.9439 26.165 94.5449 26.354 94.2229 26.55C93.9009 26.732 93.6839 26.823 93.5719 26.823C93.3199 26.823 92.9769 26.494 92.5429 25.836C92.1089 25.164 91.8919 24.555 91.8919 24.009C91.8919 23.827 92.1509 23.589 92.6689 23.295C93.1869 23.001 93.9149 22.735 94.8529 22.497C95.8049 22.245 96.7289 22.119 97.6249 22.119C98.5209 22.119 99.2909 22.196 99.9349 22.35C100.593 22.49 101.125 22.665 101.531 22.875C101.951 23.085 102.301 23.365 102.581 23.715C102.875 24.065 103.092 24.38 103.232 24.66C103.386 24.94 103.498 25.304 103.568 25.752C103.666 26.27 103.715 26.907 103.715 27.663V33.984C103.715 34.138 103.337 34.264 102.581 34.362C101.839 34.446 101.097 34.488 100.355 34.488C99.6269 34.488 99.1509 34.467 98.9269 34.425C98.7169 34.383 98.5909 34.334 98.5489 34.278C98.5069 34.222 98.4719 34.124 98.4439 33.984L98.2759 32.787H98.1079C97.7579 34.047 96.7989 34.677 95.2309 34.677ZM98.0449 31.191V28.734C97.6809 28.734 97.3869 28.888 97.1629 29.196C96.9389 29.504 96.8269 29.854 96.8269 30.246C96.8269 31.17 97.0369 31.632 97.4569 31.632C97.6389 31.632 97.7789 31.59 97.8769 31.506C97.9889 31.408 98.0449 31.303 98.0449 31.191ZM110.898 34.677C108.574 34.677 106.873 34.453 105.795 34.005C105.249 33.767 104.976 33.536 104.976 33.312C104.976 32.738 105.144 32.066 105.48 31.296C105.816 30.526 106.11 30.141 106.362 30.141C106.502 30.141 106.971 30.295 107.769 30.603C108.581 30.911 109.26 31.065 109.806 31.065C110.366 31.065 110.73 31.03 110.898 30.96C111.08 30.89 111.171 30.757 111.171 30.561C111.171 30.351 111.031 30.19 110.751 30.078C110.471 29.952 110.121 29.868 109.701 29.826C109.281 29.784 108.826 29.7 108.336 29.574C107.86 29.448 107.412 29.287 106.992 29.091C106.572 28.895 106.222 28.573 105.942 28.125C105.662 27.663 105.522 27.173 105.522 26.655C105.522 26.123 105.536 25.731 105.564 25.479C105.592 25.213 105.704 24.849 105.9 24.387C106.11 23.911 106.397 23.526 106.761 23.232C107.139 22.938 107.713 22.672 108.483 22.434C109.267 22.196 110.142 22.077 111.108 22.077C112.074 22.077 112.879 22.112 113.523 22.182C114.181 22.238 114.692 22.315 115.056 22.413C115.434 22.511 115.742 22.623 115.98 22.749C116.386 22.959 116.589 23.19 116.589 23.442C116.589 23.988 116.393 24.618 116.001 25.332C115.609 26.046 115.294 26.403 115.056 26.403C114.832 26.403 114.335 26.284 113.565 26.046C112.795 25.794 112.228 25.668 111.864 25.668C111.276 25.668 110.982 25.836 110.982 26.172C110.982 26.382 111.178 26.543 111.57 26.655C111.976 26.753 112.459 26.858 113.019 26.97C113.579 27.082 114.139 27.243 114.699 27.453C115.273 27.649 115.756 28.013 116.148 28.545C116.554 29.077 116.757 29.749 116.757 30.561C116.757 33.305 114.804 34.677 110.898 34.677ZM123.547 29.742C123.547 30.652 123.981 31.107 124.849 31.107C125.353 31.107 126.011 30.939 126.823 30.603C127.635 30.253 128.062 30.078 128.104 30.078C128.37 30.078 128.72 30.477 129.154 31.275C129.588 32.073 129.805 32.661 129.805 33.039C129.805 33.585 129.245 33.998 128.125 34.278C127.005 34.558 125.906 34.698 124.828 34.698C123.764 34.698 122.868 34.614 122.14 34.446C121.426 34.278 120.838 34.068 120.376 33.816C119.928 33.55 119.529 33.228 119.179 32.85C118.843 32.472 118.591 32.115 118.423 31.779C118.255 31.429 118.122 31.044 118.024 30.624C117.884 30.008 117.814 29.371 117.814 28.713C117.814 26.165 118.479 24.408 119.809 23.442C120.467 22.952 121.202 22.609 122.014 22.413C122.826 22.217 123.785 22.119 124.891 22.119C128.433 22.119 130.204 23.351 130.204 25.815C130.204 28.433 128.216 29.742 124.24 29.742H123.547ZM123.505 26.676V28.062C123.911 28.062 124.24 27.901 124.492 27.579C124.758 27.257 124.891 26.865 124.891 26.403C124.891 25.563 124.674 25.143 124.24 25.143C123.75 25.143 123.505 25.654 123.505 26.676ZM137.169 34.677C134.845 34.677 133.144 34.453 132.066 34.005C131.52 33.767 131.247 33.536 131.247 33.312C131.247 32.738 131.415 32.066 131.751 31.296C132.087 30.526 132.381 30.141 132.633 30.141C132.773 30.141 133.242 30.295 134.04 30.603C134.852 30.911 135.531 31.065 136.077 31.065C136.637 31.065 137.001 31.03 137.169 30.96C137.351 30.89 137.442 30.757 137.442 30.561C137.442 30.351 137.302 30.19 137.022 30.078C136.742 29.952 136.392 29.868 135.972 29.826C135.552 29.784 135.097 29.7 134.607 29.574C134.131 29.448 133.683 29.287 133.263 29.091C132.843 28.895 132.493 28.573 132.213 28.125C131.933 27.663 131.793 27.173 131.793 26.655C131.793 26.123 131.807 25.731 131.835 25.479C131.863 25.213 131.975 24.849 132.171 24.387C132.381 23.911 132.668 23.526 133.032 23.232C133.41 22.938 133.984 22.672 134.754 22.434C135.538 22.196 136.413 22.077 137.379 22.077C138.345 22.077 139.15 22.112 139.794 22.182C140.452 22.238 140.963 22.315 141.327 22.413C141.705 22.511 142.013 22.623 142.251 22.749C142.657 22.959 142.86 23.19 142.86 23.442C142.86 23.988 142.664 24.618 142.272 25.332C141.88 26.046 141.565 26.403 141.327 26.403C141.103 26.403 140.606 26.284 139.836 26.046C139.066 25.794 138.499 25.668 138.135 25.668C137.547 25.668 137.253 25.836 137.253 26.172C137.253 26.382 137.449 26.543 137.841 26.655C138.247 26.753 138.73 26.858 139.29 26.97C139.85 27.082 140.41 27.243 140.97 27.453C141.544 27.649 142.027 28.013 142.419 28.545C142.825 29.077 143.028 29.749 143.028 30.561C143.028 33.305 141.075 34.677 137.169 34.677Z" fill="white"/>
<defs>
<radialGradient id="paint0_radial_2012_24818" cx="0" cy="0" r="1" gradientUnits="userSpaceOnUse" gradientTransform="translate(82.6664 33.3401) scale(76.8349 46.9892)">
<stop/>
<stop offset="0.84" stop-opacity="0.2"/>
</radialGradient>
<radialGradient id="paint1_radial_2012_24818" cx="0" cy="0" r="1" gradientUnits="userSpaceOnUse" gradientTransform="translate(82.6663 30.9752) scale(76.8349 46.9892)">
<stop stop-color="#F76F06"/>
<stop offset="0.98" stop-color="#D33501"/>
</radialGradient>
<radialGradient id="paint2_radial_2012_24818" cx="0" cy="0" r="1" gradientUnits="userSpaceOnUse" gradientTransform="translate(82.6742 28.0613) scale(76.824 47.4285)">
<stop stop-color="#F76F06"/>
<stop offset="0.98" stop-color="#D33501"/>
</radialGradient>
<linearGradient id="paint3_linear_2012_24818" x1="84.5979" y1="55.7316" x2="84.5979" y2="42.475" gradientUnits="userSpaceOnUse">
<stop/>
<stop offset="1" stop-opacity="0"/>
</linearGradient>
<radialGradient id="paint4_radial_2012_24818" cx="0" cy="0" r="1" gradientUnits="userSpaceOnUse" gradientTransform="translate(83.316 11.7231) scale(79.5017 48.6201)">
<stop stop-color="white"/>
<stop offset="1" stop-color="white" stop-opacity="0"/>
</radialGradient>
</defs>
</svg>
