<svg width="168" height="61" viewBox="0 0 168 61" fill="none" xmlns="http://www.w3.org/2000/svg">
<path d="M167.157 34.2168C167.157 35.5541 167.118 36.8915 167.071 38.24C166.978 40.8812 166.806 43.5225 166.556 46.1638C166.415 47.646 166.259 49.1282 166.072 50.6105C165.744 53.2072 163.807 55.5141 160.878 57.1747C158.145 58.9578 154.365 60.1391 150.093 60.3397C131.138 61.2201 36.036 61.2201 17.0735 60.3397C12.8014 60.1391 9.02141 58.9578 6.28793 57.1747C3.3592 55.5141 1.42233 53.2072 1.09431 50.6105C0.969354 49.6298 0.860014 48.649 0.758485 47.6683C0.453897 44.7819 0.243027 41.8843 0.125878 38.9978C0.0555882 37.3595 0.0165387 35.7101 0.00872879 34.0719C-0.00689111 32.9017 0.00872933 31.7315 0.0321592 30.5613V30.5168C0.0712089 28.8339 0.133689 27.1399 0.227408 25.4571C0.305507 24.1086 0.399226 22.7601 0.516375 21.4228C0.672574 19.6062 0.867824 17.7896 1.09431 15.9731C1.26613 14.6023 1.88312 13.3206 2.85936 12.1616C3.73407 11.1251 4.89776 10.189 6.28012 9.40888C9.0136 7.62574 12.7936 6.44442 17.0657 6.24381C36.0282 5.36339 131.13 5.36339 150.085 6.24381C154.357 6.44442 158.137 7.62574 160.87 9.40888C162.635 10.4119 164.041 11.6378 164.947 13.042C165.548 13.9559 165.939 14.9477 166.064 15.9842C166.306 17.9011 166.509 19.8068 166.665 21.7237C166.79 23.1613 166.892 24.599 166.962 26.0366C167.04 27.4966 167.095 28.9454 167.126 30.4053C167.157 31.6869 167.165 32.9574 167.157 34.2279V34.2168Z" fill="url(#paint0_radial_2012_24781)"/>
<path d="M167.079 35.7549C167.032 37.148 166.962 38.5522 166.868 39.9453C166.712 42.3302 166.493 44.7152 166.212 47.1001C166.165 47.479 166.118 47.8579 166.072 48.2369C165.743 50.8335 163.807 53.1405 160.878 54.801C158.144 56.5842 154.364 57.7655 150.092 57.9661C131.138 58.8465 36.0359 58.8465 17.0733 57.9661C12.8013 57.7655 9.02124 56.5842 6.28776 54.801C3.50741 53.2185 1.62522 51.0676 1.15662 48.6269C1.12538 48.4932 1.10976 48.3706 1.09414 48.2369C0.781742 45.7516 0.539632 43.2664 0.360003 40.7811C0.242854 39.1429 0.149134 37.4935 0.0944648 35.8552C0.00855536 33.7154 -0.0148735 31.5757 0.00855637 29.4248V29.3913C0.0163663 28.8675 0.0241755 28.3326 0.0397954 27.8088C0.0710352 26.3154 0.133516 24.8332 0.211615 23.3398C0.360004 20.6094 0.594302 17.8678 0.9067 15.1374C0.96918 14.6247 1.02385 14.1009 1.09414 13.5883C1.42216 10.9916 3.35902 8.68466 6.28776 7.02411C9.02124 5.24098 12.8013 4.05965 17.0733 3.85905C36.0359 2.97862 131.138 2.97862 150.092 3.85905C154.364 4.05965 158.144 5.24098 160.878 7.02411C163.807 8.68466 165.743 10.9916 166.072 13.5883C166.157 14.2681 166.236 14.9479 166.314 15.6277C166.603 18.2133 166.813 20.7988 166.962 23.3844C167.048 24.9892 167.11 26.594 167.141 28.1989C167.141 28.4552 167.157 28.7115 167.157 28.979V29.0681C167.188 31.2971 167.157 33.526 167.079 35.7438V35.7549Z" fill="url(#paint1_radial_2012_24781)"/>
<g style="mix-blend-mode:hard-light" opacity="0.2">
<path d="M166.072 11.4481C165.744 8.80684 163.807 6.45533 160.878 4.76135C158.145 2.94478 154.365 1.74116 150.093 1.54056C131.138 0.637847 36.0283 0.637847 17.0735 1.54056C12.8015 1.74116 9.02147 2.94478 6.28799 4.76135C3.36707 6.45533 1.42239 8.7957 1.09437 11.4481C-0.350468 23.1945 -0.350468 34.9521 1.09437 46.6985C1.42239 49.3398 3.35926 51.6913 6.28799 53.3853C9.02147 55.2018 12.8015 56.4054 17.0735 56.606C36.0283 57.5088 131.138 57.5088 150.093 56.606C154.365 56.4054 158.145 55.2018 160.878 53.3853C163.799 51.6913 165.744 49.3509 166.072 46.6985C167.517 34.9521 167.517 23.1945 166.072 11.4481Z" fill="white"/>
</g>
<path d="M166.752 38.7415C166.58 40.9927 166.353 43.2328 166.08 45.484C165.752 48.1141 163.815 50.4322 160.886 52.115C158.153 53.9093 154.373 55.1018 150.101 55.3024C131.146 56.194 36.0364 56.194 17.0816 55.3024C12.8096 55.1018 9.02958 53.9093 6.2961 52.115C3.36737 50.4322 1.4305 48.1141 1.10248 45.484C0.844755 43.4111 0.633886 41.327 0.469877 39.243C-0.295498 29.6698 -0.0846287 20.0854 1.10248 10.5122C1.4305 7.89324 3.36737 5.56402 6.2961 3.88118C9.02958 2.0869 12.8096 0.894426 17.0816 0.693823C36.0364 -0.197746 131.146 -0.197746 150.101 0.693823C154.373 0.894426 158.153 2.0869 160.886 3.88118C163.815 5.56402 165.752 7.88209 166.08 10.5122C167.244 19.9183 167.478 29.3355 166.752 38.7415Z" fill="url(#paint2_radial_2012_24781)"/>
<g style="mix-blend-mode:soft-light" opacity="0.75">
<path d="M166.752 38.7415C166.58 40.9927 166.353 43.2328 166.08 45.484C165.752 48.1141 163.815 50.4322 160.886 52.115C158.153 53.9093 154.373 55.1018 150.101 55.3024C131.146 56.194 36.0364 56.194 17.0816 55.3024C12.8096 55.1018 9.02958 53.9093 6.2961 52.115C3.36737 50.4322 1.4305 48.1141 1.10248 45.484C0.844755 43.4111 0.633886 41.327 0.469877 39.243C-0.295498 29.6698 -0.0846287 20.0854 1.10248 10.5122C1.4305 7.89324 3.36737 5.56402 6.2961 3.88118C9.02958 2.0869 12.8096 0.894426 17.0816 0.693823C36.0364 -0.197746 131.146 -0.197746 150.101 0.693823C154.373 0.894426 158.153 2.0869 160.886 3.88118C163.815 5.56402 165.752 7.88209 166.08 10.5122C167.244 19.9183 167.478 29.3355 166.752 38.7415Z" fill="url(#paint3_linear_2012_24781)"/>
</g>
<path style="mix-blend-mode:overlay" opacity="0.6" d="M167.157 28.2209C167.157 28.4773 167.157 28.7336 167.157 28.9899V29.0791C167.157 29.5137 167.142 29.9483 167.134 30.3941C167.111 31.6423 167.072 32.8794 167.009 34.1164C166.986 34.6291 166.954 35.1306 166.931 35.6432C166.884 36.4345 166.829 37.2369 166.767 38.0393C166.759 38.1508 166.751 38.2622 166.744 38.3737C166.103 38.5074 165.471 38.6523 164.838 38.7749C161.487 39.477 158.137 40.0899 154.786 40.636C153.607 40.8255 152.42 41.0038 151.241 41.1821C131.122 44.102 34.8257 44.2134 14.6604 41.3604C13.5904 41.2155 12.5204 41.0484 11.4427 40.8812C8.42023 40.4131 5.39777 39.867 2.37532 39.2541C1.73491 39.1315 1.1023 38.9978 0.469694 38.864C0.469694 38.8194 0.469697 38.7637 0.454077 38.7191C0.375978 37.7161 0.305686 36.7243 0.251017 35.7212C0.211967 35.1306 0.188538 34.5399 0.157298 33.9604C0.102629 32.8237 0.0635776 31.698 0.0401478 30.5613V30.5167C0.0401478 30.1601 0.0245288 29.7923 0.0167189 29.4357V29.4023C0.0167189 28.8785 0.00109863 28.3658 0.00109863 27.842C0.00109863 27.0842 0.00109917 26.3263 0.024529 25.5685C0.0401489 24.8664 0.0557671 24.1643 0.0791969 23.4622C0.0948168 22.8604 0.118247 22.2697 0.149487 21.6679C0.243206 19.5504 0.383787 17.4329 0.579036 15.3155C0.649326 14.5576 0.719614 13.811 0.797714 13.0531C0.891433 12.1727 0.992962 11.2811 1.1023 10.3896C1.43032 7.79286 3.36719 5.48593 6.29592 3.82539C9.0294 2.04225 12.8094 0.860921 17.0815 0.660318C36.044 -0.220106 131.146 -0.220106 150.101 0.660318C154.373 0.860921 158.16 2.04225 160.886 3.82539C163.815 5.48593 165.752 7.79286 166.08 10.3896C166.22 11.4817 166.345 12.5739 166.455 13.6549C166.525 14.3682 166.595 15.0703 166.65 15.7835C166.829 17.823 166.962 19.8625 167.048 21.9019C167.072 22.4257 167.087 22.9384 167.103 23.4622C167.134 24.3426 167.15 25.2119 167.165 26.0923C167.165 26.7944 167.165 27.4965 167.165 28.1986L167.157 28.2209Z" fill="url(#paint4_radial_2012_24781)"/>
<g style="mix-blend-mode:soft-light" opacity="0.6">
<path d="M140.244 8.95181C140.267 12.3509 127.076 10.2 79.834 10.2C41.0889 10.2 26.4218 12.4512 26.3983 9.05211C26.3749 5.65301 40.5265 2.85571 80.5838 2.85571C126.522 2.85571 140.221 5.5527 140.244 8.95181Z" fill="white"/>
</g>
<path d="M44.9309 33.606C44.5109 33.914 43.9229 34.173 43.1669 34.383C42.4249 34.579 41.4589 34.677 40.2689 34.677C39.0929 34.677 37.9729 34.579 36.9089 34.383C35.8449 34.187 35.0819 33.97 34.6199 33.732C34.1579 33.494 33.9269 33.263 33.9269 33.039C33.9269 32.255 34.0389 31.443 34.2629 30.603C34.4869 29.749 34.7529 29.322 35.0609 29.322C35.1169 29.322 35.6979 29.511 36.8039 29.889C37.9099 30.267 38.7429 30.456 39.3029 30.456C39.8629 30.456 40.2269 30.4 40.3949 30.288C40.5629 30.162 40.6469 29.987 40.6469 29.763C40.6469 29.539 40.4929 29.343 40.1849 29.175C39.8769 28.993 39.4919 28.839 39.0299 28.713C38.5679 28.573 38.0639 28.377 37.5179 28.125C36.9859 27.873 36.4889 27.593 36.0269 27.285C35.5649 26.977 35.1799 26.543 34.8719 25.983C34.5639 25.409 34.4099 24.758 34.4099 24.03C34.4099 20.922 36.2649 19.368 39.9749 19.368C41.3609 19.368 42.5579 19.459 43.5659 19.641C44.5739 19.809 45.2809 20.005 45.6869 20.229C46.1069 20.439 46.3169 20.649 46.3169 20.859C46.3169 21.587 46.1419 22.371 45.7919 23.211C45.4559 24.051 45.1269 24.471 44.8049 24.471C44.7489 24.471 44.5669 24.408 44.2589 24.282C43.3349 23.876 42.5649 23.673 41.9489 23.673C41.3469 23.673 40.9339 23.729 40.7099 23.841C40.4999 23.953 40.3949 24.128 40.3949 24.366C40.3949 24.59 40.5489 24.779 40.8569 24.933C41.1649 25.073 41.5429 25.206 41.9909 25.332C42.4529 25.444 42.9499 25.626 43.4819 25.878C44.0279 26.116 44.5319 26.403 44.9939 26.739C45.4559 27.061 45.8409 27.523 46.1489 28.125C46.4569 28.727 46.6109 29.427 46.6109 30.225C46.6109 31.065 46.3939 31.828 45.9599 32.514C45.6939 32.934 45.3509 33.298 44.9309 33.606ZM53.8412 33.984C53.8412 34.138 53.4142 34.264 52.5602 34.362C51.7062 34.446 50.8452 34.488 49.9772 34.488C49.1232 34.488 48.5772 34.453 48.3392 34.383C48.1012 34.299 47.9822 34.166 47.9822 33.984V20.922C47.9822 20.614 48.3882 20.313 49.2002 20.019C50.0122 19.711 50.9222 19.557 51.9302 19.557C52.8262 19.557 53.4142 19.746 53.6942 20.124C53.7922 20.264 53.8412 20.404 53.8412 20.544V33.984ZM60.086 34.656C59.61 34.656 59.169 34.607 58.763 34.509C58.357 34.411 57.93 34.208 57.482 33.9C57.048 33.578 56.677 33.158 56.369 32.64C55.669 31.464 55.319 29.693 55.319 27.327C55.319 26.025 55.494 24.877 55.844 23.883C56.194 22.889 56.635 22.119 57.167 21.573C57.699 21.013 58.336 20.558 59.078 20.208C59.82 19.858 60.513 19.634 61.157 19.536C61.801 19.424 62.487 19.368 63.215 19.368C64.895 19.368 66.078 19.515 66.764 19.809C67.45 20.089 67.793 20.635 67.793 21.447C67.793 22.091 67.674 22.791 67.436 23.547C67.198 24.289 66.848 24.66 66.386 24.66C66.274 24.66 65.798 24.555 64.958 24.345C64.118 24.121 63.488 24.009 63.068 24.009C61.864 24.009 61.262 25.024 61.262 27.054C61.262 28.076 61.402 28.839 61.682 29.343C61.962 29.833 62.312 30.106 62.732 30.162V28.272C62.732 27.922 63.089 27.6 63.803 27.306C64.517 27.012 65.203 26.865 65.861 26.865C66.519 26.865 66.995 26.907 67.289 26.991C67.597 27.075 67.807 27.194 67.919 27.348C68.115 27.6 68.213 27.824 68.213 28.02V33.837C68.213 34.019 67.842 34.166 67.1 34.278C66.372 34.39 65.609 34.446 64.811 34.446C64.027 34.446 63.53 34.411 63.32 34.341C63.11 34.257 62.991 34.04 62.963 33.69L62.816 32.451H62.648C62.55 33.053 62.298 33.571 61.892 34.005C61.5 34.439 60.898 34.656 60.086 34.656ZM75.5384 33.879C75.5384 34.061 75.1044 34.208 74.2364 34.32C73.3824 34.432 72.5284 34.488 71.6744 34.488C70.8204 34.488 70.2744 34.439 70.0364 34.341C69.7984 34.243 69.6794 34.089 69.6794 33.879V20.985C69.6794 20.635 70.0784 20.313 70.8764 20.019C71.6884 19.725 72.6054 19.578 73.6274 19.578C73.9914 19.578 74.2644 19.592 74.4464 19.62C74.9224 19.69 75.2584 19.991 75.4544 20.523L77.4704 25.941H77.5544V20.985C77.5544 20.635 77.9534 20.313 78.7514 20.019C79.5494 19.725 80.4594 19.578 81.4814 19.578C82.3634 19.578 82.9234 19.746 83.1614 20.082C83.3294 20.32 83.4134 20.537 83.4134 20.733V33.879C83.4134 34.061 82.9794 34.208 82.1114 34.32C81.2574 34.432 80.3124 34.488 79.2764 34.488C78.2544 34.488 77.6944 34.355 77.5964 34.089L75.6434 28.923H75.5384V33.879ZM96.9161 34.677C95.7541 34.677 94.7531 34.572 93.9131 34.362C93.0871 34.138 92.3241 33.746 91.6241 33.186C90.2101 32.08 89.5031 29.959 89.5031 26.823C89.5031 25.507 89.6921 24.359 90.0701 23.379C90.4621 22.399 91.0011 21.622 91.6871 21.048C93.0311 19.928 94.7741 19.368 96.9161 19.368C98.0221 19.368 98.9811 19.466 99.7931 19.662C100.619 19.858 101.396 20.215 102.124 20.733C103.594 21.797 104.329 23.827 104.329 26.823C104.329 29.511 103.664 31.492 102.334 32.766C101.004 34.04 99.1981 34.677 96.9161 34.677ZM96.2231 31.086C96.3911 31.282 96.6221 31.38 96.9161 31.38C97.2101 31.38 97.4411 31.282 97.6091 31.086C97.7771 30.876 97.9171 30.442 98.0291 29.784C98.1411 29.112 98.1971 28.181 98.1971 26.991C98.1971 25.801 98.1411 24.884 98.0291 24.24C97.9171 23.596 97.7771 23.176 97.6091 22.98C97.4411 22.784 97.2101 22.686 96.9161 22.686C96.6221 22.686 96.3911 22.784 96.2231 22.98C96.0551 23.176 95.9151 23.596 95.8031 24.24C95.6911 24.884 95.6351 25.801 95.6351 26.991C95.6351 28.181 95.6911 29.112 95.8031 29.784C95.9151 30.442 96.0551 30.876 96.2231 31.086ZM119.257 28.629C119.257 30.645 118.676 32.157 117.514 33.165C116.366 34.159 114.693 34.656 112.495 34.656C110.311 34.656 108.631 34.159 107.455 33.165C106.279 32.157 105.691 30.645 105.691 28.629V20.922C105.691 20.572 106.083 20.257 106.867 19.977C107.665 19.697 108.589 19.557 109.639 19.557C110.479 19.557 111.025 19.718 111.277 20.04C111.459 20.292 111.55 20.509 111.55 20.691V26.949C111.55 28.531 111.606 29.581 111.718 30.099C111.844 30.603 112.103 30.855 112.495 30.855C112.887 30.855 113.132 30.61 113.23 30.12C113.342 29.616 113.398 28.552 113.398 26.928V20.922C113.398 20.572 113.79 20.257 114.574 19.977C115.372 19.697 116.289 19.557 117.325 19.557C118.207 19.557 118.767 19.718 119.005 20.04C119.173 20.292 119.257 20.509 119.257 20.691V28.629ZM129.853 33.984C129.853 34.138 129.419 34.264 128.551 34.362C127.697 34.446 126.836 34.488 125.968 34.488C125.114 34.488 124.568 34.453 124.33 34.383C124.106 34.299 123.994 34.166 123.994 33.984V24.954H121.075C120.921 24.954 120.788 24.758 120.676 24.366C120.564 23.974 120.508 23.393 120.508 22.623C120.508 21.839 120.592 21.139 120.76 20.523C120.928 19.893 121.152 19.578 121.432 19.578H132.793C133.003 19.578 133.143 19.774 133.213 20.166C133.297 20.558 133.339 21.125 133.339 21.867C133.339 22.609 133.262 23.309 133.108 23.967C132.954 24.625 132.744 24.954 132.478 24.954H129.853V33.984Z" fill="#731F0D"/>
<defs>
<radialGradient id="paint0_radial_2012_24781" cx="0" cy="0" r="1" gradientUnits="userSpaceOnUse" gradientTransform="translate(82.6664 33.3401) scale(76.8349 46.9892)">
<stop/>
<stop offset="0.84" stop-opacity="0.2"/>
</radialGradient>
<radialGradient id="paint1_radial_2012_24781" cx="0" cy="0" r="1" gradientUnits="userSpaceOnUse" gradientTransform="translate(82.6663 30.9752) scale(76.8349 46.9892)">
<stop stop-color="#F76F06"/>
<stop offset="0.98" stop-color="#D33501"/>
</radialGradient>
<radialGradient id="paint2_radial_2012_24781" cx="0" cy="0" r="1" gradientUnits="userSpaceOnUse" gradientTransform="translate(82.6743 28.0613) scale(76.824 47.4285)">
<stop stop-color="#F76F06"/>
<stop offset="0.98" stop-color="#D33501"/>
</radialGradient>
<linearGradient id="paint3_linear_2012_24781" x1="84.598" y1="55.7316" x2="84.598" y2="42.475" gradientUnits="userSpaceOnUse">
<stop/>
<stop offset="1" stop-opacity="0"/>
</linearGradient>
<radialGradient id="paint4_radial_2012_24781" cx="0" cy="0" r="1" gradientUnits="userSpaceOnUse" gradientTransform="translate(83.3161 11.7231) scale(79.5017 48.6201)">
<stop stop-color="white"/>
<stop offset="1" stop-color="white" stop-opacity="0"/>
</radialGradient>
</defs>
</svg>
