<svg width="915" height="612" viewBox="0 0 915 612" fill="none" xmlns="http://www.w3.org/2000/svg">
<path d="M914.323 245.469C914.293 255.339 914.183 432.947 913.993 442.817C913.633 462.288 912.963 481.739 912.013 501.221C911.483 512.164 910.863 523.097 910.133 534.041C908.863 553.214 908.993 570.628 889.603 591.978C879.123 603.507 861.663 610.952 811.613 610.952C572.363 610.952 444.043 611.21 406.263 611.21C332.613 611.21 139.373 612.244 66.0034 605.754C49.4734 604.292 34.8434 595.586 24.2834 582.456C12.9634 570.2 5.45344 553.224 4.20344 534.051C3.73344 526.815 3.29344 519.579 2.90344 512.353C1.73344 491.033 0.923438 469.742 0.463438 448.442C0.203438 436.346 0.0534375 256.522 0.0234375 244.416C-0.0265625 235.798 0.00343762 227.171 0.113438 218.573V218.235C0.253438 205.801 0.493438 193.377 0.873438 180.962C1.16344 171.043 1.52344 161.123 1.97344 151.204C2.58344 137.805 3.32344 124.387 4.19344 110.999C4.86344 100.9 7.25344 91.4179 11.0334 82.9098C14.4034 75.2564 18.9134 68.3883 24.2734 62.5936C34.8334 49.4636 49.4734 40.7467 65.9934 39.2757C139.363 32.7753 774.963 32.7753 848.313 39.2757C864.843 40.7467 879.473 49.4636 890.033 62.5936C896.863 69.9686 902.293 79.0632 905.803 89.3406C908.133 96.0994 909.633 103.385 910.133 111.009C911.053 125.103 911.843 139.227 912.453 153.321C912.923 163.906 913.313 174.512 913.603 185.097C913.903 195.822 914.103 206.556 914.223 217.281V217.37C914.333 226.743 914.363 236.126 914.333 245.499L914.323 245.469Z" fill="url(#paint0_radial_2065_128)"/>
<path d="M914.023 431.177C913.844 441.484 913.573 451.792 913.203 462.099C912.594 479.672 911.763 497.265 910.673 514.857V514.877C910.503 517.65 910.323 520.423 910.143 523.197C908.873 542.35 901.363 559.336 890.043 571.592C879.483 584.722 864.844 593.438 848.323 594.909C774.974 601.41 139.374 601.41 66.0035 594.909C49.4735 593.438 34.8435 584.722 24.2835 571.592C13.5435 559.953 6.2335 544.059 4.4435 526.079C4.3335 525.135 4.2635 524.161 4.2035 523.197C2.9935 504.888 2.0535 486.57 1.3735 468.271C0.923505 456.155 0.573505 444.039 0.363505 431.923V431.903C0.0435046 416.119 -0.0464951 232.607 0.0435049 216.824V216.615C0.0735049 212.719 0.103506 208.832 0.153506 204.936C0.273506 193.963 0.503506 182.99 0.823506 172.017C1.40351 151.859 2.29351 131.682 3.50351 111.515C3.73351 107.718 3.9535 103.912 4.2135 100.125C5.47351 80.9516 12.9735 63.975 24.2935 51.7197C34.8535 38.5997 49.4935 29.8728 66.0135 28.4217C139.384 21.9213 774.984 21.9213 848.333 28.4217C864.864 29.8828 879.493 38.6096 890.053 51.7197C901.373 63.975 908.883 80.9516 910.154 100.125C910.484 105.124 910.793 110.154 911.073 115.153C912.193 134.207 913.013 153.251 913.573 172.305C913.904 184.143 914.133 195.971 914.253 207.809C914.273 209.727 914.303 211.615 914.313 213.534V214.2C914.423 230.619 914.333 414.767 914.023 431.177Z" fill="url(#paint1_radial_2065_128)"/>
<g style="mix-blend-mode:hard-light" opacity="0.2">
<path d="M910.143 90.931C908.883 71.6585 901.373 54.5925 890.053 42.2775C879.493 29.078 864.853 20.3213 848.333 18.8503C774.973 12.3201 139.373 12.3201 66.0134 18.8503C49.4934 20.3213 34.8534 29.078 24.2934 42.2775C12.9734 54.5925 5.47342 71.6585 4.20342 90.931C-1.39658 176.48 -1.39658 429.756 4.20342 515.305C5.46342 534.577 12.9734 551.643 24.2934 563.958C34.8534 577.158 49.4934 585.915 66.0134 587.386C139.373 593.916 774.973 593.916 848.333 587.386C864.853 585.915 879.493 577.158 890.053 563.958C901.373 551.643 908.873 534.577 910.143 515.305C915.743 429.756 915.743 176.48 910.143 90.931Z" fill="white"/>
</g>
<path d="M912.753 457.646C912.093 474.464 911.223 491.281 910.143 508.089C908.883 527.749 901.383 545.163 890.063 557.726C879.503 571.194 864.863 580.13 848.343 581.621C774.983 588.3 139.383 588.3 66.0234 581.621C49.4934 580.12 34.8634 571.194 24.3034 557.726C12.9834 545.163 5.47344 527.749 4.22344 508.089C3.22344 492.533 2.41344 476.948 1.76344 461.393C-1.19656 389.68 -0.376562 150.249 4.22344 78.5265C5.48344 58.8762 12.9834 41.4723 24.3034 28.889C34.8634 15.4409 49.5034 6.50536 66.0234 4.99456C139.383 -1.66485 774.983 -1.66485 848.343 4.99456C864.873 6.50536 879.503 15.4409 890.063 28.889C901.383 41.4723 908.893 58.8862 910.143 78.5265C914.663 148.987 915.543 387.176 912.753 457.646Z" fill="url(#paint2_radial_2065_128)"/>
<path style="mix-blend-mode:overlay" opacity="0.6" d="M914.253 187.373C913.933 150.438 912.563 113.503 910.133 76.5783C908.873 57.4151 901.373 40.4386 890.053 28.1733C879.493 15.0533 864.854 6.34632 848.333 4.87529C774.974 -1.6251 139.373 -1.6251 66.0135 4.87529C49.4835 6.34632 34.8535 15.0632 24.2935 28.1733C12.9735 40.4485 5.4635 57.425 4.2135 76.5783C1.7435 114.149 0.373496 151.72 0.0834961 189.282C1.4035 189.619 2.7235 189.957 4.0535 190.275C16.0035 193.237 27.9535 195.851 39.8935 198.138C44.1335 198.963 48.3635 199.728 52.6035 200.463C132.333 214.279 778.784 213.742 858.323 199.589C862.993 198.754 867.674 197.879 872.344 196.955C885.573 194.321 898.823 191.329 912.073 187.95C912.813 187.761 913.544 187.562 914.273 187.373H914.253Z" fill="url(#paint3_radial_2065_128)"/>
<g style="mix-blend-mode:soft-light" opacity="0.3">
<path d="M839.013 59.3831C839.103 84.4006 563.983 68.587 399.263 68.6566C234.973 68.7261 90.5134 85.325 90.4234 60.3075C90.3334 35.2899 221.153 14.6258 409.173 14.5463C571.883 14.4767 838.923 34.3655 839.013 59.3831Z" fill="white"/>
</g>
<g style="mix-blend-mode:overlay">
<path d="M846.656 19.7122C847.73 15.5259 844.062 10.9825 838.464 9.5643C832.866 8.14605 827.458 10.39 826.384 14.5763C825.311 18.7626 828.978 23.306 834.576 24.7242C840.174 26.1425 845.583 23.8985 846.656 19.7122Z" fill="url(#paint4_radial_2065_128)"/>
<path d="M861.366 22.7615C861.943 20.5114 859.973 18.0697 856.965 17.3077C853.957 16.5457 851.051 17.752 850.474 20.002C849.897 22.2521 851.868 24.6939 854.875 25.4559C857.883 26.2179 860.789 25.0115 861.366 22.7615Z" fill="url(#paint5_radial_2065_128)"/>
<path d="M906.403 489.224C906.403 501.976 901.363 512.313 898.423 512.313C895.483 512.313 899.313 504.749 899.313 491.997C899.313 479.245 895.493 466.135 898.423 466.135C901.353 466.135 906.403 476.472 906.403 489.224Z" fill="url(#paint6_radial_2065_128)"/>
<path d="M900.158 85.6055C903.597 85.158 905.736 79.8709 904.936 73.7966C904.136 67.7223 900.699 63.1609 897.26 63.6085C893.821 64.0561 891.682 69.3431 892.482 75.4174C893.282 81.4918 896.719 86.0531 900.158 85.6055Z" fill="url(#paint7_radial_2065_128)"/>
<path d="M902.302 101.41C904.153 101.169 905.305 98.3266 904.875 95.0608C904.444 91.7951 902.595 89.3429 900.744 89.5838C898.893 89.8247 897.742 92.6674 898.172 95.9332C898.602 99.199 900.451 101.651 902.302 101.41Z" fill="url(#paint8_radial_2065_128)"/>
<path d="M186.823 14.2186C186.933 17.4688 112.193 16.3357 85.2534 20.0928C30.5634 27.7064 31.4034 54.4136 23.6234 54.1353C15.6734 53.8471 21.3434 18.7708 84.4834 12.9563C140.413 7.80765 186.723 10.9584 186.823 14.2186Z" fill="url(#paint9_radial_2065_128)"/>
<path d="M21.5622 71.2647C22.4564 63.6754 21.0158 57.2709 18.3445 56.9599C15.6731 56.6489 12.7825 62.5492 11.8883 70.1386C10.994 77.728 12.4346 84.1325 15.106 84.4434C17.7774 84.7544 20.6679 78.8541 21.5622 71.2647Z" fill="url(#paint10_radial_2065_128)"/>
</g>
<defs>
<radialGradient id="paint0_radial_2065_128" cx="0" cy="0" r="1" gradientUnits="userSpaceOnUse" gradientTransform="translate(460.233 322.578) scale(423.643 488.992)">
<stop/>
<stop offset="0.84" stop-opacity="0.2"/>
</radialGradient>
<radialGradient id="paint1_radial_2065_128" cx="0" cy="0" r="1" gradientUnits="userSpaceOnUse" gradientTransform="translate(458.615 261.261) rotate(-91.6336) scale(361.532 562.251)">
<stop stop-color="#26DAFD"/>
<stop offset="1" stop-color="#0A4DB1"/>
</radialGradient>
<radialGradient id="paint2_radial_2065_128" cx="0" cy="0" r="1" gradientUnits="userSpaceOnUse" gradientTransform="translate(458.616 242.002) rotate(-91.6047) scale(368.047 562.243)">
<stop stop-color="#26DAFD"/>
<stop offset="1" stop-color="#0A4DB1"/>
</radialGradient>
<radialGradient id="paint3_radial_2065_128" cx="0" cy="0" r="1" gradientUnits="userSpaceOnUse" gradientTransform="translate(459.004 89.6991) rotate(-90.9256) scale(433.474 387.657)">
<stop stop-color="white"/>
<stop offset="1" stop-color="white" stop-opacity="0"/>
</radialGradient>
<radialGradient id="paint4_radial_2065_128" cx="0" cy="0" r="1" gradientUnits="userSpaceOnUse" gradientTransform="translate(608.06 -30.1849) rotate(-166.907) scale(5.14199 14.8772)">
<stop offset="0.51" stop-color="white"/>
<stop offset="1" stop-color="white" stop-opacity="0"/>
</radialGradient>
<radialGradient id="paint5_radial_2065_128" cx="0" cy="0" r="1" gradientUnits="userSpaceOnUse" gradientTransform="translate(632.571 -25.1982) rotate(-166.907) scale(2.76233 7.99224)">
<stop offset="0.51" stop-color="white"/>
<stop offset="1" stop-color="white" stop-opacity="0"/>
</radialGradient>
<radialGradient id="paint6_radial_2065_128" cx="0" cy="0" r="1" gradientUnits="userSpaceOnUse" gradientTransform="translate(880.122 486.839) rotate(-91.0765) scale(23.1142 7.44162)">
<stop stop-color="white"/>
<stop offset="1" stop-color="white" stop-opacity="0"/>
</radialGradient>
<radialGradient id="paint7_radial_2065_128" cx="0" cy="0" r="1" gradientUnits="userSpaceOnUse" gradientTransform="translate(842.757 -229.076) rotate(-97.0724) scale(5.47007 11.9758)">
<stop offset="0.51" stop-color="white"/>
<stop offset="1" stop-color="white" stop-opacity="0"/>
</radialGradient>
<radialGradient id="paint8_radial_2065_128" cx="0" cy="0" r="1" gradientUnits="userSpaceOnUse" gradientTransform="translate(846.507 -204.461) rotate(-97.0724) scale(2.94035 6.43742)">
<stop offset="0.51" stop-color="white"/>
<stop offset="1" stop-color="white" stop-opacity="0"/>
</radialGradient>
<radialGradient id="paint9_radial_2065_128" cx="0" cy="0" r="1" gradientUnits="userSpaceOnUse" gradientTransform="translate(69.7309 -44.035) rotate(-94.6279) scale(32.0899 161.415)">
<stop offset="0.51" stop-color="white"/>
<stop offset="1" stop-color="white" stop-opacity="0"/>
</radialGradient>
<radialGradient id="paint10_radial_2065_128" cx="0" cy="0" r="1" gradientUnits="userSpaceOnUse" gradientTransform="translate(16.754 71.9103) rotate(-86.6296) scale(13.8441 4.48031)">
<stop offset="0.51" stop-color="white"/>
<stop offset="1" stop-color="white" stop-opacity="0"/>
</radialGradient>
</defs>
</svg>
