<svg width="375" height="37" viewBox="0 0 375 37" fill="none" xmlns="http://www.w3.org/2000/svg">
<path d="M4.28398 36C2.61732 36 1.50065 35.9167 0.933985 35.75C0.367318 35.55 0.0839845 35.2333 0.0839845 34.8V3.7C0.0839845 2.96666 1.05065 2.25 2.98398 1.55C4.91732 0.816666 7.08398 0.449999 9.48399 0.449999C11.6173 0.449999 13.0173 0.899999 13.684 1.8C13.9173 2.13333 14.034 2.46667 14.034 2.8V24.95C18.1007 24.6833 21.1673 24.55 23.234 24.55C23.934 24.55 24.284 25.6667 24.284 27.9C24.284 30.1 24.134 32 23.834 33.6C23.534 35.2 23.134 36 22.634 36H4.28398ZM52.6313 36H31.4313C29.7979 36 28.6979 35.8833 28.1313 35.65C27.5646 35.4167 27.2813 35.05 27.2813 34.55V2.9C27.2813 2.03333 27.6646 1.41666 28.4313 1.05C29.2313 0.683331 30.6479 0.499998 32.6813 0.499998H52.7813C53.4813 0.499998 53.8313 1.66666 53.8313 4C53.8313 6.3 53.6813 8.06666 53.3813 9.3C53.0813 10.5 52.6813 11.1 52.1813 11.1C50.0146 11.1 46.3646 10.8833 41.2313 10.45V13.8C46.1646 13.6 49.3813 13.5 50.8813 13.5C51.7813 13.5 52.2313 14.55 52.2313 16.65C52.2313 18.75 52.0479 20.35 51.6812 21.45C51.3479 22.5167 50.8813 23.05 50.2812 23.05L41.2313 22.85V26.05C47.0313 25.6167 51.0313 25.4 53.2313 25.4C53.9313 25.4 54.2813 26.5667 54.2813 28.9C54.2813 31.2333 54.1313 33 53.8313 34.2C53.5313 35.4 53.1313 36 52.6313 36ZM71.5988 33.45C71.5322 34.4167 71.0155 35.0833 70.0488 35.45C69.1155 35.8167 67.4155 36 64.9488 36C62.4822 36 60.4155 35.7833 58.7488 35.35C57.1155 34.8833 56.2988 34.3 56.2988 33.6C56.2988 32.8 57.7822 27.7 60.7488 18.3C63.7155 8.86667 65.4155 3.43333 65.8488 2C66.0155 1.56667 67.3488 1.21667 69.8488 0.949998C72.3822 0.649998 75.0822 0.499998 77.9488 0.499998C80.8488 0.499998 82.4488 0.999999 82.7488 2C89.0488 22.9333 92.1988 33.5667 92.1988 33.9C92.1988 34.2333 91.9988 34.5667 91.5988 34.9C90.6655 35.6333 88.8155 36 86.0488 36C80.1488 36 77.1322 35.3 76.9988 33.9L76.6488 30.65H71.8488L71.5988 33.45ZM75.5988 21.15L74.8488 12.15H73.7488L72.8988 21.15H75.5988ZM110.663 36H98.8629C97.2296 36 96.1296 35.8833 95.5629 35.65C94.9962 35.4167 94.7129 35.0333 94.7129 34.5V2.95C94.7129 2.08333 95.0796 1.46667 95.8129 1.1C96.5462 0.699998 97.8129 0.499998 99.6129 0.499998H110.863C117.263 0.499998 121.68 1.76667 124.113 4.3C126.546 6.8 127.763 11.3667 127.763 18C127.763 24.6333 126.496 29.3 123.963 32C121.43 34.6667 116.996 36 110.663 36ZM110.263 7.95C109.463 7.95 108.93 8.01666 108.663 8.15V28.35L110.563 28.55C111.563 28.55 112.313 27.75 112.813 26.15C113.346 24.55 113.613 21.7833 113.613 17.85C113.613 13.9167 113.346 11.2833 112.813 9.95C112.28 8.61666 111.43 7.95 110.263 7.95ZM156.635 36H135.435C133.802 36 132.702 35.8833 132.135 35.65C131.568 35.4167 131.285 35.05 131.285 34.55V2.9C131.285 2.03333 131.668 1.41666 132.435 1.05C133.235 0.683331 134.652 0.499998 136.685 0.499998H156.785C157.485 0.499998 157.835 1.66666 157.835 4C157.835 6.3 157.685 8.06666 157.385 9.3C157.085 10.5 156.685 11.1 156.185 11.1C154.018 11.1 150.368 10.8833 145.235 10.45V13.8C150.168 13.6 153.385 13.5 154.885 13.5C155.785 13.5 156.235 14.55 156.235 16.65C156.235 18.75 156.052 20.35 155.685 21.45C155.352 22.5167 154.885 23.05 154.285 23.05L145.235 22.85V26.05C151.035 25.6167 155.035 25.4 157.235 25.4C157.935 25.4 158.285 26.5667 158.285 28.9C158.285 31.2333 158.135 33 157.835 34.2C157.535 35.4 157.135 36 156.635 36ZM175.803 34.55C175.803 34.9833 174.786 35.3333 172.753 35.6C170.719 35.8667 168.669 36 166.603 36C164.569 36 163.253 35.8833 162.653 35.65C162.086 35.4167 161.803 35.05 161.803 34.55V2.4C161.803 1.53333 162.886 0.916665 165.053 0.549997C167.253 0.183332 170.019 -1.43051e-06 173.353 -1.43051e-06C176.686 -1.43051e-06 178.836 0.016665 179.803 0.0499979C180.803 0.0499979 181.969 0.0999983 183.303 0.199999C184.636 0.299998 185.686 0.466664 186.453 0.699998C187.253 0.933331 188.119 1.23333 189.053 1.6C190.019 1.96666 190.769 2.45 191.303 3.05C191.836 3.61667 192.353 4.3 192.853 5.1C193.753 6.53333 194.203 8.58333 194.203 11.25C194.203 13.8833 193.753 16.1167 192.853 17.95C191.986 19.75 190.819 21.1167 189.353 22.05C193.186 28.0833 195.103 31.9167 195.103 33.55C195.103 35.1833 191.819 36 185.253 36C183.353 36 182.036 35.9167 181.303 35.75C180.569 35.5833 180.103 35.2167 179.903 34.65L176.653 24.35L175.803 24.3V34.55ZM175.803 16.6H177.103C179.036 16.6 180.003 15.1 180.003 12.1C180.003 10.5667 179.736 9.48333 179.203 8.85C178.703 8.21666 178.119 7.9 177.453 7.9H175.803V16.6ZM212.744 36H201.794C200.127 36 199.01 35.8833 198.444 35.65C197.877 35.4167 197.594 35.05 197.594 34.55V2.4C197.594 0.799998 202.41 -1.43051e-06 212.044 -1.43051e-06C217.577 -1.43051e-06 221.394 0.533332 223.494 1.6C225.627 2.7 226.994 4.1 227.594 5.8C227.927 6.8 228.094 7.96667 228.094 9.3C228.094 11.9 227.644 13.85 226.744 15.15C225.877 16.45 224.927 17.1833 223.894 17.35C225.46 17.6833 226.76 18.45 227.794 19.65C228.827 20.85 229.344 22.8833 229.344 25.75C229.344 29.0833 228.327 31.55 226.294 33.15C224.527 34.55 221.827 35.4333 218.194 35.8C216.66 35.9333 214.844 36 212.744 36ZM212.794 14.2C214.494 14.2 215.344 13.0667 215.344 10.8C215.344 9.66666 215.11 8.83333 214.644 8.3C214.21 7.73333 213.71 7.45 213.144 7.45H211.544V14.2H212.794ZM211.544 28.55H212.794C214.494 28.55 215.344 27.4167 215.344 25.15C215.344 24.0167 215.11 23.1833 214.644 22.65C214.21 22.0833 213.71 21.8 213.144 21.8H211.544V28.55ZM249.748 36.45C246.981 36.45 244.598 36.2 242.598 35.7C240.631 35.1667 238.814 34.2333 237.148 32.9C233.781 30.2667 232.098 25.2167 232.098 17.75C232.098 14.6167 232.548 11.8833 233.448 9.55C234.381 7.21666 235.664 5.36666 237.298 4C240.498 1.33333 244.648 -1.43051e-06 249.748 -1.43051e-06C252.381 -1.43051e-06 254.664 0.233332 256.598 0.699998C258.564 1.16667 260.414 2.01667 262.148 3.25C265.648 5.78333 267.398 10.6167 267.398 17.75C267.398 24.15 265.814 28.8667 262.648 31.9C259.481 34.9333 255.181 36.45 249.748 36.45ZM248.098 27.9C248.498 28.3667 249.048 28.6 249.748 28.6C250.448 28.6 250.998 28.3667 251.398 27.9C251.798 27.4 252.131 26.3667 252.398 24.8C252.664 23.2 252.798 20.9833 252.798 18.15C252.798 15.3167 252.664 13.1333 252.398 11.6C252.131 10.0667 251.798 9.06666 251.398 8.6C250.998 8.13333 250.448 7.9 249.748 7.9C249.048 7.9 248.498 8.13333 248.098 8.6C247.698 9.06666 247.364 10.0667 247.098 11.6C246.831 13.1333 246.698 15.3167 246.698 18.15C246.698 20.9833 246.831 23.2 247.098 24.8C247.364 26.3667 247.698 27.4 248.098 27.9ZM282.439 33.45C282.372 34.4167 281.855 35.0833 280.889 35.45C279.955 35.8167 278.255 36 275.789 36C273.322 36 271.255 35.7833 269.589 35.35C267.955 34.8833 267.139 34.3 267.139 33.6C267.139 32.8 268.622 27.7 271.589 18.3C274.555 8.86667 276.255 3.43333 276.689 2C276.855 1.56667 278.189 1.21667 280.689 0.949998C283.222 0.649998 285.922 0.499998 288.789 0.499998C291.689 0.499998 293.289 0.999999 293.589 2C299.889 22.9333 303.039 33.5667 303.039 33.9C303.039 34.2333 302.839 34.5667 302.439 34.9C301.505 35.6333 299.655 36 296.889 36C290.989 36 287.972 35.3 287.839 33.9L287.489 30.65H282.689L282.439 33.45ZM286.439 21.15L285.689 12.15H284.589L283.739 21.15H286.439ZM319.553 34.55C319.553 34.9833 318.536 35.3333 316.503 35.6C314.469 35.8667 312.419 36 310.353 36C308.319 36 307.003 35.8833 306.403 35.65C305.836 35.4167 305.553 35.05 305.553 34.55V2.4C305.553 1.53333 306.636 0.916665 308.803 0.549997C311.003 0.183332 313.769 -1.43051e-06 317.103 -1.43051e-06C320.436 -1.43051e-06 322.586 0.016665 323.553 0.0499979C324.553 0.0499979 325.719 0.0999983 327.053 0.199999C328.386 0.299998 329.436 0.466664 330.203 0.699998C331.003 0.933331 331.869 1.23333 332.803 1.6C333.769 1.96666 334.519 2.45 335.053 3.05C335.586 3.61667 336.103 4.3 336.603 5.1C337.503 6.53333 337.953 8.58333 337.953 11.25C337.953 13.8833 337.503 16.1167 336.603 17.95C335.736 19.75 334.569 21.1167 333.103 22.05C336.936 28.0833 338.853 31.9167 338.853 33.55C338.853 35.1833 335.569 36 329.003 36C327.103 36 325.786 35.9167 325.053 35.75C324.319 35.5833 323.853 35.2167 323.653 34.65L320.403 24.35L319.553 24.3V34.55ZM319.553 16.6H320.853C322.786 16.6 323.753 15.1 323.753 12.1C323.753 10.5667 323.486 9.48333 322.953 8.85C322.453 8.21666 321.869 7.9 321.203 7.9H319.553V16.6ZM357.294 36H345.494C343.86 36 342.76 35.8833 342.194 35.65C341.627 35.4167 341.344 35.0333 341.344 34.5V2.95C341.344 2.08333 341.71 1.46667 342.444 1.1C343.177 0.699998 344.444 0.499998 346.244 0.499998H357.494C363.894 0.499998 368.31 1.76667 370.744 4.3C373.177 6.8 374.394 11.3667 374.394 18C374.394 24.6333 373.127 29.3 370.594 32C368.06 34.6667 363.627 36 357.294 36ZM356.894 7.95C356.094 7.95 355.56 8.01666 355.294 8.15V28.35L357.194 28.55C358.194 28.55 358.944 27.75 359.444 26.15C359.977 24.55 360.244 21.7833 360.244 17.85C360.244 13.9167 359.977 11.2833 359.444 9.95C358.91 8.61666 358.06 7.95 356.894 7.95Z" fill="#FACE04"/>
</svg>
