<svg width="424" height="47" viewBox="0 0 424 47" fill="none" xmlns="http://www.w3.org/2000/svg">
<path d="M10.8838 3.2C10.8838 2.43333 11.5171 1.71666 12.7838 1.05C14.0505 0.349998 15.7171 -1.54972e-06 17.7838 -1.54972e-06C19.3838 -1.54972e-06 20.4171 0.333331 20.8838 0.999997C21.2171 1.46666 21.3838 1.9 21.3838 2.3V3.8C25.1505 4.2 27.7671 4.9 29.2338 5.9C29.8338 6.3 30.1338 6.68333 30.1338 7.05C30.1338 8.78333 29.7171 10.65 28.8838 12.65C28.0838 14.65 27.3005 15.65 26.5338 15.65C26.4005 15.65 25.9671 15.5 25.2338 15.2C23.0338 14.2333 21.2005 13.75 19.7338 13.75C18.3005 13.75 17.3171 13.8833 16.7838 14.15C16.2838 14.4167 16.0338 14.8333 16.0338 15.4C16.0338 15.9333 16.4005 16.35 17.1338 16.65C17.8671 16.95 18.7671 17.2167 19.8338 17.45C20.9338 17.65 22.1171 18 23.3838 18.5C24.6838 19 25.8838 19.6 26.9838 20.3C28.0838 21 29.0005 22.05 29.7338 23.45C30.4671 24.8167 30.8338 26.2167 30.8338 27.65C30.8338 29.0833 30.7005 30.2667 30.4338 31.2C30.1671 32.1333 29.7005 33.1 29.0338 34.1C28.4005 35.1 27.4171 36 26.0838 36.8C24.7838 37.5667 23.2171 38.1333 21.3838 38.5V39.3C21.3838 40.0667 20.7505 40.7833 19.4838 41.45C18.2171 42.15 16.5505 42.5 14.4838 42.5C12.8838 42.5 11.8505 42.1667 11.3838 41.5C11.0505 41.0333 10.8838 40.6 10.8838 40.2V38.7C8.71712 38.5 6.83379 38.1833 5.23379 37.75C2.16712 36.9167 0.633789 36.0167 0.633789 35.05C0.633789 33.1833 0.900456 31.25 1.43379 29.25C1.96712 27.2167 2.60046 26.2 3.33379 26.2C3.46712 26.2 4.85046 26.65 7.48379 27.55C10.1171 28.45 12.1005 28.9 13.4338 28.9C14.7671 28.9 15.6338 28.7667 16.0338 28.5C16.4338 28.2 16.6338 27.7833 16.6338 27.25C16.6338 26.7167 16.2671 26.2667 15.5338 25.9C14.8005 25.5 13.8838 25.1833 12.7838 24.95C11.6838 24.7167 10.4838 24.35 9.18379 23.85C7.91712 23.35 6.73379 22.7667 5.63379 22.1C4.53379 21.4333 3.61712 20.45 2.88379 19.15C2.15046 17.85 1.78379 16.3333 1.78379 14.6C1.78379 8.46666 4.81712 4.88333 10.8838 3.85V3.2ZM59.7869 36.9C58.7869 37.6333 57.3869 38.25 55.5869 38.75C53.8202 39.2167 51.5202 39.45 48.6869 39.45C45.8869 39.45 43.2202 39.2167 40.6869 38.75C38.1536 38.2833 36.3369 37.7667 35.2369 37.2C34.1369 36.6333 33.5869 36.0833 33.5869 35.55C33.5869 33.6833 33.8536 31.75 34.3869 29.75C34.9202 27.7167 35.5536 26.7 36.2869 26.7C36.4202 26.7 37.8036 27.15 40.4369 28.05C43.0702 28.95 45.0536 29.4 46.3869 29.4C47.7202 29.4 48.5869 29.2667 48.9869 29C49.3869 28.7 49.5869 28.2833 49.5869 27.75C49.5869 27.2167 49.2202 26.75 48.4869 26.35C47.7536 25.9167 46.8369 25.55 45.7369 25.25C44.6369 24.9167 43.4369 24.45 42.1369 23.85C40.8702 23.25 39.6869 22.5833 38.5869 21.85C37.4869 21.1167 36.5702 20.0833 35.8369 18.75C35.1036 17.3833 34.7369 15.8333 34.7369 14.1C34.7369 6.7 39.1536 3 47.9869 3C51.2869 3 54.1369 3.21667 56.5369 3.65C58.9369 4.05 60.6202 4.51666 61.5869 5.05C62.5869 5.55 63.0869 6.05 63.0869 6.55C63.0869 8.28333 62.6702 10.15 61.8369 12.15C61.0369 14.15 60.2536 15.15 59.4869 15.15C59.3536 15.15 58.9202 15 58.1869 14.7C55.9869 13.7333 54.1536 13.25 52.6869 13.25C51.2536 13.25 50.2702 13.3833 49.7369 13.65C49.2369 13.9167 48.9869 14.3333 48.9869 14.9C48.9869 15.4333 49.3536 15.8833 50.0869 16.25C50.8202 16.5833 51.7202 16.9 52.7869 17.2C53.8869 17.4667 55.0702 17.9 56.3369 18.5C57.6369 19.0667 58.8369 19.75 59.9369 20.55C61.0369 21.3167 61.9536 22.4167 62.6869 23.85C63.4202 25.2833 63.7869 26.95 63.7869 28.85C63.7869 30.85 63.2702 32.6667 62.2369 34.3C61.6036 35.3 60.7869 36.1667 59.7869 36.9ZM99.3518 25.05C99.3518 29.85 97.9684 33.45 95.2018 35.85C92.4684 38.2167 88.4851 39.4 83.2518 39.4C78.0518 39.4 74.0518 38.2167 71.2518 35.85C68.4518 33.45 67.0518 29.85 67.0518 25.05V6.7C67.0518 5.86667 67.9851 5.11667 69.8518 4.45C71.7518 3.78333 73.9518 3.45 76.4518 3.45C78.4518 3.45 79.7518 3.83333 80.3518 4.6C80.7851 5.2 81.0018 5.71667 81.0018 6.15V21.05C81.0018 24.8167 81.1351 27.3167 81.4018 28.55C81.7018 29.75 82.3184 30.35 83.2518 30.35C84.1851 30.35 84.7684 29.7667 85.0018 28.6C85.2684 27.4 85.4018 24.8667 85.4018 21V6.7C85.4018 5.86667 86.3351 5.11667 88.2018 4.45C90.1018 3.78333 92.2851 3.45 94.7518 3.45C96.8518 3.45 98.1851 3.83333 98.7518 4.6C99.1518 5.2 99.3518 5.71667 99.3518 6.15V25.05ZM114.181 39.4C113.048 39.4 111.998 39.2833 111.031 39.05C110.064 38.8167 109.048 38.3333 107.981 37.6C106.948 36.8333 106.064 35.8333 105.331 34.6C103.664 31.8 102.831 27.5833 102.831 21.95C102.831 18.85 103.248 16.1167 104.081 13.75C104.914 11.3833 105.964 9.55 107.231 8.25C108.498 6.91667 110.014 5.83333 111.781 5C113.548 4.16667 115.198 3.63333 116.731 3.4C118.264 3.13333 119.898 3 121.631 3C125.631 3 128.448 3.35 130.081 4.05C131.714 4.71666 132.531 6.01667 132.531 7.95C132.531 9.48333 132.248 11.15 131.681 12.95C131.114 14.7167 130.281 15.6 129.181 15.6C128.914 15.6 127.781 15.35 125.781 14.85C123.781 14.3167 122.281 14.05 121.281 14.05C118.414 14.05 116.981 16.4667 116.981 21.3C116.981 23.7333 117.314 25.55 117.981 26.75C118.648 27.9167 119.481 28.5667 120.481 28.7V24.2C120.481 23.3667 121.331 22.6 123.031 21.9C124.731 21.2 126.364 20.85 127.931 20.85C129.498 20.85 130.631 20.95 131.331 21.15C132.064 21.35 132.564 21.6333 132.831 22C133.298 22.6 133.531 23.1333 133.531 23.6V37.45C133.531 37.8833 132.648 38.2333 130.881 38.5C129.148 38.7667 127.331 38.9 125.431 38.9C123.564 38.9 122.381 38.8167 121.881 38.65C121.381 38.45 121.098 37.9333 121.031 37.1L120.681 34.15H120.281C120.048 35.5833 119.448 36.8167 118.481 37.85C117.548 38.8833 116.114 39.4 114.181 39.4ZM150.822 36.45C150.756 37.4167 150.239 38.0833 149.272 38.45C148.339 38.8167 146.639 39 144.172 39C141.706 39 139.639 38.7833 137.972 38.35C136.339 37.8833 135.522 37.3 135.522 36.6C135.522 35.8 137.006 30.7 139.972 21.3C142.939 11.8667 144.639 6.43333 145.072 5C145.239 4.56667 146.572 4.21667 149.072 3.95C151.606 3.65 154.306 3.5 157.172 3.5C160.072 3.5 161.672 4 161.972 5C168.272 25.9333 171.422 36.5667 171.422 36.9C171.422 37.2333 171.222 37.5667 170.822 37.9C169.889 38.6333 168.039 39 165.272 39C159.372 39 156.356 38.3 156.222 36.9L155.872 33.65H151.072L150.822 36.45ZM154.822 24.15L154.072 15.15H152.972L152.122 24.15H154.822ZM187.937 37.55C187.937 37.9833 186.92 38.3333 184.887 38.6C182.853 38.8667 180.803 39 178.737 39C176.703 39 175.387 38.8833 174.787 38.65C174.22 38.4167 173.937 38.05 173.937 37.55V5.4C173.937 4.53333 175.02 3.91667 177.187 3.55C179.387 3.18333 182.153 3 185.487 3C188.82 3 190.97 3.01667 191.937 3.05C192.937 3.05 194.103 3.1 195.437 3.2C196.77 3.3 197.82 3.46666 198.587 3.7C199.387 3.93333 200.253 4.23333 201.187 4.6C202.153 4.96666 202.903 5.45 203.437 6.05C203.97 6.61667 204.487 7.3 204.987 8.1C205.887 9.53333 206.337 11.5833 206.337 14.25C206.337 16.8833 205.887 19.1167 204.987 20.95C204.12 22.75 202.953 24.1167 201.487 25.05C205.32 31.0833 207.237 34.9167 207.237 36.55C207.237 38.1833 203.953 39 197.387 39C195.487 39 194.17 38.9167 193.437 38.75C192.703 38.5833 192.237 38.2167 192.037 37.65L188.787 27.35L187.937 27.3V37.55ZM187.937 19.6H189.237C191.17 19.6 192.137 18.1 192.137 15.1C192.137 13.5667 191.87 12.4833 191.337 11.85C190.837 11.2167 190.253 10.9 189.587 10.9H187.937V19.6ZM246.408 36.9C245.408 37.6333 244.008 38.25 242.208 38.75C240.441 39.2167 238.141 39.45 235.308 39.45C232.508 39.45 229.841 39.2167 227.308 38.75C224.775 38.2833 222.958 37.7667 221.858 37.2C220.758 36.6333 220.208 36.0833 220.208 35.55C220.208 33.6833 220.475 31.75 221.008 29.75C221.541 27.7167 222.175 26.7 222.908 26.7C223.041 26.7 224.425 27.15 227.058 28.05C229.691 28.95 231.675 29.4 233.008 29.4C234.341 29.4 235.208 29.2667 235.608 29C236.008 28.7 236.208 28.2833 236.208 27.75C236.208 27.2167 235.841 26.75 235.108 26.35C234.375 25.9167 233.458 25.55 232.358 25.25C231.258 24.9167 230.058 24.45 228.758 23.85C227.491 23.25 226.308 22.5833 225.208 21.85C224.108 21.1167 223.191 20.0833 222.458 18.75C221.725 17.3833 221.358 15.8333 221.358 14.1C221.358 6.7 225.775 3 234.608 3C237.908 3 240.758 3.21667 243.158 3.65C245.558 4.05 247.241 4.51666 248.208 5.05C249.208 5.55 249.708 6.05 249.708 6.55C249.708 8.28333 249.291 10.15 248.458 12.15C247.658 14.15 246.875 15.15 246.108 15.15C245.975 15.15 245.541 15 244.808 14.7C242.608 13.7333 240.775 13.25 239.308 13.25C237.875 13.25 236.891 13.3833 236.358 13.65C235.858 13.9167 235.608 14.3333 235.608 14.9C235.608 15.4333 235.975 15.8833 236.708 16.25C237.441 16.5833 238.341 16.9 239.408 17.2C240.508 17.4667 241.691 17.9 242.958 18.5C244.258 19.0667 245.458 19.75 246.558 20.55C247.658 21.3167 248.575 22.4167 249.308 23.85C250.041 25.2833 250.408 26.95 250.408 28.85C250.408 30.85 249.891 32.6667 248.858 34.3C248.225 35.3 247.408 36.1667 246.408 36.9ZM273.073 38.55C272.473 39.1167 271.106 39.4 268.973 39.4C266.84 39.4 265.073 39.2667 263.673 39C262.273 38.7 260.94 38.1333 259.673 37.3C257.24 35.6667 256.023 32.2667 256.023 27.1V19.3H253.523C253.156 19.3 252.84 18.9167 252.573 18.15C252.306 17.3833 252.173 16.3333 252.173 15C252.173 13.6667 252.373 12.5 252.773 11.5C253.206 10.4667 253.756 9.95 254.423 9.95H256.023V3.9C256.023 2.86666 257.023 2.03333 259.023 1.4C261.056 0.766665 263.04 0.449999 264.973 0.449999C268.006 0.449999 269.523 1.2 269.523 2.7V9.95H273.223C274.09 9.95 274.523 11.2 274.523 13.7C274.523 15.3333 274.323 16.6833 273.923 17.75C273.556 18.7833 273.073 19.3 272.473 19.3H269.523V28.45C269.523 29.35 269.906 30 270.673 30.4C271.44 30.7667 272.106 30.95 272.673 30.95C273.273 30.95 273.64 31.2333 273.773 31.8C273.906 32.3667 273.973 33.2167 273.973 34.35C273.973 36.5833 273.673 37.9833 273.073 38.55ZM287.044 39.45C284.011 39.45 281.627 38.7333 279.894 37.3C279.194 36.7 278.577 35.8167 278.044 34.65C277.544 33.4833 277.294 32.1167 277.294 30.55C277.294 28.9833 277.661 27.6167 278.394 26.45C279.161 25.2833 280.077 24.3833 281.144 23.75C282.211 23.1167 283.461 22.6 284.894 22.2C287.061 21.6333 289.444 21.35 292.044 21.35H293.694C293.694 19.9833 293.227 19.0167 292.294 18.45C291.894 18.2167 291.277 18.1 290.444 18.1C289.644 18.1 288.661 18.3167 287.494 18.75C286.361 19.1833 285.411 19.6333 284.644 20.1C283.877 20.5333 283.361 20.75 283.094 20.75C282.494 20.75 281.677 19.9667 280.644 18.4C279.611 16.8 279.094 15.35 279.094 14.05C279.094 13.6167 279.711 13.05 280.944 12.35C282.177 11.65 283.911 11.0167 286.144 10.45C288.411 9.85 290.611 9.55 292.744 9.55C294.877 9.55 296.711 9.73333 298.244 10.1C299.811 10.4333 301.077 10.85 302.044 11.35C303.044 11.85 303.877 12.5167 304.544 13.35C305.244 14.1833 305.761 14.9333 306.094 15.6C306.461 16.2667 306.727 17.1333 306.894 18.2C307.127 19.4333 307.244 20.95 307.244 22.75V37.8C307.244 38.1667 306.344 38.4667 304.544 38.7C302.777 38.9 301.011 39 299.244 39C297.511 39 296.377 38.95 295.844 38.85C295.344 38.75 295.044 38.6333 294.944 38.5C294.844 38.3667 294.761 38.1333 294.694 37.8L294.294 34.95H293.894C293.061 37.95 290.777 39.45 287.044 39.45ZM293.744 31.15V25.3C292.877 25.3 292.177 25.6667 291.644 26.4C291.111 27.1333 290.844 27.9667 290.844 28.9C290.844 31.1 291.344 32.2 292.344 32.2C292.777 32.2 293.111 32.1 293.344 31.9C293.611 31.6667 293.744 31.4167 293.744 31.15ZM324.247 37.8C324.247 38.1667 323.314 38.4667 321.447 38.7C319.58 38.9 317.63 39 315.597 39C313.564 39 312.247 38.9167 311.647 38.75C311.047 38.55 310.747 38.2333 310.747 37.8V3.2C310.747 2.46667 311.68 1.75 313.547 1.05C315.447 0.349998 317.48 -1.54972e-06 319.647 -1.54972e-06C322.714 -1.54972e-06 324.247 0.766665 324.247 2.3V21H324.897C326.497 13.3667 327.68 9.55 328.447 9.55C330.38 9.55 332.714 10 335.447 10.9C338.18 11.8 339.547 12.8 339.547 13.9C339.547 14.7 338.88 16.2333 337.547 18.5C336.214 20.7667 334.83 22.6167 333.397 24.05C338.164 29.75 340.547 33.1333 340.547 34.2C340.547 35.2 339.03 36.4167 335.997 37.85C332.964 39.2833 330.83 40 329.597 40C328.997 40 328.364 39.2833 327.697 37.85C327.03 36.3833 326.314 34.2 325.547 31.3L324.247 32.85V37.8ZM356.284 13.15V37.8C356.284 38.1667 355.318 38.4667 353.384 38.7C351.484 38.9 349.518 39 347.484 39C345.484 39 344.184 38.9167 343.584 38.75C343.018 38.55 342.734 38.2333 342.734 37.8V14.05C342.734 13.3167 343.668 12.6 345.534 11.9C347.434 11.1667 349.501 10.8 351.734 10.8C354.768 10.8 356.284 11.5833 356.284 13.15ZM349.484 -1.54972e-06C351.684 -1.54972e-06 353.401 0.333331 354.634 0.999997C355.901 1.63333 356.534 2.8 356.534 4.5C356.534 7.5 354.201 9 349.534 9C344.868 9 342.534 7.5 342.534 4.5C342.534 1.5 344.851 -1.54972e-06 349.484 -1.54972e-06ZM390.165 22.4V37.8C390.165 38.1667 389.215 38.4667 387.315 38.7C385.415 38.9 383.448 39 381.415 39C379.415 39 378.115 38.9167 377.515 38.75C376.948 38.55 376.665 38.2333 376.665 37.8V21.9C376.665 20.4 376.598 19.4167 376.465 18.95C376.365 18.4833 376.265 18.0667 376.165 17.7C375.931 17.0667 375.515 16.75 374.915 16.75C373.981 16.75 373.515 17.2 373.515 18.1V37.8C373.515 38.1667 372.565 38.4667 370.665 38.7C368.798 38.9 366.848 39 364.815 39C362.815 39 361.515 38.9167 360.915 38.75C360.315 38.55 360.015 38.2333 360.015 37.8V13.15C360.015 12.45 360.965 11.75 362.865 11.05C364.798 10.35 366.831 10 368.965 10C371.098 10 372.298 10.6167 372.565 11.85L373.015 14.05H373.365C374.331 12.1167 375.998 10.7667 378.365 10C379.331 9.7 380.398 9.55 381.565 9.55C384.931 9.55 387.198 10.5667 388.365 12.6C389.565 14.6 390.165 17.8667 390.165 22.4ZM410.357 35.7V32.8H409.957C409.824 32.9667 409.591 33.1833 409.257 33.45C408.924 33.6833 408.091 34.0167 406.757 34.45C405.457 34.8833 403.974 35.1 402.307 35.1C400.674 35.1 399.291 34.85 398.157 34.35C397.024 33.85 396.141 33.2333 395.507 32.5C394.874 31.7333 394.374 30.7167 394.007 29.45C393.441 27.4833 393.157 24.8167 393.157 21.45C393.157 17.5833 393.974 14.6167 395.607 12.55C396.241 11.7167 397.174 11.0167 398.407 10.45C399.674 9.85 401.024 9.55 402.457 9.55C403.891 9.55 405.074 9.71666 406.007 10.05C406.941 10.35 407.641 10.7167 408.107 11.15C409.041 12.0833 409.574 12.9 409.707 13.6L409.757 14.05H410.157L410.607 12.1C410.941 10.7 413.574 10 418.507 10C420.707 10 422.041 10.3333 422.507 11C422.774 11.4 422.941 11.7833 423.007 12.15C423.074 12.4833 423.107 13 423.107 13.7V34.65C423.107 38.5833 421.824 41.5833 419.257 43.65C416.691 45.7167 412.924 46.75 407.957 46.75C402.691 46.75 399.107 46.2333 397.207 45.2C396.374 44.7333 395.957 44.25 395.957 43.75C395.957 42.95 396.274 41.6 396.907 39.7C397.574 37.8 398.191 36.85 398.757 36.85C398.891 36.85 399.357 36.9667 400.157 37.2C402.691 37.8667 404.741 38.2 406.307 38.2C407.907 38.2 408.974 38 409.507 37.6C410.074 37.2 410.357 36.5667 410.357 35.7ZM408.357 29.4C408.724 29.4 409.024 29.2667 409.257 29C409.491 28.7333 409.607 28.4333 409.607 28.1V17.8C409.474 17.1 409.107 16.75 408.507 16.75C407.241 16.75 406.607 18.8333 406.607 23C406.607 24.9333 406.757 26.4833 407.057 27.65C407.391 28.8167 407.824 29.4 408.357 29.4Z" fill="#F2AB02"/>
</svg>
