<svg width="391" height="37" viewBox="0 0 391 37" fill="none" xmlns="http://www.w3.org/2000/svg">
<path d="M22.4609 34.8C22.4609 35.1667 21.4276 35.4667 19.3609 35.7C17.3276 35.9 15.2776 36 13.2109 36C11.1776 36 9.8776 35.9167 9.31094 35.75C8.7776 35.55 8.51094 35.2333 8.51094 34.8V13.3H1.56094C1.19427 13.3 0.877604 12.8333 0.610938 11.9C0.344271 10.9667 0.210938 9.58333 0.210938 7.75C0.210938 5.88333 0.410938 4.21666 0.810938 2.75C1.21094 1.25 1.74427 0.499998 2.41094 0.499998H29.4609C29.9609 0.499998 30.2943 0.966665 30.4609 1.9C30.6609 2.83333 30.7609 4.18333 30.7609 5.95C30.7609 7.71667 30.5776 9.38333 30.2109 10.95C29.8443 12.5167 29.3443 13.3 28.7109 13.3H22.4609V34.8ZM50.6793 36.45C47.9126 36.45 45.5293 36.2 43.5293 35.7C41.5626 35.1667 39.746 34.2333 38.0793 32.9C34.7126 30.2667 33.0293 25.2167 33.0293 17.75C33.0293 14.6167 33.4793 11.8833 34.3793 9.55C35.3126 7.21666 36.596 5.36666 38.2293 4C41.4293 1.33333 45.5793 -1.43051e-06 50.6793 -1.43051e-06C53.3126 -1.43051e-06 55.596 0.233332 57.5293 0.699998C59.496 1.16667 61.346 2.01667 63.0793 3.25C66.5793 5.78333 68.3293 10.6167 68.3293 17.75C68.3293 24.15 66.746 28.8667 63.5793 31.9C60.4126 34.9333 56.1126 36.45 50.6793 36.45ZM49.0293 27.9C49.4293 28.3667 49.9793 28.6 50.6793 28.6C51.3793 28.6 51.9293 28.3667 52.3293 27.9C52.7293 27.4 53.0626 26.3667 53.3293 24.8C53.596 23.2 53.7293 20.9833 53.7293 18.15C53.7293 15.3167 53.596 13.1333 53.3293 11.6C53.0626 10.0667 52.7293 9.06666 52.3293 8.6C51.9293 8.13333 51.3793 7.9 50.6793 7.9C49.9793 7.9 49.4293 8.13333 49.0293 8.6C48.6293 9.06666 48.296 10.0667 48.0293 11.6C47.7626 13.1333 47.6293 15.3167 47.6293 18.15C47.6293 20.9833 47.7626 23.2 48.0293 24.8C48.296 26.3667 48.6293 27.4 49.0293 27.9ZM103.872 22.05C103.872 26.85 102.489 30.45 99.7223 32.85C96.9889 35.2167 93.0056 36.4 87.7723 36.4C82.5723 36.4 78.5723 35.2167 75.7723 32.85C72.9723 30.45 71.5723 26.85 71.5723 22.05V3.7C71.5723 2.86667 72.5056 2.11667 74.3723 1.45C76.2723 0.783332 78.4723 0.449999 80.9723 0.449999C82.9723 0.449999 84.2723 0.833332 84.8723 1.6C85.3056 2.2 85.5223 2.71667 85.5223 3.15V18.05C85.5223 21.8167 85.6556 24.3167 85.9223 25.55C86.2223 26.75 86.8389 27.35 87.7723 27.35C88.7056 27.35 89.2889 26.7667 89.5223 25.6C89.7889 24.4 89.9223 21.8667 89.9223 18V3.7C89.9223 2.86667 90.8556 2.11667 92.7223 1.45C94.6223 0.783332 96.8056 0.449999 99.2723 0.449999C101.372 0.449999 102.706 0.833332 103.272 1.6C103.672 2.2 103.872 2.71667 103.872 3.15V22.05ZM121.852 34.55C121.852 34.9833 120.835 35.3333 118.802 35.6C116.768 35.8667 114.718 36 112.652 36C110.618 36 109.302 35.8833 108.702 35.65C108.135 35.4167 107.852 35.05 107.852 34.55V2.4C107.852 1.53333 108.935 0.916665 111.102 0.549997C113.302 0.183332 116.068 -1.43051e-06 119.402 -1.43051e-06C122.735 -1.43051e-06 124.885 0.016665 125.852 0.0499979C126.852 0.0499979 128.018 0.0999983 129.352 0.199999C130.685 0.299998 131.735 0.466664 132.502 0.699998C133.302 0.933331 134.168 1.23333 135.102 1.6C136.068 1.96666 136.818 2.45 137.352 3.05C137.885 3.61667 138.402 4.3 138.902 5.1C139.802 6.53333 140.252 8.58333 140.252 11.25C140.252 13.8833 139.802 16.1167 138.902 17.95C138.035 19.75 136.868 21.1167 135.402 22.05C139.235 28.0833 141.152 31.9167 141.152 33.55C141.152 35.1833 137.868 36 131.302 36C129.402 36 128.085 35.9167 127.352 35.75C126.618 35.5833 126.152 35.2167 125.952 34.65L122.702 24.35L121.852 24.3V34.55ZM121.852 16.6H123.152C125.085 16.6 126.052 15.1 126.052 12.1C126.052 10.5667 125.785 9.48333 125.252 8.85C124.752 8.21666 124.168 7.9 123.502 7.9H121.852V16.6ZM157.593 34.55C157.593 34.9833 156.559 35.3333 154.493 35.6C152.459 35.8667 150.426 36 148.393 36C146.359 36 145.059 35.8833 144.493 35.65C143.926 35.4167 143.643 35.05 143.643 34.55V3.85C143.643 3.01667 144.593 2.25 146.493 1.55C148.426 0.849999 150.609 0.499998 153.043 0.499998C153.909 0.499998 154.559 0.533332 154.993 0.6C156.126 0.766666 156.926 1.48333 157.393 2.75L162.193 15.65H162.393V3.85C162.393 3.01667 163.343 2.25 165.243 1.55C167.143 0.849999 169.309 0.499998 171.743 0.499998C173.843 0.499998 175.176 0.899998 175.743 1.7C176.143 2.26666 176.343 2.78333 176.343 3.25V34.55C176.343 34.9833 175.309 35.3333 173.243 35.6C171.209 35.8667 168.959 36 166.493 36C164.059 36 162.726 35.6833 162.493 35.05L157.843 22.75H157.593V34.55ZM194.161 33.45C194.095 34.4167 193.578 35.0833 192.611 35.45C191.678 35.8167 189.978 36 187.511 36C185.045 36 182.978 35.7833 181.311 35.35C179.678 34.8833 178.861 34.3 178.861 33.6C178.861 32.8 180.345 27.7 183.311 18.3C186.278 8.86667 187.978 3.43333 188.411 2C188.578 1.56667 189.911 1.21667 192.411 0.949998C194.945 0.649998 197.645 0.499998 200.511 0.499998C203.411 0.499998 205.011 0.999999 205.311 2C211.611 22.9333 214.761 33.5667 214.761 33.9C214.761 34.2333 214.561 34.5667 214.161 34.9C213.228 35.6333 211.378 36 208.611 36C202.711 36 199.695 35.3 199.561 33.9L199.211 30.65H194.411L194.161 33.45ZM198.161 21.15L197.411 12.15H196.311L195.461 21.15H198.161ZM224.975 36C224.142 36 222.925 36 221.325 36C219.759 36 218.692 35.8833 218.125 35.65C217.559 35.4167 217.275 35.05 217.275 34.55V3C217.275 2.23333 218.292 1.63333 220.325 1.2C222.392 0.733331 224.592 0.499998 226.925 0.499998C229.259 0.499998 230.925 0.799998 231.925 1.4C232.925 2 233.509 2.63333 233.675 3.3L237.075 16.5H237.525L240.725 3.9C240.959 3 242.042 2.21667 243.975 1.55C245.942 0.849999 248.092 0.499998 250.425 0.499998C252.759 0.499998 254.475 0.683331 255.575 1.05C256.709 1.41666 257.275 1.88333 257.275 2.45V34.55C257.275 34.9833 256.325 35.3333 254.425 35.6C252.525 35.8667 250.209 36 247.475 36C244.742 36 243.375 35.5167 243.375 34.55C243.375 31.9167 243.659 27.2333 244.225 20.5H243.775L241.175 33.55C241.075 34.05 240.659 34.4167 239.925 34.65C239.225 34.8833 238.159 35 236.725 35C235.292 35 234.409 34.9 234.075 34.7C233.775 34.5 233.575 34.1167 233.475 33.55L230.775 20.5H230.325C230.925 27.3667 231.225 32.05 231.225 34.55C231.225 35.4167 229.142 35.9 224.975 36ZM286.62 36H265.42C263.786 36 262.686 35.8833 262.12 35.65C261.553 35.4167 261.27 35.05 261.27 34.55V2.9C261.27 2.03333 261.653 1.41666 262.42 1.05C263.22 0.683331 264.636 0.499998 266.67 0.499998H286.77C287.47 0.499998 287.82 1.66666 287.82 4C287.82 6.3 287.67 8.06666 287.37 9.3C287.07 10.5 286.67 11.1 286.17 11.1C284.003 11.1 280.353 10.8833 275.22 10.45V13.8C280.153 13.6 283.37 13.5 284.87 13.5C285.77 13.5 286.22 14.55 286.22 16.65C286.22 18.75 286.036 20.35 285.67 21.45C285.336 22.5167 284.87 23.05 284.27 23.05L275.22 22.85V26.05C281.02 25.6167 285.02 25.4 287.22 25.4C287.92 25.4 288.27 26.5667 288.27 28.9C288.27 31.2333 288.12 33 287.82 34.2C287.52 35.4 287.12 36 286.62 36ZM305.737 34.55C305.737 34.9833 304.704 35.3333 302.637 35.6C300.604 35.8667 298.57 36 296.537 36C294.504 36 293.204 35.8833 292.637 35.65C292.07 35.4167 291.787 35.05 291.787 34.55V3.85C291.787 3.01667 292.737 2.25 294.637 1.55C296.57 0.849999 298.754 0.499998 301.187 0.499998C302.054 0.499998 302.704 0.533332 303.137 0.6C304.27 0.766666 305.07 1.48333 305.537 2.75L310.337 15.65H310.537V3.85C310.537 3.01667 311.487 2.25 313.387 1.55C315.287 0.849999 317.454 0.499998 319.887 0.499998C321.987 0.499998 323.32 0.899998 323.887 1.7C324.287 2.26666 324.487 2.78333 324.487 3.25V34.55C324.487 34.9833 323.454 35.3333 321.387 35.6C319.354 35.8667 317.104 36 314.637 36C312.204 36 310.87 35.6833 310.637 35.05L305.987 22.75H305.737V34.55ZM349.756 34.8C349.756 35.1667 348.723 35.4667 346.656 35.7C344.623 35.9 342.573 36 340.506 36C338.473 36 337.173 35.9167 336.606 35.75C336.073 35.55 335.806 35.2333 335.806 34.8V13.3H328.856C328.489 13.3 328.173 12.8333 327.906 11.9C327.639 10.9667 327.506 9.58333 327.506 7.75C327.506 5.88333 327.706 4.21666 328.106 2.75C328.506 1.25 329.039 0.499998 329.706 0.499998H356.756C357.256 0.499998 357.589 0.966665 357.756 1.9C357.956 2.83333 358.056 4.18333 358.056 5.95C358.056 7.71667 357.873 9.38333 357.506 10.95C357.139 12.5167 356.639 13.3 356.006 13.3H349.756V34.8ZM386.524 33.9C385.524 34.6333 384.124 35.25 382.324 35.75C380.558 36.2167 378.258 36.45 375.424 36.45C372.624 36.45 369.958 36.2167 367.424 35.75C364.891 35.2833 363.074 34.7667 361.974 34.2C360.874 33.6333 360.324 33.0833 360.324 32.55C360.324 30.6833 360.591 28.75 361.124 26.75C361.658 24.7167 362.291 23.7 363.024 23.7C363.158 23.7 364.541 24.15 367.174 25.05C369.808 25.95 371.791 26.4 373.124 26.4C374.458 26.4 375.324 26.2667 375.724 26C376.124 25.7 376.324 25.2833 376.324 24.75C376.324 24.2167 375.958 23.75 375.224 23.35C374.491 22.9167 373.574 22.55 372.474 22.25C371.374 21.9167 370.174 21.45 368.874 20.85C367.608 20.25 366.424 19.5833 365.324 18.85C364.224 18.1167 363.308 17.0833 362.574 15.75C361.841 14.3833 361.474 12.8333 361.474 11.1C361.474 3.7 365.891 -1.43051e-06 374.724 -1.43051e-06C378.024 -1.43051e-06 380.874 0.216665 383.274 0.649999C385.674 1.05 387.358 1.51666 388.324 2.05C389.324 2.55 389.824 3.05 389.824 3.55C389.824 5.28333 389.408 7.15 388.574 9.15C387.774 11.15 386.991 12.15 386.224 12.15C386.091 12.15 385.658 12 384.924 11.7C382.724 10.7333 380.891 10.25 379.424 10.25C377.991 10.25 377.008 10.3833 376.474 10.65C375.974 10.9167 375.724 11.3333 375.724 11.9C375.724 12.4333 376.091 12.8833 376.824 13.25C377.558 13.5833 378.458 13.9 379.524 14.2C380.624 14.4667 381.808 14.9 383.074 15.5C384.374 16.0667 385.574 16.75 386.674 17.55C387.774 18.3167 388.691 19.4167 389.424 20.85C390.158 22.2833 390.524 23.95 390.524 25.85C390.524 27.85 390.008 29.6667 388.974 31.3C388.341 32.3 387.524 33.1667 386.524 33.9Z" fill="#F0A602"/>
</svg>
