<svg width="155" height="87" viewBox="0 0 155 87" fill="none" xmlns="http://www.w3.org/2000/svg">
<path d="M149.995 47.1457C149.99 48.6361 149.963 50.1366 149.919 51.6271C149.838 54.578 149.691 57.5189 149.474 60.4598C149.355 62.1103 149.219 63.7709 149.056 65.4214C148.774 68.3223 147.09 70.8931 144.548 72.7437C142.181 74.7343 138.901 76.0447 135.197 76.2648C118.753 77.2451 36.2507 77.2451 19.8012 76.2648C16.0975 76.0447 12.8174 74.7243 10.4497 72.7437C7.91356 70.8931 6.23006 68.3223 5.94767 65.4214C5.84449 64.331 5.74673 63.2307 5.65441 62.1404C5.39374 58.9193 5.2091 55.6883 5.10592 52.4673C5.04618 50.6368 5.0136 48.8062 5.00817 46.9756C4.99731 45.6752 5.00817 44.3648 5.02989 43.0644V43.0144C5.06247 41.1338 5.11678 39.2532 5.19824 37.3726C5.26341 35.8721 5.34487 34.3717 5.44805 32.8712C5.58381 30.8406 5.75216 28.8099 5.94767 26.7893C6.0943 25.2588 6.63193 23.8284 7.47911 22.538C8.23397 21.3776 9.2495 20.3373 10.4497 19.467C12.8174 17.4764 16.0975 16.166 19.8012 15.9359C36.2507 14.9556 118.753 14.9556 135.197 15.9359C138.901 16.156 142.181 17.4764 144.548 19.467C146.08 20.5874 147.296 21.9578 148.084 23.5183C148.605 24.5386 148.942 25.6489 149.056 26.7993C149.262 28.93 149.442 31.0706 149.577 33.2013C149.68 34.8018 149.773 36.4123 149.833 38.0128C149.898 39.6333 149.947 41.2638 149.974 42.8843C149.995 44.3148 150.006 45.7352 149.995 47.1557V47.1457Z" fill="url(#paint0_radial_234_1069)"/>
<path d="M149.919 48.8762C149.876 50.4367 149.816 51.9972 149.735 53.5577C149.599 56.2185 149.414 58.8794 149.17 61.5402C149.132 61.9603 149.094 62.3805 149.05 62.8006C148.768 65.7015 147.085 68.2723 144.543 70.1229C142.175 72.1135 138.895 73.4239 135.191 73.654C118.747 74.6343 36.2451 74.6343 19.7957 73.654C16.092 73.4339 12.8119 72.1135 10.4441 70.1229C8.03293 68.3623 6.39831 65.9616 5.99644 63.2407C5.97472 63.1007 5.95843 62.9506 5.94213 62.8006C5.6706 60.0297 5.45881 57.2589 5.30675 54.488C5.20357 52.6574 5.12754 50.8168 5.07866 48.9863C5.00806 46.5955 4.98634 44.2048 5.00806 41.814V41.784C5.01349 41.1938 5.02436 40.6037 5.02979 40.0135C5.05694 38.3529 5.10581 36.6924 5.17641 35.0319C5.30675 31.981 5.50768 28.93 5.77921 25.8791C5.82809 25.3089 5.8824 24.7287 5.9367 24.1585C6.2191 21.2576 7.90259 18.6868 10.4387 16.8362C12.8065 14.8556 16.0866 13.5352 19.7903 13.3151C36.2397 12.3348 118.742 12.3348 135.186 13.3151C138.89 13.5352 142.17 14.8556 144.538 16.8362C147.074 18.6868 148.757 21.2576 149.045 24.1585C149.121 24.9188 149.186 25.679 149.251 26.4292C149.501 29.3101 149.686 32.191 149.811 35.0819C149.887 36.8725 149.936 38.663 149.963 40.4536C149.963 40.7437 149.974 41.0338 149.979 41.3239V41.4239C150.001 43.9047 149.979 46.3955 149.914 48.8762H149.919Z" fill="url(#paint1_radial_234_1069)"/>
<g style="mix-blend-mode:hard-light" opacity="0.2">
<path d="M149.051 21.5477C148.768 18.6468 147.085 16.076 144.549 14.2254C142.181 12.2348 138.901 10.9243 135.197 10.6943C118.753 9.71397 36.2453 9.71397 19.8013 10.6943C16.0976 10.9143 12.8175 12.2348 10.4497 14.2254C7.91359 16.076 6.23009 18.6468 5.94769 21.5477C4.69322 34.4317 4.69322 47.3057 5.94769 60.1897C6.23009 63.0906 7.91359 65.6614 10.4497 67.512C12.8175 69.5027 16.0976 70.8131 19.8013 71.0431C36.2453 72.0234 118.753 72.0234 135.197 71.0431C138.901 70.8231 142.181 69.5027 144.549 67.512C147.085 65.6614 148.768 63.0906 149.051 60.1897C150.305 47.3057 150.305 34.4317 149.051 21.5477Z" fill="white"/>
</g>
<path d="M149.637 51.7871C149.491 54.2679 149.295 56.7487 149.051 59.2294C148.768 62.1304 147.085 64.7012 144.549 66.5517C142.181 68.5424 138.901 69.8528 135.192 70.0828C118.748 71.0732 36.2401 71.0732 19.7961 70.0828C16.0924 69.8628 12.8123 68.5424 10.4445 66.5517C7.90842 64.7012 6.22492 62.1304 5.94253 59.2294C5.71987 56.9287 5.53523 54.638 5.3886 52.3373C4.72607 41.754 4.91071 31.1707 5.94253 20.5874C6.22492 17.6865 7.90842 15.1157 10.4445 13.2651C12.8123 11.2845 16.0924 9.96406 19.7961 9.73398C36.2455 8.75368 118.748 8.75368 135.197 9.74399C138.901 9.96406 142.181 11.2845 144.554 13.2751C147.09 15.1357 148.774 17.6965 149.056 20.5974C150.066 31.0006 150.267 41.3939 149.643 51.7971L149.637 51.7871Z" fill="url(#paint2_radial_234_1069)"/>
<g style="mix-blend-mode:overlay" opacity="0.8" filter="url(#filter0_f_234_1069)">
<path d="M12.2964 20.0772C14.5338 18.2466 17.6401 17.0263 21.1429 16.8162C36.6962 15.9059 118.302 15.9059 133.856 16.8162C137.359 17.0263 140.46 18.2366 142.702 20.0772C144.332 21.2476 145.591 22.718 146.314 24.3785C146.254 23.6983 146.2 23.0181 146.135 22.3279C145.874 19.6471 144.321 17.2763 141.975 15.5558C139.786 13.7252 136.756 12.5048 133.329 12.2948C118.129 11.3845 36.8755 11.3845 21.6751 12.2948C18.2484 12.5048 15.2181 13.7152 13.0295 15.5558C10.6835 17.2763 9.13031 19.6471 8.86964 22.3279C8.80447 23.0081 8.75017 23.6883 8.69043 24.3785C9.41271 22.718 10.6672 21.2476 12.3018 20.0772H12.2964Z" fill="url(#paint3_linear_234_1069)"/>
</g>
<g style="mix-blend-mode:soft-light" opacity="0.75" filter="url(#filter1_f_234_1069)">
<path d="M143.984 51.6271C141.654 53.5777 138.428 54.8781 134.784 55.0982C118.612 56.0685 36.3808 56.0685 20.2084 55.0982C16.5644 54.8781 13.3386 53.5877 11.0089 51.6271C10.6287 51.347 10.2703 51.0569 9.93359 50.7468C10.0639 52.8275 10.2268 54.9081 10.4278 56.9788C10.6776 59.5396 12.1656 61.8103 14.4084 63.4508C16.4992 65.2013 19.3992 66.3717 22.6739 66.5618C37.2063 67.432 117.792 67.432 132.324 66.5618C135.599 66.3617 138.493 65.2013 140.589 63.4508C142.832 61.8103 144.32 59.5396 144.57 56.9788C144.771 54.8981 144.939 52.8175 145.064 50.7468C144.728 51.0569 144.369 51.347 143.989 51.6271H143.984Z" fill="url(#paint4_linear_234_1069)"/>
</g>
<path style="mix-blend-mode:overlay" opacity="0.6" d="M149.99 40.4636C149.99 40.7437 149.99 41.0338 149.99 41.3139V41.4139C149.99 41.9041 149.979 42.3842 149.974 42.8744C149.952 44.2648 149.92 45.6552 149.871 47.0357C149.849 47.6058 149.827 48.176 149.806 48.7462C149.768 49.6365 149.719 50.5268 149.664 51.417C149.659 51.5371 149.654 51.6671 149.643 51.7872C149.089 51.9372 148.54 52.0972 147.986 52.2373C145.081 53.0175 142.17 53.7078 139.265 54.3079C138.238 54.518 137.212 54.7181 136.186 54.9181C118.731 58.1791 35.1973 58.2992 17.6998 55.1182C16.7711 54.9481 15.8425 54.7681 14.9084 54.588C12.2909 54.0579 9.66785 53.4577 7.04485 52.7775C6.49093 52.6374 5.94243 52.4874 5.38851 52.3373C5.38851 52.2873 5.38307 52.2273 5.37764 52.1773C5.31248 51.0669 5.24731 49.9466 5.20386 48.8362C5.17128 48.176 5.14956 47.5258 5.12784 46.8656C5.08439 45.6052 5.05181 44.3348 5.03008 43.0744V43.0244C5.02465 42.6243 5.01922 42.2242 5.01379 41.814V41.784C5.00836 41.2038 5.00293 40.6237 5.00293 40.0435C5.00293 39.2032 5.00836 38.353 5.01922 37.5127C5.03008 36.7324 5.04094 35.9422 5.06267 35.162C5.07353 34.4917 5.09525 33.8315 5.1224 33.1613C5.20386 30.8006 5.32334 28.4399 5.49169 26.0791C5.55142 25.2389 5.61116 24.3986 5.68176 23.5583C5.75779 22.568 5.85011 21.5777 5.94786 20.5874C6.23025 17.6865 7.91375 15.1157 10.4499 13.2651C12.8176 11.2845 16.0977 9.96408 19.8014 9.74401C36.2454 8.7537 118.748 8.7537 135.192 9.74401C138.901 9.96408 142.181 11.2845 144.549 13.2651C147.085 15.1257 148.768 17.6965 149.051 20.5874C149.17 21.8078 149.279 23.0182 149.371 24.2385C149.431 25.0288 149.491 25.819 149.539 26.6093C149.697 28.89 149.806 31.1607 149.882 33.4314C149.903 34.0116 149.914 34.5918 149.93 35.172C149.952 36.1523 149.968 37.1226 149.979 38.1129C149.985 38.8931 149.985 39.6734 149.979 40.4636H149.99Z" fill="url(#paint5_radial_234_1069)"/>
<g style="mix-blend-mode:soft-light" opacity="0.6">
<path d="M126.644 18.9669C126.666 22.7581 115.223 20.3574 74.2384 20.3574C40.6227 20.3574 27.8987 22.8681 27.877 19.077C27.8553 15.2858 40.1339 12.1648 74.8846 12.1648C114.735 12.1648 126.622 15.1757 126.644 18.9669Z" fill="white"/>
</g>
<path d="M132.394 14.9507C132.41 14.2883 131.387 13.6708 130.111 13.5714C128.834 13.472 127.787 13.9284 127.772 14.5908C127.756 15.2532 128.779 15.8707 130.056 15.97C131.332 16.0694 132.379 15.613 132.394 14.9507Z" fill="url(#paint6_radial_234_1069)"/>
<path d="M135.679 15.5122C135.687 15.159 135.138 14.8293 134.452 14.7759C133.765 14.7225 133.202 14.9655 133.194 15.3188C133.186 15.672 133.736 16.0017 134.422 16.0552C135.108 16.1086 135.671 15.8655 135.679 15.5122Z" fill="url(#paint7_radial_234_1069)"/>
<path d="M145.156 54.7181C145.156 56.6487 144.027 58.2092 143.37 58.2092C142.713 58.2092 143.571 57.0688 143.571 55.1382C143.571 53.2076 142.713 51.227 143.37 51.227C144.027 51.227 145.156 52.7875 145.156 54.7181Z" fill="url(#paint8_radial_234_1069)"/>
<path d="M144.34 23.662C144.433 22.5816 143.737 21.4811 142.786 21.204C141.835 20.9269 140.989 21.5781 140.897 22.6585C140.804 23.7389 141.499 24.8395 142.45 25.1166C143.401 25.3937 144.247 24.7425 144.34 23.662Z" fill="url(#paint9_radial_234_1069)"/>
<path d="M144.308 27.2461C144.358 26.6677 143.983 26.0777 143.47 25.9284C142.958 25.779 142.502 26.1268 142.452 26.7053C142.403 27.2837 142.778 27.8736 143.29 28.023C143.803 28.1723 144.259 27.8245 144.308 27.2461Z" fill="url(#paint10_radial_234_1069)"/>
<path d="M125.677 13.7853C125.704 14.2755 29.5818 14.6156 25.3839 15.1357C16.8632 16.1861 18.7531 20.2273 17.5366 20.1673C16.3201 20.1073 15.3969 14.8156 25.2427 14.0554C33.9643 13.3852 125.65 13.2951 125.677 13.7853Z" fill="url(#paint11_radial_234_1069)"/>
<path d="M17.3332 25.3609C17.7012 24.3788 17.6093 23.0866 17.1279 22.4747C16.6466 21.8628 15.9581 22.1629 15.5901 23.1451C15.2221 24.1272 15.314 25.4194 15.7954 26.0313C16.2768 26.6432 16.9653 26.3431 17.3332 25.3609Z" fill="url(#paint12_radial_234_1069)"/>
<path d="M33.5861 47.5576H29.6441C29.0441 47.5576 28.6421 47.5156 28.4381 47.4316C28.2341 47.3476 28.1321 47.2156 28.1321 47.0356V35.4616C28.1321 34.8856 29.8661 34.5976 33.3341 34.5976C35.3261 34.5976 36.7001 34.7896 37.4561 35.1736C38.2241 35.5696 38.7161 36.0736 38.9321 36.6856C39.0521 37.0456 39.1121 37.4656 39.1121 37.9456C39.1121 38.8816 38.9501 39.5836 38.6261 40.0516C38.3141 40.5196 37.9721 40.7836 37.6001 40.8436C38.1641 40.9636 38.6321 41.2396 39.0041 41.6716C39.3761 42.1036 39.5621 42.8356 39.5621 43.8676C39.5621 45.0676 39.1961 45.9556 38.4641 46.5316C37.8281 47.0356 36.8561 47.3536 35.5481 47.4856C34.9961 47.5336 34.3421 47.5576 33.5861 47.5576ZM33.6041 39.7096C34.2161 39.7096 34.5221 39.3016 34.5221 38.4856C34.5221 38.0776 34.4381 37.7776 34.2701 37.5856C34.1141 37.3816 33.9341 37.2796 33.7301 37.2796H33.1541V39.7096H33.6041ZM33.1541 44.8756H33.6041C34.2161 44.8756 34.5221 44.4676 34.5221 43.6516C34.5221 43.2436 34.4381 42.9436 34.2701 42.7516C34.1141 42.5476 33.9341 42.4456 33.7301 42.4456H33.1541V44.8756ZM44.3515 47.7196C43.0075 47.7196 42.0655 47.3716 41.5255 46.6756C40.9975 45.9796 40.7335 44.7676 40.7335 43.0396V38.1436C40.7335 37.9036 41.0875 37.6756 41.7955 37.4596C42.5035 37.2316 43.2475 37.1176 44.0275 37.1176C45.0715 37.1176 45.5935 37.3876 45.5935 37.9276V42.4996C45.5935 43.4116 45.6295 44.0776 45.7015 44.4976C45.7735 44.9056 45.9535 45.1096 46.2415 45.1096C46.6255 45.1096 46.8175 44.9476 46.8175 44.6236V38.1436C46.8175 37.8916 47.1895 37.6576 47.9335 37.4416C48.6775 37.2256 49.4875 37.1176 50.3635 37.1176C51.2395 37.1176 51.6775 37.3516 51.6775 37.8196V47.0896C51.6775 47.2576 51.2995 47.3776 50.5435 47.4496C49.7875 47.5216 49.0435 47.5576 48.3115 47.5576C47.5795 47.5576 47.2075 47.4616 47.1955 47.2696L47.0155 46.0996H46.8715C46.7635 46.5316 46.5475 46.8856 46.2235 47.1616C46.0555 47.3056 45.8035 47.4376 45.4675 47.5576C45.1435 47.6656 44.7715 47.7196 44.3515 47.7196ZM58.9987 46.3876V45.3256H58.8547C58.7947 45.3856 58.7047 45.4636 58.5847 45.5596C58.4647 45.6556 58.1827 45.7816 57.7387 45.9376C57.2947 46.0936 56.7967 46.1716 56.2447 46.1716C55.7047 46.1716 55.2247 46.0876 54.8047 45.9196C54.3967 45.7396 54.0727 45.5056 53.8327 45.2176C53.5927 44.9176 53.4067 44.5216 53.2747 44.0296C53.0467 43.2496 52.9327 42.1456 52.9327 40.7176V38.2336C52.9327 37.9816 53.2867 37.7356 53.9947 37.4956C54.7027 37.2436 55.4467 37.1176 56.2267 37.1176C57.2707 37.1176 57.7927 37.3876 57.7927 37.9276V40.1956C57.7927 42.5956 57.9847 43.7956 58.3687 43.7956C58.5967 43.7956 58.7107 43.6336 58.7107 43.3096V38.2336C58.7107 37.9816 59.0887 37.7356 59.8447 37.4956C60.6007 37.2436 61.4107 37.1176 62.2747 37.1176C63.1387 37.1176 63.5707 37.3516 63.5707 37.8196V46.3336C63.5707 49.0096 61.7587 50.3476 58.1347 50.3476C56.2267 50.3476 54.9307 50.1616 54.2467 49.7896C53.9467 49.6216 53.7967 49.4476 53.7967 49.2676C53.7967 48.9796 53.9167 48.4936 54.1567 47.8096C54.3967 47.1376 54.6187 46.8016 54.8227 46.8016C54.8707 46.8016 55.0387 46.8376 55.3267 46.9096C56.2147 47.1496 56.9527 47.2696 57.5407 47.2696C58.1407 47.2696 58.5307 47.2036 58.7107 47.0716C58.9027 46.9396 58.9987 46.7116 58.9987 46.3876ZM78.1281 46.8016C77.7681 47.0656 77.2641 47.2876 76.6161 47.4676C75.9801 47.6356 75.1521 47.7196 74.1321 47.7196C73.1241 47.7196 72.1641 47.6356 71.2521 47.4676C70.3401 47.2996 69.6861 47.1136 69.2901 46.9096C68.8941 46.7056 68.6961 46.5076 68.6961 46.3156C68.6961 45.6436 68.7921 44.9476 68.9841 44.2276C69.1761 43.4956 69.4041 43.1296 69.6681 43.1296C69.7161 43.1296 70.2141 43.2916 71.1621 43.6156C72.1101 43.9396 72.8241 44.1016 73.3041 44.1016C73.7841 44.1016 74.0961 44.0536 74.2401 43.9576C74.3841 43.8496 74.4561 43.6996 74.4561 43.5076C74.4561 43.3156 74.3241 43.1476 74.0601 43.0036C73.7961 42.8476 73.4661 42.7156 73.0701 42.6076C72.6741 42.4876 72.2421 42.3196 71.7741 42.1036C71.3181 41.8876 70.8921 41.6476 70.4961 41.3836C70.1001 41.1196 69.7701 40.7476 69.5061 40.2676C69.2421 39.7756 69.1101 39.2176 69.1101 38.5936C69.1101 35.9296 70.7001 34.5976 73.8801 34.5976C75.0681 34.5976 76.0941 34.6756 76.9581 34.8316C77.8221 34.9756 78.4281 35.1436 78.7761 35.3356C79.1361 35.5156 79.3161 35.6956 79.3161 35.8756C79.3161 36.4996 79.1661 37.1716 78.8661 37.8916C78.5781 38.6116 78.2961 38.9716 78.0201 38.9716C77.9721 38.9716 77.8161 38.9176 77.5521 38.8096C76.7601 38.4616 76.1001 38.2876 75.5721 38.2876C75.0561 38.2876 74.7021 38.3356 74.5101 38.4316C74.3301 38.5276 74.2401 38.6776 74.2401 38.8816C74.2401 39.0736 74.3721 39.2356 74.6361 39.3676C74.9001 39.4876 75.2241 39.6016 75.6081 39.7096C76.0041 39.8056 76.4301 39.9616 76.8861 40.1776C77.3541 40.3816 77.7861 40.6276 78.1821 40.9156C78.5781 41.1916 78.9081 41.5876 79.1721 42.1036C79.4361 42.6196 79.5681 43.2196 79.5681 43.9036C79.5681 44.6236 79.3821 45.2776 79.0101 45.8656C78.7821 46.2256 78.4881 46.5376 78.1281 46.8016ZM84.2714 47.7196C82.9274 47.7196 81.9854 47.3716 81.4454 46.6756C80.9174 45.9796 80.6534 44.7676 80.6534 43.0396V38.1436C80.6534 37.9036 81.0074 37.6756 81.7154 37.4596C82.4234 37.2316 83.1674 37.1176 83.9474 37.1176C84.9914 37.1176 85.5134 37.3876 85.5134 37.9276V42.4996C85.5134 43.4116 85.5494 44.0776 85.6214 44.4976C85.6934 44.9056 85.8734 45.1096 86.1614 45.1096C86.5454 45.1096 86.7374 44.9476 86.7374 44.6236V38.1436C86.7374 37.8916 87.1094 37.6576 87.8534 37.4416C88.5974 37.2256 89.4074 37.1176 90.2834 37.1176C91.1594 37.1176 91.5974 37.3516 91.5974 37.8196V47.0896C91.5974 47.2576 91.2194 47.3776 90.4634 47.4496C89.7074 47.5216 88.9634 47.5576 88.2314 47.5576C87.4994 47.5576 87.1274 47.4616 87.1154 47.2696L86.9354 46.0996H86.7914C86.6834 46.5316 86.4674 46.8856 86.1434 47.1616C85.9754 47.3056 85.7234 47.4376 85.3874 47.5576C85.0634 47.6656 84.6914 47.7196 84.2714 47.7196ZM98.8647 46.3696V45.3256H98.7207C98.6727 45.3856 98.5887 45.4636 98.4687 45.5596C98.3487 45.6436 98.0487 45.7636 97.5687 45.9196C97.1007 46.0756 96.5667 46.1536 95.9667 46.1536C95.3787 46.1536 94.8807 46.0636 94.4727 45.8836C94.0647 45.7036 93.7467 45.4816 93.5187 45.2176C93.2907 44.9416 93.1107 44.5756 92.9787 44.1196C92.7747 43.4116 92.6727 42.4516 92.6727 41.2396C92.6727 39.8476 92.9667 38.7796 93.5547 38.0356C93.7827 37.7356 94.1187 37.4836 94.5627 37.2796C95.0187 37.0636 95.5047 36.9556 96.0207 36.9556C96.5367 36.9556 96.9627 37.0156 97.2987 37.1356C97.6347 37.2436 97.8867 37.3756 98.0547 37.5316C98.3907 37.8676 98.5827 38.1616 98.6307 38.4136L98.6487 38.5756H98.7927L98.9547 37.8736C99.0747 37.3696 100.023 37.1176 101.799 37.1176C102.591 37.1176 103.071 37.2376 103.239 37.4776C103.335 37.6216 103.395 37.7596 103.419 37.8916C103.443 38.0116 103.455 38.1976 103.455 38.4496V45.9916C103.455 47.4076 102.993 48.4876 102.069 49.2316C101.145 49.9756 99.7887 50.3476 98.0007 50.3476C96.1047 50.3476 94.8147 50.1616 94.1307 49.7896C93.8307 49.6216 93.6807 49.4476 93.6807 49.2676C93.6807 48.9796 93.7947 48.4936 94.0227 47.8096C94.2627 47.1256 94.4847 46.7836 94.6887 46.7836C94.7367 46.7836 94.9047 46.8256 95.1927 46.9096C96.1047 47.1496 96.8427 47.2696 97.4067 47.2696C97.9827 47.2696 98.3667 47.1976 98.5587 47.0536C98.7627 46.9096 98.8647 46.6816 98.8647 46.3696ZM98.1447 44.1016C98.2767 44.1016 98.3847 44.0536 98.4687 43.9576C98.5527 43.8616 98.5947 43.7536 98.5947 43.6336V39.9256C98.5467 39.6736 98.4147 39.5476 98.1987 39.5476C97.7427 39.5476 97.5147 40.2976 97.5147 41.7976C97.5147 42.4936 97.5687 43.0516 97.6767 43.4716C97.7967 43.8916 97.9527 44.1016 98.1447 44.1016ZM108.138 47.7196C107.046 47.7196 106.188 47.4616 105.564 46.9456C105.312 46.7296 105.09 46.4116 104.898 45.9916C104.718 45.5716 104.628 45.0796 104.628 44.5156C104.628 43.9516 104.76 43.4596 105.024 43.0396C105.3 42.6196 105.63 42.2956 106.014 42.0676C106.398 41.8396 106.848 41.6536 107.364 41.5096C108.144 41.3056 109.002 41.2036 109.938 41.2036H110.532C110.532 40.7116 110.364 40.3636 110.028 40.1596C109.884 40.0756 109.662 40.0336 109.362 40.0336C109.074 40.0336 108.72 40.1116 108.3 40.2676C107.892 40.4236 107.55 40.5856 107.274 40.7536C106.998 40.9096 106.812 40.9876 106.716 40.9876C106.5 40.9876 106.206 40.7056 105.834 40.1416C105.462 39.5656 105.276 39.0436 105.276 38.5756C105.276 38.4196 105.498 38.2156 105.942 37.9636C106.386 37.7116 107.01 37.4836 107.814 37.2796C108.63 37.0636 109.422 36.9556 110.19 36.9556C110.958 36.9556 111.618 37.0216 112.17 37.1536C112.734 37.2736 113.19 37.4236 113.538 37.6036C113.898 37.7836 114.198 38.0236 114.438 38.3236C114.69 38.6236 114.876 38.8936 114.996 39.1336C115.128 39.3736 115.224 39.6856 115.284 40.0696C115.368 40.5136 115.41 41.0596 115.41 41.7076V47.1256C115.41 47.2576 115.086 47.3656 114.438 47.4496C113.802 47.5216 113.166 47.5576 112.53 47.5576C111.906 47.5576 111.498 47.5396 111.306 47.5036C111.126 47.4676 111.018 47.4256 110.982 47.3776C110.946 47.3296 110.916 47.2456 110.892 47.1256L110.748 46.0996H110.604C110.304 47.1796 109.482 47.7196 108.138 47.7196ZM110.55 44.7316V42.6256C110.238 42.6256 109.986 42.7576 109.794 43.0216C109.602 43.2856 109.506 43.5856 109.506 43.9216C109.506 44.7136 109.686 45.1096 110.046 45.1096C110.202 45.1096 110.322 45.0736 110.406 45.0016C110.502 44.9176 110.55 44.8276 110.55 44.7316ZM121.531 41.8696V47.1256C121.531 47.2576 121.189 47.3656 120.505 47.4496C119.833 47.5216 119.131 47.5576 118.399 47.5576C117.679 47.5576 117.211 47.5276 116.995 47.4676C116.779 47.3956 116.671 47.2816 116.671 47.1256V38.2516C116.671 38.0236 117.001 37.7776 117.661 37.5136C118.333 37.2496 119.059 37.1176 119.839 37.1176C120.631 37.1176 121.075 37.3336 121.171 37.7656L121.351 38.5936H121.477C121.645 38.1376 122.047 37.7536 122.683 37.4416C123.319 37.1176 123.955 36.9556 124.591 36.9556C125.227 36.9556 125.671 37.0576 125.923 37.2616C126.187 37.4656 126.319 37.7296 126.319 38.0536C126.319 38.3656 126.295 38.7676 126.247 39.2596C126.199 39.7516 126.079 40.2856 125.887 40.8616C125.707 41.4376 125.467 41.7256 125.167 41.7256C125.047 41.7256 124.669 41.6356 124.033 41.4556C123.397 41.2756 122.869 41.1856 122.449 41.1856C122.041 41.1856 121.783 41.2456 121.675 41.3656C121.579 41.4856 121.531 41.6536 121.531 41.8696Z" fill="white"/>
<defs>
<filter id="filter0_f_234_1069" x="0.69043" y="3.61206" width="153.623" height="28.7665" filterUnits="userSpaceOnUse" color-interpolation-filters="sRGB">
<feFlood flood-opacity="0" result="BackgroundImageFix"/>
<feBlend mode="normal" in="SourceGraphic" in2="BackgroundImageFix" result="shape"/>
<feGaussianBlur stdDeviation="4" result="effect1_foregroundBlur_234_1069"/>
</filter>
<filter id="filter1_f_234_1069" x="1.93359" y="42.7468" width="151.131" height="32.4677" filterUnits="userSpaceOnUse" color-interpolation-filters="sRGB">
<feFlood flood-opacity="0" result="BackgroundImageFix"/>
<feBlend mode="normal" in="SourceGraphic" in2="BackgroundImageFix" result="shape"/>
<feGaussianBlur stdDeviation="4" result="effect1_foregroundBlur_234_1069"/>
</filter>
<radialGradient id="paint0_radial_234_1069" cx="0" cy="0" r="1" gradientUnits="userSpaceOnUse" gradientTransform="translate(77.4631 46.0109) scale(66.8705 52.1467)">
<stop/>
<stop offset="0.84" stop-opacity="0.2"/>
</radialGradient>
<radialGradient id="paint1_radial_234_1069" cx="0" cy="0" r="1" gradientUnits="userSpaceOnUse" gradientTransform="translate(77.463 43.3827) scale(66.8705 52.1467)">
<stop stop-color="#CF3101"/>
<stop offset="0.04" stop-color="#F79422"/>
<stop offset="0.98" stop-color="#CF3101"/>
</radialGradient>
<radialGradient id="paint2_radial_234_1069" cx="0" cy="0" r="1" gradientUnits="userSpaceOnUse" gradientTransform="translate(77.7687 34.4879) rotate(-91.3742) scale(53.2994 70.9407)">
<stop stop-color="#CF3101"/>
<stop offset="0.0001" stop-color="#F89D02"/>
<stop offset="0.98" stop-color="#CF3101"/>
</radialGradient>
<linearGradient id="paint3_linear_234_1069" x1="77.4967" y1="24.3785" x2="77.4967" y2="11.6146" gradientUnits="userSpaceOnUse">
<stop stop-color="white" stop-opacity="0"/>
<stop offset="1" stop-color="white"/>
</linearGradient>
<linearGradient id="paint4_linear_234_1069" x1="77.4962" y1="67.222" x2="77.4962" y2="50.7468" gradientUnits="userSpaceOnUse">
<stop/>
<stop offset="0.09" stop-color="#0C0C0C"/>
<stop offset="0.24" stop-color="#2C2C2C"/>
<stop offset="0.46" stop-color="#616161"/>
<stop offset="0.71" stop-color="#AAAAAA"/>
<stop offset="0.98" stop-color="white"/>
</linearGradient>
<radialGradient id="paint5_radial_234_1069" cx="0" cy="0" r="1" gradientUnits="userSpaceOnUse" gradientTransform="translate(78.0213 22.0205) scale(69.1993 53.9627)">
<stop stop-color="white"/>
<stop offset="1" stop-color="white" stop-opacity="0"/>
</radialGradient>
<radialGradient id="paint6_radial_234_1069" cx="0" cy="0" r="1" gradientUnits="userSpaceOnUse" gradientTransform="translate(663.05 76.1623) rotate(-171.063) scale(1.14282 2.26321)">
<stop offset="0.51" stop-color="white"/>
<stop offset="1" stop-color="white" stop-opacity="0"/>
</radialGradient>
<radialGradient id="paint7_radial_234_1069" cx="0" cy="0" r="1" gradientUnits="userSpaceOnUse" gradientTransform="translate(665.976 76.5961) rotate(-171.063) scale(0.613477 1.21491)">
<stop offset="0.51" stop-color="white"/>
<stop offset="1" stop-color="white" stop-opacity="0"/>
</radialGradient>
<radialGradient id="paint8_radial_234_1069" cx="0" cy="0" r="1" gradientUnits="userSpaceOnUse" gradientTransform="translate(133.179 9.36945) rotate(-91.5971) scale(3.49974 1.69202)">
<stop stop-color="white"/>
<stop offset="1" stop-color="white" stop-opacity="0"/>
</radialGradient>
<radialGradient id="paint9_radial_234_1069" cx="0" cy="0" r="1" gradientUnits="userSpaceOnUse" gradientTransform="translate(334.227 1055.28) rotate(-100.424) scale(1.01406 3.19345)">
<stop offset="0.51" stop-color="white"/>
<stop offset="1" stop-color="white" stop-opacity="0"/>
</radialGradient>
<radialGradient id="paint10_radial_234_1069" cx="0" cy="0" r="1" gradientUnits="userSpaceOnUse" gradientTransform="translate(334.07 1053.72) rotate(-100.424) scale(0.544741 1.71549)">
<stop offset="0.51" stop-color="white"/>
<stop offset="1" stop-color="white" stop-opacity="0"/>
</radialGradient>
<radialGradient id="paint11_radial_234_1069" cx="0" cy="0" r="1" gradientUnits="userSpaceOnUse" gradientTransform="translate(-80.8688 -1241.94) rotate(-95.8292) scale(15.5114 81.3585)">
<stop offset="0.51" stop-color="white"/>
<stop offset="1" stop-color="white" stop-opacity="0"/>
</radialGradient>
<radialGradient id="paint12_radial_234_1069" cx="0" cy="0" r="1" gradientUnits="userSpaceOnUse" gradientTransform="translate(16.2025 38.8975) rotate(-91.7603) scale(2.09269 1.00558)">
<stop offset="0.51" stop-color="white"/>
<stop offset="1" stop-color="white" stop-opacity="0"/>
</radialGradient>
</defs>
</svg>
