<svg width="155" height="87" viewBox="0 0 155 87" fill="none" xmlns="http://www.w3.org/2000/svg">
<path d="M149.995 47.6617C149.99 49.1521 149.963 50.6526 149.919 52.1431C149.838 55.094 149.691 58.0349 149.474 60.9758C149.355 62.6263 149.219 64.2869 149.056 65.9374C148.774 68.8383 147.09 71.4091 144.548 73.2597C142.181 75.2503 138.901 76.5607 135.197 76.7808C118.753 77.7611 36.2507 77.7611 19.8012 76.7808C16.0975 76.5607 12.8174 75.2403 10.4497 73.2597C7.91356 71.4091 6.23006 68.8383 5.94767 65.9374C5.84449 64.847 5.74673 63.7467 5.65441 62.6563C5.39374 59.4353 5.2091 56.2043 5.10592 52.9833C5.04618 51.1527 5.0136 49.3222 5.00817 47.4916C4.99731 46.1912 5.00817 44.8808 5.02989 43.5804V43.5304C5.06247 41.6498 5.11678 39.7692 5.19824 37.8886C5.26341 36.3881 5.34487 34.8877 5.44805 33.3872C5.58381 31.3566 5.75216 29.3259 5.94767 27.3053C6.0943 25.7748 6.63193 24.3444 7.47911 23.054C8.23397 21.8936 9.2495 20.8533 10.4497 19.983C12.8174 17.9924 16.0975 16.682 19.8012 16.4519C36.2507 15.4716 118.753 15.4716 135.197 16.4519C138.901 16.672 142.181 17.9924 144.548 19.983C146.08 21.1034 147.296 22.4738 148.084 24.0343C148.605 25.0546 148.942 26.1649 149.056 27.3153C149.262 29.446 149.442 31.5866 149.577 33.7173C149.68 35.3178 149.773 36.9283 149.833 38.5288C149.898 40.1493 149.947 41.7798 149.974 43.4003C149.995 44.8308 150.006 46.2512 149.995 47.6717V47.6617Z" fill="url(#paint0_radial_420_8947)"/>
<path d="M149.919 49.3922C149.876 50.9527 149.816 52.5132 149.735 54.0737C149.599 56.7345 149.414 59.3954 149.17 62.0562C149.132 62.4763 149.094 62.8964 149.05 63.3166C148.768 66.2175 147.085 68.7883 144.543 70.6389C142.175 72.6295 138.895 73.9399 135.191 74.17C118.747 75.1503 36.2451 75.1503 19.7957 74.17C16.092 73.9499 12.8119 72.6295 10.4441 70.6389C8.03293 68.8783 6.39831 66.4776 5.99644 63.7567C5.97472 63.6167 5.95843 63.4666 5.94213 63.3166C5.6706 60.5457 5.45881 57.7748 5.30675 55.004C5.20357 53.1734 5.12754 51.3328 5.07866 49.5023C5.00806 47.1115 4.98634 44.7208 5.00806 42.33V42.3C5.01349 41.7098 5.02436 41.1196 5.02979 40.5295C5.05694 38.8689 5.10581 37.2084 5.17641 35.5479C5.30675 32.4969 5.50768 29.446 5.77921 26.395C5.82809 25.8249 5.8824 25.2447 5.9367 24.6745C6.2191 21.7736 7.90259 19.2028 10.4387 17.3522C12.8065 15.3716 16.0866 14.0512 19.7903 13.8311C36.2397 12.8508 118.742 12.8508 135.186 13.8311C138.89 14.0512 142.17 15.3716 144.538 17.3522C147.074 19.2028 148.757 21.7736 149.045 24.6745C149.121 25.4347 149.186 26.195 149.251 26.9452C149.501 29.8261 149.686 32.707 149.811 35.5979C149.887 37.3885 149.936 39.179 149.963 40.9696C149.963 41.2597 149.974 41.5498 149.979 41.8399V41.9399C150.001 44.4207 149.979 46.9115 149.914 49.3922H149.919Z" fill="url(#paint1_radial_420_8947)"/>
<g style="mix-blend-mode:hard-light" opacity="0.2">
<path d="M149.051 22.0637C148.768 19.1628 147.085 16.5919 144.549 14.7414C142.181 12.7507 138.901 11.4403 135.197 11.2103C118.753 10.23 36.2453 10.23 19.8013 11.2103C16.0976 11.4303 12.8175 12.7507 10.4497 14.7414C7.91359 16.5919 6.23009 19.1628 5.94769 22.0637C4.69322 34.9477 4.69322 47.8217 5.94769 60.7057C6.23009 63.6066 7.91359 66.1774 10.4497 68.028C12.8175 70.0186 16.0976 71.3291 19.8013 71.5591C36.2453 72.5394 118.753 72.5394 135.197 71.5591C138.901 71.3391 142.181 70.0186 144.549 68.028C147.085 66.1774 148.768 63.6066 149.051 60.7057C150.305 47.8217 150.305 34.9477 149.051 22.0637Z" fill="white"/>
</g>
<path d="M149.637 52.3031C149.491 54.7839 149.295 57.2647 149.051 59.7454C148.768 62.6463 147.085 65.2171 144.549 67.0677C142.181 69.0583 138.901 70.3688 135.192 70.5988C118.748 71.5891 36.2401 71.5891 19.7961 70.5988C16.0924 70.3788 12.8123 69.0583 10.4445 67.0677C7.90842 65.2171 6.22492 62.6463 5.94253 59.7454C5.71987 57.4447 5.53523 55.154 5.3886 52.8533C4.72607 42.27 4.91071 31.6867 5.94253 21.1034C6.22492 18.2025 7.90842 15.6317 10.4445 13.7811C12.8123 11.8005 16.0924 10.48 19.7961 10.25C36.2455 9.26967 118.748 9.26967 135.197 10.26C138.901 10.48 142.181 11.8005 144.554 13.7911C147.09 15.6517 148.774 18.2125 149.056 21.1134C150.066 31.5166 150.267 41.9099 149.643 52.3131L149.637 52.3031Z" fill="url(#paint2_radial_420_8947)"/>
<g style="mix-blend-mode:overlay" opacity="0.8" filter="url(#filter0_f_420_8947)">
<path d="M12.2964 20.5932C14.5338 18.7626 17.6401 17.5422 21.1429 17.3322C36.6962 16.4219 118.302 16.4219 133.856 17.3322C137.359 17.5422 140.46 18.7526 142.702 20.5932C144.332 21.7636 145.591 23.234 146.314 24.8945C146.254 24.2143 146.2 23.5341 146.135 22.8439C145.874 20.1631 144.321 17.7923 141.975 16.0718C139.786 14.2412 136.756 13.0208 133.329 12.8108C118.129 11.9005 36.8755 11.9005 21.6751 12.8108C18.2484 13.0208 15.2181 14.2312 13.0295 16.0718C10.6835 17.7923 9.13031 20.1631 8.86964 22.8439C8.80447 23.5241 8.75017 24.2043 8.69043 24.8945C9.41271 23.234 10.6672 21.7636 12.3018 20.5932H12.2964Z" fill="url(#paint3_linear_420_8947)"/>
</g>
<g style="mix-blend-mode:soft-light" opacity="0.75" filter="url(#filter1_f_420_8947)">
<path d="M143.984 52.1431C141.654 54.0937 138.428 55.3941 134.784 55.6142C118.612 56.5845 36.3808 56.5845 20.2084 55.6142C16.5644 55.3941 13.3386 54.1037 11.0089 52.1431C10.6287 51.863 10.2703 51.5729 9.93359 51.2628C10.0639 53.3435 10.2268 55.4241 10.4278 57.4948C10.6776 60.0556 12.1656 62.3263 14.4084 63.9668C16.4992 65.7173 19.3992 66.8877 22.6739 67.0778C37.2063 67.948 117.792 67.948 132.324 67.0778C135.599 66.8777 138.493 65.7173 140.589 63.9668C142.832 62.3263 144.32 60.0556 144.57 57.4948C144.771 55.4141 144.939 53.3335 145.064 51.2628C144.728 51.5729 144.369 51.863 143.989 52.1431H143.984Z" fill="url(#paint4_linear_420_8947)"/>
</g>
<path style="mix-blend-mode:overlay" opacity="0.6" d="M149.99 40.9796C149.99 41.2597 149.99 41.5498 149.99 41.8299V41.9299C149.99 42.4201 149.979 42.9002 149.974 43.3904C149.952 44.7808 149.92 46.1712 149.871 47.5517C149.849 48.1218 149.827 48.692 149.806 49.2622C149.768 50.1525 149.719 51.0427 149.664 51.933C149.659 52.0531 149.654 52.1831 149.643 52.3031C149.089 52.4532 148.54 52.6132 147.986 52.7533C145.081 53.5335 142.17 54.2237 139.265 54.8239C138.238 55.034 137.212 55.2341 136.186 55.4341C118.731 58.6951 35.1973 58.8152 17.6998 55.6342C16.7711 55.4641 15.8425 55.2841 14.9084 55.104C12.2909 54.5738 9.66785 53.9737 7.04485 53.2934C6.49093 53.1534 5.94243 53.0034 5.38851 52.8533C5.38851 52.8033 5.38307 52.7433 5.37764 52.6933C5.31248 51.5829 5.24731 50.4626 5.20386 49.3522C5.17128 48.692 5.14956 48.0418 5.12784 47.3816C5.08439 46.1212 5.05181 44.8508 5.03008 43.5904V43.5404C5.02465 43.1403 5.01922 42.7402 5.01379 42.33V42.3C5.00836 41.7198 5.00293 41.1397 5.00293 40.5595C5.00293 39.7192 5.00836 38.8689 5.01922 38.0287C5.03008 37.2484 5.04094 36.4582 5.06267 35.6779C5.07353 35.0077 5.09525 34.3475 5.1224 33.6773C5.20386 31.3166 5.32334 28.9558 5.49169 26.5951C5.55142 25.7548 5.61116 24.9146 5.68176 24.0743C5.75779 23.084 5.85011 22.0937 5.94786 21.1034C6.23025 18.2025 7.91375 15.6317 10.4499 13.7811C12.8176 11.8005 16.0977 10.4801 19.8014 10.26C36.2454 9.2697 118.748 9.2697 135.192 10.26C138.901 10.4801 142.181 11.8005 144.549 13.7811C147.085 15.6417 148.768 18.2125 149.051 21.1034C149.17 22.3238 149.279 23.5342 149.371 24.7545C149.431 25.5448 149.491 26.335 149.539 27.1253C149.697 29.406 149.806 31.6767 149.882 33.9474C149.903 34.5276 149.914 35.1078 149.93 35.688C149.952 36.6683 149.968 37.6386 149.979 38.6289C149.985 39.4091 149.985 40.1894 149.979 40.9796H149.99Z" fill="url(#paint5_radial_420_8947)"/>
<g style="mix-blend-mode:soft-light" opacity="0.6">
<path d="M126.644 19.4829C126.666 23.2741 115.223 20.8733 74.2384 20.8733C40.6227 20.8733 27.8987 23.3841 27.877 19.5929C27.8553 15.8018 40.1339 12.6808 74.8846 12.6808C114.735 12.6808 126.622 15.6917 126.644 19.4829Z" fill="white"/>
</g>
<path d="M132.394 15.4667C132.41 14.8043 131.387 14.1868 130.111 14.0874C128.834 13.988 127.787 14.4444 127.772 15.1068C127.756 15.7691 128.779 16.3866 130.056 16.486C131.332 16.5854 132.379 16.129 132.394 15.4667Z" fill="url(#paint6_radial_420_8947)"/>
<path d="M135.679 16.0282C135.687 15.675 135.138 15.3453 134.452 15.2919C133.765 15.2385 133.202 15.4815 133.194 15.8348C133.186 16.188 133.736 16.5177 134.422 16.5712C135.108 16.6246 135.671 16.3815 135.679 16.0282Z" fill="url(#paint7_radial_420_8947)"/>
<path d="M145.156 55.2341C145.156 57.1647 144.027 58.7252 143.37 58.7252C142.713 58.7252 143.571 57.5848 143.571 55.6542C143.571 53.7236 142.713 51.743 143.37 51.743C144.027 51.743 145.156 53.3035 145.156 55.2341Z" fill="url(#paint8_radial_420_8947)"/>
<path d="M144.34 24.178C144.433 23.0976 143.737 21.9971 142.786 21.72C141.835 21.4428 140.989 22.0941 140.897 23.1745C140.804 24.2549 141.499 25.3554 142.45 25.6326C143.401 25.9097 144.247 25.2584 144.34 24.178Z" fill="url(#paint9_radial_420_8947)"/>
<path d="M144.308 27.7621C144.358 27.1837 143.983 26.5937 143.47 26.4444C142.958 26.295 142.502 26.6428 142.452 27.2213C142.403 27.7997 142.778 28.3896 143.29 28.539C143.803 28.6883 144.259 28.3405 144.308 27.7621Z" fill="url(#paint10_radial_420_8947)"/>
<path d="M125.677 14.3013C125.704 14.7914 29.5818 15.1316 25.3839 15.6517C16.8632 16.702 18.7531 20.7433 17.5366 20.6833C16.3201 20.6233 15.3969 15.3316 25.2427 14.5714C33.9643 13.9012 125.65 13.8111 125.677 14.3013Z" fill="url(#paint11_radial_420_8947)"/>
<path d="M17.3332 25.8769C17.7012 24.8948 17.6093 23.6026 17.1279 22.9907C16.6466 22.3788 15.9581 22.6789 15.5901 23.6611C15.2221 24.6432 15.314 25.9354 15.7954 26.5473C16.2768 27.1592 16.9653 26.8591 17.3332 25.8769Z" fill="url(#paint12_radial_420_8947)"/>
<path d="M34.5861 47.5576H30.6441C30.0441 47.5576 29.6421 47.5156 29.4381 47.4316C29.2341 47.3476 29.1321 47.2156 29.1321 47.0356V35.4616C29.1321 34.8856 30.8661 34.5976 34.3341 34.5976C36.3261 34.5976 37.7001 34.7896 38.4561 35.1736C39.2241 35.5696 39.7161 36.0736 39.9321 36.6856C40.0521 37.0456 40.1121 37.4656 40.1121 37.9456C40.1121 38.8816 39.9501 39.5836 39.6261 40.0516C39.3141 40.5196 38.9721 40.7836 38.6001 40.8436C39.1641 40.9636 39.6321 41.2396 40.0041 41.6716C40.3761 42.1036 40.5621 42.8356 40.5621 43.8676C40.5621 45.0676 40.1961 45.9556 39.4641 46.5316C38.8281 47.0356 37.8561 47.3536 36.5481 47.4856C35.9961 47.5336 35.3421 47.5576 34.5861 47.5576ZM34.6041 39.7096C35.2161 39.7096 35.5221 39.3016 35.5221 38.4856C35.5221 38.0776 35.4381 37.7776 35.2701 37.5856C35.1141 37.3816 34.9341 37.2796 34.7301 37.2796H34.1541V39.7096H34.6041ZM34.1541 44.8756H34.6041C35.2161 44.8756 35.5221 44.4676 35.5221 43.6516C35.5221 43.2436 35.4381 42.9436 35.2701 42.7516C35.1141 42.5476 34.9341 42.4456 34.7301 42.4456H34.1541V44.8756ZM45.3515 47.7196C44.0075 47.7196 43.0655 47.3716 42.5255 46.6756C41.9975 45.9796 41.7335 44.7676 41.7335 43.0396V38.1436C41.7335 37.9036 42.0875 37.6756 42.7955 37.4596C43.5035 37.2316 44.2475 37.1176 45.0275 37.1176C46.0715 37.1176 46.5935 37.3876 46.5935 37.9276V42.4996C46.5935 43.4116 46.6295 44.0776 46.7015 44.4976C46.7735 44.9056 46.9535 45.1096 47.2415 45.1096C47.6255 45.1096 47.8175 44.9476 47.8175 44.6236V38.1436C47.8175 37.8916 48.1895 37.6576 48.9335 37.4416C49.6775 37.2256 50.4875 37.1176 51.3635 37.1176C52.2395 37.1176 52.6775 37.3516 52.6775 37.8196V47.0896C52.6775 47.2576 52.2995 47.3776 51.5435 47.4496C50.7875 47.5216 50.0435 47.5576 49.3115 47.5576C48.5795 47.5576 48.2075 47.4616 48.1955 47.2696L48.0155 46.0996H47.8715C47.7635 46.5316 47.5475 46.8856 47.2235 47.1616C47.0555 47.3056 46.8035 47.4376 46.4675 47.5576C46.1435 47.6656 45.7715 47.7196 45.3515 47.7196ZM59.9987 46.3876V45.3256H59.8547C59.7947 45.3856 59.7047 45.4636 59.5847 45.5596C59.4647 45.6556 59.1827 45.7816 58.7387 45.9376C58.2947 46.0936 57.7967 46.1716 57.2447 46.1716C56.7047 46.1716 56.2247 46.0876 55.8047 45.9196C55.3967 45.7396 55.0727 45.5056 54.8327 45.2176C54.5927 44.9176 54.4067 44.5216 54.2747 44.0296C54.0467 43.2496 53.9327 42.1456 53.9327 40.7176V38.2336C53.9327 37.9816 54.2867 37.7356 54.9947 37.4956C55.7027 37.2436 56.4467 37.1176 57.2267 37.1176C58.2707 37.1176 58.7927 37.3876 58.7927 37.9276V40.1956C58.7927 42.5956 58.9847 43.7956 59.3687 43.7956C59.5967 43.7956 59.7107 43.6336 59.7107 43.3096V38.2336C59.7107 37.9816 60.0887 37.7356 60.8447 37.4956C61.6007 37.2436 62.4107 37.1176 63.2747 37.1176C64.1387 37.1176 64.5707 37.3516 64.5707 37.8196V46.3336C64.5707 49.0096 62.7587 50.3476 59.1347 50.3476C57.2267 50.3476 55.9307 50.1616 55.2467 49.7896C54.9467 49.6216 54.7967 49.4476 54.7967 49.2676C54.7967 48.9796 54.9167 48.4936 55.1567 47.8096C55.3967 47.1376 55.6187 46.8016 55.8227 46.8016C55.8707 46.8016 56.0387 46.8376 56.3267 46.9096C57.2147 47.1496 57.9527 47.2696 58.5407 47.2696C59.1407 47.2696 59.5307 47.2036 59.7107 47.0716C59.9027 46.9396 59.9987 46.7116 59.9987 46.3876ZM79.1281 46.8016C78.7681 47.0656 78.2641 47.2876 77.6161 47.4676C76.9801 47.6356 76.1521 47.7196 75.1321 47.7196C74.1241 47.7196 73.1641 47.6356 72.2521 47.4676C71.3401 47.2996 70.6861 47.1136 70.2901 46.9096C69.8941 46.7056 69.6961 46.5076 69.6961 46.3156C69.6961 45.6436 69.7921 44.9476 69.9841 44.2276C70.1761 43.4956 70.4041 43.1296 70.6681 43.1296C70.7161 43.1296 71.2141 43.2916 72.1621 43.6156C73.1101 43.9396 73.8241 44.1016 74.3041 44.1016C74.7841 44.1016 75.0961 44.0536 75.2401 43.9576C75.3841 43.8496 75.4561 43.6996 75.4561 43.5076C75.4561 43.3156 75.3241 43.1476 75.0601 43.0036C74.7961 42.8476 74.4661 42.7156 74.0701 42.6076C73.6741 42.4876 73.2421 42.3196 72.7741 42.1036C72.3181 41.8876 71.8921 41.6476 71.4961 41.3836C71.1001 41.1196 70.7701 40.7476 70.5061 40.2676C70.2421 39.7756 70.1101 39.2176 70.1101 38.5936C70.1101 35.9296 71.7001 34.5976 74.8801 34.5976C76.0681 34.5976 77.0941 34.6756 77.9581 34.8316C78.8221 34.9756 79.4281 35.1436 79.7761 35.3356C80.1361 35.5156 80.3161 35.6956 80.3161 35.8756C80.3161 36.4996 80.1661 37.1716 79.8661 37.8916C79.5781 38.6116 79.2961 38.9716 79.0201 38.9716C78.9721 38.9716 78.8161 38.9176 78.5521 38.8096C77.7601 38.4616 77.1001 38.2876 76.5721 38.2876C76.0561 38.2876 75.7021 38.3356 75.5101 38.4316C75.3301 38.5276 75.2401 38.6776 75.2401 38.8816C75.2401 39.0736 75.3721 39.2356 75.6361 39.3676C75.9001 39.4876 76.2241 39.6016 76.6081 39.7096C77.0041 39.8056 77.4301 39.9616 77.8861 40.1776C78.3541 40.3816 78.7861 40.6276 79.1821 40.9156C79.5781 41.1916 79.9081 41.5876 80.1721 42.1036C80.4361 42.6196 80.5681 43.2196 80.5681 43.9036C80.5681 44.6236 80.3821 45.2776 80.0101 45.8656C79.7821 46.2256 79.4881 46.5376 79.1281 46.8016ZM85.2714 47.7196C83.9274 47.7196 82.9854 47.3716 82.4454 46.6756C81.9174 45.9796 81.6534 44.7676 81.6534 43.0396V38.1436C81.6534 37.9036 82.0074 37.6756 82.7154 37.4596C83.4234 37.2316 84.1674 37.1176 84.9474 37.1176C85.9914 37.1176 86.5134 37.3876 86.5134 37.9276V42.4996C86.5134 43.4116 86.5494 44.0776 86.6214 44.4976C86.6934 44.9056 86.8734 45.1096 87.1614 45.1096C87.5454 45.1096 87.7374 44.9476 87.7374 44.6236V38.1436C87.7374 37.8916 88.1094 37.6576 88.8534 37.4416C89.5974 37.2256 90.4074 37.1176 91.2834 37.1176C92.1594 37.1176 92.5974 37.3516 92.5974 37.8196V47.0896C92.5974 47.2576 92.2194 47.3776 91.4634 47.4496C90.7074 47.5216 89.9634 47.5576 89.2314 47.5576C88.4994 47.5576 88.1274 47.4616 88.1154 47.2696L87.9354 46.0996H87.7914C87.6834 46.5316 87.4674 46.8856 87.1434 47.1616C86.9754 47.3056 86.7234 47.4376 86.3874 47.5576C86.0634 47.6656 85.6914 47.7196 85.2714 47.7196ZM99.8647 46.3696V45.3256H99.7207C99.6727 45.3856 99.5887 45.4636 99.4687 45.5596C99.3487 45.6436 99.0487 45.7636 98.5687 45.9196C98.1007 46.0756 97.5667 46.1536 96.9667 46.1536C96.3787 46.1536 95.8807 46.0636 95.4727 45.8836C95.0647 45.7036 94.7467 45.4816 94.5187 45.2176C94.2907 44.9416 94.1107 44.5756 93.9787 44.1196C93.7747 43.4116 93.6727 42.4516 93.6727 41.2396C93.6727 39.8476 93.9667 38.7796 94.5547 38.0356C94.7827 37.7356 95.1187 37.4836 95.5627 37.2796C96.0187 37.0636 96.5047 36.9556 97.0207 36.9556C97.5367 36.9556 97.9627 37.0156 98.2987 37.1356C98.6347 37.2436 98.8867 37.3756 99.0547 37.5316C99.3907 37.8676 99.5827 38.1616 99.6307 38.4136L99.6487 38.5756H99.7927L99.9547 37.8736C100.075 37.3696 101.023 37.1176 102.799 37.1176C103.591 37.1176 104.071 37.2376 104.239 37.4776C104.335 37.6216 104.395 37.7596 104.419 37.8916C104.443 38.0116 104.455 38.1976 104.455 38.4496V45.9916C104.455 47.4076 103.993 48.4876 103.069 49.2316C102.145 49.9756 100.789 50.3476 99.0007 50.3476C97.1047 50.3476 95.8147 50.1616 95.1307 49.7896C94.8307 49.6216 94.6807 49.4476 94.6807 49.2676C94.6807 48.9796 94.7947 48.4936 95.0227 47.8096C95.2627 47.1256 95.4847 46.7836 95.6887 46.7836C95.7367 46.7836 95.9047 46.8256 96.1927 46.9096C97.1047 47.1496 97.8427 47.2696 98.4067 47.2696C98.9827 47.2696 99.3667 47.1976 99.5587 47.0536C99.7627 46.9096 99.8647 46.6816 99.8647 46.3696ZM99.1447 44.1016C99.2767 44.1016 99.3847 44.0536 99.4687 43.9576C99.5527 43.8616 99.5947 43.7536 99.5947 43.6336V39.9256C99.5467 39.6736 99.4147 39.5476 99.1987 39.5476C98.7427 39.5476 98.5147 40.2976 98.5147 41.7976C98.5147 42.4936 98.5687 43.0516 98.6767 43.4716C98.7967 43.8916 98.9527 44.1016 99.1447 44.1016ZM109.138 47.7196C108.046 47.7196 107.188 47.4616 106.564 46.9456C106.312 46.7296 106.09 46.4116 105.898 45.9916C105.718 45.5716 105.628 45.0796 105.628 44.5156C105.628 43.9516 105.76 43.4596 106.024 43.0396C106.3 42.6196 106.63 42.2956 107.014 42.0676C107.398 41.8396 107.848 41.6536 108.364 41.5096C109.144 41.3056 110.002 41.2036 110.938 41.2036H111.532C111.532 40.7116 111.364 40.3636 111.028 40.1596C110.884 40.0756 110.662 40.0336 110.362 40.0336C110.074 40.0336 109.72 40.1116 109.3 40.2676C108.892 40.4236 108.55 40.5856 108.274 40.7536C107.998 40.9096 107.812 40.9876 107.716 40.9876C107.5 40.9876 107.206 40.7056 106.834 40.1416C106.462 39.5656 106.276 39.0436 106.276 38.5756C106.276 38.4196 106.498 38.2156 106.942 37.9636C107.386 37.7116 108.01 37.4836 108.814 37.2796C109.63 37.0636 110.422 36.9556 111.19 36.9556C111.958 36.9556 112.618 37.0216 113.17 37.1536C113.734 37.2736 114.19 37.4236 114.538 37.6036C114.898 37.7836 115.198 38.0236 115.438 38.3236C115.69 38.6236 115.876 38.8936 115.996 39.1336C116.128 39.3736 116.224 39.6856 116.284 40.0696C116.368 40.5136 116.41 41.0596 116.41 41.7076V47.1256C116.41 47.2576 116.086 47.3656 115.438 47.4496C114.802 47.5216 114.166 47.5576 113.53 47.5576C112.906 47.5576 112.498 47.5396 112.306 47.5036C112.126 47.4676 112.018 47.4256 111.982 47.3776C111.946 47.3296 111.916 47.2456 111.892 47.1256L111.748 46.0996H111.604C111.304 47.1796 110.482 47.7196 109.138 47.7196ZM111.55 44.7316V42.6256C111.238 42.6256 110.986 42.7576 110.794 43.0216C110.602 43.2856 110.506 43.5856 110.506 43.9216C110.506 44.7136 110.686 45.1096 111.046 45.1096C111.202 45.1096 111.322 45.0736 111.406 45.0016C111.502 44.9176 111.55 44.8276 111.55 44.7316ZM122.531 41.8696V47.1256C122.531 47.2576 122.189 47.3656 121.505 47.4496C120.833 47.5216 120.131 47.5576 119.399 47.5576C118.679 47.5576 118.211 47.5276 117.995 47.4676C117.779 47.3956 117.671 47.2816 117.671 47.1256V38.2516C117.671 38.0236 118.001 37.7776 118.661 37.5136C119.333 37.2496 120.059 37.1176 120.839 37.1176C121.631 37.1176 122.075 37.3336 122.171 37.7656L122.351 38.5936H122.477C122.645 38.1376 123.047 37.7536 123.683 37.4416C124.319 37.1176 124.955 36.9556 125.591 36.9556C126.227 36.9556 126.671 37.0576 126.923 37.2616C127.187 37.4656 127.319 37.7296 127.319 38.0536C127.319 38.3656 127.295 38.7676 127.247 39.2596C127.199 39.7516 127.079 40.2856 126.887 40.8616C126.707 41.4376 126.467 41.7256 126.167 41.7256C126.047 41.7256 125.669 41.6356 125.033 41.4556C124.397 41.2756 123.869 41.1856 123.449 41.1856C123.041 41.1856 122.783 41.2456 122.675 41.3656C122.579 41.4856 122.531 41.6536 122.531 41.8696Z" fill="white"/>
<defs>
<filter id="filter0_f_420_8947" x="0.69043" y="4.12805" width="153.623" height="28.7665" filterUnits="userSpaceOnUse" color-interpolation-filters="sRGB">
<feFlood flood-opacity="0" result="BackgroundImageFix"/>
<feBlend mode="normal" in="SourceGraphic" in2="BackgroundImageFix" result="shape"/>
<feGaussianBlur stdDeviation="4" result="effect1_foregroundBlur_420_8947"/>
</filter>
<filter id="filter1_f_420_8947" x="1.93359" y="43.2628" width="151.131" height="32.4677" filterUnits="userSpaceOnUse" color-interpolation-filters="sRGB">
<feFlood flood-opacity="0" result="BackgroundImageFix"/>
<feBlend mode="normal" in="SourceGraphic" in2="BackgroundImageFix" result="shape"/>
<feGaussianBlur stdDeviation="4" result="effect1_foregroundBlur_420_8947"/>
</filter>
<radialGradient id="paint0_radial_420_8947" cx="0" cy="0" r="1" gradientUnits="userSpaceOnUse" gradientTransform="translate(77.4631 46.5269) scale(66.8705 52.1467)">
<stop/>
<stop offset="0.84" stop-opacity="0.2"/>
</radialGradient>
<radialGradient id="paint1_radial_420_8947" cx="0" cy="0" r="1" gradientUnits="userSpaceOnUse" gradientTransform="translate(77.463 43.8987) scale(66.8705 52.1467)">
<stop stop-color="#F99F03"/>
<stop offset="0.02" stop-color="#F89D02"/>
<stop offset="0.98" stop-color="#D66100"/>
</radialGradient>
<radialGradient id="paint2_radial_420_8947" cx="0" cy="0" r="1" gradientUnits="userSpaceOnUse" gradientTransform="translate(77.7687 35.0039) rotate(-91.3742) scale(53.2994 70.9407)">
<stop stop-color="#F99F03"/>
<stop offset="0.02" stop-color="#F89D02"/>
<stop offset="0.98" stop-color="#D66100"/>
</radialGradient>
<linearGradient id="paint3_linear_420_8947" x1="77.4967" y1="24.8945" x2="77.4967" y2="12.1306" gradientUnits="userSpaceOnUse">
<stop stop-color="white" stop-opacity="0"/>
<stop offset="1" stop-color="white"/>
</linearGradient>
<linearGradient id="paint4_linear_420_8947" x1="77.4962" y1="67.738" x2="77.4962" y2="51.2628" gradientUnits="userSpaceOnUse">
<stop/>
<stop offset="0.09" stop-color="#0C0C0C"/>
<stop offset="0.24" stop-color="#2C2C2C"/>
<stop offset="0.46" stop-color="#616161"/>
<stop offset="0.71" stop-color="#AAAAAA"/>
<stop offset="0.98" stop-color="white"/>
</linearGradient>
<radialGradient id="paint5_radial_420_8947" cx="0" cy="0" r="1" gradientUnits="userSpaceOnUse" gradientTransform="translate(78.0213 22.5364) scale(69.1993 53.9627)">
<stop stop-color="white"/>
<stop offset="1" stop-color="white" stop-opacity="0"/>
</radialGradient>
<radialGradient id="paint6_radial_420_8947" cx="0" cy="0" r="1" gradientUnits="userSpaceOnUse" gradientTransform="translate(663.05 76.6783) rotate(-171.063) scale(1.14282 2.26321)">
<stop offset="0.51" stop-color="white"/>
<stop offset="1" stop-color="white" stop-opacity="0"/>
</radialGradient>
<radialGradient id="paint7_radial_420_8947" cx="0" cy="0" r="1" gradientUnits="userSpaceOnUse" gradientTransform="translate(665.976 77.1121) rotate(-171.063) scale(0.613477 1.21491)">
<stop offset="0.51" stop-color="white"/>
<stop offset="1" stop-color="white" stop-opacity="0"/>
</radialGradient>
<radialGradient id="paint8_radial_420_8947" cx="0" cy="0" r="1" gradientUnits="userSpaceOnUse" gradientTransform="translate(133.179 9.88545) rotate(-91.5971) scale(3.49974 1.69202)">
<stop stop-color="white"/>
<stop offset="1" stop-color="white" stop-opacity="0"/>
</radialGradient>
<radialGradient id="paint9_radial_420_8947" cx="0" cy="0" r="1" gradientUnits="userSpaceOnUse" gradientTransform="translate(334.227 1055.8) rotate(-100.424) scale(1.01406 3.19345)">
<stop offset="0.51" stop-color="white"/>
<stop offset="1" stop-color="white" stop-opacity="0"/>
</radialGradient>
<radialGradient id="paint10_radial_420_8947" cx="0" cy="0" r="1" gradientUnits="userSpaceOnUse" gradientTransform="translate(334.07 1054.24) rotate(-100.424) scale(0.544741 1.71549)">
<stop offset="0.51" stop-color="white"/>
<stop offset="1" stop-color="white" stop-opacity="0"/>
</radialGradient>
<radialGradient id="paint11_radial_420_8947" cx="0" cy="0" r="1" gradientUnits="userSpaceOnUse" gradientTransform="translate(-80.8688 -1241.43) rotate(-95.8292) scale(15.5114 81.3585)">
<stop offset="0.51" stop-color="white"/>
<stop offset="1" stop-color="white" stop-opacity="0"/>
</radialGradient>
<radialGradient id="paint12_radial_420_8947" cx="0" cy="0" r="1" gradientUnits="userSpaceOnUse" gradientTransform="translate(16.2025 39.4134) rotate(-91.7603) scale(2.09269 1.00558)">
<stop offset="0.51" stop-color="white"/>
<stop offset="1" stop-color="white" stop-opacity="0"/>
</radialGradient>
</defs>
</svg>
