<svg width="155" height="87" viewBox="0 0 155 87" fill="none" xmlns="http://www.w3.org/2000/svg">
<path d="M149.995 47.1457C149.99 48.6361 149.963 50.1366 149.919 51.6271C149.838 54.578 149.691 57.5189 149.474 60.4598C149.355 62.1103 149.219 63.7709 149.056 65.4214C148.774 68.3223 147.09 70.8931 144.548 72.7437C142.181 74.7343 138.901 76.0447 135.197 76.2648C118.753 77.2451 36.2507 77.2451 19.8012 76.2648C16.0975 76.0447 12.8174 74.7243 10.4497 72.7437C7.91356 70.8931 6.23006 68.3223 5.94767 65.4214C5.84449 64.331 5.74673 63.2307 5.65441 62.1404C5.39374 58.9193 5.2091 55.6883 5.10592 52.4673C5.04618 50.6368 5.0136 48.8062 5.00817 46.9756C4.99731 45.6752 5.00817 44.3648 5.02989 43.0644V43.0144C5.06247 41.1338 5.11678 39.2532 5.19824 37.3726C5.26341 35.8721 5.34487 34.3717 5.44805 32.8712C5.58381 30.8406 5.75216 28.8099 5.94767 26.7893C6.0943 25.2588 6.63193 23.8284 7.47911 22.538C8.23397 21.3776 9.2495 20.3373 10.4497 19.467C12.8174 17.4764 16.0975 16.166 19.8012 15.9359C36.2507 14.9556 118.753 14.9556 135.197 15.9359C138.901 16.156 142.181 17.4764 144.548 19.467C146.08 20.5874 147.296 21.9578 148.084 23.5183C148.605 24.5386 148.942 25.6489 149.056 26.7993C149.262 28.93 149.442 31.0706 149.577 33.2013C149.68 34.8018 149.773 36.4123 149.833 38.0128C149.898 39.6333 149.947 41.2638 149.974 42.8843C149.995 44.3148 150.006 45.7352 149.995 47.1557V47.1457Z" fill="url(#paint0_radial_234_1069)"/>
<path d="M149.919 48.8762C149.876 50.4367 149.816 51.9972 149.735 53.5577C149.599 56.2185 149.414 58.8794 149.17 61.5402C149.132 61.9603 149.094 62.3805 149.05 62.8006C148.768 65.7015 147.085 68.2723 144.543 70.1229C142.175 72.1135 138.895 73.4239 135.191 73.654C118.747 74.6343 36.2451 74.6343 19.7957 73.654C16.092 73.4339 12.8119 72.1135 10.4441 70.1229C8.03293 68.3623 6.39831 65.9616 5.99644 63.2407C5.97472 63.1007 5.95843 62.9506 5.94213 62.8006C5.6706 60.0297 5.45881 57.2589 5.30675 54.488C5.20357 52.6574 5.12754 50.8168 5.07866 48.9863C5.00806 46.5955 4.98634 44.2048 5.00806 41.814V41.784C5.01349 41.1938 5.02436 40.6037 5.02979 40.0135C5.05694 38.3529 5.10581 36.6924 5.17641 35.0319C5.30675 31.981 5.50768 28.93 5.77921 25.8791C5.82809 25.3089 5.8824 24.7287 5.9367 24.1585C6.2191 21.2576 7.90259 18.6868 10.4387 16.8362C12.8065 14.8556 16.0866 13.5352 19.7903 13.3151C36.2397 12.3348 118.742 12.3348 135.186 13.3151C138.89 13.5352 142.17 14.8556 144.538 16.8362C147.074 18.6868 148.757 21.2576 149.045 24.1585C149.121 24.9188 149.186 25.679 149.251 26.4292C149.501 29.3101 149.686 32.191 149.811 35.0819C149.887 36.8725 149.936 38.663 149.963 40.4536C149.963 40.7437 149.974 41.0338 149.979 41.3239V41.4239C150.001 43.9047 149.979 46.3955 149.914 48.8762H149.919Z" fill="url(#paint1_radial_234_1069)"/>
<g style="mix-blend-mode:hard-light" opacity="0.2">
<path d="M149.051 21.5477C148.768 18.6468 147.085 16.076 144.549 14.2254C142.181 12.2348 138.901 10.9243 135.197 10.6943C118.753 9.71397 36.2453 9.71397 19.8013 10.6943C16.0976 10.9143 12.8175 12.2348 10.4497 14.2254C7.91359 16.076 6.23009 18.6468 5.94769 21.5477C4.69322 34.4317 4.69322 47.3057 5.94769 60.1897C6.23009 63.0906 7.91359 65.6615 10.4497 67.512C12.8175 69.5027 16.0976 70.8131 19.8013 71.0431C36.2453 72.0234 118.753 72.0234 135.197 71.0431C138.901 70.8231 142.181 69.5027 144.549 67.512C147.085 65.6615 148.768 63.0906 149.051 60.1897C150.305 47.3057 150.305 34.4317 149.051 21.5477Z" fill="white"/>
</g>
<path d="M149.637 51.7871C149.491 54.2679 149.295 56.7487 149.051 59.2294C148.768 62.1304 147.085 64.7012 144.549 66.5517C142.181 68.5424 138.901 69.8528 135.192 70.0828C118.748 71.0732 36.2401 71.0732 19.7961 70.0828C16.0924 69.8628 12.8123 68.5424 10.4445 66.5517C7.90842 64.7012 6.22492 62.1304 5.94253 59.2294C5.71987 56.9287 5.53523 54.638 5.3886 52.3373C4.72607 41.754 4.91071 31.1707 5.94253 20.5874C6.22492 17.6865 7.90842 15.1157 10.4445 13.2651C12.8123 11.2845 16.0924 9.96406 19.7961 9.73398C36.2455 8.75368 118.748 8.75368 135.197 9.74399C138.901 9.96406 142.181 11.2845 144.554 13.2751C147.09 15.1357 148.774 17.6965 149.056 20.5974C150.066 31.0006 150.267 41.3939 149.643 51.7971L149.637 51.7871Z" fill="url(#paint2_radial_234_1069)"/>
<g style="mix-blend-mode:overlay" opacity="0.8" filter="url(#filter0_f_234_1069)">
<path d="M12.2964 20.0772C14.5338 18.2466 17.6401 17.0263 21.1429 16.8162C36.6962 15.9059 118.303 15.9059 133.856 16.8162C137.359 17.0263 140.46 18.2366 142.702 20.0772C144.332 21.2476 145.591 22.718 146.314 24.3785C146.254 23.6983 146.2 23.0181 146.135 22.3279C145.874 19.6471 144.321 17.2763 141.975 15.5558C139.786 13.7252 136.756 12.5048 133.329 12.2948C118.129 11.3845 36.8755 11.3845 21.6751 12.2948C18.2484 12.5048 15.2181 13.7152 13.0295 15.5558C10.6835 17.2763 9.13031 19.6471 8.86964 22.3279C8.80447 23.0081 8.75017 23.6883 8.69043 24.3785C9.41271 22.718 10.6672 21.2476 12.3018 20.0772H12.2964Z" fill="url(#paint3_linear_234_1069)"/>
</g>
<g style="mix-blend-mode:soft-light" opacity="0.75" filter="url(#filter1_f_234_1069)">
<path d="M143.984 51.6271C141.654 53.5777 138.428 54.8781 134.784 55.0982C118.612 56.0685 36.3808 56.0685 20.2084 55.0982C16.5644 54.8781 13.3386 53.5877 11.0089 51.6271C10.6287 51.347 10.2703 51.0569 9.93359 50.7468C10.0639 52.8275 10.2268 54.9081 10.4278 56.9788C10.6776 59.5396 12.1656 61.8103 14.4084 63.4508C16.4992 65.2013 19.3992 66.3717 22.6739 66.5618C37.2063 67.432 117.792 67.432 132.324 66.5618C135.599 66.3617 138.493 65.2013 140.589 63.4508C142.832 61.8103 144.32 59.5396 144.57 56.9788C144.771 54.8981 144.939 52.8175 145.064 50.7468C144.728 51.0569 144.369 51.347 143.989 51.6271H143.984Z" fill="url(#paint4_linear_234_1069)"/>
</g>
<path style="mix-blend-mode:overlay" opacity="0.6" d="M149.99 40.4636C149.99 40.7437 149.99 41.0338 149.99 41.3139V41.4139C149.99 41.9041 149.979 42.3842 149.974 42.8744C149.952 44.2648 149.92 45.6552 149.871 47.0357C149.849 47.6058 149.827 48.176 149.806 48.7462C149.768 49.6365 149.719 50.5268 149.664 51.417C149.659 51.5371 149.654 51.6671 149.643 51.7872C149.089 51.9372 148.54 52.0972 147.986 52.2373C145.081 53.0175 142.17 53.7078 139.265 54.3079C138.238 54.518 137.212 54.7181 136.186 54.9181C118.731 58.1791 35.1973 58.2992 17.6998 55.1182C16.7711 54.9481 15.8425 54.7681 14.9084 54.588C12.2909 54.0579 9.66785 53.4577 7.04485 52.7775C6.49093 52.6374 5.94243 52.4874 5.38851 52.3373C5.38851 52.2873 5.38307 52.2273 5.37764 52.1773C5.31248 51.0669 5.24731 49.9466 5.20386 48.8362C5.17128 48.176 5.14956 47.5258 5.12784 46.8656C5.08439 45.6052 5.05181 44.3348 5.03008 43.0744V43.0244C5.02465 42.6243 5.01922 42.2242 5.01379 41.814V41.784C5.00836 41.2038 5.00293 40.6237 5.00293 40.0435C5.00293 39.2032 5.00836 38.353 5.01922 37.5127C5.03008 36.7324 5.04094 35.9422 5.06267 35.162C5.07353 34.4917 5.09525 33.8315 5.1224 33.1613C5.20386 30.8006 5.32334 28.4399 5.49169 26.0791C5.55142 25.2389 5.61116 24.3986 5.68176 23.5583C5.75779 22.568 5.85011 21.5777 5.94786 20.5874C6.23025 17.6865 7.91375 15.1157 10.4499 13.2651C12.8176 11.2845 16.0977 9.96408 19.8014 9.74401C36.2454 8.7537 118.748 8.7537 135.192 9.74401C138.901 9.96408 142.181 11.2845 144.549 13.2651C147.085 15.1257 148.768 17.6965 149.051 20.5874C149.17 21.8078 149.279 23.0182 149.371 24.2385C149.431 25.0288 149.491 25.819 149.539 26.6093C149.697 28.89 149.806 31.1607 149.882 33.4314C149.903 34.0116 149.914 34.5918 149.93 35.172C149.952 36.1523 149.968 37.1226 149.979 38.1129C149.985 38.8931 149.985 39.6734 149.979 40.4636H149.99Z" fill="url(#paint5_radial_234_1069)"/>
<g style="mix-blend-mode:soft-light" opacity="0.6">
<path d="M126.644 18.9669C126.666 22.7581 115.223 20.3574 74.2384 20.3574C40.6227 20.3574 27.8987 22.8681 27.877 19.077C27.8553 15.2858 40.1339 12.1648 74.8846 12.1648C114.735 12.1648 126.622 15.1757 126.644 18.9669Z" fill="white"/>
</g>
<path d="M132.394 14.9507C132.41 14.2883 131.387 13.6708 130.111 13.5714C128.834 13.472 127.787 13.9284 127.772 14.5908C127.756 15.2532 128.779 15.8707 130.056 15.97C131.332 16.0694 132.379 15.613 132.394 14.9507Z" fill="url(#paint6_radial_234_1069)"/>
<path d="M135.679 15.5122C135.687 15.159 135.138 14.8293 134.452 14.7759C133.765 14.7225 133.202 14.9655 133.194 15.3188C133.186 15.672 133.736 16.0017 134.422 16.0552C135.108 16.1086 135.671 15.8655 135.679 15.5122Z" fill="url(#paint7_radial_234_1069)"/>
<path d="M145.156 54.7181C145.156 56.6487 144.027 58.2092 143.37 58.2092C142.713 58.2092 143.571 57.0688 143.571 55.1382C143.571 53.2076 142.713 51.227 143.37 51.227C144.027 51.227 145.156 52.7875 145.156 54.7181Z" fill="url(#paint8_radial_234_1069)"/>
<path d="M144.34 23.662C144.433 22.5816 143.737 21.4811 142.786 21.204C141.835 20.9269 140.989 21.5781 140.897 22.6585C140.804 23.7389 141.499 24.8395 142.45 25.1166C143.401 25.3937 144.247 24.7425 144.34 23.662Z" fill="url(#paint9_radial_234_1069)"/>
<path d="M144.308 27.2461C144.358 26.6677 143.983 26.0777 143.47 25.9284C142.958 25.779 142.502 26.1268 142.452 26.7053C142.403 27.2837 142.778 27.8736 143.29 28.023C143.803 28.1723 144.259 27.8245 144.308 27.2461Z" fill="url(#paint10_radial_234_1069)"/>
<path d="M125.677 13.7853C125.704 14.2755 29.5818 14.6156 25.3839 15.1357C16.8632 16.1861 18.7531 20.2273 17.5366 20.1673C16.3201 20.1073 15.3969 14.8156 25.2427 14.0554C33.9643 13.3852 125.65 13.2951 125.677 13.7853Z" fill="url(#paint11_radial_234_1069)"/>
<path d="M17.3332 25.3609C17.7012 24.3788 17.6093 23.0866 17.1279 22.4747C16.6466 21.8628 15.9581 22.1629 15.5901 23.1451C15.2221 24.1272 15.314 25.4194 15.7954 26.0313C16.2768 26.6432 16.9653 26.3431 17.3332 25.3609Z" fill="url(#paint12_radial_234_1069)"/>
<path d="M47.5124 37.874C47.0324 37.982 46.5404 38.054 46.0364 38.09C45.5444 38.138 45.0584 38.162 44.5784 38.162C44.1104 38.162 43.7444 38.15 43.4804 38.126C43.2284 38.102 42.8924 38.042 42.4724 37.946C42.0524 37.85 41.6684 37.718 41.3204 37.55C40.9724 37.382 40.6004 37.136 40.2044 36.812C39.8204 36.488 39.4964 36.104 39.2324 35.66C38.6204 34.628 38.3144 33.296 38.3144 31.664C38.3144 30.572 38.4824 29.606 38.8184 28.766C39.1664 27.926 39.5804 27.278 40.0604 26.822C40.5524 26.366 41.1104 26 41.7344 25.724C42.7424 25.268 43.7564 25.04 44.7764 25.04C46.2404 25.04 47.2904 25.16 47.9264 25.4C48.2144 25.508 48.4724 25.676 48.7004 25.904C48.9284 26.132 49.0424 26.462 49.0424 26.894C49.0424 27.326 48.9344 27.872 48.7184 28.532C48.5144 29.192 48.2144 29.522 47.8184 29.522C47.6984 29.522 47.2544 29.426 46.4864 29.234C45.7184 29.042 45.1964 28.946 44.9204 28.946C44.5004 28.946 44.1404 29.18 43.8404 29.648C43.5524 30.116 43.4084 30.782 43.4084 31.646C43.4084 32.51 43.5344 33.182 43.7864 33.662C44.0504 34.142 44.3924 34.382 44.8124 34.382C45.1124 34.382 45.6524 34.262 46.4324 34.022C47.2244 33.77 47.6864 33.644 47.8184 33.644C48.1904 33.644 48.4784 33.986 48.6824 34.67C48.8984 35.354 49.0064 35.906 49.0064 36.326C49.0064 36.746 48.8744 37.082 48.6104 37.334C48.3584 37.574 47.9924 37.754 47.5124 37.874ZM55.7609 38.162C54.8609 38.162 54.0869 38.084 53.4389 37.928C52.7909 37.772 52.2029 37.496 51.6749 37.1C50.5829 36.308 50.0369 34.832 50.0369 32.672C50.0369 30.752 50.5949 29.378 51.7109 28.55C52.7549 27.782 54.1049 27.398 55.7609 27.398C56.4689 27.398 57.0749 27.434 57.5789 27.506C58.0829 27.566 58.5929 27.704 59.1089 27.92C59.6369 28.136 60.0569 28.43 60.3689 28.802C60.6929 29.174 60.9569 29.69 61.1609 30.35C61.3649 30.998 61.4669 31.772 61.4669 32.672C61.4669 34.496 60.9509 35.87 59.9189 36.794C58.8869 37.706 57.5009 38.162 55.7609 38.162ZM55.1309 34.652C55.2149 35.084 55.2989 35.342 55.3829 35.426C55.4789 35.51 55.5989 35.552 55.7429 35.552C55.8989 35.552 56.0189 35.51 56.1029 35.426C56.1989 35.342 56.2829 35.084 56.3549 34.652C56.4389 34.22 56.4809 33.68 56.4809 33.032C56.4809 32.372 56.4629 31.868 56.4269 31.52C56.4029 31.16 56.3669 30.884 56.3189 30.692C56.2829 30.5 56.2289 30.35 56.1569 30.242C56.0489 30.086 55.9169 30.008 55.7609 30.008C55.6169 30.008 55.4969 30.056 55.4009 30.152C55.3049 30.236 55.2149 30.5 55.1309 30.944C55.0469 31.376 55.0049 31.994 55.0049 32.798C55.0049 33.602 55.0469 34.22 55.1309 34.652ZM73.3932 32.024V37.568C73.3932 37.7 73.0512 37.808 72.3672 37.892C71.6832 37.964 70.9752 38 70.2432 38C69.5232 38 69.0552 37.97 68.8392 37.91C68.6352 37.838 68.5332 37.724 68.5332 37.568V31.844C68.5332 31.304 68.5092 30.95 68.4612 30.782C68.4252 30.614 68.3892 30.464 68.3532 30.332C68.2692 30.104 68.1192 29.99 67.9032 29.99C67.5672 29.99 67.3992 30.152 67.3992 30.476V37.568C67.3992 37.7 67.0572 37.808 66.3732 37.892C65.7012 37.964 64.9992 38 64.2672 38C63.5472 38 63.0792 37.97 62.8632 37.91C62.6472 37.838 62.5392 37.724 62.5392 37.568V28.694C62.5392 28.442 62.8812 28.19 63.5652 27.938C64.2612 27.686 64.9932 27.56 65.7612 27.56C66.5292 27.56 66.9612 27.782 67.0572 28.226L67.2192 29.018H67.3452C67.6932 28.322 68.2932 27.836 69.1452 27.56C69.4932 27.452 69.8772 27.398 70.2972 27.398C71.5092 27.398 72.3252 27.764 72.7452 28.496C73.1772 29.216 73.3932 30.392 73.3932 32.024ZM85.5045 32.024V37.568C85.5045 37.7 85.1625 37.808 84.4785 37.892C83.7945 37.964 83.0865 38 82.3545 38C81.6345 38 81.1665 37.97 80.9505 37.91C80.7465 37.838 80.6445 37.724 80.6445 37.568V31.844C80.6445 31.304 80.6205 30.95 80.5725 30.782C80.5365 30.614 80.5005 30.464 80.4645 30.332C80.3805 30.104 80.2305 29.99 80.0145 29.99C79.6785 29.99 79.5105 30.152 79.5105 30.476V37.568C79.5105 37.7 79.1685 37.808 78.4845 37.892C77.8125 37.964 77.1105 38 76.3785 38C75.6585 38 75.1905 37.97 74.9745 37.91C74.7585 37.838 74.6505 37.724 74.6505 37.568V28.694C74.6505 28.442 74.9925 28.19 75.6765 27.938C76.3725 27.686 77.1045 27.56 77.8725 27.56C78.6405 27.56 79.0725 27.782 79.1685 28.226L79.3305 29.018H79.4565C79.8045 28.322 80.4045 27.836 81.2565 27.56C81.6045 27.452 81.9885 27.398 82.4085 27.398C83.6205 27.398 84.4365 27.764 84.8565 28.496C85.2885 29.216 85.5045 30.392 85.5045 32.024ZM91.4958 33.932C91.4958 34.712 91.8678 35.102 92.6118 35.102C93.0438 35.102 93.6078 34.958 94.3038 34.67C94.9998 34.37 95.3658 34.22 95.4018 34.22C95.6298 34.22 95.9298 34.562 96.3018 35.246C96.6738 35.93 96.8598 36.434 96.8598 36.758C96.8598 37.226 96.3798 37.58 95.4198 37.82C94.4598 38.06 93.5178 38.18 92.5938 38.18C91.6818 38.18 90.9138 38.108 90.2898 37.964C89.6778 37.82 89.1738 37.64 88.7778 37.424C88.3938 37.196 88.0518 36.92 87.7518 36.596C87.4638 36.272 87.2478 35.966 87.1038 35.678C86.9598 35.378 86.8458 35.048 86.7618 34.688C86.6418 34.16 86.5818 33.614 86.5818 33.05C86.5818 30.866 87.1518 29.36 88.2918 28.532C88.8558 28.112 89.4858 27.818 90.1818 27.65C90.8778 27.482 91.6998 27.398 92.6478 27.398C95.6838 27.398 97.2018 28.454 97.2018 30.566C97.2018 32.81 95.4978 33.932 92.0898 33.932H91.4958ZM91.4598 31.304V32.492C91.8078 32.492 92.0898 32.354 92.3058 32.078C92.5338 31.802 92.6478 31.466 92.6478 31.07C92.6478 30.35 92.4618 29.99 92.0898 29.99C91.6698 29.99 91.4598 30.428 91.4598 31.304ZM100.598 37.694C100.31 37.562 99.9975 37.364 99.6615 37.1C99.3375 36.836 99.0675 36.524 98.8515 36.164C98.3475 35.3 98.0955 34.172 98.0955 32.78C98.0955 31.916 98.2335 31.148 98.5095 30.476C98.7855 29.792 99.1215 29.264 99.5175 28.892C99.9135 28.52 100.37 28.214 100.886 27.974C101.714 27.59 102.542 27.398 103.37 27.398C104.762 27.398 105.728 27.506 106.268 27.722C106.82 27.938 107.096 28.304 107.096 28.82C107.096 29.336 107 29.888 106.808 30.476C106.628 31.052 106.388 31.34 106.088 31.34C105.992 31.34 105.698 31.238 105.206 31.034C104.726 30.83 104.306 30.728 103.946 30.728C103.598 30.728 103.328 30.872 103.136 31.16C102.956 31.436 102.866 31.982 102.866 32.798C102.866 33.602 102.95 34.154 103.118 34.454C103.286 34.742 103.544 34.886 103.892 34.886C104.252 34.886 104.696 34.766 105.224 34.526C105.752 34.286 106.046 34.166 106.106 34.166C106.334 34.166 106.55 34.436 106.754 34.976C106.97 35.516 107.078 35.996 107.078 36.416C107.078 37.064 106.742 37.52 106.07 37.784C105.398 38.036 104.486 38.162 103.334 38.162C102.194 38.162 101.282 38.006 100.598 37.694ZM115.246 37.838C115.03 38.042 114.538 38.144 113.77 38.144C113.002 38.144 112.366 38.096 111.862 38C111.358 37.892 110.878 37.688 110.422 37.388C109.546 36.8 109.108 35.576 109.108 33.716V30.908H108.208C108.076 30.908 107.962 30.77 107.866 30.494C107.77 30.218 107.722 29.84 107.722 29.36C107.722 28.88 107.794 28.46 107.938 28.1C108.094 27.728 108.292 27.542 108.532 27.542H109.108V25.364C109.108 24.992 109.468 24.692 110.188 24.464C110.92 24.236 111.634 24.122 112.33 24.122C113.422 24.122 113.968 24.392 113.968 24.932V27.542H115.3C115.612 27.542 115.768 27.992 115.768 28.892C115.768 29.48 115.696 29.966 115.552 30.35C115.42 30.722 115.246 30.908 115.03 30.908H113.968V34.202C113.968 34.526 114.106 34.76 114.382 34.904C114.658 35.036 114.898 35.102 115.102 35.102C115.318 35.102 115.45 35.204 115.498 35.408C115.546 35.612 115.57 35.918 115.57 36.326C115.57 37.13 115.462 37.634 115.246 37.838ZM51.337 59C50.761 59 50.383 58.958 50.203 58.874C50.023 58.79 49.897 58.646 49.825 58.442L45.847 47.462C45.847 47.234 46.273 46.97 47.125 46.67C47.989 46.37 48.859 46.22 49.735 46.22C50.863 46.22 51.463 46.574 51.535 47.282L52.147 52.988H52.399L52.903 47.282C52.963 46.574 53.773 46.22 55.333 46.22C55.933 46.22 56.335 46.304 56.539 46.472C56.743 46.628 56.857 46.838 56.881 47.102L57.475 52.988H57.727L58.195 47.282C58.231 46.934 58.639 46.67 59.419 46.49C60.211 46.31 60.991 46.22 61.759 46.22C62.539 46.22 63.067 46.334 63.343 46.562C63.631 46.79 63.775 47.03 63.775 47.282L59.923 58.442C59.791 58.814 58.903 59 57.259 59C56.767 59 56.437 58.958 56.269 58.874C56.101 58.79 55.987 58.646 55.927 58.442L54.991 55.31H54.775L53.821 58.442C53.713 58.814 52.885 59 51.337 59ZM67.9982 59.162C66.9062 59.162 66.0482 58.904 65.4242 58.388C65.1722 58.172 64.9502 57.854 64.7582 57.434C64.5782 57.014 64.4882 56.522 64.4882 55.958C64.4882 55.394 64.6202 54.902 64.8842 54.482C65.1602 54.062 65.4902 53.738 65.8742 53.51C66.2582 53.282 66.7082 53.096 67.2242 52.952C68.0042 52.748 68.8622 52.646 69.7982 52.646H70.3922C70.3922 52.154 70.2242 51.806 69.8882 51.602C69.7442 51.518 69.5222 51.476 69.2222 51.476C68.9342 51.476 68.5802 51.554 68.1602 51.71C67.7522 51.866 67.4102 52.028 67.1342 52.196C66.8582 52.352 66.6722 52.43 66.5762 52.43C66.3602 52.43 66.0662 52.148 65.6942 51.584C65.3222 51.008 65.1362 50.486 65.1362 50.018C65.1362 49.862 65.3582 49.658 65.8022 49.406C66.2462 49.154 66.8702 48.926 67.6742 48.722C68.4902 48.506 69.2822 48.398 70.0502 48.398C70.8182 48.398 71.4782 48.464 72.0302 48.596C72.5942 48.716 73.0502 48.866 73.3982 49.046C73.7582 49.226 74.0582 49.466 74.2982 49.766C74.5502 50.066 74.7362 50.336 74.8562 50.576C74.9882 50.816 75.0842 51.128 75.1442 51.512C75.2282 51.956 75.2702 52.502 75.2702 53.15V58.568C75.2702 58.7 74.9462 58.808 74.2982 58.892C73.6622 58.964 73.0262 59 72.3902 59C71.7662 59 71.3582 58.982 71.1662 58.946C70.9862 58.91 70.8782 58.868 70.8422 58.82C70.8062 58.772 70.7762 58.688 70.7522 58.568L70.6082 57.542H70.4642C70.1642 58.622 69.3422 59.162 67.9982 59.162ZM70.4102 56.174V54.068C70.0982 54.068 69.8462 54.2 69.6542 54.464C69.4622 54.728 69.3662 55.028 69.3662 55.364C69.3662 56.156 69.5462 56.552 69.9062 56.552C70.0622 56.552 70.1822 56.516 70.2662 56.444C70.3622 56.36 70.4102 56.27 70.4102 56.174ZM81.3914 45.788V58.568C81.3914 58.7 81.0494 58.808 80.3654 58.892C79.6814 58.964 78.9734 59 78.2414 59C77.5214 59 77.0534 58.97 76.8374 58.91C76.6334 58.838 76.5314 58.724 76.5314 58.568V46.112C76.5314 45.848 76.8674 45.59 77.5394 45.338C78.2234 45.086 78.9554 44.96 79.7354 44.96C80.8394 44.96 81.3914 45.236 81.3914 45.788ZM87.5086 45.788V58.568C87.5086 58.7 87.1666 58.808 86.4826 58.892C85.7986 58.964 85.0906 59 84.3586 59C83.6386 59 83.1706 58.97 82.9546 58.91C82.7506 58.838 82.6486 58.724 82.6486 58.568V46.112C82.6486 45.848 82.9846 45.59 83.6566 45.338C84.3406 45.086 85.0726 44.96 85.8526 44.96C86.9566 44.96 87.5086 45.236 87.5086 45.788ZM93.4997 54.932C93.4997 55.712 93.8717 56.102 94.6157 56.102C95.0477 56.102 95.6117 55.958 96.3077 55.67C97.0037 55.37 97.3697 55.22 97.4057 55.22C97.6337 55.22 97.9337 55.562 98.3057 56.246C98.6777 56.93 98.8637 57.434 98.8637 57.758C98.8637 58.226 98.3837 58.58 97.4237 58.82C96.4637 59.06 95.5217 59.18 94.5977 59.18C93.6857 59.18 92.9177 59.108 92.2937 58.964C91.6817 58.82 91.1777 58.64 90.7817 58.424C90.3977 58.196 90.0557 57.92 89.7557 57.596C89.4677 57.272 89.2517 56.966 89.1077 56.678C88.9637 56.378 88.8497 56.048 88.7657 55.688C88.6457 55.16 88.5857 54.614 88.5857 54.05C88.5857 51.866 89.1557 50.36 90.2957 49.532C90.8597 49.112 91.4897 48.818 92.1857 48.65C92.8817 48.482 93.7037 48.398 94.6517 48.398C97.6877 48.398 99.2057 49.454 99.2057 51.566C99.2057 53.81 97.5017 54.932 94.0937 54.932H93.4997ZM93.4637 52.304V53.492C93.8117 53.492 94.0937 53.354 94.3097 53.078C94.5377 52.802 94.6517 52.466 94.6517 52.07C94.6517 51.35 94.4657 50.99 94.0937 50.99C93.6737 50.99 93.4637 51.428 93.4637 52.304ZM107.353 58.838C107.137 59.042 106.645 59.144 105.877 59.144C105.109 59.144 104.473 59.096 103.969 59C103.465 58.892 102.985 58.688 102.529 58.388C101.653 57.8 101.215 56.576 101.215 54.716V51.908H100.315C100.183 51.908 100.069 51.77 99.9734 51.494C99.8774 51.218 99.8294 50.84 99.8294 50.36C99.8294 49.88 99.9014 49.46 100.045 49.1C100.201 48.728 100.399 48.542 100.639 48.542H101.215V46.364C101.215 45.992 101.575 45.692 102.295 45.464C103.027 45.236 103.741 45.122 104.437 45.122C105.529 45.122 106.075 45.392 106.075 45.932V48.542H107.407C107.719 48.542 107.875 48.992 107.875 49.892C107.875 50.48 107.803 50.966 107.659 51.35C107.527 51.722 107.353 51.908 107.137 51.908H106.075V55.202C106.075 55.526 106.213 55.76 106.489 55.904C106.765 56.036 107.005 56.102 107.209 56.102C107.425 56.102 107.557 56.204 107.605 56.408C107.653 56.612 107.677 56.918 107.677 57.326C107.677 58.13 107.569 58.634 107.353 58.838Z" fill="white"/>
<defs>
<filter id="filter0_f_234_1069" x="0.69043" y="3.61206" width="153.623" height="28.7665" filterUnits="userSpaceOnUse" color-interpolation-filters="sRGB">
<feFlood flood-opacity="0" result="BackgroundImageFix"/>
<feBlend mode="normal" in="SourceGraphic" in2="BackgroundImageFix" result="shape"/>
<feGaussianBlur stdDeviation="4" result="effect1_foregroundBlur_234_1069"/>
</filter>
<filter id="filter1_f_234_1069" x="1.93359" y="42.7468" width="151.131" height="32.4677" filterUnits="userSpaceOnUse" color-interpolation-filters="sRGB">
<feFlood flood-opacity="0" result="BackgroundImageFix"/>
<feBlend mode="normal" in="SourceGraphic" in2="BackgroundImageFix" result="shape"/>
<feGaussianBlur stdDeviation="4" result="effect1_foregroundBlur_234_1069"/>
</filter>
<radialGradient id="paint0_radial_234_1069" cx="0" cy="0" r="1" gradientUnits="userSpaceOnUse" gradientTransform="translate(77.4631 46.0109) scale(66.8705 52.1467)">
<stop/>
<stop offset="0.84" stop-opacity="0.2"/>
</radialGradient>
<radialGradient id="paint1_radial_234_1069" cx="0" cy="0" r="1" gradientUnits="userSpaceOnUse" gradientTransform="translate(77.463 43.3827) scale(66.8705 52.1467)">
<stop stop-color="#CF3101"/>
<stop offset="0.04" stop-color="#F79422"/>
<stop offset="0.98" stop-color="#CF3101"/>
</radialGradient>
<radialGradient id="paint2_radial_234_1069" cx="0" cy="0" r="1" gradientUnits="userSpaceOnUse" gradientTransform="translate(77.7687 34.4879) rotate(-91.3742) scale(53.2994 70.9407)">
<stop stop-color="#CF3101"/>
<stop offset="0.0001" stop-color="#F89D02"/>
<stop offset="0.98" stop-color="#CF3101"/>
</radialGradient>
<linearGradient id="paint3_linear_234_1069" x1="77.4967" y1="24.3785" x2="77.4967" y2="11.6146" gradientUnits="userSpaceOnUse">
<stop stop-color="white" stop-opacity="0"/>
<stop offset="1" stop-color="white"/>
</linearGradient>
<linearGradient id="paint4_linear_234_1069" x1="77.4962" y1="67.222" x2="77.4962" y2="50.7468" gradientUnits="userSpaceOnUse">
<stop/>
<stop offset="0.09" stop-color="#0C0C0C"/>
<stop offset="0.24" stop-color="#2C2C2C"/>
<stop offset="0.46" stop-color="#616161"/>
<stop offset="0.71" stop-color="#AAAAAA"/>
<stop offset="0.98" stop-color="white"/>
</linearGradient>
<radialGradient id="paint5_radial_234_1069" cx="0" cy="0" r="1" gradientUnits="userSpaceOnUse" gradientTransform="translate(78.0213 22.0205) scale(69.1993 53.9627)">
<stop stop-color="white"/>
<stop offset="1" stop-color="white" stop-opacity="0"/>
</radialGradient>
<radialGradient id="paint6_radial_234_1069" cx="0" cy="0" r="1" gradientUnits="userSpaceOnUse" gradientTransform="translate(663.05 76.1623) rotate(-171.063) scale(1.14282 2.26321)">
<stop offset="0.51" stop-color="white"/>
<stop offset="1" stop-color="white" stop-opacity="0"/>
</radialGradient>
<radialGradient id="paint7_radial_234_1069" cx="0" cy="0" r="1" gradientUnits="userSpaceOnUse" gradientTransform="translate(665.976 76.5961) rotate(-171.063) scale(0.613477 1.21491)">
<stop offset="0.51" stop-color="white"/>
<stop offset="1" stop-color="white" stop-opacity="0"/>
</radialGradient>
<radialGradient id="paint8_radial_234_1069" cx="0" cy="0" r="1" gradientUnits="userSpaceOnUse" gradientTransform="translate(133.179 9.36945) rotate(-91.5971) scale(3.49974 1.69202)">
<stop stop-color="white"/>
<stop offset="1" stop-color="white" stop-opacity="0"/>
</radialGradient>
<radialGradient id="paint9_radial_234_1069" cx="0" cy="0" r="1" gradientUnits="userSpaceOnUse" gradientTransform="translate(334.227 1055.28) rotate(-100.424) scale(1.01406 3.19345)">
<stop offset="0.51" stop-color="white"/>
<stop offset="1" stop-color="white" stop-opacity="0"/>
</radialGradient>
<radialGradient id="paint10_radial_234_1069" cx="0" cy="0" r="1" gradientUnits="userSpaceOnUse" gradientTransform="translate(334.07 1053.72) rotate(-100.424) scale(0.544741 1.71549)">
<stop offset="0.51" stop-color="white"/>
<stop offset="1" stop-color="white" stop-opacity="0"/>
</radialGradient>
<radialGradient id="paint11_radial_234_1069" cx="0" cy="0" r="1" gradientUnits="userSpaceOnUse" gradientTransform="translate(-80.8688 -1241.94) rotate(-95.8292) scale(15.5114 81.3585)">
<stop offset="0.51" stop-color="white"/>
<stop offset="1" stop-color="white" stop-opacity="0"/>
</radialGradient>
<radialGradient id="paint12_radial_234_1069" cx="0" cy="0" r="1" gradientUnits="userSpaceOnUse" gradientTransform="translate(16.2025 38.8975) rotate(-91.7603) scale(2.09269 1.00558)">
<stop offset="0.51" stop-color="white"/>
<stop offset="1" stop-color="white" stop-opacity="0"/>
</radialGradient>
</defs>
</svg>
