<svg width="155" height="87" viewBox="0 0 155 87" fill="none" xmlns="http://www.w3.org/2000/svg">
<path d="M149.995 47.6617C149.99 49.1521 149.963 50.6526 149.919 52.1431C149.838 55.094 149.691 58.0349 149.474 60.9758C149.355 62.6263 149.219 64.2869 149.056 65.9374C148.774 68.8383 147.09 71.4091 144.548 73.2597C142.181 75.2503 138.901 76.5607 135.197 76.7808C118.753 77.7611 36.2507 77.7611 19.8012 76.7808C16.0975 76.5607 12.8174 75.2403 10.4497 73.2597C7.91356 71.4091 6.23006 68.8383 5.94767 65.9374C5.84449 64.847 5.74673 63.7467 5.65441 62.6563C5.39374 59.4353 5.2091 56.2043 5.10592 52.9833C5.04618 51.1527 5.0136 49.3222 5.00817 47.4916C4.99731 46.1912 5.00817 44.8808 5.02989 43.5804V43.5304C5.06247 41.6498 5.11678 39.7692 5.19824 37.8886C5.26341 36.3881 5.34487 34.8877 5.44805 33.3872C5.58381 31.3566 5.75216 29.3259 5.94767 27.3053C6.0943 25.7748 6.63193 24.3444 7.47911 23.054C8.23397 21.8936 9.2495 20.8533 10.4497 19.983C12.8174 17.9924 16.0975 16.682 19.8012 16.4519C36.2507 15.4716 118.753 15.4716 135.197 16.4519C138.901 16.672 142.181 17.9924 144.548 19.983C146.08 21.1034 147.296 22.4738 148.084 24.0343C148.605 25.0546 148.942 26.1649 149.056 27.3153C149.262 29.446 149.442 31.5866 149.577 33.7173C149.68 35.3178 149.773 36.9283 149.833 38.5288C149.898 40.1493 149.947 41.7798 149.974 43.4003C149.995 44.8308 150.006 46.2512 149.995 47.6717V47.6617Z" fill="url(#paint0_radial_420_8947)"/>
<path d="M149.919 49.3922C149.876 50.9527 149.816 52.5132 149.735 54.0737C149.599 56.7345 149.414 59.3954 149.17 62.0562C149.132 62.4763 149.094 62.8964 149.05 63.3166C148.768 66.2175 147.085 68.7883 144.543 70.6389C142.175 72.6295 138.895 73.9399 135.191 74.17C118.747 75.1503 36.2451 75.1503 19.7957 74.17C16.092 73.9499 12.8119 72.6295 10.4441 70.6389C8.03293 68.8783 6.39831 66.4776 5.99644 63.7567C5.97472 63.6167 5.95843 63.4666 5.94213 63.3166C5.6706 60.5457 5.45881 57.7748 5.30675 55.004C5.20357 53.1734 5.12754 51.3328 5.07866 49.5023C5.00806 47.1115 4.98634 44.7208 5.00806 42.33V42.3C5.01349 41.7098 5.02436 41.1196 5.02979 40.5295C5.05694 38.8689 5.10581 37.2084 5.17641 35.5479C5.30675 32.4969 5.50768 29.446 5.77921 26.395C5.82809 25.8249 5.8824 25.2447 5.9367 24.6745C6.2191 21.7736 7.90259 19.2028 10.4387 17.3522C12.8065 15.3716 16.0866 14.0512 19.7903 13.8311C36.2397 12.8508 118.742 12.8508 135.186 13.8311C138.89 14.0512 142.17 15.3716 144.538 17.3522C147.074 19.2028 148.757 21.7736 149.045 24.6745C149.121 25.4347 149.186 26.195 149.251 26.9452C149.501 29.8261 149.686 32.707 149.811 35.5979C149.887 37.3885 149.936 39.179 149.963 40.9696C149.963 41.2597 149.974 41.5498 149.979 41.8399V41.9399C150.001 44.4207 149.979 46.9115 149.914 49.3922H149.919Z" fill="url(#paint1_radial_420_8947)"/>
<g style="mix-blend-mode:hard-light" opacity="0.2">
<path d="M149.051 22.0637C148.768 19.1628 147.085 16.5919 144.549 14.7414C142.181 12.7507 138.901 11.4403 135.197 11.2103C118.753 10.23 36.2453 10.23 19.8013 11.2103C16.0976 11.4303 12.8175 12.7507 10.4497 14.7414C7.91359 16.5919 6.23009 19.1628 5.94769 22.0637C4.69322 34.9477 4.69322 47.8217 5.94769 60.7057C6.23009 63.6066 7.91359 66.1774 10.4497 68.028C12.8175 70.0186 16.0976 71.3291 19.8013 71.5591C36.2453 72.5394 118.753 72.5394 135.197 71.5591C138.901 71.3391 142.181 70.0186 144.549 68.028C147.085 66.1774 148.768 63.6066 149.051 60.7057C150.305 47.8217 150.305 34.9477 149.051 22.0637Z" fill="white"/>
</g>
<path d="M149.637 52.3031C149.491 54.7839 149.295 57.2647 149.051 59.7454C148.768 62.6463 147.085 65.2171 144.549 67.0677C142.181 69.0583 138.901 70.3688 135.192 70.5988C118.748 71.5891 36.2401 71.5891 19.7961 70.5988C16.0924 70.3788 12.8123 69.0583 10.4445 67.0677C7.90842 65.2171 6.22492 62.6463 5.94253 59.7454C5.71987 57.4447 5.53523 55.154 5.3886 52.8533C4.72607 42.27 4.91071 31.6867 5.94253 21.1034C6.22492 18.2025 7.90842 15.6317 10.4445 13.7811C12.8123 11.8005 16.0924 10.48 19.7961 10.25C36.2455 9.26967 118.748 9.26967 135.197 10.26C138.901 10.48 142.181 11.8005 144.554 13.7911C147.09 15.6517 148.774 18.2125 149.056 21.1134C150.066 31.5166 150.267 41.9099 149.643 52.3131L149.637 52.3031Z" fill="url(#paint2_radial_420_8947)"/>
<g style="mix-blend-mode:overlay" opacity="0.8" filter="url(#filter0_f_420_8947)">
<path d="M12.2964 20.5932C14.5338 18.7626 17.6401 17.5422 21.1429 17.3322C36.6962 16.4219 118.302 16.4219 133.856 17.3322C137.359 17.5422 140.46 18.7526 142.702 20.5932C144.332 21.7636 145.591 23.234 146.314 24.8945C146.254 24.2143 146.2 23.5341 146.135 22.8439C145.874 20.1631 144.321 17.7923 141.975 16.0718C139.786 14.2412 136.756 13.0208 133.329 12.8108C118.129 11.9005 36.8755 11.9005 21.6751 12.8108C18.2484 13.0208 15.2181 14.2312 13.0295 16.0718C10.6835 17.7923 9.13031 20.1631 8.86964 22.8439C8.80447 23.5241 8.75017 24.2043 8.69043 24.8945C9.41271 23.234 10.6672 21.7636 12.3018 20.5932H12.2964Z" fill="url(#paint3_linear_420_8947)"/>
</g>
<g style="mix-blend-mode:soft-light" opacity="0.75" filter="url(#filter1_f_420_8947)">
<path d="M143.984 52.1431C141.654 54.0937 138.428 55.3941 134.784 55.6142C118.612 56.5845 36.3808 56.5845 20.2084 55.6142C16.5644 55.3941 13.3386 54.1037 11.0089 52.1431C10.6287 51.863 10.2703 51.5729 9.93359 51.2628C10.0639 53.3435 10.2268 55.4241 10.4278 57.4948C10.6776 60.0556 12.1656 62.3263 14.4084 63.9668C16.4992 65.7173 19.3992 66.8877 22.6739 67.0778C37.2063 67.948 117.792 67.948 132.324 67.0778C135.599 66.8777 138.493 65.7173 140.589 63.9668C142.832 62.3263 144.32 60.0556 144.57 57.4948C144.771 55.4141 144.939 53.3335 145.064 51.2628C144.728 51.5729 144.369 51.863 143.989 52.1431H143.984Z" fill="url(#paint4_linear_420_8947)"/>
</g>
<path style="mix-blend-mode:overlay" opacity="0.6" d="M149.99 40.9796C149.99 41.2597 149.99 41.5498 149.99 41.8299V41.9299C149.99 42.4201 149.979 42.9002 149.974 43.3904C149.952 44.7808 149.92 46.1712 149.871 47.5517C149.849 48.1218 149.827 48.692 149.806 49.2622C149.768 50.1525 149.719 51.0427 149.664 51.933C149.659 52.0531 149.654 52.1831 149.643 52.3031C149.089 52.4532 148.54 52.6132 147.986 52.7533C145.081 53.5335 142.17 54.2237 139.265 54.8239C138.238 55.034 137.212 55.2341 136.186 55.4341C118.731 58.6951 35.1973 58.8152 17.6998 55.6342C16.7711 55.4641 15.8425 55.2841 14.9084 55.104C12.2909 54.5738 9.66785 53.9737 7.04485 53.2934C6.49093 53.1534 5.94243 53.0034 5.38851 52.8533C5.38851 52.8033 5.38307 52.7433 5.37764 52.6933C5.31248 51.5829 5.24731 50.4626 5.20386 49.3522C5.17128 48.692 5.14956 48.0418 5.12784 47.3816C5.08439 46.1212 5.05181 44.8508 5.03008 43.5904V43.5404C5.02465 43.1403 5.01922 42.7402 5.01379 42.33V42.3C5.00836 41.7198 5.00293 41.1397 5.00293 40.5595C5.00293 39.7192 5.00836 38.8689 5.01922 38.0287C5.03008 37.2484 5.04094 36.4582 5.06267 35.6779C5.07353 35.0077 5.09525 34.3475 5.1224 33.6773C5.20386 31.3166 5.32334 28.9558 5.49169 26.5951C5.55142 25.7548 5.61116 24.9146 5.68176 24.0743C5.75779 23.084 5.85011 22.0937 5.94786 21.1034C6.23025 18.2025 7.91375 15.6317 10.4499 13.7811C12.8176 11.8005 16.0977 10.4801 19.8014 10.26C36.2454 9.2697 118.748 9.2697 135.192 10.26C138.901 10.4801 142.181 11.8005 144.549 13.7811C147.085 15.6417 148.768 18.2125 149.051 21.1034C149.17 22.3238 149.279 23.5342 149.371 24.7545C149.431 25.5448 149.491 26.335 149.539 27.1253C149.697 29.406 149.806 31.6767 149.882 33.9474C149.903 34.5276 149.914 35.1078 149.93 35.688C149.952 36.6683 149.968 37.6386 149.979 38.6289C149.985 39.4091 149.985 40.1894 149.979 40.9796H149.99Z" fill="url(#paint5_radial_420_8947)"/>
<g style="mix-blend-mode:soft-light" opacity="0.6">
<path d="M126.644 19.4829C126.666 23.2741 115.223 20.8733 74.2384 20.8733C40.6227 20.8733 27.8987 23.3841 27.877 19.5929C27.8553 15.8018 40.1339 12.6808 74.8846 12.6808C114.735 12.6808 126.622 15.6917 126.644 19.4829Z" fill="white"/>
</g>
<path d="M132.394 15.4667C132.41 14.8043 131.387 14.1868 130.111 14.0874C128.834 13.988 127.787 14.4444 127.772 15.1068C127.756 15.7691 128.779 16.3866 130.056 16.486C131.332 16.5854 132.379 16.129 132.394 15.4667Z" fill="url(#paint6_radial_420_8947)"/>
<path d="M135.679 16.0282C135.687 15.675 135.138 15.3453 134.452 15.2919C133.765 15.2385 133.202 15.4815 133.194 15.8348C133.186 16.188 133.736 16.5177 134.422 16.5712C135.108 16.6246 135.671 16.3815 135.679 16.0282Z" fill="url(#paint7_radial_420_8947)"/>
<path d="M145.156 55.2341C145.156 57.1647 144.027 58.7252 143.37 58.7252C142.713 58.7252 143.571 57.5848 143.571 55.6542C143.571 53.7236 142.713 51.743 143.37 51.743C144.027 51.743 145.156 53.3035 145.156 55.2341Z" fill="url(#paint8_radial_420_8947)"/>
<path d="M144.34 24.178C144.433 23.0976 143.737 21.9971 142.786 21.72C141.835 21.4428 140.989 22.0941 140.897 23.1745C140.804 24.2549 141.499 25.3554 142.45 25.6326C143.401 25.9097 144.247 25.2584 144.34 24.178Z" fill="url(#paint9_radial_420_8947)"/>
<path d="M144.308 27.7621C144.358 27.1837 143.983 26.5937 143.47 26.4444C142.958 26.295 142.502 26.6428 142.452 27.2213C142.403 27.7997 142.778 28.3896 143.29 28.539C143.803 28.6883 144.259 28.3405 144.308 27.7621Z" fill="url(#paint10_radial_420_8947)"/>
<path d="M125.677 14.3013C125.704 14.7914 29.5818 15.1316 25.3839 15.6517C16.8632 16.702 18.7531 20.7433 17.5366 20.6833C16.3201 20.6233 15.3969 15.3316 25.2427 14.5714C33.9643 13.9012 125.65 13.8111 125.677 14.3013Z" fill="url(#paint11_radial_420_8947)"/>
<path d="M17.3332 25.8769C17.7012 24.8948 17.6093 23.6026 17.1279 22.9907C16.6466 22.3788 15.9581 22.6789 15.5901 23.6611C15.2221 24.6432 15.314 25.9354 15.7954 26.5473C16.2768 27.1592 16.9653 26.8591 17.3332 25.8769Z" fill="url(#paint12_radial_420_8947)"/>
<path d="M48.5124 37.874C48.0324 37.982 47.5404 38.054 47.0364 38.09C46.5444 38.138 46.0584 38.162 45.5784 38.162C45.1104 38.162 44.7444 38.15 44.4804 38.126C44.2284 38.102 43.8924 38.042 43.4724 37.946C43.0524 37.85 42.6684 37.718 42.3204 37.55C41.9724 37.382 41.6004 37.136 41.2044 36.812C40.8204 36.488 40.4964 36.104 40.2324 35.66C39.6204 34.628 39.3144 33.296 39.3144 31.664C39.3144 30.572 39.4824 29.606 39.8184 28.766C40.1664 27.926 40.5804 27.278 41.0604 26.822C41.5524 26.366 42.1104 26 42.7344 25.724C43.7424 25.268 44.7564 25.04 45.7764 25.04C47.2404 25.04 48.2904 25.16 48.9264 25.4C49.2144 25.508 49.4724 25.676 49.7004 25.904C49.9284 26.132 50.0424 26.462 50.0424 26.894C50.0424 27.326 49.9344 27.872 49.7184 28.532C49.5144 29.192 49.2144 29.522 48.8184 29.522C48.6984 29.522 48.2544 29.426 47.4864 29.234C46.7184 29.042 46.1964 28.946 45.9204 28.946C45.5004 28.946 45.1404 29.18 44.8404 29.648C44.5524 30.116 44.4084 30.782 44.4084 31.646C44.4084 32.51 44.5344 33.182 44.7864 33.662C45.0504 34.142 45.3924 34.382 45.8124 34.382C46.1124 34.382 46.6524 34.262 47.4324 34.022C48.2244 33.77 48.6864 33.644 48.8184 33.644C49.1904 33.644 49.4784 33.986 49.6824 34.67C49.8984 35.354 50.0064 35.906 50.0064 36.326C50.0064 36.746 49.8744 37.082 49.6104 37.334C49.3584 37.574 48.9924 37.754 48.5124 37.874ZM56.7609 38.162C55.8609 38.162 55.0869 38.084 54.4389 37.928C53.7909 37.772 53.2029 37.496 52.6749 37.1C51.5829 36.308 51.0369 34.832 51.0369 32.672C51.0369 30.752 51.5949 29.378 52.7109 28.55C53.7549 27.782 55.1049 27.398 56.7609 27.398C57.4689 27.398 58.0749 27.434 58.5789 27.506C59.0829 27.566 59.5929 27.704 60.1089 27.92C60.6369 28.136 61.0569 28.43 61.3689 28.802C61.6929 29.174 61.9569 29.69 62.1609 30.35C62.3649 30.998 62.4669 31.772 62.4669 32.672C62.4669 34.496 61.9509 35.87 60.9189 36.794C59.8869 37.706 58.5009 38.162 56.7609 38.162ZM56.1309 34.652C56.2149 35.084 56.2989 35.342 56.3829 35.426C56.4789 35.51 56.5989 35.552 56.7429 35.552C56.8989 35.552 57.0189 35.51 57.1029 35.426C57.1989 35.342 57.2829 35.084 57.3549 34.652C57.4389 34.22 57.4809 33.68 57.4809 33.032C57.4809 32.372 57.4629 31.868 57.4269 31.52C57.4029 31.16 57.3669 30.884 57.3189 30.692C57.2829 30.5 57.2289 30.35 57.1569 30.242C57.0489 30.086 56.9169 30.008 56.7609 30.008C56.6169 30.008 56.4969 30.056 56.4009 30.152C56.3049 30.236 56.2149 30.5 56.1309 30.944C56.0469 31.376 56.0049 31.994 56.0049 32.798C56.0049 33.602 56.0469 34.22 56.1309 34.652ZM74.3932 32.024V37.568C74.3932 37.7 74.0512 37.808 73.3672 37.892C72.6832 37.964 71.9752 38 71.2432 38C70.5232 38 70.0552 37.97 69.8392 37.91C69.6352 37.838 69.5332 37.724 69.5332 37.568V31.844C69.5332 31.304 69.5092 30.95 69.4612 30.782C69.4252 30.614 69.3892 30.464 69.3532 30.332C69.2692 30.104 69.1192 29.99 68.9032 29.99C68.5672 29.99 68.3992 30.152 68.3992 30.476V37.568C68.3992 37.7 68.0572 37.808 67.3732 37.892C66.7012 37.964 65.9992 38 65.2672 38C64.5472 38 64.0792 37.97 63.8632 37.91C63.6472 37.838 63.5392 37.724 63.5392 37.568V28.694C63.5392 28.442 63.8812 28.19 64.5652 27.938C65.2612 27.686 65.9932 27.56 66.7612 27.56C67.5292 27.56 67.9612 27.782 68.0572 28.226L68.2192 29.018H68.3452C68.6932 28.322 69.2932 27.836 70.1452 27.56C70.4932 27.452 70.8772 27.398 71.2972 27.398C72.5092 27.398 73.3252 27.764 73.7452 28.496C74.1772 29.216 74.3932 30.392 74.3932 32.024ZM86.5045 32.024V37.568C86.5045 37.7 86.1625 37.808 85.4785 37.892C84.7945 37.964 84.0865 38 83.3545 38C82.6345 38 82.1665 37.97 81.9505 37.91C81.7465 37.838 81.6445 37.724 81.6445 37.568V31.844C81.6445 31.304 81.6205 30.95 81.5725 30.782C81.5365 30.614 81.5005 30.464 81.4645 30.332C81.3805 30.104 81.2305 29.99 81.0145 29.99C80.6785 29.99 80.5105 30.152 80.5105 30.476V37.568C80.5105 37.7 80.1685 37.808 79.4845 37.892C78.8125 37.964 78.1105 38 77.3785 38C76.6585 38 76.1905 37.97 75.9745 37.91C75.7585 37.838 75.6505 37.724 75.6505 37.568V28.694C75.6505 28.442 75.9925 28.19 76.6765 27.938C77.3725 27.686 78.1045 27.56 78.8725 27.56C79.6405 27.56 80.0725 27.782 80.1685 28.226L80.3305 29.018H80.4565C80.8045 28.322 81.4045 27.836 82.2565 27.56C82.6045 27.452 82.9885 27.398 83.4085 27.398C84.6205 27.398 85.4365 27.764 85.8565 28.496C86.2885 29.216 86.5045 30.392 86.5045 32.024ZM92.4958 33.932C92.4958 34.712 92.8678 35.102 93.6118 35.102C94.0438 35.102 94.6078 34.958 95.3038 34.67C95.9998 34.37 96.3658 34.22 96.4018 34.22C96.6298 34.22 96.9298 34.562 97.3018 35.246C97.6738 35.93 97.8598 36.434 97.8598 36.758C97.8598 37.226 97.3798 37.58 96.4198 37.82C95.4598 38.06 94.5178 38.18 93.5938 38.18C92.6818 38.18 91.9138 38.108 91.2898 37.964C90.6778 37.82 90.1738 37.64 89.7778 37.424C89.3938 37.196 89.0518 36.92 88.7518 36.596C88.4638 36.272 88.2478 35.966 88.1038 35.678C87.9598 35.378 87.8458 35.048 87.7618 34.688C87.6418 34.16 87.5818 33.614 87.5818 33.05C87.5818 30.866 88.1518 29.36 89.2918 28.532C89.8558 28.112 90.4858 27.818 91.1818 27.65C91.8778 27.482 92.6998 27.398 93.6478 27.398C96.6838 27.398 98.2018 28.454 98.2018 30.566C98.2018 32.81 96.4978 33.932 93.0898 33.932H92.4958ZM92.4598 31.304V32.492C92.8078 32.492 93.0898 32.354 93.3058 32.078C93.5338 31.802 93.6478 31.466 93.6478 31.07C93.6478 30.35 93.4618 29.99 93.0898 29.99C92.6698 29.99 92.4598 30.428 92.4598 31.304ZM101.598 37.694C101.31 37.562 100.998 37.364 100.662 37.1C100.338 36.836 100.068 36.524 99.8515 36.164C99.3475 35.3 99.0955 34.172 99.0955 32.78C99.0955 31.916 99.2335 31.148 99.5095 30.476C99.7855 29.792 100.122 29.264 100.518 28.892C100.914 28.52 101.37 28.214 101.886 27.974C102.714 27.59 103.542 27.398 104.37 27.398C105.762 27.398 106.728 27.506 107.268 27.722C107.82 27.938 108.096 28.304 108.096 28.82C108.096 29.336 108 29.888 107.808 30.476C107.628 31.052 107.388 31.34 107.088 31.34C106.992 31.34 106.698 31.238 106.206 31.034C105.726 30.83 105.306 30.728 104.946 30.728C104.598 30.728 104.328 30.872 104.136 31.16C103.956 31.436 103.866 31.982 103.866 32.798C103.866 33.602 103.95 34.154 104.118 34.454C104.286 34.742 104.544 34.886 104.892 34.886C105.252 34.886 105.696 34.766 106.224 34.526C106.752 34.286 107.046 34.166 107.106 34.166C107.334 34.166 107.55 34.436 107.754 34.976C107.97 35.516 108.078 35.996 108.078 36.416C108.078 37.064 107.742 37.52 107.07 37.784C106.398 38.036 105.486 38.162 104.334 38.162C103.194 38.162 102.282 38.006 101.598 37.694ZM116.246 37.838C116.03 38.042 115.538 38.144 114.77 38.144C114.002 38.144 113.366 38.096 112.862 38C112.358 37.892 111.878 37.688 111.422 37.388C110.546 36.8 110.108 35.576 110.108 33.716V30.908H109.208C109.076 30.908 108.962 30.77 108.866 30.494C108.77 30.218 108.722 29.84 108.722 29.36C108.722 28.88 108.794 28.46 108.938 28.1C109.094 27.728 109.292 27.542 109.532 27.542H110.108V25.364C110.108 24.992 110.468 24.692 111.188 24.464C111.92 24.236 112.634 24.122 113.33 24.122C114.422 24.122 114.968 24.392 114.968 24.932V27.542H116.3C116.612 27.542 116.768 27.992 116.768 28.892C116.768 29.48 116.696 29.966 116.552 30.35C116.42 30.722 116.246 30.908 116.03 30.908H114.968V34.202C114.968 34.526 115.106 34.76 115.382 34.904C115.658 35.036 115.898 35.102 116.102 35.102C116.318 35.102 116.45 35.204 116.498 35.408C116.546 35.612 116.57 35.918 116.57 36.326C116.57 37.13 116.462 37.634 116.246 37.838ZM52.337 59C51.761 59 51.383 58.958 51.203 58.874C51.023 58.79 50.897 58.646 50.825 58.442L46.847 47.462C46.847 47.234 47.273 46.97 48.125 46.67C48.989 46.37 49.859 46.22 50.735 46.22C51.863 46.22 52.463 46.574 52.535 47.282L53.147 52.988H53.399L53.903 47.282C53.963 46.574 54.773 46.22 56.333 46.22C56.933 46.22 57.335 46.304 57.539 46.472C57.743 46.628 57.857 46.838 57.881 47.102L58.475 52.988H58.727L59.195 47.282C59.231 46.934 59.639 46.67 60.419 46.49C61.211 46.31 61.991 46.22 62.759 46.22C63.539 46.22 64.067 46.334 64.343 46.562C64.631 46.79 64.775 47.03 64.775 47.282L60.923 58.442C60.791 58.814 59.903 59 58.259 59C57.767 59 57.437 58.958 57.269 58.874C57.101 58.79 56.987 58.646 56.927 58.442L55.991 55.31H55.775L54.821 58.442C54.713 58.814 53.885 59 52.337 59ZM68.9982 59.162C67.9062 59.162 67.0482 58.904 66.4242 58.388C66.1722 58.172 65.9502 57.854 65.7582 57.434C65.5782 57.014 65.4882 56.522 65.4882 55.958C65.4882 55.394 65.6202 54.902 65.8842 54.482C66.1602 54.062 66.4902 53.738 66.8742 53.51C67.2582 53.282 67.7082 53.096 68.2242 52.952C69.0042 52.748 69.8622 52.646 70.7982 52.646H71.3922C71.3922 52.154 71.2242 51.806 70.8882 51.602C70.7442 51.518 70.5222 51.476 70.2222 51.476C69.9342 51.476 69.5802 51.554 69.1602 51.71C68.7522 51.866 68.4102 52.028 68.1342 52.196C67.8582 52.352 67.6722 52.43 67.5762 52.43C67.3602 52.43 67.0662 52.148 66.6942 51.584C66.3222 51.008 66.1362 50.486 66.1362 50.018C66.1362 49.862 66.3582 49.658 66.8022 49.406C67.2462 49.154 67.8702 48.926 68.6742 48.722C69.4902 48.506 70.2822 48.398 71.0502 48.398C71.8182 48.398 72.4782 48.464 73.0302 48.596C73.5942 48.716 74.0502 48.866 74.3982 49.046C74.7582 49.226 75.0582 49.466 75.2982 49.766C75.5502 50.066 75.7362 50.336 75.8562 50.576C75.9882 50.816 76.0842 51.128 76.1442 51.512C76.2282 51.956 76.2702 52.502 76.2702 53.15V58.568C76.2702 58.7 75.9462 58.808 75.2982 58.892C74.6622 58.964 74.0262 59 73.3902 59C72.7662 59 72.3582 58.982 72.1662 58.946C71.9862 58.91 71.8782 58.868 71.8422 58.82C71.8062 58.772 71.7762 58.688 71.7522 58.568L71.6082 57.542H71.4642C71.1642 58.622 70.3422 59.162 68.9982 59.162ZM71.4102 56.174V54.068C71.0982 54.068 70.8462 54.2 70.6542 54.464C70.4622 54.728 70.3662 55.028 70.3662 55.364C70.3662 56.156 70.5462 56.552 70.9062 56.552C71.0622 56.552 71.1822 56.516 71.2662 56.444C71.3622 56.36 71.4102 56.27 71.4102 56.174ZM82.3914 45.788V58.568C82.3914 58.7 82.0494 58.808 81.3654 58.892C80.6814 58.964 79.9734 59 79.2414 59C78.5214 59 78.0534 58.97 77.8374 58.91C77.6334 58.838 77.5314 58.724 77.5314 58.568V46.112C77.5314 45.848 77.8674 45.59 78.5394 45.338C79.2234 45.086 79.9554 44.96 80.7354 44.96C81.8394 44.96 82.3914 45.236 82.3914 45.788ZM88.5086 45.788V58.568C88.5086 58.7 88.1666 58.808 87.4826 58.892C86.7986 58.964 86.0906 59 85.3586 59C84.6386 59 84.1706 58.97 83.9546 58.91C83.7506 58.838 83.6486 58.724 83.6486 58.568V46.112C83.6486 45.848 83.9846 45.59 84.6566 45.338C85.3406 45.086 86.0726 44.96 86.8526 44.96C87.9566 44.96 88.5086 45.236 88.5086 45.788ZM94.4997 54.932C94.4997 55.712 94.8717 56.102 95.6157 56.102C96.0477 56.102 96.6117 55.958 97.3077 55.67C98.0037 55.37 98.3697 55.22 98.4057 55.22C98.6337 55.22 98.9337 55.562 99.3057 56.246C99.6777 56.93 99.8637 57.434 99.8637 57.758C99.8637 58.226 99.3837 58.58 98.4237 58.82C97.4637 59.06 96.5217 59.18 95.5977 59.18C94.6857 59.18 93.9177 59.108 93.2937 58.964C92.6817 58.82 92.1777 58.64 91.7817 58.424C91.3977 58.196 91.0557 57.92 90.7557 57.596C90.4677 57.272 90.2517 56.966 90.1077 56.678C89.9637 56.378 89.8497 56.048 89.7657 55.688C89.6457 55.16 89.5857 54.614 89.5857 54.05C89.5857 51.866 90.1557 50.36 91.2957 49.532C91.8597 49.112 92.4897 48.818 93.1857 48.65C93.8817 48.482 94.7037 48.398 95.6517 48.398C98.6877 48.398 100.206 49.454 100.206 51.566C100.206 53.81 98.5017 54.932 95.0937 54.932H94.4997ZM94.4637 52.304V53.492C94.8117 53.492 95.0937 53.354 95.3097 53.078C95.5377 52.802 95.6517 52.466 95.6517 52.07C95.6517 51.35 95.4657 50.99 95.0937 50.99C94.6737 50.99 94.4637 51.428 94.4637 52.304ZM108.353 58.838C108.137 59.042 107.645 59.144 106.877 59.144C106.109 59.144 105.473 59.096 104.969 59C104.465 58.892 103.985 58.688 103.529 58.388C102.653 57.8 102.215 56.576 102.215 54.716V51.908H101.315C101.183 51.908 101.069 51.77 100.973 51.494C100.877 51.218 100.829 50.84 100.829 50.36C100.829 49.88 100.901 49.46 101.045 49.1C101.201 48.728 101.399 48.542 101.639 48.542H102.215V46.364C102.215 45.992 102.575 45.692 103.295 45.464C104.027 45.236 104.741 45.122 105.437 45.122C106.529 45.122 107.075 45.392 107.075 45.932V48.542H108.407C108.719 48.542 108.875 48.992 108.875 49.892C108.875 50.48 108.803 50.966 108.659 51.35C108.527 51.722 108.353 51.908 108.137 51.908H107.075V55.202C107.075 55.526 107.213 55.76 107.489 55.904C107.765 56.036 108.005 56.102 108.209 56.102C108.425 56.102 108.557 56.204 108.605 56.408C108.653 56.612 108.677 56.918 108.677 57.326C108.677 58.13 108.569 58.634 108.353 58.838Z" fill="white"/>
<defs>
<filter id="filter0_f_420_8947" x="0.69043" y="4.12805" width="153.623" height="28.7665" filterUnits="userSpaceOnUse" color-interpolation-filters="sRGB">
<feFlood flood-opacity="0" result="BackgroundImageFix"/>
<feBlend mode="normal" in="SourceGraphic" in2="BackgroundImageFix" result="shape"/>
<feGaussianBlur stdDeviation="4" result="effect1_foregroundBlur_420_8947"/>
</filter>
<filter id="filter1_f_420_8947" x="1.93359" y="43.2628" width="151.131" height="32.4677" filterUnits="userSpaceOnUse" color-interpolation-filters="sRGB">
<feFlood flood-opacity="0" result="BackgroundImageFix"/>
<feBlend mode="normal" in="SourceGraphic" in2="BackgroundImageFix" result="shape"/>
<feGaussianBlur stdDeviation="4" result="effect1_foregroundBlur_420_8947"/>
</filter>
<radialGradient id="paint0_radial_420_8947" cx="0" cy="0" r="1" gradientUnits="userSpaceOnUse" gradientTransform="translate(77.4631 46.5269) scale(66.8705 52.1467)">
<stop/>
<stop offset="0.84" stop-opacity="0.2"/>
</radialGradient>
<radialGradient id="paint1_radial_420_8947" cx="0" cy="0" r="1" gradientUnits="userSpaceOnUse" gradientTransform="translate(77.463 43.8987) scale(66.8705 52.1467)">
<stop stop-color="#F99F03"/>
<stop offset="0.02" stop-color="#F89D02"/>
<stop offset="0.98" stop-color="#D66100"/>
</radialGradient>
<radialGradient id="paint2_radial_420_8947" cx="0" cy="0" r="1" gradientUnits="userSpaceOnUse" gradientTransform="translate(77.7687 35.0039) rotate(-91.3742) scale(53.2994 70.9407)">
<stop stop-color="#F99F03"/>
<stop offset="0.02" stop-color="#F89D02"/>
<stop offset="0.98" stop-color="#D66100"/>
</radialGradient>
<linearGradient id="paint3_linear_420_8947" x1="77.4967" y1="24.8945" x2="77.4967" y2="12.1306" gradientUnits="userSpaceOnUse">
<stop stop-color="white" stop-opacity="0"/>
<stop offset="1" stop-color="white"/>
</linearGradient>
<linearGradient id="paint4_linear_420_8947" x1="77.4962" y1="67.738" x2="77.4962" y2="51.2628" gradientUnits="userSpaceOnUse">
<stop/>
<stop offset="0.09" stop-color="#0C0C0C"/>
<stop offset="0.24" stop-color="#2C2C2C"/>
<stop offset="0.46" stop-color="#616161"/>
<stop offset="0.71" stop-color="#AAAAAA"/>
<stop offset="0.98" stop-color="white"/>
</linearGradient>
<radialGradient id="paint5_radial_420_8947" cx="0" cy="0" r="1" gradientUnits="userSpaceOnUse" gradientTransform="translate(78.0213 22.5364) scale(69.1993 53.9627)">
<stop stop-color="white"/>
<stop offset="1" stop-color="white" stop-opacity="0"/>
</radialGradient>
<radialGradient id="paint6_radial_420_8947" cx="0" cy="0" r="1" gradientUnits="userSpaceOnUse" gradientTransform="translate(663.05 76.6783) rotate(-171.063) scale(1.14282 2.26321)">
<stop offset="0.51" stop-color="white"/>
<stop offset="1" stop-color="white" stop-opacity="0"/>
</radialGradient>
<radialGradient id="paint7_radial_420_8947" cx="0" cy="0" r="1" gradientUnits="userSpaceOnUse" gradientTransform="translate(665.976 77.1121) rotate(-171.063) scale(0.613477 1.21491)">
<stop offset="0.51" stop-color="white"/>
<stop offset="1" stop-color="white" stop-opacity="0"/>
</radialGradient>
<radialGradient id="paint8_radial_420_8947" cx="0" cy="0" r="1" gradientUnits="userSpaceOnUse" gradientTransform="translate(133.179 9.88545) rotate(-91.5971) scale(3.49974 1.69202)">
<stop stop-color="white"/>
<stop offset="1" stop-color="white" stop-opacity="0"/>
</radialGradient>
<radialGradient id="paint9_radial_420_8947" cx="0" cy="0" r="1" gradientUnits="userSpaceOnUse" gradientTransform="translate(334.227 1055.8) rotate(-100.424) scale(1.01406 3.19345)">
<stop offset="0.51" stop-color="white"/>
<stop offset="1" stop-color="white" stop-opacity="0"/>
</radialGradient>
<radialGradient id="paint10_radial_420_8947" cx="0" cy="0" r="1" gradientUnits="userSpaceOnUse" gradientTransform="translate(334.07 1054.24) rotate(-100.424) scale(0.544741 1.71549)">
<stop offset="0.51" stop-color="white"/>
<stop offset="1" stop-color="white" stop-opacity="0"/>
</radialGradient>
<radialGradient id="paint11_radial_420_8947" cx="0" cy="0" r="1" gradientUnits="userSpaceOnUse" gradientTransform="translate(-80.8688 -1241.43) rotate(-95.8292) scale(15.5114 81.3585)">
<stop offset="0.51" stop-color="white"/>
<stop offset="1" stop-color="white" stop-opacity="0"/>
</radialGradient>
<radialGradient id="paint12_radial_420_8947" cx="0" cy="0" r="1" gradientUnits="userSpaceOnUse" gradientTransform="translate(16.2025 39.4134) rotate(-91.7603) scale(2.09269 1.00558)">
<stop offset="0.51" stop-color="white"/>
<stop offset="1" stop-color="white" stop-opacity="0"/>
</radialGradient>
</defs>
</svg>
