<svg width="150" height="55" viewBox="0 0 150 55" fill="none" xmlns="http://www.w3.org/2000/svg">
<path d="M149.989 30.7025C149.989 31.9025 149.954 33.1025 149.912 34.3125C149.828 36.6825 149.674 39.0525 149.45 41.4225C149.324 42.7525 149.183 44.0825 149.015 45.4125C148.721 47.7425 146.983 49.8125 144.355 51.3025C141.902 52.9025 138.511 53.9625 134.677 54.1425C117.669 54.9325 32.3349 54.9325 15.3199 54.1425C11.4866 53.9625 8.09481 52.9025 5.64207 51.3025C3.01414 49.8125 1.2762 47.7425 0.981867 45.4125C0.869742 44.5325 0.771632 43.6525 0.68053 42.7725C0.407225 40.1825 0.218013 37.5825 0.112895 34.9925C0.0498246 33.5225 0.0147857 32.0425 0.00777787 30.5725C-0.00623779 29.5225 0.00777835 28.4725 0.0288018 27.4225V27.3825C0.063841 25.8725 0.119904 24.3525 0.203998 22.8425C0.274076 21.6325 0.358169 20.4225 0.463287 19.2225C0.603443 17.5925 0.77864 15.9625 0.981867 14.3325C1.13604 13.1025 1.68966 11.9525 2.56564 10.9125C3.35051 9.98251 4.39468 9.14251 5.63507 8.44251C8.08781 6.84251 11.4796 5.78251 15.3129 5.60251C32.3279 4.81251 117.662 4.81251 134.67 5.60251C138.504 5.78251 141.895 6.84251 144.348 8.44251C145.932 9.34251 147.193 10.4425 148.006 11.7025C148.546 12.5225 148.896 13.4125 149.008 14.3425C149.226 16.0625 149.408 17.7725 149.548 19.4925C149.66 20.7825 149.751 22.0725 149.814 23.3625C149.884 24.6725 149.933 25.9725 149.961 27.2825C149.989 28.4325 149.996 29.5725 149.989 30.7125V30.7025Z" fill="url(#paint0_radial_2012_23831)"/>
<path d="M149.919 32.0825C149.877 33.3325 149.814 34.5925 149.73 35.8425C149.59 37.9825 149.394 40.1225 149.141 42.2625C149.099 42.6025 149.057 42.9425 149.015 43.2825C148.721 45.6125 146.983 47.6825 144.355 49.1725C141.902 50.7725 138.51 51.8325 134.677 52.0125C117.669 52.8025 32.3348 52.8025 15.3198 52.0125C11.4865 51.8325 8.09471 50.7725 5.64197 49.1725C3.14718 47.7525 1.4583 45.8225 1.03783 43.6325C1.0098 43.5125 0.995782 43.4025 0.981767 43.2825C0.701454 41.0525 0.484209 38.8225 0.323029 36.5925C0.217912 35.1225 0.133818 33.6425 0.0847628 32.1725C0.00767669 30.2525 -0.0133459 28.3325 0.00767759 26.4025V26.3725C0.0146854 25.9025 0.0216926 25.4225 0.0357082 24.9525C0.0637395 23.6125 0.119803 22.2825 0.189881 20.9425C0.32303 18.4925 0.533265 16.0325 0.813578 13.5825C0.86964 13.1225 0.918696 12.6525 0.981767 12.1925C1.2761 9.8625 3.01404 7.79249 5.64197 6.30249C8.09471 4.70249 11.4865 3.6425 15.3198 3.4625C32.3348 2.6725 117.669 2.6725 134.677 3.4625C138.51 3.6425 141.902 4.70249 144.355 6.30249C146.983 7.79249 148.721 9.8625 149.015 12.1925C149.092 12.8025 149.162 13.4125 149.232 14.0225C149.492 16.3425 149.681 18.6625 149.814 20.9825C149.891 22.4225 149.947 23.8625 149.975 25.3025C149.975 25.5325 149.989 25.7625 149.989 26.0025V26.0825C150.017 28.0825 149.989 30.0825 149.919 32.0725V32.0825Z" fill="url(#paint1_radial_2012_23831)"/>
<g style="mix-blend-mode:hard-light" opacity="0.2">
<path d="M149.015 10.2725C148.721 7.90252 146.983 5.79252 144.355 4.27252C141.902 2.64252 138.511 1.56252 134.677 1.38252C117.669 0.572524 32.328 0.572524 15.32 1.38252C11.4867 1.56252 8.09493 2.64252 5.64219 4.27252C3.02126 5.79252 1.27631 7.89252 0.98198 10.2725C-0.314469 20.8125 -0.314469 31.3625 0.98198 41.9025C1.27631 44.2725 3.01425 46.3825 5.64219 47.9025C8.09493 49.5325 11.4867 50.6125 15.32 50.7925C32.328 51.6025 117.669 51.6025 134.677 50.7925C138.511 50.6125 141.902 49.5325 144.355 47.9025C146.976 46.3825 148.721 44.2825 149.015 41.9025C150.312 31.3625 150.312 20.8125 149.015 10.2725Z" fill="white"/>
</g>
<path d="M149.625 34.7625C149.471 36.7825 149.268 38.7925 149.023 40.8125C148.728 43.1725 146.99 45.2525 144.362 46.7625C141.91 48.3725 138.518 49.4425 134.685 49.6225C117.677 50.4225 32.3352 50.4225 15.3272 49.6225C11.494 49.4425 8.10216 48.3725 5.64942 46.7625C3.02149 45.2525 1.28354 43.1725 0.989215 40.8125C0.757957 38.9525 0.568745 37.0825 0.42158 35.2125C-0.265187 26.6225 -0.0759748 18.0225 0.989215 9.43252C1.28354 7.08252 3.02149 4.99252 5.64942 3.48252C8.10216 1.87252 11.494 0.802522 15.3272 0.622522C32.3352 -0.177478 117.677 -0.177478 134.685 0.622522C138.518 0.802522 141.91 1.87252 144.362 3.48252C146.99 4.99252 148.728 7.07252 149.023 9.43252C150.067 17.8725 150.277 26.3225 149.625 34.7625Z" fill="url(#paint2_radial_2012_23831)"/>
<g style="mix-blend-mode:soft-light" opacity="0.75">
<path d="M149.625 34.7625C149.471 36.7825 149.268 38.7925 149.023 40.8125C148.728 43.1725 146.99 45.2525 144.362 46.7625C141.91 48.3725 138.518 49.4425 134.685 49.6225C117.677 50.4225 32.3352 50.4225 15.3272 49.6225C11.494 49.4425 8.10216 48.3725 5.64942 46.7625C3.02149 45.2525 1.28354 43.1725 0.989215 40.8125C0.757957 38.9525 0.568745 37.0825 0.42158 35.2125C-0.265187 26.6225 -0.0759748 18.0225 0.989215 9.43246C1.28354 7.08246 3.02149 4.99246 5.64942 3.48246C8.10216 1.87246 11.494 0.802461 15.3272 0.622461C32.3352 -0.177539 117.677 -0.177539 134.685 0.622461C138.518 0.802461 141.91 1.87246 144.362 3.48246C146.99 4.99246 148.728 7.07246 149.023 9.43246C150.067 17.8725 150.277 26.3225 149.625 34.7625Z" fill="url(#paint3_linear_2012_23831)"/>
</g>
<path style="mix-blend-mode:overlay" opacity="0.6" d="M149.99 25.3225C149.99 25.5525 149.99 25.7825 149.99 26.0125V26.0925C149.99 26.4825 149.976 26.8725 149.969 27.2725C149.948 28.3925 149.912 29.5025 149.856 30.6125C149.835 31.0725 149.807 31.5225 149.786 31.9825C149.744 32.6925 149.695 33.4125 149.639 34.1325C149.632 34.2325 149.625 34.3325 149.618 34.4325C149.044 34.5525 148.476 34.6825 147.908 34.7925C144.902 35.4225 141.896 35.9725 138.889 36.4625C137.831 36.6325 136.766 36.7925 135.708 36.9525C117.655 39.5725 31.2489 39.6725 13.1547 37.1125C12.1946 36.9825 11.2345 36.8325 10.2674 36.6825C7.55542 36.2625 4.84339 35.7725 2.13136 35.2225C1.55672 35.1125 0.98908 34.9925 0.421445 34.8725C0.421445 34.8325 0.421448 34.7825 0.407432 34.7425C0.337354 33.8425 0.274282 32.9525 0.225227 32.0525C0.190188 31.5225 0.169165 30.9925 0.141134 30.4725C0.0920789 29.4525 0.0570387 28.4425 0.0360152 27.4225V27.3825C0.0360152 27.0625 0.0220004 26.7325 0.0149925 26.4125V26.3825C0.0149925 25.9125 0.000976562 25.4525 0.000976562 24.9825C0.000976562 24.3025 0.000977045 23.6225 0.0220005 22.9425C0.0360162 22.3125 0.0500303 21.6825 0.0710538 21.0525C0.0850695 20.5125 0.106093 19.9825 0.134124 19.4425C0.218218 17.5425 0.344361 15.6425 0.519557 13.7425C0.582628 13.0625 0.645697 12.3925 0.715776 11.7125C0.79987 10.9225 0.890971 10.1225 0.98908 9.3225C1.28341 6.9925 3.02135 4.9225 5.64929 3.4325C8.10203 1.8325 11.4938 0.7725 15.3271 0.5925C32.3421 -0.1975 117.676 -0.1975 134.684 0.5925C138.518 0.7725 141.917 1.8325 144.362 3.4325C146.99 4.9225 148.728 6.9925 149.022 9.3225C149.149 10.3025 149.261 11.2825 149.359 12.2525C149.422 12.8925 149.485 13.5225 149.534 14.1625C149.695 15.9925 149.814 17.8225 149.891 19.6525C149.912 20.1225 149.926 20.5825 149.941 21.0525C149.969 21.8425 149.983 22.6225 149.997 23.4125C149.997 24.0425 149.997 24.6725 149.997 25.3025L149.99 25.3225Z" fill="url(#paint4_radial_2012_23831)"/>
<g style="mix-blend-mode:soft-light" opacity="0.6">
<path d="M125.84 8.0325C125.861 11.0825 114.025 9.1525 71.6347 9.1525C36.8689 9.1525 23.7082 11.1725 23.6872 8.1225C23.6661 5.0725 36.3643 2.5625 72.3075 2.5625C113.528 2.5625 125.819 4.9825 125.84 8.0325Z" fill="white"/>
</g>
<path d="M59.8495 33H55.2505C54.5505 33 54.0815 32.951 53.8435 32.853C53.6055 32.755 53.4865 32.601 53.4865 32.391V18.888C53.4865 18.216 55.5095 17.88 59.5555 17.88C61.8795 17.88 63.4825 18.104 64.3645 18.552C65.2605 19.014 65.8345 19.602 66.0865 20.316C66.2265 20.736 66.2965 21.226 66.2965 21.786C66.2965 22.878 66.1075 23.697 65.7295 24.243C65.3655 24.789 64.9665 25.097 64.5325 25.167C65.1905 25.307 65.7365 25.629 66.1705 26.133C66.6045 26.637 66.8215 27.491 66.8215 28.695C66.8215 30.095 66.3945 31.131 65.5405 31.803C64.7985 32.391 63.6645 32.762 62.1385 32.916C61.4945 32.972 60.7315 33 59.8495 33ZM59.8705 23.844C60.5845 23.844 60.9415 23.368 60.9415 22.416C60.9415 21.94 60.8435 21.59 60.6475 21.366C60.4655 21.128 60.2555 21.009 60.0175 21.009H59.3455V23.844H59.8705ZM59.3455 29.871H59.8705C60.5845 29.871 60.9415 29.395 60.9415 28.443C60.9415 27.967 60.8435 27.617 60.6475 27.393C60.4655 27.155 60.2555 27.036 60.0175 27.036H59.3455V29.871ZM81.8591 27.141C81.8591 29.157 81.2781 30.669 80.1161 31.677C78.9681 32.671 77.2951 33.168 75.0971 33.168C72.9131 33.168 71.2331 32.671 70.0571 31.677C68.8811 30.669 68.2931 29.157 68.2931 27.141V19.434C68.2931 19.084 68.6851 18.769 69.4691 18.489C70.2671 18.209 71.1911 18.069 72.2411 18.069C73.0811 18.069 73.6271 18.23 73.8791 18.552C74.0611 18.804 74.1521 19.021 74.1521 19.203V25.461C74.1521 27.043 74.2081 28.093 74.3201 28.611C74.4461 29.115 74.7051 29.367 75.0971 29.367C75.4891 29.367 75.7341 29.122 75.8321 28.632C75.9441 28.128 76.0001 27.064 76.0001 25.44V19.434C76.0001 19.084 76.3921 18.769 77.1761 18.489C77.9741 18.209 78.8911 18.069 79.9271 18.069C80.8091 18.069 81.3691 18.23 81.6071 18.552C81.7751 18.804 81.8591 19.021 81.8591 19.203V27.141ZM92.9174 32.391C92.9174 32.573 92.4904 32.72 91.6364 32.832C90.7824 32.944 89.9284 33 89.0744 33C88.2344 33 87.6884 32.958 87.4364 32.874C87.1844 32.776 87.0584 32.615 87.0584 32.391V28.737C84.2864 23.067 82.9004 19.987 82.9004 19.497C82.9004 19.203 83.3694 18.895 84.3074 18.573C85.2454 18.251 86.2324 18.09 87.2684 18.09C88.5984 18.09 89.3054 18.482 89.3894 19.266L89.9564 24.915H90.1874L90.5864 19.413C90.6144 19.021 91.1114 18.706 92.0774 18.468C93.0434 18.216 93.9604 18.09 94.8284 18.09C95.6964 18.09 96.2984 18.216 96.6344 18.468C96.9704 18.72 97.1384 18.986 97.1384 19.266C97.1384 19.532 95.7314 22.689 92.9174 28.737V32.391Z" fill="#731F0D"/>
<defs>
<radialGradient id="paint0_radial_2012_23831" cx="0" cy="0" r="1" gradientUnits="userSpaceOnUse" gradientTransform="translate(74.1761 29.9159) scale(68.9436 42.1632)">
<stop/>
<stop offset="0.84" stop-opacity="0.2"/>
</radialGradient>
<radialGradient id="paint1_radial_2012_23831" cx="0" cy="0" r="1" gradientUnits="userSpaceOnUse" gradientTransform="translate(74.176 27.7937) scale(68.9436 42.1632)">
<stop stop-color="#F79D06"/>
<stop offset="0.98" stop-color="#D36101"/>
</radialGradient>
<radialGradient id="paint2_radial_2012_23831" cx="0" cy="0" r="1" gradientUnits="userSpaceOnUse" gradientTransform="translate(74.5722 6.13157) rotate(-91.7455) scale(43.8964 160.675)">
<stop stop-color="#F79D06"/>
<stop offset="0.98" stop-color="#D36101"/>
</radialGradient>
<linearGradient id="paint3_linear_2012_23831" x1="75.9093" y1="50.0075" x2="75.9093" y2="38.1125" gradientUnits="userSpaceOnUse">
<stop/>
<stop offset="1" stop-opacity="0"/>
</linearGradient>
<radialGradient id="paint4_radial_2012_23831" cx="0" cy="0" r="1" gradientUnits="userSpaceOnUse" gradientTransform="translate(74.7591 10.5191) scale(71.3365 43.6266)">
<stop stop-color="white"/>
<stop offset="1" stop-color="white" stop-opacity="0"/>
</radialGradient>
</defs>
</svg>
