<svg width="150" height="55" viewBox="0 0 150 55" fill="none" xmlns="http://www.w3.org/2000/svg">
<path d="M149.989 30.7025C149.989 31.9025 149.954 33.1025 149.912 34.3125C149.828 36.6825 149.674 39.0525 149.45 41.4225C149.324 42.7525 149.184 44.0825 149.015 45.4125C148.721 47.7425 146.983 49.8125 144.355 51.3025C141.902 52.9025 138.511 53.9625 134.677 54.1425C117.669 54.9325 32.3349 54.9325 15.3199 54.1425C11.4866 53.9625 8.09484 52.9025 5.6421 51.3025C3.01417 49.8125 1.27623 47.7425 0.981898 45.4125C0.869772 44.5325 0.771663 43.6525 0.680561 42.7725C0.407255 40.1825 0.218043 37.5825 0.112926 34.9925C0.0498551 33.5225 0.0148162 32.0425 0.00780839 30.5725C-0.00620727 29.5225 0.00780887 28.4725 0.0288324 27.4225V27.3825C0.0638715 25.8725 0.119934 24.3525 0.204028 22.8425C0.274106 21.6325 0.3582 20.4225 0.463317 19.2225C0.603474 17.5925 0.778671 15.9625 0.981898 14.3325C1.13607 13.1025 1.68969 11.9525 2.56567 10.9125C3.35054 9.98251 4.39471 9.14251 5.6351 8.44251C8.08784 6.84251 11.4796 5.78251 15.3129 5.60251C32.3279 4.81251 117.662 4.81251 134.67 5.60251C138.504 5.78251 141.895 6.84251 144.348 8.44251C145.932 9.34251 147.193 10.4425 148.006 11.7025C148.546 12.5225 148.896 13.4125 149.008 14.3425C149.226 16.0625 149.408 17.7725 149.548 19.4925C149.66 20.7825 149.751 22.0725 149.814 23.3625C149.884 24.6725 149.933 25.9725 149.961 27.2825C149.989 28.4325 149.996 29.5725 149.989 30.7125V30.7025Z" fill="url(#paint0_radial_2012_23760)"/>
<path d="M149.919 32.0825C149.877 33.3325 149.814 34.5925 149.73 35.8425C149.59 37.9825 149.394 40.1225 149.141 42.2625C149.099 42.6025 149.057 42.9425 149.015 43.2825C148.721 45.6125 146.983 47.6825 144.355 49.1725C141.902 50.7725 138.51 51.8325 134.677 52.0125C117.669 52.8025 32.3348 52.8025 15.3198 52.0125C11.4865 51.8325 8.09471 50.7725 5.64197 49.1725C3.14718 47.7525 1.4583 45.8225 1.03783 43.6325C1.0098 43.5125 0.995782 43.4025 0.981767 43.2825C0.701454 41.0525 0.484209 38.8225 0.323029 36.5925C0.217912 35.1225 0.133818 33.6425 0.0847628 32.1725C0.00767669 30.2525 -0.0133459 28.3325 0.00767759 26.4025V26.3725C0.0146854 25.9025 0.0216926 25.4225 0.0357082 24.9525C0.0637395 23.6125 0.119803 22.2825 0.189881 20.9425C0.32303 18.4925 0.533265 16.0325 0.813578 13.5825C0.86964 13.1225 0.918696 12.6525 0.981767 12.1925C1.2761 9.8625 3.01404 7.79249 5.64197 6.30249C8.09471 4.70249 11.4865 3.6425 15.3198 3.4625C32.3348 2.6725 117.669 2.6725 134.677 3.4625C138.51 3.6425 141.902 4.70249 144.355 6.30249C146.983 7.79249 148.721 9.8625 149.015 12.1925C149.092 12.8025 149.162 13.4125 149.232 14.0225C149.492 16.3425 149.681 18.6625 149.814 20.9825C149.891 22.4225 149.947 23.8625 149.975 25.3025C149.975 25.5325 149.989 25.7625 149.989 26.0025V26.0825C150.017 28.0825 149.989 30.0825 149.919 32.0725V32.0825Z" fill="url(#paint1_radial_2012_23760)"/>
<g style="mix-blend-mode:hard-light" opacity="0.2">
<path d="M149.015 10.2725C148.721 7.90252 146.983 5.79252 144.355 4.27252C141.902 2.64252 138.511 1.56252 134.677 1.38252C117.669 0.572524 32.328 0.572524 15.32 1.38252C11.4867 1.56252 8.0949 2.64252 5.64215 4.27252C3.02123 5.79252 1.27628 7.89252 0.98195 10.2725C-0.314499 20.8125 -0.314499 31.3625 0.98195 41.9025C1.27628 44.2725 3.01422 46.3825 5.64215 47.9025C8.0949 49.5325 11.4867 50.6125 15.32 50.7925C32.328 51.6025 117.669 51.6025 134.677 50.7925C138.511 50.6125 141.902 49.5325 144.355 47.9025C146.976 46.3825 148.721 44.2825 149.015 41.9025C150.312 31.3625 150.312 20.8125 149.015 10.2725Z" fill="white"/>
</g>
<path d="M149.625 34.7625C149.471 36.7825 149.268 38.7925 149.023 40.8125C148.728 43.1725 146.99 45.2525 144.362 46.7625C141.91 48.3725 138.518 49.4425 134.685 49.6225C117.677 50.4225 32.3352 50.4225 15.3272 49.6225C11.494 49.4425 8.10216 48.3725 5.64942 46.7625C3.02149 45.2525 1.28354 43.1725 0.989215 40.8125C0.757957 38.9525 0.568745 37.0825 0.42158 35.2125C-0.265187 26.6225 -0.0759748 18.0225 0.989215 9.43252C1.28354 7.08252 3.02149 4.99252 5.64942 3.48252C8.10216 1.87252 11.494 0.802522 15.3272 0.622522C32.3352 -0.177478 117.677 -0.177478 134.685 0.622522C138.518 0.802522 141.91 1.87252 144.362 3.48252C146.99 4.99252 148.728 7.07252 149.023 9.43252C150.067 17.8725 150.277 26.3225 149.625 34.7625Z" fill="url(#paint2_radial_2012_23760)"/>
<g style="mix-blend-mode:soft-light" opacity="0.75">
<path d="M149.625 34.7625C149.471 36.7825 149.268 38.7925 149.023 40.8125C148.728 43.1725 146.99 45.2525 144.362 46.7625C141.91 48.3725 138.518 49.4425 134.685 49.6225C117.677 50.4225 32.3353 50.4225 15.3273 49.6225C11.494 49.4425 8.10219 48.3725 5.64945 46.7625C3.02152 45.2525 1.28357 43.1725 0.989246 40.8125C0.757987 38.9525 0.568775 37.0825 0.421611 35.2125C-0.265157 26.6225 -0.0759443 18.0225 0.989246 9.43246C1.28357 7.08246 3.02152 4.99246 5.64945 3.48246C8.10219 1.87246 11.494 0.802461 15.3273 0.622461C32.3353 -0.177539 117.677 -0.177539 134.685 0.622461C138.518 0.802461 141.91 1.87246 144.362 3.48246C146.99 4.99246 148.728 7.07246 149.023 9.43246C150.067 17.8725 150.277 26.3225 149.625 34.7625Z" fill="url(#paint3_linear_2012_23760)"/>
</g>
<path style="mix-blend-mode:overlay" opacity="0.6" d="M149.99 25.3225C149.99 25.5525 149.99 25.7825 149.99 26.0125V26.0925C149.99 26.4825 149.976 26.8725 149.969 27.2725C149.947 28.3925 149.912 29.5025 149.856 30.6125C149.835 31.0725 149.807 31.5225 149.786 31.9825C149.744 32.6925 149.695 33.4125 149.639 34.1325C149.632 34.2325 149.625 34.3325 149.618 34.4325C149.043 34.5525 148.476 34.6825 147.908 34.7925C144.902 35.4225 141.895 35.9725 138.889 36.4625C137.831 36.6325 136.766 36.7925 135.708 36.9525C117.655 39.5725 31.2489 39.6725 13.1546 37.1125C12.1946 36.9825 11.2345 36.8325 10.2674 36.6825C7.55539 36.2625 4.84336 35.7725 2.13133 35.2225C1.55668 35.1125 0.989049 34.9925 0.421415 34.8725C0.421415 34.8325 0.421417 34.7825 0.407401 34.7425C0.337323 33.8425 0.274251 32.9525 0.225196 32.0525C0.190157 31.5225 0.169134 30.9925 0.141103 30.4725C0.0920484 29.4525 0.0570082 28.4425 0.0359847 27.4225V27.3825C0.0359847 27.0625 0.0219699 26.7325 0.014962 26.4125V26.3825C0.014962 25.9125 0.000946045 25.4525 0.000946045 24.9825C0.000946045 24.3025 0.000946527 23.6225 0.02197 22.9425C0.0359857 22.3125 0.0499998 21.6825 0.0710233 21.0525C0.0850389 20.5125 0.106063 19.9825 0.134094 19.4425C0.218188 17.5425 0.344331 15.6425 0.519527 13.7425C0.582597 13.0625 0.645667 12.3925 0.715745 11.7125C0.799839 10.9225 0.89094 10.1225 0.98905 9.3225C1.28338 6.9925 3.02132 4.9225 5.64926 3.4325C8.102 1.8325 11.4938 0.7725 15.3271 0.5925C32.3421 -0.1975 117.676 -0.1975 134.684 0.5925C138.518 0.7725 141.917 1.8325 144.362 3.4325C146.99 4.9225 148.728 6.9925 149.022 9.3225C149.149 10.3025 149.261 11.2825 149.359 12.2525C149.422 12.8925 149.485 13.5225 149.534 14.1625C149.695 15.9925 149.814 17.8225 149.891 19.6525C149.912 20.1225 149.926 20.5825 149.94 21.0525C149.969 21.8425 149.983 22.6225 149.997 23.4125C149.997 24.0425 149.997 24.6725 149.997 25.3025L149.99 25.3225Z" fill="url(#paint4_radial_2012_23760)"/>
<g style="mix-blend-mode:soft-light" opacity="0.6">
<path d="M125.84 8.0325C125.861 11.0825 114.025 9.1525 71.6347 9.1525C36.8689 9.1525 23.7082 11.1725 23.6871 8.1225C23.6661 5.0725 36.3643 2.5625 72.3075 2.5625C113.528 2.5625 125.819 4.9825 125.84 8.0325Z" fill="white"/>
</g>
<path d="M23.6429 33H19.0439C18.3439 33 17.8749 32.951 17.6369 32.853C17.3989 32.755 17.2799 32.601 17.2799 32.391V18.888C17.2799 18.216 19.3029 17.88 23.3489 17.88C25.6729 17.88 27.2759 18.104 28.1579 18.552C29.0539 19.014 29.6279 19.602 29.8799 20.316C30.0199 20.736 30.0899 21.226 30.0899 21.786C30.0899 22.878 29.9009 23.697 29.5229 24.243C29.1589 24.789 28.7599 25.097 28.3259 25.167C28.9839 25.307 29.5299 25.629 29.9639 26.133C30.3979 26.637 30.6149 27.491 30.6149 28.695C30.6149 30.095 30.1879 31.131 29.3339 31.803C28.5919 32.391 27.4579 32.762 25.9319 32.916C25.2879 32.972 24.5249 33 23.6429 33ZM23.6639 23.844C24.3779 23.844 24.7349 23.368 24.7349 22.416C24.7349 21.94 24.6369 21.59 24.4409 21.366C24.2589 21.128 24.0489 21.009 23.8109 21.009H23.1389V23.844H23.6639ZM23.1389 29.871H23.6639C24.3779 29.871 24.7349 29.395 24.7349 28.443C24.7349 27.967 24.6369 27.617 24.4409 27.393C24.2589 27.155 24.0489 27.036 23.8109 27.036H23.1389V29.871ZM36.2026 33.189C34.6346 33.189 33.5356 32.783 32.9056 31.971C32.2896 31.159 31.9816 29.745 31.9816 27.729V22.017C31.9816 21.737 32.3946 21.471 33.2206 21.219C34.0466 20.953 34.9146 20.82 35.8246 20.82C37.0426 20.82 37.6516 21.135 37.6516 21.765V27.099C37.6516 28.163 37.6936 28.94 37.7776 29.43C37.8616 29.906 38.0716 30.144 38.4076 30.144C38.8556 30.144 39.0796 29.955 39.0796 29.577V22.017C39.0796 21.723 39.5136 21.45 40.3816 21.198C41.2496 20.946 42.1946 20.82 43.2166 20.82C44.2386 20.82 44.7496 21.093 44.7496 21.639V32.454C44.7496 32.65 44.3086 32.79 43.4266 32.874C42.5446 32.958 41.6766 33 40.8226 33C39.9686 33 39.5346 32.888 39.5206 32.664L39.3106 31.299H39.1426C39.0166 31.803 38.7646 32.216 38.3866 32.538C38.1906 32.706 37.8966 32.86 37.5046 33C37.1266 33.126 36.6926 33.189 36.2026 33.189ZM53.291 31.635V30.396H53.123C53.053 30.466 52.948 30.557 52.808 30.669C52.668 30.781 52.339 30.928 51.821 31.11C51.303 31.292 50.722 31.383 50.078 31.383C49.448 31.383 48.888 31.285 48.398 31.089C47.922 30.879 47.544 30.606 47.264 30.27C46.984 29.92 46.767 29.458 46.613 28.884C46.347 27.974 46.214 26.686 46.214 25.02V22.122C46.214 21.828 46.627 21.541 47.453 21.261C48.279 20.967 49.147 20.82 50.057 20.82C51.275 20.82 51.884 21.135 51.884 21.765V24.411C51.884 27.211 52.108 28.611 52.556 28.611C52.822 28.611 52.955 28.422 52.955 28.044V22.122C52.955 21.828 53.396 21.541 54.278 21.261C55.16 20.967 56.105 20.82 57.113 20.82C58.121 20.82 58.625 21.093 58.625 21.639V31.572C58.625 34.694 56.511 36.255 52.283 36.255C50.057 36.255 48.545 36.038 47.747 35.604C47.397 35.408 47.222 35.205 47.222 34.995C47.222 34.659 47.362 34.092 47.642 33.294C47.922 32.51 48.181 32.118 48.419 32.118C48.475 32.118 48.671 32.16 49.007 32.244C50.043 32.524 50.904 32.664 51.59 32.664C52.29 32.664 52.745 32.587 52.955 32.433C53.179 32.279 53.291 32.013 53.291 31.635ZM73.8446 32.496C73.8446 32.65 73.4106 32.776 72.5426 32.874C71.6886 32.958 70.8276 33 69.9596 33C69.1056 33 68.5596 32.965 68.3216 32.895C68.0976 32.811 67.9856 32.678 67.9856 32.496V23.466H65.0666C64.9126 23.466 64.7796 23.27 64.6676 22.878C64.5556 22.486 64.4996 21.905 64.4996 21.135C64.4996 20.351 64.5836 19.651 64.7516 19.035C64.9196 18.405 65.1436 18.09 65.4236 18.09H76.7846C76.9946 18.09 77.1346 18.286 77.2046 18.678C77.2886 19.07 77.3306 19.637 77.3306 20.379C77.3306 21.121 77.2536 21.821 77.0996 22.479C76.9456 23.137 76.7356 23.466 76.4696 23.466H73.8446V32.496ZM84.2683 22.143V32.496C84.2683 32.65 83.8623 32.776 83.0503 32.874C82.2523 32.958 81.4263 33 80.5723 33C79.7323 33 79.1863 32.965 78.9343 32.895C78.6963 32.811 78.5773 32.678 78.5773 32.496V22.521C78.5773 22.213 78.9693 21.912 79.7533 21.618C80.5513 21.31 81.4193 21.156 82.3573 21.156C83.6313 21.156 84.2683 21.485 84.2683 22.143ZM81.4123 16.62C82.3363 16.62 83.0573 16.76 83.5753 17.04C84.1073 17.306 84.3733 17.796 84.3733 18.51C84.3733 19.77 83.3933 20.4 81.4333 20.4C79.4733 20.4 78.4933 19.77 78.4933 18.51C78.4933 17.25 79.4663 16.62 81.4123 16.62ZM88.5441 32.643C88.2081 32.489 87.8441 32.258 87.4521 31.95C87.0741 31.642 86.7591 31.278 86.5071 30.858C85.9191 29.85 85.6251 28.534 85.6251 26.91C85.6251 25.902 85.7861 25.006 86.1081 24.222C86.4301 23.424 86.8221 22.808 87.2841 22.374C87.7461 21.94 88.2781 21.583 88.8801 21.303C89.8461 20.855 90.8121 20.631 91.7781 20.631C93.4021 20.631 94.5291 20.757 95.1591 21.009C95.8031 21.261 96.1251 21.688 96.1251 22.29C96.1251 22.892 96.0131 23.536 95.7891 24.222C95.5791 24.894 95.2991 25.23 94.9491 25.23C94.8371 25.23 94.4941 25.111 93.9201 24.873C93.3601 24.635 92.8701 24.516 92.4501 24.516C92.0441 24.516 91.7291 24.684 91.5051 25.02C91.2951 25.342 91.1901 25.979 91.1901 26.931C91.1901 27.869 91.2881 28.513 91.4841 28.863C91.6801 29.199 91.9811 29.367 92.3871 29.367C92.8071 29.367 93.3251 29.227 93.9411 28.947C94.5571 28.667 94.9001 28.527 94.9701 28.527C95.2361 28.527 95.4881 28.842 95.7261 29.472C95.9781 30.102 96.1041 30.662 96.1041 31.152C96.1041 31.908 95.7121 32.44 94.9281 32.748C94.1441 33.042 93.0801 33.189 91.7361 33.189C90.4061 33.189 89.3421 33.007 88.5441 32.643ZM103.051 32.496C103.051 32.65 102.659 32.776 101.875 32.874C101.091 32.958 100.272 33 99.418 33C98.564 33 98.011 32.965 97.759 32.895C97.507 32.811 97.381 32.678 97.381 32.496V17.964C97.381 17.656 97.773 17.355 98.557 17.061C99.355 16.767 100.209 16.62 101.119 16.62C102.407 16.62 103.051 16.942 103.051 17.586V25.44H103.324C103.996 22.234 104.493 20.631 104.815 20.631C105.627 20.631 106.607 20.82 107.755 21.198C108.903 21.576 109.477 21.996 109.477 22.458C109.477 22.794 109.197 23.438 108.637 24.39C108.077 25.342 107.496 26.119 106.894 26.721C108.896 29.115 109.897 30.536 109.897 30.984C109.897 31.404 109.26 31.915 107.986 32.517C106.712 33.119 105.816 33.42 105.298 33.42C105.046 33.42 104.78 33.119 104.5 32.517C104.22 31.901 103.919 30.984 103.597 29.766L103.051 30.417V32.496ZM116.255 28.254C116.255 29.164 116.689 29.619 117.557 29.619C118.061 29.619 118.719 29.451 119.531 29.115C120.343 28.765 120.77 28.59 120.812 28.59C121.078 28.59 121.428 28.989 121.862 29.787C122.296 30.585 122.513 31.173 122.513 31.551C122.513 32.097 121.953 32.51 120.833 32.79C119.713 33.07 118.614 33.21 117.536 33.21C116.472 33.21 115.576 33.126 114.848 32.958C114.134 32.79 113.546 32.58 113.084 32.328C112.636 32.062 112.237 31.74 111.887 31.362C111.551 30.984 111.299 30.627 111.131 30.291C110.963 29.941 110.83 29.556 110.732 29.136C110.592 28.52 110.522 27.883 110.522 27.225C110.522 24.677 111.187 22.92 112.517 21.954C113.175 21.464 113.91 21.121 114.722 20.925C115.534 20.729 116.493 20.631 117.599 20.631C121.141 20.631 122.912 21.863 122.912 24.327C122.912 26.945 120.924 28.254 116.948 28.254H116.255ZM116.213 25.188V26.574C116.619 26.574 116.948 26.413 117.2 26.091C117.466 25.769 117.599 25.377 117.599 24.915C117.599 24.075 117.382 23.655 116.948 23.655C116.458 23.655 116.213 24.166 116.213 25.188ZM132.417 32.811C132.165 33.049 131.591 33.168 130.695 33.168C129.799 33.168 129.057 33.112 128.469 33C127.881 32.874 127.321 32.636 126.789 32.286C125.767 31.6 125.256 30.172 125.256 28.002V24.726H124.206C124.052 24.726 123.919 24.565 123.807 24.243C123.695 23.921 123.639 23.48 123.639 22.92C123.639 22.36 123.723 21.87 123.891 21.45C124.073 21.016 124.304 20.799 124.584 20.799H125.256V18.258C125.256 17.824 125.676 17.474 126.516 17.208C127.37 16.942 128.203 16.809 129.015 16.809C130.289 16.809 130.926 17.124 130.926 17.754V20.799H132.48C132.844 20.799 133.026 21.324 133.026 22.374C133.026 23.06 132.942 23.627 132.774 24.075C132.62 24.509 132.417 24.726 132.165 24.726H130.926V28.569C130.926 28.947 131.087 29.22 131.409 29.388C131.731 29.542 132.011 29.619 132.249 29.619C132.501 29.619 132.655 29.738 132.711 29.976C132.767 30.214 132.795 30.571 132.795 31.047C132.795 31.985 132.669 32.573 132.417 32.811Z" fill="white"/>
<defs>
<radialGradient id="paint0_radial_2012_23760" cx="0" cy="0" r="1" gradientUnits="userSpaceOnUse" gradientTransform="translate(74.1762 29.9159) scale(68.9436 42.1632)">
<stop/>
<stop offset="0.84" stop-opacity="0.2"/>
</radialGradient>
<radialGradient id="paint1_radial_2012_23760" cx="0" cy="0" r="1" gradientUnits="userSpaceOnUse" gradientTransform="translate(74.176 27.7937) scale(68.9436 42.1632)">
<stop stop-color="#F76F06"/>
<stop offset="0.98" stop-color="#D33501"/>
</radialGradient>
<radialGradient id="paint2_radial_2012_23760" cx="0" cy="0" r="1" gradientUnits="userSpaceOnUse" gradientTransform="translate(74.1832 25.1792) scale(68.9338 42.5574)">
<stop stop-color="#F76F06"/>
<stop offset="0.98" stop-color="#D33501"/>
</radialGradient>
<linearGradient id="paint3_linear_2012_23760" x1="75.9094" y1="50.0075" x2="75.9094" y2="38.1125" gradientUnits="userSpaceOnUse">
<stop/>
<stop offset="1" stop-opacity="0"/>
</linearGradient>
<radialGradient id="paint4_radial_2012_23760" cx="0" cy="0" r="1" gradientUnits="userSpaceOnUse" gradientTransform="translate(74.7591 10.5191) scale(71.3365 43.6266)">
<stop stop-color="white"/>
<stop offset="1" stop-color="white" stop-opacity="0"/>
</radialGradient>
</defs>
</svg>
