<svg width="150" height="55" viewBox="0 0 150 55" fill="none" xmlns="http://www.w3.org/2000/svg">
<path d="M149.989 30.7025C149.989 31.9025 149.954 33.1025 149.912 34.3125C149.828 36.6825 149.674 39.0525 149.45 41.4225C149.324 42.7525 149.184 44.0825 149.015 45.4125C148.721 47.7425 146.983 49.8125 144.355 51.3025C141.902 52.9025 138.511 53.9625 134.677 54.1425C117.669 54.9325 32.335 54.9325 15.32 54.1425C11.4867 53.9625 8.09488 52.9025 5.64213 51.3025C3.0142 49.8125 1.27626 47.7425 0.981928 45.4125C0.869803 44.5325 0.771693 43.6525 0.680591 42.7725C0.407286 40.1825 0.218074 37.5825 0.112956 34.9925C0.0498856 33.5225 0.0148467 32.0425 0.00783891 30.5725C-0.00617675 29.5225 0.00783939 28.4725 0.0288629 27.4225V27.3825C0.063902 25.8725 0.119965 24.3525 0.204059 22.8425C0.274137 21.6325 0.35823 20.4225 0.463348 19.2225C0.603504 17.5925 0.778701 15.9625 0.981928 14.3325C1.1361 13.1025 1.68972 11.9525 2.5657 10.9125C3.35057 9.98251 4.39474 9.14251 5.63513 8.44251C8.08787 6.84251 11.4797 5.78251 15.3129 5.60251C32.328 4.81251 117.662 4.81251 134.67 5.60251C138.504 5.78251 141.895 6.84251 144.348 8.44251C145.932 9.34251 147.193 10.4425 148.006 11.7025C148.546 12.5225 148.896 13.4125 149.008 14.3425C149.226 16.0625 149.408 17.7725 149.548 19.4925C149.66 20.7825 149.751 22.0725 149.814 23.3625C149.884 24.6725 149.933 25.9725 149.961 27.2825C149.989 28.4325 149.996 29.5725 149.989 30.7125V30.7025Z" fill="url(#paint0_radial_2012_23840)"/>
<path d="M149.919 32.0825C149.877 33.3325 149.814 34.5925 149.73 35.8425C149.59 37.9825 149.394 40.1225 149.141 42.2625C149.099 42.6025 149.057 42.9425 149.015 43.2825C148.721 45.6125 146.983 47.6825 144.355 49.1725C141.902 50.7725 138.51 51.8325 134.677 52.0125C117.669 52.8025 32.3348 52.8025 15.3198 52.0125C11.4865 51.8325 8.09471 50.7725 5.64197 49.1725C3.14718 47.7525 1.4583 45.8225 1.03783 43.6325C1.0098 43.5125 0.995782 43.4025 0.981767 43.2825C0.701454 41.0525 0.484209 38.8225 0.323029 36.5925C0.217912 35.1225 0.133818 33.6425 0.0847628 32.1725C0.00767669 30.2525 -0.0133459 28.3325 0.00767759 26.4025V26.3725C0.0146854 25.9025 0.0216926 25.4225 0.0357082 24.9525C0.0637395 23.6125 0.119803 22.2825 0.189881 20.9425C0.32303 18.4925 0.533265 16.0325 0.813578 13.5825C0.86964 13.1225 0.918696 12.6525 0.981767 12.1925C1.2761 9.8625 3.01404 7.79249 5.64197 6.30249C8.09471 4.70249 11.4865 3.6425 15.3198 3.4625C32.3348 2.6725 117.669 2.6725 134.677 3.4625C138.51 3.6425 141.902 4.70249 144.355 6.30249C146.983 7.79249 148.721 9.8625 149.015 12.1925C149.092 12.8025 149.162 13.4125 149.232 14.0225C149.492 16.3425 149.681 18.6625 149.814 20.9825C149.891 22.4225 149.947 23.8625 149.975 25.3025C149.975 25.5325 149.989 25.7625 149.989 26.0025V26.0825C150.017 28.0825 149.989 30.0825 149.919 32.0725V32.0825Z" fill="url(#paint1_radial_2012_23840)"/>
<g style="mix-blend-mode:hard-light" opacity="0.2">
<path d="M149.015 10.2725C148.721 7.90252 146.983 5.79252 144.355 4.27252C141.902 2.64252 138.511 1.56252 134.677 1.38252C117.669 0.572524 32.328 0.572524 15.32 1.38252C11.4867 1.56252 8.09493 2.64252 5.64219 4.27252C3.02126 5.79252 1.27631 7.89252 0.98198 10.2725C-0.314469 20.8125 -0.314469 31.3625 0.98198 41.9025C1.27631 44.2725 3.01425 46.3825 5.64219 47.9025C8.09493 49.5325 11.4867 50.6125 15.32 50.7925C32.328 51.6025 117.669 51.6025 134.677 50.7925C138.511 50.6125 141.902 49.5325 144.355 47.9025C146.976 46.3825 148.721 44.2825 149.015 41.9025C150.312 31.3625 150.312 20.8125 149.015 10.2725Z" fill="white"/>
</g>
<path d="M149.625 34.7625C149.471 36.7825 149.268 38.7925 149.023 40.8125C148.728 43.1725 146.99 45.2525 144.362 46.7625C141.91 48.3725 138.518 49.4425 134.685 49.6225C117.677 50.4225 32.3352 50.4225 15.3272 49.6225C11.494 49.4425 8.10216 48.3725 5.64942 46.7625C3.02149 45.2525 1.28354 43.1725 0.989215 40.8125C0.757957 38.9525 0.568745 37.0825 0.42158 35.2125C-0.265187 26.6225 -0.0759748 18.0225 0.989215 9.43246C1.28354 7.08246 3.02149 4.99246 5.64942 3.48246C8.10216 1.87246 11.494 0.802461 15.3272 0.622461C32.3352 -0.177539 117.677 -0.177539 134.685 0.622461C138.518 0.802461 141.91 1.87246 144.362 3.48246C146.99 4.99246 148.728 7.07246 149.023 9.43246C150.067 17.8725 150.277 26.3225 149.625 34.7625Z" fill="url(#paint2_radial_2012_23840)"/>
<g style="mix-blend-mode:soft-light" opacity="0.75">
<path d="M149.625 34.7625C149.471 36.7825 149.268 38.7925 149.023 40.8125C148.728 43.1725 146.99 45.2525 144.362 46.7625C141.91 48.3725 138.518 49.4425 134.685 49.6225C117.677 50.4225 32.3352 50.4225 15.3272 49.6225C11.494 49.4425 8.10216 48.3725 5.64942 46.7625C3.02149 45.2525 1.28354 43.1725 0.989215 40.8125C0.757957 38.9525 0.568745 37.0825 0.42158 35.2125C-0.265187 26.6225 -0.0759748 18.0225 0.989215 9.43246C1.28354 7.08246 3.02149 4.99246 5.64942 3.48246C8.10216 1.87246 11.494 0.802461 15.3272 0.622461C32.3352 -0.177539 117.677 -0.177539 134.685 0.622461C138.518 0.802461 141.91 1.87246 144.362 3.48246C146.99 4.99246 148.728 7.07246 149.023 9.43246C150.067 17.8725 150.277 26.3225 149.625 34.7625Z" fill="url(#paint3_linear_2012_23840)"/>
</g>
<path style="mix-blend-mode:overlay" opacity="0.6" d="M149.99 25.3225C149.99 25.5525 149.99 25.7825 149.99 26.0125V26.0925C149.99 26.4825 149.976 26.8725 149.969 27.2725C149.948 28.3925 149.912 29.5025 149.856 30.6125C149.835 31.0725 149.807 31.5225 149.786 31.9825C149.744 32.6925 149.695 33.4125 149.639 34.1325C149.632 34.2325 149.625 34.3325 149.618 34.4325C149.044 34.5525 148.476 34.6825 147.908 34.7925C144.902 35.4225 141.896 35.9725 138.889 36.4625C137.831 36.6325 136.766 36.7925 135.708 36.9525C117.655 39.5725 31.2489 39.6725 13.1547 37.1125C12.1946 36.9825 11.2345 36.8325 10.2674 36.6825C7.55542 36.2625 4.84339 35.7725 2.13136 35.2225C1.55672 35.1125 0.98908 34.9925 0.421445 34.8725C0.421445 34.8325 0.421448 34.7825 0.407432 34.7425C0.337354 33.8425 0.274282 32.9525 0.225227 32.0525C0.190188 31.5225 0.169165 30.9925 0.141134 30.4725C0.0920789 29.4525 0.0570387 28.4425 0.0360152 27.4225V27.3825C0.0360152 27.0625 0.0220004 26.7325 0.0149925 26.4125V26.3825C0.0149925 25.9125 0.000976562 25.4525 0.000976562 24.9825C0.000976562 24.3025 0.000977044 23.6225 0.0220005 22.9425C0.0360162 22.3125 0.0500303 21.6825 0.0710538 21.0525C0.0850695 20.5125 0.106093 19.9825 0.134124 19.4425C0.218218 17.5425 0.344361 15.6425 0.519557 13.7425C0.582628 13.0625 0.645697 12.3925 0.715776 11.7125C0.79987 10.9225 0.890971 10.1225 0.98908 9.3225C1.28341 6.9925 3.02135 4.9225 5.64929 3.4325C8.10203 1.8325 11.4938 0.7725 15.3271 0.5925C32.3421 -0.1975 117.676 -0.1975 134.684 0.5925C138.518 0.7725 141.917 1.8325 144.362 3.4325C146.99 4.9225 148.728 6.9925 149.022 9.3225C149.149 10.3025 149.261 11.2825 149.359 12.2525C149.422 12.8925 149.485 13.5225 149.534 14.1625C149.695 15.9925 149.814 17.8225 149.891 19.6525C149.912 20.1225 149.926 20.5825 149.941 21.0525C149.969 21.8425 149.983 22.6225 149.997 23.4125C149.997 24.0425 149.997 24.6725 149.997 25.3025L149.99 25.3225Z" fill="url(#paint4_radial_2012_23840)"/>
<g style="mix-blend-mode:soft-light" opacity="0.6">
<path d="M125.84 8.0325C125.861 11.0825 114.025 9.1525 71.6347 9.1525C36.8689 9.1525 23.7082 11.1725 23.6872 8.1225C23.6661 5.0725 36.3643 2.5625 72.3075 2.5625C113.528 2.5625 125.819 4.9825 125.84 8.0325Z" fill="white"/>
</g>
<path d="M44.9967 32.853C44.4367 32.979 43.8627 33.063 43.2747 33.105C42.7007 33.161 42.1337 33.189 41.5737 33.189C41.0277 33.189 40.6007 33.175 40.2927 33.147C39.9987 33.119 39.6067 33.049 39.1167 32.937C38.6267 32.825 38.1787 32.671 37.7727 32.475C37.3667 32.279 36.9327 31.992 36.4707 31.614C36.0227 31.236 35.6447 30.788 35.3367 30.27C34.6227 29.066 34.2657 27.512 34.2657 25.608C34.2657 24.334 34.4617 23.207 34.8537 22.227C35.2597 21.247 35.7427 20.491 36.3027 19.959C36.8767 19.427 37.5277 19 38.2557 18.678C39.4317 18.146 40.6147 17.88 41.8047 17.88C43.5127 17.88 44.7377 18.02 45.4797 18.3C45.8157 18.426 46.1167 18.622 46.3827 18.888C46.6487 19.154 46.7817 19.539 46.7817 20.043C46.7817 20.547 46.6557 21.184 46.4037 21.954C46.1657 22.724 45.8157 23.109 45.3537 23.109C45.2137 23.109 44.6957 22.997 43.7997 22.773C42.9037 22.549 42.2947 22.437 41.9727 22.437C41.4827 22.437 41.0627 22.71 40.7127 23.256C40.3767 23.802 40.2087 24.579 40.2087 25.587C40.2087 26.595 40.3557 27.379 40.6497 27.939C40.9577 28.499 41.3567 28.779 41.8467 28.779C42.1967 28.779 42.8267 28.639 43.7367 28.359C44.6607 28.065 45.1997 27.918 45.3537 27.918C45.7877 27.918 46.1237 28.317 46.3617 29.115C46.6137 29.913 46.7397 30.557 46.7397 31.047C46.7397 31.537 46.5857 31.929 46.2777 32.223C45.9837 32.503 45.5567 32.713 44.9967 32.853ZM54.053 31.929C54.025 32.335 53.808 32.615 53.402 32.769C53.01 32.923 52.296 33 51.26 33C50.224 33 49.356 32.909 48.656 32.727C47.97 32.531 47.627 32.286 47.627 31.992C47.627 31.656 48.25 29.514 49.496 25.566C50.742 21.604 51.456 19.322 51.638 18.72C51.708 18.538 52.268 18.391 53.318 18.279C54.382 18.153 55.516 18.09 56.72 18.09C57.938 18.09 58.61 18.3 58.736 18.72C61.382 27.512 62.705 31.978 62.705 32.118C62.705 32.258 62.621 32.398 62.453 32.538C62.061 32.846 61.284 33 60.122 33C57.644 33 56.377 32.706 56.321 32.118L56.174 30.753H54.158L54.053 31.929ZM55.733 26.763L55.418 22.983H54.956L54.599 26.763H55.733ZM69.6199 32.391C69.6199 32.573 69.1859 32.72 68.3179 32.832C67.4639 32.944 66.6099 33 65.7559 33C64.9019 33 64.3559 32.951 64.1179 32.853C63.8799 32.755 63.7609 32.601 63.7609 32.391V19.497C63.7609 19.147 64.1599 18.825 64.9579 18.531C65.7699 18.237 66.6869 18.09 67.7089 18.09C68.0729 18.09 68.3459 18.104 68.5279 18.132C69.0039 18.202 69.3399 18.503 69.5359 19.035L71.5519 24.453H71.6359V19.497C71.6359 19.147 72.0349 18.825 72.8329 18.531C73.6309 18.237 74.5409 18.09 75.5629 18.09C76.4449 18.09 77.0049 18.258 77.2429 18.594C77.4109 18.832 77.4949 19.049 77.4949 19.245V32.391C77.4949 32.573 77.0609 32.72 76.1929 32.832C75.3389 32.944 74.3939 33 73.3579 33C72.3359 33 71.7759 32.867 71.6779 32.601L69.7249 27.435H69.6199V32.391ZM89.7038 32.853C89.1438 32.979 88.5698 33.063 87.9818 33.105C87.4078 33.161 86.8408 33.189 86.2808 33.189C85.7348 33.189 85.3078 33.175 84.9998 33.147C84.7058 33.119 84.3138 33.049 83.8238 32.937C83.3338 32.825 82.8858 32.671 82.4798 32.475C82.0738 32.279 81.6398 31.992 81.1778 31.614C80.7298 31.236 80.3518 30.788 80.0438 30.27C79.3298 29.066 78.9728 27.512 78.9728 25.608C78.9728 24.334 79.1688 23.207 79.5608 22.227C79.9668 21.247 80.4498 20.491 81.0098 19.959C81.5838 19.427 82.2348 19 82.9628 18.678C84.1388 18.146 85.3218 17.88 86.5118 17.88C88.2198 17.88 89.4448 18.02 90.1868 18.3C90.5228 18.426 90.8238 18.622 91.0898 18.888C91.3558 19.154 91.4888 19.539 91.4888 20.043C91.4888 20.547 91.3628 21.184 91.1108 21.954C90.8728 22.724 90.5228 23.109 90.0608 23.109C89.9208 23.109 89.4028 22.997 88.5068 22.773C87.6108 22.549 87.0018 22.437 86.6798 22.437C86.1898 22.437 85.7698 22.71 85.4198 23.256C85.0838 23.802 84.9158 24.579 84.9158 25.587C84.9158 26.595 85.0628 27.379 85.3568 27.939C85.6648 28.499 86.0638 28.779 86.5538 28.779C86.9038 28.779 87.5338 28.639 88.4438 28.359C89.3678 28.065 89.9068 27.918 90.0608 27.918C90.4948 27.918 90.8308 28.317 91.0688 29.115C91.3208 29.913 91.4468 30.557 91.4468 31.047C91.4468 31.537 91.2928 31.929 90.9848 32.223C90.6908 32.503 90.2638 32.713 89.7038 32.853ZM103.611 33H94.707C94.021 33 93.559 32.951 93.321 32.853C93.083 32.755 92.964 32.601 92.964 32.391V19.098C92.964 18.734 93.125 18.475 93.447 18.321C93.783 18.167 94.378 18.09 95.232 18.09H103.674C103.968 18.09 104.115 18.58 104.115 19.56C104.115 20.526 104.052 21.268 103.926 21.786C103.8 22.29 103.632 22.542 103.422 22.542C102.512 22.542 100.979 22.451 98.823 22.269V23.676C100.895 23.592 102.246 23.55 102.876 23.55C103.254 23.55 103.443 23.991 103.443 24.873C103.443 25.755 103.366 26.427 103.212 26.889C103.072 27.337 102.876 27.561 102.624 27.561L98.823 27.477V28.821C101.259 28.639 102.939 28.548 103.863 28.548C104.157 28.548 104.304 29.038 104.304 30.018C104.304 30.998 104.241 31.74 104.115 32.244C103.989 32.748 103.821 33 103.611 33ZM107.545 33C106.845 33 106.376 32.965 106.138 32.895C105.9 32.811 105.781 32.678 105.781 32.496V19.434C105.781 19.126 106.187 18.825 106.999 18.531C107.811 18.223 108.721 18.069 109.729 18.069C110.625 18.069 111.213 18.258 111.493 18.636C111.591 18.776 111.64 18.916 111.64 19.056V28.359C113.348 28.247 114.636 28.191 115.504 28.191C115.798 28.191 115.945 28.66 115.945 29.598C115.945 30.522 115.882 31.32 115.756 31.992C115.63 32.664 115.462 33 115.252 33H107.545Z" fill="#731F0D"/>
<defs>
<radialGradient id="paint0_radial_2012_23840" cx="0" cy="0" r="1" gradientUnits="userSpaceOnUse" gradientTransform="translate(74.1762 29.9159) scale(68.9436 42.1632)">
<stop/>
<stop offset="0.84" stop-opacity="0.2"/>
</radialGradient>
<radialGradient id="paint1_radial_2012_23840" cx="0" cy="0" r="1" gradientUnits="userSpaceOnUse" gradientTransform="translate(74.176 27.7937) scale(68.9436 42.1632)">
<stop stop-color="#F76F06"/>
<stop offset="0.98" stop-color="#D33501"/>
</radialGradient>
<radialGradient id="paint2_radial_2012_23840" cx="0" cy="0" r="1" gradientUnits="userSpaceOnUse" gradientTransform="translate(74.1832 25.1792) scale(68.9338 42.5574)">
<stop stop-color="#F76F06"/>
<stop offset="0.98" stop-color="#D33501"/>
</radialGradient>
<linearGradient id="paint3_linear_2012_23840" x1="75.9093" y1="50.0075" x2="75.9093" y2="38.1125" gradientUnits="userSpaceOnUse">
<stop/>
<stop offset="1" stop-opacity="0"/>
</linearGradient>
<radialGradient id="paint4_radial_2012_23840" cx="0" cy="0" r="1" gradientUnits="userSpaceOnUse" gradientTransform="translate(74.7591 10.5191) scale(71.3365 43.6266)">
<stop stop-color="white"/>
<stop offset="1" stop-color="white" stop-opacity="0"/>
</radialGradient>
</defs>
</svg>
