<svg width="150" height="55" viewBox="0 0 150 55" fill="none" xmlns="http://www.w3.org/2000/svg">
<path d="M149.989 30.7025C149.989 31.9025 149.954 33.1025 149.912 34.3125C149.828 36.6825 149.674 39.0525 149.45 41.4225C149.324 42.7525 149.184 44.0825 149.015 45.4125C148.721 47.7425 146.983 49.8125 144.355 51.3025C141.902 52.9025 138.511 53.9625 134.677 54.1425C117.669 54.9325 32.335 54.9325 15.32 54.1425C11.4867 53.9625 8.09488 52.9025 5.64213 51.3025C3.0142 49.8125 1.27626 47.7425 0.981928 45.4125C0.869803 44.5325 0.771693 43.6525 0.680591 42.7725C0.407286 40.1825 0.218074 37.5825 0.112956 34.9925C0.0498856 33.5225 0.0148467 32.0425 0.00783891 30.5725C-0.00617675 29.5225 0.00783939 28.4725 0.0288629 27.4225V27.3825C0.063902 25.8725 0.119965 24.3525 0.204059 22.8425C0.274137 21.6325 0.35823 20.4225 0.463348 19.2225C0.603504 17.5925 0.778701 15.9625 0.981928 14.3325C1.1361 13.1025 1.68972 11.9525 2.5657 10.9125C3.35057 9.98251 4.39474 9.14251 5.63513 8.44251C8.08787 6.84251 11.4797 5.78251 15.3129 5.60251C32.328 4.81251 117.662 4.81251 134.67 5.60251C138.504 5.78251 141.895 6.84251 144.348 8.44251C145.932 9.34251 147.193 10.4425 148.006 11.7025C148.546 12.5225 148.896 13.4125 149.008 14.3425C149.226 16.0625 149.408 17.7725 149.548 19.4925C149.66 20.7825 149.751 22.0725 149.814 23.3625C149.884 24.6725 149.933 25.9725 149.961 27.2825C149.989 28.4325 149.996 29.5725 149.989 30.7125V30.7025Z" fill="url(#paint0_radial_2012_23981)"/>
<path d="M149.919 32.0825C149.877 33.3325 149.814 34.5925 149.73 35.8425C149.59 37.9825 149.394 40.1225 149.141 42.2625C149.099 42.6025 149.057 42.9425 149.015 43.2825C148.721 45.6125 146.983 47.6825 144.355 49.1725C141.902 50.7725 138.51 51.8325 134.677 52.0125C117.669 52.8025 32.3348 52.8025 15.3198 52.0125C11.4865 51.8325 8.09471 50.7725 5.64197 49.1725C3.14718 47.7525 1.4583 45.8225 1.03783 43.6325C1.0098 43.5125 0.995782 43.4025 0.981767 43.2825C0.701454 41.0525 0.484209 38.8225 0.323029 36.5925C0.217912 35.1225 0.133818 33.6425 0.0847628 32.1725C0.00767669 30.2525 -0.0133459 28.3325 0.00767759 26.4025V26.3725C0.0146854 25.9025 0.0216926 25.4225 0.0357082 24.9525C0.0637395 23.6125 0.119803 22.2825 0.189881 20.9425C0.32303 18.4925 0.533265 16.0325 0.813578 13.5825C0.86964 13.1225 0.918696 12.6525 0.981767 12.1925C1.2761 9.8625 3.01404 7.79249 5.64197 6.30249C8.09471 4.70249 11.4865 3.6425 15.3198 3.4625C32.3348 2.6725 117.669 2.6725 134.677 3.4625C138.51 3.6425 141.902 4.70249 144.355 6.30249C146.983 7.79249 148.721 9.8625 149.015 12.1925C149.092 12.8025 149.162 13.4125 149.232 14.0225C149.492 16.3425 149.681 18.6625 149.814 20.9825C149.891 22.4225 149.947 23.8625 149.975 25.3025C149.975 25.5325 149.989 25.7625 149.989 26.0025V26.0825C150.017 28.0825 149.989 30.0825 149.919 32.0725V32.0825Z" fill="url(#paint1_radial_2012_23981)"/>
<g style="mix-blend-mode:hard-light" opacity="0.2">
<path d="M149.015 10.2725C148.721 7.90252 146.983 5.79252 144.355 4.27252C141.902 2.64252 138.511 1.56252 134.677 1.38252C117.669 0.572524 32.328 0.572524 15.32 1.38252C11.4867 1.56252 8.09493 2.64252 5.64219 4.27252C3.02126 5.79252 1.27631 7.89252 0.98198 10.2725C-0.314469 20.8125 -0.314469 31.3625 0.98198 41.9025C1.27631 44.2725 3.01425 46.3825 5.64219 47.9025C8.09493 49.5325 11.4867 50.6125 15.32 50.7925C32.328 51.6025 117.669 51.6025 134.677 50.7925C138.511 50.6125 141.902 49.5325 144.355 47.9025C146.976 46.3825 148.721 44.2825 149.015 41.9025C150.312 31.3625 150.312 20.8125 149.015 10.2725Z" fill="white"/>
</g>
<path d="M149.625 34.7625C149.471 36.7825 149.268 38.7925 149.023 40.8125C148.728 43.1725 146.99 45.2525 144.362 46.7625C141.91 48.3725 138.518 49.4425 134.685 49.6225C117.677 50.4225 32.3352 50.4225 15.3272 49.6225C11.494 49.4425 8.10216 48.3725 5.64942 46.7625C3.02149 45.2525 1.28354 43.1725 0.989215 40.8125C0.757957 38.9525 0.568745 37.0825 0.42158 35.2125C-0.265187 26.6225 -0.0759748 18.0225 0.989215 9.43246C1.28354 7.08246 3.02149 4.99246 5.64942 3.48246C8.10216 1.87246 11.494 0.802461 15.3272 0.622461C32.3352 -0.177539 117.677 -0.177539 134.685 0.622461C138.518 0.802461 141.91 1.87246 144.362 3.48246C146.99 4.99246 148.728 7.07246 149.023 9.43246C150.067 17.8725 150.277 26.3225 149.625 34.7625Z" fill="url(#paint2_radial_2012_23981)"/>
<g style="mix-blend-mode:soft-light" opacity="0.75">
<path d="M149.625 34.7625C149.471 36.7825 149.268 38.7925 149.023 40.8125C148.728 43.1725 146.99 45.2525 144.362 46.7625C141.91 48.3725 138.518 49.4425 134.685 49.6225C117.677 50.4225 32.3352 50.4225 15.3272 49.6225C11.494 49.4425 8.10216 48.3725 5.64942 46.7625C3.02149 45.2525 1.28354 43.1725 0.989215 40.8125C0.757957 38.9525 0.568745 37.0825 0.42158 35.2125C-0.265187 26.6225 -0.0759748 18.0225 0.989215 9.43246C1.28354 7.08246 3.02149 4.99246 5.64942 3.48246C8.10216 1.87246 11.494 0.802461 15.3272 0.622461C32.3352 -0.177539 117.677 -0.177539 134.685 0.622461C138.518 0.802461 141.91 1.87246 144.362 3.48246C146.99 4.99246 148.728 7.07246 149.023 9.43246C150.067 17.8725 150.277 26.3225 149.625 34.7625Z" fill="url(#paint3_linear_2012_23981)"/>
</g>
<path style="mix-blend-mode:overlay" opacity="0.6" d="M149.99 25.3225C149.99 25.5525 149.99 25.7825 149.99 26.0125V26.0925C149.99 26.4825 149.976 26.8725 149.969 27.2725C149.948 28.3925 149.912 29.5025 149.856 30.6125C149.835 31.0725 149.807 31.5225 149.786 31.9825C149.744 32.6925 149.695 33.4125 149.639 34.1325C149.632 34.2325 149.625 34.3325 149.618 34.4325C149.044 34.5525 148.476 34.6825 147.908 34.7925C144.902 35.4225 141.896 35.9725 138.889 36.4625C137.831 36.6325 136.766 36.7925 135.708 36.9525C117.655 39.5725 31.2489 39.6725 13.1547 37.1125C12.1946 36.9825 11.2345 36.8325 10.2674 36.6825C7.55542 36.2625 4.84339 35.7725 2.13136 35.2225C1.55672 35.1125 0.98908 34.9925 0.421445 34.8725C0.421445 34.8325 0.421448 34.7825 0.407432 34.7425C0.337354 33.8425 0.274282 32.9525 0.225227 32.0525C0.190188 31.5225 0.169165 30.9925 0.141134 30.4725C0.0920789 29.4525 0.0570387 28.4425 0.0360152 27.4225V27.3825C0.0360152 27.0625 0.0220004 26.7325 0.0149925 26.4125V26.3825C0.0149925 25.9125 0.000976562 25.4525 0.000976562 24.9825C0.000976562 24.3025 0.000977044 23.6225 0.0220005 22.9425C0.0360162 22.3125 0.0500303 21.6825 0.0710538 21.0525C0.0850695 20.5125 0.106093 19.9825 0.134124 19.4425C0.218218 17.5425 0.344361 15.6425 0.519557 13.7425C0.582628 13.0625 0.645697 12.3925 0.715776 11.7125C0.79987 10.9225 0.890971 10.1225 0.98908 9.3225C1.28341 6.9925 3.02135 4.9225 5.64929 3.4325C8.10203 1.8325 11.4938 0.7725 15.3271 0.5925C32.3421 -0.1975 117.676 -0.1975 134.684 0.5925C138.518 0.7725 141.917 1.8325 144.362 3.4325C146.99 4.9225 148.728 6.9925 149.022 9.3225C149.149 10.3025 149.261 11.2825 149.359 12.2525C149.422 12.8925 149.485 13.5225 149.534 14.1625C149.695 15.9925 149.814 17.8225 149.891 19.6525C149.912 20.1225 149.926 20.5825 149.941 21.0525C149.969 21.8425 149.983 22.6225 149.997 23.4125C149.997 24.0425 149.997 24.6725 149.997 25.3025L149.99 25.3225Z" fill="url(#paint4_radial_2012_23981)"/>
<g style="mix-blend-mode:soft-light" opacity="0.6">
<path d="M125.84 8.0325C125.861 11.0825 114.025 9.1525 71.6347 9.1525C36.8689 9.1525 23.7082 11.1725 23.6872 8.1225C23.6661 5.0725 36.3643 2.5625 72.3075 2.5625C113.528 2.5625 125.819 4.9825 125.84 8.0325Z" fill="white"/>
</g>
<path d="M52.5436 32.853C51.9836 32.979 51.4096 33.063 50.8216 33.105C50.2476 33.161 49.6806 33.189 49.1206 33.189C48.5746 33.189 48.1476 33.175 47.8396 33.147C47.5456 33.119 47.1536 33.049 46.6636 32.937C46.1736 32.825 45.7256 32.671 45.3196 32.475C44.9136 32.279 44.4796 31.992 44.0176 31.614C43.5696 31.236 43.1916 30.788 42.8836 30.27C42.1696 29.066 41.8126 27.512 41.8126 25.608C41.8126 24.334 42.0086 23.207 42.4006 22.227C42.8066 21.247 43.2896 20.491 43.8496 19.959C44.4236 19.427 45.0746 19 45.8026 18.678C46.9786 18.146 48.1616 17.88 49.3516 17.88C51.0596 17.88 52.2846 18.02 53.0266 18.3C53.3626 18.426 53.6636 18.622 53.9296 18.888C54.1956 19.154 54.3286 19.539 54.3286 20.043C54.3286 20.547 54.2026 21.184 53.9506 21.954C53.7126 22.724 53.3626 23.109 52.9006 23.109C52.7606 23.109 52.2426 22.997 51.3466 22.773C50.4506 22.549 49.8416 22.437 49.5196 22.437C49.0296 22.437 48.6096 22.71 48.2596 23.256C47.9236 23.802 47.7556 24.579 47.7556 25.587C47.7556 26.595 47.9026 27.379 48.1966 27.939C48.5046 28.499 48.9036 28.779 49.3936 28.779C49.7436 28.779 50.3736 28.639 51.2836 28.359C52.2076 28.065 52.7466 27.918 52.9006 27.918C53.3346 27.918 53.6706 28.317 53.9086 29.115C54.1606 29.913 54.2866 30.557 54.2866 31.047C54.2866 31.537 54.1326 31.929 53.8246 32.223C53.5306 32.503 53.1036 32.713 52.5436 32.853ZM57.5679 33C56.8679 33 56.3989 32.965 56.1609 32.895C55.9229 32.811 55.8039 32.678 55.8039 32.496V19.434C55.8039 19.126 56.2099 18.825 57.0219 18.531C57.8339 18.223 58.7439 18.069 59.7519 18.069C60.6479 18.069 61.2359 18.258 61.5159 18.636C61.6139 18.776 61.6629 18.916 61.6629 19.056V28.359C63.3709 28.247 64.6589 28.191 65.5269 28.191C65.8209 28.191 65.9679 28.66 65.9679 29.598C65.9679 30.522 65.9049 31.32 65.7789 31.992C65.6529 32.664 65.4849 33 65.2749 33H57.5679ZM74.3247 33.189C73.1627 33.189 72.1617 33.084 71.3217 32.874C70.4957 32.65 69.7327 32.258 69.0327 31.698C67.6187 30.592 66.9117 28.471 66.9117 25.335C66.9117 24.019 67.1007 22.871 67.4787 21.891C67.8707 20.911 68.4097 20.134 69.0957 19.56C70.4397 18.44 72.1827 17.88 74.3247 17.88C75.4307 17.88 76.3897 17.978 77.2017 18.174C78.0277 18.37 78.8047 18.727 79.5327 19.245C81.0027 20.309 81.7377 22.339 81.7377 25.335C81.7377 28.023 81.0727 30.004 79.7427 31.278C78.4127 32.552 76.6067 33.189 74.3247 33.189ZM73.6317 29.598C73.7997 29.794 74.0307 29.892 74.3247 29.892C74.6187 29.892 74.8497 29.794 75.0177 29.598C75.1857 29.388 75.3257 28.954 75.4377 28.296C75.5497 27.624 75.6057 26.693 75.6057 25.503C75.6057 24.313 75.5497 23.396 75.4377 22.752C75.3257 22.108 75.1857 21.688 75.0177 21.492C74.8497 21.296 74.6187 21.198 74.3247 21.198C74.0307 21.198 73.7997 21.296 73.6317 21.492C73.4637 21.688 73.3237 22.108 73.2117 22.752C73.0997 23.396 73.0437 24.313 73.0437 25.503C73.0437 26.693 73.0997 27.624 73.2117 28.296C73.3237 28.954 73.4637 29.388 73.6317 29.598ZM93.7888 32.118C93.3688 32.426 92.7808 32.685 92.0248 32.895C91.2828 33.091 90.3168 33.189 89.1268 33.189C87.9508 33.189 86.8308 33.091 85.7668 32.895C84.7028 32.699 83.9398 32.482 83.4778 32.244C83.0158 32.006 82.7848 31.775 82.7848 31.551C82.7848 30.767 82.8968 29.955 83.1208 29.115C83.3448 28.261 83.6108 27.834 83.9188 27.834C83.9748 27.834 84.5558 28.023 85.6618 28.401C86.7678 28.779 87.6008 28.968 88.1608 28.968C88.7208 28.968 89.0848 28.912 89.2528 28.8C89.4208 28.674 89.5048 28.499 89.5048 28.275C89.5048 28.051 89.3508 27.855 89.0428 27.687C88.7348 27.505 88.3498 27.351 87.8878 27.225C87.4258 27.085 86.9218 26.889 86.3758 26.637C85.8438 26.385 85.3468 26.105 84.8848 25.797C84.4228 25.489 84.0378 25.055 83.7298 24.495C83.4218 23.921 83.2678 23.27 83.2678 22.542C83.2678 19.434 85.1228 17.88 88.8328 17.88C90.2188 17.88 91.4158 17.971 92.4238 18.153C93.4318 18.321 94.1388 18.517 94.5448 18.741C94.9648 18.951 95.1748 19.161 95.1748 19.371C95.1748 20.099 94.9998 20.883 94.6498 21.723C94.3138 22.563 93.9848 22.983 93.6628 22.983C93.6068 22.983 93.4248 22.92 93.1168 22.794C92.1928 22.388 91.4228 22.185 90.8068 22.185C90.2048 22.185 89.7918 22.241 89.5678 22.353C89.3578 22.465 89.2528 22.64 89.2528 22.878C89.2528 23.102 89.4068 23.291 89.7148 23.445C90.0228 23.585 90.4008 23.718 90.8488 23.844C91.3108 23.956 91.8078 24.138 92.3398 24.39C92.8858 24.628 93.3898 24.915 93.8518 25.251C94.3138 25.573 94.6988 26.035 95.0068 26.637C95.3148 27.239 95.4688 27.939 95.4688 28.737C95.4688 29.577 95.2518 30.34 94.8178 31.026C94.5518 31.446 94.2088 31.81 93.7888 32.118ZM107.487 33H98.583C97.897 33 97.435 32.951 97.197 32.853C96.959 32.755 96.84 32.601 96.84 32.391V19.098C96.84 18.734 97.001 18.475 97.323 18.321C97.659 18.167 98.254 18.09 99.108 18.09H107.55C107.844 18.09 107.991 18.58 107.991 19.56C107.991 20.526 107.928 21.268 107.802 21.786C107.676 22.29 107.508 22.542 107.298 22.542C106.388 22.542 104.855 22.451 102.699 22.269V23.676C104.771 23.592 106.122 23.55 106.752 23.55C107.13 23.55 107.319 23.991 107.319 24.873C107.319 25.755 107.242 26.427 107.088 26.889C106.948 27.337 106.752 27.561 106.5 27.561L102.699 27.477V28.821C105.135 28.639 106.815 28.548 107.739 28.548C108.033 28.548 108.18 29.038 108.18 30.018C108.18 30.998 108.117 31.74 107.991 32.244C107.865 32.748 107.697 33 107.487 33Z" fill="#731F0D"/>
<defs>
<radialGradient id="paint0_radial_2012_23981" cx="0" cy="0" r="1" gradientUnits="userSpaceOnUse" gradientTransform="translate(74.1762 29.9159) scale(68.9436 42.1632)">
<stop/>
<stop offset="0.84" stop-opacity="0.2"/>
</radialGradient>
<radialGradient id="paint1_radial_2012_23981" cx="0" cy="0" r="1" gradientUnits="userSpaceOnUse" gradientTransform="translate(74.176 27.7937) scale(68.9436 42.1632)">
<stop stop-color="#F76F06"/>
<stop offset="0.98" stop-color="#D33501"/>
</radialGradient>
<radialGradient id="paint2_radial_2012_23981" cx="0" cy="0" r="1" gradientUnits="userSpaceOnUse" gradientTransform="translate(74.1832 25.1792) scale(68.9338 42.5574)">
<stop stop-color="#F76F06"/>
<stop offset="0.98" stop-color="#D33501"/>
</radialGradient>
<linearGradient id="paint3_linear_2012_23981" x1="75.9093" y1="50.0075" x2="75.9093" y2="38.1125" gradientUnits="userSpaceOnUse">
<stop/>
<stop offset="1" stop-opacity="0"/>
</linearGradient>
<radialGradient id="paint4_radial_2012_23981" cx="0" cy="0" r="1" gradientUnits="userSpaceOnUse" gradientTransform="translate(74.7591 10.5191) scale(71.3365 43.6266)">
<stop stop-color="white"/>
<stop offset="1" stop-color="white" stop-opacity="0"/>
</radialGradient>
</defs>
</svg>
