<svg width="40" height="34" viewBox="0 0 40 34" fill="none" xmlns="http://www.w3.org/2000/svg">
<path d="M20.0299 31.24C27.414 31.24 33.3999 24.9943 33.3999 17.29C33.3999 9.58559 27.414 3.33997 20.0299 3.33997C12.6459 3.33997 6.65991 9.58559 6.65991 17.29C6.65991 24.9943 12.6459 31.24 20.0299 31.24Z" fill="url(#paint0_radial_2012_23920)"/>
<path d="M33.3999 15.6499C33.3999 16.0999 33.3699 16.5399 33.3199 16.9699C33.2999 17.1699 33.2699 17.3699 33.2299 17.5599C33.1699 17.8899 33.0999 18.2199 33.0099 18.5399C32.9499 18.7699 32.8799 18.9899 32.8099 19.2199C32.5799 19.9099 32.2799 20.5799 31.9299 21.2099C31.8599 21.3399 31.7799 21.4799 31.6999 21.6099C29.4099 25.3399 25.0399 27.8499 20.0299 27.8499C15.0199 27.8499 10.7499 25.3899 8.43991 21.7299C8.35991 21.5999 8.27991 21.4699 8.19991 21.3399C7.83991 20.7099 7.52991 20.0599 7.28991 19.3699C7.20991 19.1499 7.13991 18.9199 7.07991 18.6899C6.96991 18.3099 6.87991 17.9199 6.81991 17.5299C6.77991 17.3099 6.74991 17.0899 6.72991 16.8599C6.68991 16.4599 6.65991 16.0499 6.65991 15.6299C6.65991 15.3399 6.66991 15.0599 6.68991 14.7799C6.70991 14.5499 6.72991 14.3199 6.75991 14.0899C6.80991 13.6999 6.88991 13.3199 6.97991 12.9499C7.10991 12.4299 7.26991 11.9199 7.46991 11.4199C7.59991 11.0999 7.73991 10.7899 7.89991 10.4799C8.56991 9.16993 9.47991 7.98993 10.5899 6.97993C10.9999 6.59993 11.4399 6.24993 11.9099 5.92993C14.1599 4.35993 16.9699 3.42993 20.0199 3.42993C23.0699 3.42993 26.1199 4.43993 28.4199 6.13993C28.8899 6.47993 29.3299 6.85993 29.7399 7.24993C30.7999 8.26993 31.6699 9.46993 32.2899 10.7799C32.4199 11.0599 32.5399 11.3399 32.6499 11.6199C32.8499 12.1499 33.0199 12.6999 33.1399 13.2699C33.2099 13.6099 33.2699 13.9599 33.3099 14.3199C33.3299 14.4799 33.3399 14.6299 33.3599 14.7899C33.3799 15.0699 33.3899 15.3599 33.3899 15.6399L33.3999 15.6499Z" fill="url(#paint1_radial_2012_23920)"/>
<g style="mix-blend-mode:hard-light" opacity="0.2">
<path d="M20.0299 26.64C27.414 26.64 33.3999 21.1734 33.3999 14.43C33.3999 7.68657 27.414 2.21997 20.0299 2.21997C12.6459 2.21997 6.65991 7.68657 6.65991 14.43C6.65991 21.1734 12.6459 26.64 20.0299 26.64Z" fill="white"/>
</g>
<path d="M33.3999 13.95C33.3999 15.33 33.1499 16.65 32.6899 17.89C30.8999 22.7 25.8999 26.16 20.0299 26.16C14.1199 26.16 9.10991 22.66 7.33991 17.82C6.89991 16.61 6.65991 15.31 6.65991 13.96C6.65991 7.22 12.6499 1.75 20.0299 1.75C27.4199 1.75 33.3999 7.22 33.3999 13.96V13.95Z" fill="url(#paint2_radial_2012_23920)"/>
<path style="mix-blend-mode:overlay" opacity="0.15" d="M20.03 4.66998C26.01 4.66998 31.01 8.91997 32.29 14.62C31.9 7.90997 26.56 2.59998 20.03 2.59998C13.5 2.59998 8.16002 7.90997 7.77002 14.62C9.05002 8.91997 14.05 4.66998 20.03 4.66998Z" fill="url(#paint3_linear_2012_23920)"/>
<g style="mix-blend-mode:soft-light" opacity="0.75" filter="url(#filter0_f_2012_23920)">
<path d="M20.03 21.64C15.46 21.64 11.31 19.98 8.29004 17.29C9.51004 22.14 14.3 25.76 20.03 25.76C25.76 25.76 30.55 22.14 31.77 17.29C28.75 19.98 24.61 21.64 20.03 21.64Z" fill="url(#paint4_linear_2012_23920)"/>
</g>
<path style="mix-blend-mode:overlay" opacity="0.6" d="M33.3999 14.75C33.3999 14.91 33.3999 15.07 33.3999 15.22C33.3999 15.37 33.3899 15.51 33.3799 15.66C33.3299 16.37 33.2199 17.05 33.0599 17.72C33.0199 17.91 32.9699 18.09 32.9099 18.28C32.8499 18.5 32.7799 18.72 32.6999 18.94C32.5699 18.99 32.4399 19.04 32.3099 19.09C31.9999 19.21 31.6999 19.33 31.3899 19.44C30.0499 19.93 28.6999 20.33 27.3599 20.64C26.7199 20.79 26.0699 20.92 25.4299 21.03C21.7999 21.66 18.1699 21.66 14.5299 21C13.8899 20.88 13.2499 20.75 12.6099 20.59C11.3199 20.28 10.0399 19.88 8.74992 19.4C8.45992 19.29 8.16992 19.18 7.87992 19.07C7.69992 19 7.52992 18.93 7.34992 18.85C7.27992 18.64 7.20992 18.42 7.14992 18.2C7.08992 18 7.03992 17.79 6.98992 17.59C6.84992 16.96 6.74992 16.31 6.69992 15.65C6.67992 15.44 6.66992 15.23 6.66992 15.01C6.66992 14.92 6.66992 14.83 6.66992 14.74C6.66992 14.47 6.66992 14.21 6.69992 13.94C6.72992 13.52 6.76992 13.11 6.83992 12.7C6.88992 12.38 6.94992 12.06 7.02992 11.75C7.34992 10.41 7.88992 9.13997 8.60992 7.98997C8.87992 7.55997 9.16992 7.13997 9.48992 6.74997C11.9399 3.68997 15.7599 1.71997 20.0499 1.71997C24.3399 1.71997 28.4499 3.83997 30.8799 7.09997C31.1799 7.49997 31.4499 7.91997 31.6999 8.34997C32.3499 9.45997 32.8299 10.68 33.1199 11.97C33.1799 12.24 33.2299 12.52 33.2799 12.8C33.3499 13.27 33.3999 13.74 33.4199 14.23C33.4199 14.4 33.4299 14.57 33.4299 14.75H33.3999Z" fill="url(#paint5_radial_2012_23920)"/>
<g style="mix-blend-mode:overlay" opacity="0.7">
<path d="M14.3929 6.35689C15.5877 5.48334 16.2366 4.33787 15.8422 3.7984C15.4478 3.25893 14.1595 3.52975 12.9646 4.40329C11.7698 5.27684 11.1209 6.42231 11.5153 6.96178C11.9097 7.50125 13.198 7.23043 14.3929 6.35689Z" fill="url(#paint6_radial_2012_23920)"/>
<path d="M11.2505 8.55527C11.6239 8.11157 11.6936 7.55585 11.4062 7.31405C11.1189 7.07224 10.5833 7.23592 10.2099 7.67963C9.83652 8.12334 9.76679 8.67905 10.0541 8.92085C10.3415 9.16266 10.8771 8.99898 11.2505 8.55527Z" fill="url(#paint7_radial_2012_23920)"/>
<path d="M9.47666 10.1693C9.67935 9.92848 9.71691 9.62656 9.56056 9.49499C9.4042 9.36342 9.11314 9.45203 8.91046 9.69289C8.70777 9.93376 8.67021 10.2357 8.82656 10.3673C8.98292 10.4988 9.27398 10.4102 9.47666 10.1693Z" fill="url(#paint8_radial_2012_23920)"/>
<path d="M25.3911 5.03747C25.601 4.7194 25.3825 4.2051 24.9031 3.88875C24.4237 3.5724 23.8649 3.57379 23.655 3.89186C23.4451 4.20993 23.6636 4.72423 24.143 5.04058C24.6224 5.35693 25.1812 5.35553 25.3911 5.03747Z" fill="url(#paint9_radial_2012_23920)"/>
<path d="M26.6407 5.85077C26.7532 5.68021 26.6352 5.40385 26.3771 5.23351C26.1189 5.06317 25.8184 5.06334 25.7059 5.2339C25.5933 5.40446 25.7113 5.68081 25.9695 5.85116C26.2276 6.0215 26.5281 6.02132 26.6407 5.85077Z" fill="url(#paint10_radial_2012_23920)"/>
<path d="M30.7291 10.6633C30.9029 10.5559 30.9096 10.2517 30.744 9.98393C30.5785 9.71618 30.3034 9.58625 30.1296 9.69372C29.9558 9.80118 29.9491 10.1054 30.1147 10.3731C30.2802 10.6409 30.5553 10.7708 30.7291 10.6633Z" fill="url(#paint11_radial_2012_23920)"/>
<path d="M31.6799 19.11C31.4299 20.21 30.7399 20.99 30.4599 20.92C30.1799 20.85 30.6899 20.29 30.9399 19.18C31.1899 18.07 31.0799 16.85 31.3599 16.92C31.6399 16.99 31.9199 18 31.6699 19.11H31.6799Z" fill="url(#paint12_radial_2012_23920)"/>
</g>
<path opacity="0.2" d="M33.8099 9.53999C33.0799 7.81999 32.0399 6.27999 30.7199 4.95999C29.3999 3.63999 27.8499 2.59999 26.1399 1.86999C24.3599 1.11999 22.4699 0.73999 20.5299 0.73999H20.0999C18.1499 0.73999 16.2699 1.11999 14.4899 1.86999C12.7699 2.59999 11.2299 3.63999 9.90994 4.95999C8.58994 6.27999 7.54994 7.82999 6.81994 9.53999C6.06994 11.32 5.68994 13.21 5.68994 15.15C5.68994 17.09 6.06994 18.98 6.81994 20.76C7.54994 22.48 8.58994 24.02 9.90994 25.34C11.2299 26.66 12.7799 27.7 14.4899 28.43C16.2699 29.18 18.1599 29.56 20.0999 29.56H20.5299C22.4799 29.56 24.3599 29.18 26.1399 28.43C27.8599 27.7 29.3999 26.66 30.7199 25.34C32.0399 24.02 33.0799 22.47 33.8099 20.76C34.5599 18.98 34.9399 17.09 34.9399 15.15C34.9399 13.21 34.5599 11.32 33.8099 9.53999ZM33.2799 15.15C33.2799 22.2 27.5699 27.91 20.5199 27.91H20.0899C13.0399 27.91 7.32994 22.2 7.32994 15.15C7.32994 8.09999 13.0399 2.38999 20.0899 2.38999H20.5199C27.5699 2.38999 33.2799 8.09999 33.2799 15.15Z" fill="black"/>
<path d="M33.84 9.03C33.1 7.27 32.03 5.69 30.67 4.33C29.31 2.97 27.73 1.91 25.97 1.16C24.15 0.39 22.21 0 20.22 0H19.78C17.79 0 15.85 0.39 14.03 1.16C12.27 1.9 10.69 2.97 9.33 4.33C7.97 5.69 6.91 7.27 6.16 9.03C5.39 10.85 5 12.79 5 14.78C5 16.77 5.39 18.71 6.16 20.53C6.9 22.29 7.97 23.87 9.33 25.23C10.69 26.59 12.27 27.65 14.03 28.4C15.85 29.17 17.79 29.56 19.78 29.56H20.22C22.21 29.56 24.15 29.17 25.97 28.4C27.73 27.66 29.31 26.59 30.67 25.23C32.03 23.87 33.09 22.29 33.84 20.53C34.61 18.71 35 16.77 35 14.78C35 12.79 34.61 10.85 33.84 9.03ZM33.3 14.78C33.3 22 27.44 27.86 20.22 27.86H19.78C12.56 27.86 6.7 22 6.7 14.78C6.7 7.56 12.56 1.7 19.78 1.7H20.22C27.44 1.7 33.3 7.56 33.3 14.78Z" fill="#FCF0DA"/>
<g opacity="0.2">
<path d="M13.8863 15.3916L13.8863 15.4016C13.8856 16.0588 14.4178 16.5921 15.075 16.5928L25.765 16.604C26.4222 16.6047 26.9556 16.0725 26.9562 15.4152L26.9563 15.4052C26.9569 14.748 26.4247 14.2147 25.7675 14.214L15.0775 14.2028C14.4203 14.2021 13.887 14.7343 13.8863 15.3916Z" fill="black"/>
</g>
<path d="M13.0952 14.6108C13.0959 13.9508 13.6265 13.4213 14.2865 13.422L24.9765 13.4332C25.6365 13.4339 26.1659 13.9645 26.1652 14.6245C26.1645 15.2845 25.634 15.8139 24.974 15.8132L14.284 15.802C13.624 15.8013 13.0945 15.2708 13.0952 14.6108Z" fill="white"/>
<defs>
<filter id="filter0_f_2012_23920" x="0.290039" y="9.29004" width="39.48" height="24.47" filterUnits="userSpaceOnUse" color-interpolation-filters="sRGB">
<feFlood flood-opacity="0" result="BackgroundImageFix"/>
<feBlend mode="normal" in="SourceGraphic" in2="BackgroundImageFix" result="shape"/>
<feGaussianBlur stdDeviation="4" result="effect1_foregroundBlur_2012_23920"/>
</filter>
<radialGradient id="paint0_radial_2012_23920" cx="0" cy="0" r="1" gradientUnits="userSpaceOnUse" gradientTransform="translate(20.4155 17.29) scale(13.392 13.95)">
<stop/>
<stop offset="0.84" stop-opacity="0.2"/>
</radialGradient>
<radialGradient id="paint1_radial_2012_23920" cx="0" cy="0" r="1" gradientUnits="userSpaceOnUse" gradientTransform="translate(19.883 15.6675) scale(12.2903 20.7022)">
<stop stop-color="#F76F06"/>
<stop offset="0.98" stop-color="#D33501"/>
</radialGradient>
<radialGradient id="paint2_radial_2012_23920" cx="0" cy="0" r="1" gradientUnits="userSpaceOnUse" gradientTransform="translate(19.883 13.9826) scale(12.2903 20.6938)">
<stop stop-color="#F76F06"/>
<stop offset="0.98" stop-color="#D33501"/>
</radialGradient>
<linearGradient id="paint3_linear_2012_23920" x1="20.03" y1="14.62" x2="20.03" y2="2.59998" gradientUnits="userSpaceOnUse">
<stop stop-color="white" stop-opacity="0"/>
<stop offset="1" stop-color="white"/>
</linearGradient>
<linearGradient id="paint4_linear_2012_23920" x1="20.03" y1="25.75" x2="20.03" y2="17.29" gradientUnits="userSpaceOnUse">
<stop/>
<stop offset="0.09" stop-color="#0C0C0C"/>
<stop offset="0.24" stop-color="#2C2C2C"/>
<stop offset="0.46" stop-color="#616161"/>
<stop offset="0.71" stop-color="#AAAAAA"/>
<stop offset="0.98" stop-color="white"/>
</linearGradient>
<radialGradient id="paint5_radial_2012_23920" cx="0" cy="0" r="1" gradientUnits="userSpaceOnUse" gradientTransform="translate(20.1371 10.304) scale(14.6496 14.1918)">
<stop stop-color="white"/>
<stop offset="1" stop-color="white" stop-opacity="0"/>
</radialGradient>
<radialGradient id="paint6_radial_2012_23920" cx="0" cy="0" r="1" gradientUnits="userSpaceOnUse" gradientTransform="translate(16.3422 2.977) rotate(-34.05) scale(1.9588 1.5106)">
<stop offset="0.51" stop-color="white"/>
<stop offset="1" stop-color="white" stop-opacity="0"/>
</radialGradient>
<radialGradient id="paint7_radial_2012_23920" cx="0" cy="0" r="1" gradientUnits="userSpaceOnUse" gradientTransform="translate(28.9789 -2.01113) rotate(-45.96) scale(0.5152 1.3104)">
<stop offset="0.51" stop-color="white"/>
<stop offset="1" stop-color="white" stop-opacity="0"/>
</radialGradient>
<radialGradient id="paint8_radial_2012_23920" cx="0" cy="0" r="1" gradientUnits="userSpaceOnUse" gradientTransform="translate(27.5166 -0.198891) rotate(-45.96) scale(0.276 0.702)">
<stop offset="0.51" stop-color="white"/>
<stop offset="1" stop-color="white" stop-opacity="0"/>
</radialGradient>
<radialGradient id="paint9_radial_2012_23920" cx="0" cy="0" r="1" gradientUnits="userSpaceOnUse" gradientTransform="translate(-246.252 -155.613) rotate(-146.03) scale(0.5152 1.3216)">
<stop offset="0.51" stop-color="white"/>
<stop offset="1" stop-color="white" stop-opacity="0"/>
</radialGradient>
<radialGradient id="paint10_radial_2012_23920" cx="0" cy="0" r="1" gradientUnits="userSpaceOnUse" gradientTransform="translate(-244.262 -154.373) rotate(-146.03) scale(0.276 0.708002)">
<stop offset="0.51" stop-color="white"/>
<stop offset="1" stop-color="white" stop-opacity="0"/>
</radialGradient>
<radialGradient id="paint11_radial_2012_23920" cx="0" cy="0" r="1" gradientUnits="userSpaceOnUse" gradientTransform="translate(-101.175 -239.788) rotate(-121.16) scale(0.282 0.69)">
<stop offset="0.51" stop-color="white"/>
<stop offset="1" stop-color="white" stop-opacity="0"/>
</radialGradient>
<radialGradient id="paint12_radial_2012_23920" cx="0" cy="0" r="1" gradientUnits="userSpaceOnUse" gradientTransform="translate(30.5694 12.1649) rotate(-78.4) scale(2.0424 0.7548)">
<stop stop-color="white"/>
<stop offset="1" stop-color="white" stop-opacity="0"/>
</radialGradient>
</defs>
</svg>
