<svg width="252" height="116" viewBox="0 0 252 116" fill="none" xmlns="http://www.w3.org/2000/svg">
<path d="M251.291 65.0616C251.291 67.6012 251.236 70.1591 251.163 72.6987C251.017 77.7231 250.761 82.7475 250.396 87.7719C250.195 90.5856 249.958 93.4176 249.665 96.2312C249.172 101.183 246.249 105.549 241.864 108.728C237.753 112.108 232.071 114.356 225.658 114.739C197.156 116.42 54.1516 116.42 25.6495 114.739C19.2365 114.356 13.5361 112.108 9.44349 108.728C5.04028 105.568 2.13526 101.183 1.64195 96.2312C1.45924 94.3676 1.29481 92.504 1.13038 90.6404C0.673612 85.141 0.363011 79.6415 0.180305 74.1604C0.0889518 71.0361 0.0158691 67.9118 0.0158691 64.8058C0.0158691 62.5768 0.01587 60.3661 0.0524112 58.137V58.0457C0.107223 54.8301 0.198576 51.6327 0.34474 48.4354C0.454364 45.8775 0.600528 43.3196 0.764963 40.7617C1.00248 37.3086 1.29481 33.8372 1.62368 30.384C1.87947 27.7713 2.81127 25.3413 4.27292 23.1306C5.5884 21.1574 7.34238 19.3851 9.42523 17.8869C13.5361 14.5069 19.2183 12.2596 25.6312 11.8759C54.1334 10.195 197.137 10.195 225.639 11.8759C232.052 12.2596 237.753 14.5069 241.845 17.8869C244.495 19.7871 246.614 22.144 247.966 24.7932C248.88 26.5289 249.446 28.4108 249.647 30.384C250.012 34.0199 250.305 37.6557 250.542 41.3098C250.725 44.0321 250.871 46.7727 250.981 49.5133C251.09 52.2722 251.182 55.0493 251.218 57.8082C251.255 60.2564 251.273 62.6681 251.255 65.0799L251.291 65.0616Z" fill="url(#paint0_radial_2012_23769)"/>
<path d="M251.163 68.0031C251.09 70.6707 250.981 73.3199 250.853 75.9874C250.615 80.5185 250.286 85.0679 249.866 89.599C249.793 90.3115 249.738 91.0424 249.665 91.7549C249.172 96.688 246.249 101.073 241.864 104.234C237.753 107.614 232.071 109.861 225.658 110.245C197.156 111.926 54.1516 111.926 25.6495 110.245C19.2365 109.861 13.5361 107.614 9.44348 104.234C5.25952 101.237 2.42758 97.1265 1.7333 92.4857C1.69676 92.2482 1.66021 91.9924 1.64194 91.7366C1.1669 87.0046 0.801493 82.2907 0.545705 77.5587C0.362999 74.4344 0.235103 71.3101 0.14375 68.1859C0.0158557 64.1115 -0.0206849 60.0372 0.0158563 55.9628V55.908C0.0158563 54.9031 0.0341277 53.8983 0.0523983 52.8934C0.10721 50.0614 0.180291 47.2295 0.308186 44.3975C0.527433 39.1904 0.874573 34.0016 1.34961 28.7945C1.44096 27.8078 1.53232 26.8395 1.62367 25.8529C2.11698 20.9016 5.022 16.5349 9.42521 13.3558C13.5361 9.97574 19.2183 7.72846 25.6312 7.34478C54.1334 5.66388 197.137 5.66388 225.639 7.34478C232.052 7.72846 237.753 9.97574 241.845 13.3558C246.249 16.5166 249.154 20.9016 249.647 25.8529C249.775 27.1501 249.903 28.4473 250.012 29.7263C250.451 34.641 250.761 39.5558 250.981 44.4706C251.109 47.5218 251.2 50.573 251.237 53.6242C251.237 54.1175 251.236 54.6108 251.255 55.1041V55.2685C251.291 59.5073 251.255 63.7461 251.145 67.9666L251.163 68.0031Z" fill="url(#paint1_radial_2012_23769)"/>
<g style="mix-blend-mode:hard-light" opacity="0.2">
<path d="M249.665 23.2402C249.172 18.2889 246.249 13.9222 241.864 10.7431C237.753 7.36307 232.071 5.11579 225.658 4.73211C197.156 3.05121 54.1516 3.05121 25.6495 4.73211C19.2365 5.11579 13.5361 7.36307 9.44345 10.7431C5.04024 13.9039 2.13522 18.2889 1.64191 23.2402C-0.532289 45.2015 -0.532289 67.1627 1.64191 89.1057C2.13522 94.057 5.05851 98.4237 9.44345 101.603C13.5543 104.983 19.2365 107.23 25.6495 107.614C54.1516 109.295 197.156 109.295 225.658 107.614C232.071 107.23 237.771 104.983 241.864 101.603C246.267 98.442 249.172 94.057 249.665 89.1057C251.839 67.1445 251.839 45.1832 249.665 23.2402Z" fill="white"/>
</g>
<path d="M250.67 72.9727C250.414 77.2115 250.067 81.432 249.647 85.6708C249.154 90.6221 246.249 95.007 241.845 98.1679C237.735 101.548 232.052 103.795 225.639 104.179C197.137 105.86 54.1334 105.86 25.6312 104.179C19.2 103.795 13.5178 101.548 9.42522 98.1679C5.02201 95.007 2.11699 90.6221 1.62368 85.6708C1.24 81.7609 0.911126 77.8327 0.673609 73.9228C-0.477439 55.8714 -0.148567 37.8384 1.62368 19.8053C2.11699 14.854 5.02201 10.4873 9.42522 7.3082C13.5361 3.92814 19.2183 1.68085 25.6312 1.29717C54.1334 -0.383725 197.137 -0.383725 225.639 1.29717C232.071 1.68085 237.753 3.92814 241.845 7.3082C246.249 10.469 249.154 14.854 249.647 19.8053C251.401 37.5278 251.748 55.2685 250.67 72.991V72.9727Z" fill="url(#paint2_radial_2012_23769)"/>
<g style="mix-blend-mode:soft-light" opacity="0.75">
<path d="M251.291 54.4829C251.291 57.0225 251.236 59.5804 251.163 62.12C251.017 67.1444 250.761 72.1689 250.396 77.1933C250.195 80.0069 249.958 82.8389 249.665 85.6526C249.172 90.6039 246.249 94.9706 241.864 98.1496C237.753 101.53 232.071 103.777 225.658 104.161C197.156 105.842 54.1516 105.842 25.6495 104.161C19.2365 103.777 13.5361 101.53 9.44346 98.1496C5.04025 94.9888 2.13523 90.6039 1.64192 85.6526C1.45921 83.789 1.29478 81.9254 1.13035 80.0618C0.673581 74.5623 0.36298 69.0629 0.180274 63.5817C0.0889213 60.4574 0.0158386 57.3331 0.0158386 54.2271C0.0158386 51.9981 0.0158395 49.7874 0.0523806 47.5584V47.467C0.107192 44.2514 0.198545 41.054 0.34471 37.8567C0.454333 35.2988 0.600497 32.7409 0.764933 30.183C1.00245 26.7299 1.29478 23.2585 1.62365 19.8053C1.87944 17.1926 2.81124 14.7627 4.27289 12.5519C5.58837 10.5787 7.34235 8.80645 9.4252 7.30826C13.5361 3.9282 19.2182 1.68091 25.6312 1.29723C54.1333 -0.383664 197.137 -0.383664 225.639 1.29723C232.052 1.68091 237.753 3.9282 241.845 7.30826C244.495 9.2084 246.614 11.5653 247.966 14.2145C248.88 15.9502 249.446 17.8321 249.647 19.8053C250.012 23.4412 250.305 27.077 250.542 30.7312C250.725 33.4535 250.871 36.1941 250.981 38.9347C251.09 41.6935 251.182 44.4706 251.218 47.2295C251.255 49.6778 251.273 52.0895 251.255 54.5012L251.291 54.4829Z" fill="url(#paint3_linear_2012_23769)"/>
</g>
<path style="mix-blend-mode:overlay" opacity="0.6" d="M251.291 53.679C251.291 54.1723 251.291 54.6473 251.291 55.1407V55.3051C251.291 56.1273 251.291 56.9677 251.255 57.7899C251.218 60.1651 251.163 62.522 251.072 64.8789C251.036 65.8472 250.999 66.8156 250.962 67.7839C250.889 69.3004 250.816 70.8168 250.725 72.3333C250.725 72.5525 250.707 72.7535 250.688 72.9727C249.738 73.2285 248.77 73.5026 247.82 73.7401C242.777 75.0739 237.735 76.2432 232.71 77.2663C230.938 77.6318 229.147 77.9789 227.375 78.3078C197.119 83.862 52.3246 84.063 21.9954 78.6549C20.3876 78.3626 18.7798 78.0702 17.1537 77.7414C12.6226 76.8461 8.0732 75.823 3.52383 74.6536C2.57376 74.4161 1.60541 74.1603 0.655344 73.9046C0.655344 73.8132 0.655344 73.7218 0.655344 73.6305C0.545721 71.7303 0.436093 69.8302 0.34474 67.9301C0.289929 66.8156 0.253388 65.7011 0.216847 64.5683C0.143764 62.4123 0.0889523 60.2564 0.0524112 58.1005V58.0091C0.0524112 57.3149 0.0341397 56.6388 0.0158691 55.9446V55.8897C0.0158691 54.9031 0.0158691 53.9165 0.0158691 52.9299C0.0158691 51.4865 0.01587 50.0614 0.0524112 48.618C0.0524112 47.2843 0.088954 45.9505 0.125495 44.6168C0.143766 43.484 0.180306 42.3512 0.216847 41.2185C0.363012 37.1989 0.563985 33.1611 0.856315 29.1416C0.947668 27.6982 1.07556 26.2731 1.18519 24.8297C1.31308 23.1488 1.47752 21.4497 1.64195 19.7688C2.13526 14.8357 5.04028 10.4508 9.44349 7.2717C13.5544 3.89164 19.2365 1.64435 25.6495 1.26067C54.1516 -0.420224 197.156 -0.420224 225.658 1.26067C232.089 1.64435 237.771 3.89164 241.882 7.2717C246.285 10.4325 249.19 14.8175 249.684 19.7688C249.884 21.8516 250.085 23.9162 250.25 25.9808C250.36 27.3328 250.451 28.6848 250.542 30.0369C250.816 33.9102 250.999 37.8019 251.145 41.6752C251.182 42.6618 251.2 43.6484 251.237 44.6351C251.273 46.2977 251.31 47.9603 251.328 49.6412C251.328 50.975 251.328 52.3087 251.328 53.6425L251.291 53.679Z" fill="url(#paint4_radial_2012_23769)"/>
<g style="mix-blend-mode:soft-light" opacity="0.6">
<path d="M210.822 17.0282C210.859 23.4777 191.035 19.4034 119.981 19.4034C61.7157 19.4034 39.6631 23.6787 39.6265 17.2292C39.59 10.7797 60.8752 5.44464 121.095 5.44464C190.176 5.44464 210.767 10.5787 210.804 17.0282H210.822Z" fill="white"/>
</g>
<path d="M145.668 88.5325L145.738 88.4925C146.658 87.9725 146.968 86.8125 146.438 85.9125L145.408 84.1525C144.878 83.2525 143.708 82.9425 142.788 83.4725L142.718 83.5125C141.798 84.0325 141.488 85.1925 142.018 86.0925L143.048 87.8525C143.578 88.7525 144.748 89.0625 145.668 88.5325Z" fill="#C47B43"/>
<path d="M143.688 91.5425L143.758 91.4925C144.608 90.8725 144.788 89.6825 144.158 88.8525L142.918 87.2225C142.288 86.3925 141.078 86.2225 140.228 86.8425L140.158 86.8925C139.308 87.5125 139.128 88.7025 139.758 89.5325L140.998 91.1625C141.628 91.9925 142.838 92.1625 143.688 91.5425Z" fill="#C47B43"/>
<path d="M142.278 94.9125L142.328 94.8525C143.018 94.0625 142.938 92.8725 142.138 92.1925L140.568 90.8625C139.768 90.1825 138.558 90.2725 137.858 91.0625L137.808 91.1225C137.118 91.9125 137.198 93.1025 137.998 93.7825L139.568 95.1125C140.368 95.7925 141.578 95.7025 142.278 94.9125Z" fill="#C47B43"/>
<path d="M140.608 98.0025L140.648 97.9325C141.168 97.0225 140.838 95.8725 139.908 95.3725L138.098 94.3825C137.168 93.8825 135.998 94.2125 135.488 95.1225L135.448 95.1925C134.928 96.1025 135.258 97.2525 136.188 97.7525L137.998 98.7425C138.928 99.2425 140.098 98.9125 140.608 98.0025Z" fill="#C47B43"/>
<path d="M143.751 63.31L74.276 55.7013C70.3177 55.2677 66.7575 58.1252 66.324 62.0835L63.1538 91.0304C62.7202 94.9887 65.5777 98.549 69.536 98.9825L139.011 106.591C142.969 107.025 146.529 104.167 146.963 100.209L150.133 71.262C150.566 67.3037 147.709 63.7435 143.751 63.31Z" fill="#B7441D"/>
<path d="M142.219 63.1448L74.0366 55.6776C70.2156 55.2592 66.7787 58.0175 66.3603 61.8386L63.3643 89.195C62.9458 93.016 65.7041 96.4529 69.5252 96.8713L137.707 104.339C141.529 104.757 144.965 101.999 145.384 98.1776L148.38 70.8212C148.798 67.0001 146.04 63.5633 142.219 63.1448Z" fill="url(#paint5_linear_2012_23769)"/>
<g opacity="0.5">
<mask id="mask0_2012_23769" style="mask-type:luminance" maskUnits="userSpaceOnUse" x="63" y="55" width="86" height="50">
<path d="M142.219 63.1448L74.0366 55.6776C70.2155 55.2592 66.7787 58.0175 66.3602 61.8386L63.3642 89.195C62.9457 93.016 65.7041 96.4529 69.5251 96.8713L137.707 104.339C141.529 104.757 144.965 101.999 145.384 98.1776L148.38 70.8212C148.798 67.0001 146.04 63.5633 142.219 63.1448Z" fill="white"/>
</mask>
<g mask="url(#mask0_2012_23769)">
<path d="M88.9969 48.7031L75.4184 41.8054L51.324 89.2364L64.9025 96.1341L88.9969 48.7031Z" fill="#FBFFBA"/>
<path d="M98.425 53.1372L93.8156 50.7957L69.7212 98.2267L74.3306 100.568L98.425 53.1372Z" fill="#FBFFBA"/>
<path d="M136.948 60.5416L131.643 57.8468L107.549 105.278L112.854 107.973L136.948 60.5416Z" fill="#FBFFBA"/>
</g>
</g>
<path d="M63.2578 89.1825L66.1278 62.5825C66.1878 59.1325 68.8678 55.9225 72.3578 55.5425C83.7978 56.1625 129.998 61.8825 142.218 63.0525L142.198 63.2425C137.728 63.1225 133.278 62.7925 128.808 62.5725C110.898 61.3425 91.6678 59.5125 73.8678 57.2825C70.5778 56.8125 67.7678 59.5125 67.6078 62.7425C66.5278 70.5525 64.8978 81.5625 63.4478 89.2025L63.2578 89.1825Z" fill="white"/>
<path d="M139.057 66.9631L75.9738 60.0544C72.9708 59.7255 70.2697 61.8934 69.9408 64.8964L67.512 87.0738C67.1831 90.0769 69.3509 92.7779 72.354 93.1068L135.437 100.015C138.44 100.344 141.141 98.1765 141.47 95.1735L143.899 72.9961C144.227 69.9931 142.06 67.292 139.057 66.9631Z" stroke="#B7441D" stroke-width="0.84" stroke-miterlimit="10"/>
<path d="M73.2124 89.1519L75.6492 66.9022L72.6495 66.5737L73.0195 63.1954L82.7902 64.2655L82.4202 67.6437L79.5371 67.328L77.1003 89.5777L73.2124 89.1519ZM82.2987 90.1471L85.1054 64.519L89.0079 64.9464L86.2012 90.5744L82.2987 90.1471ZM101.776 85.2068C101.504 87.6823 100.862 89.4686 99.8477 90.5659C98.8346 91.6535 97.3815 92.0936 95.4886 91.8863C93.5956 91.679 92.2474 90.8928 91.4439 89.5277C90.6513 88.1539 90.3852 86.2778 90.6457 83.8995L91.8688 72.7309C92.2867 68.9158 93.5475 66.6421 95.6515 65.9098C96.4275 65.6411 97.3398 65.5642 98.3882 65.679C101.99 66.0734 103.542 68.5422 103.044 73.0854L102.658 76.6092L98.8868 76.1962L99.2456 72.9199C99.3902 71.5997 99.3817 70.6458 99.2201 70.0583C99.0595 69.4611 98.6541 69.1269 98.0037 69.0557C97.3532 68.9844 96.8689 69.2359 96.5506 69.8102C96.2323 70.3844 96.0051 71.2928 95.869 72.5354L94.5581 84.5048C94.4071 85.8833 94.4206 86.8819 94.5984 87.5006C94.7762 88.1194 95.1855 88.4638 95.8262 88.534C96.4669 88.6042 96.9416 88.3516 97.2502 87.7763C97.5588 87.201 97.7891 86.2193 97.9411 84.8311L98.343 81.1616L102.173 81.581L101.776 85.2068ZM104.199 92.5455L107.006 66.9175L110.908 67.3449L109.616 79.1396L114.811 67.7723L118.844 68.214L113.208 80.3876L116.372 93.8787L112.251 93.4274L109.441 81.0067L108.131 92.9761L104.199 92.5455ZM118.324 94.0924L121.13 68.4644L129.721 69.4053L129.353 72.769L124.664 72.2555L123.848 79.7109L128.304 80.1989L127.943 83.4897L123.487 83.0018L122.594 91.1561L127.458 91.6888L127.09 95.0524L118.324 94.0924ZM131.516 95.5372L133.953 73.2875L130.953 72.959L131.323 69.5807L141.094 70.6508L140.724 74.029L137.841 73.7133L135.404 95.963L131.516 95.5372Z" fill="#B7441D"/>
<path d="M36.4158 49.6385C36.4158 49.9505 35.6838 50.2025 34.2198 50.3945C32.7558 50.5865 31.2918 50.6825 29.8278 50.6825C28.3638 50.6825 27.4278 50.5985 27.0198 50.4305C26.6118 50.2625 26.4078 49.9985 26.4078 49.6385V26.4905C26.4078 25.3385 29.8638 24.7625 36.7758 24.7625C40.9518 24.7625 43.7118 25.0505 45.0558 25.6265C46.6878 26.2985 47.7918 27.2105 48.3678 28.3625C49.1358 29.8505 49.5198 31.7585 49.5198 34.0865C49.5198 37.2785 48.9678 39.5945 47.8638 41.0345C47.0718 42.0905 46.2798 42.7745 45.4878 43.0865C44.6958 43.3985 44.0358 43.6265 43.5078 43.7705C43.0038 43.8905 42.3678 43.9865 41.5998 44.0585C40.5438 44.1545 39.1038 44.2025 37.2798 44.2025L36.4158 44.1665V49.6385ZM36.4518 38.1905H37.3158C37.7718 38.1905 38.1318 38.1305 38.3958 38.0105C38.6598 37.8665 38.8878 37.5065 39.0798 36.9305C39.2958 36.3305 39.4038 35.5025 39.4038 34.4465C39.4038 33.3665 39.2838 32.5505 39.0438 31.9985C38.8278 31.4225 38.5998 31.0865 38.3598 30.9905C38.1438 30.8705 37.8798 30.8105 37.5678 30.8105H36.4518V38.1905ZM54.885 50.6825C53.685 50.6825 52.881 50.6225 52.473 50.5025C52.065 50.3585 51.861 50.1305 51.861 49.8185V27.4265C51.861 26.8985 52.557 26.3825 53.949 25.8785C55.341 25.3505 56.901 25.0865 58.629 25.0865C60.165 25.0865 61.173 25.4105 61.653 26.0585C61.821 26.2985 61.905 26.5385 61.905 26.7785V42.7265C64.833 42.5345 67.041 42.4385 68.529 42.4385C69.033 42.4385 69.285 43.2425 69.285 44.8505C69.285 46.4345 69.177 47.8025 68.961 48.9545C68.745 50.1065 68.457 50.6825 68.097 50.6825H54.885ZM81.379 48.8465C81.331 49.5425 80.959 50.0225 80.263 50.2865C79.591 50.5505 78.367 50.6825 76.591 50.6825C74.815 50.6825 73.327 50.5265 72.127 50.2145C70.951 49.8785 70.363 49.4585 70.363 48.9545C70.363 48.3785 71.431 44.7065 73.567 37.9385C75.703 31.1465 76.927 27.2345 77.239 26.2025C77.359 25.8905 78.319 25.6385 80.119 25.4465C81.943 25.2305 83.887 25.1225 85.951 25.1225C88.039 25.1225 89.191 25.4825 89.407 26.2025C93.943 41.2745 96.211 48.9305 96.211 49.1705C96.211 49.4105 96.067 49.6505 95.779 49.8905C95.107 50.4185 93.775 50.6825 91.783 50.6825C87.535 50.6825 85.363 50.1785 85.267 49.1705L85.015 46.8305H81.559L81.379 48.8465ZM84.259 39.9905L83.719 33.5105H82.927L82.315 39.9905H84.259ZM109.437 49.6385C109.437 49.9505 108.705 50.2025 107.241 50.3945C105.777 50.5865 104.313 50.6825 102.849 50.6825C101.409 50.6825 100.473 50.6105 100.041 50.4665C99.6093 50.2985 99.3933 50.0225 99.3933 49.6385V43.3745C94.6413 33.6545 92.2653 28.3745 92.2653 27.5345C92.2653 27.0305 93.0693 26.5025 94.6773 25.9505C96.2853 25.3985 97.9773 25.1225 99.7533 25.1225C102.033 25.1225 103.245 25.7945 103.389 27.1385L104.361 36.8225H104.757L105.441 27.3905C105.489 26.7185 106.341 26.1785 107.997 25.7705C109.653 25.3385 111.225 25.1225 112.713 25.1225C114.201 25.1225 115.233 25.3385 115.809 25.7705C116.385 26.2025 116.673 26.6585 116.673 27.1385C116.673 27.5945 114.261 33.0065 109.437 43.3745V49.6385ZM136.612 49.6385C136.612 49.9505 135.868 50.2025 134.38 50.3945C132.916 50.5865 131.452 50.6825 129.988 50.6825C128.524 50.6825 127.588 50.5985 127.18 50.4305C126.772 50.2625 126.568 49.9985 126.568 49.6385V27.5345C126.568 26.9345 127.252 26.3825 128.62 25.8785C130.012 25.3745 131.584 25.1225 133.336 25.1225C133.96 25.1225 134.428 25.1465 134.74 25.1945C135.556 25.3145 136.132 25.8305 136.468 26.7425L139.924 36.0305H140.068V27.5345C140.068 26.9345 140.752 26.3825 142.12 25.8785C143.488 25.3745 145.048 25.1225 146.8 25.1225C148.312 25.1225 149.272 25.4105 149.68 25.9865C149.968 26.3945 150.112 26.7665 150.112 27.1025V49.6385C150.112 49.9505 149.368 50.2025 147.88 50.3945C146.416 50.5865 144.796 50.6825 143.02 50.6825C141.268 50.6825 140.308 50.4545 140.14 49.9985L136.792 41.1425H136.612V49.6385ZM165.173 51.0065C163.181 51.0065 161.465 50.8265 160.025 50.4665C158.609 50.0825 157.301 49.4105 156.101 48.4505C153.677 46.5545 152.465 42.9185 152.465 37.5425C152.465 35.2865 152.789 33.3185 153.437 31.6385C154.109 29.9585 155.033 28.6265 156.209 27.6425C158.513 25.7225 161.501 24.7625 165.173 24.7625C167.069 24.7625 168.713 24.9305 170.105 25.2665C171.521 25.6025 172.853 26.2145 174.101 27.1025C176.621 28.9265 177.881 32.4065 177.881 37.5425C177.881 42.1505 176.741 45.5465 174.461 47.7305C172.181 49.9145 169.085 51.0065 165.173 51.0065ZM163.985 44.8505C164.273 45.1865 164.669 45.3545 165.173 45.3545C165.677 45.3545 166.073 45.1865 166.361 44.8505C166.649 44.4905 166.889 43.7465 167.081 42.6185C167.273 41.4665 167.369 39.8705 167.369 37.8305C167.369 35.7905 167.273 34.2185 167.081 33.1145C166.889 32.0105 166.649 31.2905 166.361 30.9545C166.073 30.6185 165.677 30.4505 165.173 30.4505C164.669 30.4505 164.273 30.6185 163.985 30.9545C163.697 31.2905 163.457 32.0105 163.265 33.1145C163.073 34.2185 162.977 35.7905 162.977 37.8305C162.977 39.8705 163.073 41.4665 163.265 42.6185C163.457 43.7465 163.697 44.4905 163.985 44.8505ZM189.027 50.6825C187.875 50.6825 187.119 50.5985 186.759 50.4305C186.399 50.2625 186.147 49.9745 186.003 49.5665L178.047 27.6065C178.047 27.1505 178.899 26.6225 180.603 26.0225C182.331 25.4225 184.071 25.1225 185.823 25.1225C188.079 25.1225 189.279 25.8305 189.423 27.2465L190.647 38.6585H191.151L192.159 27.2465C192.279 25.8305 193.899 25.1225 197.019 25.1225C198.219 25.1225 199.023 25.2905 199.431 25.6265C199.839 25.9385 200.067 26.3585 200.115 26.8865L201.303 38.6585H201.807L202.743 27.2465C202.815 26.5505 203.631 26.0225 205.191 25.6625C206.775 25.3025 208.335 25.1225 209.871 25.1225C211.431 25.1225 212.487 25.3505 213.039 25.8065C213.615 26.2625 213.903 26.7425 213.903 27.2465L206.199 49.5665C205.935 50.3105 204.159 50.6825 200.871 50.6825C199.887 50.6825 199.227 50.5985 198.891 50.4305C198.555 50.2625 198.327 49.9745 198.207 49.5665L196.335 43.3025H195.903L193.995 49.5665C193.779 50.3105 192.123 50.6825 189.027 50.6825ZM215.365 25.4825C215.341 25.2185 216.025 25.0145 217.417 24.8705C218.809 24.7025 220.441 24.6185 222.313 24.6185C224.185 24.6185 225.121 24.8945 225.121 25.4465C225.121 26.1425 224.905 31.9265 224.473 42.7985C224.449 43.3985 224.017 43.9385 223.177 44.4185C222.337 44.8985 221.149 45.1385 219.613 45.1385C217.525 45.1385 216.433 44.5745 216.337 43.4465L215.365 25.4825ZM224.725 50.3585C224.725 51.5825 224.329 52.4225 223.537 52.8785C222.769 53.3585 221.677 53.5985 220.261 53.5985C218.869 53.5985 217.801 53.3825 217.057 52.9505C216.313 52.5425 215.941 51.6785 215.941 50.3585C215.941 48.1985 217.405 47.1185 220.333 47.1185C223.261 47.1185 224.725 48.1985 224.725 50.3585Z" fill="white"/>
<path d="M154.711 94.5881C154.557 95.3177 153.703 95.6825 152.147 95.6825C150.592 95.6825 149.181 95.5961 147.914 95.4233C146.666 95.2313 146.042 94.9433 146.042 94.5593C146.042 94.3289 146.445 93.6089 147.251 92.3993C148.058 91.1897 149.277 89.4905 150.909 87.3017C147.837 83.1161 146.301 80.9273 146.301 80.7353C146.301 80.3705 146.973 79.9865 148.317 79.5833C149.661 79.1801 150.794 78.9785 151.715 78.9785C152.637 78.9785 153.347 79.0937 153.847 79.3241C154.365 79.5353 154.653 79.7753 154.711 80.0441L155.978 84.4505H156.237L156.698 80.3033C156.717 80.1881 156.938 80.0345 157.36 79.8425C157.802 79.6313 158.387 79.4393 159.117 79.2665C159.847 79.0745 160.547 78.9785 161.219 78.9785C163.754 78.9785 165.021 79.4105 165.021 80.2745C165.021 80.5433 164.647 81.3017 163.898 82.5497C163.149 83.7785 162.026 85.4969 160.528 87.7049C163.715 92.0249 165.309 94.3097 165.309 94.5593C165.309 95.3081 164.224 95.6825 162.055 95.6825C158.695 95.6825 156.938 95.3177 156.784 94.5881L155.661 90.8153H155.459L154.711 94.5881ZM177.339 94.9913C177.339 95.2025 176.754 95.3753 175.582 95.5097C174.411 95.6249 173.24 95.6825 172.069 95.6825C170.898 95.6825 170.139 95.6345 169.794 95.5385C169.467 95.4233 169.304 95.2409 169.304 94.9913V82.5497H166.366C166.04 82.5497 165.877 81.8489 165.877 80.4473C165.877 79.0457 166.04 77.7785 166.366 76.6457C166.462 76.2809 167.48 75.9449 169.419 75.6377C171.358 75.3305 172.846 75.1769 173.883 75.1769C174.92 75.1769 175.611 75.2153 175.957 75.2921C176.302 75.3689 176.562 75.4649 176.734 75.5801C176.907 75.6761 177.042 75.7913 177.138 75.9257C177.272 76.1369 177.339 76.3385 177.339 76.5305V94.9913Z" fill="#731F0D"/>
<path d="M152.461 92.3381C152.307 93.0677 151.453 93.4325 149.897 93.4325C148.342 93.4325 146.931 93.3461 145.664 93.1733C144.416 92.9813 143.792 92.6933 143.792 92.3093C143.792 92.0789 144.195 91.3589 145.001 90.1493C145.808 88.9397 147.027 87.2405 148.659 85.0517C145.587 80.8661 144.051 78.6773 144.051 78.4853C144.051 78.1205 144.723 77.7365 146.067 77.3333C147.411 76.9301 148.544 76.7285 149.465 76.7285C150.387 76.7285 151.097 76.8437 151.597 77.0741C152.115 77.2853 152.403 77.5253 152.461 77.7941L153.728 82.2005H153.987L154.448 78.0533C154.467 77.9381 154.688 77.7845 155.11 77.5925C155.552 77.3813 156.137 77.1893 156.867 77.0165C157.597 76.8245 158.297 76.7285 158.969 76.7285C161.504 76.7285 162.771 77.1605 162.771 78.0245C162.771 78.2933 162.397 79.0517 161.648 80.2997C160.899 81.5285 159.776 83.2469 158.278 85.4549C161.465 89.7749 163.059 92.0597 163.059 92.3093C163.059 93.0581 161.974 93.4325 159.805 93.4325C156.445 93.4325 154.688 93.0677 154.534 92.3381L153.411 88.5653H153.209L152.461 92.3381ZM175.089 92.7413C175.089 92.9525 174.504 93.1253 173.332 93.2597C172.161 93.3749 170.99 93.4325 169.819 93.4325C168.648 93.4325 167.889 93.3845 167.544 93.2885C167.217 93.1733 167.054 92.9909 167.054 92.7413V80.2997H164.116C163.79 80.2997 163.627 79.5989 163.627 78.1973C163.627 76.7957 163.79 75.5285 164.116 74.3957C164.212 74.0309 165.23 73.6949 167.169 73.3877C169.108 73.0805 170.596 72.9269 171.633 72.9269C172.67 72.9269 173.361 72.9653 173.707 73.0421C174.052 73.1189 174.312 73.2149 174.484 73.3301C174.657 73.4261 174.792 73.5413 174.888 73.6757C175.022 73.8869 175.089 74.0885 175.089 74.2805V92.7413Z" fill="white"/>
<defs>
<radialGradient id="paint0_radial_2012_23769" cx="0" cy="0" r="1" gradientUnits="userSpaceOnUse" gradientTransform="translate(126.01 63.4363) scale(116.124 89.4901)">
<stop/>
<stop offset="0.84" stop-opacity="0.2"/>
</radialGradient>
<radialGradient id="paint1_radial_2012_23769" cx="0" cy="0" r="1" gradientUnits="userSpaceOnUse" gradientTransform="translate(124.255 58.9139) scale(115.488 89.3717)">
<stop stop-color="#F76F06"/>
<stop offset="0.98" stop-color="#D33501"/>
</radialGradient>
<radialGradient id="paint2_radial_2012_23769" cx="0" cy="0" r="1" gradientUnits="userSpaceOnUse" gradientTransform="translate(124.261 52.8571) scale(115.496 89.3562)">
<stop stop-color="#F76F06"/>
<stop offset="0.98" stop-color="#D33501"/>
</radialGradient>
<linearGradient id="paint3_linear_2012_23769" x1="122.794" y1="106.006" x2="122.794" y2="79.5136" gradientUnits="userSpaceOnUse">
<stop/>
<stop offset="0.84" stop-opacity="0"/>
</linearGradient>
<radialGradient id="paint4_radial_2012_23769" cx="0" cy="0" r="1" gradientUnits="userSpaceOnUse" gradientTransform="translate(126.986 22.2594) scale(120.167 92.6056)">
<stop stop-color="white"/>
<stop offset="1" stop-color="white" stop-opacity="0"/>
</radialGradient>
<linearGradient id="paint5_linear_2012_23769" x1="107.912" y1="61.3391" x2="102.397" y2="111.688" gradientUnits="userSpaceOnUse">
<stop offset="0.32" stop-color="#F8E84E"/>
<stop offset="0.44" stop-color="#F6E14C"/>
<stop offset="0.6" stop-color="#F3CF49"/>
<stop offset="0.79" stop-color="#EDB143"/>
<stop offset="0.95" stop-color="#E7923D"/>
</linearGradient>
</defs>
</svg>
