<svg width="40" height="34" viewBox="0 0 40 34" fill="none" xmlns="http://www.w3.org/2000/svg">
<path d="M20.0299 31.23C27.414 31.23 33.3999 24.9843 33.3999 17.28C33.3999 9.57558 27.414 3.32996 20.0299 3.32996C12.6459 3.32996 6.65991 9.57558 6.65991 17.28C6.65991 24.9843 12.6459 31.23 20.0299 31.23Z" fill="url(#paint0_radial_2012_23871)"/>
<path d="M33.3999 15.6501C33.3999 16.1001 33.3699 16.5401 33.3199 16.9701C33.2999 17.1701 33.2699 17.3701 33.2299 17.5601C33.1699 17.8901 33.0999 18.2201 33.0099 18.5401C32.9499 18.7701 32.8799 18.9901 32.8099 19.2201C32.5799 19.9101 32.2799 20.5801 31.9299 21.2101C31.8599 21.3401 31.7799 21.4801 31.6999 21.6101C29.4099 25.3401 25.0399 27.8501 20.0299 27.8501C15.0199 27.8501 10.7499 25.3901 8.43991 21.7301C8.35991 21.6001 8.27992 21.4701 8.19992 21.3401C7.83992 20.7101 7.52992 20.0601 7.28992 19.3701C7.20992 19.1501 7.13991 18.9201 7.07991 18.6901C6.96991 18.3101 6.87992 17.9201 6.81992 17.5301C6.77992 17.3101 6.74992 17.0901 6.72992 16.8601C6.68992 16.4601 6.65991 16.0501 6.65991 15.6301C6.65991 15.3401 6.66991 15.0601 6.68991 14.7801C6.70991 14.5501 6.72992 14.3201 6.75992 14.0901C6.80992 13.7001 6.88992 13.3201 6.97992 12.9501C7.10992 12.4301 7.26991 11.9201 7.46991 11.4201C7.59991 11.1001 7.73992 10.7901 7.89992 10.4801C8.56992 9.17005 9.4799 7.99005 10.5899 6.98005C10.9999 6.60005 11.4399 6.25005 11.9099 5.93005C14.1599 4.36005 16.9699 3.43005 20.0199 3.43005C23.0699 3.43005 26.1199 4.44005 28.4199 6.14005C28.8899 6.48005 29.3299 6.86005 29.7399 7.25005C30.7999 8.27005 31.6699 9.47005 32.2899 10.7801C32.4199 11.0601 32.5399 11.3401 32.6499 11.6201C32.8499 12.1501 33.0199 12.7001 33.1399 13.2701C33.2099 13.6101 33.2699 13.9601 33.3099 14.3201C33.3299 14.4801 33.3399 14.6301 33.3599 14.7901C33.3799 15.0701 33.3899 15.3601 33.3899 15.6401L33.3999 15.6501Z" fill="url(#paint1_radial_2012_23871)"/>
<g style="mix-blend-mode:hard-light" opacity="0.2">
<path d="M20.0299 26.64C27.414 26.64 33.3999 21.1734 33.3999 14.43C33.3999 7.68657 27.414 2.21997 20.0299 2.21997C12.6459 2.21997 6.65991 7.68657 6.65991 14.43C6.65991 21.1734 12.6459 26.64 20.0299 26.64Z" fill="white"/>
</g>
<path d="M33.3999 13.94C33.3999 15.32 33.1499 16.64 32.6899 17.88C30.8999 22.69 25.8999 26.15 20.0299 26.15C14.1599 26.15 9.10992 22.65 7.33992 17.81C6.89992 16.6 6.65991 15.3 6.65991 13.95C6.65991 7.20999 12.6499 1.73999 20.0299 1.73999C27.4199 1.73999 33.3999 7.20999 33.3999 13.95V13.94Z" fill="url(#paint2_radial_2012_23871)"/>
<path style="mix-blend-mode:overlay" opacity="0.15" d="M20.0298 4.66998C26.0098 4.66998 31.0098 8.91998 32.2898 14.62C31.8998 7.90998 26.5598 2.59998 20.0298 2.59998C13.4998 2.59998 8.15978 7.90998 7.76978 14.62C9.04978 8.91998 14.0498 4.66998 20.0298 4.66998Z" fill="url(#paint3_linear_2012_23871)"/>
<g style="mix-blend-mode:soft-light" opacity="0.75" filter="url(#filter0_f_2012_23871)">
<path d="M20.0298 21.64C15.4598 21.64 11.3098 19.98 8.28979 17.29C9.50979 22.14 14.2998 25.76 20.0298 25.76C25.7598 25.76 30.5498 22.14 31.7698 17.29C28.7498 19.98 24.6098 21.64 20.0298 21.64Z" fill="url(#paint4_linear_2012_23871)"/>
</g>
<path style="mix-blend-mode:overlay" opacity="0.6" d="M33.3999 14.75C33.3999 14.91 33.3999 15.07 33.3999 15.22C33.3999 15.37 33.3899 15.51 33.3799 15.66C33.3299 16.37 33.2199 17.05 33.0599 17.72C33.0199 17.91 32.9699 18.09 32.9099 18.28C32.8499 18.5 32.7799 18.72 32.6999 18.94C32.5699 18.99 32.4399 19.04 32.3099 19.09C31.9999 19.21 31.6999 19.33 31.3899 19.44C30.0499 19.93 28.6999 20.33 27.3599 20.64C26.7199 20.79 26.0699 20.92 25.4299 21.03C21.7999 21.66 18.1699 21.66 14.5299 21C13.8899 20.88 13.2499 20.75 12.6099 20.59C11.3199 20.28 10.0399 19.88 8.74992 19.4C8.45992 19.29 8.16993 19.18 7.87993 19.07C7.69993 19 7.52993 18.93 7.34993 18.85C7.27993 18.64 7.20993 18.42 7.14993 18.2C7.08993 18 7.03993 17.79 6.98993 17.59C6.84993 16.96 6.74994 16.31 6.69994 15.65C6.67994 15.44 6.66992 15.23 6.66992 15.01C6.66992 14.92 6.66992 14.83 6.66992 14.74C6.66992 14.47 6.66994 14.21 6.69994 13.94C6.72994 13.52 6.76994 13.11 6.83994 12.7C6.88994 12.38 6.94992 12.06 7.02992 11.75C7.34992 10.41 7.88994 9.13997 8.60994 7.98997C8.87994 7.55997 9.16991 7.13997 9.48991 6.74997C11.9399 3.68997 15.7599 1.71997 20.0499 1.71997C24.3399 1.71997 28.4499 3.83997 30.8799 7.09997C31.1799 7.49997 31.4499 7.91997 31.6999 8.34997C32.3499 9.45997 32.8299 10.68 33.1199 11.97C33.1799 12.24 33.2299 12.52 33.2799 12.8C33.3499 13.27 33.3999 13.74 33.4199 14.23C33.4199 14.4 33.4299 14.57 33.4299 14.75H33.3999Z" fill="url(#paint5_radial_2012_23871)"/>
<g style="mix-blend-mode:overlay" opacity="0.7">
<path d="M14.3969 6.3525C15.5917 5.47895 16.2406 4.33347 15.8462 3.794C15.4518 3.25453 14.1635 3.52536 12.9686 4.3989C11.7738 5.27245 11.1249 6.41792 11.5193 6.95739C11.9137 7.49686 13.202 7.22604 14.3969 6.3525Z" fill="url(#paint6_radial_2012_23871)"/>
<path d="M11.2469 8.55245C11.6203 8.10874 11.69 7.55304 11.4026 7.31124C11.1153 7.06943 10.5797 7.2331 10.2063 7.67681C9.83293 8.12051 9.76319 8.67624 10.0505 8.91805C10.3379 9.15985 10.8735 8.99616 11.2469 8.55245Z" fill="url(#paint7_radial_2012_23871)"/>
<path d="M9.46544 10.1601C9.66813 9.9192 9.70569 9.61727 9.54934 9.4857C9.39298 9.35413 9.10192 9.44274 8.89923 9.68361C8.69654 9.92448 8.65898 10.2264 8.81533 10.358C8.97168 10.4895 9.26275 10.4009 9.46544 10.1601Z" fill="url(#paint8_radial_2012_23871)"/>
<path d="M25.3705 5.01586C25.5804 4.69779 25.3619 4.18352 24.8825 3.86717C24.4031 3.55082 23.8443 3.55218 23.6345 3.87025C23.4246 4.18832 23.6431 4.70262 24.1225 5.01897C24.6019 5.33532 25.1607 5.33393 25.3705 5.01586Z" fill="url(#paint9_radial_2012_23871)"/>
<path d="M26.6201 5.83917C26.7327 5.66862 26.6146 5.39227 26.3565 5.22192C26.0983 5.05158 25.7978 5.05175 25.6853 5.22231C25.5727 5.39287 25.6908 5.66922 25.9489 5.83956C26.2071 6.0099 26.5076 6.00973 26.6201 5.83917Z" fill="url(#paint10_radial_2012_23871)"/>
<path d="M30.7208 10.6575C30.8947 10.55 30.9014 10.2458 30.7358 9.97806C30.5702 9.71031 30.2951 9.58039 30.1213 9.68786C29.9475 9.79533 29.9408 10.0995 30.1064 10.3673C30.2719 10.635 30.547 10.7649 30.7208 10.6575Z" fill="url(#paint11_radial_2012_23871)"/>
<path d="M31.68 19.11C31.43 20.21 30.74 20.99 30.46 20.92C30.18 20.85 30.69 20.29 30.94 19.18C31.19 18.07 31.08 16.85 31.36 16.92C31.64 16.99 31.92 18 31.67 19.11H31.68Z" fill="url(#paint12_radial_2012_23871)"/>
</g>
<path opacity="0.2" d="M33.8099 9.52998C33.0799 7.80998 32.0399 6.26998 30.7199 4.94998C29.3999 3.62998 27.85 2.58998 26.14 1.85998C24.36 1.10998 22.4699 0.72998 20.5299 0.72998H20.0999C18.1499 0.72998 16.2699 1.10998 14.4899 1.85998C12.7699 2.58998 11.2299 3.62998 9.90994 4.94998C8.58994 6.26998 7.54995 7.81998 6.81995 9.52998C6.06995 11.31 5.68994 13.2 5.68994 15.14C5.68994 17.09 6.06995 18.97 6.81995 20.75C7.54995 22.47 8.58994 24.01 9.90994 25.33C11.2299 26.65 12.7799 27.69 14.4899 28.42C16.2699 29.17 18.1599 29.55 20.0999 29.55H20.5299C22.4799 29.55 24.36 29.17 26.14 28.42C27.86 27.69 29.3999 26.65 30.7199 25.33C32.0399 24.01 33.0799 22.46 33.8099 20.75C34.5599 18.97 34.9399 17.08 34.9399 15.14C34.9399 13.19 34.5599 11.31 33.8099 9.52998ZM33.2799 15.15C33.2799 22.2 27.57 27.91 20.52 27.91H20.0899C13.0399 27.91 7.32994 22.2 7.32994 15.15C7.32994 8.09998 13.0399 2.38998 20.0899 2.38998H20.52C27.57 2.38998 33.2799 8.09998 33.2799 15.15Z" fill="black"/>
<path d="M33.84 9.03C33.1 7.27 32.03 5.69 30.67 4.33C29.31 2.97 27.73 1.91 25.97 1.16C24.15 0.39 22.21 0 20.22 0H19.78C17.79 0 15.85 0.39 14.03 1.16C12.27 1.9 10.69 2.97 9.33002 4.33C7.97002 5.69 6.91 7.27 6.16 9.03C5.39 10.85 5 12.79 5 14.78C5 16.77 5.39 18.71 6.16 20.53C6.9 22.29 7.97002 23.87 9.33002 25.23C10.69 26.59 12.27 27.65 14.03 28.4C15.85 29.17 17.79 29.56 19.78 29.56H20.22C22.21 29.56 24.15 29.17 25.97 28.4C27.73 27.66 29.31 26.59 30.67 25.23C32.03 23.87 33.09 22.29 33.84 20.53C34.61 18.71 35 16.77 35 14.78C35 12.79 34.61 10.85 33.84 9.03ZM33.3 14.78C33.3 22 27.44 27.86 20.22 27.86H19.78C12.56 27.86 6.70001 22 6.70001 14.78C6.70001 7.56 12.56 1.7 19.78 1.7H20.22C27.44 1.7 33.3 7.56 33.3 14.78Z" fill="#FCF0DA"/>
<g opacity="0.2">
<path d="M11.8799 15.58C11.8799 16.24 12.5399 16.77 13.3599 16.77H26.5599C27.3699 16.76 28.0299 16.22 28.0299 15.57C28.0299 14.91 27.3699 14.38 26.5499 14.38H13.3499C12.5399 14.39 11.8799 14.93 11.8799 15.58Z" fill="black"/>
</g>
<g opacity="0.2">
<path d="M19.94 7.48999C19.28 7.48999 18.75 8.14999 18.75 8.96999V22.17C18.76 22.98 19.3 23.64 19.95 23.64C20.61 23.64 21.14 22.98 21.14 22.16V8.95999C21.13 8.14999 20.59 7.48999 19.94 7.48999Z" fill="black"/>
</g>
<path d="M27.8599 14.61C27.8599 13.95 27.1999 13.42 26.3799 13.42H13.1399C12.3199 13.43 11.6599 13.97 11.6599 14.62C11.6599 15.28 12.3199 15.81 13.1399 15.81H26.3799C27.1999 15.8 27.8599 15.26 27.8599 14.61Z" fill="white"/>
<path d="M19.7698 22.71C20.4298 22.71 20.9598 22.05 20.9598 21.23V7.99001C20.9498 7.17001 20.4098 6.51001 19.7598 6.51001C19.0998 6.51001 18.5698 7.17001 18.5698 7.99001V21.23C18.5798 22.05 19.1198 22.71 19.7698 22.71Z" fill="white"/>
<defs>
<filter id="filter0_f_2012_23871" x="0.289795" y="9.29004" width="39.48" height="24.47" filterUnits="userSpaceOnUse" color-interpolation-filters="sRGB">
<feFlood flood-opacity="0" result="BackgroundImageFix"/>
<feBlend mode="normal" in="SourceGraphic" in2="BackgroundImageFix" result="shape"/>
<feGaussianBlur stdDeviation="4" result="effect1_foregroundBlur_2012_23871"/>
</filter>
<radialGradient id="paint0_radial_2012_23871" cx="0" cy="0" r="1" gradientUnits="userSpaceOnUse" gradientTransform="translate(20.7527 17.29) scale(13.392 13.95)">
<stop/>
<stop offset="0.84" stop-opacity="0.2"/>
</radialGradient>
<radialGradient id="paint1_radial_2012_23871" cx="0" cy="0" r="1" gradientUnits="userSpaceOnUse" gradientTransform="translate(19.883 15.6676) scale(12.2903 20.7022)">
<stop stop-color="#F79D06"/>
<stop offset="0.98" stop-color="#D36101"/>
</radialGradient>
<radialGradient id="paint2_radial_2012_23871" cx="0" cy="0" r="1" gradientUnits="userSpaceOnUse" gradientTransform="translate(19.883 13.9726) scale(12.2903 20.6938)">
<stop stop-color="#F79D06"/>
<stop offset="0.98" stop-color="#D36101"/>
</radialGradient>
<linearGradient id="paint3_linear_2012_23871" x1="20.0298" y1="14.62" x2="20.0298" y2="2.59998" gradientUnits="userSpaceOnUse">
<stop stop-color="white" stop-opacity="0"/>
<stop offset="1" stop-color="white"/>
</linearGradient>
<linearGradient id="paint4_linear_2012_23871" x1="20.0298" y1="25.75" x2="20.0298" y2="17.29" gradientUnits="userSpaceOnUse">
<stop/>
<stop offset="0.09" stop-color="#0C0C0C"/>
<stop offset="0.24" stop-color="#2C2C2C"/>
<stop offset="0.46" stop-color="#616161"/>
<stop offset="0.71" stop-color="#AAAAAA"/>
<stop offset="0.98" stop-color="white"/>
</linearGradient>
<radialGradient id="paint5_radial_2012_23871" cx="0" cy="0" r="1" gradientUnits="userSpaceOnUse" gradientTransform="translate(20.4743 10.1606) scale(14.6496 14.1918)">
<stop stop-color="white"/>
<stop offset="1" stop-color="white" stop-opacity="0"/>
</radialGradient>
<radialGradient id="paint6_radial_2012_23871" cx="0" cy="0" r="1" gradientUnits="userSpaceOnUse" gradientTransform="translate(13.6111 5.12154) rotate(-34.05) scale(1.95881 1.5106)">
<stop offset="0.51" stop-color="white"/>
<stop offset="1" stop-color="white" stop-opacity="0"/>
</radialGradient>
<radialGradient id="paint7_radial_2012_23871" cx="0" cy="0" r="1" gradientUnits="userSpaceOnUse" gradientTransform="translate(24.4847 0.897585) rotate(-45.96) scale(0.515202 1.3104)">
<stop offset="0.51" stop-color="white"/>
<stop offset="1" stop-color="white" stop-opacity="0"/>
</radialGradient>
<radialGradient id="paint8_radial_2012_23871" cx="0" cy="0" r="1" gradientUnits="userSpaceOnUse" gradientTransform="translate(23.0282 2.70033) rotate(-45.9601) scale(0.276004 0.702)">
<stop offset="0.51" stop-color="white"/>
<stop offset="1" stop-color="white" stop-opacity="0"/>
</radialGradient>
<radialGradient id="paint9_radial_2012_23871" cx="0" cy="0" r="1" gradientUnits="userSpaceOnUse" gradientTransform="translate(-216.112 -137.797) rotate(-146.03) scale(0.5152 1.32158)">
<stop offset="0.51" stop-color="white"/>
<stop offset="1" stop-color="white" stop-opacity="0"/>
</radialGradient>
<radialGradient id="paint10_radial_2012_23871" cx="0" cy="0" r="1" gradientUnits="userSpaceOnUse" gradientTransform="translate(-214.136 -136.545) rotate(-146.03) scale(0.276 0.707991)">
<stop offset="0.51" stop-color="white"/>
<stop offset="1" stop-color="white" stop-opacity="0"/>
</radialGradient>
<radialGradient id="paint11_radial_2012_23871" cx="0" cy="0" r="1" gradientUnits="userSpaceOnUse" gradientTransform="translate(-89.1398 -216.888) rotate(-121.16) scale(0.282 0.690019)">
<stop offset="0.51" stop-color="white"/>
<stop offset="1" stop-color="white" stop-opacity="0"/>
</radialGradient>
<radialGradient id="paint12_radial_2012_23871" cx="0" cy="0" r="1" gradientUnits="userSpaceOnUse" gradientTransform="translate(30.6606 11.9082) rotate(-78.3998) scale(2.0424 0.754811)">
<stop stop-color="white"/>
<stop offset="1" stop-color="white" stop-opacity="0"/>
</radialGradient>
</defs>
</svg>
